%TF.GenerationSoftware,KiCad,Pcbnew,(5.1.6)-1*%
%TF.CreationDate,2023-02-06T18:30:28+01:00*%
%TF.ProjectId,VisionIndustrielle_TP,56697369-6f6e-4496-9e64-757374726965,rev?*%
%TF.SameCoordinates,Original*%
%TF.FileFunction,Copper,L1,Top*%
%TF.FilePolarity,Positive*%
%FSLAX46Y46*%
G04 Gerber Fmt 4.6, Leading zero omitted, Abs format (unit mm)*
G04 Created by KiCad (PCBNEW (5.1.6)-1) date 2023-02-06 18:30:28*
%MOMM*%
%LPD*%
G01*
G04 APERTURE LIST*
%TA.AperFunction,ComponentPad*%
%ADD10O,1.750000X1.200000*%
%TD*%
%TA.AperFunction,ComponentPad*%
%ADD11R,1.700000X1.700000*%
%TD*%
%TA.AperFunction,ComponentPad*%
%ADD12O,1.700000X1.700000*%
%TD*%
%TA.AperFunction,ComponentPad*%
%ADD13R,1.350000X1.350000*%
%TD*%
%TA.AperFunction,ComponentPad*%
%ADD14O,1.350000X1.350000*%
%TD*%
%TA.AperFunction,ComponentPad*%
%ADD15C,1.600000*%
%TD*%
%TA.AperFunction,ComponentPad*%
%ADD16O,1.600000X1.600000*%
%TD*%
%TA.AperFunction,ComponentPad*%
%ADD17C,2.000000*%
%TD*%
%TA.AperFunction,ComponentPad*%
%ADD18R,2.000000X2.000000*%
%TD*%
%TA.AperFunction,ComponentPad*%
%ADD19R,2.600000X2.600000*%
%TD*%
%TA.AperFunction,ComponentPad*%
%ADD20C,2.600000*%
%TD*%
%TA.AperFunction,ComponentPad*%
%ADD21R,3.000000X3.000000*%
%TD*%
%TA.AperFunction,ComponentPad*%
%ADD22C,3.000000*%
%TD*%
%TA.AperFunction,ComponentPad*%
%ADD23R,2.000000X1.905000*%
%TD*%
%TA.AperFunction,ComponentPad*%
%ADD24O,2.000000X1.905000*%
%TD*%
%TA.AperFunction,ComponentPad*%
%ADD25O,1.200000X1.750000*%
%TD*%
%TA.AperFunction,ViaPad*%
%ADD26C,1.500000*%
%TD*%
%TA.AperFunction,Conductor*%
%ADD27C,1.000000*%
%TD*%
G04 APERTURE END LIST*
%TO.P,J13,1*%
%TO.N,MOT_1A*%
%TA.AperFunction,ComponentPad*%
G36*
G01*
X150504999Y-139100000D02*
X151755001Y-139100000D01*
G75*
G02*
X152005000Y-139349999I0J-249999D01*
G01*
X152005000Y-140050001D01*
G75*
G02*
X151755001Y-140300000I-249999J0D01*
G01*
X150504999Y-140300000D01*
G75*
G02*
X150255000Y-140050001I0J249999D01*
G01*
X150255000Y-139349999D01*
G75*
G02*
X150504999Y-139100000I249999J0D01*
G01*
G37*
%TD.AperFunction*%
D10*
%TO.P,J13,2*%
%TO.N,MOT_1B*%
X151130000Y-141700000D03*
%TO.P,J13,3*%
%TO.N,MOT_2A*%
X151130000Y-143700000D03*
%TO.P,J13,4*%
%TO.N,MOT_2B*%
X151130000Y-145700000D03*
%TD*%
D11*
%TO.P,J31,1*%
%TO.N,VREF_OUT_NUC*%
X88265000Y-167640000D03*
%TD*%
%TO.P,J22,1*%
%TO.N,GND*%
X36830000Y-96520000D03*
D12*
%TO.P,J22,2*%
%TO.N,3.3V_NUC*%
X34290000Y-96520000D03*
%TO.P,J22,3*%
%TO.N,CE_nRF*%
X36830000Y-93980000D03*
%TO.P,J22,4*%
%TO.N,CSN_nRF*%
X34290000Y-93980000D03*
%TO.P,J22,5*%
%TO.N,SCK*%
X36830000Y-91440000D03*
%TO.P,J22,6*%
%TO.N,MOSI*%
X34290000Y-91440000D03*
%TO.P,J22,7*%
%TO.N,MISO*%
X36830000Y-88900000D03*
%TO.P,J22,8*%
%TO.N,IRQ_nRF*%
X34290000Y-88900000D03*
%TD*%
%TO.P,J10,40*%
%TO.N,Net-(J10-Pad40)*%
X48815001Y-156130001D03*
%TO.P,J10,39*%
%TO.N,NUC_E1*%
X46275001Y-156130001D03*
%TO.P,J10,38*%
%TO.N,Net-(J10-Pad38)*%
X48815001Y-153590001D03*
%TO.P,J10,37*%
%TO.N,NUC_E2*%
X46275001Y-153590001D03*
%TO.P,J10,36*%
%TO.N,Net-(J10-Pad36)*%
X48815001Y-151050001D03*
%TO.P,J10,35*%
%TO.N,Net-(J10-Pad35)*%
X46275001Y-151050001D03*
%TO.P,J10,34*%
%TO.N,VREF_OUT_NUC*%
X48815001Y-148510001D03*
%TO.P,J10,33*%
%TO.N,NUC_E3*%
X46275001Y-148510001D03*
%TO.P,J10,32*%
%TO.N,Net-(J10-Pad32)*%
X48815001Y-145970001D03*
%TO.P,J10,31*%
%TO.N,VCapt3*%
X46275001Y-145970001D03*
%TO.P,J10,30*%
%TO.N,Net-(J10-Pad30)*%
X48815001Y-143430001D03*
%TO.P,J10,29*%
%TO.N,VCapt2*%
X46275001Y-143430001D03*
%TO.P,J10,28*%
%TO.N,Net-(J10-Pad28)*%
X48815001Y-140890001D03*
%TO.P,J10,27*%
%TO.N,VCapt1*%
X46275001Y-140890001D03*
%TO.P,J10,26*%
%TO.N,VIN*%
X48815001Y-138350001D03*
%TO.P,J10,25*%
%TO.N,USER_BUTTON*%
X46275001Y-138350001D03*
%TO.P,J10,24*%
%TO.N,GND*%
X48815001Y-135810001D03*
%TO.P,J10,23*%
%TO.N,RESET_N*%
X46275001Y-135810001D03*
%TO.P,J10,22*%
%TO.N,GND*%
X48815001Y-133270001D03*
%TO.P,J10,21*%
X46275001Y-133270001D03*
%TO.P,J10,20*%
%TO.N,5V_NUC*%
X48815001Y-130730001D03*
%TO.P,J10,19*%
%TO.N,Net-(J10-Pad19)*%
X46275001Y-130730001D03*
%TO.P,J10,18*%
%TO.N,3.3V_NUC*%
X48815001Y-128190001D03*
%TO.P,J10,17*%
%TO.N,Net-(J10-Pad17)*%
X46275001Y-128190001D03*
%TO.P,J10,16*%
%TO.N,Net-(J10-Pad16)*%
X48815001Y-125650001D03*
%TO.P,J10,15*%
%TO.N,Net-(J10-Pad15)*%
X46275001Y-125650001D03*
%TO.P,J10,14*%
%TO.N,Net-(J10-Pad14)*%
X48815001Y-123110001D03*
%TO.P,J10,13*%
%TO.N,Net-(J10-Pad13)*%
X46275001Y-123110001D03*
%TO.P,J10,12*%
%TO.N,Net-(J10-Pad12)*%
X48815001Y-120570001D03*
%TO.P,J10,11*%
%TO.N,Net-(J10-Pad11)*%
X46275001Y-120570001D03*
%TO.P,J10,10*%
%TO.N,Net-(J10-Pad10)*%
X48815001Y-118030001D03*
%TO.P,J10,9*%
%TO.N,Net-(J10-Pad9)*%
X46275001Y-118030001D03*
%TO.P,J10,8*%
%TO.N,Net-(J10-Pad8)*%
X48815001Y-115490001D03*
%TO.P,J10,7*%
%TO.N,Net-(J10-Pad7)*%
X46275001Y-115490001D03*
%TO.P,J10,6*%
%TO.N,GPIO2_STATUS*%
X48815001Y-112950001D03*
%TO.P,J10,5*%
%TO.N,Net-(J10-Pad5)*%
X46275001Y-112950001D03*
%TO.P,J10,4*%
%TO.N,RX*%
X48815001Y-110410001D03*
%TO.P,J10,3*%
%TO.N,TX*%
X46275001Y-110410001D03*
%TO.P,J10,2*%
%TO.N,Net-(J10-Pad2)*%
X48815001Y-107870001D03*
D11*
%TO.P,J10,1*%
%TO.N,Net-(J10-Pad1)*%
X46275001Y-107870001D03*
%TD*%
%TO.P,J14,1*%
%TO.N,Net-(J14-Pad1)*%
X107315000Y-107870001D03*
D12*
%TO.P,J14,2*%
%TO.N,Net-(J14-Pad2)*%
X109855000Y-107870001D03*
%TO.P,J14,3*%
%TO.N,NUC_P3*%
X107315000Y-110410001D03*
%TO.P,J14,4*%
%TO.N,NUC_P2*%
X109855000Y-110410001D03*
%TO.P,J14,5*%
%TO.N,Net-(J14-Pad5)*%
X107315000Y-112950001D03*
%TO.P,J14,6*%
%TO.N,NUC_P1*%
X109855000Y-112950001D03*
%TO.P,J14,7*%
%TO.N,Net-(J14-Pad7)*%
X107315000Y-115490001D03*
%TO.P,J14,8*%
%TO.N,Net-(J14-Pad8)*%
X109855000Y-115490001D03*
%TO.P,J14,9*%
%TO.N,Net-(J14-Pad9)*%
X107315000Y-118030001D03*
%TO.P,J14,10*%
%TO.N,Net-(J14-Pad10)*%
X109855000Y-118030001D03*
%TO.P,J14,11*%
%TO.N,Net-(J14-Pad11)*%
X107315000Y-120570001D03*
%TO.P,J14,12*%
%TO.N,Net-(J14-Pad12)*%
X109855000Y-120570001D03*
%TO.P,J14,13*%
%TO.N,SCK*%
X107315000Y-123110001D03*
%TO.P,J14,14*%
%TO.N,Net-(J14-Pad14)*%
X109855000Y-123110001D03*
%TO.P,J14,15*%
%TO.N,MISO*%
X107315000Y-125650001D03*
%TO.P,J14,16*%
%TO.N,LED_1*%
X109855000Y-125650001D03*
%TO.P,J14,17*%
%TO.N,MOSI*%
X107315000Y-128190001D03*
%TO.P,J14,18*%
%TO.N,Net-(J14-Pad18)*%
X109855000Y-128190001D03*
%TO.P,J14,19*%
%TO.N,Net-(J14-Pad19)*%
X107315000Y-130730001D03*
%TO.P,J14,20*%
%TO.N,LED_2*%
X109855000Y-130730001D03*
%TO.P,J14,21*%
%TO.N,CSN_nRF*%
X107315000Y-133270001D03*
%TO.P,J14,22*%
%TO.N,GND*%
X109855000Y-133270001D03*
%TO.P,J14,23*%
%TO.N,IRQ_nRF*%
X107315000Y-135810001D03*
%TO.P,J14,24*%
%TO.N,Net-(J14-Pad24)*%
X109855000Y-135810001D03*
%TO.P,J14,25*%
%TO.N,CE_nRF*%
X107315000Y-138350001D03*
%TO.P,J14,26*%
%TO.N,CFG3_NUC*%
X109855000Y-138350001D03*
%TO.P,J14,27*%
%TO.N,EN2_NUC*%
X107315000Y-140890001D03*
%TO.P,J14,28*%
%TO.N,CFG2_NUC*%
X109855000Y-140890001D03*
%TO.P,J14,29*%
%TO.N,STEP2_NUC*%
X107315000Y-143430001D03*
%TO.P,J14,30*%
%TO.N,CFG1_NUC*%
X109855000Y-143430001D03*
%TO.P,J14,31*%
%TO.N,DIR2_NUC*%
X107315000Y-145970001D03*
%TO.P,J14,32*%
%TO.N,EN_NUC*%
X109855000Y-145970001D03*
%TO.P,J14,33*%
%TO.N,DIR_NUC*%
X107315000Y-148510001D03*
%TO.P,J14,34*%
%TO.N,Net-(J14-Pad34)*%
X109855000Y-148510001D03*
%TO.P,J14,35*%
%TO.N,STEP_NUC*%
X107315000Y-151050001D03*
%TO.P,J14,36*%
X109855000Y-151050001D03*
%TO.P,J14,37*%
%TO.N,Net-(J14-Pad37)*%
X107315000Y-153590001D03*
%TO.P,J14,38*%
%TO.N,Net-(J14-Pad38)*%
X109855000Y-153590001D03*
%TO.P,J14,39*%
%TO.N,Net-(J14-Pad39)*%
X107315000Y-156130001D03*
%TO.P,J14,40*%
%TO.N,Net-(J14-Pad40)*%
X109855000Y-156130001D03*
%TD*%
D13*
%TO.P,J9,1*%
%TO.N,3.3V_NUC*%
X17145000Y-130810000D03*
D14*
%TO.P,J9,2*%
%TO.N,RX*%
X19145000Y-130810000D03*
%TO.P,J9,3*%
%TO.N,TX*%
X21145000Y-130810000D03*
%TO.P,J9,4*%
%TO.N,Net-(J9-Pad4)*%
X23145000Y-130810000D03*
%TO.P,J9,5*%
%TO.N,RESET_N*%
X25145000Y-130810000D03*
%TO.P,J9,6*%
%TO.N,Net-(J9-Pad6)*%
X27145000Y-130810000D03*
%TO.P,J9,7*%
%TO.N,Net-(J9-Pad7)*%
X29145000Y-130810000D03*
%TO.P,J9,8*%
%TO.N,Net-(J9-Pad8)*%
X31145000Y-130810000D03*
%TO.P,J9,9*%
%TO.N,Net-(J9-Pad9)*%
X33145000Y-130810000D03*
%TO.P,J9,10*%
%TO.N,GND*%
X35145000Y-130810000D03*
%TD*%
%TO.P,J11,10*%
%TO.N,Net-(J11-Pad10)*%
X35145000Y-108585000D03*
%TO.P,J11,9*%
%TO.N,Net-(J11-Pad9)*%
X33145000Y-108585000D03*
%TO.P,J11,8*%
%TO.N,GPIO2_STATUS*%
X31145000Y-108585000D03*
%TO.P,J11,7*%
%TO.N,Net-(J11-Pad7)*%
X29145000Y-108585000D03*
%TO.P,J11,6*%
%TO.N,Net-(J11-Pad6)*%
X27145000Y-108585000D03*
%TO.P,J11,5*%
%TO.N,Net-(J11-Pad5)*%
X25145000Y-108585000D03*
%TO.P,J11,4*%
%TO.N,Net-(J11-Pad4)*%
X23145000Y-108585000D03*
%TO.P,J11,3*%
%TO.N,Net-(J11-Pad3)*%
X21145000Y-108585000D03*
%TO.P,J11,2*%
%TO.N,Net-(J11-Pad2)*%
X19145000Y-108585000D03*
D13*
%TO.P,J11,1*%
%TO.N,Net-(J11-Pad1)*%
X17145000Y-108585000D03*
%TD*%
D15*
%TO.P,R1,1*%
%TO.N,GND*%
X34925000Y-113030000D03*
D16*
%TO.P,R1,2*%
%TO.N,Net-(J11-Pad5)*%
X24765000Y-113030000D03*
%TD*%
D17*
%TO.P,C1,2*%
%TO.N,GND*%
X125730000Y-89455000D03*
D18*
%TO.P,C1,1*%
%TO.N,VIN*%
X125730000Y-84455000D03*
%TD*%
%TO.P,C4,1*%
%TO.N,5V_REG*%
X129540000Y-106252000D03*
D17*
%TO.P,C4,2*%
%TO.N,GND*%
X129540000Y-111252000D03*
%TD*%
D11*
%TO.P,J1,1*%
%TO.N,VCapt1*%
X19050000Y-140335000D03*
D12*
%TO.P,J1,2*%
%TO.N,3.3V_NUC*%
X19050000Y-142875000D03*
%TO.P,J1,3*%
%TO.N,GND*%
X19050000Y-145415000D03*
%TD*%
D11*
%TO.P,J2,1*%
%TO.N,CFG3_NUC*%
X116332000Y-138176000D03*
D12*
%TO.P,J2,2*%
%TO.N,CFG3_NUC_O*%
X116332000Y-140716000D03*
%TD*%
%TO.P,J3,3*%
%TO.N,GND*%
X26035000Y-145415000D03*
%TO.P,J3,2*%
%TO.N,3.3V_NUC*%
X26035000Y-142875000D03*
D11*
%TO.P,J3,1*%
%TO.N,VCapt2*%
X26035000Y-140335000D03*
%TD*%
%TO.P,J4,1*%
%TO.N,VCapt3*%
X33020000Y-140335000D03*
D12*
%TO.P,J4,2*%
%TO.N,3.3V_NUC*%
X33020000Y-142875000D03*
%TO.P,J4,3*%
%TO.N,GND*%
X33020000Y-145415000D03*
%TD*%
D19*
%TO.P,J5,1*%
%TO.N,GND*%
X147955000Y-168910000D03*
D20*
%TO.P,J5,2*%
%TO.N,VMOT*%
X142875000Y-168910000D03*
%TD*%
D11*
%TO.P,J6,1*%
%TO.N,DIR_NUC*%
X121285000Y-138430000D03*
D12*
%TO.P,J6,2*%
%TO.N,STEP_NUC*%
X121285000Y-140970000D03*
%TO.P,J6,3*%
%TO.N,Net-(J6-Pad3)*%
X121285000Y-143510000D03*
%TO.P,J6,4*%
%TO.N,Net-(J6-Pad4)*%
X121285000Y-146050000D03*
%TO.P,J6,5*%
%TO.N,CFG3_NUC_O*%
X121285000Y-148590000D03*
%TO.P,J6,6*%
%TO.N,CFG2_NUC*%
X121285000Y-151130000D03*
%TO.P,J6,7*%
%TO.N,CFG1_NUC*%
X121285000Y-153670000D03*
%TO.P,J6,8*%
%TO.N,EN_NUC*%
X121285000Y-156210000D03*
%TD*%
%TO.P,J7,8*%
%TO.N,VMOT*%
X133985000Y-156210000D03*
%TO.P,J7,7*%
%TO.N,GND*%
X133985000Y-153670000D03*
%TO.P,J7,6*%
%TO.N,MOT_2B*%
X133985000Y-151130000D03*
%TO.P,J7,5*%
%TO.N,MOT_2A*%
X133985000Y-148590000D03*
%TO.P,J7,4*%
%TO.N,MOT_1B*%
X133985000Y-146050000D03*
%TO.P,J7,3*%
%TO.N,MOT_1A*%
X133985000Y-143510000D03*
%TO.P,J7,2*%
%TO.N,3.3V_NUC*%
X133985000Y-140970000D03*
D11*
%TO.P,J7,1*%
%TO.N,GND*%
X133985000Y-138430000D03*
%TD*%
%TO.P,J8,1*%
%TO.N,VREF_OUT_NUC*%
X123952000Y-156210000D03*
%TD*%
D19*
%TO.P,J12,1*%
%TO.N,GND*%
X140335000Y-85090000D03*
D20*
%TO.P,J12,2*%
%TO.N,VIN*%
X135255000Y-85090000D03*
%TD*%
D11*
%TO.P,J15,1*%
%TO.N,NUC_P1*%
X140335000Y-100330000D03*
D12*
%TO.P,J15,2*%
%TO.N,5V_REG*%
X140335000Y-102870000D03*
%TO.P,J15,3*%
%TO.N,GND*%
X140335000Y-105410000D03*
%TD*%
%TO.P,J16,3*%
%TO.N,GND*%
X140335000Y-117475000D03*
%TO.P,J16,2*%
%TO.N,5V_REG*%
X140335000Y-114935000D03*
D11*
%TO.P,J16,1*%
%TO.N,NUC_P2*%
X140335000Y-112395000D03*
%TD*%
%TO.P,J17,1*%
%TO.N,MOT_1A*%
X142875000Y-138430000D03*
D12*
%TO.P,J17,2*%
%TO.N,MOT_1B*%
X142875000Y-140970000D03*
%TO.P,J17,3*%
%TO.N,MOT_2A*%
X142875000Y-143510000D03*
%TO.P,J17,4*%
%TO.N,MOT_2B*%
X142875000Y-146050000D03*
%TD*%
%TO.P,J18,3*%
%TO.N,GND*%
X117475000Y-130810000D03*
%TO.P,J18,2*%
X117475000Y-128270000D03*
D11*
%TO.P,J18,1*%
X117475000Y-125730000D03*
%TD*%
D20*
%TO.P,J19,2*%
%TO.N,VECL*%
X64135000Y-172085000D03*
D19*
%TO.P,J19,1*%
%TO.N,GND*%
X69215000Y-172085000D03*
%TD*%
D11*
%TO.P,J20,1*%
%TO.N,5V_REG*%
X131445000Y-125730000D03*
D12*
%TO.P,J20,2*%
X131445000Y-128270000D03*
%TO.P,J20,3*%
X131445000Y-130810000D03*
%TD*%
D21*
%TO.P,J23,1*%
%TO.N,VECL*%
X52070000Y-172720000D03*
D22*
%TO.P,J23,2*%
%TO.N,Net-(J23-Pad2)*%
X46990000Y-172720000D03*
%TD*%
%TO.P,J24,2*%
%TO.N,Net-(J24-Pad2)*%
X33020000Y-172720000D03*
D21*
%TO.P,J24,1*%
%TO.N,VECL*%
X38100000Y-172720000D03*
%TD*%
%TO.P,J25,1*%
%TO.N,VECL*%
X24130000Y-172720000D03*
D22*
%TO.P,J25,2*%
%TO.N,Net-(J25-Pad2)*%
X19050000Y-172720000D03*
%TD*%
D11*
%TO.P,J26,1*%
%TO.N,NUC_P3*%
X140335000Y-125730000D03*
D12*
%TO.P,J26,2*%
%TO.N,5V_REG*%
X140335000Y-128270000D03*
%TO.P,J26,3*%
%TO.N,GND*%
X140335000Y-130810000D03*
%TD*%
D23*
%TO.P,Q1,1*%
%TO.N,NUC_E1*%
X34925000Y-155575000D03*
D24*
%TO.P,Q1,2*%
%TO.N,Net-(J23-Pad2)*%
X34925000Y-158115000D03*
%TO.P,Q1,3*%
%TO.N,GND*%
X34925000Y-160655000D03*
%TD*%
%TO.P,Q2,3*%
%TO.N,GND*%
X23495000Y-160655000D03*
%TO.P,Q2,2*%
%TO.N,Net-(J24-Pad2)*%
X23495000Y-158115000D03*
D23*
%TO.P,Q2,1*%
%TO.N,NUC_E2*%
X23495000Y-155575000D03*
%TD*%
%TO.P,Q3,1*%
%TO.N,NUC_E3*%
X12065000Y-155575000D03*
D24*
%TO.P,Q3,2*%
%TO.N,Net-(J25-Pad2)*%
X12065000Y-158115000D03*
%TO.P,Q3,3*%
%TO.N,GND*%
X12065000Y-160655000D03*
%TD*%
D15*
%TO.P,R2,1*%
%TO.N,NUC_E1*%
X41275000Y-155575000D03*
D16*
%TO.P,R2,2*%
%TO.N,GND*%
X41275000Y-165735000D03*
%TD*%
%TO.P,R3,2*%
%TO.N,GND*%
X29845000Y-165735000D03*
D15*
%TO.P,R3,1*%
%TO.N,NUC_E2*%
X29845000Y-155575000D03*
%TD*%
%TO.P,R4,1*%
%TO.N,NUC_E3*%
X18415000Y-155575000D03*
D16*
%TO.P,R4,2*%
%TO.N,GND*%
X18415000Y-165735000D03*
%TD*%
D23*
%TO.P,U1,1*%
%TO.N,VIN*%
X111760000Y-95250000D03*
D24*
%TO.P,U1,2*%
%TO.N,GND*%
X111760000Y-97790000D03*
%TO.P,U1,3*%
%TO.N,5V_REG*%
X111760000Y-100330000D03*
%TD*%
D18*
%TO.P,C2,1*%
%TO.N,VMOT*%
X142955000Y-155575000D03*
D17*
%TO.P,C2,2*%
%TO.N,GND*%
X147955000Y-155575000D03*
%TD*%
D11*
%TO.P,J21,1*%
%TO.N,3.3V_NUC*%
X124460000Y-125730000D03*
D12*
%TO.P,J21,2*%
X124460000Y-128270000D03*
%TO.P,J21,3*%
X124460000Y-130810000D03*
%TD*%
D11*
%TO.P,J27,1*%
%TO.N,DIR2_NUC*%
X106045000Y-165100000D03*
D12*
%TO.P,J27,2*%
%TO.N,STEP2_NUC*%
X103505000Y-165100000D03*
%TO.P,J27,3*%
%TO.N,Net-(J27-Pad3)*%
X100965000Y-165100000D03*
%TO.P,J27,4*%
%TO.N,Net-(J27-Pad4)*%
X98425000Y-165100000D03*
%TO.P,J27,5*%
%TO.N,Net-(J27-Pad5)*%
X95885000Y-165100000D03*
%TO.P,J27,6*%
%TO.N,GND*%
X93345000Y-165100000D03*
%TO.P,J27,7*%
%TO.N,3.3V_NUC*%
X90805000Y-165100000D03*
%TO.P,J27,8*%
%TO.N,EN2_NUC*%
X88265000Y-165100000D03*
%TD*%
%TO.P,J28,1*%
%TO.N,MOT2_1A*%
%TA.AperFunction,ComponentPad*%
G36*
G01*
X123860000Y-180330001D02*
X123860000Y-179079999D01*
G75*
G02*
X124109999Y-178830000I249999J0D01*
G01*
X124810001Y-178830000D01*
G75*
G02*
X125060000Y-179079999I0J-249999D01*
G01*
X125060000Y-180330001D01*
G75*
G02*
X124810001Y-180580000I-249999J0D01*
G01*
X124109999Y-180580000D01*
G75*
G02*
X123860000Y-180330001I0J249999D01*
G01*
G37*
%TD.AperFunction*%
D25*
%TO.P,J28,2*%
%TO.N,MOT2_1B*%
X126460000Y-179705000D03*
%TO.P,J28,3*%
%TO.N,MOT2_2A*%
X128460000Y-179705000D03*
%TO.P,J28,4*%
%TO.N,MOT2_2B*%
X130460000Y-179705000D03*
%TD*%
D11*
%TO.P,J29,1*%
%TO.N,MOT2_1A*%
X123190000Y-172720000D03*
D12*
%TO.P,J29,2*%
%TO.N,MOT2_1B*%
X125730000Y-172720000D03*
%TO.P,J29,3*%
%TO.N,MOT2_2A*%
X128270000Y-172720000D03*
%TO.P,J29,4*%
%TO.N,MOT2_2B*%
X130810000Y-172720000D03*
%TD*%
%TO.P,J30,8*%
%TO.N,VMOT*%
X88265000Y-177800000D03*
%TO.P,J30,7*%
%TO.N,GND*%
X90805000Y-177800000D03*
%TO.P,J30,6*%
%TO.N,MOT2_2B*%
X93345000Y-177800000D03*
%TO.P,J30,5*%
%TO.N,MOT2_2A*%
X95885000Y-177800000D03*
%TO.P,J30,4*%
%TO.N,MOT2_1B*%
X98425000Y-177800000D03*
%TO.P,J30,3*%
%TO.N,MOT2_1A*%
X100965000Y-177800000D03*
%TO.P,J30,2*%
%TO.N,3.3V_NUC*%
X103505000Y-177800000D03*
D11*
%TO.P,J30,1*%
%TO.N,GND*%
X106045000Y-177800000D03*
%TD*%
D12*
%TO.P,J32,3*%
%TO.N,GND*%
X117856000Y-112776000D03*
%TO.P,J32,2*%
%TO.N,5V_REG*%
X117856000Y-115316000D03*
D11*
%TO.P,J32,1*%
%TO.N,LED_1*%
X117856000Y-117856000D03*
%TD*%
%TO.P,J33,1*%
%TO.N,LED_2*%
X123444000Y-117856000D03*
D12*
%TO.P,J33,2*%
%TO.N,5V_REG*%
X123444000Y-115316000D03*
%TO.P,J33,3*%
%TO.N,GND*%
X123444000Y-112776000D03*
%TD*%
D26*
%TO.N,VIN*%
X111760000Y-92074994D03*
X66040000Y-138349999D03*
%TO.N,5V_REG*%
X137160000Y-114935000D03*
X137160000Y-107695996D03*
X137160000Y-104775000D03*
X133604006Y-101600000D03*
%TO.N,3.3V_NUC*%
X57150000Y-98425000D03*
X57150000Y-98425000D03*
X57150000Y-128270000D03*
X34290000Y-101600000D03*
X26035000Y-101600000D03*
X81280002Y-180340002D03*
X108585000Y-162560000D03*
X81279990Y-167640000D03*
X90805000Y-158115000D03*
X83820000Y-158115000D03*
%TO.N,SCK*%
X88265000Y-86360000D03*
X88265000Y-91439996D03*
%TO.N,MOSI*%
X92075000Y-98425000D03*
X92075000Y-83820000D03*
%TO.N,CSN_nRF*%
X88265000Y-116205000D03*
X88265000Y-100329996D03*
%TO.N,IRQ_nRF*%
X84455000Y-86360000D03*
X84455000Y-116205000D03*
%TO.N,CE_nRF*%
X80645000Y-93979996D03*
X80645000Y-116205000D03*
%TO.N,VREF_OUT_NUC*%
X77470000Y-148590000D03*
X85344002Y-167513002D03*
X123952000Y-152400000D03*
%TO.N,NUC_P2*%
X146050000Y-95885000D03*
X143509998Y-108585006D03*
%TO.N,NUC_P3*%
X148590000Y-108585000D03*
X148590000Y-121920000D03*
%TO.N,Net-(J23-Pad2)*%
X46990000Y-167005000D03*
X46990000Y-160020000D03*
%TD*%
D27*
%TO.N,VIN*%
X97870001Y-138349999D02*
X66040000Y-138349999D01*
X100584000Y-135636000D02*
X97870001Y-138349999D01*
X100584000Y-93472000D02*
X100584000Y-135636000D01*
X111760000Y-92074994D02*
X101981006Y-92074994D01*
X101981006Y-92074994D02*
X100584000Y-93472000D01*
%TO.N,5V_REG*%
X137160000Y-114935000D02*
X137160000Y-107695996D01*
X137160000Y-104775000D02*
X133985000Y-101600000D01*
X133985000Y-101600000D02*
X133604006Y-101600000D01*
%TO.N,3.3V_NUC*%
X57150000Y-98425000D02*
X57150000Y-128270000D01*
X34290000Y-101600000D02*
X26035000Y-101600000D01*
X81280002Y-180340002D02*
X81280002Y-167640012D01*
X81280002Y-167640012D02*
X81279990Y-167640000D01*
X90805000Y-158115000D02*
X83820000Y-158115000D01*
X108585000Y-162560000D02*
X95250000Y-162560000D01*
X95250000Y-162560000D02*
X90805000Y-158115000D01*
%TO.N,SCK*%
X88265000Y-86360000D02*
X88265000Y-91439996D01*
%TO.N,MOSI*%
X92075000Y-98425000D02*
X92075000Y-83820000D01*
%TO.N,CSN_nRF*%
X88265000Y-116205000D02*
X88265000Y-100329996D01*
%TO.N,IRQ_nRF*%
X84455000Y-116205000D02*
X84455000Y-86360000D01*
%TO.N,CE_nRF*%
X80645000Y-93979996D02*
X80645000Y-116205000D01*
%TO.N,VREF_OUT_NUC*%
X85344002Y-168656002D02*
X85344002Y-167513002D01*
X86360000Y-169672000D02*
X85344002Y-168656002D01*
X107188000Y-169672000D02*
X86360000Y-169672000D01*
X111760000Y-165100000D02*
X107188000Y-169672000D01*
X85344002Y-164084002D02*
X85344002Y-167513002D01*
X77470000Y-148590000D02*
X77470000Y-156210000D01*
X77470000Y-156210000D02*
X85344002Y-164084002D01*
X123952000Y-152400000D02*
X125476000Y-152400000D01*
X125476000Y-152400000D02*
X127000000Y-153924000D01*
X127000000Y-153924000D02*
X127000000Y-158496000D01*
X127000000Y-158496000D02*
X124968000Y-160528000D01*
X124968000Y-160528000D02*
X116332000Y-160528000D01*
X116332000Y-160528000D02*
X111760000Y-165100000D01*
%TO.N,NUC_P2*%
X146050000Y-106045004D02*
X143509998Y-108585006D01*
X146050000Y-95885000D02*
X146050000Y-106045004D01*
%TO.N,NUC_P3*%
X148590000Y-108585000D02*
X148590000Y-121920000D01*
%TO.N,Net-(J23-Pad2)*%
X46990000Y-160020000D02*
X46990000Y-167005000D01*
%TD*%
M02*
