%TF.GenerationSoftware,KiCad,Pcbnew,(5.1.6)-1*%
%TF.CreationDate,2023-02-06T18:30:28+01:00*%
%TF.ProjectId,VisionIndustrielle_TP,56697369-6f6e-4496-9e64-757374726965,rev?*%
%TF.SameCoordinates,Original*%
%TF.FileFunction,Legend,Top*%
%TF.FilePolarity,Positive*%
%FSLAX46Y46*%
G04 Gerber Fmt 4.6, Leading zero omitted, Abs format (unit mm)*
G04 Created by KiCad (PCBNEW (5.1.6)-1) date 2023-02-06 18:30:28*
%MOMM*%
%LPD*%
G01*
G04 APERTURE LIST*
%ADD10C,0.150000*%
%ADD11C,0.250000*%
%ADD12C,0.400000*%
%ADD13C,0.500000*%
%ADD14C,0.120000*%
G04 APERTURE END LIST*
D10*
X114617523Y-114768380D02*
X114141333Y-114768380D01*
X114093714Y-115244571D01*
X114141333Y-115196952D01*
X114236571Y-115149333D01*
X114474666Y-115149333D01*
X114569904Y-115196952D01*
X114617523Y-115244571D01*
X114665142Y-115339809D01*
X114665142Y-115577904D01*
X114617523Y-115673142D01*
X114569904Y-115720761D01*
X114474666Y-115768380D01*
X114236571Y-115768380D01*
X114141333Y-115720761D01*
X114093714Y-115673142D01*
X114950857Y-114768380D02*
X115284190Y-115768380D01*
X115617523Y-114768380D01*
X118372000Y-109981904D02*
X118324380Y-110077142D01*
X118324380Y-110220000D01*
X118372000Y-110362857D01*
X118467238Y-110458095D01*
X118562476Y-110505714D01*
X118752952Y-110553333D01*
X118895809Y-110553333D01*
X119086285Y-110505714D01*
X119181523Y-110458095D01*
X119276761Y-110362857D01*
X119324380Y-110220000D01*
X119324380Y-110124761D01*
X119276761Y-109981904D01*
X119229142Y-109934285D01*
X118895809Y-109934285D01*
X118895809Y-110124761D01*
X119324380Y-109505714D02*
X118324380Y-109505714D01*
X119324380Y-108934285D01*
X118324380Y-108934285D01*
X119324380Y-108458095D02*
X118324380Y-108458095D01*
X118324380Y-108220000D01*
X118372000Y-108077142D01*
X118467238Y-107981904D01*
X118562476Y-107934285D01*
X118752952Y-107886666D01*
X118895809Y-107886666D01*
X119086285Y-107934285D01*
X119181523Y-107981904D01*
X119276761Y-108077142D01*
X119324380Y-108220000D01*
X119324380Y-108458095D01*
D11*
X123106571Y-109882571D02*
X123106571Y-110596857D01*
X121606571Y-110596857D01*
X122320857Y-109382571D02*
X122320857Y-108882571D01*
X123106571Y-108668285D02*
X123106571Y-109382571D01*
X121606571Y-109382571D01*
X121606571Y-108668285D01*
X123106571Y-108025428D02*
X121606571Y-108025428D01*
X121606571Y-107668285D01*
X121678000Y-107454000D01*
X121820857Y-107311142D01*
X121963714Y-107239714D01*
X122249428Y-107168285D01*
X122463714Y-107168285D01*
X122749428Y-107239714D01*
X122892285Y-107311142D01*
X123035142Y-107454000D01*
X123106571Y-107668285D01*
X123106571Y-108025428D01*
X121749428Y-106596857D02*
X121678000Y-106525428D01*
X121606571Y-106382571D01*
X121606571Y-106025428D01*
X121678000Y-105882571D01*
X121749428Y-105811142D01*
X121892285Y-105739714D01*
X122035142Y-105739714D01*
X122249428Y-105811142D01*
X123106571Y-106668285D01*
X123106571Y-105739714D01*
X117518571Y-109882571D02*
X117518571Y-110596857D01*
X116018571Y-110596857D01*
X116732857Y-109382571D02*
X116732857Y-108882571D01*
X117518571Y-108668285D02*
X117518571Y-109382571D01*
X116018571Y-109382571D01*
X116018571Y-108668285D01*
X117518571Y-108025428D02*
X116018571Y-108025428D01*
X116018571Y-107668285D01*
X116090000Y-107454000D01*
X116232857Y-107311142D01*
X116375714Y-107239714D01*
X116661428Y-107168285D01*
X116875714Y-107168285D01*
X117161428Y-107239714D01*
X117304285Y-107311142D01*
X117447142Y-107454000D01*
X117518571Y-107668285D01*
X117518571Y-108025428D01*
X117518571Y-105739714D02*
X117518571Y-106596857D01*
X117518571Y-106168285D02*
X116018571Y-106168285D01*
X116232857Y-106311142D01*
X116375714Y-106454000D01*
X116447142Y-106596857D01*
D10*
X89797857Y-170077380D02*
X90369285Y-170077380D01*
X90083571Y-171077380D02*
X90083571Y-170077380D01*
X91274047Y-170982142D02*
X91226428Y-171029761D01*
X91083571Y-171077380D01*
X90988333Y-171077380D01*
X90845476Y-171029761D01*
X90750238Y-170934523D01*
X90702619Y-170839285D01*
X90655000Y-170648809D01*
X90655000Y-170505952D01*
X90702619Y-170315476D01*
X90750238Y-170220238D01*
X90845476Y-170125000D01*
X90988333Y-170077380D01*
X91083571Y-170077380D01*
X91226428Y-170125000D01*
X91274047Y-170172619D01*
X91702619Y-171077380D02*
X91702619Y-170077380D01*
X92035952Y-170791666D01*
X92369285Y-170077380D01*
X92369285Y-171077380D01*
X93559761Y-171029761D02*
X93702619Y-171077380D01*
X93940714Y-171077380D01*
X94035952Y-171029761D01*
X94083571Y-170982142D01*
X94131190Y-170886904D01*
X94131190Y-170791666D01*
X94083571Y-170696428D01*
X94035952Y-170648809D01*
X93940714Y-170601190D01*
X93750238Y-170553571D01*
X93655000Y-170505952D01*
X93607380Y-170458333D01*
X93559761Y-170363095D01*
X93559761Y-170267857D01*
X93607380Y-170172619D01*
X93655000Y-170125000D01*
X93750238Y-170077380D01*
X93988333Y-170077380D01*
X94131190Y-170125000D01*
X94559761Y-171077380D02*
X94559761Y-170410714D01*
X94559761Y-170077380D02*
X94512142Y-170125000D01*
X94559761Y-170172619D01*
X94607380Y-170125000D01*
X94559761Y-170077380D01*
X94559761Y-170172619D01*
X95178809Y-171077380D02*
X95083571Y-171029761D01*
X95035952Y-170934523D01*
X95035952Y-170077380D01*
X95940714Y-171029761D02*
X95845476Y-171077380D01*
X95655000Y-171077380D01*
X95559761Y-171029761D01*
X95512142Y-170934523D01*
X95512142Y-170553571D01*
X95559761Y-170458333D01*
X95655000Y-170410714D01*
X95845476Y-170410714D01*
X95940714Y-170458333D01*
X95988333Y-170553571D01*
X95988333Y-170648809D01*
X95512142Y-170744047D01*
X96416904Y-170410714D02*
X96416904Y-171077380D01*
X96416904Y-170505952D02*
X96464523Y-170458333D01*
X96559761Y-170410714D01*
X96702619Y-170410714D01*
X96797857Y-170458333D01*
X96845476Y-170553571D01*
X96845476Y-171077380D01*
X97178809Y-170410714D02*
X97559761Y-170410714D01*
X97321666Y-170077380D02*
X97321666Y-170934523D01*
X97369285Y-171029761D01*
X97464523Y-171077380D01*
X97559761Y-171077380D01*
X97845476Y-171029761D02*
X97988333Y-171077380D01*
X98226428Y-171077380D01*
X98321666Y-171029761D01*
X98369285Y-170982142D01*
X98416904Y-170886904D01*
X98416904Y-170791666D01*
X98369285Y-170696428D01*
X98321666Y-170648809D01*
X98226428Y-170601190D01*
X98035952Y-170553571D01*
X97940714Y-170505952D01*
X97893095Y-170458333D01*
X97845476Y-170363095D01*
X97845476Y-170267857D01*
X97893095Y-170172619D01*
X97940714Y-170125000D01*
X98035952Y-170077380D01*
X98274047Y-170077380D01*
X98416904Y-170125000D01*
X98702619Y-170410714D02*
X99083571Y-170410714D01*
X98845476Y-170077380D02*
X98845476Y-170934523D01*
X98893095Y-171029761D01*
X98988333Y-171077380D01*
X99083571Y-171077380D01*
X99797857Y-171029761D02*
X99702619Y-171077380D01*
X99512142Y-171077380D01*
X99416904Y-171029761D01*
X99369285Y-170934523D01*
X99369285Y-170553571D01*
X99416904Y-170458333D01*
X99512142Y-170410714D01*
X99702619Y-170410714D01*
X99797857Y-170458333D01*
X99845476Y-170553571D01*
X99845476Y-170648809D01*
X99369285Y-170744047D01*
X100274047Y-170410714D02*
X100274047Y-171410714D01*
X100274047Y-170458333D02*
X100369285Y-170410714D01*
X100559761Y-170410714D01*
X100655000Y-170458333D01*
X100702619Y-170505952D01*
X100750238Y-170601190D01*
X100750238Y-170886904D01*
X100702619Y-170982142D01*
X100655000Y-171029761D01*
X100559761Y-171077380D01*
X100369285Y-171077380D01*
X100274047Y-171029761D01*
X101131190Y-171029761D02*
X101274047Y-171077380D01*
X101512142Y-171077380D01*
X101607380Y-171029761D01*
X101655000Y-170982142D01*
X101702619Y-170886904D01*
X101702619Y-170791666D01*
X101655000Y-170696428D01*
X101607380Y-170648809D01*
X101512142Y-170601190D01*
X101321666Y-170553571D01*
X101226428Y-170505952D01*
X101178809Y-170458333D01*
X101131190Y-170363095D01*
X101131190Y-170267857D01*
X101178809Y-170172619D01*
X101226428Y-170125000D01*
X101321666Y-170077380D01*
X101559761Y-170077380D01*
X101702619Y-170125000D01*
X101988333Y-170410714D02*
X102369285Y-170410714D01*
X102131190Y-170077380D02*
X102131190Y-170934523D01*
X102178809Y-171029761D01*
X102274047Y-171077380D01*
X102369285Y-171077380D01*
X102702619Y-171077380D02*
X102702619Y-170410714D01*
X102702619Y-170077380D02*
X102655000Y-170125000D01*
X102702619Y-170172619D01*
X102750238Y-170125000D01*
X102702619Y-170077380D01*
X102702619Y-170172619D01*
X103607380Y-171029761D02*
X103512142Y-171077380D01*
X103321666Y-171077380D01*
X103226428Y-171029761D01*
X103178809Y-170982142D01*
X103131190Y-170886904D01*
X103131190Y-170601190D01*
X103178809Y-170505952D01*
X103226428Y-170458333D01*
X103321666Y-170410714D01*
X103512142Y-170410714D01*
X103607380Y-170458333D01*
X104035952Y-171077380D02*
X104035952Y-170077380D01*
X104131190Y-170696428D02*
X104416904Y-171077380D01*
X104416904Y-170410714D02*
X104035952Y-170791666D01*
X85655000Y-172679761D02*
X85797857Y-172727380D01*
X86035952Y-172727380D01*
X86131190Y-172679761D01*
X86178809Y-172632142D01*
X86226428Y-172536904D01*
X86226428Y-172441666D01*
X86178809Y-172346428D01*
X86131190Y-172298809D01*
X86035952Y-172251190D01*
X85845476Y-172203571D01*
X85750238Y-172155952D01*
X85702619Y-172108333D01*
X85655000Y-172013095D01*
X85655000Y-171917857D01*
X85702619Y-171822619D01*
X85750238Y-171775000D01*
X85845476Y-171727380D01*
X86083571Y-171727380D01*
X86226428Y-171775000D01*
X86512142Y-172060714D02*
X86893095Y-172060714D01*
X86655000Y-171727380D02*
X86655000Y-172584523D01*
X86702619Y-172679761D01*
X86797857Y-172727380D01*
X86893095Y-172727380D01*
X87607380Y-172679761D02*
X87512142Y-172727380D01*
X87321666Y-172727380D01*
X87226428Y-172679761D01*
X87178809Y-172584523D01*
X87178809Y-172203571D01*
X87226428Y-172108333D01*
X87321666Y-172060714D01*
X87512142Y-172060714D01*
X87607380Y-172108333D01*
X87655000Y-172203571D01*
X87655000Y-172298809D01*
X87178809Y-172394047D01*
X88083571Y-172060714D02*
X88083571Y-173060714D01*
X88083571Y-172108333D02*
X88178809Y-172060714D01*
X88369285Y-172060714D01*
X88464523Y-172108333D01*
X88512142Y-172155952D01*
X88559761Y-172251190D01*
X88559761Y-172536904D01*
X88512142Y-172632142D01*
X88464523Y-172679761D01*
X88369285Y-172727380D01*
X88178809Y-172727380D01*
X88083571Y-172679761D01*
X89750238Y-172727380D02*
X89750238Y-171727380D01*
X90083571Y-172441666D01*
X90416904Y-171727380D01*
X90416904Y-172727380D01*
X91035952Y-172727380D02*
X90940714Y-172679761D01*
X90893095Y-172632142D01*
X90845476Y-172536904D01*
X90845476Y-172251190D01*
X90893095Y-172155952D01*
X90940714Y-172108333D01*
X91035952Y-172060714D01*
X91178809Y-172060714D01*
X91274047Y-172108333D01*
X91321666Y-172155952D01*
X91369285Y-172251190D01*
X91369285Y-172536904D01*
X91321666Y-172632142D01*
X91274047Y-172679761D01*
X91178809Y-172727380D01*
X91035952Y-172727380D01*
X91655000Y-172060714D02*
X92035952Y-172060714D01*
X91797857Y-171727380D02*
X91797857Y-172584523D01*
X91845476Y-172679761D01*
X91940714Y-172727380D01*
X92035952Y-172727380D01*
X92512142Y-172727380D02*
X92416904Y-172679761D01*
X92369285Y-172632142D01*
X92321666Y-172536904D01*
X92321666Y-172251190D01*
X92369285Y-172155952D01*
X92416904Y-172108333D01*
X92512142Y-172060714D01*
X92655000Y-172060714D01*
X92750238Y-172108333D01*
X92797857Y-172155952D01*
X92845476Y-172251190D01*
X92845476Y-172536904D01*
X92797857Y-172632142D01*
X92750238Y-172679761D01*
X92655000Y-172727380D01*
X92512142Y-172727380D01*
X93274047Y-172727380D02*
X93274047Y-172060714D01*
X93274047Y-172251190D02*
X93321666Y-172155952D01*
X93369285Y-172108333D01*
X93464523Y-172060714D01*
X93559761Y-172060714D01*
X94607380Y-171822619D02*
X94655000Y-171775000D01*
X94750238Y-171727380D01*
X94988333Y-171727380D01*
X95083571Y-171775000D01*
X95131190Y-171822619D01*
X95178809Y-171917857D01*
X95178809Y-172013095D01*
X95131190Y-172155952D01*
X94559761Y-172727380D01*
X95178809Y-172727380D01*
X97083571Y-171679761D02*
X96226428Y-172965476D01*
X98178809Y-172727380D02*
X98178809Y-171727380D01*
X98178809Y-172203571D02*
X98750238Y-172203571D01*
X98750238Y-172727380D02*
X98750238Y-171727380D01*
X99654999Y-172727380D02*
X99654999Y-172203571D01*
X99607380Y-172108333D01*
X99512142Y-172060714D01*
X99321666Y-172060714D01*
X99226428Y-172108333D01*
X99654999Y-172679761D02*
X99559761Y-172727380D01*
X99321666Y-172727380D01*
X99226428Y-172679761D01*
X99178809Y-172584523D01*
X99178809Y-172489285D01*
X99226428Y-172394047D01*
X99321666Y-172346428D01*
X99559761Y-172346428D01*
X99654999Y-172298809D01*
X100274047Y-172727380D02*
X100178809Y-172679761D01*
X100131190Y-172584523D01*
X100131190Y-171727380D01*
X100512142Y-172060714D02*
X100893095Y-172060714D01*
X100655000Y-172727380D02*
X100655000Y-171870238D01*
X100702619Y-171775000D01*
X100797857Y-171727380D01*
X100893095Y-171727380D01*
X101178809Y-172679761D02*
X101321666Y-172727380D01*
X101559761Y-172727380D01*
X101654999Y-172679761D01*
X101702619Y-172632142D01*
X101750238Y-172536904D01*
X101750238Y-172441666D01*
X101702619Y-172346428D01*
X101654999Y-172298809D01*
X101559761Y-172251190D01*
X101369285Y-172203571D01*
X101274047Y-172155952D01*
X101226428Y-172108333D01*
X101178809Y-172013095D01*
X101178809Y-171917857D01*
X101226428Y-171822619D01*
X101274047Y-171775000D01*
X101369285Y-171727380D01*
X101607380Y-171727380D01*
X101750238Y-171775000D01*
X102035952Y-172060714D02*
X102416904Y-172060714D01*
X102178809Y-171727380D02*
X102178809Y-172584523D01*
X102226428Y-172679761D01*
X102321666Y-172727380D01*
X102416904Y-172727380D01*
X103131190Y-172679761D02*
X103035952Y-172727380D01*
X102845476Y-172727380D01*
X102750238Y-172679761D01*
X102702619Y-172584523D01*
X102702619Y-172203571D01*
X102750238Y-172108333D01*
X102845476Y-172060714D01*
X103035952Y-172060714D01*
X103131190Y-172108333D01*
X103178809Y-172203571D01*
X103178809Y-172298809D01*
X102702619Y-172394047D01*
X103607380Y-172060714D02*
X103607380Y-173060714D01*
X103607380Y-172108333D02*
X103702619Y-172060714D01*
X103893095Y-172060714D01*
X103988333Y-172108333D01*
X104035952Y-172155952D01*
X104083571Y-172251190D01*
X104083571Y-172536904D01*
X104035952Y-172632142D01*
X103988333Y-172679761D01*
X103893095Y-172727380D01*
X103702619Y-172727380D01*
X103607380Y-172679761D01*
X105274047Y-172727380D02*
X105274047Y-171727380D01*
X105607380Y-172441666D01*
X105940714Y-171727380D01*
X105940714Y-172727380D01*
X106559761Y-172727380D02*
X106464523Y-172679761D01*
X106416904Y-172632142D01*
X106369285Y-172536904D01*
X106369285Y-172251190D01*
X106416904Y-172155952D01*
X106464523Y-172108333D01*
X106559761Y-172060714D01*
X106702619Y-172060714D01*
X106797857Y-172108333D01*
X106845476Y-172155952D01*
X106893095Y-172251190D01*
X106893095Y-172536904D01*
X106845476Y-172632142D01*
X106797857Y-172679761D01*
X106702619Y-172727380D01*
X106559761Y-172727380D01*
X107750238Y-172727380D02*
X107750238Y-171727380D01*
X107750238Y-172679761D02*
X107654999Y-172727380D01*
X107464523Y-172727380D01*
X107369285Y-172679761D01*
X107321666Y-172632142D01*
X107274047Y-172536904D01*
X107274047Y-172251190D01*
X107321666Y-172155952D01*
X107369285Y-172108333D01*
X107464523Y-172060714D01*
X107654999Y-172060714D01*
X107750238Y-172108333D01*
X108607380Y-172679761D02*
X108512142Y-172727380D01*
X108321666Y-172727380D01*
X108226428Y-172679761D01*
X108178809Y-172584523D01*
X108178809Y-172203571D01*
X108226428Y-172108333D01*
X108321666Y-172060714D01*
X108512142Y-172060714D01*
X108607380Y-172108333D01*
X108654999Y-172203571D01*
X108654999Y-172298809D01*
X108178809Y-172394047D01*
D12*
X36909285Y-145827380D02*
X37004523Y-145922619D01*
X37099761Y-146208333D01*
X37099761Y-146398809D01*
X37004523Y-146684523D01*
X36814047Y-146875000D01*
X36623571Y-146970238D01*
X36242619Y-147065476D01*
X35956904Y-147065476D01*
X35575952Y-146970238D01*
X35385476Y-146875000D01*
X35195000Y-146684523D01*
X35099761Y-146398809D01*
X35099761Y-146208333D01*
X35195000Y-145922619D01*
X35290238Y-145827380D01*
X36528333Y-145065476D02*
X36528333Y-144113095D01*
X37099761Y-145255952D02*
X35099761Y-144589285D01*
X37099761Y-143922619D01*
X37099761Y-143255952D02*
X35099761Y-143255952D01*
X35099761Y-142494047D01*
X35195000Y-142303571D01*
X35290238Y-142208333D01*
X35480714Y-142113095D01*
X35766428Y-142113095D01*
X35956904Y-142208333D01*
X36052142Y-142303571D01*
X36147380Y-142494047D01*
X36147380Y-143255952D01*
X35099761Y-141541666D02*
X35099761Y-140398809D01*
X37099761Y-140970238D02*
X35099761Y-140970238D01*
X35099761Y-139922619D02*
X35099761Y-138684523D01*
X35861666Y-139351190D01*
X35861666Y-139065476D01*
X35956904Y-138875000D01*
X36052142Y-138779761D01*
X36242619Y-138684523D01*
X36718809Y-138684523D01*
X36909285Y-138779761D01*
X37004523Y-138875000D01*
X37099761Y-139065476D01*
X37099761Y-139636904D01*
X37004523Y-139827380D01*
X36909285Y-139922619D01*
X29924285Y-145827380D02*
X30019523Y-145922619D01*
X30114761Y-146208333D01*
X30114761Y-146398809D01*
X30019523Y-146684523D01*
X29829047Y-146875000D01*
X29638571Y-146970238D01*
X29257619Y-147065476D01*
X28971904Y-147065476D01*
X28590952Y-146970238D01*
X28400476Y-146875000D01*
X28210000Y-146684523D01*
X28114761Y-146398809D01*
X28114761Y-146208333D01*
X28210000Y-145922619D01*
X28305238Y-145827380D01*
X29543333Y-145065476D02*
X29543333Y-144113095D01*
X30114761Y-145255952D02*
X28114761Y-144589285D01*
X30114761Y-143922619D01*
X30114761Y-143255952D02*
X28114761Y-143255952D01*
X28114761Y-142494047D01*
X28210000Y-142303571D01*
X28305238Y-142208333D01*
X28495714Y-142113095D01*
X28781428Y-142113095D01*
X28971904Y-142208333D01*
X29067142Y-142303571D01*
X29162380Y-142494047D01*
X29162380Y-143255952D01*
X28114761Y-141541666D02*
X28114761Y-140398809D01*
X30114761Y-140970238D02*
X28114761Y-140970238D01*
X28305238Y-139827380D02*
X28210000Y-139732142D01*
X28114761Y-139541666D01*
X28114761Y-139065476D01*
X28210000Y-138875000D01*
X28305238Y-138779761D01*
X28495714Y-138684523D01*
X28686190Y-138684523D01*
X28971904Y-138779761D01*
X30114761Y-139922619D01*
X30114761Y-138684523D01*
X22939285Y-145827380D02*
X23034523Y-145922619D01*
X23129761Y-146208333D01*
X23129761Y-146398809D01*
X23034523Y-146684523D01*
X22844047Y-146875000D01*
X22653571Y-146970238D01*
X22272619Y-147065476D01*
X21986904Y-147065476D01*
X21605952Y-146970238D01*
X21415476Y-146875000D01*
X21225000Y-146684523D01*
X21129761Y-146398809D01*
X21129761Y-146208333D01*
X21225000Y-145922619D01*
X21320238Y-145827380D01*
X22558333Y-145065476D02*
X22558333Y-144113095D01*
X23129761Y-145255952D02*
X21129761Y-144589285D01*
X23129761Y-143922619D01*
X23129761Y-143255952D02*
X21129761Y-143255952D01*
X21129761Y-142494047D01*
X21225000Y-142303571D01*
X21320238Y-142208333D01*
X21510714Y-142113095D01*
X21796428Y-142113095D01*
X21986904Y-142208333D01*
X22082142Y-142303571D01*
X22177380Y-142494047D01*
X22177380Y-143255952D01*
X21129761Y-141541666D02*
X21129761Y-140398809D01*
X23129761Y-140970238D02*
X21129761Y-140970238D01*
X23129761Y-138684523D02*
X23129761Y-139827380D01*
X23129761Y-139255952D02*
X21129761Y-139255952D01*
X21415476Y-139446428D01*
X21605952Y-139636904D01*
X21701190Y-139827380D01*
D10*
X12493809Y-142327380D02*
X13112857Y-142327380D01*
X12779523Y-142708333D01*
X12922380Y-142708333D01*
X13017619Y-142755952D01*
X13065238Y-142803571D01*
X13112857Y-142898809D01*
X13112857Y-143136904D01*
X13065238Y-143232142D01*
X13017619Y-143279761D01*
X12922380Y-143327380D01*
X12636666Y-143327380D01*
X12541428Y-143279761D01*
X12493809Y-143232142D01*
X13541428Y-143232142D02*
X13589047Y-143279761D01*
X13541428Y-143327380D01*
X13493809Y-143279761D01*
X13541428Y-143232142D01*
X13541428Y-143327380D01*
X13922380Y-142327380D02*
X14541428Y-142327380D01*
X14208095Y-142708333D01*
X14350952Y-142708333D01*
X14446190Y-142755952D01*
X14493809Y-142803571D01*
X14541428Y-142898809D01*
X14541428Y-143136904D01*
X14493809Y-143232142D01*
X14446190Y-143279761D01*
X14350952Y-143327380D01*
X14065238Y-143327380D01*
X13970000Y-143279761D01*
X13922380Y-143232142D01*
X14827142Y-142327380D02*
X15160476Y-143327380D01*
X15493809Y-142327380D01*
X13208095Y-144915000D02*
X13112857Y-144867380D01*
X12970000Y-144867380D01*
X12827142Y-144915000D01*
X12731904Y-145010238D01*
X12684285Y-145105476D01*
X12636666Y-145295952D01*
X12636666Y-145438809D01*
X12684285Y-145629285D01*
X12731904Y-145724523D01*
X12827142Y-145819761D01*
X12970000Y-145867380D01*
X13065238Y-145867380D01*
X13208095Y-145819761D01*
X13255714Y-145772142D01*
X13255714Y-145438809D01*
X13065238Y-145438809D01*
X13684285Y-145867380D02*
X13684285Y-144867380D01*
X14255714Y-145867380D01*
X14255714Y-144867380D01*
X14731904Y-145867380D02*
X14731904Y-144867380D01*
X14970000Y-144867380D01*
X15112857Y-144915000D01*
X15208095Y-145010238D01*
X15255714Y-145105476D01*
X15303333Y-145295952D01*
X15303333Y-145438809D01*
X15255714Y-145629285D01*
X15208095Y-145724523D01*
X15112857Y-145819761D01*
X14970000Y-145867380D01*
X14731904Y-145867380D01*
D11*
X119987142Y-183165000D02*
X120058571Y-182950714D01*
X120058571Y-182593571D01*
X119987142Y-182450714D01*
X119915714Y-182379285D01*
X119772857Y-182307857D01*
X119630000Y-182307857D01*
X119487142Y-182379285D01*
X119415714Y-182450714D01*
X119344285Y-182593571D01*
X119272857Y-182879285D01*
X119201428Y-183022142D01*
X119130000Y-183093571D01*
X118987142Y-183165000D01*
X118844285Y-183165000D01*
X118701428Y-183093571D01*
X118630000Y-183022142D01*
X118558571Y-182879285D01*
X118558571Y-182522142D01*
X118630000Y-182307857D01*
X119058571Y-181879285D02*
X119058571Y-181307857D01*
X118558571Y-181665000D02*
X119844285Y-181665000D01*
X119987142Y-181593571D01*
X120058571Y-181450714D01*
X120058571Y-181307857D01*
X119987142Y-180236428D02*
X120058571Y-180379285D01*
X120058571Y-180665000D01*
X119987142Y-180807857D01*
X119844285Y-180879285D01*
X119272857Y-180879285D01*
X119130000Y-180807857D01*
X119058571Y-180665000D01*
X119058571Y-180379285D01*
X119130000Y-180236428D01*
X119272857Y-180165000D01*
X119415714Y-180165000D01*
X119558571Y-180879285D01*
X119058571Y-179522142D02*
X120558571Y-179522142D01*
X119130000Y-179522142D02*
X119058571Y-179379285D01*
X119058571Y-179093571D01*
X119130000Y-178950714D01*
X119201428Y-178879285D01*
X119344285Y-178807857D01*
X119772857Y-178807857D01*
X119915714Y-178879285D01*
X119987142Y-178950714D01*
X120058571Y-179093571D01*
X120058571Y-179379285D01*
X119987142Y-179522142D01*
X120058571Y-177022142D02*
X118558571Y-177022142D01*
X119630000Y-176522142D01*
X118558571Y-176022142D01*
X120058571Y-176022142D01*
X120058571Y-175093571D02*
X119987142Y-175236428D01*
X119915714Y-175307857D01*
X119772857Y-175379285D01*
X119344285Y-175379285D01*
X119201428Y-175307857D01*
X119130000Y-175236428D01*
X119058571Y-175093571D01*
X119058571Y-174879285D01*
X119130000Y-174736428D01*
X119201428Y-174665000D01*
X119344285Y-174593571D01*
X119772857Y-174593571D01*
X119915714Y-174665000D01*
X119987142Y-174736428D01*
X120058571Y-174879285D01*
X120058571Y-175093571D01*
X119058571Y-174165000D02*
X119058571Y-173593571D01*
X118558571Y-173950714D02*
X119844285Y-173950714D01*
X119987142Y-173879285D01*
X120058571Y-173736428D01*
X120058571Y-173593571D01*
X118701428Y-172022142D02*
X118630000Y-171950714D01*
X118558571Y-171807857D01*
X118558571Y-171450714D01*
X118630000Y-171307857D01*
X118701428Y-171236428D01*
X118844285Y-171165000D01*
X118987142Y-171165000D01*
X119201428Y-171236428D01*
X120058571Y-172093571D01*
X120058571Y-171165000D01*
D10*
X131254523Y-133437380D02*
X130778333Y-133437380D01*
X130730714Y-133913571D01*
X130778333Y-133865952D01*
X130873571Y-133818333D01*
X131111666Y-133818333D01*
X131206904Y-133865952D01*
X131254523Y-133913571D01*
X131302142Y-134008809D01*
X131302142Y-134246904D01*
X131254523Y-134342142D01*
X131206904Y-134389761D01*
X131111666Y-134437380D01*
X130873571Y-134437380D01*
X130778333Y-134389761D01*
X130730714Y-134342142D01*
X131587857Y-133437380D02*
X131921190Y-134437380D01*
X132254523Y-133437380D01*
X122983809Y-133437380D02*
X123602857Y-133437380D01*
X123269523Y-133818333D01*
X123412380Y-133818333D01*
X123507619Y-133865952D01*
X123555238Y-133913571D01*
X123602857Y-134008809D01*
X123602857Y-134246904D01*
X123555238Y-134342142D01*
X123507619Y-134389761D01*
X123412380Y-134437380D01*
X123126666Y-134437380D01*
X123031428Y-134389761D01*
X122983809Y-134342142D01*
X124031428Y-134342142D02*
X124079047Y-134389761D01*
X124031428Y-134437380D01*
X123983809Y-134389761D01*
X124031428Y-134342142D01*
X124031428Y-134437380D01*
X124412380Y-133437380D02*
X125031428Y-133437380D01*
X124698095Y-133818333D01*
X124840952Y-133818333D01*
X124936190Y-133865952D01*
X124983809Y-133913571D01*
X125031428Y-134008809D01*
X125031428Y-134246904D01*
X124983809Y-134342142D01*
X124936190Y-134389761D01*
X124840952Y-134437380D01*
X124555238Y-134437380D01*
X124460000Y-134389761D01*
X124412380Y-134342142D01*
X125317142Y-133437380D02*
X125650476Y-134437380D01*
X125983809Y-133437380D01*
X116713095Y-133485000D02*
X116617857Y-133437380D01*
X116475000Y-133437380D01*
X116332142Y-133485000D01*
X116236904Y-133580238D01*
X116189285Y-133675476D01*
X116141666Y-133865952D01*
X116141666Y-134008809D01*
X116189285Y-134199285D01*
X116236904Y-134294523D01*
X116332142Y-134389761D01*
X116475000Y-134437380D01*
X116570238Y-134437380D01*
X116713095Y-134389761D01*
X116760714Y-134342142D01*
X116760714Y-134008809D01*
X116570238Y-134008809D01*
X117189285Y-134437380D02*
X117189285Y-133437380D01*
X117760714Y-134437380D01*
X117760714Y-133437380D01*
X118236904Y-134437380D02*
X118236904Y-133437380D01*
X118475000Y-133437380D01*
X118617857Y-133485000D01*
X118713095Y-133580238D01*
X118760714Y-133675476D01*
X118808333Y-133865952D01*
X118808333Y-134008809D01*
X118760714Y-134199285D01*
X118713095Y-134294523D01*
X118617857Y-134389761D01*
X118475000Y-134437380D01*
X118236904Y-134437380D01*
D11*
X139192142Y-79260000D02*
X139049285Y-79188571D01*
X138835000Y-79188571D01*
X138620714Y-79260000D01*
X138477857Y-79402857D01*
X138406428Y-79545714D01*
X138335000Y-79831428D01*
X138335000Y-80045714D01*
X138406428Y-80331428D01*
X138477857Y-80474285D01*
X138620714Y-80617142D01*
X138835000Y-80688571D01*
X138977857Y-80688571D01*
X139192142Y-80617142D01*
X139263571Y-80545714D01*
X139263571Y-80045714D01*
X138977857Y-80045714D01*
X139906428Y-80688571D02*
X139906428Y-79188571D01*
X140763571Y-80688571D01*
X140763571Y-79188571D01*
X141477857Y-80688571D02*
X141477857Y-79188571D01*
X141835000Y-79188571D01*
X142049285Y-79260000D01*
X142192142Y-79402857D01*
X142263571Y-79545714D01*
X142335000Y-79831428D01*
X142335000Y-80045714D01*
X142263571Y-80331428D01*
X142192142Y-80474285D01*
X142049285Y-80617142D01*
X141835000Y-80688571D01*
X141477857Y-80688571D01*
D12*
X132746904Y-80914761D02*
X131604047Y-80914761D01*
X132175476Y-80914761D02*
X132175476Y-78914761D01*
X131985000Y-79200476D01*
X131794523Y-79390952D01*
X131604047Y-79486190D01*
X133508809Y-79105238D02*
X133604047Y-79010000D01*
X133794523Y-78914761D01*
X134270714Y-78914761D01*
X134461190Y-79010000D01*
X134556428Y-79105238D01*
X134651666Y-79295714D01*
X134651666Y-79486190D01*
X134556428Y-79771904D01*
X133413571Y-80914761D01*
X134651666Y-80914761D01*
X135223095Y-78914761D02*
X135889761Y-80914761D01*
X136556428Y-78914761D01*
D10*
X127087380Y-155947142D02*
X127087380Y-155375714D01*
X128087380Y-155661428D02*
X127087380Y-155661428D01*
X127992142Y-154470952D02*
X128039761Y-154518571D01*
X128087380Y-154661428D01*
X128087380Y-154756666D01*
X128039761Y-154899523D01*
X127944523Y-154994761D01*
X127849285Y-155042380D01*
X127658809Y-155090000D01*
X127515952Y-155090000D01*
X127325476Y-155042380D01*
X127230238Y-154994761D01*
X127135000Y-154899523D01*
X127087380Y-154756666D01*
X127087380Y-154661428D01*
X127135000Y-154518571D01*
X127182619Y-154470952D01*
X128087380Y-154042380D02*
X127087380Y-154042380D01*
X127801666Y-153709047D01*
X127087380Y-153375714D01*
X128087380Y-153375714D01*
X128039761Y-152185238D02*
X128087380Y-152042380D01*
X128087380Y-151804285D01*
X128039761Y-151709047D01*
X127992142Y-151661428D01*
X127896904Y-151613809D01*
X127801666Y-151613809D01*
X127706428Y-151661428D01*
X127658809Y-151709047D01*
X127611190Y-151804285D01*
X127563571Y-151994761D01*
X127515952Y-152090000D01*
X127468333Y-152137619D01*
X127373095Y-152185238D01*
X127277857Y-152185238D01*
X127182619Y-152137619D01*
X127135000Y-152090000D01*
X127087380Y-151994761D01*
X127087380Y-151756666D01*
X127135000Y-151613809D01*
X128087380Y-151185238D02*
X127420714Y-151185238D01*
X127087380Y-151185238D02*
X127135000Y-151232857D01*
X127182619Y-151185238D01*
X127135000Y-151137619D01*
X127087380Y-151185238D01*
X127182619Y-151185238D01*
X128087380Y-150566190D02*
X128039761Y-150661428D01*
X127944523Y-150709047D01*
X127087380Y-150709047D01*
X128039761Y-149804285D02*
X128087380Y-149899523D01*
X128087380Y-150090000D01*
X128039761Y-150185238D01*
X127944523Y-150232857D01*
X127563571Y-150232857D01*
X127468333Y-150185238D01*
X127420714Y-150090000D01*
X127420714Y-149899523D01*
X127468333Y-149804285D01*
X127563571Y-149756666D01*
X127658809Y-149756666D01*
X127754047Y-150232857D01*
X127420714Y-149328095D02*
X128087380Y-149328095D01*
X127515952Y-149328095D02*
X127468333Y-149280476D01*
X127420714Y-149185238D01*
X127420714Y-149042380D01*
X127468333Y-148947142D01*
X127563571Y-148899523D01*
X128087380Y-148899523D01*
X127420714Y-148566190D02*
X127420714Y-148185238D01*
X127087380Y-148423333D02*
X127944523Y-148423333D01*
X128039761Y-148375714D01*
X128087380Y-148280476D01*
X128087380Y-148185238D01*
X128039761Y-147899523D02*
X128087380Y-147756666D01*
X128087380Y-147518571D01*
X128039761Y-147423333D01*
X127992142Y-147375714D01*
X127896904Y-147328095D01*
X127801666Y-147328095D01*
X127706428Y-147375714D01*
X127658809Y-147423333D01*
X127611190Y-147518571D01*
X127563571Y-147709047D01*
X127515952Y-147804285D01*
X127468333Y-147851904D01*
X127373095Y-147899523D01*
X127277857Y-147899523D01*
X127182619Y-147851904D01*
X127135000Y-147804285D01*
X127087380Y-147709047D01*
X127087380Y-147470952D01*
X127135000Y-147328095D01*
X127420714Y-147042380D02*
X127420714Y-146661428D01*
X127087380Y-146899523D02*
X127944523Y-146899523D01*
X128039761Y-146851904D01*
X128087380Y-146756666D01*
X128087380Y-146661428D01*
X128039761Y-145947142D02*
X128087380Y-146042380D01*
X128087380Y-146232857D01*
X128039761Y-146328095D01*
X127944523Y-146375714D01*
X127563571Y-146375714D01*
X127468333Y-146328095D01*
X127420714Y-146232857D01*
X127420714Y-146042380D01*
X127468333Y-145947142D01*
X127563571Y-145899523D01*
X127658809Y-145899523D01*
X127754047Y-146375714D01*
X127420714Y-145470952D02*
X128420714Y-145470952D01*
X127468333Y-145470952D02*
X127420714Y-145375714D01*
X127420714Y-145185238D01*
X127468333Y-145090000D01*
X127515952Y-145042380D01*
X127611190Y-144994761D01*
X127896904Y-144994761D01*
X127992142Y-145042380D01*
X128039761Y-145090000D01*
X128087380Y-145185238D01*
X128087380Y-145375714D01*
X128039761Y-145470952D01*
X128039761Y-144613809D02*
X128087380Y-144470952D01*
X128087380Y-144232857D01*
X128039761Y-144137619D01*
X127992142Y-144090000D01*
X127896904Y-144042380D01*
X127801666Y-144042380D01*
X127706428Y-144090000D01*
X127658809Y-144137619D01*
X127611190Y-144232857D01*
X127563571Y-144423333D01*
X127515952Y-144518571D01*
X127468333Y-144566190D01*
X127373095Y-144613809D01*
X127277857Y-144613809D01*
X127182619Y-144566190D01*
X127135000Y-144518571D01*
X127087380Y-144423333D01*
X127087380Y-144185238D01*
X127135000Y-144042380D01*
X127420714Y-143756666D02*
X127420714Y-143375714D01*
X127087380Y-143613809D02*
X127944523Y-143613809D01*
X128039761Y-143566190D01*
X128087380Y-143470952D01*
X128087380Y-143375714D01*
X128087380Y-143042380D02*
X127420714Y-143042380D01*
X127087380Y-143042380D02*
X127135000Y-143090000D01*
X127182619Y-143042380D01*
X127135000Y-142994761D01*
X127087380Y-143042380D01*
X127182619Y-143042380D01*
X128039761Y-142137619D02*
X128087380Y-142232857D01*
X128087380Y-142423333D01*
X128039761Y-142518571D01*
X127992142Y-142566190D01*
X127896904Y-142613809D01*
X127611190Y-142613809D01*
X127515952Y-142566190D01*
X127468333Y-142518571D01*
X127420714Y-142423333D01*
X127420714Y-142232857D01*
X127468333Y-142137619D01*
X128087380Y-141709047D02*
X127087380Y-141709047D01*
X127706428Y-141613809D02*
X128087380Y-141328095D01*
X127420714Y-141328095D02*
X127801666Y-141709047D01*
D11*
X153078571Y-128801428D02*
X151578571Y-128801428D01*
X151578571Y-128230000D01*
X151650000Y-128087142D01*
X151721428Y-128015714D01*
X151864285Y-127944285D01*
X152078571Y-127944285D01*
X152221428Y-128015714D01*
X152292857Y-128087142D01*
X152364285Y-128230000D01*
X152364285Y-128801428D01*
X153078571Y-127087142D02*
X153007142Y-127230000D01*
X152935714Y-127301428D01*
X152792857Y-127372857D01*
X152364285Y-127372857D01*
X152221428Y-127301428D01*
X152150000Y-127230000D01*
X152078571Y-127087142D01*
X152078571Y-126872857D01*
X152150000Y-126730000D01*
X152221428Y-126658571D01*
X152364285Y-126587142D01*
X152792857Y-126587142D01*
X152935714Y-126658571D01*
X153007142Y-126730000D01*
X153078571Y-126872857D01*
X153078571Y-127087142D01*
X152078571Y-125301428D02*
X153078571Y-125301428D01*
X152078571Y-125944285D02*
X152864285Y-125944285D01*
X153007142Y-125872857D01*
X153078571Y-125730000D01*
X153078571Y-125515714D01*
X153007142Y-125372857D01*
X152935714Y-125301428D01*
X153007142Y-124658571D02*
X153078571Y-124515714D01*
X153078571Y-124230000D01*
X153007142Y-124087142D01*
X152864285Y-124015714D01*
X152792857Y-124015714D01*
X152650000Y-124087142D01*
X152578571Y-124230000D01*
X152578571Y-124444285D01*
X152507142Y-124587142D01*
X152364285Y-124658571D01*
X152292857Y-124658571D01*
X152150000Y-124587142D01*
X152078571Y-124444285D01*
X152078571Y-124230000D01*
X152150000Y-124087142D01*
X151578571Y-123515714D02*
X151578571Y-122587142D01*
X152150000Y-123087142D01*
X152150000Y-122872857D01*
X152221428Y-122730000D01*
X152292857Y-122658571D01*
X152435714Y-122587142D01*
X152792857Y-122587142D01*
X152935714Y-122658571D01*
X153007142Y-122730000D01*
X153078571Y-122872857D01*
X153078571Y-123301428D01*
X153007142Y-123444285D01*
X152935714Y-123515714D01*
X153078571Y-115466428D02*
X151578571Y-115466428D01*
X151578571Y-114895000D01*
X151650000Y-114752142D01*
X151721428Y-114680714D01*
X151864285Y-114609285D01*
X152078571Y-114609285D01*
X152221428Y-114680714D01*
X152292857Y-114752142D01*
X152364285Y-114895000D01*
X152364285Y-115466428D01*
X153078571Y-113752142D02*
X153007142Y-113895000D01*
X152935714Y-113966428D01*
X152792857Y-114037857D01*
X152364285Y-114037857D01*
X152221428Y-113966428D01*
X152150000Y-113895000D01*
X152078571Y-113752142D01*
X152078571Y-113537857D01*
X152150000Y-113395000D01*
X152221428Y-113323571D01*
X152364285Y-113252142D01*
X152792857Y-113252142D01*
X152935714Y-113323571D01*
X153007142Y-113395000D01*
X153078571Y-113537857D01*
X153078571Y-113752142D01*
X152078571Y-111966428D02*
X153078571Y-111966428D01*
X152078571Y-112609285D02*
X152864285Y-112609285D01*
X153007142Y-112537857D01*
X153078571Y-112395000D01*
X153078571Y-112180714D01*
X153007142Y-112037857D01*
X152935714Y-111966428D01*
X153007142Y-111323571D02*
X153078571Y-111180714D01*
X153078571Y-110895000D01*
X153007142Y-110752142D01*
X152864285Y-110680714D01*
X152792857Y-110680714D01*
X152650000Y-110752142D01*
X152578571Y-110895000D01*
X152578571Y-111109285D01*
X152507142Y-111252142D01*
X152364285Y-111323571D01*
X152292857Y-111323571D01*
X152150000Y-111252142D01*
X152078571Y-111109285D01*
X152078571Y-110895000D01*
X152150000Y-110752142D01*
X151721428Y-110109285D02*
X151650000Y-110037857D01*
X151578571Y-109895000D01*
X151578571Y-109537857D01*
X151650000Y-109395000D01*
X151721428Y-109323571D01*
X151864285Y-109252142D01*
X152007142Y-109252142D01*
X152221428Y-109323571D01*
X153078571Y-110180714D01*
X153078571Y-109252142D01*
X153078571Y-103401428D02*
X151578571Y-103401428D01*
X151578571Y-102830000D01*
X151650000Y-102687142D01*
X151721428Y-102615714D01*
X151864285Y-102544285D01*
X152078571Y-102544285D01*
X152221428Y-102615714D01*
X152292857Y-102687142D01*
X152364285Y-102830000D01*
X152364285Y-103401428D01*
X153078571Y-101687142D02*
X153007142Y-101830000D01*
X152935714Y-101901428D01*
X152792857Y-101972857D01*
X152364285Y-101972857D01*
X152221428Y-101901428D01*
X152150000Y-101830000D01*
X152078571Y-101687142D01*
X152078571Y-101472857D01*
X152150000Y-101330000D01*
X152221428Y-101258571D01*
X152364285Y-101187142D01*
X152792857Y-101187142D01*
X152935714Y-101258571D01*
X153007142Y-101330000D01*
X153078571Y-101472857D01*
X153078571Y-101687142D01*
X152078571Y-99901428D02*
X153078571Y-99901428D01*
X152078571Y-100544285D02*
X152864285Y-100544285D01*
X153007142Y-100472857D01*
X153078571Y-100330000D01*
X153078571Y-100115714D01*
X153007142Y-99972857D01*
X152935714Y-99901428D01*
X153007142Y-99258571D02*
X153078571Y-99115714D01*
X153078571Y-98830000D01*
X153007142Y-98687142D01*
X152864285Y-98615714D01*
X152792857Y-98615714D01*
X152650000Y-98687142D01*
X152578571Y-98830000D01*
X152578571Y-99044285D01*
X152507142Y-99187142D01*
X152364285Y-99258571D01*
X152292857Y-99258571D01*
X152150000Y-99187142D01*
X152078571Y-99044285D01*
X152078571Y-98830000D01*
X152150000Y-98687142D01*
X153078571Y-97187142D02*
X153078571Y-98044285D01*
X153078571Y-97615714D02*
X151578571Y-97615714D01*
X151792857Y-97758571D01*
X151935714Y-97901428D01*
X152007142Y-98044285D01*
D10*
X151638095Y-104910000D02*
X151542857Y-104862380D01*
X151400000Y-104862380D01*
X151257142Y-104910000D01*
X151161904Y-105005238D01*
X151114285Y-105100476D01*
X151066666Y-105290952D01*
X151066666Y-105433809D01*
X151114285Y-105624285D01*
X151161904Y-105719523D01*
X151257142Y-105814761D01*
X151400000Y-105862380D01*
X151495238Y-105862380D01*
X151638095Y-105814761D01*
X151685714Y-105767142D01*
X151685714Y-105433809D01*
X151495238Y-105433809D01*
X152114285Y-105862380D02*
X152114285Y-104862380D01*
X152685714Y-105862380D01*
X152685714Y-104862380D01*
X153161904Y-105862380D02*
X153161904Y-104862380D01*
X153400000Y-104862380D01*
X153542857Y-104910000D01*
X153638095Y-105005238D01*
X153685714Y-105100476D01*
X153733333Y-105290952D01*
X153733333Y-105433809D01*
X153685714Y-105624285D01*
X153638095Y-105719523D01*
X153542857Y-105814761D01*
X153400000Y-105862380D01*
X153161904Y-105862380D01*
X151638095Y-116975000D02*
X151542857Y-116927380D01*
X151400000Y-116927380D01*
X151257142Y-116975000D01*
X151161904Y-117070238D01*
X151114285Y-117165476D01*
X151066666Y-117355952D01*
X151066666Y-117498809D01*
X151114285Y-117689285D01*
X151161904Y-117784523D01*
X151257142Y-117879761D01*
X151400000Y-117927380D01*
X151495238Y-117927380D01*
X151638095Y-117879761D01*
X151685714Y-117832142D01*
X151685714Y-117498809D01*
X151495238Y-117498809D01*
X152114285Y-117927380D02*
X152114285Y-116927380D01*
X152685714Y-117927380D01*
X152685714Y-116927380D01*
X153161904Y-117927380D02*
X153161904Y-116927380D01*
X153400000Y-116927380D01*
X153542857Y-116975000D01*
X153638095Y-117070238D01*
X153685714Y-117165476D01*
X153733333Y-117355952D01*
X153733333Y-117498809D01*
X153685714Y-117689285D01*
X153638095Y-117784523D01*
X153542857Y-117879761D01*
X153400000Y-117927380D01*
X153161904Y-117927380D01*
X151638095Y-130310000D02*
X151542857Y-130262380D01*
X151400000Y-130262380D01*
X151257142Y-130310000D01*
X151161904Y-130405238D01*
X151114285Y-130500476D01*
X151066666Y-130690952D01*
X151066666Y-130833809D01*
X151114285Y-131024285D01*
X151161904Y-131119523D01*
X151257142Y-131214761D01*
X151400000Y-131262380D01*
X151495238Y-131262380D01*
X151638095Y-131214761D01*
X151685714Y-131167142D01*
X151685714Y-130833809D01*
X151495238Y-130833809D01*
X152114285Y-131262380D02*
X152114285Y-130262380D01*
X152685714Y-131262380D01*
X152685714Y-130262380D01*
X153161904Y-131262380D02*
X153161904Y-130262380D01*
X153400000Y-130262380D01*
X153542857Y-130310000D01*
X153638095Y-130405238D01*
X153685714Y-130500476D01*
X153733333Y-130690952D01*
X153733333Y-130833809D01*
X153685714Y-131024285D01*
X153638095Y-131119523D01*
X153542857Y-131214761D01*
X153400000Y-131262380D01*
X153161904Y-131262380D01*
D11*
X140685000Y-135862142D02*
X140899285Y-135933571D01*
X141256428Y-135933571D01*
X141399285Y-135862142D01*
X141470714Y-135790714D01*
X141542142Y-135647857D01*
X141542142Y-135505000D01*
X141470714Y-135362142D01*
X141399285Y-135290714D01*
X141256428Y-135219285D01*
X140970714Y-135147857D01*
X140827857Y-135076428D01*
X140756428Y-135005000D01*
X140685000Y-134862142D01*
X140685000Y-134719285D01*
X140756428Y-134576428D01*
X140827857Y-134505000D01*
X140970714Y-134433571D01*
X141327857Y-134433571D01*
X141542142Y-134505000D01*
X141970714Y-134933571D02*
X142542142Y-134933571D01*
X142185000Y-134433571D02*
X142185000Y-135719285D01*
X142256428Y-135862142D01*
X142399285Y-135933571D01*
X142542142Y-135933571D01*
X143613571Y-135862142D02*
X143470714Y-135933571D01*
X143185000Y-135933571D01*
X143042142Y-135862142D01*
X142970714Y-135719285D01*
X142970714Y-135147857D01*
X143042142Y-135005000D01*
X143185000Y-134933571D01*
X143470714Y-134933571D01*
X143613571Y-135005000D01*
X143685000Y-135147857D01*
X143685000Y-135290714D01*
X142970714Y-135433571D01*
X144327857Y-134933571D02*
X144327857Y-136433571D01*
X144327857Y-135005000D02*
X144470714Y-134933571D01*
X144756428Y-134933571D01*
X144899285Y-135005000D01*
X144970714Y-135076428D01*
X145042142Y-135219285D01*
X145042142Y-135647857D01*
X144970714Y-135790714D01*
X144899285Y-135862142D01*
X144756428Y-135933571D01*
X144470714Y-135933571D01*
X144327857Y-135862142D01*
X146827857Y-135933571D02*
X146827857Y-134433571D01*
X147327857Y-135505000D01*
X147827857Y-134433571D01*
X147827857Y-135933571D01*
X148756428Y-135933571D02*
X148613571Y-135862142D01*
X148542142Y-135790714D01*
X148470714Y-135647857D01*
X148470714Y-135219285D01*
X148542142Y-135076428D01*
X148613571Y-135005000D01*
X148756428Y-134933571D01*
X148970714Y-134933571D01*
X149113571Y-135005000D01*
X149185000Y-135076428D01*
X149256428Y-135219285D01*
X149256428Y-135647857D01*
X149185000Y-135790714D01*
X149113571Y-135862142D01*
X148970714Y-135933571D01*
X148756428Y-135933571D01*
X149685000Y-134933571D02*
X150256428Y-134933571D01*
X149899285Y-134433571D02*
X149899285Y-135719285D01*
X149970714Y-135862142D01*
X150113571Y-135933571D01*
X150256428Y-135933571D01*
X152685000Y-135933571D02*
X151827857Y-135933571D01*
X152256428Y-135933571D02*
X152256428Y-134433571D01*
X152113571Y-134647857D01*
X151970714Y-134790714D01*
X151827857Y-134862142D01*
D10*
X151900000Y-174751904D02*
X151852380Y-174847142D01*
X151852380Y-174990000D01*
X151900000Y-175132857D01*
X151995238Y-175228095D01*
X152090476Y-175275714D01*
X152280952Y-175323333D01*
X152423809Y-175323333D01*
X152614285Y-175275714D01*
X152709523Y-175228095D01*
X152804761Y-175132857D01*
X152852380Y-174990000D01*
X152852380Y-174894761D01*
X152804761Y-174751904D01*
X152757142Y-174704285D01*
X152423809Y-174704285D01*
X152423809Y-174894761D01*
X152852380Y-174275714D02*
X151852380Y-174275714D01*
X152852380Y-173704285D01*
X151852380Y-173704285D01*
X152852380Y-173228095D02*
X151852380Y-173228095D01*
X151852380Y-172990000D01*
X151900000Y-172847142D01*
X151995238Y-172751904D01*
X152090476Y-172704285D01*
X152280952Y-172656666D01*
X152423809Y-172656666D01*
X152614285Y-172704285D01*
X152709523Y-172751904D01*
X152804761Y-172847142D01*
X152852380Y-172990000D01*
X152852380Y-173228095D01*
D12*
X140033809Y-176069761D02*
X140700476Y-178069761D01*
X141367142Y-176069761D01*
X142033809Y-178069761D02*
X142033809Y-176736428D01*
X142033809Y-176926904D02*
X142129047Y-176831666D01*
X142319523Y-176736428D01*
X142605238Y-176736428D01*
X142795714Y-176831666D01*
X142890952Y-177022142D01*
X142890952Y-178069761D01*
X142890952Y-177022142D02*
X142986190Y-176831666D01*
X143176666Y-176736428D01*
X143462380Y-176736428D01*
X143652857Y-176831666D01*
X143748095Y-177022142D01*
X143748095Y-178069761D01*
X144986190Y-178069761D02*
X144795714Y-177974523D01*
X144700476Y-177879285D01*
X144605238Y-177688809D01*
X144605238Y-177117380D01*
X144700476Y-176926904D01*
X144795714Y-176831666D01*
X144986190Y-176736428D01*
X145271904Y-176736428D01*
X145462380Y-176831666D01*
X145557619Y-176926904D01*
X145652857Y-177117380D01*
X145652857Y-177688809D01*
X145557619Y-177879285D01*
X145462380Y-177974523D01*
X145271904Y-178069761D01*
X144986190Y-178069761D01*
X146224285Y-176736428D02*
X146986190Y-176736428D01*
X146510000Y-176069761D02*
X146510000Y-177784047D01*
X146605238Y-177974523D01*
X146795714Y-178069761D01*
X146986190Y-178069761D01*
D13*
X42340714Y-82784285D02*
X42245476Y-82879523D01*
X41959761Y-82974761D01*
X41769285Y-82974761D01*
X41483571Y-82879523D01*
X41293095Y-82689047D01*
X41197857Y-82498571D01*
X41102619Y-82117619D01*
X41102619Y-81831904D01*
X41197857Y-81450952D01*
X41293095Y-81260476D01*
X41483571Y-81070000D01*
X41769285Y-80974761D01*
X41959761Y-80974761D01*
X42245476Y-81070000D01*
X42340714Y-81165238D01*
X44054999Y-82974761D02*
X44054999Y-81927142D01*
X43959761Y-81736666D01*
X43769285Y-81641428D01*
X43388333Y-81641428D01*
X43197857Y-81736666D01*
X44054999Y-82879523D02*
X43864523Y-82974761D01*
X43388333Y-82974761D01*
X43197857Y-82879523D01*
X43102619Y-82689047D01*
X43102619Y-82498571D01*
X43197857Y-82308095D01*
X43388333Y-82212857D01*
X43864523Y-82212857D01*
X44054999Y-82117619D01*
X45007380Y-82974761D02*
X45007380Y-81641428D01*
X45007380Y-82022380D02*
X45102619Y-81831904D01*
X45197857Y-81736666D01*
X45388333Y-81641428D01*
X45578809Y-81641428D01*
X45959761Y-81641428D02*
X46721666Y-81641428D01*
X46245476Y-80974761D02*
X46245476Y-82689047D01*
X46340714Y-82879523D01*
X46531190Y-82974761D01*
X46721666Y-82974761D01*
X48150238Y-82879523D02*
X47959761Y-82974761D01*
X47578809Y-82974761D01*
X47388333Y-82879523D01*
X47293095Y-82689047D01*
X47293095Y-81927142D01*
X47388333Y-81736666D01*
X47578809Y-81641428D01*
X47959761Y-81641428D01*
X48150238Y-81736666D01*
X48245476Y-81927142D01*
X48245476Y-82117619D01*
X47293095Y-82308095D01*
X50340714Y-80974761D02*
X51007380Y-82974761D01*
X51674047Y-80974761D01*
X52340714Y-82974761D02*
X52340714Y-81641428D01*
X52340714Y-80974761D02*
X52245476Y-81070000D01*
X52340714Y-81165238D01*
X52435952Y-81070000D01*
X52340714Y-80974761D01*
X52340714Y-81165238D01*
X53197857Y-82879523D02*
X53388333Y-82974761D01*
X53769285Y-82974761D01*
X53959761Y-82879523D01*
X54054999Y-82689047D01*
X54054999Y-82593809D01*
X53959761Y-82403333D01*
X53769285Y-82308095D01*
X53483571Y-82308095D01*
X53293095Y-82212857D01*
X53197857Y-82022380D01*
X53197857Y-81927142D01*
X53293095Y-81736666D01*
X53483571Y-81641428D01*
X53769285Y-81641428D01*
X53959761Y-81736666D01*
X54912142Y-82974761D02*
X54912142Y-81641428D01*
X54912142Y-80974761D02*
X54816904Y-81070000D01*
X54912142Y-81165238D01*
X55007380Y-81070000D01*
X54912142Y-80974761D01*
X54912142Y-81165238D01*
X56150238Y-82974761D02*
X55959761Y-82879523D01*
X55864523Y-82784285D01*
X55769285Y-82593809D01*
X55769285Y-82022380D01*
X55864523Y-81831904D01*
X55959761Y-81736666D01*
X56150238Y-81641428D01*
X56435952Y-81641428D01*
X56626428Y-81736666D01*
X56721666Y-81831904D01*
X56816904Y-82022380D01*
X56816904Y-82593809D01*
X56721666Y-82784285D01*
X56626428Y-82879523D01*
X56435952Y-82974761D01*
X56150238Y-82974761D01*
X57674047Y-81641428D02*
X57674047Y-82974761D01*
X57674047Y-81831904D02*
X57769285Y-81736666D01*
X57959761Y-81641428D01*
X58245476Y-81641428D01*
X58435952Y-81736666D01*
X58531190Y-81927142D01*
X58531190Y-82974761D01*
X61007380Y-82974761D02*
X61007380Y-80974761D01*
X61959761Y-81641428D02*
X61959761Y-82974761D01*
X61959761Y-81831904D02*
X62054999Y-81736666D01*
X62245476Y-81641428D01*
X62531190Y-81641428D01*
X62721666Y-81736666D01*
X62816904Y-81927142D01*
X62816904Y-82974761D01*
X64626428Y-82974761D02*
X64626428Y-80974761D01*
X64626428Y-82879523D02*
X64435952Y-82974761D01*
X64054999Y-82974761D01*
X63864523Y-82879523D01*
X63769285Y-82784285D01*
X63674047Y-82593809D01*
X63674047Y-82022380D01*
X63769285Y-81831904D01*
X63864523Y-81736666D01*
X64054999Y-81641428D01*
X64435952Y-81641428D01*
X64626428Y-81736666D01*
X66435952Y-81641428D02*
X66435952Y-82974761D01*
X65578809Y-81641428D02*
X65578809Y-82689047D01*
X65674047Y-82879523D01*
X65864523Y-82974761D01*
X66150238Y-82974761D01*
X66340714Y-82879523D01*
X66435952Y-82784285D01*
X67293095Y-82879523D02*
X67483571Y-82974761D01*
X67864523Y-82974761D01*
X68054999Y-82879523D01*
X68150238Y-82689047D01*
X68150238Y-82593809D01*
X68054999Y-82403333D01*
X67864523Y-82308095D01*
X67578809Y-82308095D01*
X67388333Y-82212857D01*
X67293095Y-82022380D01*
X67293095Y-81927142D01*
X67388333Y-81736666D01*
X67578809Y-81641428D01*
X67864523Y-81641428D01*
X68054999Y-81736666D01*
X68721666Y-81641428D02*
X69483571Y-81641428D01*
X69007380Y-80974761D02*
X69007380Y-82689047D01*
X69102619Y-82879523D01*
X69293095Y-82974761D01*
X69483571Y-82974761D01*
X70150238Y-82974761D02*
X70150238Y-81641428D01*
X70150238Y-82022380D02*
X70245476Y-81831904D01*
X70340714Y-81736666D01*
X70531190Y-81641428D01*
X70721666Y-81641428D01*
X71388333Y-82974761D02*
X71388333Y-81641428D01*
X71388333Y-80974761D02*
X71293095Y-81070000D01*
X71388333Y-81165238D01*
X71483571Y-81070000D01*
X71388333Y-80974761D01*
X71388333Y-81165238D01*
X73102619Y-82879523D02*
X72912142Y-82974761D01*
X72531190Y-82974761D01*
X72340714Y-82879523D01*
X72245476Y-82689047D01*
X72245476Y-81927142D01*
X72340714Y-81736666D01*
X72531190Y-81641428D01*
X72912142Y-81641428D01*
X73102619Y-81736666D01*
X73197857Y-81927142D01*
X73197857Y-82117619D01*
X72245476Y-82308095D01*
X74340714Y-82974761D02*
X74150238Y-82879523D01*
X74054999Y-82689047D01*
X74054999Y-80974761D01*
X75388333Y-82974761D02*
X75197857Y-82879523D01*
X75102619Y-82689047D01*
X75102619Y-80974761D01*
X76912142Y-82879523D02*
X76721666Y-82974761D01*
X76340714Y-82974761D01*
X76150238Y-82879523D01*
X76054999Y-82689047D01*
X76054999Y-81927142D01*
X76150238Y-81736666D01*
X76340714Y-81641428D01*
X76721666Y-81641428D01*
X76912142Y-81736666D01*
X77007380Y-81927142D01*
X77007380Y-82117619D01*
X76054999Y-82308095D01*
X41912142Y-86474761D02*
X41912142Y-84474761D01*
X42674047Y-84474761D01*
X42864523Y-84570000D01*
X42959761Y-84665238D01*
X43055000Y-84855714D01*
X43055000Y-85141428D01*
X42959761Y-85331904D01*
X42864523Y-85427142D01*
X42674047Y-85522380D01*
X41912142Y-85522380D01*
X43912142Y-86474761D02*
X43912142Y-85141428D01*
X43912142Y-84474761D02*
X43816904Y-84570000D01*
X43912142Y-84665238D01*
X44007380Y-84570000D01*
X43912142Y-84474761D01*
X43912142Y-84665238D01*
X45150238Y-86474761D02*
X44959761Y-86379523D01*
X44864523Y-86189047D01*
X44864523Y-84474761D01*
X46197857Y-86474761D02*
X46007380Y-86379523D01*
X45912142Y-86284285D01*
X45816904Y-86093809D01*
X45816904Y-85522380D01*
X45912142Y-85331904D01*
X46007380Y-85236666D01*
X46197857Y-85141428D01*
X46483571Y-85141428D01*
X46674047Y-85236666D01*
X46769285Y-85331904D01*
X46864523Y-85522380D01*
X46864523Y-86093809D01*
X46769285Y-86284285D01*
X46674047Y-86379523D01*
X46483571Y-86474761D01*
X46197857Y-86474761D01*
X47435952Y-85141428D02*
X48197857Y-85141428D01*
X47721666Y-84474761D02*
X47721666Y-86189047D01*
X47816904Y-86379523D01*
X48007380Y-86474761D01*
X48197857Y-86474761D01*
X49721666Y-86474761D02*
X49721666Y-85427142D01*
X49626428Y-85236666D01*
X49435952Y-85141428D01*
X49055000Y-85141428D01*
X48864523Y-85236666D01*
X49721666Y-86379523D02*
X49531190Y-86474761D01*
X49055000Y-86474761D01*
X48864523Y-86379523D01*
X48769285Y-86189047D01*
X48769285Y-85998571D01*
X48864523Y-85808095D01*
X49055000Y-85712857D01*
X49531190Y-85712857D01*
X49721666Y-85617619D01*
X51531190Y-85141428D02*
X51531190Y-86760476D01*
X51435952Y-86950952D01*
X51340714Y-87046190D01*
X51150238Y-87141428D01*
X50864523Y-87141428D01*
X50674047Y-87046190D01*
X51531190Y-86379523D02*
X51340714Y-86474761D01*
X50959761Y-86474761D01*
X50769285Y-86379523D01*
X50674047Y-86284285D01*
X50578809Y-86093809D01*
X50578809Y-85522380D01*
X50674047Y-85331904D01*
X50769285Y-85236666D01*
X50959761Y-85141428D01*
X51340714Y-85141428D01*
X51531190Y-85236666D01*
X53245476Y-86379523D02*
X53055000Y-86474761D01*
X52674047Y-86474761D01*
X52483571Y-86379523D01*
X52388333Y-86189047D01*
X52388333Y-85427142D01*
X52483571Y-85236666D01*
X52674047Y-85141428D01*
X53055000Y-85141428D01*
X53245476Y-85236666D01*
X53340714Y-85427142D01*
X53340714Y-85617619D01*
X52388333Y-85808095D01*
X57150238Y-84379523D02*
X55435952Y-86950952D01*
X60293095Y-86474761D02*
X59340714Y-86474761D01*
X59340714Y-84474761D01*
X60959761Y-85427142D02*
X61626428Y-85427142D01*
X61912142Y-86474761D02*
X60959761Y-86474761D01*
X60959761Y-84474761D01*
X61912142Y-84474761D01*
X62769285Y-85141428D02*
X62769285Y-86474761D01*
X62769285Y-85331904D02*
X62864523Y-85236666D01*
X63055000Y-85141428D01*
X63340714Y-85141428D01*
X63531190Y-85236666D01*
X63626428Y-85427142D01*
X63626428Y-86474761D01*
X64483571Y-86379523D02*
X64674047Y-86474761D01*
X65055000Y-86474761D01*
X65245476Y-86379523D01*
X65340714Y-86189047D01*
X65340714Y-86093809D01*
X65245476Y-85903333D01*
X65055000Y-85808095D01*
X64769285Y-85808095D01*
X64578809Y-85712857D01*
X64483571Y-85522380D01*
X64483571Y-85427142D01*
X64578809Y-85236666D01*
X64769285Y-85141428D01*
X65055000Y-85141428D01*
X65245476Y-85236666D01*
X66197857Y-85427142D02*
X66864523Y-85427142D01*
X67150238Y-86474761D02*
X66197857Y-86474761D01*
X66197857Y-84474761D01*
X67150238Y-84474761D01*
X69435952Y-84665238D02*
X69531190Y-84570000D01*
X69721666Y-84474761D01*
X70197857Y-84474761D01*
X70388333Y-84570000D01*
X70483571Y-84665238D01*
X70578809Y-84855714D01*
X70578809Y-85046190D01*
X70483571Y-85331904D01*
X69340714Y-86474761D01*
X70578809Y-86474761D01*
X71816904Y-84474761D02*
X72007380Y-84474761D01*
X72197857Y-84570000D01*
X72293095Y-84665238D01*
X72388333Y-84855714D01*
X72483571Y-85236666D01*
X72483571Y-85712857D01*
X72388333Y-86093809D01*
X72293095Y-86284285D01*
X72197857Y-86379523D01*
X72007380Y-86474761D01*
X71816904Y-86474761D01*
X71626428Y-86379523D01*
X71531190Y-86284285D01*
X71435952Y-86093809D01*
X71340714Y-85712857D01*
X71340714Y-85236666D01*
X71435952Y-84855714D01*
X71531190Y-84665238D01*
X71626428Y-84570000D01*
X71816904Y-84474761D01*
X73245476Y-84665238D02*
X73340714Y-84570000D01*
X73531190Y-84474761D01*
X74007380Y-84474761D01*
X74197857Y-84570000D01*
X74293095Y-84665238D01*
X74388333Y-84855714D01*
X74388333Y-85046190D01*
X74293095Y-85331904D01*
X73150238Y-86474761D01*
X74388333Y-86474761D01*
X75055000Y-84474761D02*
X76293095Y-84474761D01*
X75626428Y-85236666D01*
X75912142Y-85236666D01*
X76102619Y-85331904D01*
X76197857Y-85427142D01*
X76293095Y-85617619D01*
X76293095Y-86093809D01*
X76197857Y-86284285D01*
X76102619Y-86379523D01*
X75912142Y-86474761D01*
X75340714Y-86474761D01*
X75150238Y-86379523D01*
X75055000Y-86284285D01*
D12*
X61690714Y-179879761D02*
X62357380Y-181879761D01*
X63024047Y-179879761D01*
X63214523Y-182070238D02*
X64738333Y-182070238D01*
X65214523Y-180832142D02*
X65881190Y-180832142D01*
X66166904Y-181879761D02*
X65214523Y-181879761D01*
X65214523Y-179879761D01*
X66166904Y-179879761D01*
X67881190Y-181784523D02*
X67690714Y-181879761D01*
X67309761Y-181879761D01*
X67119285Y-181784523D01*
X67024047Y-181689285D01*
X66928809Y-181498809D01*
X66928809Y-180927380D01*
X67024047Y-180736904D01*
X67119285Y-180641666D01*
X67309761Y-180546428D01*
X67690714Y-180546428D01*
X67881190Y-180641666D01*
X69024047Y-181879761D02*
X68833571Y-181784523D01*
X68738333Y-181594047D01*
X68738333Y-179879761D01*
D10*
X73160000Y-177926904D02*
X73112380Y-178022142D01*
X73112380Y-178165000D01*
X73160000Y-178307857D01*
X73255238Y-178403095D01*
X73350476Y-178450714D01*
X73540952Y-178498333D01*
X73683809Y-178498333D01*
X73874285Y-178450714D01*
X73969523Y-178403095D01*
X74064761Y-178307857D01*
X74112380Y-178165000D01*
X74112380Y-178069761D01*
X74064761Y-177926904D01*
X74017142Y-177879285D01*
X73683809Y-177879285D01*
X73683809Y-178069761D01*
X74112380Y-177450714D02*
X73112380Y-177450714D01*
X74112380Y-176879285D01*
X73112380Y-176879285D01*
X74112380Y-176403095D02*
X73112380Y-176403095D01*
X73112380Y-176165000D01*
X73160000Y-176022142D01*
X73255238Y-175926904D01*
X73350476Y-175879285D01*
X73540952Y-175831666D01*
X73683809Y-175831666D01*
X73874285Y-175879285D01*
X73969523Y-175926904D01*
X74064761Y-176022142D01*
X74112380Y-176165000D01*
X74112380Y-176403095D01*
D12*
X45530000Y-180832142D02*
X46196666Y-180832142D01*
X46482380Y-181879761D02*
X45530000Y-181879761D01*
X45530000Y-179879761D01*
X46482380Y-179879761D01*
X48196666Y-181784523D02*
X48006190Y-181879761D01*
X47625238Y-181879761D01*
X47434761Y-181784523D01*
X47339523Y-181689285D01*
X47244285Y-181498809D01*
X47244285Y-180927380D01*
X47339523Y-180736904D01*
X47434761Y-180641666D01*
X47625238Y-180546428D01*
X48006190Y-180546428D01*
X48196666Y-180641666D01*
X49339523Y-181879761D02*
X49149047Y-181784523D01*
X49053809Y-181594047D01*
X49053809Y-179879761D01*
X50101428Y-181689285D02*
X50196666Y-181784523D01*
X50101428Y-181879761D01*
X50006190Y-181784523D01*
X50101428Y-181689285D01*
X50101428Y-181879761D01*
X53625238Y-181879761D02*
X52482380Y-181879761D01*
X53053809Y-181879761D02*
X53053809Y-179879761D01*
X52863333Y-180165476D01*
X52672857Y-180355952D01*
X52482380Y-180451190D01*
X31560000Y-180832142D02*
X32226666Y-180832142D01*
X32512380Y-181879761D02*
X31560000Y-181879761D01*
X31560000Y-179879761D01*
X32512380Y-179879761D01*
X34226666Y-181784523D02*
X34036190Y-181879761D01*
X33655238Y-181879761D01*
X33464761Y-181784523D01*
X33369523Y-181689285D01*
X33274285Y-181498809D01*
X33274285Y-180927380D01*
X33369523Y-180736904D01*
X33464761Y-180641666D01*
X33655238Y-180546428D01*
X34036190Y-180546428D01*
X34226666Y-180641666D01*
X35369523Y-181879761D02*
X35179047Y-181784523D01*
X35083809Y-181594047D01*
X35083809Y-179879761D01*
X36131428Y-181689285D02*
X36226666Y-181784523D01*
X36131428Y-181879761D01*
X36036190Y-181784523D01*
X36131428Y-181689285D01*
X36131428Y-181879761D01*
X38512380Y-180070238D02*
X38607619Y-179975000D01*
X38798095Y-179879761D01*
X39274285Y-179879761D01*
X39464761Y-179975000D01*
X39560000Y-180070238D01*
X39655238Y-180260714D01*
X39655238Y-180451190D01*
X39560000Y-180736904D01*
X38417142Y-181879761D01*
X39655238Y-181879761D01*
X17590000Y-180832142D02*
X18256666Y-180832142D01*
X18542380Y-181879761D02*
X17590000Y-181879761D01*
X17590000Y-179879761D01*
X18542380Y-179879761D01*
X20256666Y-181784523D02*
X20066190Y-181879761D01*
X19685238Y-181879761D01*
X19494761Y-181784523D01*
X19399523Y-181689285D01*
X19304285Y-181498809D01*
X19304285Y-180927380D01*
X19399523Y-180736904D01*
X19494761Y-180641666D01*
X19685238Y-180546428D01*
X20066190Y-180546428D01*
X20256666Y-180641666D01*
X21399523Y-181879761D02*
X21209047Y-181784523D01*
X21113809Y-181594047D01*
X21113809Y-179879761D01*
X22161428Y-181689285D02*
X22256666Y-181784523D01*
X22161428Y-181879761D01*
X22066190Y-181784523D01*
X22161428Y-181689285D01*
X22161428Y-181879761D01*
X24447142Y-179879761D02*
X25685238Y-179879761D01*
X25018571Y-180641666D01*
X25304285Y-180641666D01*
X25494761Y-180736904D01*
X25590000Y-180832142D01*
X25685238Y-181022619D01*
X25685238Y-181498809D01*
X25590000Y-181689285D01*
X25494761Y-181784523D01*
X25304285Y-181879761D01*
X24732857Y-181879761D01*
X24542380Y-181784523D01*
X24447142Y-181689285D01*
D14*
X14605000Y-132715000D02*
X37465000Y-132715000D01*
X10160000Y-127000000D02*
X14605000Y-132715000D01*
X10160000Y-111760000D02*
X10160000Y-127000000D01*
X14605000Y-106680000D02*
X10160000Y-111760000D01*
X37465000Y-106680000D02*
X14605000Y-106680000D01*
X37465000Y-132715000D02*
X37465000Y-106680000D01*
X10160000Y-99060000D02*
X38735000Y-99060000D01*
X10160000Y-81280000D02*
X10160000Y-99060000D01*
X38735000Y-81280000D02*
X10160000Y-81280000D01*
X38735000Y-99060000D02*
X38735000Y-81280000D01*
D10*
X22352380Y-88050714D02*
X22352380Y-88717380D01*
X22352380Y-88145952D02*
X22400000Y-88098333D01*
X22495238Y-88050714D01*
X22638095Y-88050714D01*
X22733333Y-88098333D01*
X22780952Y-88193571D01*
X22780952Y-88717380D01*
X23828571Y-88717380D02*
X23495238Y-88241190D01*
X23257142Y-88717380D02*
X23257142Y-87717380D01*
X23638095Y-87717380D01*
X23733333Y-87765000D01*
X23780952Y-87812619D01*
X23828571Y-87907857D01*
X23828571Y-88050714D01*
X23780952Y-88145952D01*
X23733333Y-88193571D01*
X23638095Y-88241190D01*
X23257142Y-88241190D01*
X24590476Y-88193571D02*
X24257142Y-88193571D01*
X24257142Y-88717380D02*
X24257142Y-87717380D01*
X24733333Y-87717380D01*
X25066666Y-87812619D02*
X25114285Y-87765000D01*
X25209523Y-87717380D01*
X25447619Y-87717380D01*
X25542857Y-87765000D01*
X25590476Y-87812619D01*
X25638095Y-87907857D01*
X25638095Y-88003095D01*
X25590476Y-88145952D01*
X25019047Y-88717380D01*
X25638095Y-88717380D01*
X26495238Y-88050714D02*
X26495238Y-88717380D01*
X26257142Y-87669761D02*
X26019047Y-88384047D01*
X26638095Y-88384047D01*
X27209523Y-87717380D02*
X27304761Y-87717380D01*
X27400000Y-87765000D01*
X27447619Y-87812619D01*
X27495238Y-87907857D01*
X27542857Y-88098333D01*
X27542857Y-88336428D01*
X27495238Y-88526904D01*
X27447619Y-88622142D01*
X27400000Y-88669761D01*
X27304761Y-88717380D01*
X27209523Y-88717380D01*
X27114285Y-88669761D01*
X27066666Y-88622142D01*
X27019047Y-88526904D01*
X26971428Y-88336428D01*
X26971428Y-88098333D01*
X27019047Y-87907857D01*
X27066666Y-87812619D01*
X27114285Y-87765000D01*
X27209523Y-87717380D01*
X28495238Y-88717380D02*
X27923809Y-88717380D01*
X28209523Y-88717380D02*
X28209523Y-87717380D01*
X28114285Y-87860238D01*
X28019047Y-87955476D01*
X27923809Y-88003095D01*
X17772857Y-119197380D02*
X17439523Y-118721190D01*
X17201428Y-119197380D02*
X17201428Y-118197380D01*
X17582380Y-118197380D01*
X17677619Y-118245000D01*
X17725238Y-118292619D01*
X17772857Y-118387857D01*
X17772857Y-118530714D01*
X17725238Y-118625952D01*
X17677619Y-118673571D01*
X17582380Y-118721190D01*
X17201428Y-118721190D01*
X18201428Y-119197380D02*
X18201428Y-118197380D01*
X18772857Y-119197380D01*
X18772857Y-118197380D01*
X19677619Y-118530714D02*
X19677619Y-119197380D01*
X19439523Y-118149761D02*
X19201428Y-118864047D01*
X19820476Y-118864047D01*
X20153809Y-118292619D02*
X20201428Y-118245000D01*
X20296666Y-118197380D01*
X20534761Y-118197380D01*
X20630000Y-118245000D01*
X20677619Y-118292619D01*
X20725238Y-118387857D01*
X20725238Y-118483095D01*
X20677619Y-118625952D01*
X20106190Y-119197380D01*
X20725238Y-119197380D01*
X22630000Y-118149761D02*
X21772857Y-119435476D01*
X23725238Y-119197380D02*
X23725238Y-118197380D01*
X24058571Y-118911666D01*
X24391904Y-118197380D01*
X24391904Y-119197380D01*
X25010952Y-119197380D02*
X24915714Y-119149761D01*
X24868095Y-119102142D01*
X24820476Y-119006904D01*
X24820476Y-118721190D01*
X24868095Y-118625952D01*
X24915714Y-118578333D01*
X25010952Y-118530714D01*
X25153809Y-118530714D01*
X25249047Y-118578333D01*
X25296666Y-118625952D01*
X25344285Y-118721190D01*
X25344285Y-119006904D01*
X25296666Y-119102142D01*
X25249047Y-119149761D01*
X25153809Y-119197380D01*
X25010952Y-119197380D01*
X26201428Y-119197380D02*
X26201428Y-118197380D01*
X26201428Y-119149761D02*
X26106190Y-119197380D01*
X25915714Y-119197380D01*
X25820476Y-119149761D01*
X25772857Y-119102142D01*
X25725238Y-119006904D01*
X25725238Y-118721190D01*
X25772857Y-118625952D01*
X25820476Y-118578333D01*
X25915714Y-118530714D01*
X26106190Y-118530714D01*
X26201428Y-118578333D01*
X27106190Y-118530714D02*
X27106190Y-119197380D01*
X26677619Y-118530714D02*
X26677619Y-119054523D01*
X26725238Y-119149761D01*
X26820476Y-119197380D01*
X26963333Y-119197380D01*
X27058571Y-119149761D01*
X27106190Y-119102142D01*
X27725238Y-119197380D02*
X27630000Y-119149761D01*
X27582380Y-119054523D01*
X27582380Y-118197380D01*
X28487142Y-119149761D02*
X28391904Y-119197380D01*
X28201428Y-119197380D01*
X28106190Y-119149761D01*
X28058571Y-119054523D01*
X28058571Y-118673571D01*
X28106190Y-118578333D01*
X28201428Y-118530714D01*
X28391904Y-118530714D01*
X28487142Y-118578333D01*
X28534761Y-118673571D01*
X28534761Y-118768809D01*
X28058571Y-118864047D01*
X29630000Y-118197380D02*
X30296666Y-119197380D01*
X30296666Y-118197380D02*
X29630000Y-119197380D01*
X30534761Y-118197380D02*
X30868095Y-119197380D01*
X31201428Y-118197380D01*
D14*
%TO.C,J13*%
X152940000Y-137640000D02*
X148220000Y-137640000D01*
X148220000Y-137640000D02*
X148220000Y-147760000D01*
X148220000Y-147760000D02*
X152940000Y-147760000D01*
X152940000Y-147760000D02*
X152940000Y-137640000D01*
X152940000Y-139400000D02*
X153140000Y-139400000D01*
X153140000Y-139400000D02*
X153140000Y-139100000D01*
X153140000Y-139100000D02*
X152940000Y-139100000D01*
X153040000Y-139400000D02*
X153040000Y-139100000D01*
X152940000Y-140200000D02*
X152330000Y-140200000D01*
X152330000Y-140200000D02*
X152330000Y-138250000D01*
X152330000Y-138250000D02*
X148830000Y-138250000D01*
X148830000Y-138250000D02*
X148830000Y-147150000D01*
X148830000Y-147150000D02*
X152330000Y-147150000D01*
X152330000Y-147150000D02*
X152330000Y-145200000D01*
X152330000Y-145200000D02*
X152940000Y-145200000D01*
X151630000Y-137640000D02*
X151630000Y-138250000D01*
X150330000Y-137640000D02*
X150330000Y-138250000D01*
X151630000Y-147760000D02*
X151630000Y-147150000D01*
X150330000Y-147760000D02*
X150330000Y-147150000D01*
X148830000Y-140600000D02*
X149330000Y-140600000D01*
X149330000Y-140600000D02*
X149330000Y-140800000D01*
X149330000Y-140800000D02*
X148830000Y-140800000D01*
X148830000Y-140700000D02*
X149330000Y-140700000D01*
X148830000Y-142600000D02*
X149330000Y-142600000D01*
X149330000Y-142600000D02*
X149330000Y-142800000D01*
X149330000Y-142800000D02*
X148830000Y-142800000D01*
X148830000Y-142700000D02*
X149330000Y-142700000D01*
X148830000Y-144600000D02*
X149330000Y-144600000D01*
X149330000Y-144600000D02*
X149330000Y-144800000D01*
X149330000Y-144800000D02*
X148830000Y-144800000D01*
X148830000Y-144700000D02*
X149330000Y-144700000D01*
X153240000Y-138590000D02*
X153240000Y-137340000D01*
X153240000Y-137340000D02*
X151990000Y-137340000D01*
%TO.C,J31*%
X86935000Y-168970000D02*
X89595000Y-168970000D01*
X86935000Y-168850000D02*
X86935000Y-168970000D01*
X89595000Y-168850000D02*
X89595000Y-168970000D01*
X89595000Y-166310000D02*
X89595000Y-167640000D01*
X88265000Y-166310000D02*
X89595000Y-166310000D01*
%TO.C,J22*%
X38160000Y-87570000D02*
X32960000Y-87570000D01*
X38160000Y-95250000D02*
X38160000Y-87570000D01*
X32960000Y-97850000D02*
X32960000Y-87570000D01*
X38160000Y-95250000D02*
X35560000Y-95250000D01*
X35560000Y-95250000D02*
X35560000Y-97850000D01*
X35560000Y-97850000D02*
X32960000Y-97850000D01*
X38160000Y-96520000D02*
X38160000Y-97850000D01*
X38160000Y-97850000D02*
X36830000Y-97850000D01*
%TO.C,J10*%
X44945001Y-106540001D02*
X46275001Y-106540001D01*
X44945001Y-107870001D02*
X44945001Y-106540001D01*
X47545001Y-106540001D02*
X50145001Y-106540001D01*
X47545001Y-109140001D02*
X47545001Y-106540001D01*
X44945001Y-109140001D02*
X47545001Y-109140001D01*
X50145001Y-106540001D02*
X50145001Y-157460001D01*
X44945001Y-109140001D02*
X44945001Y-157460001D01*
X44945001Y-157460001D02*
X50145001Y-157460001D01*
%TO.C,J14*%
X105985000Y-157460001D02*
X111185000Y-157460001D01*
X105985000Y-109140001D02*
X105985000Y-157460001D01*
X111185000Y-106540001D02*
X111185000Y-157460001D01*
X105985000Y-109140001D02*
X108585000Y-109140001D01*
X108585000Y-109140001D02*
X108585000Y-106540001D01*
X108585000Y-106540001D02*
X111185000Y-106540001D01*
X105985000Y-107870001D02*
X105985000Y-106540001D01*
X105985000Y-106540001D02*
X107315000Y-106540001D01*
%TO.C,J9*%
X36205000Y-131870000D02*
X36205000Y-129750000D01*
X18145000Y-131870000D02*
X36205000Y-131870000D01*
X18145000Y-129750000D02*
X36205000Y-129750000D01*
X18145000Y-131870000D02*
X18145000Y-129750000D01*
X17145000Y-131870000D02*
X16085000Y-131870000D01*
X16085000Y-131870000D02*
X16085000Y-130810000D01*
%TO.C,J11*%
X16085000Y-109645000D02*
X16085000Y-108585000D01*
X17145000Y-109645000D02*
X16085000Y-109645000D01*
X18145000Y-109645000D02*
X18145000Y-107525000D01*
X18145000Y-107525000D02*
X36205000Y-107525000D01*
X18145000Y-109645000D02*
X36205000Y-109645000D01*
X36205000Y-109645000D02*
X36205000Y-107525000D01*
%TO.C,R1*%
X33115000Y-114400000D02*
X33115000Y-111660000D01*
X33115000Y-111660000D02*
X26575000Y-111660000D01*
X26575000Y-111660000D02*
X26575000Y-114400000D01*
X26575000Y-114400000D02*
X33115000Y-114400000D01*
X33885000Y-113030000D02*
X33115000Y-113030000D01*
X25805000Y-113030000D02*
X26575000Y-113030000D01*
%TO.C,C1*%
X129105000Y-81975354D02*
X128105000Y-81975354D01*
X128605000Y-81475354D02*
X128605000Y-82475354D01*
X126329000Y-92036000D02*
X125131000Y-92036000D01*
X126592000Y-91996000D02*
X124868000Y-91996000D01*
X126792000Y-91956000D02*
X124668000Y-91956000D01*
X126960000Y-91916000D02*
X124500000Y-91916000D01*
X127108000Y-91876000D02*
X124352000Y-91876000D01*
X127240000Y-91836000D02*
X124220000Y-91836000D01*
X127360000Y-91796000D02*
X124100000Y-91796000D01*
X127472000Y-91756000D02*
X123988000Y-91756000D01*
X127576000Y-91716000D02*
X123884000Y-91716000D01*
X127674000Y-91676000D02*
X123786000Y-91676000D01*
X127767000Y-91636000D02*
X123693000Y-91636000D01*
X127855000Y-91596000D02*
X123605000Y-91596000D01*
X127939000Y-91556000D02*
X123521000Y-91556000D01*
X128019000Y-91516000D02*
X123441000Y-91516000D01*
X128095000Y-91476000D02*
X123365000Y-91476000D01*
X128169000Y-91436000D02*
X123291000Y-91436000D01*
X128240000Y-91396000D02*
X123220000Y-91396000D01*
X128309000Y-91356000D02*
X123151000Y-91356000D01*
X128375000Y-91316000D02*
X123085000Y-91316000D01*
X128439000Y-91276000D02*
X123021000Y-91276000D01*
X128500000Y-91236000D02*
X122960000Y-91236000D01*
X128560000Y-91196000D02*
X122900000Y-91196000D01*
X128619000Y-91156000D02*
X122841000Y-91156000D01*
X128675000Y-91116000D02*
X122785000Y-91116000D01*
X128730000Y-91076000D02*
X122730000Y-91076000D01*
X128784000Y-91036000D02*
X122676000Y-91036000D01*
X128836000Y-90996000D02*
X122624000Y-90996000D01*
X128886000Y-90956000D02*
X122574000Y-90956000D01*
X128936000Y-90916000D02*
X122524000Y-90916000D01*
X128984000Y-90876000D02*
X122476000Y-90876000D01*
X129031000Y-90836000D02*
X122429000Y-90836000D01*
X129077000Y-90796000D02*
X122383000Y-90796000D01*
X129122000Y-90756000D02*
X122338000Y-90756000D01*
X129166000Y-90716000D02*
X122294000Y-90716000D01*
X124489000Y-90676000D02*
X122252000Y-90676000D01*
X129208000Y-90676000D02*
X126971000Y-90676000D01*
X124489000Y-90636000D02*
X122210000Y-90636000D01*
X129250000Y-90636000D02*
X126971000Y-90636000D01*
X124489000Y-90596000D02*
X122169000Y-90596000D01*
X129291000Y-90596000D02*
X126971000Y-90596000D01*
X124489000Y-90556000D02*
X122129000Y-90556000D01*
X129331000Y-90556000D02*
X126971000Y-90556000D01*
X124489000Y-90516000D02*
X122090000Y-90516000D01*
X129370000Y-90516000D02*
X126971000Y-90516000D01*
X124489000Y-90476000D02*
X122051000Y-90476000D01*
X129409000Y-90476000D02*
X126971000Y-90476000D01*
X124489000Y-90436000D02*
X122014000Y-90436000D01*
X129446000Y-90436000D02*
X126971000Y-90436000D01*
X124489000Y-90396000D02*
X121977000Y-90396000D01*
X129483000Y-90396000D02*
X126971000Y-90396000D01*
X124489000Y-90356000D02*
X121941000Y-90356000D01*
X129519000Y-90356000D02*
X126971000Y-90356000D01*
X124489000Y-90316000D02*
X121906000Y-90316000D01*
X129554000Y-90316000D02*
X126971000Y-90316000D01*
X124489000Y-90276000D02*
X121872000Y-90276000D01*
X129588000Y-90276000D02*
X126971000Y-90276000D01*
X124489000Y-90236000D02*
X121838000Y-90236000D01*
X129622000Y-90236000D02*
X126971000Y-90236000D01*
X124489000Y-90196000D02*
X121805000Y-90196000D01*
X129655000Y-90196000D02*
X126971000Y-90196000D01*
X124489000Y-90156000D02*
X121773000Y-90156000D01*
X129687000Y-90156000D02*
X126971000Y-90156000D01*
X124489000Y-90116000D02*
X121741000Y-90116000D01*
X129719000Y-90116000D02*
X126971000Y-90116000D01*
X124489000Y-90076000D02*
X121710000Y-90076000D01*
X129750000Y-90076000D02*
X126971000Y-90076000D01*
X124489000Y-90036000D02*
X121680000Y-90036000D01*
X129780000Y-90036000D02*
X126971000Y-90036000D01*
X124489000Y-89996000D02*
X121650000Y-89996000D01*
X129810000Y-89996000D02*
X126971000Y-89996000D01*
X124489000Y-89956000D02*
X121620000Y-89956000D01*
X129840000Y-89956000D02*
X126971000Y-89956000D01*
X124489000Y-89916000D02*
X121592000Y-89916000D01*
X129868000Y-89916000D02*
X126971000Y-89916000D01*
X124489000Y-89876000D02*
X121564000Y-89876000D01*
X129896000Y-89876000D02*
X126971000Y-89876000D01*
X124489000Y-89836000D02*
X121536000Y-89836000D01*
X129924000Y-89836000D02*
X126971000Y-89836000D01*
X124489000Y-89796000D02*
X121509000Y-89796000D01*
X129951000Y-89796000D02*
X126971000Y-89796000D01*
X124489000Y-89756000D02*
X121483000Y-89756000D01*
X129977000Y-89756000D02*
X126971000Y-89756000D01*
X124489000Y-89716000D02*
X121457000Y-89716000D01*
X130003000Y-89716000D02*
X126971000Y-89716000D01*
X124489000Y-89676000D02*
X121432000Y-89676000D01*
X130028000Y-89676000D02*
X126971000Y-89676000D01*
X124489000Y-89636000D02*
X121407000Y-89636000D01*
X130053000Y-89636000D02*
X126971000Y-89636000D01*
X124489000Y-89596000D02*
X121383000Y-89596000D01*
X130077000Y-89596000D02*
X126971000Y-89596000D01*
X124489000Y-89556000D02*
X121359000Y-89556000D01*
X130101000Y-89556000D02*
X126971000Y-89556000D01*
X124489000Y-89516000D02*
X121335000Y-89516000D01*
X130125000Y-89516000D02*
X126971000Y-89516000D01*
X124489000Y-89476000D02*
X121313000Y-89476000D01*
X130147000Y-89476000D02*
X126971000Y-89476000D01*
X124489000Y-89436000D02*
X121290000Y-89436000D01*
X130170000Y-89436000D02*
X126971000Y-89436000D01*
X124489000Y-89396000D02*
X121268000Y-89396000D01*
X130192000Y-89396000D02*
X126971000Y-89396000D01*
X124489000Y-89356000D02*
X121247000Y-89356000D01*
X130213000Y-89356000D02*
X126971000Y-89356000D01*
X124489000Y-89316000D02*
X121226000Y-89316000D01*
X130234000Y-89316000D02*
X126971000Y-89316000D01*
X124489000Y-89276000D02*
X121205000Y-89276000D01*
X130255000Y-89276000D02*
X126971000Y-89276000D01*
X124489000Y-89236000D02*
X121185000Y-89236000D01*
X130275000Y-89236000D02*
X126971000Y-89236000D01*
X124489000Y-89196000D02*
X121166000Y-89196000D01*
X130294000Y-89196000D02*
X126971000Y-89196000D01*
X124489000Y-89156000D02*
X121146000Y-89156000D01*
X130314000Y-89156000D02*
X126971000Y-89156000D01*
X124489000Y-89116000D02*
X121127000Y-89116000D01*
X130333000Y-89116000D02*
X126971000Y-89116000D01*
X124489000Y-89076000D02*
X121109000Y-89076000D01*
X130351000Y-89076000D02*
X126971000Y-89076000D01*
X124489000Y-89036000D02*
X121091000Y-89036000D01*
X130369000Y-89036000D02*
X126971000Y-89036000D01*
X124489000Y-88996000D02*
X121073000Y-88996000D01*
X130387000Y-88996000D02*
X126971000Y-88996000D01*
X124489000Y-88956000D02*
X121056000Y-88956000D01*
X130404000Y-88956000D02*
X126971000Y-88956000D01*
X124489000Y-88916000D02*
X121040000Y-88916000D01*
X130420000Y-88916000D02*
X126971000Y-88916000D01*
X124489000Y-88876000D02*
X121023000Y-88876000D01*
X130437000Y-88876000D02*
X126971000Y-88876000D01*
X124489000Y-88836000D02*
X121007000Y-88836000D01*
X130453000Y-88836000D02*
X126971000Y-88836000D01*
X124489000Y-88796000D02*
X120992000Y-88796000D01*
X130468000Y-88796000D02*
X126971000Y-88796000D01*
X124489000Y-88756000D02*
X120976000Y-88756000D01*
X130484000Y-88756000D02*
X126971000Y-88756000D01*
X124489000Y-88716000D02*
X120962000Y-88716000D01*
X130498000Y-88716000D02*
X126971000Y-88716000D01*
X124489000Y-88676000D02*
X120947000Y-88676000D01*
X130513000Y-88676000D02*
X126971000Y-88676000D01*
X124489000Y-88636000D02*
X120933000Y-88636000D01*
X130527000Y-88636000D02*
X126971000Y-88636000D01*
X124489000Y-88596000D02*
X120919000Y-88596000D01*
X130541000Y-88596000D02*
X126971000Y-88596000D01*
X124489000Y-88556000D02*
X120906000Y-88556000D01*
X130554000Y-88556000D02*
X126971000Y-88556000D01*
X124489000Y-88516000D02*
X120893000Y-88516000D01*
X130567000Y-88516000D02*
X126971000Y-88516000D01*
X124489000Y-88476000D02*
X120880000Y-88476000D01*
X130580000Y-88476000D02*
X126971000Y-88476000D01*
X124489000Y-88436000D02*
X120868000Y-88436000D01*
X130592000Y-88436000D02*
X126971000Y-88436000D01*
X124489000Y-88396000D02*
X120856000Y-88396000D01*
X130604000Y-88396000D02*
X126971000Y-88396000D01*
X124489000Y-88356000D02*
X120845000Y-88356000D01*
X130615000Y-88356000D02*
X126971000Y-88356000D01*
X124489000Y-88316000D02*
X120833000Y-88316000D01*
X130627000Y-88316000D02*
X126971000Y-88316000D01*
X124489000Y-88276000D02*
X120823000Y-88276000D01*
X130637000Y-88276000D02*
X126971000Y-88276000D01*
X124489000Y-88236000D02*
X120812000Y-88236000D01*
X130648000Y-88236000D02*
X126971000Y-88236000D01*
X130658000Y-88196000D02*
X120802000Y-88196000D01*
X130668000Y-88156000D02*
X120792000Y-88156000D01*
X130677000Y-88116000D02*
X120783000Y-88116000D01*
X130686000Y-88076000D02*
X120774000Y-88076000D01*
X130695000Y-88036000D02*
X120765000Y-88036000D01*
X130704000Y-87996000D02*
X120756000Y-87996000D01*
X130712000Y-87956000D02*
X120748000Y-87956000D01*
X130720000Y-87916000D02*
X120740000Y-87916000D01*
X130727000Y-87876000D02*
X120733000Y-87876000D01*
X130734000Y-87836000D02*
X120726000Y-87836000D01*
X130741000Y-87796000D02*
X120719000Y-87796000D01*
X130748000Y-87756000D02*
X120712000Y-87756000D01*
X130754000Y-87716000D02*
X120706000Y-87716000D01*
X130760000Y-87676000D02*
X120700000Y-87676000D01*
X130765000Y-87635000D02*
X120695000Y-87635000D01*
X130770000Y-87595000D02*
X120690000Y-87595000D01*
X130775000Y-87555000D02*
X120685000Y-87555000D01*
X130780000Y-87515000D02*
X120680000Y-87515000D01*
X130784000Y-87475000D02*
X120676000Y-87475000D01*
X130788000Y-87435000D02*
X120672000Y-87435000D01*
X130792000Y-87395000D02*
X120668000Y-87395000D01*
X130795000Y-87355000D02*
X120665000Y-87355000D01*
X130798000Y-87315000D02*
X120662000Y-87315000D01*
X130800000Y-87275000D02*
X120660000Y-87275000D01*
X130803000Y-87235000D02*
X120657000Y-87235000D01*
X130805000Y-87195000D02*
X120655000Y-87195000D01*
X130807000Y-87155000D02*
X120653000Y-87155000D01*
X130808000Y-87115000D02*
X120652000Y-87115000D01*
X130809000Y-87075000D02*
X120651000Y-87075000D01*
X130810000Y-87035000D02*
X120650000Y-87035000D01*
X130810000Y-86995000D02*
X120650000Y-86995000D01*
X130810000Y-86955000D02*
X120650000Y-86955000D01*
X130850000Y-86955000D02*
G75*
G03*
X130850000Y-86955000I-5120000J0D01*
G01*
%TO.C,C4*%
X134660000Y-108752000D02*
G75*
G03*
X134660000Y-108752000I-5120000J0D01*
G01*
X134620000Y-108752000D02*
X124460000Y-108752000D01*
X134620000Y-108792000D02*
X124460000Y-108792000D01*
X134620000Y-108832000D02*
X124460000Y-108832000D01*
X134619000Y-108872000D02*
X124461000Y-108872000D01*
X134618000Y-108912000D02*
X124462000Y-108912000D01*
X134617000Y-108952000D02*
X124463000Y-108952000D01*
X134615000Y-108992000D02*
X124465000Y-108992000D01*
X134613000Y-109032000D02*
X124467000Y-109032000D01*
X134610000Y-109072000D02*
X124470000Y-109072000D01*
X134608000Y-109112000D02*
X124472000Y-109112000D01*
X134605000Y-109152000D02*
X124475000Y-109152000D01*
X134602000Y-109192000D02*
X124478000Y-109192000D01*
X134598000Y-109232000D02*
X124482000Y-109232000D01*
X134594000Y-109272000D02*
X124486000Y-109272000D01*
X134590000Y-109312000D02*
X124490000Y-109312000D01*
X134585000Y-109352000D02*
X124495000Y-109352000D01*
X134580000Y-109392000D02*
X124500000Y-109392000D01*
X134575000Y-109432000D02*
X124505000Y-109432000D01*
X134570000Y-109473000D02*
X124510000Y-109473000D01*
X134564000Y-109513000D02*
X124516000Y-109513000D01*
X134558000Y-109553000D02*
X124522000Y-109553000D01*
X134551000Y-109593000D02*
X124529000Y-109593000D01*
X134544000Y-109633000D02*
X124536000Y-109633000D01*
X134537000Y-109673000D02*
X124543000Y-109673000D01*
X134530000Y-109713000D02*
X124550000Y-109713000D01*
X134522000Y-109753000D02*
X124558000Y-109753000D01*
X134514000Y-109793000D02*
X124566000Y-109793000D01*
X134505000Y-109833000D02*
X124575000Y-109833000D01*
X134496000Y-109873000D02*
X124584000Y-109873000D01*
X134487000Y-109913000D02*
X124593000Y-109913000D01*
X134478000Y-109953000D02*
X124602000Y-109953000D01*
X134468000Y-109993000D02*
X124612000Y-109993000D01*
X134458000Y-110033000D02*
X130781000Y-110033000D01*
X128299000Y-110033000D02*
X124622000Y-110033000D01*
X134447000Y-110073000D02*
X130781000Y-110073000D01*
X128299000Y-110073000D02*
X124633000Y-110073000D01*
X134437000Y-110113000D02*
X130781000Y-110113000D01*
X128299000Y-110113000D02*
X124643000Y-110113000D01*
X134425000Y-110153000D02*
X130781000Y-110153000D01*
X128299000Y-110153000D02*
X124655000Y-110153000D01*
X134414000Y-110193000D02*
X130781000Y-110193000D01*
X128299000Y-110193000D02*
X124666000Y-110193000D01*
X134402000Y-110233000D02*
X130781000Y-110233000D01*
X128299000Y-110233000D02*
X124678000Y-110233000D01*
X134390000Y-110273000D02*
X130781000Y-110273000D01*
X128299000Y-110273000D02*
X124690000Y-110273000D01*
X134377000Y-110313000D02*
X130781000Y-110313000D01*
X128299000Y-110313000D02*
X124703000Y-110313000D01*
X134364000Y-110353000D02*
X130781000Y-110353000D01*
X128299000Y-110353000D02*
X124716000Y-110353000D01*
X134351000Y-110393000D02*
X130781000Y-110393000D01*
X128299000Y-110393000D02*
X124729000Y-110393000D01*
X134337000Y-110433000D02*
X130781000Y-110433000D01*
X128299000Y-110433000D02*
X124743000Y-110433000D01*
X134323000Y-110473000D02*
X130781000Y-110473000D01*
X128299000Y-110473000D02*
X124757000Y-110473000D01*
X134308000Y-110513000D02*
X130781000Y-110513000D01*
X128299000Y-110513000D02*
X124772000Y-110513000D01*
X134294000Y-110553000D02*
X130781000Y-110553000D01*
X128299000Y-110553000D02*
X124786000Y-110553000D01*
X134278000Y-110593000D02*
X130781000Y-110593000D01*
X128299000Y-110593000D02*
X124802000Y-110593000D01*
X134263000Y-110633000D02*
X130781000Y-110633000D01*
X128299000Y-110633000D02*
X124817000Y-110633000D01*
X134247000Y-110673000D02*
X130781000Y-110673000D01*
X128299000Y-110673000D02*
X124833000Y-110673000D01*
X134230000Y-110713000D02*
X130781000Y-110713000D01*
X128299000Y-110713000D02*
X124850000Y-110713000D01*
X134214000Y-110753000D02*
X130781000Y-110753000D01*
X128299000Y-110753000D02*
X124866000Y-110753000D01*
X134197000Y-110793000D02*
X130781000Y-110793000D01*
X128299000Y-110793000D02*
X124883000Y-110793000D01*
X134179000Y-110833000D02*
X130781000Y-110833000D01*
X128299000Y-110833000D02*
X124901000Y-110833000D01*
X134161000Y-110873000D02*
X130781000Y-110873000D01*
X128299000Y-110873000D02*
X124919000Y-110873000D01*
X134143000Y-110913000D02*
X130781000Y-110913000D01*
X128299000Y-110913000D02*
X124937000Y-110913000D01*
X134124000Y-110953000D02*
X130781000Y-110953000D01*
X128299000Y-110953000D02*
X124956000Y-110953000D01*
X134104000Y-110993000D02*
X130781000Y-110993000D01*
X128299000Y-110993000D02*
X124976000Y-110993000D01*
X134085000Y-111033000D02*
X130781000Y-111033000D01*
X128299000Y-111033000D02*
X124995000Y-111033000D01*
X134065000Y-111073000D02*
X130781000Y-111073000D01*
X128299000Y-111073000D02*
X125015000Y-111073000D01*
X134044000Y-111113000D02*
X130781000Y-111113000D01*
X128299000Y-111113000D02*
X125036000Y-111113000D01*
X134023000Y-111153000D02*
X130781000Y-111153000D01*
X128299000Y-111153000D02*
X125057000Y-111153000D01*
X134002000Y-111193000D02*
X130781000Y-111193000D01*
X128299000Y-111193000D02*
X125078000Y-111193000D01*
X133980000Y-111233000D02*
X130781000Y-111233000D01*
X128299000Y-111233000D02*
X125100000Y-111233000D01*
X133957000Y-111273000D02*
X130781000Y-111273000D01*
X128299000Y-111273000D02*
X125123000Y-111273000D01*
X133935000Y-111313000D02*
X130781000Y-111313000D01*
X128299000Y-111313000D02*
X125145000Y-111313000D01*
X133911000Y-111353000D02*
X130781000Y-111353000D01*
X128299000Y-111353000D02*
X125169000Y-111353000D01*
X133887000Y-111393000D02*
X130781000Y-111393000D01*
X128299000Y-111393000D02*
X125193000Y-111393000D01*
X133863000Y-111433000D02*
X130781000Y-111433000D01*
X128299000Y-111433000D02*
X125217000Y-111433000D01*
X133838000Y-111473000D02*
X130781000Y-111473000D01*
X128299000Y-111473000D02*
X125242000Y-111473000D01*
X133813000Y-111513000D02*
X130781000Y-111513000D01*
X128299000Y-111513000D02*
X125267000Y-111513000D01*
X133787000Y-111553000D02*
X130781000Y-111553000D01*
X128299000Y-111553000D02*
X125293000Y-111553000D01*
X133761000Y-111593000D02*
X130781000Y-111593000D01*
X128299000Y-111593000D02*
X125319000Y-111593000D01*
X133734000Y-111633000D02*
X130781000Y-111633000D01*
X128299000Y-111633000D02*
X125346000Y-111633000D01*
X133706000Y-111673000D02*
X130781000Y-111673000D01*
X128299000Y-111673000D02*
X125374000Y-111673000D01*
X133678000Y-111713000D02*
X130781000Y-111713000D01*
X128299000Y-111713000D02*
X125402000Y-111713000D01*
X133650000Y-111753000D02*
X130781000Y-111753000D01*
X128299000Y-111753000D02*
X125430000Y-111753000D01*
X133620000Y-111793000D02*
X130781000Y-111793000D01*
X128299000Y-111793000D02*
X125460000Y-111793000D01*
X133590000Y-111833000D02*
X130781000Y-111833000D01*
X128299000Y-111833000D02*
X125490000Y-111833000D01*
X133560000Y-111873000D02*
X130781000Y-111873000D01*
X128299000Y-111873000D02*
X125520000Y-111873000D01*
X133529000Y-111913000D02*
X130781000Y-111913000D01*
X128299000Y-111913000D02*
X125551000Y-111913000D01*
X133497000Y-111953000D02*
X130781000Y-111953000D01*
X128299000Y-111953000D02*
X125583000Y-111953000D01*
X133465000Y-111993000D02*
X130781000Y-111993000D01*
X128299000Y-111993000D02*
X125615000Y-111993000D01*
X133432000Y-112033000D02*
X130781000Y-112033000D01*
X128299000Y-112033000D02*
X125648000Y-112033000D01*
X133398000Y-112073000D02*
X130781000Y-112073000D01*
X128299000Y-112073000D02*
X125682000Y-112073000D01*
X133364000Y-112113000D02*
X130781000Y-112113000D01*
X128299000Y-112113000D02*
X125716000Y-112113000D01*
X133329000Y-112153000D02*
X130781000Y-112153000D01*
X128299000Y-112153000D02*
X125751000Y-112153000D01*
X133293000Y-112193000D02*
X130781000Y-112193000D01*
X128299000Y-112193000D02*
X125787000Y-112193000D01*
X133256000Y-112233000D02*
X130781000Y-112233000D01*
X128299000Y-112233000D02*
X125824000Y-112233000D01*
X133219000Y-112273000D02*
X130781000Y-112273000D01*
X128299000Y-112273000D02*
X125861000Y-112273000D01*
X133180000Y-112313000D02*
X130781000Y-112313000D01*
X128299000Y-112313000D02*
X125900000Y-112313000D01*
X133141000Y-112353000D02*
X130781000Y-112353000D01*
X128299000Y-112353000D02*
X125939000Y-112353000D01*
X133101000Y-112393000D02*
X130781000Y-112393000D01*
X128299000Y-112393000D02*
X125979000Y-112393000D01*
X133060000Y-112433000D02*
X130781000Y-112433000D01*
X128299000Y-112433000D02*
X126020000Y-112433000D01*
X133018000Y-112473000D02*
X130781000Y-112473000D01*
X128299000Y-112473000D02*
X126062000Y-112473000D01*
X132976000Y-112513000D02*
X126104000Y-112513000D01*
X132932000Y-112553000D02*
X126148000Y-112553000D01*
X132887000Y-112593000D02*
X126193000Y-112593000D01*
X132841000Y-112633000D02*
X126239000Y-112633000D01*
X132794000Y-112673000D02*
X126286000Y-112673000D01*
X132746000Y-112713000D02*
X126334000Y-112713000D01*
X132696000Y-112753000D02*
X126384000Y-112753000D01*
X132646000Y-112793000D02*
X126434000Y-112793000D01*
X132594000Y-112833000D02*
X126486000Y-112833000D01*
X132540000Y-112873000D02*
X126540000Y-112873000D01*
X132485000Y-112913000D02*
X126595000Y-112913000D01*
X132429000Y-112953000D02*
X126651000Y-112953000D01*
X132370000Y-112993000D02*
X126710000Y-112993000D01*
X132310000Y-113033000D02*
X126770000Y-113033000D01*
X132249000Y-113073000D02*
X126831000Y-113073000D01*
X132185000Y-113113000D02*
X126895000Y-113113000D01*
X132119000Y-113153000D02*
X126961000Y-113153000D01*
X132050000Y-113193000D02*
X127030000Y-113193000D01*
X131979000Y-113233000D02*
X127101000Y-113233000D01*
X131905000Y-113273000D02*
X127175000Y-113273000D01*
X131829000Y-113313000D02*
X127251000Y-113313000D01*
X131749000Y-113353000D02*
X127331000Y-113353000D01*
X131665000Y-113393000D02*
X127415000Y-113393000D01*
X131577000Y-113433000D02*
X127503000Y-113433000D01*
X131484000Y-113473000D02*
X127596000Y-113473000D01*
X131386000Y-113513000D02*
X127694000Y-113513000D01*
X131282000Y-113553000D02*
X127798000Y-113553000D01*
X131170000Y-113593000D02*
X127910000Y-113593000D01*
X131050000Y-113633000D02*
X128030000Y-113633000D01*
X130918000Y-113673000D02*
X128162000Y-113673000D01*
X130770000Y-113713000D02*
X128310000Y-113713000D01*
X130602000Y-113753000D02*
X128478000Y-113753000D01*
X130402000Y-113793000D02*
X128678000Y-113793000D01*
X130139000Y-113833000D02*
X128941000Y-113833000D01*
X132415000Y-103272354D02*
X132415000Y-104272354D01*
X132915000Y-103772354D02*
X131915000Y-103772354D01*
%TO.C,J1*%
X17720000Y-141605000D02*
X20380000Y-141605000D01*
X17720000Y-141605000D02*
X17720000Y-146745000D01*
X17720000Y-146745000D02*
X20380000Y-146745000D01*
X20380000Y-141605000D02*
X20380000Y-146745000D01*
X20380000Y-139005000D02*
X20380000Y-140335000D01*
X19050000Y-139005000D02*
X20380000Y-139005000D01*
%TO.C,J2*%
X115002000Y-139446000D02*
X117662000Y-139446000D01*
X115002000Y-139446000D02*
X115002000Y-142046000D01*
X115002000Y-142046000D02*
X117662000Y-142046000D01*
X117662000Y-139446000D02*
X117662000Y-142046000D01*
X117662000Y-136846000D02*
X117662000Y-138176000D01*
X116332000Y-136846000D02*
X117662000Y-136846000D01*
%TO.C,J3*%
X26035000Y-139005000D02*
X27365000Y-139005000D01*
X27365000Y-139005000D02*
X27365000Y-140335000D01*
X27365000Y-141605000D02*
X27365000Y-146745000D01*
X24705000Y-146745000D02*
X27365000Y-146745000D01*
X24705000Y-141605000D02*
X24705000Y-146745000D01*
X24705000Y-141605000D02*
X27365000Y-141605000D01*
%TO.C,J4*%
X31690000Y-141605000D02*
X34350000Y-141605000D01*
X31690000Y-141605000D02*
X31690000Y-146745000D01*
X31690000Y-146745000D02*
X34350000Y-146745000D01*
X34350000Y-141605000D02*
X34350000Y-146745000D01*
X34350000Y-139005000D02*
X34350000Y-140335000D01*
X33020000Y-139005000D02*
X34350000Y-139005000D01*
%TO.C,J5*%
X150135000Y-168910000D02*
G75*
G03*
X150135000Y-168910000I-2180000J0D01*
G01*
X145055000Y-168910000D02*
G75*
G03*
X145055000Y-168910000I-2180000J0D01*
G01*
X150555000Y-164110000D02*
X140275000Y-164110000D01*
X150555000Y-166610000D02*
X140275000Y-166610000D01*
X150555000Y-172810000D02*
X140275000Y-172810000D01*
X150555000Y-174870000D02*
X140275000Y-174870000D01*
X150555000Y-163550000D02*
X140275000Y-163550000D01*
X150555000Y-174870000D02*
X150555000Y-163550000D01*
X140275000Y-174870000D02*
X140275000Y-163550000D01*
X146301000Y-170298000D02*
X146408000Y-170191000D01*
X149237000Y-167363000D02*
X149343000Y-167256000D01*
X146567000Y-170564000D02*
X146674000Y-170457000D01*
X149503000Y-167629000D02*
X149609000Y-167522000D01*
X141221000Y-170298000D02*
X141616000Y-169902000D01*
X143882000Y-167636000D02*
X144262000Y-167256000D01*
X141487000Y-170564000D02*
X141867000Y-170184000D01*
X144133000Y-167918000D02*
X144528000Y-167522000D01*
X150795000Y-164050000D02*
X150795000Y-163310000D01*
X150795000Y-163310000D02*
X150295000Y-163310000D01*
%TO.C,J6*%
X119955000Y-139700000D02*
X122615000Y-139700000D01*
X119955000Y-139700000D02*
X119955000Y-157540000D01*
X119955000Y-157540000D02*
X122615000Y-157540000D01*
X122615000Y-139700000D02*
X122615000Y-157540000D01*
X122615000Y-137100000D02*
X122615000Y-138430000D01*
X121285000Y-137100000D02*
X122615000Y-137100000D01*
%TO.C,J7*%
X133985000Y-137100000D02*
X135315000Y-137100000D01*
X135315000Y-137100000D02*
X135315000Y-138430000D01*
X135315000Y-139700000D02*
X135315000Y-157540000D01*
X132655000Y-157540000D02*
X135315000Y-157540000D01*
X132655000Y-139700000D02*
X132655000Y-157540000D01*
X132655000Y-139700000D02*
X135315000Y-139700000D01*
%TO.C,J8*%
X122622000Y-157540000D02*
X125282000Y-157540000D01*
X122622000Y-157420000D02*
X122622000Y-157540000D01*
X125282000Y-157420000D02*
X125282000Y-157540000D01*
X125282000Y-154880000D02*
X125282000Y-156210000D01*
X123952000Y-154880000D02*
X125282000Y-154880000D01*
%TO.C,J12*%
X142515000Y-85090000D02*
G75*
G03*
X142515000Y-85090000I-2180000J0D01*
G01*
X137435000Y-85090000D02*
G75*
G03*
X137435000Y-85090000I-2180000J0D01*
G01*
X142935000Y-80290000D02*
X132655000Y-80290000D01*
X142935000Y-82790000D02*
X132655000Y-82790000D01*
X142935000Y-88990000D02*
X132655000Y-88990000D01*
X142935000Y-91050000D02*
X132655000Y-91050000D01*
X142935000Y-79730000D02*
X132655000Y-79730000D01*
X142935000Y-91050000D02*
X142935000Y-79730000D01*
X132655000Y-91050000D02*
X132655000Y-79730000D01*
X138681000Y-86478000D02*
X138788000Y-86371000D01*
X141617000Y-83543000D02*
X141723000Y-83436000D01*
X138947000Y-86744000D02*
X139054000Y-86637000D01*
X141883000Y-83809000D02*
X141989000Y-83702000D01*
X133601000Y-86478000D02*
X133996000Y-86082000D01*
X136262000Y-83816000D02*
X136642000Y-83436000D01*
X133867000Y-86744000D02*
X134247000Y-86364000D01*
X136513000Y-84098000D02*
X136908000Y-83702000D01*
X143175000Y-80230000D02*
X143175000Y-79490000D01*
X143175000Y-79490000D02*
X142675000Y-79490000D01*
%TO.C,J15*%
X141775000Y-99000000D02*
X141775000Y-106740000D01*
X141775000Y-106740000D02*
X144435000Y-106740000D01*
X144435000Y-106740000D02*
X144435000Y-99000000D01*
X144435000Y-99000000D02*
X141775000Y-99000000D01*
X144435000Y-99950000D02*
X150435000Y-99950000D01*
X150435000Y-99950000D02*
X150435000Y-100710000D01*
X150435000Y-100710000D02*
X144435000Y-100710000D01*
X144435000Y-100010000D02*
X150435000Y-100010000D01*
X144435000Y-100130000D02*
X150435000Y-100130000D01*
X144435000Y-100250000D02*
X150435000Y-100250000D01*
X144435000Y-100370000D02*
X150435000Y-100370000D01*
X144435000Y-100490000D02*
X150435000Y-100490000D01*
X144435000Y-100610000D02*
X150435000Y-100610000D01*
X141445000Y-99950000D02*
X141775000Y-99950000D01*
X141445000Y-100710000D02*
X141775000Y-100710000D01*
X141775000Y-101600000D02*
X144435000Y-101600000D01*
X144435000Y-102490000D02*
X150435000Y-102490000D01*
X150435000Y-102490000D02*
X150435000Y-103250000D01*
X150435000Y-103250000D02*
X144435000Y-103250000D01*
X141377929Y-102490000D02*
X141775000Y-102490000D01*
X141377929Y-103250000D02*
X141775000Y-103250000D01*
X141775000Y-104140000D02*
X144435000Y-104140000D01*
X144435000Y-105030000D02*
X150435000Y-105030000D01*
X150435000Y-105030000D02*
X150435000Y-105790000D01*
X150435000Y-105790000D02*
X144435000Y-105790000D01*
X141377929Y-105030000D02*
X141775000Y-105030000D01*
X141377929Y-105790000D02*
X141775000Y-105790000D01*
X139065000Y-100330000D02*
X139065000Y-99060000D01*
X139065000Y-99060000D02*
X140335000Y-99060000D01*
%TO.C,J16*%
X139065000Y-111125000D02*
X140335000Y-111125000D01*
X139065000Y-112395000D02*
X139065000Y-111125000D01*
X141377929Y-117855000D02*
X141775000Y-117855000D01*
X141377929Y-117095000D02*
X141775000Y-117095000D01*
X150435000Y-117855000D02*
X144435000Y-117855000D01*
X150435000Y-117095000D02*
X150435000Y-117855000D01*
X144435000Y-117095000D02*
X150435000Y-117095000D01*
X141775000Y-116205000D02*
X144435000Y-116205000D01*
X141377929Y-115315000D02*
X141775000Y-115315000D01*
X141377929Y-114555000D02*
X141775000Y-114555000D01*
X150435000Y-115315000D02*
X144435000Y-115315000D01*
X150435000Y-114555000D02*
X150435000Y-115315000D01*
X144435000Y-114555000D02*
X150435000Y-114555000D01*
X141775000Y-113665000D02*
X144435000Y-113665000D01*
X141445000Y-112775000D02*
X141775000Y-112775000D01*
X141445000Y-112015000D02*
X141775000Y-112015000D01*
X144435000Y-112675000D02*
X150435000Y-112675000D01*
X144435000Y-112555000D02*
X150435000Y-112555000D01*
X144435000Y-112435000D02*
X150435000Y-112435000D01*
X144435000Y-112315000D02*
X150435000Y-112315000D01*
X144435000Y-112195000D02*
X150435000Y-112195000D01*
X144435000Y-112075000D02*
X150435000Y-112075000D01*
X150435000Y-112775000D02*
X144435000Y-112775000D01*
X150435000Y-112015000D02*
X150435000Y-112775000D01*
X144435000Y-112015000D02*
X150435000Y-112015000D01*
X144435000Y-111065000D02*
X141775000Y-111065000D01*
X144435000Y-118805000D02*
X144435000Y-111065000D01*
X141775000Y-118805000D02*
X144435000Y-118805000D01*
X141775000Y-111065000D02*
X141775000Y-118805000D01*
%TO.C,J17*%
X141545000Y-139700000D02*
X144205000Y-139700000D01*
X141545000Y-139700000D02*
X141545000Y-147380000D01*
X141545000Y-147380000D02*
X144205000Y-147380000D01*
X144205000Y-139700000D02*
X144205000Y-147380000D01*
X144205000Y-137100000D02*
X144205000Y-138430000D01*
X142875000Y-137100000D02*
X144205000Y-137100000D01*
%TO.C,J18*%
X116145000Y-124400000D02*
X117475000Y-124400000D01*
X116145000Y-125730000D02*
X116145000Y-124400000D01*
X116145000Y-127000000D02*
X118805000Y-127000000D01*
X118805000Y-127000000D02*
X118805000Y-132140000D01*
X116145000Y-127000000D02*
X116145000Y-132140000D01*
X116145000Y-132140000D02*
X118805000Y-132140000D01*
%TO.C,J19*%
X72055000Y-166485000D02*
X71555000Y-166485000D01*
X72055000Y-167225000D02*
X72055000Y-166485000D01*
X65393000Y-171093000D02*
X65788000Y-170697000D01*
X62747000Y-173739000D02*
X63127000Y-173359000D01*
X65142000Y-170811000D02*
X65522000Y-170431000D01*
X62481000Y-173473000D02*
X62876000Y-173077000D01*
X70763000Y-170804000D02*
X70869000Y-170697000D01*
X67827000Y-173739000D02*
X67934000Y-173632000D01*
X70497000Y-170538000D02*
X70603000Y-170431000D01*
X67561000Y-173473000D02*
X67668000Y-173366000D01*
X61535000Y-178045000D02*
X61535000Y-166725000D01*
X71815000Y-178045000D02*
X71815000Y-166725000D01*
X71815000Y-166725000D02*
X61535000Y-166725000D01*
X71815000Y-178045000D02*
X61535000Y-178045000D01*
X71815000Y-175985000D02*
X61535000Y-175985000D01*
X71815000Y-169785000D02*
X61535000Y-169785000D01*
X71815000Y-167285000D02*
X61535000Y-167285000D01*
X66315000Y-172085000D02*
G75*
G03*
X66315000Y-172085000I-2180000J0D01*
G01*
X71395000Y-172085000D02*
G75*
G03*
X71395000Y-172085000I-2180000J0D01*
G01*
%TO.C,J20*%
X130115000Y-132140000D02*
X132775000Y-132140000D01*
X130115000Y-127000000D02*
X130115000Y-132140000D01*
X132775000Y-127000000D02*
X132775000Y-132140000D01*
X130115000Y-127000000D02*
X132775000Y-127000000D01*
X130115000Y-125730000D02*
X130115000Y-124400000D01*
X130115000Y-124400000D02*
X131445000Y-124400000D01*
%TO.C,J23*%
X44450000Y-170180000D02*
X54610000Y-170180000D01*
X44450000Y-168910000D02*
X44450000Y-176530000D01*
X44450000Y-176530000D02*
X54610000Y-176530000D01*
X54610000Y-176530000D02*
X54610000Y-168910000D01*
X54610000Y-168910000D02*
X44450000Y-168910000D01*
%TO.C,J24*%
X40640000Y-168910000D02*
X30480000Y-168910000D01*
X40640000Y-176530000D02*
X40640000Y-168910000D01*
X30480000Y-176530000D02*
X40640000Y-176530000D01*
X30480000Y-168910000D02*
X30480000Y-176530000D01*
X30480000Y-170180000D02*
X40640000Y-170180000D01*
%TO.C,J25*%
X16510000Y-170180000D02*
X26670000Y-170180000D01*
X16510000Y-168910000D02*
X16510000Y-176530000D01*
X16510000Y-176530000D02*
X26670000Y-176530000D01*
X26670000Y-176530000D02*
X26670000Y-168910000D01*
X26670000Y-168910000D02*
X16510000Y-168910000D01*
%TO.C,J26*%
X141775000Y-124400000D02*
X141775000Y-132140000D01*
X141775000Y-132140000D02*
X144435000Y-132140000D01*
X144435000Y-132140000D02*
X144435000Y-124400000D01*
X144435000Y-124400000D02*
X141775000Y-124400000D01*
X144435000Y-125350000D02*
X150435000Y-125350000D01*
X150435000Y-125350000D02*
X150435000Y-126110000D01*
X150435000Y-126110000D02*
X144435000Y-126110000D01*
X144435000Y-125410000D02*
X150435000Y-125410000D01*
X144435000Y-125530000D02*
X150435000Y-125530000D01*
X144435000Y-125650000D02*
X150435000Y-125650000D01*
X144435000Y-125770000D02*
X150435000Y-125770000D01*
X144435000Y-125890000D02*
X150435000Y-125890000D01*
X144435000Y-126010000D02*
X150435000Y-126010000D01*
X141445000Y-125350000D02*
X141775000Y-125350000D01*
X141445000Y-126110000D02*
X141775000Y-126110000D01*
X141775000Y-127000000D02*
X144435000Y-127000000D01*
X144435000Y-127890000D02*
X150435000Y-127890000D01*
X150435000Y-127890000D02*
X150435000Y-128650000D01*
X150435000Y-128650000D02*
X144435000Y-128650000D01*
X141377929Y-127890000D02*
X141775000Y-127890000D01*
X141377929Y-128650000D02*
X141775000Y-128650000D01*
X141775000Y-129540000D02*
X144435000Y-129540000D01*
X144435000Y-130430000D02*
X150435000Y-130430000D01*
X150435000Y-130430000D02*
X150435000Y-131190000D01*
X150435000Y-131190000D02*
X144435000Y-131190000D01*
X141377929Y-130430000D02*
X141775000Y-130430000D01*
X141377929Y-131190000D02*
X141775000Y-131190000D01*
X139065000Y-125730000D02*
X139065000Y-124460000D01*
X139065000Y-124460000D02*
X140335000Y-124460000D01*
%TO.C,Q1*%
X38195000Y-152995000D02*
X38195000Y-163235000D01*
X33554000Y-152995000D02*
X33554000Y-163235000D01*
X38195000Y-152995000D02*
X33554000Y-152995000D01*
X38195000Y-163235000D02*
X33554000Y-163235000D01*
X36685000Y-152995000D02*
X36685000Y-163235000D01*
X38195000Y-156265000D02*
X36685000Y-156265000D01*
X38195000Y-159966000D02*
X36685000Y-159966000D01*
%TO.C,Q2*%
X26765000Y-159966000D02*
X25255000Y-159966000D01*
X26765000Y-156265000D02*
X25255000Y-156265000D01*
X25255000Y-152995000D02*
X25255000Y-163235000D01*
X26765000Y-163235000D02*
X22124000Y-163235000D01*
X26765000Y-152995000D02*
X22124000Y-152995000D01*
X22124000Y-152995000D02*
X22124000Y-163235000D01*
X26765000Y-152995000D02*
X26765000Y-163235000D01*
%TO.C,Q3*%
X15335000Y-152995000D02*
X15335000Y-163235000D01*
X10694000Y-152995000D02*
X10694000Y-163235000D01*
X15335000Y-152995000D02*
X10694000Y-152995000D01*
X15335000Y-163235000D02*
X10694000Y-163235000D01*
X13825000Y-152995000D02*
X13825000Y-163235000D01*
X15335000Y-156265000D02*
X13825000Y-156265000D01*
X15335000Y-159966000D02*
X13825000Y-159966000D01*
%TO.C,R2*%
X42645000Y-157385000D02*
X39905000Y-157385000D01*
X39905000Y-157385000D02*
X39905000Y-163925000D01*
X39905000Y-163925000D02*
X42645000Y-163925000D01*
X42645000Y-163925000D02*
X42645000Y-157385000D01*
X41275000Y-156615000D02*
X41275000Y-157385000D01*
X41275000Y-164695000D02*
X41275000Y-163925000D01*
%TO.C,R3*%
X29845000Y-164695000D02*
X29845000Y-163925000D01*
X29845000Y-156615000D02*
X29845000Y-157385000D01*
X31215000Y-163925000D02*
X31215000Y-157385000D01*
X28475000Y-163925000D02*
X31215000Y-163925000D01*
X28475000Y-157385000D02*
X28475000Y-163925000D01*
X31215000Y-157385000D02*
X28475000Y-157385000D01*
%TO.C,R4*%
X19785000Y-157385000D02*
X17045000Y-157385000D01*
X17045000Y-157385000D02*
X17045000Y-163925000D01*
X17045000Y-163925000D02*
X19785000Y-163925000D01*
X19785000Y-163925000D02*
X19785000Y-157385000D01*
X18415000Y-156615000D02*
X18415000Y-157385000D01*
X18415000Y-164695000D02*
X18415000Y-163925000D01*
%TO.C,U1*%
X115450000Y-92670000D02*
X115450000Y-102910000D01*
X131340000Y-92670000D02*
X131340000Y-102910000D01*
X131340000Y-92670000D02*
X115450000Y-92670000D01*
X131340000Y-102910000D02*
X115450000Y-102910000D01*
X115450000Y-95250000D02*
X112910000Y-95250000D01*
X115450000Y-97790000D02*
X112910000Y-97790000D01*
X115450000Y-100330000D02*
X112910000Y-100330000D01*
%TO.C,C2*%
X140475354Y-152200000D02*
X140475354Y-153200000D01*
X139975354Y-152700000D02*
X140975354Y-152700000D01*
X150536000Y-154976000D02*
X150536000Y-156174000D01*
X150496000Y-154713000D02*
X150496000Y-156437000D01*
X150456000Y-154513000D02*
X150456000Y-156637000D01*
X150416000Y-154345000D02*
X150416000Y-156805000D01*
X150376000Y-154197000D02*
X150376000Y-156953000D01*
X150336000Y-154065000D02*
X150336000Y-157085000D01*
X150296000Y-153945000D02*
X150296000Y-157205000D01*
X150256000Y-153833000D02*
X150256000Y-157317000D01*
X150216000Y-153729000D02*
X150216000Y-157421000D01*
X150176000Y-153631000D02*
X150176000Y-157519000D01*
X150136000Y-153538000D02*
X150136000Y-157612000D01*
X150096000Y-153450000D02*
X150096000Y-157700000D01*
X150056000Y-153366000D02*
X150056000Y-157784000D01*
X150016000Y-153286000D02*
X150016000Y-157864000D01*
X149976000Y-153210000D02*
X149976000Y-157940000D01*
X149936000Y-153136000D02*
X149936000Y-158014000D01*
X149896000Y-153065000D02*
X149896000Y-158085000D01*
X149856000Y-152996000D02*
X149856000Y-158154000D01*
X149816000Y-152930000D02*
X149816000Y-158220000D01*
X149776000Y-152866000D02*
X149776000Y-158284000D01*
X149736000Y-152805000D02*
X149736000Y-158345000D01*
X149696000Y-152745000D02*
X149696000Y-158405000D01*
X149656000Y-152686000D02*
X149656000Y-158464000D01*
X149616000Y-152630000D02*
X149616000Y-158520000D01*
X149576000Y-152575000D02*
X149576000Y-158575000D01*
X149536000Y-152521000D02*
X149536000Y-158629000D01*
X149496000Y-152469000D02*
X149496000Y-158681000D01*
X149456000Y-152419000D02*
X149456000Y-158731000D01*
X149416000Y-152369000D02*
X149416000Y-158781000D01*
X149376000Y-152321000D02*
X149376000Y-158829000D01*
X149336000Y-152274000D02*
X149336000Y-158876000D01*
X149296000Y-152228000D02*
X149296000Y-158922000D01*
X149256000Y-152183000D02*
X149256000Y-158967000D01*
X149216000Y-152139000D02*
X149216000Y-159011000D01*
X149176000Y-156816000D02*
X149176000Y-159053000D01*
X149176000Y-152097000D02*
X149176000Y-154334000D01*
X149136000Y-156816000D02*
X149136000Y-159095000D01*
X149136000Y-152055000D02*
X149136000Y-154334000D01*
X149096000Y-156816000D02*
X149096000Y-159136000D01*
X149096000Y-152014000D02*
X149096000Y-154334000D01*
X149056000Y-156816000D02*
X149056000Y-159176000D01*
X149056000Y-151974000D02*
X149056000Y-154334000D01*
X149016000Y-156816000D02*
X149016000Y-159215000D01*
X149016000Y-151935000D02*
X149016000Y-154334000D01*
X148976000Y-156816000D02*
X148976000Y-159254000D01*
X148976000Y-151896000D02*
X148976000Y-154334000D01*
X148936000Y-156816000D02*
X148936000Y-159291000D01*
X148936000Y-151859000D02*
X148936000Y-154334000D01*
X148896000Y-156816000D02*
X148896000Y-159328000D01*
X148896000Y-151822000D02*
X148896000Y-154334000D01*
X148856000Y-156816000D02*
X148856000Y-159364000D01*
X148856000Y-151786000D02*
X148856000Y-154334000D01*
X148816000Y-156816000D02*
X148816000Y-159399000D01*
X148816000Y-151751000D02*
X148816000Y-154334000D01*
X148776000Y-156816000D02*
X148776000Y-159433000D01*
X148776000Y-151717000D02*
X148776000Y-154334000D01*
X148736000Y-156816000D02*
X148736000Y-159467000D01*
X148736000Y-151683000D02*
X148736000Y-154334000D01*
X148696000Y-156816000D02*
X148696000Y-159500000D01*
X148696000Y-151650000D02*
X148696000Y-154334000D01*
X148656000Y-156816000D02*
X148656000Y-159532000D01*
X148656000Y-151618000D02*
X148656000Y-154334000D01*
X148616000Y-156816000D02*
X148616000Y-159564000D01*
X148616000Y-151586000D02*
X148616000Y-154334000D01*
X148576000Y-156816000D02*
X148576000Y-159595000D01*
X148576000Y-151555000D02*
X148576000Y-154334000D01*
X148536000Y-156816000D02*
X148536000Y-159625000D01*
X148536000Y-151525000D02*
X148536000Y-154334000D01*
X148496000Y-156816000D02*
X148496000Y-159655000D01*
X148496000Y-151495000D02*
X148496000Y-154334000D01*
X148456000Y-156816000D02*
X148456000Y-159685000D01*
X148456000Y-151465000D02*
X148456000Y-154334000D01*
X148416000Y-156816000D02*
X148416000Y-159713000D01*
X148416000Y-151437000D02*
X148416000Y-154334000D01*
X148376000Y-156816000D02*
X148376000Y-159741000D01*
X148376000Y-151409000D02*
X148376000Y-154334000D01*
X148336000Y-156816000D02*
X148336000Y-159769000D01*
X148336000Y-151381000D02*
X148336000Y-154334000D01*
X148296000Y-156816000D02*
X148296000Y-159796000D01*
X148296000Y-151354000D02*
X148296000Y-154334000D01*
X148256000Y-156816000D02*
X148256000Y-159822000D01*
X148256000Y-151328000D02*
X148256000Y-154334000D01*
X148216000Y-156816000D02*
X148216000Y-159848000D01*
X148216000Y-151302000D02*
X148216000Y-154334000D01*
X148176000Y-156816000D02*
X148176000Y-159873000D01*
X148176000Y-151277000D02*
X148176000Y-154334000D01*
X148136000Y-156816000D02*
X148136000Y-159898000D01*
X148136000Y-151252000D02*
X148136000Y-154334000D01*
X148096000Y-156816000D02*
X148096000Y-159922000D01*
X148096000Y-151228000D02*
X148096000Y-154334000D01*
X148056000Y-156816000D02*
X148056000Y-159946000D01*
X148056000Y-151204000D02*
X148056000Y-154334000D01*
X148016000Y-156816000D02*
X148016000Y-159970000D01*
X148016000Y-151180000D02*
X148016000Y-154334000D01*
X147976000Y-156816000D02*
X147976000Y-159992000D01*
X147976000Y-151158000D02*
X147976000Y-154334000D01*
X147936000Y-156816000D02*
X147936000Y-160015000D01*
X147936000Y-151135000D02*
X147936000Y-154334000D01*
X147896000Y-156816000D02*
X147896000Y-160037000D01*
X147896000Y-151113000D02*
X147896000Y-154334000D01*
X147856000Y-156816000D02*
X147856000Y-160058000D01*
X147856000Y-151092000D02*
X147856000Y-154334000D01*
X147816000Y-156816000D02*
X147816000Y-160079000D01*
X147816000Y-151071000D02*
X147816000Y-154334000D01*
X147776000Y-156816000D02*
X147776000Y-160100000D01*
X147776000Y-151050000D02*
X147776000Y-154334000D01*
X147736000Y-156816000D02*
X147736000Y-160120000D01*
X147736000Y-151030000D02*
X147736000Y-154334000D01*
X147696000Y-156816000D02*
X147696000Y-160139000D01*
X147696000Y-151011000D02*
X147696000Y-154334000D01*
X147656000Y-156816000D02*
X147656000Y-160159000D01*
X147656000Y-150991000D02*
X147656000Y-154334000D01*
X147616000Y-156816000D02*
X147616000Y-160178000D01*
X147616000Y-150972000D02*
X147616000Y-154334000D01*
X147576000Y-156816000D02*
X147576000Y-160196000D01*
X147576000Y-150954000D02*
X147576000Y-154334000D01*
X147536000Y-156816000D02*
X147536000Y-160214000D01*
X147536000Y-150936000D02*
X147536000Y-154334000D01*
X147496000Y-156816000D02*
X147496000Y-160232000D01*
X147496000Y-150918000D02*
X147496000Y-154334000D01*
X147456000Y-156816000D02*
X147456000Y-160249000D01*
X147456000Y-150901000D02*
X147456000Y-154334000D01*
X147416000Y-156816000D02*
X147416000Y-160265000D01*
X147416000Y-150885000D02*
X147416000Y-154334000D01*
X147376000Y-156816000D02*
X147376000Y-160282000D01*
X147376000Y-150868000D02*
X147376000Y-154334000D01*
X147336000Y-156816000D02*
X147336000Y-160298000D01*
X147336000Y-150852000D02*
X147336000Y-154334000D01*
X147296000Y-156816000D02*
X147296000Y-160313000D01*
X147296000Y-150837000D02*
X147296000Y-154334000D01*
X147256000Y-156816000D02*
X147256000Y-160329000D01*
X147256000Y-150821000D02*
X147256000Y-154334000D01*
X147216000Y-156816000D02*
X147216000Y-160343000D01*
X147216000Y-150807000D02*
X147216000Y-154334000D01*
X147176000Y-156816000D02*
X147176000Y-160358000D01*
X147176000Y-150792000D02*
X147176000Y-154334000D01*
X147136000Y-156816000D02*
X147136000Y-160372000D01*
X147136000Y-150778000D02*
X147136000Y-154334000D01*
X147096000Y-156816000D02*
X147096000Y-160386000D01*
X147096000Y-150764000D02*
X147096000Y-154334000D01*
X147056000Y-156816000D02*
X147056000Y-160399000D01*
X147056000Y-150751000D02*
X147056000Y-154334000D01*
X147016000Y-156816000D02*
X147016000Y-160412000D01*
X147016000Y-150738000D02*
X147016000Y-154334000D01*
X146976000Y-156816000D02*
X146976000Y-160425000D01*
X146976000Y-150725000D02*
X146976000Y-154334000D01*
X146936000Y-156816000D02*
X146936000Y-160437000D01*
X146936000Y-150713000D02*
X146936000Y-154334000D01*
X146896000Y-156816000D02*
X146896000Y-160449000D01*
X146896000Y-150701000D02*
X146896000Y-154334000D01*
X146856000Y-156816000D02*
X146856000Y-160460000D01*
X146856000Y-150690000D02*
X146856000Y-154334000D01*
X146816000Y-156816000D02*
X146816000Y-160472000D01*
X146816000Y-150678000D02*
X146816000Y-154334000D01*
X146776000Y-156816000D02*
X146776000Y-160482000D01*
X146776000Y-150668000D02*
X146776000Y-154334000D01*
X146736000Y-156816000D02*
X146736000Y-160493000D01*
X146736000Y-150657000D02*
X146736000Y-154334000D01*
X146696000Y-150647000D02*
X146696000Y-160503000D01*
X146656000Y-150637000D02*
X146656000Y-160513000D01*
X146616000Y-150628000D02*
X146616000Y-160522000D01*
X146576000Y-150619000D02*
X146576000Y-160531000D01*
X146536000Y-150610000D02*
X146536000Y-160540000D01*
X146496000Y-150601000D02*
X146496000Y-160549000D01*
X146456000Y-150593000D02*
X146456000Y-160557000D01*
X146416000Y-150585000D02*
X146416000Y-160565000D01*
X146376000Y-150578000D02*
X146376000Y-160572000D01*
X146336000Y-150571000D02*
X146336000Y-160579000D01*
X146296000Y-150564000D02*
X146296000Y-160586000D01*
X146256000Y-150557000D02*
X146256000Y-160593000D01*
X146216000Y-150551000D02*
X146216000Y-160599000D01*
X146176000Y-150545000D02*
X146176000Y-160605000D01*
X146135000Y-150540000D02*
X146135000Y-160610000D01*
X146095000Y-150535000D02*
X146095000Y-160615000D01*
X146055000Y-150530000D02*
X146055000Y-160620000D01*
X146015000Y-150525000D02*
X146015000Y-160625000D01*
X145975000Y-150521000D02*
X145975000Y-160629000D01*
X145935000Y-150517000D02*
X145935000Y-160633000D01*
X145895000Y-150513000D02*
X145895000Y-160637000D01*
X145855000Y-150510000D02*
X145855000Y-160640000D01*
X145815000Y-150507000D02*
X145815000Y-160643000D01*
X145775000Y-150505000D02*
X145775000Y-160645000D01*
X145735000Y-150502000D02*
X145735000Y-160648000D01*
X145695000Y-150500000D02*
X145695000Y-160650000D01*
X145655000Y-150498000D02*
X145655000Y-160652000D01*
X145615000Y-150497000D02*
X145615000Y-160653000D01*
X145575000Y-150496000D02*
X145575000Y-160654000D01*
X145535000Y-150495000D02*
X145535000Y-160655000D01*
X145495000Y-150495000D02*
X145495000Y-160655000D01*
X145455000Y-150495000D02*
X145455000Y-160655000D01*
X150575000Y-155575000D02*
G75*
G03*
X150575000Y-155575000I-5120000J0D01*
G01*
%TO.C,J21*%
X123130000Y-124400000D02*
X124460000Y-124400000D01*
X123130000Y-125730000D02*
X123130000Y-124400000D01*
X123130000Y-127000000D02*
X125790000Y-127000000D01*
X125790000Y-127000000D02*
X125790000Y-132140000D01*
X123130000Y-127000000D02*
X123130000Y-132140000D01*
X123130000Y-132140000D02*
X125790000Y-132140000D01*
%TO.C,J27*%
X104775000Y-163770000D02*
X104775000Y-166430000D01*
X104775000Y-163770000D02*
X86935000Y-163770000D01*
X86935000Y-163770000D02*
X86935000Y-166430000D01*
X104775000Y-166430000D02*
X86935000Y-166430000D01*
X107375000Y-166430000D02*
X106045000Y-166430000D01*
X107375000Y-165100000D02*
X107375000Y-166430000D01*
%TO.C,J28*%
X122400000Y-177895000D02*
X122400000Y-182615000D01*
X122400000Y-182615000D02*
X132520000Y-182615000D01*
X132520000Y-182615000D02*
X132520000Y-177895000D01*
X132520000Y-177895000D02*
X122400000Y-177895000D01*
X124160000Y-177895000D02*
X124160000Y-177695000D01*
X124160000Y-177695000D02*
X123860000Y-177695000D01*
X123860000Y-177695000D02*
X123860000Y-177895000D01*
X124160000Y-177795000D02*
X123860000Y-177795000D01*
X124960000Y-177895000D02*
X124960000Y-178505000D01*
X124960000Y-178505000D02*
X123010000Y-178505000D01*
X123010000Y-178505000D02*
X123010000Y-182005000D01*
X123010000Y-182005000D02*
X131910000Y-182005000D01*
X131910000Y-182005000D02*
X131910000Y-178505000D01*
X131910000Y-178505000D02*
X129960000Y-178505000D01*
X129960000Y-178505000D02*
X129960000Y-177895000D01*
X122400000Y-179205000D02*
X123010000Y-179205000D01*
X122400000Y-180505000D02*
X123010000Y-180505000D01*
X132520000Y-179205000D02*
X131910000Y-179205000D01*
X132520000Y-180505000D02*
X131910000Y-180505000D01*
X125360000Y-182005000D02*
X125360000Y-181505000D01*
X125360000Y-181505000D02*
X125560000Y-181505000D01*
X125560000Y-181505000D02*
X125560000Y-182005000D01*
X125460000Y-182005000D02*
X125460000Y-181505000D01*
X127360000Y-182005000D02*
X127360000Y-181505000D01*
X127360000Y-181505000D02*
X127560000Y-181505000D01*
X127560000Y-181505000D02*
X127560000Y-182005000D01*
X127460000Y-182005000D02*
X127460000Y-181505000D01*
X129360000Y-182005000D02*
X129360000Y-181505000D01*
X129360000Y-181505000D02*
X129560000Y-181505000D01*
X129560000Y-181505000D02*
X129560000Y-182005000D01*
X129460000Y-182005000D02*
X129460000Y-181505000D01*
X123350000Y-177595000D02*
X122100000Y-177595000D01*
X122100000Y-177595000D02*
X122100000Y-178845000D01*
%TO.C,J29*%
X124460000Y-174050000D02*
X124460000Y-171390000D01*
X124460000Y-174050000D02*
X132140000Y-174050000D01*
X132140000Y-174050000D02*
X132140000Y-171390000D01*
X124460000Y-171390000D02*
X132140000Y-171390000D01*
X121860000Y-171390000D02*
X123190000Y-171390000D01*
X121860000Y-172720000D02*
X121860000Y-171390000D01*
%TO.C,J30*%
X107375000Y-177800000D02*
X107375000Y-179130000D01*
X107375000Y-179130000D02*
X106045000Y-179130000D01*
X104775000Y-179130000D02*
X86935000Y-179130000D01*
X86935000Y-176470000D02*
X86935000Y-179130000D01*
X104775000Y-176470000D02*
X86935000Y-176470000D01*
X104775000Y-176470000D02*
X104775000Y-179130000D01*
%TO.C,J32*%
X119186000Y-116586000D02*
X116526000Y-116586000D01*
X119186000Y-116586000D02*
X119186000Y-111446000D01*
X119186000Y-111446000D02*
X116526000Y-111446000D01*
X116526000Y-116586000D02*
X116526000Y-111446000D01*
X116526000Y-119186000D02*
X116526000Y-117856000D01*
X117856000Y-119186000D02*
X116526000Y-119186000D01*
%TO.C,J33*%
X123444000Y-119186000D02*
X122114000Y-119186000D01*
X122114000Y-119186000D02*
X122114000Y-117856000D01*
X122114000Y-116586000D02*
X122114000Y-111446000D01*
X124774000Y-111446000D02*
X122114000Y-111446000D01*
X124774000Y-116586000D02*
X124774000Y-111446000D01*
X124774000Y-116586000D02*
X122114000Y-116586000D01*
%TO.C,REF\u002A\u002A*%
D10*
X98234666Y-74992380D02*
X97901333Y-74516190D01*
X97663238Y-74992380D02*
X97663238Y-73992380D01*
X98044190Y-73992380D01*
X98139428Y-74040000D01*
X98187047Y-74087619D01*
X98234666Y-74182857D01*
X98234666Y-74325714D01*
X98187047Y-74420952D01*
X98139428Y-74468571D01*
X98044190Y-74516190D01*
X97663238Y-74516190D01*
X98663238Y-74468571D02*
X98996571Y-74468571D01*
X99139428Y-74992380D02*
X98663238Y-74992380D01*
X98663238Y-73992380D01*
X99139428Y-73992380D01*
X99901333Y-74468571D02*
X99568000Y-74468571D01*
X99568000Y-74992380D02*
X99568000Y-73992380D01*
X100044190Y-73992380D01*
X100568000Y-73992380D02*
X100568000Y-74230476D01*
X100329904Y-74135238D02*
X100568000Y-74230476D01*
X100806095Y-74135238D01*
X100425142Y-74420952D02*
X100568000Y-74230476D01*
X100710857Y-74420952D01*
X101329904Y-73992380D02*
X101329904Y-74230476D01*
X101091809Y-74135238D02*
X101329904Y-74230476D01*
X101568000Y-74135238D01*
X101187047Y-74420952D02*
X101329904Y-74230476D01*
X101472761Y-74420952D01*
X9842666Y-177100380D02*
X9509333Y-176624190D01*
X9271238Y-177100380D02*
X9271238Y-176100380D01*
X9652190Y-176100380D01*
X9747428Y-176148000D01*
X9795047Y-176195619D01*
X9842666Y-176290857D01*
X9842666Y-176433714D01*
X9795047Y-176528952D01*
X9747428Y-176576571D01*
X9652190Y-176624190D01*
X9271238Y-176624190D01*
X10271238Y-176576571D02*
X10604571Y-176576571D01*
X10747428Y-177100380D02*
X10271238Y-177100380D01*
X10271238Y-176100380D01*
X10747428Y-176100380D01*
X11509333Y-176576571D02*
X11176000Y-176576571D01*
X11176000Y-177100380D02*
X11176000Y-176100380D01*
X11652190Y-176100380D01*
X12176000Y-176100380D02*
X12176000Y-176338476D01*
X11937904Y-176243238D02*
X12176000Y-176338476D01*
X12414095Y-176243238D01*
X12033142Y-176528952D02*
X12176000Y-176338476D01*
X12318857Y-176528952D01*
X12937904Y-176100380D02*
X12937904Y-176338476D01*
X12699809Y-176243238D02*
X12937904Y-176338476D01*
X13176000Y-176243238D01*
X12795047Y-176528952D02*
X12937904Y-176338476D01*
X13080761Y-176528952D01*
X148018666Y-177100380D02*
X147685333Y-176624190D01*
X147447238Y-177100380D02*
X147447238Y-176100380D01*
X147828190Y-176100380D01*
X147923428Y-176148000D01*
X147971047Y-176195619D01*
X148018666Y-176290857D01*
X148018666Y-176433714D01*
X147971047Y-176528952D01*
X147923428Y-176576571D01*
X147828190Y-176624190D01*
X147447238Y-176624190D01*
X148447238Y-176576571D02*
X148780571Y-176576571D01*
X148923428Y-177100380D02*
X148447238Y-177100380D01*
X148447238Y-176100380D01*
X148923428Y-176100380D01*
X149685333Y-176576571D02*
X149352000Y-176576571D01*
X149352000Y-177100380D02*
X149352000Y-176100380D01*
X149828190Y-176100380D01*
X150352000Y-176100380D02*
X150352000Y-176338476D01*
X150113904Y-176243238D02*
X150352000Y-176338476D01*
X150590095Y-176243238D01*
X150209142Y-176528952D02*
X150352000Y-176338476D01*
X150494857Y-176528952D01*
X151113904Y-176100380D02*
X151113904Y-176338476D01*
X150875809Y-176243238D02*
X151113904Y-176338476D01*
X151352000Y-176243238D01*
X150971047Y-176528952D02*
X151113904Y-176338476D01*
X151256761Y-176528952D01*
X11874666Y-88708380D02*
X11541333Y-88232190D01*
X11303238Y-88708380D02*
X11303238Y-87708380D01*
X11684190Y-87708380D01*
X11779428Y-87756000D01*
X11827047Y-87803619D01*
X11874666Y-87898857D01*
X11874666Y-88041714D01*
X11827047Y-88136952D01*
X11779428Y-88184571D01*
X11684190Y-88232190D01*
X11303238Y-88232190D01*
X12303238Y-88184571D02*
X12636571Y-88184571D01*
X12779428Y-88708380D02*
X12303238Y-88708380D01*
X12303238Y-87708380D01*
X12779428Y-87708380D01*
X13541333Y-88184571D02*
X13208000Y-88184571D01*
X13208000Y-88708380D02*
X13208000Y-87708380D01*
X13684190Y-87708380D01*
X14208000Y-87708380D02*
X14208000Y-87946476D01*
X13969904Y-87851238D02*
X14208000Y-87946476D01*
X14446095Y-87851238D01*
X14065142Y-88136952D02*
X14208000Y-87946476D01*
X14350857Y-88136952D01*
X14969904Y-87708380D02*
X14969904Y-87946476D01*
X14731809Y-87851238D02*
X14969904Y-87946476D01*
X15208000Y-87851238D01*
X14827047Y-88136952D02*
X14969904Y-87946476D01*
X15112761Y-88136952D01*
%TO.C,J13*%
X146137380Y-147494523D02*
X146851666Y-147494523D01*
X146994523Y-147542142D01*
X147089761Y-147637380D01*
X147137380Y-147780238D01*
X147137380Y-147875476D01*
X147137380Y-146494523D02*
X147137380Y-147065952D01*
X147137380Y-146780238D02*
X146137380Y-146780238D01*
X146280238Y-146875476D01*
X146375476Y-146970714D01*
X146423095Y-147065952D01*
X146137380Y-146161190D02*
X146137380Y-145542142D01*
X146518333Y-145875476D01*
X146518333Y-145732619D01*
X146565952Y-145637380D01*
X146613571Y-145589761D01*
X146708809Y-145542142D01*
X146946904Y-145542142D01*
X147042142Y-145589761D01*
X147089761Y-145637380D01*
X147137380Y-145732619D01*
X147137380Y-146018333D01*
X147089761Y-146113571D01*
X147042142Y-146161190D01*
%TO.C,J31*%
X90630476Y-166457380D02*
X90630476Y-167171666D01*
X90582857Y-167314523D01*
X90487619Y-167409761D01*
X90344761Y-167457380D01*
X90249523Y-167457380D01*
X91011428Y-166457380D02*
X91630476Y-166457380D01*
X91297142Y-166838333D01*
X91440000Y-166838333D01*
X91535238Y-166885952D01*
X91582857Y-166933571D01*
X91630476Y-167028809D01*
X91630476Y-167266904D01*
X91582857Y-167362142D01*
X91535238Y-167409761D01*
X91440000Y-167457380D01*
X91154285Y-167457380D01*
X91059047Y-167409761D01*
X91011428Y-167362142D01*
X92582857Y-167457380D02*
X92011428Y-167457380D01*
X92297142Y-167457380D02*
X92297142Y-166457380D01*
X92201904Y-166600238D01*
X92106666Y-166695476D01*
X92011428Y-166743095D01*
%TO.C,J22*%
X34750476Y-98302380D02*
X34750476Y-99016666D01*
X34702857Y-99159523D01*
X34607619Y-99254761D01*
X34464761Y-99302380D01*
X34369523Y-99302380D01*
X35179047Y-98397619D02*
X35226666Y-98350000D01*
X35321904Y-98302380D01*
X35560000Y-98302380D01*
X35655238Y-98350000D01*
X35702857Y-98397619D01*
X35750476Y-98492857D01*
X35750476Y-98588095D01*
X35702857Y-98730952D01*
X35131428Y-99302380D01*
X35750476Y-99302380D01*
X36131428Y-98397619D02*
X36179047Y-98350000D01*
X36274285Y-98302380D01*
X36512380Y-98302380D01*
X36607619Y-98350000D01*
X36655238Y-98397619D01*
X36702857Y-98492857D01*
X36702857Y-98588095D01*
X36655238Y-98730952D01*
X36083809Y-99302380D01*
X36702857Y-99302380D01*
%TO.C,J10*%
X46735477Y-104992381D02*
X46735477Y-105706667D01*
X46687858Y-105849524D01*
X46592620Y-105944762D01*
X46449762Y-105992381D01*
X46354524Y-105992381D01*
X47735477Y-105992381D02*
X47164048Y-105992381D01*
X47449762Y-105992381D02*
X47449762Y-104992381D01*
X47354524Y-105135239D01*
X47259286Y-105230477D01*
X47164048Y-105278096D01*
X48354524Y-104992381D02*
X48449762Y-104992381D01*
X48545001Y-105040001D01*
X48592620Y-105087620D01*
X48640239Y-105182858D01*
X48687858Y-105373334D01*
X48687858Y-105611429D01*
X48640239Y-105801905D01*
X48592620Y-105897143D01*
X48545001Y-105944762D01*
X48449762Y-105992381D01*
X48354524Y-105992381D01*
X48259286Y-105944762D01*
X48211667Y-105897143D01*
X48164048Y-105801905D01*
X48116429Y-105611429D01*
X48116429Y-105373334D01*
X48164048Y-105182858D01*
X48211667Y-105087620D01*
X48259286Y-105040001D01*
X48354524Y-104992381D01*
%TO.C,J14*%
X107775476Y-104992381D02*
X107775476Y-105706667D01*
X107727857Y-105849524D01*
X107632619Y-105944762D01*
X107489761Y-105992381D01*
X107394523Y-105992381D01*
X108775476Y-105992381D02*
X108204047Y-105992381D01*
X108489761Y-105992381D02*
X108489761Y-104992381D01*
X108394523Y-105135239D01*
X108299285Y-105230477D01*
X108204047Y-105278096D01*
X109632619Y-105325715D02*
X109632619Y-105992381D01*
X109394523Y-104944762D02*
X109156428Y-105659048D01*
X109775476Y-105659048D01*
%TO.C,J9*%
X14537380Y-131143333D02*
X15251666Y-131143333D01*
X15394523Y-131190952D01*
X15489761Y-131286190D01*
X15537380Y-131429047D01*
X15537380Y-131524285D01*
X15537380Y-130619523D02*
X15537380Y-130429047D01*
X15489761Y-130333809D01*
X15442142Y-130286190D01*
X15299285Y-130190952D01*
X15108809Y-130143333D01*
X14727857Y-130143333D01*
X14632619Y-130190952D01*
X14585000Y-130238571D01*
X14537380Y-130333809D01*
X14537380Y-130524285D01*
X14585000Y-130619523D01*
X14632619Y-130667142D01*
X14727857Y-130714761D01*
X14965952Y-130714761D01*
X15061190Y-130667142D01*
X15108809Y-130619523D01*
X15156428Y-130524285D01*
X15156428Y-130333809D01*
X15108809Y-130238571D01*
X15061190Y-130190952D01*
X14965952Y-130143333D01*
%TO.C,J11*%
X14537380Y-109394523D02*
X15251666Y-109394523D01*
X15394523Y-109442142D01*
X15489761Y-109537380D01*
X15537380Y-109680238D01*
X15537380Y-109775476D01*
X15537380Y-108394523D02*
X15537380Y-108965952D01*
X15537380Y-108680238D02*
X14537380Y-108680238D01*
X14680238Y-108775476D01*
X14775476Y-108870714D01*
X14823095Y-108965952D01*
X15537380Y-107442142D02*
X15537380Y-108013571D01*
X15537380Y-107727857D02*
X14537380Y-107727857D01*
X14680238Y-107823095D01*
X14775476Y-107918333D01*
X14823095Y-108013571D01*
%TO.C,R1*%
X29678333Y-115852380D02*
X29345000Y-115376190D01*
X29106904Y-115852380D02*
X29106904Y-114852380D01*
X29487857Y-114852380D01*
X29583095Y-114900000D01*
X29630714Y-114947619D01*
X29678333Y-115042857D01*
X29678333Y-115185714D01*
X29630714Y-115280952D01*
X29583095Y-115328571D01*
X29487857Y-115376190D01*
X29106904Y-115376190D01*
X30630714Y-115852380D02*
X30059285Y-115852380D01*
X30345000Y-115852380D02*
X30345000Y-114852380D01*
X30249761Y-114995238D01*
X30154523Y-115090476D01*
X30059285Y-115138095D01*
%TO.C,C1*%
X122912142Y-84621666D02*
X122959761Y-84669285D01*
X123007380Y-84812142D01*
X123007380Y-84907380D01*
X122959761Y-85050238D01*
X122864523Y-85145476D01*
X122769285Y-85193095D01*
X122578809Y-85240714D01*
X122435952Y-85240714D01*
X122245476Y-85193095D01*
X122150238Y-85145476D01*
X122055000Y-85050238D01*
X122007380Y-84907380D01*
X122007380Y-84812142D01*
X122055000Y-84669285D01*
X122102619Y-84621666D01*
X123007380Y-83669285D02*
X123007380Y-84240714D01*
X123007380Y-83955000D02*
X122007380Y-83955000D01*
X122150238Y-84050238D01*
X122245476Y-84145476D01*
X122293095Y-84240714D01*
%TO.C,C4*%
X126722142Y-106418666D02*
X126769761Y-106466285D01*
X126817380Y-106609142D01*
X126817380Y-106704380D01*
X126769761Y-106847238D01*
X126674523Y-106942476D01*
X126579285Y-106990095D01*
X126388809Y-107037714D01*
X126245952Y-107037714D01*
X126055476Y-106990095D01*
X125960238Y-106942476D01*
X125865000Y-106847238D01*
X125817380Y-106704380D01*
X125817380Y-106609142D01*
X125865000Y-106466285D01*
X125912619Y-106418666D01*
X126150714Y-105561523D02*
X126817380Y-105561523D01*
X125769761Y-105799619D02*
X126484047Y-106037714D01*
X126484047Y-105418666D01*
%TO.C,J1*%
X18716666Y-137017380D02*
X18716666Y-137731666D01*
X18669047Y-137874523D01*
X18573809Y-137969761D01*
X18430952Y-138017380D01*
X18335714Y-138017380D01*
X19716666Y-138017380D02*
X19145238Y-138017380D01*
X19430952Y-138017380D02*
X19430952Y-137017380D01*
X19335714Y-137160238D01*
X19240476Y-137255476D01*
X19145238Y-137303095D01*
%TO.C,J2*%
X115998666Y-134858380D02*
X115998666Y-135572666D01*
X115951047Y-135715523D01*
X115855809Y-135810761D01*
X115712952Y-135858380D01*
X115617714Y-135858380D01*
X116427238Y-134953619D02*
X116474857Y-134906000D01*
X116570095Y-134858380D01*
X116808190Y-134858380D01*
X116903428Y-134906000D01*
X116951047Y-134953619D01*
X116998666Y-135048857D01*
X116998666Y-135144095D01*
X116951047Y-135286952D01*
X116379619Y-135858380D01*
X116998666Y-135858380D01*
%TO.C,J3*%
X25701666Y-137017380D02*
X25701666Y-137731666D01*
X25654047Y-137874523D01*
X25558809Y-137969761D01*
X25415952Y-138017380D01*
X25320714Y-138017380D01*
X26082619Y-137017380D02*
X26701666Y-137017380D01*
X26368333Y-137398333D01*
X26511190Y-137398333D01*
X26606428Y-137445952D01*
X26654047Y-137493571D01*
X26701666Y-137588809D01*
X26701666Y-137826904D01*
X26654047Y-137922142D01*
X26606428Y-137969761D01*
X26511190Y-138017380D01*
X26225476Y-138017380D01*
X26130238Y-137969761D01*
X26082619Y-137922142D01*
%TO.C,J4*%
X32686666Y-137017380D02*
X32686666Y-137731666D01*
X32639047Y-137874523D01*
X32543809Y-137969761D01*
X32400952Y-138017380D01*
X32305714Y-138017380D01*
X33591428Y-137350714D02*
X33591428Y-138017380D01*
X33353333Y-136969761D02*
X33115238Y-137684047D01*
X33734285Y-137684047D01*
%TO.C,J5*%
X140636666Y-161377380D02*
X140636666Y-162091666D01*
X140589047Y-162234523D01*
X140493809Y-162329761D01*
X140350952Y-162377380D01*
X140255714Y-162377380D01*
X141589047Y-161377380D02*
X141112857Y-161377380D01*
X141065238Y-161853571D01*
X141112857Y-161805952D01*
X141208095Y-161758333D01*
X141446190Y-161758333D01*
X141541428Y-161805952D01*
X141589047Y-161853571D01*
X141636666Y-161948809D01*
X141636666Y-162186904D01*
X141589047Y-162282142D01*
X141541428Y-162329761D01*
X141446190Y-162377380D01*
X141208095Y-162377380D01*
X141112857Y-162329761D01*
X141065238Y-162282142D01*
%TO.C,J6*%
X120951666Y-135112380D02*
X120951666Y-135826666D01*
X120904047Y-135969523D01*
X120808809Y-136064761D01*
X120665952Y-136112380D01*
X120570714Y-136112380D01*
X121856428Y-135112380D02*
X121665952Y-135112380D01*
X121570714Y-135160000D01*
X121523095Y-135207619D01*
X121427857Y-135350476D01*
X121380238Y-135540952D01*
X121380238Y-135921904D01*
X121427857Y-136017142D01*
X121475476Y-136064761D01*
X121570714Y-136112380D01*
X121761190Y-136112380D01*
X121856428Y-136064761D01*
X121904047Y-136017142D01*
X121951666Y-135921904D01*
X121951666Y-135683809D01*
X121904047Y-135588571D01*
X121856428Y-135540952D01*
X121761190Y-135493333D01*
X121570714Y-135493333D01*
X121475476Y-135540952D01*
X121427857Y-135588571D01*
X121380238Y-135683809D01*
%TO.C,J7*%
X133651666Y-135112380D02*
X133651666Y-135826666D01*
X133604047Y-135969523D01*
X133508809Y-136064761D01*
X133365952Y-136112380D01*
X133270714Y-136112380D01*
X134032619Y-135112380D02*
X134699285Y-135112380D01*
X134270714Y-136112380D01*
%TO.C,J8*%
X123618666Y-152892380D02*
X123618666Y-153606666D01*
X123571047Y-153749523D01*
X123475809Y-153844761D01*
X123332952Y-153892380D01*
X123237714Y-153892380D01*
X124237714Y-153320952D02*
X124142476Y-153273333D01*
X124094857Y-153225714D01*
X124047238Y-153130476D01*
X124047238Y-153082857D01*
X124094857Y-152987619D01*
X124142476Y-152940000D01*
X124237714Y-152892380D01*
X124428190Y-152892380D01*
X124523428Y-152940000D01*
X124571047Y-152987619D01*
X124618666Y-153082857D01*
X124618666Y-153130476D01*
X124571047Y-153225714D01*
X124523428Y-153273333D01*
X124428190Y-153320952D01*
X124237714Y-153320952D01*
X124142476Y-153368571D01*
X124094857Y-153416190D01*
X124047238Y-153511428D01*
X124047238Y-153701904D01*
X124094857Y-153797142D01*
X124142476Y-153844761D01*
X124237714Y-153892380D01*
X124428190Y-153892380D01*
X124523428Y-153844761D01*
X124571047Y-153797142D01*
X124618666Y-153701904D01*
X124618666Y-153511428D01*
X124571047Y-153416190D01*
X124523428Y-153368571D01*
X124428190Y-153320952D01*
%TO.C,J12*%
X130262380Y-90979523D02*
X130976666Y-90979523D01*
X131119523Y-91027142D01*
X131214761Y-91122380D01*
X131262380Y-91265238D01*
X131262380Y-91360476D01*
X131262380Y-89979523D02*
X131262380Y-90550952D01*
X131262380Y-90265238D02*
X130262380Y-90265238D01*
X130405238Y-90360476D01*
X130500476Y-90455714D01*
X130548095Y-90550952D01*
X130357619Y-89598571D02*
X130310000Y-89550952D01*
X130262380Y-89455714D01*
X130262380Y-89217619D01*
X130310000Y-89122380D01*
X130357619Y-89074761D01*
X130452857Y-89027142D01*
X130548095Y-89027142D01*
X130690952Y-89074761D01*
X131262380Y-89646190D01*
X131262380Y-89027142D01*
%TO.C,J15*%
X138890476Y-97242380D02*
X138890476Y-97956666D01*
X138842857Y-98099523D01*
X138747619Y-98194761D01*
X138604761Y-98242380D01*
X138509523Y-98242380D01*
X139890476Y-98242380D02*
X139319047Y-98242380D01*
X139604761Y-98242380D02*
X139604761Y-97242380D01*
X139509523Y-97385238D01*
X139414285Y-97480476D01*
X139319047Y-97528095D01*
X140795238Y-97242380D02*
X140319047Y-97242380D01*
X140271428Y-97718571D01*
X140319047Y-97670952D01*
X140414285Y-97623333D01*
X140652380Y-97623333D01*
X140747619Y-97670952D01*
X140795238Y-97718571D01*
X140842857Y-97813809D01*
X140842857Y-98051904D01*
X140795238Y-98147142D01*
X140747619Y-98194761D01*
X140652380Y-98242380D01*
X140414285Y-98242380D01*
X140319047Y-98194761D01*
X140271428Y-98147142D01*
%TO.C,J16*%
X138890476Y-109307380D02*
X138890476Y-110021666D01*
X138842857Y-110164523D01*
X138747619Y-110259761D01*
X138604761Y-110307380D01*
X138509523Y-110307380D01*
X139890476Y-110307380D02*
X139319047Y-110307380D01*
X139604761Y-110307380D02*
X139604761Y-109307380D01*
X139509523Y-109450238D01*
X139414285Y-109545476D01*
X139319047Y-109593095D01*
X140747619Y-109307380D02*
X140557142Y-109307380D01*
X140461904Y-109355000D01*
X140414285Y-109402619D01*
X140319047Y-109545476D01*
X140271428Y-109735952D01*
X140271428Y-110116904D01*
X140319047Y-110212142D01*
X140366666Y-110259761D01*
X140461904Y-110307380D01*
X140652380Y-110307380D01*
X140747619Y-110259761D01*
X140795238Y-110212142D01*
X140842857Y-110116904D01*
X140842857Y-109878809D01*
X140795238Y-109783571D01*
X140747619Y-109735952D01*
X140652380Y-109688333D01*
X140461904Y-109688333D01*
X140366666Y-109735952D01*
X140319047Y-109783571D01*
X140271428Y-109878809D01*
%TO.C,J17*%
X139152380Y-146859523D02*
X139866666Y-146859523D01*
X140009523Y-146907142D01*
X140104761Y-147002380D01*
X140152380Y-147145238D01*
X140152380Y-147240476D01*
X140152380Y-145859523D02*
X140152380Y-146430952D01*
X140152380Y-146145238D02*
X139152380Y-146145238D01*
X139295238Y-146240476D01*
X139390476Y-146335714D01*
X139438095Y-146430952D01*
X139152380Y-145526190D02*
X139152380Y-144859523D01*
X140152380Y-145288095D01*
%TO.C,J18*%
X116665476Y-122852380D02*
X116665476Y-123566666D01*
X116617857Y-123709523D01*
X116522619Y-123804761D01*
X116379761Y-123852380D01*
X116284523Y-123852380D01*
X117665476Y-123852380D02*
X117094047Y-123852380D01*
X117379761Y-123852380D02*
X117379761Y-122852380D01*
X117284523Y-122995238D01*
X117189285Y-123090476D01*
X117094047Y-123138095D01*
X118236904Y-123280952D02*
X118141666Y-123233333D01*
X118094047Y-123185714D01*
X118046428Y-123090476D01*
X118046428Y-123042857D01*
X118094047Y-122947619D01*
X118141666Y-122900000D01*
X118236904Y-122852380D01*
X118427380Y-122852380D01*
X118522619Y-122900000D01*
X118570238Y-122947619D01*
X118617857Y-123042857D01*
X118617857Y-123090476D01*
X118570238Y-123185714D01*
X118522619Y-123233333D01*
X118427380Y-123280952D01*
X118236904Y-123280952D01*
X118141666Y-123328571D01*
X118094047Y-123376190D01*
X118046428Y-123471428D01*
X118046428Y-123661904D01*
X118094047Y-123757142D01*
X118141666Y-123804761D01*
X118236904Y-123852380D01*
X118427380Y-123852380D01*
X118522619Y-123804761D01*
X118570238Y-123757142D01*
X118617857Y-123661904D01*
X118617857Y-123471428D01*
X118570238Y-123376190D01*
X118522619Y-123328571D01*
X118427380Y-123280952D01*
%TO.C,J19*%
X61420476Y-164552380D02*
X61420476Y-165266666D01*
X61372857Y-165409523D01*
X61277619Y-165504761D01*
X61134761Y-165552380D01*
X61039523Y-165552380D01*
X62420476Y-165552380D02*
X61849047Y-165552380D01*
X62134761Y-165552380D02*
X62134761Y-164552380D01*
X62039523Y-164695238D01*
X61944285Y-164790476D01*
X61849047Y-164838095D01*
X62896666Y-165552380D02*
X63087142Y-165552380D01*
X63182380Y-165504761D01*
X63230000Y-165457142D01*
X63325238Y-165314285D01*
X63372857Y-165123809D01*
X63372857Y-164742857D01*
X63325238Y-164647619D01*
X63277619Y-164600000D01*
X63182380Y-164552380D01*
X62991904Y-164552380D01*
X62896666Y-164600000D01*
X62849047Y-164647619D01*
X62801428Y-164742857D01*
X62801428Y-164980952D01*
X62849047Y-165076190D01*
X62896666Y-165123809D01*
X62991904Y-165171428D01*
X63182380Y-165171428D01*
X63277619Y-165123809D01*
X63325238Y-165076190D01*
X63372857Y-164980952D01*
%TO.C,J20*%
X130635476Y-122852380D02*
X130635476Y-123566666D01*
X130587857Y-123709523D01*
X130492619Y-123804761D01*
X130349761Y-123852380D01*
X130254523Y-123852380D01*
X131064047Y-122947619D02*
X131111666Y-122900000D01*
X131206904Y-122852380D01*
X131445000Y-122852380D01*
X131540238Y-122900000D01*
X131587857Y-122947619D01*
X131635476Y-123042857D01*
X131635476Y-123138095D01*
X131587857Y-123280952D01*
X131016428Y-123852380D01*
X131635476Y-123852380D01*
X132254523Y-122852380D02*
X132349761Y-122852380D01*
X132445000Y-122900000D01*
X132492619Y-122947619D01*
X132540238Y-123042857D01*
X132587857Y-123233333D01*
X132587857Y-123471428D01*
X132540238Y-123661904D01*
X132492619Y-123757142D01*
X132445000Y-123804761D01*
X132349761Y-123852380D01*
X132254523Y-123852380D01*
X132159285Y-123804761D01*
X132111666Y-123757142D01*
X132064047Y-123661904D01*
X132016428Y-123471428D01*
X132016428Y-123233333D01*
X132064047Y-123042857D01*
X132111666Y-122947619D01*
X132159285Y-122900000D01*
X132254523Y-122852380D01*
%TO.C,J23*%
X52530476Y-167092380D02*
X52530476Y-167806666D01*
X52482857Y-167949523D01*
X52387619Y-168044761D01*
X52244761Y-168092380D01*
X52149523Y-168092380D01*
X52959047Y-167187619D02*
X53006666Y-167140000D01*
X53101904Y-167092380D01*
X53340000Y-167092380D01*
X53435238Y-167140000D01*
X53482857Y-167187619D01*
X53530476Y-167282857D01*
X53530476Y-167378095D01*
X53482857Y-167520952D01*
X52911428Y-168092380D01*
X53530476Y-168092380D01*
X53863809Y-167092380D02*
X54482857Y-167092380D01*
X54149523Y-167473333D01*
X54292380Y-167473333D01*
X54387619Y-167520952D01*
X54435238Y-167568571D01*
X54482857Y-167663809D01*
X54482857Y-167901904D01*
X54435238Y-167997142D01*
X54387619Y-168044761D01*
X54292380Y-168092380D01*
X54006666Y-168092380D01*
X53911428Y-168044761D01*
X53863809Y-167997142D01*
%TO.C,J24*%
X38560476Y-167092380D02*
X38560476Y-167806666D01*
X38512857Y-167949523D01*
X38417619Y-168044761D01*
X38274761Y-168092380D01*
X38179523Y-168092380D01*
X38989047Y-167187619D02*
X39036666Y-167140000D01*
X39131904Y-167092380D01*
X39370000Y-167092380D01*
X39465238Y-167140000D01*
X39512857Y-167187619D01*
X39560476Y-167282857D01*
X39560476Y-167378095D01*
X39512857Y-167520952D01*
X38941428Y-168092380D01*
X39560476Y-168092380D01*
X40417619Y-167425714D02*
X40417619Y-168092380D01*
X40179523Y-167044761D02*
X39941428Y-167759047D01*
X40560476Y-167759047D01*
%TO.C,J25*%
X24590476Y-167092380D02*
X24590476Y-167806666D01*
X24542857Y-167949523D01*
X24447619Y-168044761D01*
X24304761Y-168092380D01*
X24209523Y-168092380D01*
X25019047Y-167187619D02*
X25066666Y-167140000D01*
X25161904Y-167092380D01*
X25400000Y-167092380D01*
X25495238Y-167140000D01*
X25542857Y-167187619D01*
X25590476Y-167282857D01*
X25590476Y-167378095D01*
X25542857Y-167520952D01*
X24971428Y-168092380D01*
X25590476Y-168092380D01*
X26495238Y-167092380D02*
X26019047Y-167092380D01*
X25971428Y-167568571D01*
X26019047Y-167520952D01*
X26114285Y-167473333D01*
X26352380Y-167473333D01*
X26447619Y-167520952D01*
X26495238Y-167568571D01*
X26542857Y-167663809D01*
X26542857Y-167901904D01*
X26495238Y-167997142D01*
X26447619Y-168044761D01*
X26352380Y-168092380D01*
X26114285Y-168092380D01*
X26019047Y-168044761D01*
X25971428Y-167997142D01*
%TO.C,J26*%
X138890476Y-122642380D02*
X138890476Y-123356666D01*
X138842857Y-123499523D01*
X138747619Y-123594761D01*
X138604761Y-123642380D01*
X138509523Y-123642380D01*
X139319047Y-122737619D02*
X139366666Y-122690000D01*
X139461904Y-122642380D01*
X139700000Y-122642380D01*
X139795238Y-122690000D01*
X139842857Y-122737619D01*
X139890476Y-122832857D01*
X139890476Y-122928095D01*
X139842857Y-123070952D01*
X139271428Y-123642380D01*
X139890476Y-123642380D01*
X140747619Y-122642380D02*
X140557142Y-122642380D01*
X140461904Y-122690000D01*
X140414285Y-122737619D01*
X140319047Y-122880476D01*
X140271428Y-123070952D01*
X140271428Y-123451904D01*
X140319047Y-123547142D01*
X140366666Y-123594761D01*
X140461904Y-123642380D01*
X140652380Y-123642380D01*
X140747619Y-123594761D01*
X140795238Y-123547142D01*
X140842857Y-123451904D01*
X140842857Y-123213809D01*
X140795238Y-123118571D01*
X140747619Y-123070952D01*
X140652380Y-123023333D01*
X140461904Y-123023333D01*
X140366666Y-123070952D01*
X140319047Y-123118571D01*
X140271428Y-123213809D01*
%TO.C,Q1*%
X34194761Y-152312619D02*
X34099523Y-152265000D01*
X34004285Y-152169761D01*
X33861428Y-152026904D01*
X33766190Y-151979285D01*
X33670952Y-151979285D01*
X33718571Y-152217380D02*
X33623333Y-152169761D01*
X33528095Y-152074523D01*
X33480476Y-151884047D01*
X33480476Y-151550714D01*
X33528095Y-151360238D01*
X33623333Y-151265000D01*
X33718571Y-151217380D01*
X33909047Y-151217380D01*
X34004285Y-151265000D01*
X34099523Y-151360238D01*
X34147142Y-151550714D01*
X34147142Y-151884047D01*
X34099523Y-152074523D01*
X34004285Y-152169761D01*
X33909047Y-152217380D01*
X33718571Y-152217380D01*
X35099523Y-152217380D02*
X34528095Y-152217380D01*
X34813809Y-152217380D02*
X34813809Y-151217380D01*
X34718571Y-151360238D01*
X34623333Y-151455476D01*
X34528095Y-151503095D01*
%TO.C,Q2*%
X22764761Y-152312619D02*
X22669523Y-152265000D01*
X22574285Y-152169761D01*
X22431428Y-152026904D01*
X22336190Y-151979285D01*
X22240952Y-151979285D01*
X22288571Y-152217380D02*
X22193333Y-152169761D01*
X22098095Y-152074523D01*
X22050476Y-151884047D01*
X22050476Y-151550714D01*
X22098095Y-151360238D01*
X22193333Y-151265000D01*
X22288571Y-151217380D01*
X22479047Y-151217380D01*
X22574285Y-151265000D01*
X22669523Y-151360238D01*
X22717142Y-151550714D01*
X22717142Y-151884047D01*
X22669523Y-152074523D01*
X22574285Y-152169761D01*
X22479047Y-152217380D01*
X22288571Y-152217380D01*
X23098095Y-151312619D02*
X23145714Y-151265000D01*
X23240952Y-151217380D01*
X23479047Y-151217380D01*
X23574285Y-151265000D01*
X23621904Y-151312619D01*
X23669523Y-151407857D01*
X23669523Y-151503095D01*
X23621904Y-151645952D01*
X23050476Y-152217380D01*
X23669523Y-152217380D01*
%TO.C,Q3*%
X11334761Y-152312619D02*
X11239523Y-152265000D01*
X11144285Y-152169761D01*
X11001428Y-152026904D01*
X10906190Y-151979285D01*
X10810952Y-151979285D01*
X10858571Y-152217380D02*
X10763333Y-152169761D01*
X10668095Y-152074523D01*
X10620476Y-151884047D01*
X10620476Y-151550714D01*
X10668095Y-151360238D01*
X10763333Y-151265000D01*
X10858571Y-151217380D01*
X11049047Y-151217380D01*
X11144285Y-151265000D01*
X11239523Y-151360238D01*
X11287142Y-151550714D01*
X11287142Y-151884047D01*
X11239523Y-152074523D01*
X11144285Y-152169761D01*
X11049047Y-152217380D01*
X10858571Y-152217380D01*
X11620476Y-151217380D02*
X12239523Y-151217380D01*
X11906190Y-151598333D01*
X12049047Y-151598333D01*
X12144285Y-151645952D01*
X12191904Y-151693571D01*
X12239523Y-151788809D01*
X12239523Y-152026904D01*
X12191904Y-152122142D01*
X12144285Y-152169761D01*
X12049047Y-152217380D01*
X11763333Y-152217380D01*
X11668095Y-152169761D01*
X11620476Y-152122142D01*
%TO.C,R2*%
X44097380Y-160821666D02*
X43621190Y-161155000D01*
X44097380Y-161393095D02*
X43097380Y-161393095D01*
X43097380Y-161012142D01*
X43145000Y-160916904D01*
X43192619Y-160869285D01*
X43287857Y-160821666D01*
X43430714Y-160821666D01*
X43525952Y-160869285D01*
X43573571Y-160916904D01*
X43621190Y-161012142D01*
X43621190Y-161393095D01*
X43192619Y-160440714D02*
X43145000Y-160393095D01*
X43097380Y-160297857D01*
X43097380Y-160059761D01*
X43145000Y-159964523D01*
X43192619Y-159916904D01*
X43287857Y-159869285D01*
X43383095Y-159869285D01*
X43525952Y-159916904D01*
X44097380Y-160488333D01*
X44097380Y-159869285D01*
%TO.C,R3*%
X32667380Y-160821666D02*
X32191190Y-161155000D01*
X32667380Y-161393095D02*
X31667380Y-161393095D01*
X31667380Y-161012142D01*
X31715000Y-160916904D01*
X31762619Y-160869285D01*
X31857857Y-160821666D01*
X32000714Y-160821666D01*
X32095952Y-160869285D01*
X32143571Y-160916904D01*
X32191190Y-161012142D01*
X32191190Y-161393095D01*
X31667380Y-160488333D02*
X31667380Y-159869285D01*
X32048333Y-160202619D01*
X32048333Y-160059761D01*
X32095952Y-159964523D01*
X32143571Y-159916904D01*
X32238809Y-159869285D01*
X32476904Y-159869285D01*
X32572142Y-159916904D01*
X32619761Y-159964523D01*
X32667380Y-160059761D01*
X32667380Y-160345476D01*
X32619761Y-160440714D01*
X32572142Y-160488333D01*
%TO.C,R4*%
X21237380Y-160821666D02*
X20761190Y-161155000D01*
X21237380Y-161393095D02*
X20237380Y-161393095D01*
X20237380Y-161012142D01*
X20285000Y-160916904D01*
X20332619Y-160869285D01*
X20427857Y-160821666D01*
X20570714Y-160821666D01*
X20665952Y-160869285D01*
X20713571Y-160916904D01*
X20761190Y-161012142D01*
X20761190Y-161393095D01*
X20570714Y-159964523D02*
X21237380Y-159964523D01*
X20189761Y-160202619D02*
X20904047Y-160440714D01*
X20904047Y-159821666D01*
%TO.C,U1*%
X123698095Y-90892380D02*
X123698095Y-91701904D01*
X123745714Y-91797142D01*
X123793333Y-91844761D01*
X123888571Y-91892380D01*
X124079047Y-91892380D01*
X124174285Y-91844761D01*
X124221904Y-91797142D01*
X124269523Y-91701904D01*
X124269523Y-90892380D01*
X125269523Y-91892380D02*
X124698095Y-91892380D01*
X124983809Y-91892380D02*
X124983809Y-90892380D01*
X124888571Y-91035238D01*
X124793333Y-91130476D01*
X124698095Y-91178095D01*
%TO.C,C2*%
X145288333Y-149682142D02*
X145240714Y-149729761D01*
X145097857Y-149777380D01*
X145002619Y-149777380D01*
X144859761Y-149729761D01*
X144764523Y-149634523D01*
X144716904Y-149539285D01*
X144669285Y-149348809D01*
X144669285Y-149205952D01*
X144716904Y-149015476D01*
X144764523Y-148920238D01*
X144859761Y-148825000D01*
X145002619Y-148777380D01*
X145097857Y-148777380D01*
X145240714Y-148825000D01*
X145288333Y-148872619D01*
X145669285Y-148872619D02*
X145716904Y-148825000D01*
X145812142Y-148777380D01*
X146050238Y-148777380D01*
X146145476Y-148825000D01*
X146193095Y-148872619D01*
X146240714Y-148967857D01*
X146240714Y-149063095D01*
X146193095Y-149205952D01*
X145621666Y-149777380D01*
X146240714Y-149777380D01*
%TO.C,J21*%
X123650476Y-122852380D02*
X123650476Y-123566666D01*
X123602857Y-123709523D01*
X123507619Y-123804761D01*
X123364761Y-123852380D01*
X123269523Y-123852380D01*
X124079047Y-122947619D02*
X124126666Y-122900000D01*
X124221904Y-122852380D01*
X124460000Y-122852380D01*
X124555238Y-122900000D01*
X124602857Y-122947619D01*
X124650476Y-123042857D01*
X124650476Y-123138095D01*
X124602857Y-123280952D01*
X124031428Y-123852380D01*
X124650476Y-123852380D01*
X125602857Y-123852380D02*
X125031428Y-123852380D01*
X125317142Y-123852380D02*
X125317142Y-122852380D01*
X125221904Y-122995238D01*
X125126666Y-123090476D01*
X125031428Y-123138095D01*
%TO.C,J27*%
X108267380Y-165909523D02*
X108981666Y-165909523D01*
X109124523Y-165957142D01*
X109219761Y-166052380D01*
X109267380Y-166195238D01*
X109267380Y-166290476D01*
X108362619Y-165480952D02*
X108315000Y-165433333D01*
X108267380Y-165338095D01*
X108267380Y-165100000D01*
X108315000Y-165004761D01*
X108362619Y-164957142D01*
X108457857Y-164909523D01*
X108553095Y-164909523D01*
X108695952Y-164957142D01*
X109267380Y-165528571D01*
X109267380Y-164909523D01*
X108267380Y-164576190D02*
X108267380Y-163909523D01*
X109267380Y-164338095D01*
%TO.C,J28*%
X130000476Y-176257380D02*
X130000476Y-176971666D01*
X129952857Y-177114523D01*
X129857619Y-177209761D01*
X129714761Y-177257380D01*
X129619523Y-177257380D01*
X130429047Y-176352619D02*
X130476666Y-176305000D01*
X130571904Y-176257380D01*
X130810000Y-176257380D01*
X130905238Y-176305000D01*
X130952857Y-176352619D01*
X131000476Y-176447857D01*
X131000476Y-176543095D01*
X130952857Y-176685952D01*
X130381428Y-177257380D01*
X131000476Y-177257380D01*
X131571904Y-176685952D02*
X131476666Y-176638333D01*
X131429047Y-176590714D01*
X131381428Y-176495476D01*
X131381428Y-176447857D01*
X131429047Y-176352619D01*
X131476666Y-176305000D01*
X131571904Y-176257380D01*
X131762380Y-176257380D01*
X131857619Y-176305000D01*
X131905238Y-176352619D01*
X131952857Y-176447857D01*
X131952857Y-176495476D01*
X131905238Y-176590714D01*
X131857619Y-176638333D01*
X131762380Y-176685952D01*
X131571904Y-176685952D01*
X131476666Y-176733571D01*
X131429047Y-176781190D01*
X131381428Y-176876428D01*
X131381428Y-177066904D01*
X131429047Y-177162142D01*
X131476666Y-177209761D01*
X131571904Y-177257380D01*
X131762380Y-177257380D01*
X131857619Y-177209761D01*
X131905238Y-177162142D01*
X131952857Y-177066904D01*
X131952857Y-176876428D01*
X131905238Y-176781190D01*
X131857619Y-176733571D01*
X131762380Y-176685952D01*
%TO.C,J29*%
X130000476Y-169632380D02*
X130000476Y-170346666D01*
X129952857Y-170489523D01*
X129857619Y-170584761D01*
X129714761Y-170632380D01*
X129619523Y-170632380D01*
X130429047Y-169727619D02*
X130476666Y-169680000D01*
X130571904Y-169632380D01*
X130810000Y-169632380D01*
X130905238Y-169680000D01*
X130952857Y-169727619D01*
X131000476Y-169822857D01*
X131000476Y-169918095D01*
X130952857Y-170060952D01*
X130381428Y-170632380D01*
X131000476Y-170632380D01*
X131476666Y-170632380D02*
X131667142Y-170632380D01*
X131762380Y-170584761D01*
X131810000Y-170537142D01*
X131905238Y-170394285D01*
X131952857Y-170203809D01*
X131952857Y-169822857D01*
X131905238Y-169727619D01*
X131857619Y-169680000D01*
X131762380Y-169632380D01*
X131571904Y-169632380D01*
X131476666Y-169680000D01*
X131429047Y-169727619D01*
X131381428Y-169822857D01*
X131381428Y-170060952D01*
X131429047Y-170156190D01*
X131476666Y-170203809D01*
X131571904Y-170251428D01*
X131762380Y-170251428D01*
X131857619Y-170203809D01*
X131905238Y-170156190D01*
X131952857Y-170060952D01*
%TO.C,J30*%
X108267380Y-178609523D02*
X108981666Y-178609523D01*
X109124523Y-178657142D01*
X109219761Y-178752380D01*
X109267380Y-178895238D01*
X109267380Y-178990476D01*
X108267380Y-178228571D02*
X108267380Y-177609523D01*
X108648333Y-177942857D01*
X108648333Y-177800000D01*
X108695952Y-177704761D01*
X108743571Y-177657142D01*
X108838809Y-177609523D01*
X109076904Y-177609523D01*
X109172142Y-177657142D01*
X109219761Y-177704761D01*
X109267380Y-177800000D01*
X109267380Y-178085714D01*
X109219761Y-178180952D01*
X109172142Y-178228571D01*
X108267380Y-176990476D02*
X108267380Y-176895238D01*
X108315000Y-176800000D01*
X108362619Y-176752380D01*
X108457857Y-176704761D01*
X108648333Y-176657142D01*
X108886428Y-176657142D01*
X109076904Y-176704761D01*
X109172142Y-176752380D01*
X109219761Y-176800000D01*
X109267380Y-176895238D01*
X109267380Y-176990476D01*
X109219761Y-177085714D01*
X109172142Y-177133333D01*
X109076904Y-177180952D01*
X108886428Y-177228571D01*
X108648333Y-177228571D01*
X108457857Y-177180952D01*
X108362619Y-177133333D01*
X108315000Y-177085714D01*
X108267380Y-176990476D01*
%TO.C,J32*%
X117046476Y-120078380D02*
X117046476Y-120792666D01*
X116998857Y-120935523D01*
X116903619Y-121030761D01*
X116760761Y-121078380D01*
X116665523Y-121078380D01*
X117427428Y-120078380D02*
X118046476Y-120078380D01*
X117713142Y-120459333D01*
X117856000Y-120459333D01*
X117951238Y-120506952D01*
X117998857Y-120554571D01*
X118046476Y-120649809D01*
X118046476Y-120887904D01*
X117998857Y-120983142D01*
X117951238Y-121030761D01*
X117856000Y-121078380D01*
X117570285Y-121078380D01*
X117475047Y-121030761D01*
X117427428Y-120983142D01*
X118427428Y-120173619D02*
X118475047Y-120126000D01*
X118570285Y-120078380D01*
X118808380Y-120078380D01*
X118903619Y-120126000D01*
X118951238Y-120173619D01*
X118998857Y-120268857D01*
X118998857Y-120364095D01*
X118951238Y-120506952D01*
X118379809Y-121078380D01*
X118998857Y-121078380D01*
%TO.C,J33*%
X122634476Y-120078380D02*
X122634476Y-120792666D01*
X122586857Y-120935523D01*
X122491619Y-121030761D01*
X122348761Y-121078380D01*
X122253523Y-121078380D01*
X123015428Y-120078380D02*
X123634476Y-120078380D01*
X123301142Y-120459333D01*
X123444000Y-120459333D01*
X123539238Y-120506952D01*
X123586857Y-120554571D01*
X123634476Y-120649809D01*
X123634476Y-120887904D01*
X123586857Y-120983142D01*
X123539238Y-121030761D01*
X123444000Y-121078380D01*
X123158285Y-121078380D01*
X123063047Y-121030761D01*
X123015428Y-120983142D01*
X123967809Y-120078380D02*
X124586857Y-120078380D01*
X124253523Y-120459333D01*
X124396380Y-120459333D01*
X124491619Y-120506952D01*
X124539238Y-120554571D01*
X124586857Y-120649809D01*
X124586857Y-120887904D01*
X124539238Y-120983142D01*
X124491619Y-121030761D01*
X124396380Y-121078380D01*
X124110666Y-121078380D01*
X124015428Y-121030761D01*
X123967809Y-120983142D01*
%TD*%
M02*
