M48
; DRILL file {KiCad (5.1.6)-1} date 02/06/23 18:30:32
; FORMAT={-:-/ absolute / inch / decimal}
; #@! TF.CreationDate,2023-02-06T18:30:32+01:00
; #@! TF.GenerationSoftware,Kicad,Pcbnew,(5.1.6)-1
; #@! TF.FileFunction,Plated,1,2,PTH
FMAT,2
INCH
T1C0.0236
T2C0.0295
T3C0.0315
T4C0.0394
T5C0.0433
T6C0.0512
T7C0.0598
%
G90
G05
T1
X1.025Y-4.0
X1.35Y-4.0
X1.85Y-6.3
X1.85Y-6.575
X2.25Y-3.875
X2.25Y-3.875
X2.25Y-5.05
X2.6Y-5.4469
X3.05Y-5.85
X3.175Y-3.7
X3.175Y-4.575
X3.2Y-6.6
X3.2Y-7.1
X3.3Y-6.225
X3.325Y-3.4
X3.325Y-4.575
X3.36Y-6.595
X3.475Y-3.4
X3.475Y-3.6
X3.475Y-3.95
X3.475Y-4.575
X3.575Y-6.225
X3.625Y-3.3
X3.625Y-3.875
X4.275Y-6.4
X4.4Y-3.625
X4.88Y-6.0
X5.26Y-4.0
X5.4Y-4.125
X5.4Y-4.24
X5.4Y-4.525
X5.65Y-4.275
X5.75Y-3.775
X5.85Y-4.275
X5.85Y-4.8
T2
X5.95Y-5.5
X5.95Y-5.5787
X5.95Y-5.6575
X5.95Y-5.7362
X4.9Y-7.075
X4.9787Y-7.075
X5.0575Y-7.075
X5.1362Y-7.075
T3
X1.175Y-6.125
X1.175Y-6.525
X0.725Y-6.125
X0.725Y-6.525
X0.675Y-5.15
X0.7537Y-5.15
X0.8325Y-5.15
X0.9112Y-5.15
X0.99Y-5.15
X1.0687Y-5.15
X1.1474Y-5.15
X1.2262Y-5.15
X1.3049Y-5.15
X1.3837Y-5.15
X0.975Y-4.45
X1.375Y-4.45
X1.625Y-6.125
X1.625Y-6.525
X0.675Y-4.275
X0.7537Y-4.275
X0.8325Y-4.275
X0.9112Y-4.275
X0.99Y-4.275
X1.0687Y-4.275
X1.1474Y-4.275
X1.2262Y-4.275
X1.3049Y-4.275
X1.3837Y-4.275
T4
X5.525Y-4.425
X5.525Y-4.525
X5.525Y-4.625
X3.475Y-6.6
X1.3Y-5.525
X1.3Y-5.625
X1.3Y-5.725
X1.35Y-3.5
X1.35Y-3.6
X1.35Y-3.7
X1.35Y-3.8
X1.45Y-3.5
X1.45Y-3.6
X1.45Y-3.7
X1.45Y-3.8
X4.9Y-4.95
X4.9Y-5.05
X4.9Y-5.15
X3.475Y-7.0
X3.575Y-7.0
X3.675Y-7.0
X3.775Y-7.0
X3.875Y-7.0
X3.975Y-7.0
X4.075Y-7.0
X4.175Y-7.0
X5.525Y-4.95
X5.525Y-5.05
X5.525Y-5.15
X3.475Y-6.5
X3.575Y-6.5
X3.675Y-6.5
X3.775Y-6.5
X3.875Y-6.5
X3.975Y-6.5
X4.075Y-6.5
X4.175Y-6.5
X4.88Y-6.15
X1.025Y-5.525
X1.025Y-5.625
X1.025Y-5.725
X4.225Y-4.2469
X4.225Y-4.3469
X4.225Y-4.4469
X4.225Y-4.5469
X4.225Y-4.6469
X4.225Y-4.7469
X4.225Y-4.8469
X4.225Y-4.9469
X4.225Y-5.0469
X4.225Y-5.1469
X4.225Y-5.2469
X4.225Y-5.3469
X4.225Y-5.4469
X4.225Y-5.5469
X4.225Y-5.6469
X4.225Y-5.7469
X4.225Y-5.8469
X4.225Y-5.9469
X4.225Y-6.0469
X4.225Y-6.1469
X4.325Y-4.2469
X4.325Y-4.3469
X4.325Y-4.4469
X4.325Y-4.5469
X4.325Y-4.6469
X4.325Y-4.7469
X4.325Y-4.8469
X4.325Y-4.9469
X4.325Y-5.0469
X4.325Y-5.1469
X4.325Y-5.2469
X4.325Y-5.3469
X4.325Y-5.4469
X4.325Y-5.5469
X4.325Y-5.6469
X4.325Y-5.7469
X4.325Y-5.8469
X4.325Y-5.9469
X4.325Y-6.0469
X4.325Y-6.1469
X4.775Y-5.45
X4.775Y-5.55
X4.775Y-5.65
X4.775Y-5.75
X4.775Y-5.85
X4.775Y-5.95
X4.775Y-6.05
X4.775Y-6.15
X5.6281Y-6.125
X5.825Y-6.125
X5.275Y-5.45
X5.275Y-5.55
X5.275Y-5.65
X5.275Y-5.75
X5.275Y-5.85
X5.275Y-5.95
X5.275Y-6.05
X5.275Y-6.15
X5.625Y-5.45
X5.625Y-5.55
X5.625Y-5.65
X5.625Y-5.75
X4.58Y-5.44
X4.58Y-5.54
X1.8219Y-4.2469
X1.8219Y-4.3469
X1.8219Y-4.4469
X1.8219Y-4.5469
X1.8219Y-4.6469
X1.8219Y-4.7469
X1.8219Y-4.8469
X1.8219Y-4.9469
X1.8219Y-5.0469
X1.8219Y-5.1469
X1.8219Y-5.2469
X1.8219Y-5.3469
X1.8219Y-5.4469
X1.8219Y-5.5469
X1.8219Y-5.6469
X1.8219Y-5.7469
X1.8219Y-5.8469
X1.8219Y-5.9469
X1.8219Y-6.0469
X1.8219Y-6.1469
X1.9219Y-4.2469
X1.9219Y-4.3469
X1.9219Y-4.4469
X1.9219Y-4.5469
X1.9219Y-4.6469
X1.9219Y-4.7469
X1.9219Y-4.8469
X1.9219Y-4.9469
X1.9219Y-5.0469
X1.9219Y-5.1469
X1.9219Y-5.2469
X1.9219Y-5.3469
X1.9219Y-5.4469
X1.9219Y-5.5469
X1.9219Y-5.6469
X1.9219Y-5.7469
X1.9219Y-5.8469
X1.9219Y-5.9469
X1.9219Y-6.0469
X1.9219Y-6.1469
X0.75Y-5.525
X0.75Y-5.625
X0.75Y-5.725
X4.85Y-6.8
X4.95Y-6.8
X5.05Y-6.8
X5.15Y-6.8
X5.175Y-4.95
X5.175Y-5.05
X5.175Y-5.15
X4.86Y-4.44
X4.86Y-4.54
X4.86Y-4.64
X5.1Y-4.1831
X5.1Y-4.38
X4.64Y-4.44
X4.64Y-4.54
X4.64Y-4.64
X4.625Y-4.95
X4.625Y-5.05
X4.625Y-5.15
X5.525Y-3.95
X5.525Y-4.05
X5.525Y-4.15
X4.95Y-3.325
X4.95Y-3.5219
T5
X1.375Y-6.125
X1.375Y-6.225
X1.375Y-6.325
X4.4Y-3.75
X4.4Y-3.85
X4.4Y-3.95
X0.475Y-6.125
X0.475Y-6.225
X0.475Y-6.325
X0.925Y-6.125
X0.925Y-6.225
X0.925Y-6.325
T6
X5.325Y-3.35
X5.525Y-3.35
X5.625Y-6.65
X5.825Y-6.65
X2.525Y-6.775
X2.725Y-6.775
T7
X1.85Y-6.8
X2.05Y-6.8
X0.75Y-6.8
X0.95Y-6.8
X1.3Y-6.8
X1.5Y-6.8
T0
M30
