M48
; DRILL file {KiCad (5.1.6)-1} date 02/11/23 22:10:49
; FORMAT={-:-/ absolute / inch / decimal}
; #@! TF.CreationDate,2023-02-11T22:10:49+01:00
; #@! TF.GenerationSoftware,Kicad,Pcbnew,(5.1.6)-1
; #@! TF.FileFunction,Plated,1,2,PTH
FMAT,2
INCH
T1C0.0236
T2C0.0315
T3C0.0374
T4C0.0394
T5C0.0433
T6C0.0512
%
G90
G05
T1
X1.725Y-6.325
X2.1Y-3.0593
X2.1Y-5.7469
X2.125Y-6.325
X2.1937Y-1.2563
X2.1937Y-2.2563
X2.2Y-2.95
X2.2Y-5.65
X2.3Y-3.175
X2.525Y-6.325
X2.775Y-3.175
X2.9219Y-5.1469
X2.925Y-6.325
X2.95Y-2.525
X3.325Y-6.325
X3.5375Y-5.7625
X3.575Y-2.5821
X3.7Y-2.525
X3.725Y-6.325
X3.85Y-5.25
X3.8969Y-5.8031
X3.8969Y-6.7219
X3.9Y-2.625
X3.925Y-5.0443
X3.925Y-5.0443
X4.0Y-3.025
X4.0Y-4.95
X4.025Y-6.65
X4.025Y-6.9
X4.1031Y-5.3469
X4.125Y-2.75
T2
X2.775Y-2.0
X3.175Y-2.0
X3.475Y-4.075
X4.075Y-4.075
X4.025Y-6.4463
X4.025Y-6.525
X4.45Y-3.875
X4.45Y-4.075
X4.55Y-3.975
X2.625Y-1.725
X2.625Y-1.8037
X2.625Y-1.8825
X2.625Y-1.9612
X2.625Y-2.04
X2.625Y-2.1187
X2.625Y-2.1974
X2.625Y-2.2762
X2.625Y-2.3549
X2.625Y-2.4337
X2.95Y-2.675
X2.95Y-2.775
X2.95Y-2.875
X1.75Y-1.725
X1.75Y-1.8037
X1.75Y-1.8825
X1.75Y-1.9612
X1.75Y-2.04
X1.75Y-2.1187
X1.75Y-2.1974
X1.75Y-2.2762
X1.75Y-2.3549
X1.75Y-2.4337
T3
X1.8Y-2.725
X1.8984Y-2.725
X1.9969Y-2.725
X2.0953Y-2.725
X2.1937Y-2.725
X2.925Y-6.525
X2.925Y-6.6234
X2.925Y-6.7219
X3.725Y-6.525
X3.725Y-6.6234
X3.725Y-6.7219
X3.325Y-6.525
X3.325Y-6.6234
X3.325Y-6.7219
X2.125Y-6.525
X2.125Y-6.6234
X2.125Y-6.7219
X1.725Y-6.525
X1.725Y-6.6234
X1.725Y-6.7219
X2.525Y-6.525
X2.525Y-6.6234
X2.525Y-6.7219
T4
X3.05Y-3.2
X3.2469Y-3.2
X3.05Y-2.325
X3.2469Y-2.325
X1.85Y-7.075
X1.85Y-7.2719
X3.475Y-7.075
X3.475Y-7.2719
X3.05Y-1.8
X3.15Y-1.8
X3.25Y-1.8
X3.35Y-2.675
X3.35Y-2.775
X3.35Y-2.875
X4.225Y-4.2469
X4.225Y-4.3469
X4.225Y-4.4469
X4.225Y-4.5469
X4.225Y-4.6469
X4.225Y-4.7469
X4.225Y-4.8469
X4.225Y-4.9469
X4.225Y-5.0469
X4.225Y-5.1469
X4.225Y-5.2469
X4.225Y-5.3469
X4.225Y-5.4469
X4.225Y-5.5469
X4.225Y-5.6469
X4.225Y-5.7469
X4.225Y-5.8469
X4.225Y-5.9469
X4.225Y-6.0469
X4.225Y-6.1469
X4.325Y-4.2469
X4.325Y-4.3469
X4.325Y-4.4469
X4.325Y-4.5469
X4.325Y-4.6469
X4.325Y-4.7469
X4.325Y-4.8469
X4.325Y-4.9469
X4.325Y-5.0469
X4.325Y-5.1469
X4.325Y-5.2469
X4.325Y-5.3469
X4.325Y-5.4469
X4.325Y-5.5469
X4.325Y-5.6469
X4.325Y-5.7469
X4.325Y-5.8469
X4.325Y-5.9469
X4.325Y-6.0469
X4.325Y-6.1469
X4.275Y-6.625
X4.275Y-6.725
X4.275Y-6.825
X4.125Y-7.15
X4.125Y-7.25
X4.125Y-7.35
X3.85Y-7.175
X3.85Y-7.275
X3.85Y-7.375
X3.575Y-2.325
X3.675Y-2.325
X3.775Y-2.325
X3.875Y-2.325
X3.975Y-2.325
X4.075Y-2.325
X3.7Y-2.75
X3.7Y-2.85
X3.8Y-2.75
X3.8Y-2.85
X3.9Y-2.75
X3.9Y-2.85
X4.0Y-2.75
X4.0Y-2.85
X1.8219Y-4.2469
X1.8219Y-4.3469
X1.8219Y-4.4469
X1.8219Y-4.5469
X1.8219Y-4.6469
X1.8219Y-4.7469
X1.8219Y-4.8469
X1.8219Y-4.9469
X1.8219Y-5.0469
X1.8219Y-5.1469
X1.8219Y-5.2469
X1.8219Y-5.3469
X1.8219Y-5.4469
X1.8219Y-5.5469
X1.8219Y-5.6469
X1.8219Y-5.7469
X1.8219Y-5.8469
X1.8219Y-5.9469
X1.8219Y-6.0469
X1.8219Y-6.1469
X1.9219Y-4.2469
X1.9219Y-4.3469
X1.9219Y-4.4469
X1.9219Y-4.5469
X1.9219Y-4.6469
X1.9219Y-4.7469
X1.9219Y-4.8469
X1.9219Y-4.9469
X1.9219Y-5.0469
X1.9219Y-5.1469
X1.9219Y-5.2469
X1.9219Y-5.3469
X1.9219Y-5.4469
X1.9219Y-5.5469
X1.9219Y-5.6469
X1.9219Y-5.7469
X1.9219Y-5.8469
X1.9219Y-5.9469
X1.9219Y-6.0469
X1.9219Y-6.1469
X4.175Y-3.4
X4.175Y-3.5
X4.175Y-3.6
T5
X3.0Y-7.075
X3.0Y-7.175
X3.0Y-7.275
T6
X3.75Y-7.6
X3.75Y-7.8
X2.275Y-7.6
X2.275Y-7.8
T0
M30
