%TF.GenerationSoftware,KiCad,Pcbnew,(5.1.6)-1*%
%TF.CreationDate,2023-02-11T22:10:46+01:00*%
%TF.ProjectId,CapteursVoiture,43617074-6575-4727-9356-6f6974757265,rev?*%
%TF.SameCoordinates,Original*%
%TF.FileFunction,Copper,L1,Top*%
%TF.FilePolarity,Positive*%
%FSLAX46Y46*%
G04 Gerber Fmt 4.6, Leading zero omitted, Abs format (unit mm)*
G04 Created by KiCad (PCBNEW (5.1.6)-1) date 2023-02-11 22:10:46*
%MOMM*%
%LPD*%
G01*
G04 APERTURE LIST*
%TA.AperFunction,ComponentPad*%
%ADD10O,1.700000X1.700000*%
%TD*%
%TA.AperFunction,ComponentPad*%
%ADD11R,1.700000X1.700000*%
%TD*%
%TA.AperFunction,ComponentPad*%
%ADD12R,2.000000X2.000000*%
%TD*%
%TA.AperFunction,ComponentPad*%
%ADD13C,2.000000*%
%TD*%
%TA.AperFunction,ComponentPad*%
%ADD14R,1.350000X1.350000*%
%TD*%
%TA.AperFunction,ComponentPad*%
%ADD15O,1.350000X1.350000*%
%TD*%
%TA.AperFunction,ComponentPad*%
%ADD16O,1.700000X1.950000*%
%TD*%
%TA.AperFunction,ComponentPad*%
%ADD17O,1.950000X1.700000*%
%TD*%
%TA.AperFunction,ComponentPad*%
%ADD18R,2.600000X2.600000*%
%TD*%
%TA.AperFunction,ComponentPad*%
%ADD19C,2.600000*%
%TD*%
%TA.AperFunction,ComponentPad*%
%ADD20R,2.000000X1.905000*%
%TD*%
%TA.AperFunction,ComponentPad*%
%ADD21O,2.000000X1.905000*%
%TD*%
%TA.AperFunction,ComponentPad*%
%ADD22C,1.500000*%
%TD*%
%TA.AperFunction,ComponentPad*%
%ADD23R,1.500000X1.500000*%
%TD*%
%TA.AperFunction,ComponentPad*%
%ADD24C,1.600000*%
%TD*%
%TA.AperFunction,ComponentPad*%
%ADD25O,1.600000X1.600000*%
%TD*%
%TA.AperFunction,ComponentPad*%
%ADD26C,1.440000*%
%TD*%
%TA.AperFunction,ViaPad*%
%ADD27C,1.500000*%
%TD*%
%TA.AperFunction,Conductor*%
%ADD28C,1.500000*%
%TD*%
%TA.AperFunction,Conductor*%
%ADD29C,1.000000*%
%TD*%
G04 APERTURE END LIST*
D10*
%TO.P,J15,3*%
%TO.N,GND*%
X104775000Y-186690000D03*
%TO.P,J15,2*%
%TO.N,5V*%
X104775000Y-184150000D03*
D11*
%TO.P,J15,1*%
%TO.N,NUC_DIR*%
X104775000Y-181610000D03*
%TD*%
D12*
%TO.P,C4,1*%
%TO.N,5V_REG*%
X88265000Y-179705000D03*
D13*
%TO.P,C4,2*%
%TO.N,GND*%
X88265000Y-184705000D03*
%TD*%
D14*
%TO.P,J19,1*%
%TO.N,5V_REG*%
X102235000Y-165735000D03*
D15*
%TO.P,J19,2*%
%TO.N,5V_REG_VIN*%
X102235000Y-163735000D03*
%TD*%
%TO.P,J17,1*%
%TO.N,5V*%
%TA.AperFunction,ComponentPad*%
G36*
G01*
X44870000Y-69940000D02*
X44870000Y-68490000D01*
G75*
G02*
X45120000Y-68240000I250000J0D01*
G01*
X46320000Y-68240000D01*
G75*
G02*
X46570000Y-68490000I0J-250000D01*
G01*
X46570000Y-69940000D01*
G75*
G02*
X46320000Y-70190000I-250000J0D01*
G01*
X45120000Y-70190000D01*
G75*
G02*
X44870000Y-69940000I0J250000D01*
G01*
G37*
%TD.AperFunction*%
D16*
%TO.P,J17,2*%
%TO.N,RX_4*%
X48220000Y-69215000D03*
%TO.P,J17,3*%
%TO.N,TX_4*%
X50720000Y-69215000D03*
%TO.P,J17,4*%
%TO.N,GND*%
X53220000Y-69215000D03*
%TO.P,J17,5*%
%TO.N,Lidar_MOT*%
X55720000Y-69215000D03*
%TD*%
D11*
%TO.P,J8,1*%
%TO.N,Net-(J8-Pad1)*%
X90805000Y-59055000D03*
D10*
%TO.P,J8,2*%
%TO.N,5V*%
X93345000Y-59055000D03*
%TO.P,J8,3*%
%TO.N,GND*%
X95885000Y-59055000D03*
%TO.P,J8,4*%
%TO.N,RX*%
X98425000Y-59055000D03*
%TO.P,J8,5*%
%TO.N,TX*%
X100965000Y-59055000D03*
%TO.P,J8,6*%
%TO.N,Net-(J8-Pad6)*%
X103505000Y-59055000D03*
%TD*%
D13*
%TO.P,C1,2*%
%TO.N,GND*%
X46990000Y-184705000D03*
D12*
%TO.P,C1,1*%
%TO.N,VIN*%
X46990000Y-179705000D03*
%TD*%
D13*
%TO.P,C2,2*%
%TO.N,GND*%
X82470000Y-81280000D03*
D12*
%TO.P,C2,1*%
%TO.N,5V*%
X77470000Y-81280000D03*
%TD*%
%TO.P,C3,1*%
%TO.N,3.3V*%
X77470000Y-59055000D03*
D13*
%TO.P,C3,2*%
%TO.N,GND*%
X82470000Y-59055000D03*
%TD*%
D17*
%TO.P,J1,3*%
%TO.N,5V*%
X43815000Y-170735000D03*
%TO.P,J1,2*%
%TO.N,GND*%
X43815000Y-168235000D03*
%TO.P,J1,1*%
%TO.N,VCapt1*%
%TA.AperFunction,ComponentPad*%
G36*
G01*
X43090000Y-164885000D02*
X44540000Y-164885000D01*
G75*
G02*
X44790000Y-165135000I0J-250000D01*
G01*
X44790000Y-166335000D01*
G75*
G02*
X44540000Y-166585000I-250000J0D01*
G01*
X43090000Y-166585000D01*
G75*
G02*
X42840000Y-166335000I0J250000D01*
G01*
X42840000Y-165135000D01*
G75*
G02*
X43090000Y-164885000I250000J0D01*
G01*
G37*
%TD.AperFunction*%
%TD*%
%TO.P,J2,1*%
%TO.N,VCapt2*%
%TA.AperFunction,ComponentPad*%
G36*
G01*
X53250000Y-164885000D02*
X54700000Y-164885000D01*
G75*
G02*
X54950000Y-165135000I0J-250000D01*
G01*
X54950000Y-166335000D01*
G75*
G02*
X54700000Y-166585000I-250000J0D01*
G01*
X53250000Y-166585000D01*
G75*
G02*
X53000000Y-166335000I0J250000D01*
G01*
X53000000Y-165135000D01*
G75*
G02*
X53250000Y-164885000I250000J0D01*
G01*
G37*
%TD.AperFunction*%
%TO.P,J2,2*%
%TO.N,GND*%
X53975000Y-168235000D03*
%TO.P,J2,3*%
%TO.N,5V*%
X53975000Y-170735000D03*
%TD*%
%TO.P,J3,1*%
%TO.N,VCapt3*%
%TA.AperFunction,ComponentPad*%
G36*
G01*
X93890000Y-164885000D02*
X95340000Y-164885000D01*
G75*
G02*
X95590000Y-165135000I0J-250000D01*
G01*
X95590000Y-166335000D01*
G75*
G02*
X95340000Y-166585000I-250000J0D01*
G01*
X93890000Y-166585000D01*
G75*
G02*
X93640000Y-166335000I0J250000D01*
G01*
X93640000Y-165135000D01*
G75*
G02*
X93890000Y-164885000I250000J0D01*
G01*
G37*
%TD.AperFunction*%
%TO.P,J3,2*%
%TO.N,GND*%
X94615000Y-168235000D03*
%TO.P,J3,3*%
%TO.N,5V*%
X94615000Y-170735000D03*
%TD*%
%TO.P,J4,3*%
%TO.N,5V*%
X84455000Y-170735000D03*
%TO.P,J4,2*%
%TO.N,GND*%
X84455000Y-168235000D03*
%TO.P,J4,1*%
%TO.N,VCapt4*%
%TA.AperFunction,ComponentPad*%
G36*
G01*
X83730000Y-164885000D02*
X85180000Y-164885000D01*
G75*
G02*
X85430000Y-165135000I0J-250000D01*
G01*
X85430000Y-166335000D01*
G75*
G02*
X85180000Y-166585000I-250000J0D01*
G01*
X83730000Y-166585000D01*
G75*
G02*
X83480000Y-166335000I0J250000D01*
G01*
X83480000Y-165135000D01*
G75*
G02*
X83730000Y-164885000I250000J0D01*
G01*
G37*
%TD.AperFunction*%
%TD*%
%TO.P,J5,1*%
%TO.N,VCapt5*%
%TA.AperFunction,ComponentPad*%
G36*
G01*
X73570000Y-164885000D02*
X75020000Y-164885000D01*
G75*
G02*
X75270000Y-165135000I0J-250000D01*
G01*
X75270000Y-166335000D01*
G75*
G02*
X75020000Y-166585000I-250000J0D01*
G01*
X73570000Y-166585000D01*
G75*
G02*
X73320000Y-166335000I0J250000D01*
G01*
X73320000Y-165135000D01*
G75*
G02*
X73570000Y-164885000I250000J0D01*
G01*
G37*
%TD.AperFunction*%
%TO.P,J5,2*%
%TO.N,GND*%
X74295000Y-168235000D03*
%TO.P,J5,3*%
%TO.N,5V*%
X74295000Y-170735000D03*
%TD*%
%TO.P,J6,3*%
%TO.N,5V*%
X64135000Y-170735000D03*
%TO.P,J6,2*%
%TO.N,GND*%
X64135000Y-168235000D03*
%TO.P,J6,1*%
%TO.N,VCaptLD*%
%TA.AperFunction,ComponentPad*%
G36*
G01*
X63410000Y-164885000D02*
X64860000Y-164885000D01*
G75*
G02*
X65110000Y-165135000I0J-250000D01*
G01*
X65110000Y-166335000D01*
G75*
G02*
X64860000Y-166585000I-250000J0D01*
G01*
X63410000Y-166585000D01*
G75*
G02*
X63160000Y-166335000I0J250000D01*
G01*
X63160000Y-165135000D01*
G75*
G02*
X63410000Y-164885000I250000J0D01*
G01*
G37*
%TD.AperFunction*%
%TD*%
D11*
%TO.P,J7,1*%
%TO.N,5V_NUC*%
X108585000Y-168275000D03*
D10*
%TO.P,J7,2*%
%TO.N,5V*%
X108585000Y-170815000D03*
%TO.P,J7,3*%
%TO.N,5V_REG*%
X108585000Y-173355000D03*
%TD*%
D18*
%TO.P,J12,1*%
%TO.N,GND*%
X95250000Y-198120000D03*
D19*
%TO.P,J12,2*%
%TO.N,VIN*%
X95250000Y-193040000D03*
%TD*%
D18*
%TO.P,J13,1*%
%TO.N,GND*%
X57785000Y-198120000D03*
D19*
%TO.P,J13,2*%
%TO.N,VIN*%
X57785000Y-193040000D03*
%TD*%
D20*
%TO.P,U1,1*%
%TO.N,VIN*%
X76200000Y-184785000D03*
D21*
%TO.P,U1,2*%
%TO.N,GND*%
X76200000Y-182245000D03*
%TO.P,U1,3*%
%TO.N,5V_REG*%
X76200000Y-179705000D03*
%TD*%
D10*
%TO.P,J10,40*%
%TO.N,VCaptLD*%
X48815001Y-156130001D03*
%TO.P,J10,39*%
%TO.N,VCapt2*%
X46275001Y-156130001D03*
%TO.P,J10,38*%
%TO.N,VCapt5*%
X48815001Y-153590001D03*
%TO.P,J10,37*%
%TO.N,VCapt1*%
X46275001Y-153590001D03*
%TO.P,J10,36*%
%TO.N,VCapt4*%
X48815001Y-151050001D03*
%TO.P,J10,35*%
%TO.N,Net-(J10-Pad35)*%
X46275001Y-151050001D03*
%TO.P,J10,34*%
%TO.N,VCapt3*%
X48815001Y-148510001D03*
%TO.P,J10,33*%
%TO.N,Net-(J10-Pad33)*%
X46275001Y-148510001D03*
%TO.P,J10,32*%
%TO.N,RX_4*%
X48815001Y-145970001D03*
%TO.P,J10,31*%
%TO.N,Net-(J10-Pad31)*%
X46275001Y-145970001D03*
%TO.P,J10,30*%
%TO.N,TX_4*%
X48815001Y-143430001D03*
%TO.P,J10,29*%
%TO.N,Net-(J10-Pad29)*%
X46275001Y-143430001D03*
%TO.P,J10,28*%
%TO.N,Net-(J10-Pad28)*%
X48815001Y-140890001D03*
%TO.P,J10,27*%
%TO.N,RESET_N*%
X46275001Y-140890001D03*
%TO.P,J10,26*%
%TO.N,5V_REG_VIN*%
X48815001Y-138350001D03*
%TO.P,J10,25*%
%TO.N,Net-(J10-Pad25)*%
X46275001Y-138350001D03*
%TO.P,J10,24*%
%TO.N,GND*%
X48815001Y-135810001D03*
%TO.P,J10,23*%
%TO.N,Net-(J10-Pad23)*%
X46275001Y-135810001D03*
%TO.P,J10,22*%
%TO.N,GND*%
X48815001Y-133270001D03*
%TO.P,J10,21*%
X46275001Y-133270001D03*
%TO.P,J10,20*%
%TO.N,5V_NUC*%
X48815001Y-130730001D03*
%TO.P,J10,19*%
%TO.N,Net-(J10-Pad19)*%
X46275001Y-130730001D03*
%TO.P,J10,18*%
%TO.N,3.3V_NUC*%
X48815001Y-128190001D03*
%TO.P,J10,17*%
%TO.N,Net-(J10-Pad17)*%
X46275001Y-128190001D03*
%TO.P,J10,16*%
%TO.N,Net-(J10-Pad16)*%
X48815001Y-125650001D03*
%TO.P,J10,15*%
%TO.N,Net-(J10-Pad15)*%
X46275001Y-125650001D03*
%TO.P,J10,14*%
%TO.N,Net-(J10-Pad14)*%
X48815001Y-123110001D03*
%TO.P,J10,13*%
%TO.N,Net-(J10-Pad13)*%
X46275001Y-123110001D03*
%TO.P,J10,12*%
%TO.N,Net-(J10-Pad12)*%
X48815001Y-120570001D03*
%TO.P,J10,11*%
%TO.N,Net-(J10-Pad11)*%
X46275001Y-120570001D03*
%TO.P,J10,10*%
%TO.N,Net-(J10-Pad10)*%
X48815001Y-118030001D03*
%TO.P,J10,9*%
%TO.N,Net-(J10-Pad9)*%
X46275001Y-118030001D03*
%TO.P,J10,8*%
%TO.N,Net-(J10-Pad8)*%
X48815001Y-115490001D03*
%TO.P,J10,7*%
%TO.N,Net-(J10-Pad7)*%
X46275001Y-115490001D03*
%TO.P,J10,6*%
%TO.N,GPIO2_STATUS*%
X48815001Y-112950001D03*
%TO.P,J10,5*%
%TO.N,Net-(J10-Pad5)*%
X46275001Y-112950001D03*
%TO.P,J10,4*%
%TO.N,RX*%
X48815001Y-110410001D03*
%TO.P,J10,3*%
%TO.N,TX*%
X46275001Y-110410001D03*
%TO.P,J10,2*%
%TO.N,Net-(J10-Pad2)*%
X48815001Y-107870001D03*
D11*
%TO.P,J10,1*%
%TO.N,Net-(J10-Pad1)*%
X46275001Y-107870001D03*
%TD*%
%TO.P,J14,1*%
%TO.N,Net-(J14-Pad1)*%
X107315000Y-107870001D03*
D10*
%TO.P,J14,2*%
%TO.N,Net-(J14-Pad2)*%
X109855000Y-107870001D03*
%TO.P,J14,3*%
%TO.N,NUC_MOT*%
X107315000Y-110410001D03*
%TO.P,J14,4*%
%TO.N,Net-(J14-Pad4)*%
X109855000Y-110410001D03*
%TO.P,J14,5*%
%TO.N,Net-(J14-Pad5)*%
X107315000Y-112950001D03*
%TO.P,J14,6*%
%TO.N,Net-(J14-Pad6)*%
X109855000Y-112950001D03*
%TO.P,J14,7*%
%TO.N,Lidar_MOT*%
X107315000Y-115490001D03*
%TO.P,J14,8*%
%TO.N,VPOT*%
X109855000Y-115490001D03*
%TO.P,J14,9*%
%TO.N,Net-(J14-Pad9)*%
X107315000Y-118030001D03*
%TO.P,J14,10*%
%TO.N,Net-(J14-Pad10)*%
X109855000Y-118030001D03*
%TO.P,J14,11*%
%TO.N,Net-(J14-Pad11)*%
X107315000Y-120570001D03*
%TO.P,J14,12*%
%TO.N,Net-(J14-Pad12)*%
X109855000Y-120570001D03*
%TO.P,J14,13*%
%TO.N,SCK*%
X107315000Y-123110001D03*
%TO.P,J14,14*%
%TO.N,Net-(J14-Pad14)*%
X109855000Y-123110001D03*
%TO.P,J14,15*%
%TO.N,MISO*%
X107315000Y-125650001D03*
%TO.P,J14,16*%
%TO.N,Net-(J14-Pad16)*%
X109855000Y-125650001D03*
%TO.P,J14,17*%
%TO.N,MOSI*%
X107315000Y-128190001D03*
%TO.P,J14,18*%
%TO.N,Net-(J14-Pad18)*%
X109855000Y-128190001D03*
%TO.P,J14,19*%
%TO.N,Net-(J14-Pad19)*%
X107315000Y-130730001D03*
%TO.P,J14,20*%
%TO.N,Net-(J14-Pad20)*%
X109855000Y-130730001D03*
%TO.P,J14,21*%
%TO.N,CSN_nRF*%
X107315000Y-133270001D03*
%TO.P,J14,22*%
%TO.N,GND*%
X109855000Y-133270001D03*
%TO.P,J14,23*%
%TO.N,IRQ_nRF*%
X107315000Y-135810001D03*
%TO.P,J14,24*%
%TO.N,Net-(J14-Pad24)*%
X109855000Y-135810001D03*
%TO.P,J14,25*%
%TO.N,CE_nRF*%
X107315000Y-138350001D03*
%TO.P,J14,26*%
%TO.N,Net-(J14-Pad26)*%
X109855000Y-138350001D03*
%TO.P,J14,27*%
%TO.N,Net-(J14-Pad27)*%
X107315000Y-140890001D03*
%TO.P,J14,28*%
%TO.N,Net-(J14-Pad28)*%
X109855000Y-140890001D03*
%TO.P,J14,29*%
%TO.N,Net-(J14-Pad29)*%
X107315000Y-143430001D03*
%TO.P,J14,30*%
%TO.N,Net-(J14-Pad30)*%
X109855000Y-143430001D03*
%TO.P,J14,31*%
%TO.N,Net-(J14-Pad31)*%
X107315000Y-145970001D03*
%TO.P,J14,32*%
%TO.N,NUC_DIR*%
X109855000Y-145970001D03*
%TO.P,J14,33*%
%TO.N,Net-(J14-Pad33)*%
X107315000Y-148510001D03*
%TO.P,J14,34*%
%TO.N,Net-(J14-Pad34)*%
X109855000Y-148510001D03*
%TO.P,J14,35*%
%TO.N,Net-(J14-Pad35)*%
X107315000Y-151050001D03*
%TO.P,J14,36*%
%TO.N,Net-(J14-Pad36)*%
X109855000Y-151050001D03*
%TO.P,J14,37*%
%TO.N,Net-(J14-Pad37)*%
X107315000Y-153590001D03*
%TO.P,J14,38*%
%TO.N,Net-(J14-Pad38)*%
X109855000Y-153590001D03*
%TO.P,J14,39*%
%TO.N,Net-(J14-Pad39)*%
X107315000Y-156130001D03*
%TO.P,J14,40*%
%TO.N,Net-(J14-Pad40)*%
X109855000Y-156130001D03*
%TD*%
D22*
%TO.P,U2,2*%
%TO.N,GND*%
X74930000Y-70485000D03*
%TO.P,U2,3*%
%TO.N,5V*%
X74930000Y-73025000D03*
D23*
%TO.P,U2,1*%
%TO.N,3.3V*%
X74930000Y-67945000D03*
%TD*%
D11*
%TO.P,J16,1*%
%TO.N,NUC_MOT*%
X106045000Y-86360000D03*
D10*
%TO.P,J16,2*%
%TO.N,Net-(J16-Pad2)*%
X106045000Y-88900000D03*
%TO.P,J16,3*%
%TO.N,GND*%
X106045000Y-91440000D03*
%TD*%
D14*
%TO.P,J9,1*%
%TO.N,3.3V*%
X44450000Y-43815000D03*
D15*
%TO.P,J9,2*%
%TO.N,RX*%
X44450000Y-45815000D03*
%TO.P,J9,3*%
%TO.N,TX*%
X44450000Y-47815000D03*
%TO.P,J9,4*%
%TO.N,Net-(J9-Pad4)*%
X44450000Y-49815000D03*
%TO.P,J9,5*%
%TO.N,RESET_N*%
X44450000Y-51815000D03*
%TO.P,J9,6*%
%TO.N,Net-(J9-Pad6)*%
X44450000Y-53815000D03*
%TO.P,J9,7*%
%TO.N,Net-(J9-Pad7)*%
X44450000Y-55815000D03*
%TO.P,J9,8*%
%TO.N,Net-(J9-Pad8)*%
X44450000Y-57815000D03*
%TO.P,J9,9*%
%TO.N,Net-(J9-Pad9)*%
X44450000Y-59815000D03*
%TO.P,J9,10*%
%TO.N,GND*%
X44450000Y-61815000D03*
%TD*%
%TO.P,J11,10*%
%TO.N,Net-(J11-Pad10)*%
X66675000Y-61815000D03*
%TO.P,J11,9*%
%TO.N,Net-(J11-Pad9)*%
X66675000Y-59815000D03*
%TO.P,J11,8*%
%TO.N,GPIO2_STATUS*%
X66675000Y-57815000D03*
%TO.P,J11,7*%
%TO.N,Net-(J11-Pad7)*%
X66675000Y-55815000D03*
%TO.P,J11,6*%
%TO.N,Net-(J11-Pad6)*%
X66675000Y-53815000D03*
%TO.P,J11,5*%
%TO.N,Net-(J11-Pad5)*%
X66675000Y-51815000D03*
%TO.P,J11,4*%
%TO.N,Net-(J11-Pad4)*%
X66675000Y-49815000D03*
%TO.P,J11,3*%
%TO.N,Net-(J11-Pad3)*%
X66675000Y-47815000D03*
%TO.P,J11,2*%
%TO.N,Net-(J11-Pad2)*%
X66675000Y-45815000D03*
D14*
%TO.P,J11,1*%
%TO.N,Net-(J11-Pad1)*%
X66675000Y-43815000D03*
%TD*%
D11*
%TO.P,J18,1*%
%TO.N,GND*%
X85090000Y-73025000D03*
D10*
%TO.P,J18,2*%
X85090000Y-70485000D03*
%TO.P,J18,3*%
X85090000Y-67945000D03*
%TD*%
D11*
%TO.P,J20,1*%
%TO.N,5V_REG*%
X97790000Y-182245000D03*
D10*
%TO.P,J20,2*%
X97790000Y-184785000D03*
%TO.P,J20,3*%
X97790000Y-187325000D03*
%TD*%
%TO.P,J21,3*%
%TO.N,3.3V*%
X82550000Y-45720000D03*
%TO.P,J21,2*%
X80010000Y-45720000D03*
D11*
%TO.P,J21,1*%
X77470000Y-45720000D03*
%TD*%
D24*
%TO.P,R1,1*%
%TO.N,GND*%
X80645000Y-50800000D03*
D25*
%TO.P,R1,2*%
%TO.N,Net-(J11-Pad5)*%
X70485000Y-50800000D03*
%TD*%
D26*
%TO.P,RV1,3*%
%TO.N,GND*%
X113030000Y-98425000D03*
%TO.P,RV1,2*%
%TO.N,VPOT*%
X115570000Y-100965000D03*
%TO.P,RV1,1*%
%TO.N,Net-(R2-Pad1)*%
X113030000Y-103505000D03*
%TD*%
D11*
%TO.P,J22,1*%
%TO.N,GND*%
X93980000Y-72390000D03*
D10*
%TO.P,J22,2*%
%TO.N,3.3V*%
X93980000Y-69850000D03*
%TO.P,J22,3*%
%TO.N,CE_nRF*%
X96520000Y-72390000D03*
%TO.P,J22,4*%
%TO.N,CSN_nRF*%
X96520000Y-69850000D03*
%TO.P,J22,5*%
%TO.N,SCK*%
X99060000Y-72390000D03*
%TO.P,J22,6*%
%TO.N,MOSI*%
X99060000Y-69850000D03*
%TO.P,J22,7*%
%TO.N,MISO*%
X101600000Y-72390000D03*
%TO.P,J22,8*%
%TO.N,IRQ_nRF*%
X101600000Y-69850000D03*
%TD*%
D24*
%TO.P,R2,1*%
%TO.N,Net-(R2-Pad1)*%
X103505000Y-103505000D03*
D25*
%TO.P,R2,2*%
%TO.N,5V*%
X88265000Y-103505000D03*
%TD*%
D27*
%TO.N,5V*%
X70485000Y-80645000D03*
X58420000Y-80645000D03*
X98980000Y-170735000D03*
X98980000Y-147399996D03*
%TO.N,VCapt1*%
X43815000Y-160655000D03*
%TO.N,VCapt2*%
X53975000Y-160655000D03*
%TO.N,VCapt3*%
X94615000Y-160655000D03*
%TO.N,VCapt4*%
X84455000Y-160655000D03*
%TO.N,VCapt5*%
X74295000Y-160655000D03*
%TO.N,VCaptLD*%
X64135000Y-160655000D03*
%TO.N,3.3V*%
X93980000Y-64135000D03*
X74930000Y-64135000D03*
%TO.N,5V_REG*%
X102235000Y-175260000D03*
X102235000Y-168910000D03*
%TO.N,5V_NUC*%
X74215001Y-130730001D03*
X89852500Y-146367500D03*
%TO.N,RX_4*%
X53340006Y-145970001D03*
X53340004Y-77705606D03*
%TO.N,TX_4*%
X55880000Y-143509994D03*
X55880000Y-74930002D03*
%TO.N,Lidar_MOT*%
X55720000Y-57310000D03*
X55719996Y-31910004D03*
%TO.N,MISO*%
X101600000Y-125730000D03*
X101600000Y-76835000D03*
%TO.N,MOSI*%
X99695000Y-128124997D03*
X99695000Y-128124997D03*
X99060000Y-66675000D03*
%TO.N,CSN_nRF*%
X90805000Y-65585000D03*
X97790000Y-133350000D03*
%TO.N,IRQ_nRF*%
X104219999Y-135810001D03*
X104775000Y-69850000D03*
%TD*%
D28*
%TO.N,5V*%
X70485000Y-80645000D02*
X58420000Y-80645000D01*
X98980000Y-170735000D02*
X98980000Y-147399996D01*
D29*
%TO.N,3.3V*%
X93980000Y-64135000D02*
X74930000Y-64135000D01*
D28*
%TO.N,5V_REG*%
X102235000Y-175260000D02*
X102235000Y-168910000D01*
%TO.N,5V_NUC*%
X74215001Y-130730001D02*
X89852500Y-146367500D01*
%TO.N,RX_4*%
X53340006Y-145970001D02*
X53340004Y-145969999D01*
X53340006Y-77705608D02*
X53340004Y-77705606D01*
X53340006Y-145970001D02*
X53340006Y-77705608D01*
%TO.N,TX_4*%
X55880000Y-143509994D02*
X55880000Y-74930002D01*
D29*
%TO.N,Lidar_MOT*%
X55720000Y-31910008D02*
X55719996Y-31910004D01*
X55720000Y-57310000D02*
X55720000Y-31910008D01*
%TO.N,MISO*%
X101600000Y-125730000D02*
X101600000Y-76835000D01*
%TO.N,MOSI*%
X93345000Y-66675000D02*
X99060000Y-66675000D01*
X91440000Y-74930000D02*
X91440000Y-68580000D01*
X91440000Y-68580000D02*
X93345000Y-66675000D01*
X99695000Y-128124997D02*
X99695000Y-83185000D01*
X99695000Y-83185000D02*
X91440000Y-74930000D01*
%TO.N,CSN_nRF*%
X89535000Y-75565000D02*
X97790000Y-83820000D01*
X89535000Y-66675000D02*
X89535000Y-75565000D01*
X90805000Y-65585000D02*
X90625000Y-65585000D01*
X97790000Y-83820000D02*
X97790000Y-133350000D01*
X90625000Y-65585000D02*
X89535000Y-66675000D01*
%TO.N,IRQ_nRF*%
X104219999Y-130611001D02*
X104219999Y-135810001D01*
X104219999Y-106600001D02*
X104219999Y-130611001D01*
X106680000Y-104140000D02*
X104219999Y-106600001D01*
X106680000Y-99060000D02*
X106680000Y-104140000D01*
X104775000Y-69850000D02*
X104775000Y-80010000D01*
X103505000Y-81280000D02*
X103505000Y-95885000D01*
X104775000Y-80010000D02*
X103505000Y-81280000D01*
X103505000Y-95885000D02*
X106680000Y-99060000D01*
%TD*%
M02*
