%TF.GenerationSoftware,KiCad,Pcbnew,5.0.2-bee76a0~70~ubuntu18.04.1*%
%TF.CreationDate,2020-11-23T14:52:47+01:00*%
%TF.ProjectId,Carte_L298,43617274-655f-44c3-9239-382e6b696361,rev?*%
%TF.SameCoordinates,Original*%
%TF.FileFunction,Copper,L1,Top*%
%TF.FilePolarity,Positive*%
%FSLAX46Y46*%
G04 Gerber Fmt 4.6, Leading zero omitted, Abs format (unit mm)*
G04 Created by KiCad (PCBNEW 5.0.2-bee76a0~70~ubuntu18.04.1) date lun. 23 nov. 2020 14:52:47 CET*
%MOMM*%
%LPD*%
G01*
G04 APERTURE LIST*
%TA.AperFunction,ComponentPad*%
%ADD10C,1.600000*%
%TD*%
%TA.AperFunction,ComponentPad*%
%ADD11O,1.600000X1.600000*%
%TD*%
%TA.AperFunction,ComponentPad*%
%ADD12R,1.700000X1.700000*%
%TD*%
%TA.AperFunction,ComponentPad*%
%ADD13O,1.700000X1.700000*%
%TD*%
%TA.AperFunction,ComponentPad*%
%ADD14R,1.600000X2.400000*%
%TD*%
%TA.AperFunction,ComponentPad*%
%ADD15O,1.600000X2.400000*%
%TD*%
%TA.AperFunction,ViaPad*%
%ADD16C,1.200000*%
%TD*%
%TA.AperFunction,Conductor*%
%ADD17C,1.000000*%
%TD*%
G04 APERTURE END LIST*
D10*
%TO.P,R3,1*%
%TO.N,5V_C*%
X78105000Y-93345000D03*
D11*
%TO.P,R3,2*%
%TO.N,Net-(C1-Pad1)*%
X78105000Y-78105000D03*
%TD*%
D12*
%TO.P,J5,1*%
%TO.N,SenseA_C*%
X126365000Y-67945000D03*
D13*
%TO.P,J5,2*%
X128905000Y-67945000D03*
%TO.P,J5,3*%
%TO.N,IN1_C*%
X126365000Y-70485000D03*
%TO.P,J5,4*%
X128905000Y-70485000D03*
%TO.P,J5,5*%
%TO.N,EnA_C*%
X126365000Y-73025000D03*
%TO.P,J5,6*%
X128905000Y-73025000D03*
%TO.P,J5,7*%
%TO.N,IN2_C*%
X126365000Y-75565000D03*
%TO.P,J5,8*%
X128905000Y-75565000D03*
%TO.P,J5,9*%
%TO.N,GND_C*%
X126365000Y-78105000D03*
%TO.P,J5,10*%
X128905000Y-78105000D03*
%TO.P,J5,11*%
%TO.N,5V_C*%
X126365000Y-80645000D03*
%TO.P,J5,12*%
X128905000Y-80645000D03*
%TO.P,J5,13*%
%TO.N,IN3_C*%
X126365000Y-83185000D03*
%TO.P,J5,14*%
X128905000Y-83185000D03*
%TO.P,J5,15*%
%TO.N,EnB_C*%
X126365000Y-85725000D03*
%TO.P,J5,16*%
X128905000Y-85725000D03*
%TO.P,J5,17*%
%TO.N,IN4_C*%
X126365000Y-88265000D03*
%TO.P,J5,18*%
X128905000Y-88265000D03*
%TO.P,J5,19*%
%TO.N,SenseB_C*%
X126365000Y-90805000D03*
%TO.P,J5,20*%
X128905000Y-90805000D03*
%TD*%
%TO.P,J4,20*%
%TO.N,SenseB_C*%
X108585000Y-64135000D03*
%TO.P,J4,19*%
%TO.N,SenseA_C*%
X108585000Y-66675000D03*
%TO.P,J4,18*%
%TO.N,ENABLE*%
X106045000Y-64135000D03*
%TO.P,J4,17*%
X106045000Y-66675000D03*
%TO.P,J4,16*%
%TO.N,CONTROL*%
X103505000Y-64135000D03*
%TO.P,J4,15*%
X103505000Y-66675000D03*
%TO.P,J4,14*%
%TO.N,5V_C*%
X100965000Y-64135000D03*
%TO.P,J4,13*%
X100965000Y-66675000D03*
%TO.P,J4,12*%
%TO.N,GND_C*%
X98425000Y-64135000D03*
%TO.P,J4,11*%
X98425000Y-66675000D03*
%TO.P,J4,10*%
%TO.N,VREF_C*%
X95885000Y-64135000D03*
%TO.P,J4,9*%
X95885000Y-66675000D03*
%TO.P,J4,8*%
%TO.N,CW*%
X93345000Y-64135000D03*
%TO.P,J4,7*%
X93345000Y-66675000D03*
%TO.P,J4,6*%
%TO.N,CLOCK*%
X90805000Y-64135000D03*
%TO.P,J4,5*%
X90805000Y-66675000D03*
%TO.P,J4,4*%
%TO.N,HALF*%
X88265000Y-64135000D03*
%TO.P,J4,3*%
X88265000Y-66675000D03*
%TO.P,J4,2*%
%TO.N,RESET*%
X85725000Y-64135000D03*
D12*
%TO.P,J4,1*%
X85725000Y-66675000D03*
%TD*%
D14*
%TO.P,U2,1*%
%TO.N,Net-(U2-Pad1)*%
X85725000Y-85725000D03*
D15*
%TO.P,U2,11*%
%TO.N,CONTROL*%
X108585000Y-78105000D03*
%TO.P,U2,2*%
%TO.N,GND_C*%
X88265000Y-85725000D03*
%TO.P,U2,12*%
%TO.N,5V_C*%
X106045000Y-78105000D03*
%TO.P,U2,3*%
%TO.N,Net-(U2-Pad3)*%
X90805000Y-85725000D03*
%TO.P,U2,13*%
%TO.N,GND_C*%
X103505000Y-78105000D03*
%TO.P,U2,4*%
%TO.N,IN1_C*%
X93345000Y-85725000D03*
%TO.P,U2,14*%
%TO.N,GND_C*%
X100965000Y-78105000D03*
%TO.P,U2,5*%
%TO.N,EnA_C*%
X95885000Y-85725000D03*
%TO.P,U2,15*%
%TO.N,VREF_C*%
X98425000Y-78105000D03*
%TO.P,U2,6*%
%TO.N,IN2_C*%
X98425000Y-85725000D03*
%TO.P,U2,16*%
%TO.N,Net-(C1-Pad1)*%
X95885000Y-78105000D03*
%TO.P,U2,7*%
%TO.N,IN3_C*%
X100965000Y-85725000D03*
%TO.P,U2,17*%
%TO.N,CW*%
X93345000Y-78105000D03*
%TO.P,U2,8*%
%TO.N,EnB_C*%
X103505000Y-85725000D03*
%TO.P,U2,18*%
%TO.N,CLOCK*%
X90805000Y-78105000D03*
%TO.P,U2,9*%
%TO.N,IN4_C*%
X106045000Y-85725000D03*
%TO.P,U2,19*%
%TO.N,HALF*%
X88265000Y-78105000D03*
%TO.P,U2,10*%
%TO.N,ENABLE*%
X108585000Y-85725000D03*
%TO.P,U2,20*%
%TO.N,RESET*%
X85725000Y-78105000D03*
%TD*%
D10*
%TO.P,C1,1*%
%TO.N,Net-(C1-Pad1)*%
X73025000Y-78105000D03*
%TO.P,C1,2*%
%TO.N,GND_C*%
X73025000Y-83105000D03*
%TD*%
D16*
%TO.N,SenseB_C*%
X132080000Y-62865000D03*
X112395000Y-62865000D03*
%TO.N,SenseA_C*%
X126365000Y-64770004D03*
X112394996Y-64770004D03*
%TO.N,EnA_C*%
X88265000Y-96520000D03*
X95885000Y-96520000D03*
%TO.N,IN2_C*%
X111760000Y-75565000D03*
X121920000Y-75565000D03*
%TO.N,IN3_C*%
X116205000Y-83185000D03*
X111729990Y-83185000D03*
%TO.N,EnB_C*%
X116205000Y-90170000D03*
X116205004Y-85725000D03*
%TD*%
D17*
%TO.N,SenseB_C*%
X112395000Y-62865000D02*
X132080000Y-62865000D01*
%TO.N,SenseA_C*%
X112394996Y-64770004D02*
X126365000Y-64770004D01*
%TO.N,EnA_C*%
X95885000Y-96520000D02*
X88265000Y-96520000D01*
%TO.N,IN2_C*%
X111760000Y-75565000D02*
X121920000Y-75565000D01*
%TO.N,IN3_C*%
X111729990Y-83185000D02*
X116205000Y-83185000D01*
%TO.N,EnB_C*%
X116205004Y-85725000D02*
X116205004Y-90169996D01*
X116205004Y-90169996D02*
X116205000Y-90170000D01*
%TD*%
M02*
