%TF.GenerationSoftware,KiCad,Pcbnew,5.0.2-bee76a0~70~ubuntu18.04.1*%
%TF.CreationDate,2020-11-23T14:52:47+01:00*%
%TF.ProjectId,Carte_L298,43617274-655f-44c3-9239-382e6b696361,rev?*%
%TF.SameCoordinates,Original*%
%TF.FileFunction,Copper,L2,Bot*%
%TF.FilePolarity,Positive*%
%FSLAX46Y46*%
G04 Gerber Fmt 4.6, Leading zero omitted, Abs format (unit mm)*
G04 Created by KiCad (PCBNEW 5.0.2-bee76a0~70~ubuntu18.04.1) date lun. 23 nov. 2020 14:52:47 CET*
%MOMM*%
%LPD*%
G01*
G04 APERTURE LIST*
%TA.AperFunction,NonConductor*%
%ADD10C,0.300000*%
%TD*%
%TA.AperFunction,ComponentPad*%
%ADD11C,1.600000*%
%TD*%
%TA.AperFunction,ComponentPad*%
%ADD12O,1.600000X1.600000*%
%TD*%
%TA.AperFunction,ComponentPad*%
%ADD13R,1.700000X1.700000*%
%TD*%
%TA.AperFunction,ComponentPad*%
%ADD14O,1.700000X1.700000*%
%TD*%
%TA.AperFunction,ComponentPad*%
%ADD15R,1.600000X2.400000*%
%TD*%
%TA.AperFunction,ComponentPad*%
%ADD16O,1.600000X2.400000*%
%TD*%
%TA.AperFunction,ViaPad*%
%ADD17C,1.200000*%
%TD*%
%TA.AperFunction,Conductor*%
%ADD18C,1.000000*%
%TD*%
%TA.AperFunction,Conductor*%
%ADD19C,0.254000*%
%TD*%
G04 APERTURE END LIST*
D10*
X120862857Y-101643571D02*
X121577142Y-101643571D01*
X121577142Y-100143571D01*
X120362857Y-100857857D02*
X119862857Y-100857857D01*
X119648571Y-101643571D02*
X120362857Y-101643571D01*
X120362857Y-100143571D01*
X119648571Y-100143571D01*
X119005714Y-100643571D02*
X119005714Y-101643571D01*
X119005714Y-100786428D02*
X118934285Y-100715000D01*
X118791428Y-100643571D01*
X118577142Y-100643571D01*
X118434285Y-100715000D01*
X118362857Y-100857857D01*
X118362857Y-101643571D01*
X117720000Y-101572142D02*
X117577142Y-101643571D01*
X117291428Y-101643571D01*
X117148571Y-101572142D01*
X117077142Y-101429285D01*
X117077142Y-101357857D01*
X117148571Y-101215000D01*
X117291428Y-101143571D01*
X117505714Y-101143571D01*
X117648571Y-101072142D01*
X117720000Y-100929285D01*
X117720000Y-100857857D01*
X117648571Y-100715000D01*
X117505714Y-100643571D01*
X117291428Y-100643571D01*
X117148571Y-100715000D01*
X116434285Y-100857857D02*
X115934285Y-100857857D01*
X115720000Y-101643571D02*
X116434285Y-101643571D01*
X116434285Y-100143571D01*
X115720000Y-100143571D01*
X112862857Y-100072142D02*
X114148571Y-102000714D01*
X111291428Y-100286428D02*
X111220000Y-100215000D01*
X111077142Y-100143571D01*
X110720000Y-100143571D01*
X110577142Y-100215000D01*
X110505714Y-100286428D01*
X110434285Y-100429285D01*
X110434285Y-100572142D01*
X110505714Y-100786428D01*
X111362857Y-101643571D01*
X110434285Y-101643571D01*
X109505714Y-100143571D02*
X109362857Y-100143571D01*
X109220000Y-100215000D01*
X109148571Y-100286428D01*
X109077142Y-100429285D01*
X109005714Y-100715000D01*
X109005714Y-101072142D01*
X109077142Y-101357857D01*
X109148571Y-101500714D01*
X109220000Y-101572142D01*
X109362857Y-101643571D01*
X109505714Y-101643571D01*
X109648571Y-101572142D01*
X109720000Y-101500714D01*
X109791428Y-101357857D01*
X109862857Y-101072142D01*
X109862857Y-100715000D01*
X109791428Y-100429285D01*
X109720000Y-100286428D01*
X109648571Y-100215000D01*
X109505714Y-100143571D01*
X108434285Y-100286428D02*
X108362857Y-100215000D01*
X108220000Y-100143571D01*
X107862857Y-100143571D01*
X107720000Y-100215000D01*
X107648571Y-100286428D01*
X107577142Y-100429285D01*
X107577142Y-100572142D01*
X107648571Y-100786428D01*
X108505714Y-101643571D01*
X107577142Y-101643571D01*
X106648571Y-100143571D02*
X106505714Y-100143571D01*
X106362857Y-100215000D01*
X106291428Y-100286428D01*
X106220000Y-100429285D01*
X106148571Y-100715000D01*
X106148571Y-101072142D01*
X106220000Y-101357857D01*
X106291428Y-101500714D01*
X106362857Y-101572142D01*
X106505714Y-101643571D01*
X106648571Y-101643571D01*
X106791428Y-101572142D01*
X106862857Y-101500714D01*
X106934285Y-101357857D01*
X107005714Y-101072142D01*
X107005714Y-100715000D01*
X106934285Y-100429285D01*
X106862857Y-100286428D01*
X106791428Y-100215000D01*
X106648571Y-100143571D01*
X103291428Y-100072142D02*
X104577142Y-102000714D01*
X100934285Y-101643571D02*
X101648571Y-101643571D01*
X101648571Y-100143571D01*
X100505714Y-100286428D02*
X100434285Y-100215000D01*
X100291428Y-100143571D01*
X99934285Y-100143571D01*
X99791428Y-100215000D01*
X99720000Y-100286428D01*
X99648571Y-100429285D01*
X99648571Y-100572142D01*
X99720000Y-100786428D01*
X100577142Y-101643571D01*
X99648571Y-101643571D01*
X98934285Y-101643571D02*
X98648571Y-101643571D01*
X98505714Y-101572142D01*
X98434285Y-101500714D01*
X98291428Y-101286428D01*
X98220000Y-101000714D01*
X98220000Y-100429285D01*
X98291428Y-100286428D01*
X98362857Y-100215000D01*
X98505714Y-100143571D01*
X98791428Y-100143571D01*
X98934285Y-100215000D01*
X99005714Y-100286428D01*
X99077142Y-100429285D01*
X99077142Y-100786428D01*
X99005714Y-100929285D01*
X98934285Y-101000714D01*
X98791428Y-101072142D01*
X98505714Y-101072142D01*
X98362857Y-101000714D01*
X98291428Y-100929285D01*
X98220000Y-100786428D01*
X97720000Y-100143571D02*
X96720000Y-100143571D01*
X97362857Y-101643571D01*
D11*
%TO.P,R3,1*%
%TO.N,5V_C*%
X78105000Y-93345000D03*
D12*
%TO.P,R3,2*%
%TO.N,Net-(C1-Pad1)*%
X78105000Y-78105000D03*
%TD*%
D13*
%TO.P,J5,1*%
%TO.N,SenseA_C*%
X126365000Y-67945000D03*
D14*
%TO.P,J5,2*%
X128905000Y-67945000D03*
%TO.P,J5,3*%
%TO.N,IN1_C*%
X126365000Y-70485000D03*
%TO.P,J5,4*%
X128905000Y-70485000D03*
%TO.P,J5,5*%
%TO.N,EnA_C*%
X126365000Y-73025000D03*
%TO.P,J5,6*%
X128905000Y-73025000D03*
%TO.P,J5,7*%
%TO.N,IN2_C*%
X126365000Y-75565000D03*
%TO.P,J5,8*%
X128905000Y-75565000D03*
%TO.P,J5,9*%
%TO.N,GND_C*%
X126365000Y-78105000D03*
%TO.P,J5,10*%
X128905000Y-78105000D03*
%TO.P,J5,11*%
%TO.N,5V_C*%
X126365000Y-80645000D03*
%TO.P,J5,12*%
X128905000Y-80645000D03*
%TO.P,J5,13*%
%TO.N,IN3_C*%
X126365000Y-83185000D03*
%TO.P,J5,14*%
X128905000Y-83185000D03*
%TO.P,J5,15*%
%TO.N,EnB_C*%
X126365000Y-85725000D03*
%TO.P,J5,16*%
X128905000Y-85725000D03*
%TO.P,J5,17*%
%TO.N,IN4_C*%
X126365000Y-88265000D03*
%TO.P,J5,18*%
X128905000Y-88265000D03*
%TO.P,J5,19*%
%TO.N,SenseB_C*%
X126365000Y-90805000D03*
%TO.P,J5,20*%
X128905000Y-90805000D03*
%TD*%
%TO.P,J4,20*%
%TO.N,SenseB_C*%
X108585000Y-64135000D03*
%TO.P,J4,19*%
%TO.N,SenseA_C*%
X108585000Y-66675000D03*
%TO.P,J4,18*%
%TO.N,ENABLE*%
X106045000Y-64135000D03*
%TO.P,J4,17*%
X106045000Y-66675000D03*
%TO.P,J4,16*%
%TO.N,CONTROL*%
X103505000Y-64135000D03*
%TO.P,J4,15*%
X103505000Y-66675000D03*
%TO.P,J4,14*%
%TO.N,5V_C*%
X100965000Y-64135000D03*
%TO.P,J4,13*%
X100965000Y-66675000D03*
%TO.P,J4,12*%
%TO.N,GND_C*%
X98425000Y-64135000D03*
%TO.P,J4,11*%
X98425000Y-66675000D03*
%TO.P,J4,10*%
%TO.N,VREF_C*%
X95885000Y-64135000D03*
%TO.P,J4,9*%
X95885000Y-66675000D03*
%TO.P,J4,8*%
%TO.N,CW*%
X93345000Y-64135000D03*
%TO.P,J4,7*%
X93345000Y-66675000D03*
%TO.P,J4,6*%
%TO.N,CLOCK*%
X90805000Y-64135000D03*
%TO.P,J4,5*%
X90805000Y-66675000D03*
%TO.P,J4,4*%
%TO.N,HALF*%
X88265000Y-64135000D03*
%TO.P,J4,3*%
X88265000Y-66675000D03*
%TO.P,J4,2*%
%TO.N,RESET*%
X85725000Y-64135000D03*
D13*
%TO.P,J4,1*%
X85725000Y-66675000D03*
%TD*%
D15*
%TO.P,U2,1*%
%TO.N,Net-(U2-Pad1)*%
X85725000Y-85725000D03*
D16*
%TO.P,U2,11*%
%TO.N,CONTROL*%
X108585000Y-78105000D03*
%TO.P,U2,2*%
%TO.N,GND_C*%
X88265000Y-85725000D03*
%TO.P,U2,12*%
%TO.N,5V_C*%
X106045000Y-78105000D03*
%TO.P,U2,3*%
%TO.N,Net-(U2-Pad3)*%
X90805000Y-85725000D03*
%TO.P,U2,13*%
%TO.N,GND_C*%
X103505000Y-78105000D03*
%TO.P,U2,4*%
%TO.N,IN1_C*%
X93345000Y-85725000D03*
%TO.P,U2,14*%
%TO.N,GND_C*%
X100965000Y-78105000D03*
%TO.P,U2,5*%
%TO.N,EnA_C*%
X95885000Y-85725000D03*
%TO.P,U2,15*%
%TO.N,VREF_C*%
X98425000Y-78105000D03*
%TO.P,U2,6*%
%TO.N,IN2_C*%
X98425000Y-85725000D03*
%TO.P,U2,16*%
%TO.N,Net-(C1-Pad1)*%
X95885000Y-78105000D03*
%TO.P,U2,7*%
%TO.N,IN3_C*%
X100965000Y-85725000D03*
%TO.P,U2,17*%
%TO.N,CW*%
X93345000Y-78105000D03*
%TO.P,U2,8*%
%TO.N,EnB_C*%
X103505000Y-85725000D03*
%TO.P,U2,18*%
%TO.N,CLOCK*%
X90805000Y-78105000D03*
%TO.P,U2,9*%
%TO.N,IN4_C*%
X106045000Y-85725000D03*
%TO.P,U2,19*%
%TO.N,HALF*%
X88265000Y-78105000D03*
%TO.P,U2,10*%
%TO.N,ENABLE*%
X108585000Y-85725000D03*
%TO.P,U2,20*%
%TO.N,RESET*%
X85725000Y-78105000D03*
%TD*%
D11*
%TO.P,C1,1*%
%TO.N,Net-(C1-Pad1)*%
X73025000Y-78105000D03*
%TO.P,C1,2*%
%TO.N,GND_C*%
X73025000Y-83105000D03*
%TD*%
D17*
%TO.N,SenseB_C*%
X132080000Y-62865000D03*
X112395000Y-62865000D03*
%TO.N,SenseA_C*%
X126365000Y-64770004D03*
X112394996Y-64770004D03*
%TO.N,EnA_C*%
X88265000Y-96520000D03*
X95885000Y-96520000D03*
%TO.N,IN2_C*%
X111760000Y-75565000D03*
X121920000Y-75565000D03*
%TO.N,IN3_C*%
X116205000Y-83185000D03*
X111729990Y-83185000D03*
%TO.N,EnB_C*%
X116205000Y-90170000D03*
X116205004Y-85725000D03*
%TD*%
D18*
%TO.N,Net-(C1-Pad1)*%
X73025000Y-78105000D02*
X78105000Y-78105000D01*
X83820000Y-80645000D02*
X81280000Y-78105000D01*
X94615000Y-80645000D02*
X83820000Y-80645000D01*
X95885000Y-79375000D02*
X94615000Y-80645000D01*
X81280000Y-78105000D02*
X78105000Y-78105000D01*
X95885000Y-78105000D02*
X95885000Y-79375000D01*
%TO.N,SenseB_C*%
X128905000Y-90805000D02*
X126365000Y-90805000D01*
X109855000Y-62865000D02*
X112395000Y-62865000D01*
X132080000Y-87630000D02*
X132080000Y-62865000D01*
X108585000Y-64135000D02*
X109855000Y-62865000D01*
X128905000Y-90805000D02*
X132080000Y-87630000D01*
%TO.N,SenseA_C*%
X126365000Y-67945000D02*
X126365000Y-64770004D01*
X110490000Y-66675000D02*
X112394996Y-64770004D01*
X108585000Y-66675000D02*
X110490000Y-66675000D01*
X128905000Y-67945000D02*
X126365000Y-67945000D01*
%TO.N,ENABLE*%
X112395000Y-85725000D02*
X113665000Y-84455000D01*
X108585000Y-85725000D02*
X112395000Y-85725000D01*
X106045000Y-64135000D02*
X106045000Y-66040000D01*
X113665000Y-84455000D02*
X113665000Y-74295000D01*
X113665000Y-74295000D02*
X106045000Y-66675000D01*
X106045000Y-66040000D02*
X106045000Y-66675000D01*
%TO.N,CONTROL*%
X108585000Y-73660000D02*
X108585000Y-78105000D01*
X103505000Y-66675000D02*
X103505000Y-68580000D01*
X103505000Y-64135000D02*
X103505000Y-66675000D01*
X103505000Y-68580000D02*
X108585000Y-73660000D01*
%TO.N,5V_C*%
X115570000Y-73660000D02*
X115570000Y-80010000D01*
X112395000Y-60960000D02*
X114300000Y-62865000D01*
X100965000Y-64135000D02*
X100965000Y-66675000D01*
X116205000Y-80645000D02*
X126365000Y-80645000D01*
X97155000Y-81915000D02*
X98425000Y-80645000D01*
X106045000Y-74295000D02*
X106045000Y-78105000D01*
X81915000Y-81915000D02*
X97155000Y-81915000D01*
X100965000Y-69215000D02*
X106045000Y-74295000D01*
X114300000Y-62865000D02*
X114300000Y-72390000D01*
X78105000Y-93345000D02*
X79375000Y-93345000D01*
X100965000Y-64135000D02*
X104140000Y-60960000D01*
X128905000Y-80645000D02*
X126365000Y-80645000D01*
X79375000Y-93345000D02*
X80645000Y-92075000D01*
X104775000Y-80645000D02*
X106045000Y-79375000D01*
X106045000Y-79375000D02*
X106045000Y-78105000D01*
X114300000Y-72390000D02*
X115570000Y-73660000D01*
X100965000Y-64135000D02*
X100965000Y-63500000D01*
X100965000Y-66675000D02*
X100965000Y-69215000D01*
X115570000Y-80010000D02*
X116205000Y-80645000D01*
X80645000Y-83185000D02*
X81915000Y-81915000D01*
X98425000Y-80645000D02*
X104775000Y-80645000D01*
X80645000Y-92075000D02*
X80645000Y-83185000D01*
X104140000Y-60960000D02*
X112395000Y-60960000D01*
%TO.N,VREF_C*%
X95885000Y-64135000D02*
X95885000Y-66675000D01*
X98425000Y-78105000D02*
X98425000Y-71755000D01*
X95885000Y-69215000D02*
X95885000Y-66675000D01*
X98425000Y-71755000D02*
X95885000Y-69215000D01*
%TO.N,CW*%
X93345000Y-78105000D02*
X93345000Y-66675000D01*
X93345000Y-66675000D02*
X93345000Y-64135000D01*
%TO.N,CLOCK*%
X90805000Y-78105000D02*
X90805000Y-66675000D01*
X90805000Y-64135000D02*
X90805000Y-66675000D01*
%TO.N,HALF*%
X88265000Y-64135000D02*
X88265000Y-66675000D01*
X88265000Y-78105000D02*
X88265000Y-66675000D01*
%TO.N,RESET*%
X85725000Y-78105000D02*
X85725000Y-66675000D01*
X85725000Y-64135000D02*
X85725000Y-66675000D01*
%TO.N,IN1_C*%
X67310000Y-92075000D02*
X73660000Y-98425000D01*
X67310000Y-71755000D02*
X67310000Y-92075000D01*
X128905000Y-70485000D02*
X126365000Y-70485000D01*
X122555000Y-68580000D02*
X122555000Y-57785000D01*
X126365000Y-70485000D02*
X124460000Y-70485000D01*
X93345000Y-97155000D02*
X93345000Y-85725000D01*
X73660000Y-98425000D02*
X92075000Y-98425000D01*
X120015000Y-55245000D02*
X83820000Y-55245000D01*
X122555000Y-57785000D02*
X120015000Y-55245000D01*
X124460000Y-70485000D02*
X122555000Y-68580000D01*
X83820000Y-55245000D02*
X67310000Y-71755000D01*
X92075000Y-98425000D02*
X93345000Y-97155000D01*
%TO.N,EnA_C*%
X119380000Y-57150000D02*
X84455000Y-57150000D01*
X123825000Y-73025000D02*
X120650000Y-69850000D01*
X120650000Y-58420000D02*
X119380000Y-57150000D01*
X126365000Y-73025000D02*
X123825000Y-73025000D01*
X120650000Y-69850000D02*
X120650000Y-58420000D01*
X74295000Y-96520000D02*
X88265000Y-96520000D01*
X84455000Y-57150000D02*
X69215000Y-72390000D01*
X69215000Y-72390000D02*
X69215000Y-91440000D01*
X128905000Y-73025000D02*
X126365000Y-73025000D01*
X69215000Y-91440000D02*
X74295000Y-96520000D01*
X95885000Y-96520000D02*
X95885000Y-85725000D01*
%TO.N,IN2_C*%
X98425000Y-83525000D02*
X100104989Y-81845011D01*
X108654989Y-81845011D02*
X111760000Y-78740000D01*
X111760000Y-78740000D02*
X111760000Y-75565000D01*
X128905000Y-75565000D02*
X126365000Y-75565000D01*
X126365000Y-75565000D02*
X121920000Y-75565000D01*
X98425000Y-85725000D02*
X98425000Y-83525000D01*
X100104989Y-81845011D02*
X108654989Y-81845011D01*
%TO.N,IN3_C*%
X128905000Y-83185000D02*
X126365000Y-83185000D01*
X126365000Y-83185000D02*
X116205000Y-83185000D01*
X100965000Y-85725000D02*
X100965000Y-84455000D01*
X102235000Y-83185000D02*
X111729990Y-83185000D01*
X100965000Y-84455000D02*
X102235000Y-83185000D01*
%TO.N,EnB_C*%
X103505000Y-87925000D02*
X105750000Y-90170000D01*
X128905000Y-85725000D02*
X126365000Y-85725000D01*
X126365000Y-85725000D02*
X116205004Y-85725000D01*
X103505000Y-85725000D02*
X103505000Y-87925000D01*
X105750000Y-90170000D02*
X116205000Y-90170000D01*
%TO.N,IN4_C*%
X106045000Y-85725000D02*
X106045000Y-87925000D01*
X106045000Y-87925000D02*
X106354998Y-88234998D01*
X106354998Y-88234998D02*
X126334998Y-88234998D01*
X128905000Y-88265000D02*
X126365000Y-88265000D01*
X126334998Y-88234998D02*
X126365000Y-88265000D01*
%TD*%
D19*
%TO.N,GND_C*%
G36*
X133300001Y-62667957D02*
X133267540Y-62504764D01*
X133174443Y-62280008D01*
X133039287Y-62077733D01*
X132867267Y-61905713D01*
X132664992Y-61770557D01*
X132440236Y-61677460D01*
X132201637Y-61630000D01*
X131958363Y-61630000D01*
X131719764Y-61677460D01*
X131495008Y-61770557D01*
X131292733Y-61905713D01*
X131120713Y-62077733D01*
X130985557Y-62280008D01*
X130892460Y-62504764D01*
X130845000Y-62743363D01*
X130845000Y-62986637D01*
X130892460Y-63225236D01*
X130945001Y-63352081D01*
X130945000Y-87159868D01*
X130313228Y-87791640D01*
X130283599Y-87693966D01*
X130145706Y-87435986D01*
X129960134Y-87209866D01*
X129734014Y-87024294D01*
X129679209Y-86995000D01*
X129734014Y-86965706D01*
X129960134Y-86780134D01*
X130145706Y-86554014D01*
X130283599Y-86296034D01*
X130368513Y-86016111D01*
X130397185Y-85725000D01*
X130368513Y-85433889D01*
X130283599Y-85153966D01*
X130145706Y-84895986D01*
X129960134Y-84669866D01*
X129734014Y-84484294D01*
X129679209Y-84455000D01*
X129734014Y-84425706D01*
X129960134Y-84240134D01*
X130145706Y-84014014D01*
X130283599Y-83756034D01*
X130368513Y-83476111D01*
X130397185Y-83185000D01*
X130368513Y-82893889D01*
X130283599Y-82613966D01*
X130145706Y-82355986D01*
X129960134Y-82129866D01*
X129734014Y-81944294D01*
X129679209Y-81915000D01*
X129734014Y-81885706D01*
X129960134Y-81700134D01*
X130145706Y-81474014D01*
X130283599Y-81216034D01*
X130368513Y-80936111D01*
X130397185Y-80645000D01*
X130368513Y-80353889D01*
X130283599Y-80073966D01*
X130145706Y-79815986D01*
X129960134Y-79589866D01*
X129734014Y-79404294D01*
X129675665Y-79373106D01*
X129900462Y-79206958D01*
X130096316Y-78991579D01*
X130246388Y-78742129D01*
X130304012Y-78602985D01*
X130202848Y-78378000D01*
X129178000Y-78378000D01*
X129178000Y-78398000D01*
X128632000Y-78398000D01*
X128632000Y-78378000D01*
X126638000Y-78378000D01*
X126638000Y-78398000D01*
X126092000Y-78398000D01*
X126092000Y-78378000D01*
X125067152Y-78378000D01*
X124965988Y-78602985D01*
X125023612Y-78742129D01*
X125173684Y-78991579D01*
X125369538Y-79206958D01*
X125594335Y-79373106D01*
X125535986Y-79404294D01*
X125407183Y-79510000D01*
X116705000Y-79510000D01*
X116705000Y-73715743D01*
X116710490Y-73659999D01*
X116705000Y-73604255D01*
X116705000Y-73604248D01*
X116688577Y-73437501D01*
X116623676Y-73223553D01*
X116518284Y-73026377D01*
X116376449Y-72853551D01*
X116333140Y-72818008D01*
X115435000Y-71919869D01*
X115435000Y-62920752D01*
X115440491Y-62865000D01*
X115418577Y-62642501D01*
X115353676Y-62428553D01*
X115248284Y-62231377D01*
X115106449Y-62058551D01*
X115063141Y-62023009D01*
X113236996Y-60196865D01*
X113201449Y-60153551D01*
X113028623Y-60011716D01*
X112831447Y-59906324D01*
X112617499Y-59841423D01*
X112450752Y-59825000D01*
X112450751Y-59825000D01*
X112395000Y-59819509D01*
X112339249Y-59825000D01*
X104195751Y-59825000D01*
X104139999Y-59819509D01*
X104084248Y-59825000D01*
X103917501Y-59841423D01*
X103703553Y-59906324D01*
X103506377Y-60011716D01*
X103333551Y-60153551D01*
X103298009Y-60196859D01*
X101120085Y-62374783D01*
X100965000Y-62359509D01*
X100742502Y-62381423D01*
X100528554Y-62446324D01*
X100331378Y-62551716D01*
X100158552Y-62693551D01*
X100016717Y-62866377D01*
X99911324Y-63063553D01*
X99904329Y-63086613D01*
X99724294Y-63305986D01*
X99693106Y-63364335D01*
X99526958Y-63139538D01*
X99311579Y-62943684D01*
X99062129Y-62793612D01*
X98922985Y-62735988D01*
X98698000Y-62837152D01*
X98698000Y-63862000D01*
X98718000Y-63862000D01*
X98718000Y-64408000D01*
X98698000Y-64408000D01*
X98698000Y-66402000D01*
X98718000Y-66402000D01*
X98718000Y-66948000D01*
X98698000Y-66948000D01*
X98698000Y-67972848D01*
X98922985Y-68074012D01*
X99062129Y-68016388D01*
X99311579Y-67866316D01*
X99526958Y-67670462D01*
X99693106Y-67445665D01*
X99724294Y-67504014D01*
X99830000Y-67632818D01*
X99830001Y-69159239D01*
X99824509Y-69215000D01*
X99846423Y-69437498D01*
X99911324Y-69651446D01*
X99948959Y-69721856D01*
X100016717Y-69848623D01*
X100158552Y-70021449D01*
X100201860Y-70056991D01*
X104910000Y-74765132D01*
X104910001Y-76825998D01*
X104846068Y-76903900D01*
X104782992Y-77021908D01*
X104653791Y-76816017D01*
X104458285Y-76608981D01*
X104226145Y-76444064D01*
X103995023Y-76356259D01*
X103778000Y-76458290D01*
X103778000Y-77832000D01*
X103798000Y-77832000D01*
X103798000Y-78378000D01*
X103778000Y-78378000D01*
X103778000Y-78398000D01*
X103232000Y-78398000D01*
X103232000Y-78378000D01*
X101238000Y-78378000D01*
X101238000Y-78398000D01*
X100692000Y-78398000D01*
X100692000Y-78378000D01*
X100672000Y-78378000D01*
X100672000Y-77832000D01*
X100692000Y-77832000D01*
X100692000Y-76458290D01*
X101238000Y-76458290D01*
X101238000Y-77832000D01*
X103232000Y-77832000D01*
X103232000Y-76458290D01*
X103014977Y-76356259D01*
X102783855Y-76444064D01*
X102551715Y-76608981D01*
X102356209Y-76816017D01*
X102235000Y-77009172D01*
X102113791Y-76816017D01*
X101918285Y-76608981D01*
X101686145Y-76444064D01*
X101455023Y-76356259D01*
X101238000Y-76458290D01*
X100692000Y-76458290D01*
X100474977Y-76356259D01*
X100243855Y-76444064D01*
X100011715Y-76608981D01*
X99816209Y-76816017D01*
X99687009Y-77021907D01*
X99623932Y-76903899D01*
X99560000Y-76825998D01*
X99560000Y-71810741D01*
X99565490Y-71754999D01*
X99560000Y-71699257D01*
X99560000Y-71699248D01*
X99543577Y-71532501D01*
X99478676Y-71318553D01*
X99373284Y-71121377D01*
X99231449Y-70948551D01*
X99188141Y-70913009D01*
X97020000Y-68744869D01*
X97020000Y-67632817D01*
X97125706Y-67504014D01*
X97156894Y-67445665D01*
X97323042Y-67670462D01*
X97538421Y-67866316D01*
X97787871Y-68016388D01*
X97927015Y-68074012D01*
X98152000Y-67972848D01*
X98152000Y-66948000D01*
X98132000Y-66948000D01*
X98132000Y-66402000D01*
X98152000Y-66402000D01*
X98152000Y-64408000D01*
X98132000Y-64408000D01*
X98132000Y-63862000D01*
X98152000Y-63862000D01*
X98152000Y-62837152D01*
X97927015Y-62735988D01*
X97787871Y-62793612D01*
X97538421Y-62943684D01*
X97323042Y-63139538D01*
X97156894Y-63364335D01*
X97125706Y-63305986D01*
X96940134Y-63079866D01*
X96714014Y-62894294D01*
X96456034Y-62756401D01*
X96176111Y-62671487D01*
X95957950Y-62650000D01*
X95812050Y-62650000D01*
X95593889Y-62671487D01*
X95313966Y-62756401D01*
X95055986Y-62894294D01*
X94829866Y-63079866D01*
X94644294Y-63305986D01*
X94615000Y-63360791D01*
X94585706Y-63305986D01*
X94400134Y-63079866D01*
X94174014Y-62894294D01*
X93916034Y-62756401D01*
X93636111Y-62671487D01*
X93417950Y-62650000D01*
X93272050Y-62650000D01*
X93053889Y-62671487D01*
X92773966Y-62756401D01*
X92515986Y-62894294D01*
X92289866Y-63079866D01*
X92104294Y-63305986D01*
X92075000Y-63360791D01*
X92045706Y-63305986D01*
X91860134Y-63079866D01*
X91634014Y-62894294D01*
X91376034Y-62756401D01*
X91096111Y-62671487D01*
X90877950Y-62650000D01*
X90732050Y-62650000D01*
X90513889Y-62671487D01*
X90233966Y-62756401D01*
X89975986Y-62894294D01*
X89749866Y-63079866D01*
X89564294Y-63305986D01*
X89535000Y-63360791D01*
X89505706Y-63305986D01*
X89320134Y-63079866D01*
X89094014Y-62894294D01*
X88836034Y-62756401D01*
X88556111Y-62671487D01*
X88337950Y-62650000D01*
X88192050Y-62650000D01*
X87973889Y-62671487D01*
X87693966Y-62756401D01*
X87435986Y-62894294D01*
X87209866Y-63079866D01*
X87024294Y-63305986D01*
X86995000Y-63360791D01*
X86965706Y-63305986D01*
X86780134Y-63079866D01*
X86554014Y-62894294D01*
X86296034Y-62756401D01*
X86016111Y-62671487D01*
X85797950Y-62650000D01*
X85652050Y-62650000D01*
X85433889Y-62671487D01*
X85153966Y-62756401D01*
X84895986Y-62894294D01*
X84669866Y-63079866D01*
X84484294Y-63305986D01*
X84346401Y-63563966D01*
X84261487Y-63843889D01*
X84232815Y-64135000D01*
X84261487Y-64426111D01*
X84346401Y-64706034D01*
X84484294Y-64964014D01*
X84590000Y-65092818D01*
X84590000Y-65257317D01*
X84520506Y-65294463D01*
X84423815Y-65373815D01*
X84344463Y-65470506D01*
X84285498Y-65580820D01*
X84249188Y-65700518D01*
X84236928Y-65825000D01*
X84236928Y-67525000D01*
X84249188Y-67649482D01*
X84285498Y-67769180D01*
X84344463Y-67879494D01*
X84423815Y-67976185D01*
X84520506Y-68055537D01*
X84590001Y-68092683D01*
X84590000Y-76825998D01*
X84526068Y-76903900D01*
X84392818Y-77153193D01*
X84310764Y-77423692D01*
X84290000Y-77634509D01*
X84290000Y-78575492D01*
X84310764Y-78786309D01*
X84392818Y-79056808D01*
X84526068Y-79306101D01*
X84693404Y-79510000D01*
X84290132Y-79510000D01*
X82121996Y-77341865D01*
X82086449Y-77298551D01*
X81913623Y-77156716D01*
X81716447Y-77051324D01*
X81502499Y-76986423D01*
X81335752Y-76970000D01*
X81335751Y-76970000D01*
X81280000Y-76964509D01*
X81224249Y-76970000D01*
X78984002Y-76970000D01*
X78906101Y-76906068D01*
X78656808Y-76772818D01*
X78386309Y-76690764D01*
X78175492Y-76670000D01*
X78034508Y-76670000D01*
X77823691Y-76690764D01*
X77553192Y-76772818D01*
X77303899Y-76906068D01*
X77225998Y-76970000D01*
X73909284Y-76970000D01*
X73704727Y-76833320D01*
X73443574Y-76725147D01*
X73166335Y-76670000D01*
X72883665Y-76670000D01*
X72606426Y-76725147D01*
X72345273Y-76833320D01*
X72110241Y-76990363D01*
X71910363Y-77190241D01*
X71753320Y-77425273D01*
X71645147Y-77686426D01*
X71590000Y-77963665D01*
X71590000Y-78246335D01*
X71645147Y-78523574D01*
X71753320Y-78784727D01*
X71910363Y-79019759D01*
X72110241Y-79219637D01*
X72345273Y-79376680D01*
X72606426Y-79484853D01*
X72883665Y-79540000D01*
X73166335Y-79540000D01*
X73443574Y-79484853D01*
X73704727Y-79376680D01*
X73909284Y-79240000D01*
X77225998Y-79240000D01*
X77303899Y-79303932D01*
X77553192Y-79437182D01*
X77823691Y-79519236D01*
X78034508Y-79540000D01*
X78175492Y-79540000D01*
X78386309Y-79519236D01*
X78656808Y-79437182D01*
X78906101Y-79303932D01*
X78984002Y-79240000D01*
X80809869Y-79240000D01*
X82349868Y-80780000D01*
X81970743Y-80780000D01*
X81914999Y-80774510D01*
X81859255Y-80780000D01*
X81859248Y-80780000D01*
X81713493Y-80794356D01*
X81692500Y-80796423D01*
X81642705Y-80811529D01*
X81478553Y-80861324D01*
X81281377Y-80966716D01*
X81108551Y-81108551D01*
X81073011Y-81151857D01*
X79881860Y-82343009D01*
X79838552Y-82378551D01*
X79696717Y-82551377D01*
X79666369Y-82608155D01*
X79591324Y-82748554D01*
X79526423Y-82962502D01*
X79504509Y-83185000D01*
X79510001Y-83240761D01*
X79510000Y-91604868D01*
X78938680Y-92176188D01*
X78784727Y-92073320D01*
X78523574Y-91965147D01*
X78246335Y-91910000D01*
X77963665Y-91910000D01*
X77686426Y-91965147D01*
X77425273Y-92073320D01*
X77190241Y-92230363D01*
X76990363Y-92430241D01*
X76833320Y-92665273D01*
X76725147Y-92926426D01*
X76670000Y-93203665D01*
X76670000Y-93486335D01*
X76725147Y-93763574D01*
X76833320Y-94024727D01*
X76990363Y-94259759D01*
X77190241Y-94459637D01*
X77425273Y-94616680D01*
X77686426Y-94724853D01*
X77963665Y-94780000D01*
X78246335Y-94780000D01*
X78523574Y-94724853D01*
X78784727Y-94616680D01*
X78989284Y-94480000D01*
X79319249Y-94480000D01*
X79375000Y-94485491D01*
X79430751Y-94480000D01*
X79430752Y-94480000D01*
X79597499Y-94463577D01*
X79811447Y-94398676D01*
X80008623Y-94293284D01*
X80181449Y-94151449D01*
X80216996Y-94108135D01*
X81408140Y-92916992D01*
X81451449Y-92881449D01*
X81593284Y-92708623D01*
X81698676Y-92511447D01*
X81763577Y-92297499D01*
X81780000Y-92130752D01*
X81780000Y-92130745D01*
X81785490Y-92075001D01*
X81780000Y-92019257D01*
X81780000Y-84525000D01*
X84286928Y-84525000D01*
X84286928Y-86925000D01*
X84299188Y-87049482D01*
X84335498Y-87169180D01*
X84394463Y-87279494D01*
X84473815Y-87376185D01*
X84570506Y-87455537D01*
X84680820Y-87514502D01*
X84800518Y-87550812D01*
X84925000Y-87563072D01*
X86525000Y-87563072D01*
X86649482Y-87550812D01*
X86769180Y-87514502D01*
X86879494Y-87455537D01*
X86976185Y-87376185D01*
X87055537Y-87279494D01*
X87114502Y-87169180D01*
X87150549Y-87050348D01*
X87311715Y-87221019D01*
X87543855Y-87385936D01*
X87774977Y-87473741D01*
X87992000Y-87371710D01*
X87992000Y-85998000D01*
X87972000Y-85998000D01*
X87972000Y-85452000D01*
X87992000Y-85452000D01*
X87992000Y-84078290D01*
X87774977Y-83976259D01*
X87543855Y-84064064D01*
X87311715Y-84228981D01*
X87150549Y-84399652D01*
X87114502Y-84280820D01*
X87055537Y-84170506D01*
X86976185Y-84073815D01*
X86879494Y-83994463D01*
X86769180Y-83935498D01*
X86649482Y-83899188D01*
X86525000Y-83886928D01*
X84925000Y-83886928D01*
X84800518Y-83899188D01*
X84680820Y-83935498D01*
X84570506Y-83994463D01*
X84473815Y-84073815D01*
X84394463Y-84170506D01*
X84335498Y-84280820D01*
X84299188Y-84400518D01*
X84286928Y-84525000D01*
X81780000Y-84525000D01*
X81780000Y-83655131D01*
X82385132Y-83050000D01*
X97099249Y-83050000D01*
X97155000Y-83055491D01*
X97210751Y-83050000D01*
X97210752Y-83050000D01*
X97377499Y-83033577D01*
X97405202Y-83025173D01*
X97371324Y-83088554D01*
X97306423Y-83302502D01*
X97284509Y-83525000D01*
X97290001Y-83580761D01*
X97290001Y-84445998D01*
X97226068Y-84523900D01*
X97155000Y-84656858D01*
X97083932Y-84523899D01*
X96904607Y-84305392D01*
X96686100Y-84126068D01*
X96436807Y-83992818D01*
X96166308Y-83910764D01*
X95885000Y-83883057D01*
X95603691Y-83910764D01*
X95333192Y-83992818D01*
X95083899Y-84126068D01*
X94865392Y-84305393D01*
X94686068Y-84523900D01*
X94615000Y-84656858D01*
X94543932Y-84523899D01*
X94364607Y-84305392D01*
X94146100Y-84126068D01*
X93896807Y-83992818D01*
X93626308Y-83910764D01*
X93345000Y-83883057D01*
X93063691Y-83910764D01*
X92793192Y-83992818D01*
X92543899Y-84126068D01*
X92325392Y-84305393D01*
X92146068Y-84523900D01*
X92075000Y-84656858D01*
X92003932Y-84523899D01*
X91824607Y-84305392D01*
X91606100Y-84126068D01*
X91356807Y-83992818D01*
X91086308Y-83910764D01*
X90805000Y-83883057D01*
X90523691Y-83910764D01*
X90253192Y-83992818D01*
X90003899Y-84126068D01*
X89785392Y-84305393D01*
X89606068Y-84523900D01*
X89542992Y-84641908D01*
X89413791Y-84436017D01*
X89218285Y-84228981D01*
X88986145Y-84064064D01*
X88755023Y-83976259D01*
X88538000Y-84078290D01*
X88538000Y-85452000D01*
X88558000Y-85452000D01*
X88558000Y-85998000D01*
X88538000Y-85998000D01*
X88538000Y-87371710D01*
X88755023Y-87473741D01*
X88986145Y-87385936D01*
X89218285Y-87221019D01*
X89413791Y-87013983D01*
X89542991Y-86808093D01*
X89606068Y-86926101D01*
X89785393Y-87144608D01*
X90003900Y-87323932D01*
X90253193Y-87457182D01*
X90523692Y-87539236D01*
X90805000Y-87566943D01*
X91086309Y-87539236D01*
X91356808Y-87457182D01*
X91606101Y-87323932D01*
X91824608Y-87144608D01*
X92003932Y-86926101D01*
X92075000Y-86793142D01*
X92146068Y-86926101D01*
X92210001Y-87004003D01*
X92210000Y-96684868D01*
X91604869Y-97290000D01*
X89235824Y-97290000D01*
X89359443Y-97104992D01*
X89452540Y-96880236D01*
X89500000Y-96641637D01*
X89500000Y-96398363D01*
X89452540Y-96159764D01*
X89359443Y-95935008D01*
X89224287Y-95732733D01*
X89052267Y-95560713D01*
X88849992Y-95425557D01*
X88625236Y-95332460D01*
X88386637Y-95285000D01*
X88143363Y-95285000D01*
X87904764Y-95332460D01*
X87777921Y-95385000D01*
X74765132Y-95385000D01*
X70350000Y-90969869D01*
X70350000Y-84184622D01*
X72331458Y-84184622D01*
X72413638Y-84410924D01*
X72680157Y-84505102D01*
X72959930Y-84545475D01*
X73242203Y-84530491D01*
X73516129Y-84460727D01*
X73636362Y-84410924D01*
X73718542Y-84184622D01*
X73025000Y-83491080D01*
X72331458Y-84184622D01*
X70350000Y-84184622D01*
X70350000Y-83039930D01*
X71584525Y-83039930D01*
X71599509Y-83322203D01*
X71669273Y-83596129D01*
X71719076Y-83716362D01*
X71945378Y-83798542D01*
X72638920Y-83105000D01*
X73411080Y-83105000D01*
X74104622Y-83798542D01*
X74330924Y-83716362D01*
X74425102Y-83449843D01*
X74465475Y-83170070D01*
X74450491Y-82887797D01*
X74380727Y-82613871D01*
X74330924Y-82493638D01*
X74104622Y-82411458D01*
X73411080Y-83105000D01*
X72638920Y-83105000D01*
X71945378Y-82411458D01*
X71719076Y-82493638D01*
X71624898Y-82760157D01*
X71584525Y-83039930D01*
X70350000Y-83039930D01*
X70350000Y-82025378D01*
X72331458Y-82025378D01*
X73025000Y-82718920D01*
X73718542Y-82025378D01*
X73636362Y-81799076D01*
X73369843Y-81704898D01*
X73090070Y-81664525D01*
X72807797Y-81679509D01*
X72533871Y-81749273D01*
X72413638Y-81799076D01*
X72331458Y-82025378D01*
X70350000Y-82025378D01*
X70350000Y-72860131D01*
X84925133Y-58285000D01*
X118909869Y-58285000D01*
X119515001Y-58890133D01*
X119515000Y-69794248D01*
X119509509Y-69850000D01*
X119515000Y-69905751D01*
X119531423Y-70072498D01*
X119596324Y-70286446D01*
X119701716Y-70483623D01*
X119843551Y-70656449D01*
X119886865Y-70691996D01*
X122983009Y-73788141D01*
X123018551Y-73831449D01*
X123191377Y-73973284D01*
X123377000Y-74072501D01*
X123388553Y-74078676D01*
X123602501Y-74143577D01*
X123824999Y-74165491D01*
X123880751Y-74160000D01*
X125407183Y-74160000D01*
X125535986Y-74265706D01*
X125590791Y-74295000D01*
X125535986Y-74324294D01*
X125407183Y-74430000D01*
X122407079Y-74430000D01*
X122280236Y-74377460D01*
X122041637Y-74330000D01*
X121798363Y-74330000D01*
X121559764Y-74377460D01*
X121335008Y-74470557D01*
X121132733Y-74605713D01*
X120960713Y-74777733D01*
X120825557Y-74980008D01*
X120732460Y-75204764D01*
X120685000Y-75443363D01*
X120685000Y-75686637D01*
X120732460Y-75925236D01*
X120825557Y-76149992D01*
X120960713Y-76352267D01*
X121132733Y-76524287D01*
X121335008Y-76659443D01*
X121559764Y-76752540D01*
X121798363Y-76800000D01*
X122041637Y-76800000D01*
X122280236Y-76752540D01*
X122407079Y-76700000D01*
X125407183Y-76700000D01*
X125535986Y-76805706D01*
X125594335Y-76836894D01*
X125369538Y-77003042D01*
X125173684Y-77218421D01*
X125023612Y-77467871D01*
X124965988Y-77607015D01*
X125067152Y-77832000D01*
X126092000Y-77832000D01*
X126092000Y-77812000D01*
X126638000Y-77812000D01*
X126638000Y-77832000D01*
X128632000Y-77832000D01*
X128632000Y-77812000D01*
X129178000Y-77812000D01*
X129178000Y-77832000D01*
X130202848Y-77832000D01*
X130304012Y-77607015D01*
X130246388Y-77467871D01*
X130096316Y-77218421D01*
X129900462Y-77003042D01*
X129675665Y-76836894D01*
X129734014Y-76805706D01*
X129960134Y-76620134D01*
X130145706Y-76394014D01*
X130283599Y-76136034D01*
X130368513Y-75856111D01*
X130397185Y-75565000D01*
X130368513Y-75273889D01*
X130283599Y-74993966D01*
X130145706Y-74735986D01*
X129960134Y-74509866D01*
X129734014Y-74324294D01*
X129679209Y-74295000D01*
X129734014Y-74265706D01*
X129960134Y-74080134D01*
X130145706Y-73854014D01*
X130283599Y-73596034D01*
X130368513Y-73316111D01*
X130397185Y-73025000D01*
X130368513Y-72733889D01*
X130283599Y-72453966D01*
X130145706Y-72195986D01*
X129960134Y-71969866D01*
X129734014Y-71784294D01*
X129679209Y-71755000D01*
X129734014Y-71725706D01*
X129960134Y-71540134D01*
X130145706Y-71314014D01*
X130283599Y-71056034D01*
X130368513Y-70776111D01*
X130397185Y-70485000D01*
X130368513Y-70193889D01*
X130283599Y-69913966D01*
X130145706Y-69655986D01*
X129960134Y-69429866D01*
X129734014Y-69244294D01*
X129679209Y-69215000D01*
X129734014Y-69185706D01*
X129960134Y-69000134D01*
X130145706Y-68774014D01*
X130283599Y-68516034D01*
X130368513Y-68236111D01*
X130397185Y-67945000D01*
X130368513Y-67653889D01*
X130283599Y-67373966D01*
X130145706Y-67115986D01*
X129960134Y-66889866D01*
X129734014Y-66704294D01*
X129476034Y-66566401D01*
X129196111Y-66481487D01*
X128977950Y-66460000D01*
X128832050Y-66460000D01*
X128613889Y-66481487D01*
X128333966Y-66566401D01*
X128075986Y-66704294D01*
X127947183Y-66810000D01*
X127782683Y-66810000D01*
X127745537Y-66740506D01*
X127666185Y-66643815D01*
X127569494Y-66564463D01*
X127500000Y-66527317D01*
X127500000Y-65257083D01*
X127552540Y-65130240D01*
X127600000Y-64891641D01*
X127600000Y-64648367D01*
X127552540Y-64409768D01*
X127459443Y-64185012D01*
X127324287Y-63982737D01*
X127152267Y-63810717D01*
X126949992Y-63675561D01*
X126725236Y-63582464D01*
X126486637Y-63535004D01*
X126243363Y-63535004D01*
X126004764Y-63582464D01*
X125780008Y-63675561D01*
X125577733Y-63810717D01*
X125405713Y-63982737D01*
X125270557Y-64185012D01*
X125177460Y-64409768D01*
X125130000Y-64648367D01*
X125130000Y-64891641D01*
X125177460Y-65130240D01*
X125230001Y-65257085D01*
X125230000Y-66527317D01*
X125160506Y-66564463D01*
X125063815Y-66643815D01*
X124984463Y-66740506D01*
X124925498Y-66850820D01*
X124889188Y-66970518D01*
X124876928Y-67095000D01*
X124876928Y-68795000D01*
X124889188Y-68919482D01*
X124925498Y-69039180D01*
X124984463Y-69149494D01*
X125063815Y-69246185D01*
X125160506Y-69325537D01*
X125206272Y-69350000D01*
X124930132Y-69350000D01*
X123690000Y-68109869D01*
X123690000Y-58185098D01*
X125885000Y-58185098D01*
X125885000Y-58654902D01*
X125976654Y-59115679D01*
X126156440Y-59549721D01*
X126417450Y-59940349D01*
X126749651Y-60272550D01*
X127140279Y-60533560D01*
X127574321Y-60713346D01*
X128035098Y-60805000D01*
X128504902Y-60805000D01*
X128965679Y-60713346D01*
X129399721Y-60533560D01*
X129790349Y-60272550D01*
X130122550Y-59940349D01*
X130383560Y-59549721D01*
X130563346Y-59115679D01*
X130655000Y-58654902D01*
X130655000Y-58185098D01*
X130563346Y-57724321D01*
X130383560Y-57290279D01*
X130122550Y-56899651D01*
X129790349Y-56567450D01*
X129399721Y-56306440D01*
X128965679Y-56126654D01*
X128504902Y-56035000D01*
X128035098Y-56035000D01*
X127574321Y-56126654D01*
X127140279Y-56306440D01*
X126749651Y-56567450D01*
X126417450Y-56899651D01*
X126156440Y-57290279D01*
X125976654Y-57724321D01*
X125885000Y-58185098D01*
X123690000Y-58185098D01*
X123690000Y-57840741D01*
X123695490Y-57784999D01*
X123690000Y-57729257D01*
X123690000Y-57729248D01*
X123673577Y-57562501D01*
X123608676Y-57348553D01*
X123503284Y-57151377D01*
X123361449Y-56978551D01*
X123318141Y-56943009D01*
X120856996Y-54481865D01*
X120821449Y-54438551D01*
X120648623Y-54296716D01*
X120451447Y-54191324D01*
X120237499Y-54126423D01*
X120070752Y-54110000D01*
X120070751Y-54110000D01*
X120015000Y-54104509D01*
X119959249Y-54110000D01*
X83875751Y-54110000D01*
X83820000Y-54104509D01*
X83764248Y-54110000D01*
X83597501Y-54126423D01*
X83383553Y-54191324D01*
X83186377Y-54296716D01*
X83013551Y-54438551D01*
X82978009Y-54481859D01*
X66546865Y-70913004D01*
X66503551Y-70948551D01*
X66361716Y-71121377D01*
X66293229Y-71249509D01*
X66256324Y-71318554D01*
X66191423Y-71532502D01*
X66169509Y-71755000D01*
X66175000Y-71810751D01*
X66175001Y-92019238D01*
X66169509Y-92075000D01*
X66191423Y-92297498D01*
X66256324Y-92511446D01*
X66293960Y-92581857D01*
X66361717Y-92708623D01*
X66503552Y-92881449D01*
X66546860Y-92916991D01*
X72818009Y-99188141D01*
X72853551Y-99231449D01*
X73026377Y-99373284D01*
X73223553Y-99478676D01*
X73387705Y-99528471D01*
X73437500Y-99543577D01*
X73659999Y-99565491D01*
X73715751Y-99560000D01*
X92019249Y-99560000D01*
X92075000Y-99565491D01*
X92130751Y-99560000D01*
X92130752Y-99560000D01*
X92297499Y-99543577D01*
X92511447Y-99478676D01*
X92708623Y-99373284D01*
X92881449Y-99231449D01*
X92916996Y-99188135D01*
X92930131Y-99175000D01*
X95720715Y-99175000D01*
X95720715Y-102995000D01*
X122719286Y-102995000D01*
X122719286Y-99460098D01*
X125885000Y-99460098D01*
X125885000Y-99929902D01*
X125976654Y-100390679D01*
X126156440Y-100824721D01*
X126417450Y-101215349D01*
X126749651Y-101547550D01*
X127140279Y-101808560D01*
X127574321Y-101988346D01*
X128035098Y-102080000D01*
X128504902Y-102080000D01*
X128965679Y-101988346D01*
X129399721Y-101808560D01*
X129790349Y-101547550D01*
X130122550Y-101215349D01*
X130383560Y-100824721D01*
X130563346Y-100390679D01*
X130655000Y-99929902D01*
X130655000Y-99460098D01*
X130563346Y-98999321D01*
X130383560Y-98565279D01*
X130122550Y-98174651D01*
X129790349Y-97842450D01*
X129399721Y-97581440D01*
X128965679Y-97401654D01*
X128504902Y-97310000D01*
X128035098Y-97310000D01*
X127574321Y-97401654D01*
X127140279Y-97581440D01*
X126749651Y-97842450D01*
X126417450Y-98174651D01*
X126156440Y-98565279D01*
X125976654Y-98999321D01*
X125885000Y-99460098D01*
X122719286Y-99460098D01*
X122719286Y-99175000D01*
X95720715Y-99175000D01*
X92930131Y-99175000D01*
X94108140Y-97996992D01*
X94151449Y-97961449D01*
X94293284Y-97788623D01*
X94398676Y-97591447D01*
X94463577Y-97377499D01*
X94480000Y-97210752D01*
X94480000Y-97210745D01*
X94485490Y-97155001D01*
X94480000Y-97099257D01*
X94480000Y-87004002D01*
X94543932Y-86926101D01*
X94615000Y-86793142D01*
X94686068Y-86926101D01*
X94750001Y-87004003D01*
X94750000Y-96032921D01*
X94697460Y-96159764D01*
X94650000Y-96398363D01*
X94650000Y-96641637D01*
X94697460Y-96880236D01*
X94790557Y-97104992D01*
X94925713Y-97307267D01*
X95097733Y-97479287D01*
X95300008Y-97614443D01*
X95524764Y-97707540D01*
X95763363Y-97755000D01*
X96006637Y-97755000D01*
X96245236Y-97707540D01*
X96469992Y-97614443D01*
X96672267Y-97479287D01*
X96844287Y-97307267D01*
X96979443Y-97104992D01*
X97072540Y-96880236D01*
X97120000Y-96641637D01*
X97120000Y-96398363D01*
X97072540Y-96159764D01*
X97020000Y-96032921D01*
X97020000Y-87004002D01*
X97083932Y-86926101D01*
X97155000Y-86793142D01*
X97226068Y-86926101D01*
X97405393Y-87144608D01*
X97623900Y-87323932D01*
X97873193Y-87457182D01*
X98143692Y-87539236D01*
X98425000Y-87566943D01*
X98706309Y-87539236D01*
X98976808Y-87457182D01*
X99226101Y-87323932D01*
X99444608Y-87144608D01*
X99623932Y-86926101D01*
X99695000Y-86793142D01*
X99766068Y-86926101D01*
X99945393Y-87144608D01*
X100163900Y-87323932D01*
X100413193Y-87457182D01*
X100683692Y-87539236D01*
X100965000Y-87566943D01*
X101246309Y-87539236D01*
X101516808Y-87457182D01*
X101766101Y-87323932D01*
X101984608Y-87144608D01*
X102163932Y-86926101D01*
X102235000Y-86793142D01*
X102306068Y-86926101D01*
X102370001Y-87004003D01*
X102370001Y-87869239D01*
X102364509Y-87925000D01*
X102386423Y-88147498D01*
X102451324Y-88361446D01*
X102451325Y-88361447D01*
X102556717Y-88558623D01*
X102698552Y-88731449D01*
X102741860Y-88766991D01*
X104908009Y-90933141D01*
X104943551Y-90976449D01*
X105116377Y-91118284D01*
X105313553Y-91223676D01*
X105527501Y-91288577D01*
X105694248Y-91305000D01*
X105694257Y-91305000D01*
X105749999Y-91310490D01*
X105805741Y-91305000D01*
X115717921Y-91305000D01*
X115844764Y-91357540D01*
X116083363Y-91405000D01*
X116326637Y-91405000D01*
X116565236Y-91357540D01*
X116789992Y-91264443D01*
X116992267Y-91129287D01*
X117164287Y-90957267D01*
X117299443Y-90754992D01*
X117392540Y-90530236D01*
X117440000Y-90291637D01*
X117440000Y-90048363D01*
X117392540Y-89809764D01*
X117299443Y-89585008D01*
X117164287Y-89382733D01*
X117151552Y-89369998D01*
X125370625Y-89369998D01*
X125535986Y-89505706D01*
X125590791Y-89535000D01*
X125535986Y-89564294D01*
X125309866Y-89749866D01*
X125124294Y-89975986D01*
X124986401Y-90233966D01*
X124901487Y-90513889D01*
X124872815Y-90805000D01*
X124901487Y-91096111D01*
X124986401Y-91376034D01*
X125124294Y-91634014D01*
X125309866Y-91860134D01*
X125535986Y-92045706D01*
X125793966Y-92183599D01*
X126073889Y-92268513D01*
X126292050Y-92290000D01*
X126437950Y-92290000D01*
X126656111Y-92268513D01*
X126936034Y-92183599D01*
X127194014Y-92045706D01*
X127322817Y-91940000D01*
X127947183Y-91940000D01*
X128075986Y-92045706D01*
X128333966Y-92183599D01*
X128613889Y-92268513D01*
X128832050Y-92290000D01*
X128977950Y-92290000D01*
X129196111Y-92268513D01*
X129476034Y-92183599D01*
X129734014Y-92045706D01*
X129960134Y-91860134D01*
X130145706Y-91634014D01*
X130283599Y-91376034D01*
X130368513Y-91096111D01*
X130384845Y-90930286D01*
X132843141Y-88471991D01*
X132886449Y-88436449D01*
X133028284Y-88263623D01*
X133133676Y-88066447D01*
X133198577Y-87852499D01*
X133215000Y-87685752D01*
X133215000Y-87685751D01*
X133220491Y-87630001D01*
X133215000Y-87574249D01*
X133215000Y-63352079D01*
X133267540Y-63225236D01*
X133300001Y-63062043D01*
X133300000Y-104090000D01*
X63550000Y-104090000D01*
X63550000Y-99460098D01*
X66195000Y-99460098D01*
X66195000Y-99929902D01*
X66286654Y-100390679D01*
X66466440Y-100824721D01*
X66727450Y-101215349D01*
X67059651Y-101547550D01*
X67450279Y-101808560D01*
X67884321Y-101988346D01*
X68345098Y-102080000D01*
X68814902Y-102080000D01*
X69275679Y-101988346D01*
X69709721Y-101808560D01*
X70100349Y-101547550D01*
X70432550Y-101215349D01*
X70693560Y-100824721D01*
X70873346Y-100390679D01*
X70965000Y-99929902D01*
X70965000Y-99460098D01*
X70873346Y-98999321D01*
X70693560Y-98565279D01*
X70432550Y-98174651D01*
X70100349Y-97842450D01*
X69709721Y-97581440D01*
X69275679Y-97401654D01*
X68814902Y-97310000D01*
X68345098Y-97310000D01*
X67884321Y-97401654D01*
X67450279Y-97581440D01*
X67059651Y-97842450D01*
X66727450Y-98174651D01*
X66466440Y-98565279D01*
X66286654Y-98999321D01*
X66195000Y-99460098D01*
X63550000Y-99460098D01*
X63550000Y-54025000D01*
X133300001Y-54025000D01*
X133300001Y-62667957D01*
X133300001Y-62667957D01*
G37*
X133300001Y-62667957D02*
X133267540Y-62504764D01*
X133174443Y-62280008D01*
X133039287Y-62077733D01*
X132867267Y-61905713D01*
X132664992Y-61770557D01*
X132440236Y-61677460D01*
X132201637Y-61630000D01*
X131958363Y-61630000D01*
X131719764Y-61677460D01*
X131495008Y-61770557D01*
X131292733Y-61905713D01*
X131120713Y-62077733D01*
X130985557Y-62280008D01*
X130892460Y-62504764D01*
X130845000Y-62743363D01*
X130845000Y-62986637D01*
X130892460Y-63225236D01*
X130945001Y-63352081D01*
X130945000Y-87159868D01*
X130313228Y-87791640D01*
X130283599Y-87693966D01*
X130145706Y-87435986D01*
X129960134Y-87209866D01*
X129734014Y-87024294D01*
X129679209Y-86995000D01*
X129734014Y-86965706D01*
X129960134Y-86780134D01*
X130145706Y-86554014D01*
X130283599Y-86296034D01*
X130368513Y-86016111D01*
X130397185Y-85725000D01*
X130368513Y-85433889D01*
X130283599Y-85153966D01*
X130145706Y-84895986D01*
X129960134Y-84669866D01*
X129734014Y-84484294D01*
X129679209Y-84455000D01*
X129734014Y-84425706D01*
X129960134Y-84240134D01*
X130145706Y-84014014D01*
X130283599Y-83756034D01*
X130368513Y-83476111D01*
X130397185Y-83185000D01*
X130368513Y-82893889D01*
X130283599Y-82613966D01*
X130145706Y-82355986D01*
X129960134Y-82129866D01*
X129734014Y-81944294D01*
X129679209Y-81915000D01*
X129734014Y-81885706D01*
X129960134Y-81700134D01*
X130145706Y-81474014D01*
X130283599Y-81216034D01*
X130368513Y-80936111D01*
X130397185Y-80645000D01*
X130368513Y-80353889D01*
X130283599Y-80073966D01*
X130145706Y-79815986D01*
X129960134Y-79589866D01*
X129734014Y-79404294D01*
X129675665Y-79373106D01*
X129900462Y-79206958D01*
X130096316Y-78991579D01*
X130246388Y-78742129D01*
X130304012Y-78602985D01*
X130202848Y-78378000D01*
X129178000Y-78378000D01*
X129178000Y-78398000D01*
X128632000Y-78398000D01*
X128632000Y-78378000D01*
X126638000Y-78378000D01*
X126638000Y-78398000D01*
X126092000Y-78398000D01*
X126092000Y-78378000D01*
X125067152Y-78378000D01*
X124965988Y-78602985D01*
X125023612Y-78742129D01*
X125173684Y-78991579D01*
X125369538Y-79206958D01*
X125594335Y-79373106D01*
X125535986Y-79404294D01*
X125407183Y-79510000D01*
X116705000Y-79510000D01*
X116705000Y-73715743D01*
X116710490Y-73659999D01*
X116705000Y-73604255D01*
X116705000Y-73604248D01*
X116688577Y-73437501D01*
X116623676Y-73223553D01*
X116518284Y-73026377D01*
X116376449Y-72853551D01*
X116333140Y-72818008D01*
X115435000Y-71919869D01*
X115435000Y-62920752D01*
X115440491Y-62865000D01*
X115418577Y-62642501D01*
X115353676Y-62428553D01*
X115248284Y-62231377D01*
X115106449Y-62058551D01*
X115063141Y-62023009D01*
X113236996Y-60196865D01*
X113201449Y-60153551D01*
X113028623Y-60011716D01*
X112831447Y-59906324D01*
X112617499Y-59841423D01*
X112450752Y-59825000D01*
X112450751Y-59825000D01*
X112395000Y-59819509D01*
X112339249Y-59825000D01*
X104195751Y-59825000D01*
X104139999Y-59819509D01*
X104084248Y-59825000D01*
X103917501Y-59841423D01*
X103703553Y-59906324D01*
X103506377Y-60011716D01*
X103333551Y-60153551D01*
X103298009Y-60196859D01*
X101120085Y-62374783D01*
X100965000Y-62359509D01*
X100742502Y-62381423D01*
X100528554Y-62446324D01*
X100331378Y-62551716D01*
X100158552Y-62693551D01*
X100016717Y-62866377D01*
X99911324Y-63063553D01*
X99904329Y-63086613D01*
X99724294Y-63305986D01*
X99693106Y-63364335D01*
X99526958Y-63139538D01*
X99311579Y-62943684D01*
X99062129Y-62793612D01*
X98922985Y-62735988D01*
X98698000Y-62837152D01*
X98698000Y-63862000D01*
X98718000Y-63862000D01*
X98718000Y-64408000D01*
X98698000Y-64408000D01*
X98698000Y-66402000D01*
X98718000Y-66402000D01*
X98718000Y-66948000D01*
X98698000Y-66948000D01*
X98698000Y-67972848D01*
X98922985Y-68074012D01*
X99062129Y-68016388D01*
X99311579Y-67866316D01*
X99526958Y-67670462D01*
X99693106Y-67445665D01*
X99724294Y-67504014D01*
X99830000Y-67632818D01*
X99830001Y-69159239D01*
X99824509Y-69215000D01*
X99846423Y-69437498D01*
X99911324Y-69651446D01*
X99948959Y-69721856D01*
X100016717Y-69848623D01*
X100158552Y-70021449D01*
X100201860Y-70056991D01*
X104910000Y-74765132D01*
X104910001Y-76825998D01*
X104846068Y-76903900D01*
X104782992Y-77021908D01*
X104653791Y-76816017D01*
X104458285Y-76608981D01*
X104226145Y-76444064D01*
X103995023Y-76356259D01*
X103778000Y-76458290D01*
X103778000Y-77832000D01*
X103798000Y-77832000D01*
X103798000Y-78378000D01*
X103778000Y-78378000D01*
X103778000Y-78398000D01*
X103232000Y-78398000D01*
X103232000Y-78378000D01*
X101238000Y-78378000D01*
X101238000Y-78398000D01*
X100692000Y-78398000D01*
X100692000Y-78378000D01*
X100672000Y-78378000D01*
X100672000Y-77832000D01*
X100692000Y-77832000D01*
X100692000Y-76458290D01*
X101238000Y-76458290D01*
X101238000Y-77832000D01*
X103232000Y-77832000D01*
X103232000Y-76458290D01*
X103014977Y-76356259D01*
X102783855Y-76444064D01*
X102551715Y-76608981D01*
X102356209Y-76816017D01*
X102235000Y-77009172D01*
X102113791Y-76816017D01*
X101918285Y-76608981D01*
X101686145Y-76444064D01*
X101455023Y-76356259D01*
X101238000Y-76458290D01*
X100692000Y-76458290D01*
X100474977Y-76356259D01*
X100243855Y-76444064D01*
X100011715Y-76608981D01*
X99816209Y-76816017D01*
X99687009Y-77021907D01*
X99623932Y-76903899D01*
X99560000Y-76825998D01*
X99560000Y-71810741D01*
X99565490Y-71754999D01*
X99560000Y-71699257D01*
X99560000Y-71699248D01*
X99543577Y-71532501D01*
X99478676Y-71318553D01*
X99373284Y-71121377D01*
X99231449Y-70948551D01*
X99188141Y-70913009D01*
X97020000Y-68744869D01*
X97020000Y-67632817D01*
X97125706Y-67504014D01*
X97156894Y-67445665D01*
X97323042Y-67670462D01*
X97538421Y-67866316D01*
X97787871Y-68016388D01*
X97927015Y-68074012D01*
X98152000Y-67972848D01*
X98152000Y-66948000D01*
X98132000Y-66948000D01*
X98132000Y-66402000D01*
X98152000Y-66402000D01*
X98152000Y-64408000D01*
X98132000Y-64408000D01*
X98132000Y-63862000D01*
X98152000Y-63862000D01*
X98152000Y-62837152D01*
X97927015Y-62735988D01*
X97787871Y-62793612D01*
X97538421Y-62943684D01*
X97323042Y-63139538D01*
X97156894Y-63364335D01*
X97125706Y-63305986D01*
X96940134Y-63079866D01*
X96714014Y-62894294D01*
X96456034Y-62756401D01*
X96176111Y-62671487D01*
X95957950Y-62650000D01*
X95812050Y-62650000D01*
X95593889Y-62671487D01*
X95313966Y-62756401D01*
X95055986Y-62894294D01*
X94829866Y-63079866D01*
X94644294Y-63305986D01*
X94615000Y-63360791D01*
X94585706Y-63305986D01*
X94400134Y-63079866D01*
X94174014Y-62894294D01*
X93916034Y-62756401D01*
X93636111Y-62671487D01*
X93417950Y-62650000D01*
X93272050Y-62650000D01*
X93053889Y-62671487D01*
X92773966Y-62756401D01*
X92515986Y-62894294D01*
X92289866Y-63079866D01*
X92104294Y-63305986D01*
X92075000Y-63360791D01*
X92045706Y-63305986D01*
X91860134Y-63079866D01*
X91634014Y-62894294D01*
X91376034Y-62756401D01*
X91096111Y-62671487D01*
X90877950Y-62650000D01*
X90732050Y-62650000D01*
X90513889Y-62671487D01*
X90233966Y-62756401D01*
X89975986Y-62894294D01*
X89749866Y-63079866D01*
X89564294Y-63305986D01*
X89535000Y-63360791D01*
X89505706Y-63305986D01*
X89320134Y-63079866D01*
X89094014Y-62894294D01*
X88836034Y-62756401D01*
X88556111Y-62671487D01*
X88337950Y-62650000D01*
X88192050Y-62650000D01*
X87973889Y-62671487D01*
X87693966Y-62756401D01*
X87435986Y-62894294D01*
X87209866Y-63079866D01*
X87024294Y-63305986D01*
X86995000Y-63360791D01*
X86965706Y-63305986D01*
X86780134Y-63079866D01*
X86554014Y-62894294D01*
X86296034Y-62756401D01*
X86016111Y-62671487D01*
X85797950Y-62650000D01*
X85652050Y-62650000D01*
X85433889Y-62671487D01*
X85153966Y-62756401D01*
X84895986Y-62894294D01*
X84669866Y-63079866D01*
X84484294Y-63305986D01*
X84346401Y-63563966D01*
X84261487Y-63843889D01*
X84232815Y-64135000D01*
X84261487Y-64426111D01*
X84346401Y-64706034D01*
X84484294Y-64964014D01*
X84590000Y-65092818D01*
X84590000Y-65257317D01*
X84520506Y-65294463D01*
X84423815Y-65373815D01*
X84344463Y-65470506D01*
X84285498Y-65580820D01*
X84249188Y-65700518D01*
X84236928Y-65825000D01*
X84236928Y-67525000D01*
X84249188Y-67649482D01*
X84285498Y-67769180D01*
X84344463Y-67879494D01*
X84423815Y-67976185D01*
X84520506Y-68055537D01*
X84590001Y-68092683D01*
X84590000Y-76825998D01*
X84526068Y-76903900D01*
X84392818Y-77153193D01*
X84310764Y-77423692D01*
X84290000Y-77634509D01*
X84290000Y-78575492D01*
X84310764Y-78786309D01*
X84392818Y-79056808D01*
X84526068Y-79306101D01*
X84693404Y-79510000D01*
X84290132Y-79510000D01*
X82121996Y-77341865D01*
X82086449Y-77298551D01*
X81913623Y-77156716D01*
X81716447Y-77051324D01*
X81502499Y-76986423D01*
X81335752Y-76970000D01*
X81335751Y-76970000D01*
X81280000Y-76964509D01*
X81224249Y-76970000D01*
X78984002Y-76970000D01*
X78906101Y-76906068D01*
X78656808Y-76772818D01*
X78386309Y-76690764D01*
X78175492Y-76670000D01*
X78034508Y-76670000D01*
X77823691Y-76690764D01*
X77553192Y-76772818D01*
X77303899Y-76906068D01*
X77225998Y-76970000D01*
X73909284Y-76970000D01*
X73704727Y-76833320D01*
X73443574Y-76725147D01*
X73166335Y-76670000D01*
X72883665Y-76670000D01*
X72606426Y-76725147D01*
X72345273Y-76833320D01*
X72110241Y-76990363D01*
X71910363Y-77190241D01*
X71753320Y-77425273D01*
X71645147Y-77686426D01*
X71590000Y-77963665D01*
X71590000Y-78246335D01*
X71645147Y-78523574D01*
X71753320Y-78784727D01*
X71910363Y-79019759D01*
X72110241Y-79219637D01*
X72345273Y-79376680D01*
X72606426Y-79484853D01*
X72883665Y-79540000D01*
X73166335Y-79540000D01*
X73443574Y-79484853D01*
X73704727Y-79376680D01*
X73909284Y-79240000D01*
X77225998Y-79240000D01*
X77303899Y-79303932D01*
X77553192Y-79437182D01*
X77823691Y-79519236D01*
X78034508Y-79540000D01*
X78175492Y-79540000D01*
X78386309Y-79519236D01*
X78656808Y-79437182D01*
X78906101Y-79303932D01*
X78984002Y-79240000D01*
X80809869Y-79240000D01*
X82349868Y-80780000D01*
X81970743Y-80780000D01*
X81914999Y-80774510D01*
X81859255Y-80780000D01*
X81859248Y-80780000D01*
X81713493Y-80794356D01*
X81692500Y-80796423D01*
X81642705Y-80811529D01*
X81478553Y-80861324D01*
X81281377Y-80966716D01*
X81108551Y-81108551D01*
X81073011Y-81151857D01*
X79881860Y-82343009D01*
X79838552Y-82378551D01*
X79696717Y-82551377D01*
X79666369Y-82608155D01*
X79591324Y-82748554D01*
X79526423Y-82962502D01*
X79504509Y-83185000D01*
X79510001Y-83240761D01*
X79510000Y-91604868D01*
X78938680Y-92176188D01*
X78784727Y-92073320D01*
X78523574Y-91965147D01*
X78246335Y-91910000D01*
X77963665Y-91910000D01*
X77686426Y-91965147D01*
X77425273Y-92073320D01*
X77190241Y-92230363D01*
X76990363Y-92430241D01*
X76833320Y-92665273D01*
X76725147Y-92926426D01*
X76670000Y-93203665D01*
X76670000Y-93486335D01*
X76725147Y-93763574D01*
X76833320Y-94024727D01*
X76990363Y-94259759D01*
X77190241Y-94459637D01*
X77425273Y-94616680D01*
X77686426Y-94724853D01*
X77963665Y-94780000D01*
X78246335Y-94780000D01*
X78523574Y-94724853D01*
X78784727Y-94616680D01*
X78989284Y-94480000D01*
X79319249Y-94480000D01*
X79375000Y-94485491D01*
X79430751Y-94480000D01*
X79430752Y-94480000D01*
X79597499Y-94463577D01*
X79811447Y-94398676D01*
X80008623Y-94293284D01*
X80181449Y-94151449D01*
X80216996Y-94108135D01*
X81408140Y-92916992D01*
X81451449Y-92881449D01*
X81593284Y-92708623D01*
X81698676Y-92511447D01*
X81763577Y-92297499D01*
X81780000Y-92130752D01*
X81780000Y-92130745D01*
X81785490Y-92075001D01*
X81780000Y-92019257D01*
X81780000Y-84525000D01*
X84286928Y-84525000D01*
X84286928Y-86925000D01*
X84299188Y-87049482D01*
X84335498Y-87169180D01*
X84394463Y-87279494D01*
X84473815Y-87376185D01*
X84570506Y-87455537D01*
X84680820Y-87514502D01*
X84800518Y-87550812D01*
X84925000Y-87563072D01*
X86525000Y-87563072D01*
X86649482Y-87550812D01*
X86769180Y-87514502D01*
X86879494Y-87455537D01*
X86976185Y-87376185D01*
X87055537Y-87279494D01*
X87114502Y-87169180D01*
X87150549Y-87050348D01*
X87311715Y-87221019D01*
X87543855Y-87385936D01*
X87774977Y-87473741D01*
X87992000Y-87371710D01*
X87992000Y-85998000D01*
X87972000Y-85998000D01*
X87972000Y-85452000D01*
X87992000Y-85452000D01*
X87992000Y-84078290D01*
X87774977Y-83976259D01*
X87543855Y-84064064D01*
X87311715Y-84228981D01*
X87150549Y-84399652D01*
X87114502Y-84280820D01*
X87055537Y-84170506D01*
X86976185Y-84073815D01*
X86879494Y-83994463D01*
X86769180Y-83935498D01*
X86649482Y-83899188D01*
X86525000Y-83886928D01*
X84925000Y-83886928D01*
X84800518Y-83899188D01*
X84680820Y-83935498D01*
X84570506Y-83994463D01*
X84473815Y-84073815D01*
X84394463Y-84170506D01*
X84335498Y-84280820D01*
X84299188Y-84400518D01*
X84286928Y-84525000D01*
X81780000Y-84525000D01*
X81780000Y-83655131D01*
X82385132Y-83050000D01*
X97099249Y-83050000D01*
X97155000Y-83055491D01*
X97210751Y-83050000D01*
X97210752Y-83050000D01*
X97377499Y-83033577D01*
X97405202Y-83025173D01*
X97371324Y-83088554D01*
X97306423Y-83302502D01*
X97284509Y-83525000D01*
X97290001Y-83580761D01*
X97290001Y-84445998D01*
X97226068Y-84523900D01*
X97155000Y-84656858D01*
X97083932Y-84523899D01*
X96904607Y-84305392D01*
X96686100Y-84126068D01*
X96436807Y-83992818D01*
X96166308Y-83910764D01*
X95885000Y-83883057D01*
X95603691Y-83910764D01*
X95333192Y-83992818D01*
X95083899Y-84126068D01*
X94865392Y-84305393D01*
X94686068Y-84523900D01*
X94615000Y-84656858D01*
X94543932Y-84523899D01*
X94364607Y-84305392D01*
X94146100Y-84126068D01*
X93896807Y-83992818D01*
X93626308Y-83910764D01*
X93345000Y-83883057D01*
X93063691Y-83910764D01*
X92793192Y-83992818D01*
X92543899Y-84126068D01*
X92325392Y-84305393D01*
X92146068Y-84523900D01*
X92075000Y-84656858D01*
X92003932Y-84523899D01*
X91824607Y-84305392D01*
X91606100Y-84126068D01*
X91356807Y-83992818D01*
X91086308Y-83910764D01*
X90805000Y-83883057D01*
X90523691Y-83910764D01*
X90253192Y-83992818D01*
X90003899Y-84126068D01*
X89785392Y-84305393D01*
X89606068Y-84523900D01*
X89542992Y-84641908D01*
X89413791Y-84436017D01*
X89218285Y-84228981D01*
X88986145Y-84064064D01*
X88755023Y-83976259D01*
X88538000Y-84078290D01*
X88538000Y-85452000D01*
X88558000Y-85452000D01*
X88558000Y-85998000D01*
X88538000Y-85998000D01*
X88538000Y-87371710D01*
X88755023Y-87473741D01*
X88986145Y-87385936D01*
X89218285Y-87221019D01*
X89413791Y-87013983D01*
X89542991Y-86808093D01*
X89606068Y-86926101D01*
X89785393Y-87144608D01*
X90003900Y-87323932D01*
X90253193Y-87457182D01*
X90523692Y-87539236D01*
X90805000Y-87566943D01*
X91086309Y-87539236D01*
X91356808Y-87457182D01*
X91606101Y-87323932D01*
X91824608Y-87144608D01*
X92003932Y-86926101D01*
X92075000Y-86793142D01*
X92146068Y-86926101D01*
X92210001Y-87004003D01*
X92210000Y-96684868D01*
X91604869Y-97290000D01*
X89235824Y-97290000D01*
X89359443Y-97104992D01*
X89452540Y-96880236D01*
X89500000Y-96641637D01*
X89500000Y-96398363D01*
X89452540Y-96159764D01*
X89359443Y-95935008D01*
X89224287Y-95732733D01*
X89052267Y-95560713D01*
X88849992Y-95425557D01*
X88625236Y-95332460D01*
X88386637Y-95285000D01*
X88143363Y-95285000D01*
X87904764Y-95332460D01*
X87777921Y-95385000D01*
X74765132Y-95385000D01*
X70350000Y-90969869D01*
X70350000Y-84184622D01*
X72331458Y-84184622D01*
X72413638Y-84410924D01*
X72680157Y-84505102D01*
X72959930Y-84545475D01*
X73242203Y-84530491D01*
X73516129Y-84460727D01*
X73636362Y-84410924D01*
X73718542Y-84184622D01*
X73025000Y-83491080D01*
X72331458Y-84184622D01*
X70350000Y-84184622D01*
X70350000Y-83039930D01*
X71584525Y-83039930D01*
X71599509Y-83322203D01*
X71669273Y-83596129D01*
X71719076Y-83716362D01*
X71945378Y-83798542D01*
X72638920Y-83105000D01*
X73411080Y-83105000D01*
X74104622Y-83798542D01*
X74330924Y-83716362D01*
X74425102Y-83449843D01*
X74465475Y-83170070D01*
X74450491Y-82887797D01*
X74380727Y-82613871D01*
X74330924Y-82493638D01*
X74104622Y-82411458D01*
X73411080Y-83105000D01*
X72638920Y-83105000D01*
X71945378Y-82411458D01*
X71719076Y-82493638D01*
X71624898Y-82760157D01*
X71584525Y-83039930D01*
X70350000Y-83039930D01*
X70350000Y-82025378D01*
X72331458Y-82025378D01*
X73025000Y-82718920D01*
X73718542Y-82025378D01*
X73636362Y-81799076D01*
X73369843Y-81704898D01*
X73090070Y-81664525D01*
X72807797Y-81679509D01*
X72533871Y-81749273D01*
X72413638Y-81799076D01*
X72331458Y-82025378D01*
X70350000Y-82025378D01*
X70350000Y-72860131D01*
X84925133Y-58285000D01*
X118909869Y-58285000D01*
X119515001Y-58890133D01*
X119515000Y-69794248D01*
X119509509Y-69850000D01*
X119515000Y-69905751D01*
X119531423Y-70072498D01*
X119596324Y-70286446D01*
X119701716Y-70483623D01*
X119843551Y-70656449D01*
X119886865Y-70691996D01*
X122983009Y-73788141D01*
X123018551Y-73831449D01*
X123191377Y-73973284D01*
X123377000Y-74072501D01*
X123388553Y-74078676D01*
X123602501Y-74143577D01*
X123824999Y-74165491D01*
X123880751Y-74160000D01*
X125407183Y-74160000D01*
X125535986Y-74265706D01*
X125590791Y-74295000D01*
X125535986Y-74324294D01*
X125407183Y-74430000D01*
X122407079Y-74430000D01*
X122280236Y-74377460D01*
X122041637Y-74330000D01*
X121798363Y-74330000D01*
X121559764Y-74377460D01*
X121335008Y-74470557D01*
X121132733Y-74605713D01*
X120960713Y-74777733D01*
X120825557Y-74980008D01*
X120732460Y-75204764D01*
X120685000Y-75443363D01*
X120685000Y-75686637D01*
X120732460Y-75925236D01*
X120825557Y-76149992D01*
X120960713Y-76352267D01*
X121132733Y-76524287D01*
X121335008Y-76659443D01*
X121559764Y-76752540D01*
X121798363Y-76800000D01*
X122041637Y-76800000D01*
X122280236Y-76752540D01*
X122407079Y-76700000D01*
X125407183Y-76700000D01*
X125535986Y-76805706D01*
X125594335Y-76836894D01*
X125369538Y-77003042D01*
X125173684Y-77218421D01*
X125023612Y-77467871D01*
X124965988Y-77607015D01*
X125067152Y-77832000D01*
X126092000Y-77832000D01*
X126092000Y-77812000D01*
X126638000Y-77812000D01*
X126638000Y-77832000D01*
X128632000Y-77832000D01*
X128632000Y-77812000D01*
X129178000Y-77812000D01*
X129178000Y-77832000D01*
X130202848Y-77832000D01*
X130304012Y-77607015D01*
X130246388Y-77467871D01*
X130096316Y-77218421D01*
X129900462Y-77003042D01*
X129675665Y-76836894D01*
X129734014Y-76805706D01*
X129960134Y-76620134D01*
X130145706Y-76394014D01*
X130283599Y-76136034D01*
X130368513Y-75856111D01*
X130397185Y-75565000D01*
X130368513Y-75273889D01*
X130283599Y-74993966D01*
X130145706Y-74735986D01*
X129960134Y-74509866D01*
X129734014Y-74324294D01*
X129679209Y-74295000D01*
X129734014Y-74265706D01*
X129960134Y-74080134D01*
X130145706Y-73854014D01*
X130283599Y-73596034D01*
X130368513Y-73316111D01*
X130397185Y-73025000D01*
X130368513Y-72733889D01*
X130283599Y-72453966D01*
X130145706Y-72195986D01*
X129960134Y-71969866D01*
X129734014Y-71784294D01*
X129679209Y-71755000D01*
X129734014Y-71725706D01*
X129960134Y-71540134D01*
X130145706Y-71314014D01*
X130283599Y-71056034D01*
X130368513Y-70776111D01*
X130397185Y-70485000D01*
X130368513Y-70193889D01*
X130283599Y-69913966D01*
X130145706Y-69655986D01*
X129960134Y-69429866D01*
X129734014Y-69244294D01*
X129679209Y-69215000D01*
X129734014Y-69185706D01*
X129960134Y-69000134D01*
X130145706Y-68774014D01*
X130283599Y-68516034D01*
X130368513Y-68236111D01*
X130397185Y-67945000D01*
X130368513Y-67653889D01*
X130283599Y-67373966D01*
X130145706Y-67115986D01*
X129960134Y-66889866D01*
X129734014Y-66704294D01*
X129476034Y-66566401D01*
X129196111Y-66481487D01*
X128977950Y-66460000D01*
X128832050Y-66460000D01*
X128613889Y-66481487D01*
X128333966Y-66566401D01*
X128075986Y-66704294D01*
X127947183Y-66810000D01*
X127782683Y-66810000D01*
X127745537Y-66740506D01*
X127666185Y-66643815D01*
X127569494Y-66564463D01*
X127500000Y-66527317D01*
X127500000Y-65257083D01*
X127552540Y-65130240D01*
X127600000Y-64891641D01*
X127600000Y-64648367D01*
X127552540Y-64409768D01*
X127459443Y-64185012D01*
X127324287Y-63982737D01*
X127152267Y-63810717D01*
X126949992Y-63675561D01*
X126725236Y-63582464D01*
X126486637Y-63535004D01*
X126243363Y-63535004D01*
X126004764Y-63582464D01*
X125780008Y-63675561D01*
X125577733Y-63810717D01*
X125405713Y-63982737D01*
X125270557Y-64185012D01*
X125177460Y-64409768D01*
X125130000Y-64648367D01*
X125130000Y-64891641D01*
X125177460Y-65130240D01*
X125230001Y-65257085D01*
X125230000Y-66527317D01*
X125160506Y-66564463D01*
X125063815Y-66643815D01*
X124984463Y-66740506D01*
X124925498Y-66850820D01*
X124889188Y-66970518D01*
X124876928Y-67095000D01*
X124876928Y-68795000D01*
X124889188Y-68919482D01*
X124925498Y-69039180D01*
X124984463Y-69149494D01*
X125063815Y-69246185D01*
X125160506Y-69325537D01*
X125206272Y-69350000D01*
X124930132Y-69350000D01*
X123690000Y-68109869D01*
X123690000Y-58185098D01*
X125885000Y-58185098D01*
X125885000Y-58654902D01*
X125976654Y-59115679D01*
X126156440Y-59549721D01*
X126417450Y-59940349D01*
X126749651Y-60272550D01*
X127140279Y-60533560D01*
X127574321Y-60713346D01*
X128035098Y-60805000D01*
X128504902Y-60805000D01*
X128965679Y-60713346D01*
X129399721Y-60533560D01*
X129790349Y-60272550D01*
X130122550Y-59940349D01*
X130383560Y-59549721D01*
X130563346Y-59115679D01*
X130655000Y-58654902D01*
X130655000Y-58185098D01*
X130563346Y-57724321D01*
X130383560Y-57290279D01*
X130122550Y-56899651D01*
X129790349Y-56567450D01*
X129399721Y-56306440D01*
X128965679Y-56126654D01*
X128504902Y-56035000D01*
X128035098Y-56035000D01*
X127574321Y-56126654D01*
X127140279Y-56306440D01*
X126749651Y-56567450D01*
X126417450Y-56899651D01*
X126156440Y-57290279D01*
X125976654Y-57724321D01*
X125885000Y-58185098D01*
X123690000Y-58185098D01*
X123690000Y-57840741D01*
X123695490Y-57784999D01*
X123690000Y-57729257D01*
X123690000Y-57729248D01*
X123673577Y-57562501D01*
X123608676Y-57348553D01*
X123503284Y-57151377D01*
X123361449Y-56978551D01*
X123318141Y-56943009D01*
X120856996Y-54481865D01*
X120821449Y-54438551D01*
X120648623Y-54296716D01*
X120451447Y-54191324D01*
X120237499Y-54126423D01*
X120070752Y-54110000D01*
X120070751Y-54110000D01*
X120015000Y-54104509D01*
X119959249Y-54110000D01*
X83875751Y-54110000D01*
X83820000Y-54104509D01*
X83764248Y-54110000D01*
X83597501Y-54126423D01*
X83383553Y-54191324D01*
X83186377Y-54296716D01*
X83013551Y-54438551D01*
X82978009Y-54481859D01*
X66546865Y-70913004D01*
X66503551Y-70948551D01*
X66361716Y-71121377D01*
X66293229Y-71249509D01*
X66256324Y-71318554D01*
X66191423Y-71532502D01*
X66169509Y-71755000D01*
X66175000Y-71810751D01*
X66175001Y-92019238D01*
X66169509Y-92075000D01*
X66191423Y-92297498D01*
X66256324Y-92511446D01*
X66293960Y-92581857D01*
X66361717Y-92708623D01*
X66503552Y-92881449D01*
X66546860Y-92916991D01*
X72818009Y-99188141D01*
X72853551Y-99231449D01*
X73026377Y-99373284D01*
X73223553Y-99478676D01*
X73387705Y-99528471D01*
X73437500Y-99543577D01*
X73659999Y-99565491D01*
X73715751Y-99560000D01*
X92019249Y-99560000D01*
X92075000Y-99565491D01*
X92130751Y-99560000D01*
X92130752Y-99560000D01*
X92297499Y-99543577D01*
X92511447Y-99478676D01*
X92708623Y-99373284D01*
X92881449Y-99231449D01*
X92916996Y-99188135D01*
X92930131Y-99175000D01*
X95720715Y-99175000D01*
X95720715Y-102995000D01*
X122719286Y-102995000D01*
X122719286Y-99460098D01*
X125885000Y-99460098D01*
X125885000Y-99929902D01*
X125976654Y-100390679D01*
X126156440Y-100824721D01*
X126417450Y-101215349D01*
X126749651Y-101547550D01*
X127140279Y-101808560D01*
X127574321Y-101988346D01*
X128035098Y-102080000D01*
X128504902Y-102080000D01*
X128965679Y-101988346D01*
X129399721Y-101808560D01*
X129790349Y-101547550D01*
X130122550Y-101215349D01*
X130383560Y-100824721D01*
X130563346Y-100390679D01*
X130655000Y-99929902D01*
X130655000Y-99460098D01*
X130563346Y-98999321D01*
X130383560Y-98565279D01*
X130122550Y-98174651D01*
X129790349Y-97842450D01*
X129399721Y-97581440D01*
X128965679Y-97401654D01*
X128504902Y-97310000D01*
X128035098Y-97310000D01*
X127574321Y-97401654D01*
X127140279Y-97581440D01*
X126749651Y-97842450D01*
X126417450Y-98174651D01*
X126156440Y-98565279D01*
X125976654Y-98999321D01*
X125885000Y-99460098D01*
X122719286Y-99460098D01*
X122719286Y-99175000D01*
X95720715Y-99175000D01*
X92930131Y-99175000D01*
X94108140Y-97996992D01*
X94151449Y-97961449D01*
X94293284Y-97788623D01*
X94398676Y-97591447D01*
X94463577Y-97377499D01*
X94480000Y-97210752D01*
X94480000Y-97210745D01*
X94485490Y-97155001D01*
X94480000Y-97099257D01*
X94480000Y-87004002D01*
X94543932Y-86926101D01*
X94615000Y-86793142D01*
X94686068Y-86926101D01*
X94750001Y-87004003D01*
X94750000Y-96032921D01*
X94697460Y-96159764D01*
X94650000Y-96398363D01*
X94650000Y-96641637D01*
X94697460Y-96880236D01*
X94790557Y-97104992D01*
X94925713Y-97307267D01*
X95097733Y-97479287D01*
X95300008Y-97614443D01*
X95524764Y-97707540D01*
X95763363Y-97755000D01*
X96006637Y-97755000D01*
X96245236Y-97707540D01*
X96469992Y-97614443D01*
X96672267Y-97479287D01*
X96844287Y-97307267D01*
X96979443Y-97104992D01*
X97072540Y-96880236D01*
X97120000Y-96641637D01*
X97120000Y-96398363D01*
X97072540Y-96159764D01*
X97020000Y-96032921D01*
X97020000Y-87004002D01*
X97083932Y-86926101D01*
X97155000Y-86793142D01*
X97226068Y-86926101D01*
X97405393Y-87144608D01*
X97623900Y-87323932D01*
X97873193Y-87457182D01*
X98143692Y-87539236D01*
X98425000Y-87566943D01*
X98706309Y-87539236D01*
X98976808Y-87457182D01*
X99226101Y-87323932D01*
X99444608Y-87144608D01*
X99623932Y-86926101D01*
X99695000Y-86793142D01*
X99766068Y-86926101D01*
X99945393Y-87144608D01*
X100163900Y-87323932D01*
X100413193Y-87457182D01*
X100683692Y-87539236D01*
X100965000Y-87566943D01*
X101246309Y-87539236D01*
X101516808Y-87457182D01*
X101766101Y-87323932D01*
X101984608Y-87144608D01*
X102163932Y-86926101D01*
X102235000Y-86793142D01*
X102306068Y-86926101D01*
X102370001Y-87004003D01*
X102370001Y-87869239D01*
X102364509Y-87925000D01*
X102386423Y-88147498D01*
X102451324Y-88361446D01*
X102451325Y-88361447D01*
X102556717Y-88558623D01*
X102698552Y-88731449D01*
X102741860Y-88766991D01*
X104908009Y-90933141D01*
X104943551Y-90976449D01*
X105116377Y-91118284D01*
X105313553Y-91223676D01*
X105527501Y-91288577D01*
X105694248Y-91305000D01*
X105694257Y-91305000D01*
X105749999Y-91310490D01*
X105805741Y-91305000D01*
X115717921Y-91305000D01*
X115844764Y-91357540D01*
X116083363Y-91405000D01*
X116326637Y-91405000D01*
X116565236Y-91357540D01*
X116789992Y-91264443D01*
X116992267Y-91129287D01*
X117164287Y-90957267D01*
X117299443Y-90754992D01*
X117392540Y-90530236D01*
X117440000Y-90291637D01*
X117440000Y-90048363D01*
X117392540Y-89809764D01*
X117299443Y-89585008D01*
X117164287Y-89382733D01*
X117151552Y-89369998D01*
X125370625Y-89369998D01*
X125535986Y-89505706D01*
X125590791Y-89535000D01*
X125535986Y-89564294D01*
X125309866Y-89749866D01*
X125124294Y-89975986D01*
X124986401Y-90233966D01*
X124901487Y-90513889D01*
X124872815Y-90805000D01*
X124901487Y-91096111D01*
X124986401Y-91376034D01*
X125124294Y-91634014D01*
X125309866Y-91860134D01*
X125535986Y-92045706D01*
X125793966Y-92183599D01*
X126073889Y-92268513D01*
X126292050Y-92290000D01*
X126437950Y-92290000D01*
X126656111Y-92268513D01*
X126936034Y-92183599D01*
X127194014Y-92045706D01*
X127322817Y-91940000D01*
X127947183Y-91940000D01*
X128075986Y-92045706D01*
X128333966Y-92183599D01*
X128613889Y-92268513D01*
X128832050Y-92290000D01*
X128977950Y-92290000D01*
X129196111Y-92268513D01*
X129476034Y-92183599D01*
X129734014Y-92045706D01*
X129960134Y-91860134D01*
X130145706Y-91634014D01*
X130283599Y-91376034D01*
X130368513Y-91096111D01*
X130384845Y-90930286D01*
X132843141Y-88471991D01*
X132886449Y-88436449D01*
X133028284Y-88263623D01*
X133133676Y-88066447D01*
X133198577Y-87852499D01*
X133215000Y-87685752D01*
X133215000Y-87685751D01*
X133220491Y-87630001D01*
X133215000Y-87574249D01*
X133215000Y-63352079D01*
X133267540Y-63225236D01*
X133300001Y-63062043D01*
X133300000Y-104090000D01*
X63550000Y-104090000D01*
X63550000Y-99460098D01*
X66195000Y-99460098D01*
X66195000Y-99929902D01*
X66286654Y-100390679D01*
X66466440Y-100824721D01*
X66727450Y-101215349D01*
X67059651Y-101547550D01*
X67450279Y-101808560D01*
X67884321Y-101988346D01*
X68345098Y-102080000D01*
X68814902Y-102080000D01*
X69275679Y-101988346D01*
X69709721Y-101808560D01*
X70100349Y-101547550D01*
X70432550Y-101215349D01*
X70693560Y-100824721D01*
X70873346Y-100390679D01*
X70965000Y-99929902D01*
X70965000Y-99460098D01*
X70873346Y-98999321D01*
X70693560Y-98565279D01*
X70432550Y-98174651D01*
X70100349Y-97842450D01*
X69709721Y-97581440D01*
X69275679Y-97401654D01*
X68814902Y-97310000D01*
X68345098Y-97310000D01*
X67884321Y-97401654D01*
X67450279Y-97581440D01*
X67059651Y-97842450D01*
X66727450Y-98174651D01*
X66466440Y-98565279D01*
X66286654Y-98999321D01*
X66195000Y-99460098D01*
X63550000Y-99460098D01*
X63550000Y-54025000D01*
X133300001Y-54025000D01*
X133300001Y-62667957D01*
%TD*%
M02*
