%TF.GenerationSoftware,KiCad,Pcbnew,5.0.2-bee76a0~70~ubuntu18.04.1*%
%TF.CreationDate,2020-11-23T14:52:47+01:00*%
%TF.ProjectId,Carte_L298,43617274-655f-44c3-9239-382e6b696361,rev?*%
%TF.SameCoordinates,Original*%
%TF.FileFunction,Soldermask,Top*%
%TF.FilePolarity,Negative*%
%FSLAX46Y46*%
G04 Gerber Fmt 4.6, Leading zero omitted, Abs format (unit mm)*
G04 Created by KiCad (PCBNEW 5.0.2-bee76a0~70~ubuntu18.04.1) date lun. 23 nov. 2020 14:52:47 CET*
%MOMM*%
%LPD*%
G01*
G04 APERTURE LIST*
%ADD10C,0.100000*%
G04 APERTURE END LIST*
D10*
G36*
X128780456Y-98012251D02*
X129098936Y-98144170D01*
X129385560Y-98335686D01*
X129629314Y-98579440D01*
X129820830Y-98866064D01*
X129952749Y-99184544D01*
X130020000Y-99522640D01*
X130020000Y-99867360D01*
X129952749Y-100205456D01*
X129820830Y-100523936D01*
X129629314Y-100810560D01*
X129385560Y-101054314D01*
X129098936Y-101245830D01*
X128780456Y-101377749D01*
X128442360Y-101445000D01*
X128097640Y-101445000D01*
X127759544Y-101377749D01*
X127441064Y-101245830D01*
X127154440Y-101054314D01*
X126910686Y-100810560D01*
X126719170Y-100523936D01*
X126587251Y-100205456D01*
X126520000Y-99867360D01*
X126520000Y-99522640D01*
X126587251Y-99184544D01*
X126719170Y-98866064D01*
X126910686Y-98579440D01*
X127154440Y-98335686D01*
X127441064Y-98144170D01*
X127759544Y-98012251D01*
X128097640Y-97945000D01*
X128442360Y-97945000D01*
X128780456Y-98012251D01*
X128780456Y-98012251D01*
G37*
G36*
X69090456Y-98012251D02*
X69408936Y-98144170D01*
X69695560Y-98335686D01*
X69939314Y-98579440D01*
X70130830Y-98866064D01*
X70262749Y-99184544D01*
X70330000Y-99522640D01*
X70330000Y-99867360D01*
X70262749Y-100205456D01*
X70130830Y-100523936D01*
X69939314Y-100810560D01*
X69695560Y-101054314D01*
X69408936Y-101245830D01*
X69090456Y-101377749D01*
X68752360Y-101445000D01*
X68407640Y-101445000D01*
X68069544Y-101377749D01*
X67751064Y-101245830D01*
X67464440Y-101054314D01*
X67220686Y-100810560D01*
X67029170Y-100523936D01*
X66897251Y-100205456D01*
X66830000Y-99867360D01*
X66830000Y-99522640D01*
X66897251Y-99184544D01*
X67029170Y-98866064D01*
X67220686Y-98579440D01*
X67464440Y-98335686D01*
X67751064Y-98144170D01*
X68069544Y-98012251D01*
X68407640Y-97945000D01*
X68752360Y-97945000D01*
X69090456Y-98012251D01*
X69090456Y-98012251D01*
G37*
G36*
X78338352Y-92575743D02*
X78483941Y-92636048D01*
X78614973Y-92723601D01*
X78726399Y-92835027D01*
X78813952Y-92966059D01*
X78874257Y-93111648D01*
X78905000Y-93266205D01*
X78905000Y-93423795D01*
X78874257Y-93578352D01*
X78813952Y-93723941D01*
X78726399Y-93854973D01*
X78614973Y-93966399D01*
X78483941Y-94053952D01*
X78338352Y-94114257D01*
X78183795Y-94145000D01*
X78026205Y-94145000D01*
X77871648Y-94114257D01*
X77726059Y-94053952D01*
X77595027Y-93966399D01*
X77483601Y-93854973D01*
X77396048Y-93723941D01*
X77335743Y-93578352D01*
X77305000Y-93423795D01*
X77305000Y-93266205D01*
X77335743Y-93111648D01*
X77396048Y-92966059D01*
X77483601Y-92835027D01*
X77595027Y-92723601D01*
X77726059Y-92636048D01*
X77871648Y-92575743D01*
X78026205Y-92545000D01*
X78183795Y-92545000D01*
X78338352Y-92575743D01*
X78338352Y-92575743D01*
G37*
G36*
X126531630Y-89967299D02*
X126691855Y-90015903D01*
X126839520Y-90094831D01*
X126968949Y-90201051D01*
X127075169Y-90330480D01*
X127154097Y-90478145D01*
X127202701Y-90638370D01*
X127219112Y-90805000D01*
X127202701Y-90971630D01*
X127154097Y-91131855D01*
X127075169Y-91279520D01*
X126968949Y-91408949D01*
X126839520Y-91515169D01*
X126691855Y-91594097D01*
X126531630Y-91642701D01*
X126406752Y-91655000D01*
X126323248Y-91655000D01*
X126198370Y-91642701D01*
X126038145Y-91594097D01*
X125890480Y-91515169D01*
X125761051Y-91408949D01*
X125654831Y-91279520D01*
X125575903Y-91131855D01*
X125527299Y-90971630D01*
X125510888Y-90805000D01*
X125527299Y-90638370D01*
X125575903Y-90478145D01*
X125654831Y-90330480D01*
X125761051Y-90201051D01*
X125890480Y-90094831D01*
X126038145Y-90015903D01*
X126198370Y-89967299D01*
X126323248Y-89955000D01*
X126406752Y-89955000D01*
X126531630Y-89967299D01*
X126531630Y-89967299D01*
G37*
G36*
X129071630Y-89967299D02*
X129231855Y-90015903D01*
X129379520Y-90094831D01*
X129508949Y-90201051D01*
X129615169Y-90330480D01*
X129694097Y-90478145D01*
X129742701Y-90638370D01*
X129759112Y-90805000D01*
X129742701Y-90971630D01*
X129694097Y-91131855D01*
X129615169Y-91279520D01*
X129508949Y-91408949D01*
X129379520Y-91515169D01*
X129231855Y-91594097D01*
X129071630Y-91642701D01*
X128946752Y-91655000D01*
X128863248Y-91655000D01*
X128738370Y-91642701D01*
X128578145Y-91594097D01*
X128430480Y-91515169D01*
X128301051Y-91408949D01*
X128194831Y-91279520D01*
X128115903Y-91131855D01*
X128067299Y-90971630D01*
X128050888Y-90805000D01*
X128067299Y-90638370D01*
X128115903Y-90478145D01*
X128194831Y-90330480D01*
X128301051Y-90201051D01*
X128430480Y-90094831D01*
X128578145Y-90015903D01*
X128738370Y-89967299D01*
X128863248Y-89955000D01*
X128946752Y-89955000D01*
X129071630Y-89967299D01*
X129071630Y-89967299D01*
G37*
G36*
X126531630Y-87427299D02*
X126691855Y-87475903D01*
X126839520Y-87554831D01*
X126968949Y-87661051D01*
X127075169Y-87790480D01*
X127154097Y-87938145D01*
X127202701Y-88098370D01*
X127219112Y-88265000D01*
X127202701Y-88431630D01*
X127154097Y-88591855D01*
X127075169Y-88739520D01*
X126968949Y-88868949D01*
X126839520Y-88975169D01*
X126691855Y-89054097D01*
X126531630Y-89102701D01*
X126406752Y-89115000D01*
X126323248Y-89115000D01*
X126198370Y-89102701D01*
X126038145Y-89054097D01*
X125890480Y-88975169D01*
X125761051Y-88868949D01*
X125654831Y-88739520D01*
X125575903Y-88591855D01*
X125527299Y-88431630D01*
X125510888Y-88265000D01*
X125527299Y-88098370D01*
X125575903Y-87938145D01*
X125654831Y-87790480D01*
X125761051Y-87661051D01*
X125890480Y-87554831D01*
X126038145Y-87475903D01*
X126198370Y-87427299D01*
X126323248Y-87415000D01*
X126406752Y-87415000D01*
X126531630Y-87427299D01*
X126531630Y-87427299D01*
G37*
G36*
X129071630Y-87427299D02*
X129231855Y-87475903D01*
X129379520Y-87554831D01*
X129508949Y-87661051D01*
X129615169Y-87790480D01*
X129694097Y-87938145D01*
X129742701Y-88098370D01*
X129759112Y-88265000D01*
X129742701Y-88431630D01*
X129694097Y-88591855D01*
X129615169Y-88739520D01*
X129508949Y-88868949D01*
X129379520Y-88975169D01*
X129231855Y-89054097D01*
X129071630Y-89102701D01*
X128946752Y-89115000D01*
X128863248Y-89115000D01*
X128738370Y-89102701D01*
X128578145Y-89054097D01*
X128430480Y-88975169D01*
X128301051Y-88868949D01*
X128194831Y-88739520D01*
X128115903Y-88591855D01*
X128067299Y-88431630D01*
X128050888Y-88265000D01*
X128067299Y-88098370D01*
X128115903Y-87938145D01*
X128194831Y-87790480D01*
X128301051Y-87661051D01*
X128430480Y-87554831D01*
X128578145Y-87475903D01*
X128738370Y-87427299D01*
X128863248Y-87415000D01*
X128946752Y-87415000D01*
X129071630Y-87427299D01*
X129071630Y-87427299D01*
G37*
G36*
X103661826Y-84536576D02*
X103737227Y-84559449D01*
X103812628Y-84582321D01*
X103951604Y-84656606D01*
X103951606Y-84656607D01*
X103951605Y-84656607D01*
X104073422Y-84756578D01*
X104073423Y-84756580D01*
X104073425Y-84756581D01*
X104173392Y-84878392D01*
X104247679Y-85017371D01*
X104293424Y-85168174D01*
X104305000Y-85285705D01*
X104305000Y-86164295D01*
X104293424Y-86281826D01*
X104247679Y-86432629D01*
X104173392Y-86571608D01*
X104073422Y-86693422D01*
X103951608Y-86793392D01*
X103812629Y-86867679D01*
X103737228Y-86890551D01*
X103661827Y-86913424D01*
X103505000Y-86928870D01*
X103348174Y-86913424D01*
X103272773Y-86890551D01*
X103197372Y-86867679D01*
X103058393Y-86793392D01*
X102936579Y-86693422D01*
X102836609Y-86571608D01*
X102762322Y-86432629D01*
X102716577Y-86281826D01*
X102705000Y-86164294D01*
X102705000Y-85285706D01*
X102716576Y-85168175D01*
X102716577Y-85168173D01*
X102762321Y-85017373D01*
X102762321Y-85017372D01*
X102836606Y-84878396D01*
X102936576Y-84756581D01*
X102936578Y-84756578D01*
X102936580Y-84756577D01*
X102936581Y-84756575D01*
X103058392Y-84656608D01*
X103197371Y-84582321D01*
X103272772Y-84559449D01*
X103348173Y-84536576D01*
X103505000Y-84521130D01*
X103661826Y-84536576D01*
X103661826Y-84536576D01*
G37*
G36*
X106201826Y-84536576D02*
X106277227Y-84559449D01*
X106352628Y-84582321D01*
X106491604Y-84656606D01*
X106491606Y-84656607D01*
X106491605Y-84656607D01*
X106613422Y-84756578D01*
X106613423Y-84756580D01*
X106613425Y-84756581D01*
X106713392Y-84878392D01*
X106787679Y-85017371D01*
X106833424Y-85168174D01*
X106845000Y-85285705D01*
X106845000Y-86164295D01*
X106833424Y-86281826D01*
X106787679Y-86432629D01*
X106713392Y-86571608D01*
X106613422Y-86693422D01*
X106491608Y-86793392D01*
X106352629Y-86867679D01*
X106277228Y-86890551D01*
X106201827Y-86913424D01*
X106045000Y-86928870D01*
X105888174Y-86913424D01*
X105812773Y-86890551D01*
X105737372Y-86867679D01*
X105598393Y-86793392D01*
X105476579Y-86693422D01*
X105376609Y-86571608D01*
X105302322Y-86432629D01*
X105256577Y-86281826D01*
X105245000Y-86164294D01*
X105245000Y-85285706D01*
X105256576Y-85168175D01*
X105256577Y-85168173D01*
X105302321Y-85017373D01*
X105302321Y-85017372D01*
X105376606Y-84878396D01*
X105476576Y-84756581D01*
X105476578Y-84756578D01*
X105476580Y-84756577D01*
X105476581Y-84756575D01*
X105598392Y-84656608D01*
X105737371Y-84582321D01*
X105812772Y-84559449D01*
X105888173Y-84536576D01*
X106045000Y-84521130D01*
X106201826Y-84536576D01*
X106201826Y-84536576D01*
G37*
G36*
X101121826Y-84536576D02*
X101197227Y-84559449D01*
X101272628Y-84582321D01*
X101411604Y-84656606D01*
X101411606Y-84656607D01*
X101411605Y-84656607D01*
X101533422Y-84756578D01*
X101533423Y-84756580D01*
X101533425Y-84756581D01*
X101633392Y-84878392D01*
X101707679Y-85017371D01*
X101753424Y-85168174D01*
X101765000Y-85285705D01*
X101765000Y-86164295D01*
X101753424Y-86281826D01*
X101707679Y-86432629D01*
X101633392Y-86571608D01*
X101533422Y-86693422D01*
X101411608Y-86793392D01*
X101272629Y-86867679D01*
X101197228Y-86890551D01*
X101121827Y-86913424D01*
X100965000Y-86928870D01*
X100808174Y-86913424D01*
X100732773Y-86890551D01*
X100657372Y-86867679D01*
X100518393Y-86793392D01*
X100396579Y-86693422D01*
X100296609Y-86571608D01*
X100222322Y-86432629D01*
X100176577Y-86281826D01*
X100165000Y-86164294D01*
X100165000Y-85285706D01*
X100176576Y-85168175D01*
X100176577Y-85168173D01*
X100222321Y-85017373D01*
X100222321Y-85017372D01*
X100296606Y-84878396D01*
X100396576Y-84756581D01*
X100396578Y-84756578D01*
X100396580Y-84756577D01*
X100396581Y-84756575D01*
X100518392Y-84656608D01*
X100657371Y-84582321D01*
X100732772Y-84559449D01*
X100808173Y-84536576D01*
X100965000Y-84521130D01*
X101121826Y-84536576D01*
X101121826Y-84536576D01*
G37*
G36*
X98581826Y-84536576D02*
X98657227Y-84559449D01*
X98732628Y-84582321D01*
X98871604Y-84656606D01*
X98871606Y-84656607D01*
X98871605Y-84656607D01*
X98993422Y-84756578D01*
X98993423Y-84756580D01*
X98993425Y-84756581D01*
X99093392Y-84878392D01*
X99167679Y-85017371D01*
X99213424Y-85168174D01*
X99225000Y-85285705D01*
X99225000Y-86164295D01*
X99213424Y-86281826D01*
X99167679Y-86432629D01*
X99093392Y-86571608D01*
X98993422Y-86693422D01*
X98871608Y-86793392D01*
X98732629Y-86867679D01*
X98657228Y-86890551D01*
X98581827Y-86913424D01*
X98425000Y-86928870D01*
X98268174Y-86913424D01*
X98192773Y-86890551D01*
X98117372Y-86867679D01*
X97978393Y-86793392D01*
X97856579Y-86693422D01*
X97756609Y-86571608D01*
X97682322Y-86432629D01*
X97636577Y-86281826D01*
X97625000Y-86164294D01*
X97625000Y-85285706D01*
X97636576Y-85168175D01*
X97636577Y-85168173D01*
X97682321Y-85017373D01*
X97682321Y-85017372D01*
X97756606Y-84878396D01*
X97856576Y-84756581D01*
X97856578Y-84756578D01*
X97856580Y-84756577D01*
X97856581Y-84756575D01*
X97978392Y-84656608D01*
X98117371Y-84582321D01*
X98192772Y-84559449D01*
X98268173Y-84536576D01*
X98425000Y-84521130D01*
X98581826Y-84536576D01*
X98581826Y-84536576D01*
G37*
G36*
X93501826Y-84536576D02*
X93577227Y-84559449D01*
X93652628Y-84582321D01*
X93791604Y-84656606D01*
X93791606Y-84656607D01*
X93791605Y-84656607D01*
X93913422Y-84756578D01*
X93913423Y-84756580D01*
X93913425Y-84756581D01*
X94013392Y-84878392D01*
X94087679Y-85017371D01*
X94133424Y-85168174D01*
X94145000Y-85285705D01*
X94145000Y-86164295D01*
X94133424Y-86281826D01*
X94087679Y-86432629D01*
X94013392Y-86571608D01*
X93913422Y-86693422D01*
X93791608Y-86793392D01*
X93652629Y-86867679D01*
X93577228Y-86890551D01*
X93501827Y-86913424D01*
X93345000Y-86928870D01*
X93188174Y-86913424D01*
X93112773Y-86890551D01*
X93037372Y-86867679D01*
X92898393Y-86793392D01*
X92776579Y-86693422D01*
X92676609Y-86571608D01*
X92602322Y-86432629D01*
X92556577Y-86281826D01*
X92545000Y-86164294D01*
X92545000Y-85285706D01*
X92556576Y-85168175D01*
X92556577Y-85168173D01*
X92602321Y-85017373D01*
X92602321Y-85017372D01*
X92676606Y-84878396D01*
X92776576Y-84756581D01*
X92776578Y-84756578D01*
X92776580Y-84756577D01*
X92776581Y-84756575D01*
X92898392Y-84656608D01*
X93037371Y-84582321D01*
X93112772Y-84559449D01*
X93188173Y-84536576D01*
X93345000Y-84521130D01*
X93501826Y-84536576D01*
X93501826Y-84536576D01*
G37*
G36*
X90961826Y-84536576D02*
X91037227Y-84559449D01*
X91112628Y-84582321D01*
X91251604Y-84656606D01*
X91251606Y-84656607D01*
X91251605Y-84656607D01*
X91373422Y-84756578D01*
X91373423Y-84756580D01*
X91373425Y-84756581D01*
X91473392Y-84878392D01*
X91547679Y-85017371D01*
X91593424Y-85168174D01*
X91605000Y-85285705D01*
X91605000Y-86164295D01*
X91593424Y-86281826D01*
X91547679Y-86432629D01*
X91473392Y-86571608D01*
X91373422Y-86693422D01*
X91251608Y-86793392D01*
X91112629Y-86867679D01*
X91037228Y-86890551D01*
X90961827Y-86913424D01*
X90805000Y-86928870D01*
X90648174Y-86913424D01*
X90572773Y-86890551D01*
X90497372Y-86867679D01*
X90358393Y-86793392D01*
X90236579Y-86693422D01*
X90136609Y-86571608D01*
X90062322Y-86432629D01*
X90016577Y-86281826D01*
X90005000Y-86164294D01*
X90005000Y-85285706D01*
X90016576Y-85168175D01*
X90016577Y-85168173D01*
X90062321Y-85017373D01*
X90062321Y-85017372D01*
X90136606Y-84878396D01*
X90236576Y-84756581D01*
X90236578Y-84756578D01*
X90236580Y-84756577D01*
X90236581Y-84756575D01*
X90358392Y-84656608D01*
X90497371Y-84582321D01*
X90572772Y-84559449D01*
X90648173Y-84536576D01*
X90805000Y-84521130D01*
X90961826Y-84536576D01*
X90961826Y-84536576D01*
G37*
G36*
X108741826Y-84536576D02*
X108817227Y-84559449D01*
X108892628Y-84582321D01*
X109031604Y-84656606D01*
X109031606Y-84656607D01*
X109031605Y-84656607D01*
X109153422Y-84756578D01*
X109153423Y-84756580D01*
X109153425Y-84756581D01*
X109253392Y-84878392D01*
X109327679Y-85017371D01*
X109373424Y-85168174D01*
X109385000Y-85285705D01*
X109385000Y-86164295D01*
X109373424Y-86281826D01*
X109327679Y-86432629D01*
X109253392Y-86571608D01*
X109153422Y-86693422D01*
X109031608Y-86793392D01*
X108892629Y-86867679D01*
X108817228Y-86890551D01*
X108741827Y-86913424D01*
X108585000Y-86928870D01*
X108428174Y-86913424D01*
X108352773Y-86890551D01*
X108277372Y-86867679D01*
X108138393Y-86793392D01*
X108016579Y-86693422D01*
X107916609Y-86571608D01*
X107842322Y-86432629D01*
X107796577Y-86281826D01*
X107785000Y-86164294D01*
X107785000Y-85285706D01*
X107796576Y-85168175D01*
X107796577Y-85168173D01*
X107842321Y-85017373D01*
X107842321Y-85017372D01*
X107916606Y-84878396D01*
X108016576Y-84756581D01*
X108016578Y-84756578D01*
X108016580Y-84756577D01*
X108016581Y-84756575D01*
X108138392Y-84656608D01*
X108277371Y-84582321D01*
X108352772Y-84559449D01*
X108428173Y-84536576D01*
X108585000Y-84521130D01*
X108741826Y-84536576D01*
X108741826Y-84536576D01*
G37*
G36*
X88421826Y-84536576D02*
X88497227Y-84559449D01*
X88572628Y-84582321D01*
X88711604Y-84656606D01*
X88711606Y-84656607D01*
X88711605Y-84656607D01*
X88833422Y-84756578D01*
X88833423Y-84756580D01*
X88833425Y-84756581D01*
X88933392Y-84878392D01*
X89007679Y-85017371D01*
X89053424Y-85168174D01*
X89065000Y-85285705D01*
X89065000Y-86164295D01*
X89053424Y-86281826D01*
X89007679Y-86432629D01*
X88933392Y-86571608D01*
X88833422Y-86693422D01*
X88711608Y-86793392D01*
X88572629Y-86867679D01*
X88497228Y-86890551D01*
X88421827Y-86913424D01*
X88265000Y-86928870D01*
X88108174Y-86913424D01*
X88032773Y-86890551D01*
X87957372Y-86867679D01*
X87818393Y-86793392D01*
X87696579Y-86693422D01*
X87596609Y-86571608D01*
X87522322Y-86432629D01*
X87476577Y-86281826D01*
X87465000Y-86164294D01*
X87465000Y-85285706D01*
X87476576Y-85168175D01*
X87476577Y-85168173D01*
X87522321Y-85017373D01*
X87522321Y-85017372D01*
X87596606Y-84878396D01*
X87696576Y-84756581D01*
X87696578Y-84756578D01*
X87696580Y-84756577D01*
X87696581Y-84756575D01*
X87818392Y-84656608D01*
X87957371Y-84582321D01*
X88032772Y-84559449D01*
X88108173Y-84536576D01*
X88265000Y-84521130D01*
X88421826Y-84536576D01*
X88421826Y-84536576D01*
G37*
G36*
X96041826Y-84536576D02*
X96117227Y-84559449D01*
X96192628Y-84582321D01*
X96331604Y-84656606D01*
X96331606Y-84656607D01*
X96331605Y-84656607D01*
X96453422Y-84756578D01*
X96453423Y-84756580D01*
X96453425Y-84756581D01*
X96553392Y-84878392D01*
X96627679Y-85017371D01*
X96673424Y-85168174D01*
X96685000Y-85285705D01*
X96685000Y-86164295D01*
X96673424Y-86281826D01*
X96627679Y-86432629D01*
X96553392Y-86571608D01*
X96453422Y-86693422D01*
X96331608Y-86793392D01*
X96192629Y-86867679D01*
X96117228Y-86890551D01*
X96041827Y-86913424D01*
X95885000Y-86928870D01*
X95728174Y-86913424D01*
X95652773Y-86890551D01*
X95577372Y-86867679D01*
X95438393Y-86793392D01*
X95316579Y-86693422D01*
X95216609Y-86571608D01*
X95142322Y-86432629D01*
X95096577Y-86281826D01*
X95085000Y-86164294D01*
X95085000Y-85285706D01*
X95096576Y-85168175D01*
X95096577Y-85168173D01*
X95142321Y-85017373D01*
X95142321Y-85017372D01*
X95216606Y-84878396D01*
X95316576Y-84756581D01*
X95316578Y-84756578D01*
X95316580Y-84756577D01*
X95316581Y-84756575D01*
X95438392Y-84656608D01*
X95577371Y-84582321D01*
X95652772Y-84559449D01*
X95728173Y-84536576D01*
X95885000Y-84521130D01*
X96041826Y-84536576D01*
X96041826Y-84536576D01*
G37*
G36*
X86525000Y-86925000D02*
X84925000Y-86925000D01*
X84925000Y-84525000D01*
X86525000Y-84525000D01*
X86525000Y-86925000D01*
X86525000Y-86925000D01*
G37*
G36*
X126531630Y-84887299D02*
X126691855Y-84935903D01*
X126839520Y-85014831D01*
X126968949Y-85121051D01*
X127075169Y-85250480D01*
X127154097Y-85398145D01*
X127202701Y-85558370D01*
X127219112Y-85725000D01*
X127202701Y-85891630D01*
X127154097Y-86051855D01*
X127075169Y-86199520D01*
X126968949Y-86328949D01*
X126839520Y-86435169D01*
X126691855Y-86514097D01*
X126531630Y-86562701D01*
X126406752Y-86575000D01*
X126323248Y-86575000D01*
X126198370Y-86562701D01*
X126038145Y-86514097D01*
X125890480Y-86435169D01*
X125761051Y-86328949D01*
X125654831Y-86199520D01*
X125575903Y-86051855D01*
X125527299Y-85891630D01*
X125510888Y-85725000D01*
X125527299Y-85558370D01*
X125575903Y-85398145D01*
X125654831Y-85250480D01*
X125761051Y-85121051D01*
X125890480Y-85014831D01*
X126038145Y-84935903D01*
X126198370Y-84887299D01*
X126323248Y-84875000D01*
X126406752Y-84875000D01*
X126531630Y-84887299D01*
X126531630Y-84887299D01*
G37*
G36*
X129071630Y-84887299D02*
X129231855Y-84935903D01*
X129379520Y-85014831D01*
X129508949Y-85121051D01*
X129615169Y-85250480D01*
X129694097Y-85398145D01*
X129742701Y-85558370D01*
X129759112Y-85725000D01*
X129742701Y-85891630D01*
X129694097Y-86051855D01*
X129615169Y-86199520D01*
X129508949Y-86328949D01*
X129379520Y-86435169D01*
X129231855Y-86514097D01*
X129071630Y-86562701D01*
X128946752Y-86575000D01*
X128863248Y-86575000D01*
X128738370Y-86562701D01*
X128578145Y-86514097D01*
X128430480Y-86435169D01*
X128301051Y-86328949D01*
X128194831Y-86199520D01*
X128115903Y-86051855D01*
X128067299Y-85891630D01*
X128050888Y-85725000D01*
X128067299Y-85558370D01*
X128115903Y-85398145D01*
X128194831Y-85250480D01*
X128301051Y-85121051D01*
X128430480Y-85014831D01*
X128578145Y-84935903D01*
X128738370Y-84887299D01*
X128863248Y-84875000D01*
X128946752Y-84875000D01*
X129071630Y-84887299D01*
X129071630Y-84887299D01*
G37*
G36*
X126531630Y-82347299D02*
X126691855Y-82395903D01*
X126839520Y-82474831D01*
X126968949Y-82581051D01*
X127075169Y-82710480D01*
X127154097Y-82858145D01*
X127202701Y-83018370D01*
X127219112Y-83185000D01*
X127202701Y-83351630D01*
X127154097Y-83511855D01*
X127075169Y-83659520D01*
X126968949Y-83788949D01*
X126839520Y-83895169D01*
X126691855Y-83974097D01*
X126531630Y-84022701D01*
X126406752Y-84035000D01*
X126323248Y-84035000D01*
X126198370Y-84022701D01*
X126038145Y-83974097D01*
X125890480Y-83895169D01*
X125761051Y-83788949D01*
X125654831Y-83659520D01*
X125575903Y-83511855D01*
X125527299Y-83351630D01*
X125510888Y-83185000D01*
X125527299Y-83018370D01*
X125575903Y-82858145D01*
X125654831Y-82710480D01*
X125761051Y-82581051D01*
X125890480Y-82474831D01*
X126038145Y-82395903D01*
X126198370Y-82347299D01*
X126323248Y-82335000D01*
X126406752Y-82335000D01*
X126531630Y-82347299D01*
X126531630Y-82347299D01*
G37*
G36*
X129071630Y-82347299D02*
X129231855Y-82395903D01*
X129379520Y-82474831D01*
X129508949Y-82581051D01*
X129615169Y-82710480D01*
X129694097Y-82858145D01*
X129742701Y-83018370D01*
X129759112Y-83185000D01*
X129742701Y-83351630D01*
X129694097Y-83511855D01*
X129615169Y-83659520D01*
X129508949Y-83788949D01*
X129379520Y-83895169D01*
X129231855Y-83974097D01*
X129071630Y-84022701D01*
X128946752Y-84035000D01*
X128863248Y-84035000D01*
X128738370Y-84022701D01*
X128578145Y-83974097D01*
X128430480Y-83895169D01*
X128301051Y-83788949D01*
X128194831Y-83659520D01*
X128115903Y-83511855D01*
X128067299Y-83351630D01*
X128050888Y-83185000D01*
X128067299Y-83018370D01*
X128115903Y-82858145D01*
X128194831Y-82710480D01*
X128301051Y-82581051D01*
X128430480Y-82474831D01*
X128578145Y-82395903D01*
X128738370Y-82347299D01*
X128863248Y-82335000D01*
X128946752Y-82335000D01*
X129071630Y-82347299D01*
X129071630Y-82347299D01*
G37*
G36*
X73258352Y-82335743D02*
X73403941Y-82396048D01*
X73534973Y-82483601D01*
X73646399Y-82595027D01*
X73733952Y-82726059D01*
X73794257Y-82871648D01*
X73825000Y-83026205D01*
X73825000Y-83183795D01*
X73794257Y-83338352D01*
X73733952Y-83483941D01*
X73646399Y-83614973D01*
X73534973Y-83726399D01*
X73403941Y-83813952D01*
X73258352Y-83874257D01*
X73103795Y-83905000D01*
X72946205Y-83905000D01*
X72791648Y-83874257D01*
X72646059Y-83813952D01*
X72515027Y-83726399D01*
X72403601Y-83614973D01*
X72316048Y-83483941D01*
X72255743Y-83338352D01*
X72225000Y-83183795D01*
X72225000Y-83026205D01*
X72255743Y-82871648D01*
X72316048Y-82726059D01*
X72403601Y-82595027D01*
X72515027Y-82483601D01*
X72646059Y-82396048D01*
X72791648Y-82335743D01*
X72946205Y-82305000D01*
X73103795Y-82305000D01*
X73258352Y-82335743D01*
X73258352Y-82335743D01*
G37*
G36*
X129071630Y-79807299D02*
X129231855Y-79855903D01*
X129379520Y-79934831D01*
X129508949Y-80041051D01*
X129615169Y-80170480D01*
X129694097Y-80318145D01*
X129742701Y-80478370D01*
X129759112Y-80645000D01*
X129742701Y-80811630D01*
X129694097Y-80971855D01*
X129615169Y-81119520D01*
X129508949Y-81248949D01*
X129379520Y-81355169D01*
X129231855Y-81434097D01*
X129071630Y-81482701D01*
X128946752Y-81495000D01*
X128863248Y-81495000D01*
X128738370Y-81482701D01*
X128578145Y-81434097D01*
X128430480Y-81355169D01*
X128301051Y-81248949D01*
X128194831Y-81119520D01*
X128115903Y-80971855D01*
X128067299Y-80811630D01*
X128050888Y-80645000D01*
X128067299Y-80478370D01*
X128115903Y-80318145D01*
X128194831Y-80170480D01*
X128301051Y-80041051D01*
X128430480Y-79934831D01*
X128578145Y-79855903D01*
X128738370Y-79807299D01*
X128863248Y-79795000D01*
X128946752Y-79795000D01*
X129071630Y-79807299D01*
X129071630Y-79807299D01*
G37*
G36*
X126531630Y-79807299D02*
X126691855Y-79855903D01*
X126839520Y-79934831D01*
X126968949Y-80041051D01*
X127075169Y-80170480D01*
X127154097Y-80318145D01*
X127202701Y-80478370D01*
X127219112Y-80645000D01*
X127202701Y-80811630D01*
X127154097Y-80971855D01*
X127075169Y-81119520D01*
X126968949Y-81248949D01*
X126839520Y-81355169D01*
X126691855Y-81434097D01*
X126531630Y-81482701D01*
X126406752Y-81495000D01*
X126323248Y-81495000D01*
X126198370Y-81482701D01*
X126038145Y-81434097D01*
X125890480Y-81355169D01*
X125761051Y-81248949D01*
X125654831Y-81119520D01*
X125575903Y-80971855D01*
X125527299Y-80811630D01*
X125510888Y-80645000D01*
X125527299Y-80478370D01*
X125575903Y-80318145D01*
X125654831Y-80170480D01*
X125761051Y-80041051D01*
X125890480Y-79934831D01*
X126038145Y-79855903D01*
X126198370Y-79807299D01*
X126323248Y-79795000D01*
X126406752Y-79795000D01*
X126531630Y-79807299D01*
X126531630Y-79807299D01*
G37*
G36*
X85881826Y-76916576D02*
X85957227Y-76939449D01*
X86032628Y-76962321D01*
X86171604Y-77036606D01*
X86171606Y-77036607D01*
X86171605Y-77036607D01*
X86293422Y-77136578D01*
X86293423Y-77136580D01*
X86293425Y-77136581D01*
X86393392Y-77258392D01*
X86467679Y-77397371D01*
X86479581Y-77436607D01*
X86509907Y-77536578D01*
X86513424Y-77548174D01*
X86525000Y-77665705D01*
X86525000Y-78544295D01*
X86518039Y-78614970D01*
X86513424Y-78661827D01*
X86499130Y-78708948D01*
X86467679Y-78812629D01*
X86393392Y-78951608D01*
X86293422Y-79073422D01*
X86171608Y-79173392D01*
X86032629Y-79247679D01*
X85957227Y-79270552D01*
X85881827Y-79293424D01*
X85725000Y-79308870D01*
X85568174Y-79293424D01*
X85492774Y-79270552D01*
X85417372Y-79247679D01*
X85278393Y-79173392D01*
X85156579Y-79073422D01*
X85056609Y-78951608D01*
X84982322Y-78812629D01*
X84950871Y-78708948D01*
X84936577Y-78661827D01*
X84928470Y-78579519D01*
X84925000Y-78544294D01*
X84925000Y-77665706D01*
X84936576Y-77548175D01*
X84936577Y-77548173D01*
X84982321Y-77397373D01*
X84982321Y-77397372D01*
X85056606Y-77258396D01*
X85156576Y-77136581D01*
X85156578Y-77136578D01*
X85156580Y-77136577D01*
X85156581Y-77136575D01*
X85278392Y-77036608D01*
X85417371Y-76962321D01*
X85492772Y-76939449D01*
X85568173Y-76916576D01*
X85725000Y-76901130D01*
X85881826Y-76916576D01*
X85881826Y-76916576D01*
G37*
G36*
X88421826Y-76916576D02*
X88497227Y-76939449D01*
X88572628Y-76962321D01*
X88711604Y-77036606D01*
X88711606Y-77036607D01*
X88711605Y-77036607D01*
X88833422Y-77136578D01*
X88833423Y-77136580D01*
X88833425Y-77136581D01*
X88933392Y-77258392D01*
X89007679Y-77397371D01*
X89019581Y-77436607D01*
X89049907Y-77536578D01*
X89053424Y-77548174D01*
X89065000Y-77665705D01*
X89065000Y-78544295D01*
X89058039Y-78614970D01*
X89053424Y-78661827D01*
X89039130Y-78708948D01*
X89007679Y-78812629D01*
X88933392Y-78951608D01*
X88833422Y-79073422D01*
X88711608Y-79173392D01*
X88572629Y-79247679D01*
X88497227Y-79270552D01*
X88421827Y-79293424D01*
X88265000Y-79308870D01*
X88108174Y-79293424D01*
X88032774Y-79270552D01*
X87957372Y-79247679D01*
X87818393Y-79173392D01*
X87696579Y-79073422D01*
X87596609Y-78951608D01*
X87522322Y-78812629D01*
X87490871Y-78708948D01*
X87476577Y-78661827D01*
X87468470Y-78579519D01*
X87465000Y-78544294D01*
X87465000Y-77665706D01*
X87476576Y-77548175D01*
X87476577Y-77548173D01*
X87522321Y-77397373D01*
X87522321Y-77397372D01*
X87596606Y-77258396D01*
X87696576Y-77136581D01*
X87696578Y-77136578D01*
X87696580Y-77136577D01*
X87696581Y-77136575D01*
X87818392Y-77036608D01*
X87957371Y-76962321D01*
X88032772Y-76939449D01*
X88108173Y-76916576D01*
X88265000Y-76901130D01*
X88421826Y-76916576D01*
X88421826Y-76916576D01*
G37*
G36*
X90961826Y-76916576D02*
X91037227Y-76939449D01*
X91112628Y-76962321D01*
X91251604Y-77036606D01*
X91251606Y-77036607D01*
X91251605Y-77036607D01*
X91373422Y-77136578D01*
X91373423Y-77136580D01*
X91373425Y-77136581D01*
X91473392Y-77258392D01*
X91547679Y-77397371D01*
X91559581Y-77436607D01*
X91589907Y-77536578D01*
X91593424Y-77548174D01*
X91605000Y-77665705D01*
X91605000Y-78544295D01*
X91598039Y-78614970D01*
X91593424Y-78661827D01*
X91579130Y-78708948D01*
X91547679Y-78812629D01*
X91473392Y-78951608D01*
X91373422Y-79073422D01*
X91251608Y-79173392D01*
X91112629Y-79247679D01*
X91037227Y-79270552D01*
X90961827Y-79293424D01*
X90805000Y-79308870D01*
X90648174Y-79293424D01*
X90572774Y-79270552D01*
X90497372Y-79247679D01*
X90358393Y-79173392D01*
X90236579Y-79073422D01*
X90136609Y-78951608D01*
X90062322Y-78812629D01*
X90030871Y-78708948D01*
X90016577Y-78661827D01*
X90008470Y-78579519D01*
X90005000Y-78544294D01*
X90005000Y-77665706D01*
X90016576Y-77548175D01*
X90016577Y-77548173D01*
X90062321Y-77397373D01*
X90062321Y-77397372D01*
X90136606Y-77258396D01*
X90236576Y-77136581D01*
X90236578Y-77136578D01*
X90236580Y-77136577D01*
X90236581Y-77136575D01*
X90358392Y-77036608D01*
X90497371Y-76962321D01*
X90572772Y-76939449D01*
X90648173Y-76916576D01*
X90805000Y-76901130D01*
X90961826Y-76916576D01*
X90961826Y-76916576D01*
G37*
G36*
X93501826Y-76916576D02*
X93577227Y-76939449D01*
X93652628Y-76962321D01*
X93791604Y-77036606D01*
X93791606Y-77036607D01*
X93791605Y-77036607D01*
X93913422Y-77136578D01*
X93913423Y-77136580D01*
X93913425Y-77136581D01*
X94013392Y-77258392D01*
X94087679Y-77397371D01*
X94099581Y-77436607D01*
X94129907Y-77536578D01*
X94133424Y-77548174D01*
X94145000Y-77665705D01*
X94145000Y-78544295D01*
X94138039Y-78614970D01*
X94133424Y-78661827D01*
X94119130Y-78708948D01*
X94087679Y-78812629D01*
X94013392Y-78951608D01*
X93913422Y-79073422D01*
X93791608Y-79173392D01*
X93652629Y-79247679D01*
X93577227Y-79270552D01*
X93501827Y-79293424D01*
X93345000Y-79308870D01*
X93188174Y-79293424D01*
X93112774Y-79270552D01*
X93037372Y-79247679D01*
X92898393Y-79173392D01*
X92776579Y-79073422D01*
X92676609Y-78951608D01*
X92602322Y-78812629D01*
X92570871Y-78708948D01*
X92556577Y-78661827D01*
X92548470Y-78579519D01*
X92545000Y-78544294D01*
X92545000Y-77665706D01*
X92556576Y-77548175D01*
X92556577Y-77548173D01*
X92602321Y-77397373D01*
X92602321Y-77397372D01*
X92676606Y-77258396D01*
X92776576Y-77136581D01*
X92776578Y-77136578D01*
X92776580Y-77136577D01*
X92776581Y-77136575D01*
X92898392Y-77036608D01*
X93037371Y-76962321D01*
X93112772Y-76939449D01*
X93188173Y-76916576D01*
X93345000Y-76901130D01*
X93501826Y-76916576D01*
X93501826Y-76916576D01*
G37*
G36*
X96041826Y-76916576D02*
X96117227Y-76939449D01*
X96192628Y-76962321D01*
X96331604Y-77036606D01*
X96331606Y-77036607D01*
X96331605Y-77036607D01*
X96453422Y-77136578D01*
X96453423Y-77136580D01*
X96453425Y-77136581D01*
X96553392Y-77258392D01*
X96627679Y-77397371D01*
X96639581Y-77436607D01*
X96669907Y-77536578D01*
X96673424Y-77548174D01*
X96685000Y-77665705D01*
X96685000Y-78544295D01*
X96678039Y-78614970D01*
X96673424Y-78661827D01*
X96659130Y-78708948D01*
X96627679Y-78812629D01*
X96553392Y-78951608D01*
X96453422Y-79073422D01*
X96331608Y-79173392D01*
X96192629Y-79247679D01*
X96117227Y-79270552D01*
X96041827Y-79293424D01*
X95885000Y-79308870D01*
X95728174Y-79293424D01*
X95652774Y-79270552D01*
X95577372Y-79247679D01*
X95438393Y-79173392D01*
X95316579Y-79073422D01*
X95216609Y-78951608D01*
X95142322Y-78812629D01*
X95110871Y-78708948D01*
X95096577Y-78661827D01*
X95088470Y-78579519D01*
X95085000Y-78544294D01*
X95085000Y-77665706D01*
X95096576Y-77548175D01*
X95096577Y-77548173D01*
X95142321Y-77397373D01*
X95142321Y-77397372D01*
X95216606Y-77258396D01*
X95316576Y-77136581D01*
X95316578Y-77136578D01*
X95316580Y-77136577D01*
X95316581Y-77136575D01*
X95438392Y-77036608D01*
X95577371Y-76962321D01*
X95652772Y-76939449D01*
X95728173Y-76916576D01*
X95885000Y-76901130D01*
X96041826Y-76916576D01*
X96041826Y-76916576D01*
G37*
G36*
X103661826Y-76916576D02*
X103737227Y-76939449D01*
X103812628Y-76962321D01*
X103951604Y-77036606D01*
X103951606Y-77036607D01*
X103951605Y-77036607D01*
X104073422Y-77136578D01*
X104073423Y-77136580D01*
X104073425Y-77136581D01*
X104173392Y-77258392D01*
X104247679Y-77397371D01*
X104259581Y-77436607D01*
X104289907Y-77536578D01*
X104293424Y-77548174D01*
X104305000Y-77665705D01*
X104305000Y-78544295D01*
X104298039Y-78614970D01*
X104293424Y-78661827D01*
X104279130Y-78708948D01*
X104247679Y-78812629D01*
X104173392Y-78951608D01*
X104073422Y-79073422D01*
X103951608Y-79173392D01*
X103812629Y-79247679D01*
X103737227Y-79270552D01*
X103661827Y-79293424D01*
X103505000Y-79308870D01*
X103348174Y-79293424D01*
X103272774Y-79270552D01*
X103197372Y-79247679D01*
X103058393Y-79173392D01*
X102936579Y-79073422D01*
X102836609Y-78951608D01*
X102762322Y-78812629D01*
X102730871Y-78708948D01*
X102716577Y-78661827D01*
X102708470Y-78579519D01*
X102705000Y-78544294D01*
X102705000Y-77665706D01*
X102716576Y-77548175D01*
X102716577Y-77548173D01*
X102762321Y-77397373D01*
X102762321Y-77397372D01*
X102836606Y-77258396D01*
X102936576Y-77136581D01*
X102936578Y-77136578D01*
X102936580Y-77136577D01*
X102936581Y-77136575D01*
X103058392Y-77036608D01*
X103197371Y-76962321D01*
X103272772Y-76939449D01*
X103348173Y-76916576D01*
X103505000Y-76901130D01*
X103661826Y-76916576D01*
X103661826Y-76916576D01*
G37*
G36*
X106201826Y-76916576D02*
X106277227Y-76939449D01*
X106352628Y-76962321D01*
X106491604Y-77036606D01*
X106491606Y-77036607D01*
X106491605Y-77036607D01*
X106613422Y-77136578D01*
X106613423Y-77136580D01*
X106613425Y-77136581D01*
X106713392Y-77258392D01*
X106787679Y-77397371D01*
X106799581Y-77436607D01*
X106829907Y-77536578D01*
X106833424Y-77548174D01*
X106845000Y-77665705D01*
X106845000Y-78544295D01*
X106838039Y-78614970D01*
X106833424Y-78661827D01*
X106819130Y-78708948D01*
X106787679Y-78812629D01*
X106713392Y-78951608D01*
X106613422Y-79073422D01*
X106491608Y-79173392D01*
X106352629Y-79247679D01*
X106277227Y-79270552D01*
X106201827Y-79293424D01*
X106045000Y-79308870D01*
X105888174Y-79293424D01*
X105812774Y-79270552D01*
X105737372Y-79247679D01*
X105598393Y-79173392D01*
X105476579Y-79073422D01*
X105376609Y-78951608D01*
X105302322Y-78812629D01*
X105270871Y-78708948D01*
X105256577Y-78661827D01*
X105248470Y-78579519D01*
X105245000Y-78544294D01*
X105245000Y-77665706D01*
X105256576Y-77548175D01*
X105256577Y-77548173D01*
X105302321Y-77397373D01*
X105302321Y-77397372D01*
X105376606Y-77258396D01*
X105476576Y-77136581D01*
X105476578Y-77136578D01*
X105476580Y-77136577D01*
X105476581Y-77136575D01*
X105598392Y-77036608D01*
X105737371Y-76962321D01*
X105812772Y-76939449D01*
X105888173Y-76916576D01*
X106045000Y-76901130D01*
X106201826Y-76916576D01*
X106201826Y-76916576D01*
G37*
G36*
X108741826Y-76916576D02*
X108817227Y-76939449D01*
X108892628Y-76962321D01*
X109031604Y-77036606D01*
X109031606Y-77036607D01*
X109031605Y-77036607D01*
X109153422Y-77136578D01*
X109153423Y-77136580D01*
X109153425Y-77136581D01*
X109253392Y-77258392D01*
X109327679Y-77397371D01*
X109339581Y-77436607D01*
X109369907Y-77536578D01*
X109373424Y-77548174D01*
X109385000Y-77665705D01*
X109385000Y-78544295D01*
X109378039Y-78614970D01*
X109373424Y-78661827D01*
X109359130Y-78708948D01*
X109327679Y-78812629D01*
X109253392Y-78951608D01*
X109153422Y-79073422D01*
X109031608Y-79173392D01*
X108892629Y-79247679D01*
X108817227Y-79270552D01*
X108741827Y-79293424D01*
X108585000Y-79308870D01*
X108428174Y-79293424D01*
X108352774Y-79270552D01*
X108277372Y-79247679D01*
X108138393Y-79173392D01*
X108016579Y-79073422D01*
X107916609Y-78951608D01*
X107842322Y-78812629D01*
X107810871Y-78708948D01*
X107796577Y-78661827D01*
X107788470Y-78579519D01*
X107785000Y-78544294D01*
X107785000Y-77665706D01*
X107796576Y-77548175D01*
X107796577Y-77548173D01*
X107842321Y-77397373D01*
X107842321Y-77397372D01*
X107916606Y-77258396D01*
X108016576Y-77136581D01*
X108016578Y-77136578D01*
X108016580Y-77136577D01*
X108016581Y-77136575D01*
X108138392Y-77036608D01*
X108277371Y-76962321D01*
X108352772Y-76939449D01*
X108428173Y-76916576D01*
X108585000Y-76901130D01*
X108741826Y-76916576D01*
X108741826Y-76916576D01*
G37*
G36*
X98581826Y-76916576D02*
X98657227Y-76939449D01*
X98732628Y-76962321D01*
X98871604Y-77036606D01*
X98871606Y-77036607D01*
X98871605Y-77036607D01*
X98993422Y-77136578D01*
X98993423Y-77136580D01*
X98993425Y-77136581D01*
X99093392Y-77258392D01*
X99167679Y-77397371D01*
X99179581Y-77436607D01*
X99209907Y-77536578D01*
X99213424Y-77548174D01*
X99225000Y-77665705D01*
X99225000Y-78544295D01*
X99218039Y-78614970D01*
X99213424Y-78661827D01*
X99199130Y-78708948D01*
X99167679Y-78812629D01*
X99093392Y-78951608D01*
X98993422Y-79073422D01*
X98871608Y-79173392D01*
X98732629Y-79247679D01*
X98657227Y-79270552D01*
X98581827Y-79293424D01*
X98425000Y-79308870D01*
X98268174Y-79293424D01*
X98192774Y-79270552D01*
X98117372Y-79247679D01*
X97978393Y-79173392D01*
X97856579Y-79073422D01*
X97756609Y-78951608D01*
X97682322Y-78812629D01*
X97650871Y-78708948D01*
X97636577Y-78661827D01*
X97628470Y-78579519D01*
X97625000Y-78544294D01*
X97625000Y-77665706D01*
X97636576Y-77548175D01*
X97636577Y-77548173D01*
X97682321Y-77397373D01*
X97682321Y-77397372D01*
X97756606Y-77258396D01*
X97856576Y-77136581D01*
X97856578Y-77136578D01*
X97856580Y-77136577D01*
X97856581Y-77136575D01*
X97978392Y-77036608D01*
X98117371Y-76962321D01*
X98192772Y-76939449D01*
X98268173Y-76916576D01*
X98425000Y-76901130D01*
X98581826Y-76916576D01*
X98581826Y-76916576D01*
G37*
G36*
X101121826Y-76916576D02*
X101197227Y-76939449D01*
X101272628Y-76962321D01*
X101411604Y-77036606D01*
X101411606Y-77036607D01*
X101411605Y-77036607D01*
X101533422Y-77136578D01*
X101533423Y-77136580D01*
X101533425Y-77136581D01*
X101633392Y-77258392D01*
X101707679Y-77397371D01*
X101719581Y-77436607D01*
X101749907Y-77536578D01*
X101753424Y-77548174D01*
X101765000Y-77665705D01*
X101765000Y-78544295D01*
X101758039Y-78614970D01*
X101753424Y-78661827D01*
X101739130Y-78708948D01*
X101707679Y-78812629D01*
X101633392Y-78951608D01*
X101533422Y-79073422D01*
X101411608Y-79173392D01*
X101272629Y-79247679D01*
X101197227Y-79270552D01*
X101121827Y-79293424D01*
X100965000Y-79308870D01*
X100808174Y-79293424D01*
X100732774Y-79270552D01*
X100657372Y-79247679D01*
X100518393Y-79173392D01*
X100396579Y-79073422D01*
X100296609Y-78951608D01*
X100222322Y-78812629D01*
X100190871Y-78708948D01*
X100176577Y-78661827D01*
X100168470Y-78579519D01*
X100165000Y-78544294D01*
X100165000Y-77665706D01*
X100176576Y-77548175D01*
X100176577Y-77548173D01*
X100222321Y-77397373D01*
X100222321Y-77397372D01*
X100296606Y-77258396D01*
X100396576Y-77136581D01*
X100396578Y-77136578D01*
X100396580Y-77136577D01*
X100396581Y-77136575D01*
X100518392Y-77036608D01*
X100657371Y-76962321D01*
X100732772Y-76939449D01*
X100808173Y-76916576D01*
X100965000Y-76901130D01*
X101121826Y-76916576D01*
X101121826Y-76916576D01*
G37*
G36*
X129071630Y-77267299D02*
X129231855Y-77315903D01*
X129379520Y-77394831D01*
X129508949Y-77501051D01*
X129615169Y-77630480D01*
X129694097Y-77778145D01*
X129742701Y-77938370D01*
X129759112Y-78105000D01*
X129742701Y-78271630D01*
X129694097Y-78431855D01*
X129615169Y-78579520D01*
X129508949Y-78708949D01*
X129379520Y-78815169D01*
X129231855Y-78894097D01*
X129071630Y-78942701D01*
X128946752Y-78955000D01*
X128863248Y-78955000D01*
X128738370Y-78942701D01*
X128578145Y-78894097D01*
X128430480Y-78815169D01*
X128301051Y-78708949D01*
X128194831Y-78579520D01*
X128115903Y-78431855D01*
X128067299Y-78271630D01*
X128050888Y-78105000D01*
X128067299Y-77938370D01*
X128115903Y-77778145D01*
X128194831Y-77630480D01*
X128301051Y-77501051D01*
X128430480Y-77394831D01*
X128578145Y-77315903D01*
X128738370Y-77267299D01*
X128863248Y-77255000D01*
X128946752Y-77255000D01*
X129071630Y-77267299D01*
X129071630Y-77267299D01*
G37*
G36*
X126531630Y-77267299D02*
X126691855Y-77315903D01*
X126839520Y-77394831D01*
X126968949Y-77501051D01*
X127075169Y-77630480D01*
X127154097Y-77778145D01*
X127202701Y-77938370D01*
X127219112Y-78105000D01*
X127202701Y-78271630D01*
X127154097Y-78431855D01*
X127075169Y-78579520D01*
X126968949Y-78708949D01*
X126839520Y-78815169D01*
X126691855Y-78894097D01*
X126531630Y-78942701D01*
X126406752Y-78955000D01*
X126323248Y-78955000D01*
X126198370Y-78942701D01*
X126038145Y-78894097D01*
X125890480Y-78815169D01*
X125761051Y-78708949D01*
X125654831Y-78579520D01*
X125575903Y-78431855D01*
X125527299Y-78271630D01*
X125510888Y-78105000D01*
X125527299Y-77938370D01*
X125575903Y-77778145D01*
X125654831Y-77630480D01*
X125761051Y-77501051D01*
X125890480Y-77394831D01*
X126038145Y-77315903D01*
X126198370Y-77267299D01*
X126323248Y-77255000D01*
X126406752Y-77255000D01*
X126531630Y-77267299D01*
X126531630Y-77267299D01*
G37*
G36*
X78222649Y-77312717D02*
X78261827Y-77316576D01*
X78325012Y-77335743D01*
X78412629Y-77362321D01*
X78551608Y-77436608D01*
X78673422Y-77536578D01*
X78773392Y-77658392D01*
X78847679Y-77797371D01*
X78847679Y-77797372D01*
X78893424Y-77948173D01*
X78908870Y-78105000D01*
X78893424Y-78261827D01*
X78890450Y-78271630D01*
X78847679Y-78412629D01*
X78773392Y-78551608D01*
X78673422Y-78673422D01*
X78551608Y-78773392D01*
X78412629Y-78847679D01*
X78337227Y-78870552D01*
X78261827Y-78893424D01*
X78222649Y-78897283D01*
X78144295Y-78905000D01*
X78065705Y-78905000D01*
X77987351Y-78897283D01*
X77948173Y-78893424D01*
X77872773Y-78870552D01*
X77797371Y-78847679D01*
X77658392Y-78773392D01*
X77536578Y-78673422D01*
X77436608Y-78551608D01*
X77362321Y-78412629D01*
X77319550Y-78271630D01*
X77316576Y-78261827D01*
X77301130Y-78105000D01*
X77316576Y-77948173D01*
X77362321Y-77797372D01*
X77362321Y-77797371D01*
X77436608Y-77658392D01*
X77536578Y-77536578D01*
X77658392Y-77436608D01*
X77797371Y-77362321D01*
X77884988Y-77335743D01*
X77948173Y-77316576D01*
X77987351Y-77312717D01*
X78065705Y-77305000D01*
X78144295Y-77305000D01*
X78222649Y-77312717D01*
X78222649Y-77312717D01*
G37*
G36*
X73258352Y-77335743D02*
X73403941Y-77396048D01*
X73534973Y-77483601D01*
X73646399Y-77595027D01*
X73733952Y-77726059D01*
X73794257Y-77871648D01*
X73825000Y-78026205D01*
X73825000Y-78183795D01*
X73794257Y-78338352D01*
X73733952Y-78483941D01*
X73646399Y-78614973D01*
X73534973Y-78726399D01*
X73403941Y-78813952D01*
X73258352Y-78874257D01*
X73103795Y-78905000D01*
X72946205Y-78905000D01*
X72791648Y-78874257D01*
X72646059Y-78813952D01*
X72515027Y-78726399D01*
X72403601Y-78614973D01*
X72316048Y-78483941D01*
X72255743Y-78338352D01*
X72225000Y-78183795D01*
X72225000Y-78026205D01*
X72255743Y-77871648D01*
X72316048Y-77726059D01*
X72403601Y-77595027D01*
X72515027Y-77483601D01*
X72646059Y-77396048D01*
X72791648Y-77335743D01*
X72946205Y-77305000D01*
X73103795Y-77305000D01*
X73258352Y-77335743D01*
X73258352Y-77335743D01*
G37*
G36*
X126531630Y-74727299D02*
X126691855Y-74775903D01*
X126839520Y-74854831D01*
X126968949Y-74961051D01*
X127075169Y-75090480D01*
X127154097Y-75238145D01*
X127202701Y-75398370D01*
X127219112Y-75565000D01*
X127202701Y-75731630D01*
X127154097Y-75891855D01*
X127075169Y-76039520D01*
X126968949Y-76168949D01*
X126839520Y-76275169D01*
X126691855Y-76354097D01*
X126531630Y-76402701D01*
X126406752Y-76415000D01*
X126323248Y-76415000D01*
X126198370Y-76402701D01*
X126038145Y-76354097D01*
X125890480Y-76275169D01*
X125761051Y-76168949D01*
X125654831Y-76039520D01*
X125575903Y-75891855D01*
X125527299Y-75731630D01*
X125510888Y-75565000D01*
X125527299Y-75398370D01*
X125575903Y-75238145D01*
X125654831Y-75090480D01*
X125761051Y-74961051D01*
X125890480Y-74854831D01*
X126038145Y-74775903D01*
X126198370Y-74727299D01*
X126323248Y-74715000D01*
X126406752Y-74715000D01*
X126531630Y-74727299D01*
X126531630Y-74727299D01*
G37*
G36*
X129071630Y-74727299D02*
X129231855Y-74775903D01*
X129379520Y-74854831D01*
X129508949Y-74961051D01*
X129615169Y-75090480D01*
X129694097Y-75238145D01*
X129742701Y-75398370D01*
X129759112Y-75565000D01*
X129742701Y-75731630D01*
X129694097Y-75891855D01*
X129615169Y-76039520D01*
X129508949Y-76168949D01*
X129379520Y-76275169D01*
X129231855Y-76354097D01*
X129071630Y-76402701D01*
X128946752Y-76415000D01*
X128863248Y-76415000D01*
X128738370Y-76402701D01*
X128578145Y-76354097D01*
X128430480Y-76275169D01*
X128301051Y-76168949D01*
X128194831Y-76039520D01*
X128115903Y-75891855D01*
X128067299Y-75731630D01*
X128050888Y-75565000D01*
X128067299Y-75398370D01*
X128115903Y-75238145D01*
X128194831Y-75090480D01*
X128301051Y-74961051D01*
X128430480Y-74854831D01*
X128578145Y-74775903D01*
X128738370Y-74727299D01*
X128863248Y-74715000D01*
X128946752Y-74715000D01*
X129071630Y-74727299D01*
X129071630Y-74727299D01*
G37*
G36*
X126531630Y-72187299D02*
X126691855Y-72235903D01*
X126839520Y-72314831D01*
X126968949Y-72421051D01*
X127075169Y-72550480D01*
X127154097Y-72698145D01*
X127202701Y-72858370D01*
X127219112Y-73025000D01*
X127202701Y-73191630D01*
X127154097Y-73351855D01*
X127075169Y-73499520D01*
X126968949Y-73628949D01*
X126839520Y-73735169D01*
X126691855Y-73814097D01*
X126531630Y-73862701D01*
X126406752Y-73875000D01*
X126323248Y-73875000D01*
X126198370Y-73862701D01*
X126038145Y-73814097D01*
X125890480Y-73735169D01*
X125761051Y-73628949D01*
X125654831Y-73499520D01*
X125575903Y-73351855D01*
X125527299Y-73191630D01*
X125510888Y-73025000D01*
X125527299Y-72858370D01*
X125575903Y-72698145D01*
X125654831Y-72550480D01*
X125761051Y-72421051D01*
X125890480Y-72314831D01*
X126038145Y-72235903D01*
X126198370Y-72187299D01*
X126323248Y-72175000D01*
X126406752Y-72175000D01*
X126531630Y-72187299D01*
X126531630Y-72187299D01*
G37*
G36*
X129071630Y-72187299D02*
X129231855Y-72235903D01*
X129379520Y-72314831D01*
X129508949Y-72421051D01*
X129615169Y-72550480D01*
X129694097Y-72698145D01*
X129742701Y-72858370D01*
X129759112Y-73025000D01*
X129742701Y-73191630D01*
X129694097Y-73351855D01*
X129615169Y-73499520D01*
X129508949Y-73628949D01*
X129379520Y-73735169D01*
X129231855Y-73814097D01*
X129071630Y-73862701D01*
X128946752Y-73875000D01*
X128863248Y-73875000D01*
X128738370Y-73862701D01*
X128578145Y-73814097D01*
X128430480Y-73735169D01*
X128301051Y-73628949D01*
X128194831Y-73499520D01*
X128115903Y-73351855D01*
X128067299Y-73191630D01*
X128050888Y-73025000D01*
X128067299Y-72858370D01*
X128115903Y-72698145D01*
X128194831Y-72550480D01*
X128301051Y-72421051D01*
X128430480Y-72314831D01*
X128578145Y-72235903D01*
X128738370Y-72187299D01*
X128863248Y-72175000D01*
X128946752Y-72175000D01*
X129071630Y-72187299D01*
X129071630Y-72187299D01*
G37*
G36*
X129071630Y-69647299D02*
X129231855Y-69695903D01*
X129379520Y-69774831D01*
X129508949Y-69881051D01*
X129615169Y-70010480D01*
X129694097Y-70158145D01*
X129742701Y-70318370D01*
X129759112Y-70485000D01*
X129742701Y-70651630D01*
X129694097Y-70811855D01*
X129615169Y-70959520D01*
X129508949Y-71088949D01*
X129379520Y-71195169D01*
X129231855Y-71274097D01*
X129071630Y-71322701D01*
X128946752Y-71335000D01*
X128863248Y-71335000D01*
X128738370Y-71322701D01*
X128578145Y-71274097D01*
X128430480Y-71195169D01*
X128301051Y-71088949D01*
X128194831Y-70959520D01*
X128115903Y-70811855D01*
X128067299Y-70651630D01*
X128050888Y-70485000D01*
X128067299Y-70318370D01*
X128115903Y-70158145D01*
X128194831Y-70010480D01*
X128301051Y-69881051D01*
X128430480Y-69774831D01*
X128578145Y-69695903D01*
X128738370Y-69647299D01*
X128863248Y-69635000D01*
X128946752Y-69635000D01*
X129071630Y-69647299D01*
X129071630Y-69647299D01*
G37*
G36*
X126531630Y-69647299D02*
X126691855Y-69695903D01*
X126839520Y-69774831D01*
X126968949Y-69881051D01*
X127075169Y-70010480D01*
X127154097Y-70158145D01*
X127202701Y-70318370D01*
X127219112Y-70485000D01*
X127202701Y-70651630D01*
X127154097Y-70811855D01*
X127075169Y-70959520D01*
X126968949Y-71088949D01*
X126839520Y-71195169D01*
X126691855Y-71274097D01*
X126531630Y-71322701D01*
X126406752Y-71335000D01*
X126323248Y-71335000D01*
X126198370Y-71322701D01*
X126038145Y-71274097D01*
X125890480Y-71195169D01*
X125761051Y-71088949D01*
X125654831Y-70959520D01*
X125575903Y-70811855D01*
X125527299Y-70651630D01*
X125510888Y-70485000D01*
X125527299Y-70318370D01*
X125575903Y-70158145D01*
X125654831Y-70010480D01*
X125761051Y-69881051D01*
X125890480Y-69774831D01*
X126038145Y-69695903D01*
X126198370Y-69647299D01*
X126323248Y-69635000D01*
X126406752Y-69635000D01*
X126531630Y-69647299D01*
X126531630Y-69647299D01*
G37*
G36*
X129071630Y-67107299D02*
X129231855Y-67155903D01*
X129379520Y-67234831D01*
X129508949Y-67341051D01*
X129615169Y-67470480D01*
X129694097Y-67618145D01*
X129742701Y-67778370D01*
X129759112Y-67945000D01*
X129742701Y-68111630D01*
X129694097Y-68271855D01*
X129615169Y-68419520D01*
X129508949Y-68548949D01*
X129379520Y-68655169D01*
X129231855Y-68734097D01*
X129071630Y-68782701D01*
X128946752Y-68795000D01*
X128863248Y-68795000D01*
X128738370Y-68782701D01*
X128578145Y-68734097D01*
X128430480Y-68655169D01*
X128301051Y-68548949D01*
X128194831Y-68419520D01*
X128115903Y-68271855D01*
X128067299Y-68111630D01*
X128050888Y-67945000D01*
X128067299Y-67778370D01*
X128115903Y-67618145D01*
X128194831Y-67470480D01*
X128301051Y-67341051D01*
X128430480Y-67234831D01*
X128578145Y-67155903D01*
X128738370Y-67107299D01*
X128863248Y-67095000D01*
X128946752Y-67095000D01*
X129071630Y-67107299D01*
X129071630Y-67107299D01*
G37*
G36*
X127215000Y-68795000D02*
X125515000Y-68795000D01*
X125515000Y-67095000D01*
X127215000Y-67095000D01*
X127215000Y-68795000D01*
X127215000Y-68795000D01*
G37*
G36*
X106211630Y-65837299D02*
X106371855Y-65885903D01*
X106519520Y-65964831D01*
X106648949Y-66071051D01*
X106755169Y-66200480D01*
X106834097Y-66348145D01*
X106882701Y-66508370D01*
X106899112Y-66675000D01*
X106882701Y-66841630D01*
X106834097Y-67001855D01*
X106755169Y-67149520D01*
X106648949Y-67278949D01*
X106519520Y-67385169D01*
X106371855Y-67464097D01*
X106211630Y-67512701D01*
X106086752Y-67525000D01*
X106003248Y-67525000D01*
X105878370Y-67512701D01*
X105718145Y-67464097D01*
X105570480Y-67385169D01*
X105441051Y-67278949D01*
X105334831Y-67149520D01*
X105255903Y-67001855D01*
X105207299Y-66841630D01*
X105190888Y-66675000D01*
X105207299Y-66508370D01*
X105255903Y-66348145D01*
X105334831Y-66200480D01*
X105441051Y-66071051D01*
X105570480Y-65964831D01*
X105718145Y-65885903D01*
X105878370Y-65837299D01*
X106003248Y-65825000D01*
X106086752Y-65825000D01*
X106211630Y-65837299D01*
X106211630Y-65837299D01*
G37*
G36*
X103671630Y-65837299D02*
X103831855Y-65885903D01*
X103979520Y-65964831D01*
X104108949Y-66071051D01*
X104215169Y-66200480D01*
X104294097Y-66348145D01*
X104342701Y-66508370D01*
X104359112Y-66675000D01*
X104342701Y-66841630D01*
X104294097Y-67001855D01*
X104215169Y-67149520D01*
X104108949Y-67278949D01*
X103979520Y-67385169D01*
X103831855Y-67464097D01*
X103671630Y-67512701D01*
X103546752Y-67525000D01*
X103463248Y-67525000D01*
X103338370Y-67512701D01*
X103178145Y-67464097D01*
X103030480Y-67385169D01*
X102901051Y-67278949D01*
X102794831Y-67149520D01*
X102715903Y-67001855D01*
X102667299Y-66841630D01*
X102650888Y-66675000D01*
X102667299Y-66508370D01*
X102715903Y-66348145D01*
X102794831Y-66200480D01*
X102901051Y-66071051D01*
X103030480Y-65964831D01*
X103178145Y-65885903D01*
X103338370Y-65837299D01*
X103463248Y-65825000D01*
X103546752Y-65825000D01*
X103671630Y-65837299D01*
X103671630Y-65837299D01*
G37*
G36*
X108751630Y-65837299D02*
X108911855Y-65885903D01*
X109059520Y-65964831D01*
X109188949Y-66071051D01*
X109295169Y-66200480D01*
X109374097Y-66348145D01*
X109422701Y-66508370D01*
X109439112Y-66675000D01*
X109422701Y-66841630D01*
X109374097Y-67001855D01*
X109295169Y-67149520D01*
X109188949Y-67278949D01*
X109059520Y-67385169D01*
X108911855Y-67464097D01*
X108751630Y-67512701D01*
X108626752Y-67525000D01*
X108543248Y-67525000D01*
X108418370Y-67512701D01*
X108258145Y-67464097D01*
X108110480Y-67385169D01*
X107981051Y-67278949D01*
X107874831Y-67149520D01*
X107795903Y-67001855D01*
X107747299Y-66841630D01*
X107730888Y-66675000D01*
X107747299Y-66508370D01*
X107795903Y-66348145D01*
X107874831Y-66200480D01*
X107981051Y-66071051D01*
X108110480Y-65964831D01*
X108258145Y-65885903D01*
X108418370Y-65837299D01*
X108543248Y-65825000D01*
X108626752Y-65825000D01*
X108751630Y-65837299D01*
X108751630Y-65837299D01*
G37*
G36*
X98591630Y-65837299D02*
X98751855Y-65885903D01*
X98899520Y-65964831D01*
X99028949Y-66071051D01*
X99135169Y-66200480D01*
X99214097Y-66348145D01*
X99262701Y-66508370D01*
X99279112Y-66675000D01*
X99262701Y-66841630D01*
X99214097Y-67001855D01*
X99135169Y-67149520D01*
X99028949Y-67278949D01*
X98899520Y-67385169D01*
X98751855Y-67464097D01*
X98591630Y-67512701D01*
X98466752Y-67525000D01*
X98383248Y-67525000D01*
X98258370Y-67512701D01*
X98098145Y-67464097D01*
X97950480Y-67385169D01*
X97821051Y-67278949D01*
X97714831Y-67149520D01*
X97635903Y-67001855D01*
X97587299Y-66841630D01*
X97570888Y-66675000D01*
X97587299Y-66508370D01*
X97635903Y-66348145D01*
X97714831Y-66200480D01*
X97821051Y-66071051D01*
X97950480Y-65964831D01*
X98098145Y-65885903D01*
X98258370Y-65837299D01*
X98383248Y-65825000D01*
X98466752Y-65825000D01*
X98591630Y-65837299D01*
X98591630Y-65837299D01*
G37*
G36*
X96051630Y-65837299D02*
X96211855Y-65885903D01*
X96359520Y-65964831D01*
X96488949Y-66071051D01*
X96595169Y-66200480D01*
X96674097Y-66348145D01*
X96722701Y-66508370D01*
X96739112Y-66675000D01*
X96722701Y-66841630D01*
X96674097Y-67001855D01*
X96595169Y-67149520D01*
X96488949Y-67278949D01*
X96359520Y-67385169D01*
X96211855Y-67464097D01*
X96051630Y-67512701D01*
X95926752Y-67525000D01*
X95843248Y-67525000D01*
X95718370Y-67512701D01*
X95558145Y-67464097D01*
X95410480Y-67385169D01*
X95281051Y-67278949D01*
X95174831Y-67149520D01*
X95095903Y-67001855D01*
X95047299Y-66841630D01*
X95030888Y-66675000D01*
X95047299Y-66508370D01*
X95095903Y-66348145D01*
X95174831Y-66200480D01*
X95281051Y-66071051D01*
X95410480Y-65964831D01*
X95558145Y-65885903D01*
X95718370Y-65837299D01*
X95843248Y-65825000D01*
X95926752Y-65825000D01*
X96051630Y-65837299D01*
X96051630Y-65837299D01*
G37*
G36*
X93511630Y-65837299D02*
X93671855Y-65885903D01*
X93819520Y-65964831D01*
X93948949Y-66071051D01*
X94055169Y-66200480D01*
X94134097Y-66348145D01*
X94182701Y-66508370D01*
X94199112Y-66675000D01*
X94182701Y-66841630D01*
X94134097Y-67001855D01*
X94055169Y-67149520D01*
X93948949Y-67278949D01*
X93819520Y-67385169D01*
X93671855Y-67464097D01*
X93511630Y-67512701D01*
X93386752Y-67525000D01*
X93303248Y-67525000D01*
X93178370Y-67512701D01*
X93018145Y-67464097D01*
X92870480Y-67385169D01*
X92741051Y-67278949D01*
X92634831Y-67149520D01*
X92555903Y-67001855D01*
X92507299Y-66841630D01*
X92490888Y-66675000D01*
X92507299Y-66508370D01*
X92555903Y-66348145D01*
X92634831Y-66200480D01*
X92741051Y-66071051D01*
X92870480Y-65964831D01*
X93018145Y-65885903D01*
X93178370Y-65837299D01*
X93303248Y-65825000D01*
X93386752Y-65825000D01*
X93511630Y-65837299D01*
X93511630Y-65837299D01*
G37*
G36*
X90971630Y-65837299D02*
X91131855Y-65885903D01*
X91279520Y-65964831D01*
X91408949Y-66071051D01*
X91515169Y-66200480D01*
X91594097Y-66348145D01*
X91642701Y-66508370D01*
X91659112Y-66675000D01*
X91642701Y-66841630D01*
X91594097Y-67001855D01*
X91515169Y-67149520D01*
X91408949Y-67278949D01*
X91279520Y-67385169D01*
X91131855Y-67464097D01*
X90971630Y-67512701D01*
X90846752Y-67525000D01*
X90763248Y-67525000D01*
X90638370Y-67512701D01*
X90478145Y-67464097D01*
X90330480Y-67385169D01*
X90201051Y-67278949D01*
X90094831Y-67149520D01*
X90015903Y-67001855D01*
X89967299Y-66841630D01*
X89950888Y-66675000D01*
X89967299Y-66508370D01*
X90015903Y-66348145D01*
X90094831Y-66200480D01*
X90201051Y-66071051D01*
X90330480Y-65964831D01*
X90478145Y-65885903D01*
X90638370Y-65837299D01*
X90763248Y-65825000D01*
X90846752Y-65825000D01*
X90971630Y-65837299D01*
X90971630Y-65837299D01*
G37*
G36*
X88431630Y-65837299D02*
X88591855Y-65885903D01*
X88739520Y-65964831D01*
X88868949Y-66071051D01*
X88975169Y-66200480D01*
X89054097Y-66348145D01*
X89102701Y-66508370D01*
X89119112Y-66675000D01*
X89102701Y-66841630D01*
X89054097Y-67001855D01*
X88975169Y-67149520D01*
X88868949Y-67278949D01*
X88739520Y-67385169D01*
X88591855Y-67464097D01*
X88431630Y-67512701D01*
X88306752Y-67525000D01*
X88223248Y-67525000D01*
X88098370Y-67512701D01*
X87938145Y-67464097D01*
X87790480Y-67385169D01*
X87661051Y-67278949D01*
X87554831Y-67149520D01*
X87475903Y-67001855D01*
X87427299Y-66841630D01*
X87410888Y-66675000D01*
X87427299Y-66508370D01*
X87475903Y-66348145D01*
X87554831Y-66200480D01*
X87661051Y-66071051D01*
X87790480Y-65964831D01*
X87938145Y-65885903D01*
X88098370Y-65837299D01*
X88223248Y-65825000D01*
X88306752Y-65825000D01*
X88431630Y-65837299D01*
X88431630Y-65837299D01*
G37*
G36*
X86575000Y-67525000D02*
X84875000Y-67525000D01*
X84875000Y-65825000D01*
X86575000Y-65825000D01*
X86575000Y-67525000D01*
X86575000Y-67525000D01*
G37*
G36*
X101131630Y-65837299D02*
X101291855Y-65885903D01*
X101439520Y-65964831D01*
X101568949Y-66071051D01*
X101675169Y-66200480D01*
X101754097Y-66348145D01*
X101802701Y-66508370D01*
X101819112Y-66675000D01*
X101802701Y-66841630D01*
X101754097Y-67001855D01*
X101675169Y-67149520D01*
X101568949Y-67278949D01*
X101439520Y-67385169D01*
X101291855Y-67464097D01*
X101131630Y-67512701D01*
X101006752Y-67525000D01*
X100923248Y-67525000D01*
X100798370Y-67512701D01*
X100638145Y-67464097D01*
X100490480Y-67385169D01*
X100361051Y-67278949D01*
X100254831Y-67149520D01*
X100175903Y-67001855D01*
X100127299Y-66841630D01*
X100110888Y-66675000D01*
X100127299Y-66508370D01*
X100175903Y-66348145D01*
X100254831Y-66200480D01*
X100361051Y-66071051D01*
X100490480Y-65964831D01*
X100638145Y-65885903D01*
X100798370Y-65837299D01*
X100923248Y-65825000D01*
X101006752Y-65825000D01*
X101131630Y-65837299D01*
X101131630Y-65837299D01*
G37*
G36*
X90971630Y-63297299D02*
X91131855Y-63345903D01*
X91279520Y-63424831D01*
X91408949Y-63531051D01*
X91515169Y-63660480D01*
X91594097Y-63808145D01*
X91642701Y-63968370D01*
X91659112Y-64135000D01*
X91642701Y-64301630D01*
X91594097Y-64461855D01*
X91515169Y-64609520D01*
X91408949Y-64738949D01*
X91279520Y-64845169D01*
X91131855Y-64924097D01*
X90971630Y-64972701D01*
X90846752Y-64985000D01*
X90763248Y-64985000D01*
X90638370Y-64972701D01*
X90478145Y-64924097D01*
X90330480Y-64845169D01*
X90201051Y-64738949D01*
X90094831Y-64609520D01*
X90015903Y-64461855D01*
X89967299Y-64301630D01*
X89950888Y-64135000D01*
X89967299Y-63968370D01*
X90015903Y-63808145D01*
X90094831Y-63660480D01*
X90201051Y-63531051D01*
X90330480Y-63424831D01*
X90478145Y-63345903D01*
X90638370Y-63297299D01*
X90763248Y-63285000D01*
X90846752Y-63285000D01*
X90971630Y-63297299D01*
X90971630Y-63297299D01*
G37*
G36*
X108751630Y-63297299D02*
X108911855Y-63345903D01*
X109059520Y-63424831D01*
X109188949Y-63531051D01*
X109295169Y-63660480D01*
X109374097Y-63808145D01*
X109422701Y-63968370D01*
X109439112Y-64135000D01*
X109422701Y-64301630D01*
X109374097Y-64461855D01*
X109295169Y-64609520D01*
X109188949Y-64738949D01*
X109059520Y-64845169D01*
X108911855Y-64924097D01*
X108751630Y-64972701D01*
X108626752Y-64985000D01*
X108543248Y-64985000D01*
X108418370Y-64972701D01*
X108258145Y-64924097D01*
X108110480Y-64845169D01*
X107981051Y-64738949D01*
X107874831Y-64609520D01*
X107795903Y-64461855D01*
X107747299Y-64301630D01*
X107730888Y-64135000D01*
X107747299Y-63968370D01*
X107795903Y-63808145D01*
X107874831Y-63660480D01*
X107981051Y-63531051D01*
X108110480Y-63424831D01*
X108258145Y-63345903D01*
X108418370Y-63297299D01*
X108543248Y-63285000D01*
X108626752Y-63285000D01*
X108751630Y-63297299D01*
X108751630Y-63297299D01*
G37*
G36*
X106211630Y-63297299D02*
X106371855Y-63345903D01*
X106519520Y-63424831D01*
X106648949Y-63531051D01*
X106755169Y-63660480D01*
X106834097Y-63808145D01*
X106882701Y-63968370D01*
X106899112Y-64135000D01*
X106882701Y-64301630D01*
X106834097Y-64461855D01*
X106755169Y-64609520D01*
X106648949Y-64738949D01*
X106519520Y-64845169D01*
X106371855Y-64924097D01*
X106211630Y-64972701D01*
X106086752Y-64985000D01*
X106003248Y-64985000D01*
X105878370Y-64972701D01*
X105718145Y-64924097D01*
X105570480Y-64845169D01*
X105441051Y-64738949D01*
X105334831Y-64609520D01*
X105255903Y-64461855D01*
X105207299Y-64301630D01*
X105190888Y-64135000D01*
X105207299Y-63968370D01*
X105255903Y-63808145D01*
X105334831Y-63660480D01*
X105441051Y-63531051D01*
X105570480Y-63424831D01*
X105718145Y-63345903D01*
X105878370Y-63297299D01*
X106003248Y-63285000D01*
X106086752Y-63285000D01*
X106211630Y-63297299D01*
X106211630Y-63297299D01*
G37*
G36*
X103671630Y-63297299D02*
X103831855Y-63345903D01*
X103979520Y-63424831D01*
X104108949Y-63531051D01*
X104215169Y-63660480D01*
X104294097Y-63808145D01*
X104342701Y-63968370D01*
X104359112Y-64135000D01*
X104342701Y-64301630D01*
X104294097Y-64461855D01*
X104215169Y-64609520D01*
X104108949Y-64738949D01*
X103979520Y-64845169D01*
X103831855Y-64924097D01*
X103671630Y-64972701D01*
X103546752Y-64985000D01*
X103463248Y-64985000D01*
X103338370Y-64972701D01*
X103178145Y-64924097D01*
X103030480Y-64845169D01*
X102901051Y-64738949D01*
X102794831Y-64609520D01*
X102715903Y-64461855D01*
X102667299Y-64301630D01*
X102650888Y-64135000D01*
X102667299Y-63968370D01*
X102715903Y-63808145D01*
X102794831Y-63660480D01*
X102901051Y-63531051D01*
X103030480Y-63424831D01*
X103178145Y-63345903D01*
X103338370Y-63297299D01*
X103463248Y-63285000D01*
X103546752Y-63285000D01*
X103671630Y-63297299D01*
X103671630Y-63297299D01*
G37*
G36*
X88431630Y-63297299D02*
X88591855Y-63345903D01*
X88739520Y-63424831D01*
X88868949Y-63531051D01*
X88975169Y-63660480D01*
X89054097Y-63808145D01*
X89102701Y-63968370D01*
X89119112Y-64135000D01*
X89102701Y-64301630D01*
X89054097Y-64461855D01*
X88975169Y-64609520D01*
X88868949Y-64738949D01*
X88739520Y-64845169D01*
X88591855Y-64924097D01*
X88431630Y-64972701D01*
X88306752Y-64985000D01*
X88223248Y-64985000D01*
X88098370Y-64972701D01*
X87938145Y-64924097D01*
X87790480Y-64845169D01*
X87661051Y-64738949D01*
X87554831Y-64609520D01*
X87475903Y-64461855D01*
X87427299Y-64301630D01*
X87410888Y-64135000D01*
X87427299Y-63968370D01*
X87475903Y-63808145D01*
X87554831Y-63660480D01*
X87661051Y-63531051D01*
X87790480Y-63424831D01*
X87938145Y-63345903D01*
X88098370Y-63297299D01*
X88223248Y-63285000D01*
X88306752Y-63285000D01*
X88431630Y-63297299D01*
X88431630Y-63297299D01*
G37*
G36*
X101131630Y-63297299D02*
X101291855Y-63345903D01*
X101439520Y-63424831D01*
X101568949Y-63531051D01*
X101675169Y-63660480D01*
X101754097Y-63808145D01*
X101802701Y-63968370D01*
X101819112Y-64135000D01*
X101802701Y-64301630D01*
X101754097Y-64461855D01*
X101675169Y-64609520D01*
X101568949Y-64738949D01*
X101439520Y-64845169D01*
X101291855Y-64924097D01*
X101131630Y-64972701D01*
X101006752Y-64985000D01*
X100923248Y-64985000D01*
X100798370Y-64972701D01*
X100638145Y-64924097D01*
X100490480Y-64845169D01*
X100361051Y-64738949D01*
X100254831Y-64609520D01*
X100175903Y-64461855D01*
X100127299Y-64301630D01*
X100110888Y-64135000D01*
X100127299Y-63968370D01*
X100175903Y-63808145D01*
X100254831Y-63660480D01*
X100361051Y-63531051D01*
X100490480Y-63424831D01*
X100638145Y-63345903D01*
X100798370Y-63297299D01*
X100923248Y-63285000D01*
X101006752Y-63285000D01*
X101131630Y-63297299D01*
X101131630Y-63297299D01*
G37*
G36*
X98591630Y-63297299D02*
X98751855Y-63345903D01*
X98899520Y-63424831D01*
X99028949Y-63531051D01*
X99135169Y-63660480D01*
X99214097Y-63808145D01*
X99262701Y-63968370D01*
X99279112Y-64135000D01*
X99262701Y-64301630D01*
X99214097Y-64461855D01*
X99135169Y-64609520D01*
X99028949Y-64738949D01*
X98899520Y-64845169D01*
X98751855Y-64924097D01*
X98591630Y-64972701D01*
X98466752Y-64985000D01*
X98383248Y-64985000D01*
X98258370Y-64972701D01*
X98098145Y-64924097D01*
X97950480Y-64845169D01*
X97821051Y-64738949D01*
X97714831Y-64609520D01*
X97635903Y-64461855D01*
X97587299Y-64301630D01*
X97570888Y-64135000D01*
X97587299Y-63968370D01*
X97635903Y-63808145D01*
X97714831Y-63660480D01*
X97821051Y-63531051D01*
X97950480Y-63424831D01*
X98098145Y-63345903D01*
X98258370Y-63297299D01*
X98383248Y-63285000D01*
X98466752Y-63285000D01*
X98591630Y-63297299D01*
X98591630Y-63297299D01*
G37*
G36*
X96051630Y-63297299D02*
X96211855Y-63345903D01*
X96359520Y-63424831D01*
X96488949Y-63531051D01*
X96595169Y-63660480D01*
X96674097Y-63808145D01*
X96722701Y-63968370D01*
X96739112Y-64135000D01*
X96722701Y-64301630D01*
X96674097Y-64461855D01*
X96595169Y-64609520D01*
X96488949Y-64738949D01*
X96359520Y-64845169D01*
X96211855Y-64924097D01*
X96051630Y-64972701D01*
X95926752Y-64985000D01*
X95843248Y-64985000D01*
X95718370Y-64972701D01*
X95558145Y-64924097D01*
X95410480Y-64845169D01*
X95281051Y-64738949D01*
X95174831Y-64609520D01*
X95095903Y-64461855D01*
X95047299Y-64301630D01*
X95030888Y-64135000D01*
X95047299Y-63968370D01*
X95095903Y-63808145D01*
X95174831Y-63660480D01*
X95281051Y-63531051D01*
X95410480Y-63424831D01*
X95558145Y-63345903D01*
X95718370Y-63297299D01*
X95843248Y-63285000D01*
X95926752Y-63285000D01*
X96051630Y-63297299D01*
X96051630Y-63297299D01*
G37*
G36*
X93511630Y-63297299D02*
X93671855Y-63345903D01*
X93819520Y-63424831D01*
X93948949Y-63531051D01*
X94055169Y-63660480D01*
X94134097Y-63808145D01*
X94182701Y-63968370D01*
X94199112Y-64135000D01*
X94182701Y-64301630D01*
X94134097Y-64461855D01*
X94055169Y-64609520D01*
X93948949Y-64738949D01*
X93819520Y-64845169D01*
X93671855Y-64924097D01*
X93511630Y-64972701D01*
X93386752Y-64985000D01*
X93303248Y-64985000D01*
X93178370Y-64972701D01*
X93018145Y-64924097D01*
X92870480Y-64845169D01*
X92741051Y-64738949D01*
X92634831Y-64609520D01*
X92555903Y-64461855D01*
X92507299Y-64301630D01*
X92490888Y-64135000D01*
X92507299Y-63968370D01*
X92555903Y-63808145D01*
X92634831Y-63660480D01*
X92741051Y-63531051D01*
X92870480Y-63424831D01*
X93018145Y-63345903D01*
X93178370Y-63297299D01*
X93303248Y-63285000D01*
X93386752Y-63285000D01*
X93511630Y-63297299D01*
X93511630Y-63297299D01*
G37*
G36*
X85891630Y-63297299D02*
X86051855Y-63345903D01*
X86199520Y-63424831D01*
X86328949Y-63531051D01*
X86435169Y-63660480D01*
X86514097Y-63808145D01*
X86562701Y-63968370D01*
X86579112Y-64135000D01*
X86562701Y-64301630D01*
X86514097Y-64461855D01*
X86435169Y-64609520D01*
X86328949Y-64738949D01*
X86199520Y-64845169D01*
X86051855Y-64924097D01*
X85891630Y-64972701D01*
X85766752Y-64985000D01*
X85683248Y-64985000D01*
X85558370Y-64972701D01*
X85398145Y-64924097D01*
X85250480Y-64845169D01*
X85121051Y-64738949D01*
X85014831Y-64609520D01*
X84935903Y-64461855D01*
X84887299Y-64301630D01*
X84870888Y-64135000D01*
X84887299Y-63968370D01*
X84935903Y-63808145D01*
X85014831Y-63660480D01*
X85121051Y-63531051D01*
X85250480Y-63424831D01*
X85398145Y-63345903D01*
X85558370Y-63297299D01*
X85683248Y-63285000D01*
X85766752Y-63285000D01*
X85891630Y-63297299D01*
X85891630Y-63297299D01*
G37*
G36*
X128780456Y-56737251D02*
X129098936Y-56869170D01*
X129385560Y-57060686D01*
X129629314Y-57304440D01*
X129820830Y-57591064D01*
X129952749Y-57909544D01*
X130020000Y-58247640D01*
X130020000Y-58592360D01*
X129952749Y-58930456D01*
X129820830Y-59248936D01*
X129629314Y-59535560D01*
X129385560Y-59779314D01*
X129098936Y-59970830D01*
X128780456Y-60102749D01*
X128442360Y-60170000D01*
X128097640Y-60170000D01*
X127759544Y-60102749D01*
X127441064Y-59970830D01*
X127154440Y-59779314D01*
X126910686Y-59535560D01*
X126719170Y-59248936D01*
X126587251Y-58930456D01*
X126520000Y-58592360D01*
X126520000Y-58247640D01*
X126587251Y-57909544D01*
X126719170Y-57591064D01*
X126910686Y-57304440D01*
X127154440Y-57060686D01*
X127441064Y-56869170D01*
X127759544Y-56737251D01*
X128097640Y-56670000D01*
X128442360Y-56670000D01*
X128780456Y-56737251D01*
X128780456Y-56737251D01*
G37*
M02*
