M48
;DRILL file {KiCad 5.0.2-bee76a0~70~ubuntu18.04.1} date lun. 23 nov. 2020 14:52:50 CET
;FORMAT={-:-/ absolute / metric / decimal}
FMAT,2
METRIC,TZ
T1C0.600
T2C0.800
T3C1.000
%
G90
G05
T1
X88.265Y-96.52
X95.885Y-96.52
X111.73Y-83.185
X111.76Y-75.565
X112.395Y-64.77
X112.395Y-62.865
X116.205Y-83.185
X116.205Y-90.17
X116.205Y-85.725
X121.92Y-75.565
X126.365Y-64.77
X132.08Y-62.865
T2
X85.725Y-78.105
X85.725Y-85.725
X88.265Y-78.105
X88.265Y-85.725
X90.805Y-78.105
X90.805Y-85.725
X93.345Y-78.105
X93.345Y-85.725
X95.885Y-78.105
X95.885Y-85.725
X98.425Y-78.105
X98.425Y-85.725
X100.965Y-78.105
X100.965Y-85.725
X103.505Y-78.105
X103.505Y-85.725
X106.045Y-78.105
X106.045Y-85.725
X108.585Y-78.105
X108.585Y-85.725
X73.025Y-78.105
X73.025Y-83.105
X78.105Y-78.105
X78.105Y-93.345
T3
X126.365Y-67.945
X126.365Y-70.485
X126.365Y-73.025
X126.365Y-75.565
X126.365Y-78.105
X126.365Y-80.645
X126.365Y-83.185
X126.365Y-85.725
X126.365Y-88.265
X126.365Y-90.805
X128.905Y-67.945
X128.905Y-70.485
X128.905Y-73.025
X128.905Y-75.565
X128.905Y-78.105
X128.905Y-80.645
X128.905Y-83.185
X128.905Y-85.725
X128.905Y-88.265
X128.905Y-90.805
X85.725Y-64.135
X85.725Y-66.675
X88.265Y-64.135
X88.265Y-66.675
X90.805Y-64.135
X90.805Y-66.675
X93.345Y-64.135
X93.345Y-66.675
X95.885Y-64.135
X95.885Y-66.675
X98.425Y-64.135
X98.425Y-66.675
X100.965Y-64.135
X100.965Y-66.675
X103.505Y-64.135
X103.505Y-66.675
X106.045Y-64.135
X106.045Y-66.675
X108.585Y-64.135
X108.585Y-66.675
T0
M30
