M48
;DRILL file {KiCad 5.0.2-bee76a0~70~ubuntu18.04.1} date lun. 23 nov. 2020 14:53:11 CET
;FORMAT={-:-/ absolute / metric / decimal}
FMAT,2
METRIC,TZ
T1C0.400
T2C0.600
T3C1.000
T4C1.200
T5C1.300
T6C1.400
%
G90
G05
T1
X154.94Y-65.405
T2
X148.59Y-88.265
X158.115Y-65.405
X162.56Y-65.405
X171.45Y-88.265
X175.895Y-71.755
X177.8Y-62.865
X177.8Y-74.295
X178.435Y-79.375
X178.435Y-88.265
X180.34Y-66.675
X180.34Y-74.295
X180.34Y-76.835
X180.34Y-95.25
X188.595Y-66.675
X189.23Y-74.295
T3
X165.1Y-65.405
X165.1Y-67.945
X165.1Y-70.485
X165.1Y-73.025
X165.1Y-75.565
X165.1Y-78.105
X165.1Y-80.645
X165.1Y-83.185
X170.18Y-66.675
X170.18Y-69.215
X170.18Y-71.755
X170.18Y-74.295
X170.18Y-76.835
X170.18Y-79.375
X170.18Y-81.915
X140.335Y-67.945
X140.335Y-70.485
X140.335Y-73.025
X140.335Y-75.565
X140.335Y-78.105
X140.335Y-80.645
X140.335Y-83.185
X140.335Y-85.725
X140.335Y-88.265
X140.335Y-90.805
X142.875Y-67.945
X142.875Y-70.485
X142.875Y-73.025
X142.875Y-75.565
X142.875Y-78.105
X142.875Y-80.645
X142.875Y-83.185
X142.875Y-85.725
X142.875Y-88.265
X142.875Y-90.805
T4
X152.4Y-59.055
X180.34Y-59.055
X155.575Y-92.71
X183.515Y-92.71
T5
X222.885Y-81.28
X222.885Y-86.36
X222.885Y-91.44
X222.885Y-96.52
X222.885Y-64.135
X222.885Y-69.215
T6
X198.12Y-83.185
X198.12Y-95.885
X209.55Y-83.185
X209.55Y-95.885
X203.835Y-83.185
X203.835Y-95.885
X198.12Y-64.135
X198.12Y-76.835
X192.405Y-64.135
X192.405Y-76.835
X209.55Y-64.135
X209.55Y-76.835
X203.835Y-64.135
X203.835Y-76.835
X192.405Y-83.185
X192.405Y-95.885
T0
M30
