%TF.GenerationSoftware,KiCad,Pcbnew,5.0.2-bee76a0~70~ubuntu18.04.1*%
%TF.CreationDate,2020-11-23T14:53:07+01:00*%
%TF.ProjectId,Carte_L298,43617274-655f-44c3-9239-382e6b696361,rev?*%
%TF.SameCoordinates,Original*%
%TF.FileFunction,Copper,L2,Bot*%
%TF.FilePolarity,Positive*%
%FSLAX46Y46*%
G04 Gerber Fmt 4.6, Leading zero omitted, Abs format (unit mm)*
G04 Created by KiCad (PCBNEW 5.0.2-bee76a0~70~ubuntu18.04.1) date lun. 23 nov. 2020 14:53:07 CET*
%MOMM*%
%LPD*%
G01*
G04 APERTURE LIST*
%TA.AperFunction,NonConductor*%
%ADD10C,0.300000*%
%TD*%
%TA.AperFunction,ComponentPad*%
%ADD11R,1.800000X1.800000*%
%TD*%
%TA.AperFunction,ComponentPad*%
%ADD12O,1.800000X1.800000*%
%TD*%
%TA.AperFunction,ComponentPad*%
%ADD13R,2.600000X2.600000*%
%TD*%
%TA.AperFunction,ComponentPad*%
%ADD14C,2.600000*%
%TD*%
%TA.AperFunction,ComponentPad*%
%ADD15O,2.600000X2.600000*%
%TD*%
%TA.AperFunction,ComponentPad*%
%ADD16R,1.700000X1.700000*%
%TD*%
%TA.AperFunction,ComponentPad*%
%ADD17O,1.700000X1.700000*%
%TD*%
%TA.AperFunction,ComponentPad*%
%ADD18O,2.400000X2.400000*%
%TD*%
%TA.AperFunction,ComponentPad*%
%ADD19C,2.400000*%
%TD*%
%TA.AperFunction,ViaPad*%
%ADD20C,1.200000*%
%TD*%
%TA.AperFunction,ViaPad*%
%ADD21C,0.800000*%
%TD*%
%TA.AperFunction,Conductor*%
%ADD22C,2.000000*%
%TD*%
%TA.AperFunction,Conductor*%
%ADD23C,1.000000*%
%TD*%
%TA.AperFunction,Conductor*%
%ADD24C,0.254000*%
%TD*%
G04 APERTURE END LIST*
D10*
X218795714Y-59098571D02*
X219510000Y-59098571D01*
X219510000Y-57598571D01*
X218295714Y-58312857D02*
X217795714Y-58312857D01*
X217581428Y-59098571D02*
X218295714Y-59098571D01*
X218295714Y-57598571D01*
X217581428Y-57598571D01*
X216938571Y-58098571D02*
X216938571Y-59098571D01*
X216938571Y-58241428D02*
X216867142Y-58170000D01*
X216724285Y-58098571D01*
X216510000Y-58098571D01*
X216367142Y-58170000D01*
X216295714Y-58312857D01*
X216295714Y-59098571D01*
X215652857Y-59027142D02*
X215510000Y-59098571D01*
X215224285Y-59098571D01*
X215081428Y-59027142D01*
X215010000Y-58884285D01*
X215010000Y-58812857D01*
X215081428Y-58670000D01*
X215224285Y-58598571D01*
X215438571Y-58598571D01*
X215581428Y-58527142D01*
X215652857Y-58384285D01*
X215652857Y-58312857D01*
X215581428Y-58170000D01*
X215438571Y-58098571D01*
X215224285Y-58098571D01*
X215081428Y-58170000D01*
X214367142Y-58312857D02*
X213867142Y-58312857D01*
X213652857Y-59098571D02*
X214367142Y-59098571D01*
X214367142Y-57598571D01*
X213652857Y-57598571D01*
X210795714Y-57527142D02*
X212081428Y-59455714D01*
X209224285Y-57741428D02*
X209152857Y-57670000D01*
X209010000Y-57598571D01*
X208652857Y-57598571D01*
X208510000Y-57670000D01*
X208438571Y-57741428D01*
X208367142Y-57884285D01*
X208367142Y-58027142D01*
X208438571Y-58241428D01*
X209295714Y-59098571D01*
X208367142Y-59098571D01*
X207438571Y-57598571D02*
X207295714Y-57598571D01*
X207152857Y-57670000D01*
X207081428Y-57741428D01*
X207010000Y-57884285D01*
X206938571Y-58170000D01*
X206938571Y-58527142D01*
X207010000Y-58812857D01*
X207081428Y-58955714D01*
X207152857Y-59027142D01*
X207295714Y-59098571D01*
X207438571Y-59098571D01*
X207581428Y-59027142D01*
X207652857Y-58955714D01*
X207724285Y-58812857D01*
X207795714Y-58527142D01*
X207795714Y-58170000D01*
X207724285Y-57884285D01*
X207652857Y-57741428D01*
X207581428Y-57670000D01*
X207438571Y-57598571D01*
X206367142Y-57741428D02*
X206295714Y-57670000D01*
X206152857Y-57598571D01*
X205795714Y-57598571D01*
X205652857Y-57670000D01*
X205581428Y-57741428D01*
X205510000Y-57884285D01*
X205510000Y-58027142D01*
X205581428Y-58241428D01*
X206438571Y-59098571D01*
X205510000Y-59098571D01*
X204581428Y-57598571D02*
X204438571Y-57598571D01*
X204295714Y-57670000D01*
X204224285Y-57741428D01*
X204152857Y-57884285D01*
X204081428Y-58170000D01*
X204081428Y-58527142D01*
X204152857Y-58812857D01*
X204224285Y-58955714D01*
X204295714Y-59027142D01*
X204438571Y-59098571D01*
X204581428Y-59098571D01*
X204724285Y-59027142D01*
X204795714Y-58955714D01*
X204867142Y-58812857D01*
X204938571Y-58527142D01*
X204938571Y-58170000D01*
X204867142Y-57884285D01*
X204795714Y-57741428D01*
X204724285Y-57670000D01*
X204581428Y-57598571D01*
X202295714Y-58527142D02*
X201152857Y-58527142D01*
X198581428Y-59098571D02*
X199295714Y-59098571D01*
X199295714Y-57598571D01*
X198152857Y-57741428D02*
X198081428Y-57670000D01*
X197938571Y-57598571D01*
X197581428Y-57598571D01*
X197438571Y-57670000D01*
X197367142Y-57741428D01*
X197295714Y-57884285D01*
X197295714Y-58027142D01*
X197367142Y-58241428D01*
X198224285Y-59098571D01*
X197295714Y-59098571D01*
X196581428Y-59098571D02*
X196295714Y-59098571D01*
X196152857Y-59027142D01*
X196081428Y-58955714D01*
X195938571Y-58741428D01*
X195867142Y-58455714D01*
X195867142Y-57884285D01*
X195938571Y-57741428D01*
X196010000Y-57670000D01*
X196152857Y-57598571D01*
X196438571Y-57598571D01*
X196581428Y-57670000D01*
X196652857Y-57741428D01*
X196724285Y-57884285D01*
X196724285Y-58241428D01*
X196652857Y-58384285D01*
X196581428Y-58455714D01*
X196438571Y-58527142D01*
X196152857Y-58527142D01*
X196010000Y-58455714D01*
X195938571Y-58384285D01*
X195867142Y-58241428D01*
X195010000Y-58241428D02*
X195152857Y-58170000D01*
X195224285Y-58098571D01*
X195295714Y-57955714D01*
X195295714Y-57884285D01*
X195224285Y-57741428D01*
X195152857Y-57670000D01*
X195010000Y-57598571D01*
X194724285Y-57598571D01*
X194581428Y-57670000D01*
X194510000Y-57741428D01*
X194438571Y-57884285D01*
X194438571Y-57955714D01*
X194510000Y-58098571D01*
X194581428Y-58170000D01*
X194724285Y-58241428D01*
X195010000Y-58241428D01*
X195152857Y-58312857D01*
X195224285Y-58384285D01*
X195295714Y-58527142D01*
X195295714Y-58812857D01*
X195224285Y-58955714D01*
X195152857Y-59027142D01*
X195010000Y-59098571D01*
X194724285Y-59098571D01*
X194581428Y-59027142D01*
X194510000Y-58955714D01*
X194438571Y-58812857D01*
X194438571Y-58527142D01*
X194510000Y-58384285D01*
X194581428Y-58312857D01*
X194724285Y-58241428D01*
D11*
%TO.P,U1,1*%
%TO.N,SenseA*%
X165100000Y-65405000D03*
D12*
%TO.P,U1,2*%
%TO.N,/BobA2*%
X170180000Y-66675000D03*
%TO.P,U1,3*%
%TO.N,/BobA1*%
X165100000Y-67945000D03*
%TO.P,U1,4*%
%TO.N,V_MOT*%
X170180000Y-69215000D03*
%TO.P,U1,5*%
%TO.N,IN1*%
X165100000Y-70485000D03*
%TO.P,U1,6*%
%TO.N,EnA*%
X170180000Y-71755000D03*
%TO.P,U1,7*%
%TO.N,IN2*%
X165100000Y-73025000D03*
%TO.P,U1,8*%
%TO.N,GND*%
X170180000Y-74295000D03*
%TO.P,U1,9*%
%TO.N,5V*%
X165100000Y-75565000D03*
%TO.P,U1,10*%
%TO.N,IN3*%
X170180000Y-76835000D03*
%TO.P,U1,11*%
%TO.N,EnB*%
X165100000Y-78105000D03*
%TO.P,U1,12*%
%TO.N,IN4*%
X170180000Y-79375000D03*
%TO.P,U1,13*%
%TO.N,/BobB1*%
X165100000Y-80645000D03*
%TO.P,U1,14*%
%TO.N,/BobB2*%
X170180000Y-81915000D03*
%TO.P,U1,15*%
%TO.N,SenseB*%
X165100000Y-83185000D03*
%TD*%
D13*
%TO.P,J1,1*%
%TO.N,V_MOT*%
X222885000Y-64135000D03*
D14*
%TO.P,J1,2*%
%TO.N,GND*%
X222885000Y-69215000D03*
%TD*%
D13*
%TO.P,J3,1*%
%TO.N,/BobB2*%
X222885000Y-81280000D03*
D14*
%TO.P,J3,2*%
%TO.N,/BobB1*%
X222885000Y-86360000D03*
%TO.P,J3,3*%
%TO.N,/BobA2*%
X222885000Y-91440000D03*
%TO.P,J3,4*%
%TO.N,/BobA1*%
X222885000Y-96520000D03*
%TD*%
D15*
%TO.P,D6,2*%
%TO.N,GND*%
X198120000Y-95885000D03*
D13*
%TO.P,D6,1*%
%TO.N,/BobB1*%
X198120000Y-83185000D03*
%TD*%
%TO.P,D3,1*%
%TO.N,V_MOT*%
X192405000Y-64135000D03*
D15*
%TO.P,D3,2*%
%TO.N,/BobA1*%
X192405000Y-76835000D03*
%TD*%
D16*
%TO.P,J2,1*%
%TO.N,SenseA*%
X140335000Y-67945000D03*
D17*
%TO.P,J2,2*%
X142875000Y-67945000D03*
%TO.P,J2,3*%
%TO.N,IN1*%
X140335000Y-70485000D03*
%TO.P,J2,4*%
X142875000Y-70485000D03*
%TO.P,J2,5*%
%TO.N,EnA*%
X140335000Y-73025000D03*
%TO.P,J2,6*%
X142875000Y-73025000D03*
%TO.P,J2,7*%
%TO.N,IN2*%
X140335000Y-75565000D03*
%TO.P,J2,8*%
X142875000Y-75565000D03*
%TO.P,J2,9*%
%TO.N,GND*%
X140335000Y-78105000D03*
%TO.P,J2,10*%
X142875000Y-78105000D03*
%TO.P,J2,11*%
%TO.N,5V*%
X140335000Y-80645000D03*
%TO.P,J2,12*%
X142875000Y-80645000D03*
%TO.P,J2,13*%
%TO.N,IN3*%
X140335000Y-83185000D03*
%TO.P,J2,14*%
X142875000Y-83185000D03*
%TO.P,J2,15*%
%TO.N,EnB*%
X140335000Y-85725000D03*
%TO.P,J2,16*%
X142875000Y-85725000D03*
%TO.P,J2,17*%
%TO.N,IN4*%
X140335000Y-88265000D03*
%TO.P,J2,18*%
X142875000Y-88265000D03*
%TO.P,J2,19*%
%TO.N,SenseB*%
X140335000Y-90805000D03*
%TO.P,J2,20*%
X142875000Y-90805000D03*
%TD*%
D15*
%TO.P,D8,2*%
%TO.N,GND*%
X203835000Y-95885000D03*
D13*
%TO.P,D8,1*%
%TO.N,/BobB2*%
X203835000Y-83185000D03*
%TD*%
%TO.P,D7,1*%
%TO.N,V_MOT*%
X203835000Y-64135000D03*
D15*
%TO.P,D7,2*%
%TO.N,/BobB2*%
X203835000Y-76835000D03*
%TD*%
D13*
%TO.P,D1,1*%
%TO.N,V_MOT*%
X209550000Y-64135000D03*
D15*
%TO.P,D1,2*%
%TO.N,/BobA2*%
X209550000Y-76835000D03*
%TD*%
D13*
%TO.P,D5,1*%
%TO.N,V_MOT*%
X198120000Y-64135000D03*
D15*
%TO.P,D5,2*%
%TO.N,/BobB1*%
X198120000Y-76835000D03*
%TD*%
%TO.P,D2,2*%
%TO.N,GND*%
X209550000Y-95885000D03*
D13*
%TO.P,D2,1*%
%TO.N,/BobA2*%
X209550000Y-83185000D03*
%TD*%
D15*
%TO.P,D4,2*%
%TO.N,GND*%
X192405000Y-95885000D03*
D13*
%TO.P,D4,1*%
%TO.N,/BobA1*%
X192405000Y-83185000D03*
%TD*%
D18*
%TO.P,R2,2*%
%TO.N,SenseB*%
X183515000Y-92710000D03*
D19*
%TO.P,R2,1*%
%TO.N,GND*%
X155575000Y-92710000D03*
%TD*%
%TO.P,R1,1*%
%TO.N,GND*%
X180340000Y-59055000D03*
D18*
%TO.P,R1,2*%
%TO.N,SenseA*%
X152400000Y-59055000D03*
%TD*%
D20*
%TO.N,/BobA2*%
X180340000Y-66675000D03*
X188595000Y-66675000D03*
%TO.N,/BobA1*%
X180340000Y-74295000D03*
X177800000Y-62865000D03*
X177800004Y-74294992D03*
X189230000Y-74295000D03*
%TO.N,SenseA*%
X162560000Y-65405000D03*
X158115000Y-65405000D03*
D21*
%TO.N,EnA*%
X154940000Y-65405000D03*
D20*
X175895000Y-71755000D03*
%TO.N,IN3*%
X180340000Y-76835000D03*
X180340000Y-95250000D03*
%TO.N,IN4*%
X171450000Y-88265000D03*
X148590000Y-88265000D03*
X178435000Y-88265000D03*
X178435000Y-79375000D03*
%TD*%
D22*
%TO.N,V_MOT*%
X180975000Y-69215000D02*
X186055000Y-64135000D01*
X192405000Y-64135000D02*
X217805000Y-64135000D01*
X170180000Y-69215000D02*
X180975000Y-69215000D01*
X217805000Y-64135000D02*
X222885000Y-64135000D01*
X186055000Y-64135000D02*
X192405000Y-64135000D01*
D23*
%TO.N,/BobA2*%
X209550000Y-76835000D02*
X209550000Y-83185000D01*
X215900000Y-83185000D02*
X220980000Y-78105000D01*
X209550000Y-83185000D02*
X215900000Y-83185000D01*
X226695000Y-89535000D02*
X224790000Y-91440000D01*
X224790000Y-78105000D02*
X226695000Y-80010000D01*
X199390000Y-66675000D02*
X209550000Y-76835000D01*
X220980000Y-78105000D02*
X224790000Y-78105000D01*
X170180000Y-66675000D02*
X180340000Y-66675000D01*
X188595000Y-66675000D02*
X199390000Y-66675000D01*
X224790000Y-91440000D02*
X222885000Y-91440000D01*
X226695000Y-80010000D02*
X226695000Y-89535000D01*
%TO.N,/BobA1*%
X192405000Y-76835000D02*
X192405000Y-76200000D01*
X190500000Y-74295000D02*
X189230000Y-74295000D01*
X192405000Y-76200000D02*
X190500000Y-74295000D01*
X160655000Y-64135000D02*
X161925000Y-62865000D01*
X160655000Y-66675000D02*
X160655000Y-64135000D01*
X161925000Y-62865000D02*
X177800000Y-62865000D01*
X192405000Y-76835000D02*
X192405000Y-83185000D01*
X180339992Y-74294992D02*
X180340000Y-74295000D01*
X161925000Y-67945000D02*
X160655000Y-66675000D01*
X192405000Y-83185000D02*
X193675000Y-83185000D01*
X177800004Y-74294992D02*
X180339992Y-74294992D01*
X215900000Y-89535000D02*
X222885000Y-96520000D01*
X193675000Y-83185000D02*
X200025000Y-89535000D01*
X165100000Y-67945000D02*
X161925000Y-67945000D01*
X200025000Y-89535000D02*
X215900000Y-89535000D01*
%TO.N,/BobB2*%
X186690000Y-69215000D02*
X196215000Y-69215000D01*
X183515000Y-72390000D02*
X186690000Y-69215000D01*
X222885000Y-81280000D02*
X218440000Y-85725000D01*
X170180000Y-81915000D02*
X180340000Y-81915000D01*
X203835000Y-76835000D02*
X203835000Y-83185000D01*
X206375000Y-85725000D02*
X218440000Y-85725000D01*
X196215000Y-69215000D02*
X203835000Y-76835000D01*
X180340000Y-81915000D02*
X183515000Y-78740000D01*
X203835000Y-83185000D02*
X206375000Y-85725000D01*
X183515000Y-78740000D02*
X183515000Y-72390000D01*
%TO.N,/BobB1*%
X167640000Y-84455000D02*
X168910000Y-85725000D01*
X198120000Y-76835000D02*
X198120000Y-83185000D01*
X221615000Y-87630000D02*
X222885000Y-86360000D01*
X165100000Y-80645000D02*
X167640000Y-83185000D01*
X168910000Y-85725000D02*
X184785000Y-85725000D01*
X186055000Y-73660000D02*
X187960000Y-71755000D01*
X187960000Y-71755000D02*
X193040000Y-71755000D01*
X193040000Y-71755000D02*
X198120000Y-76835000D01*
X198120000Y-83820000D02*
X201930000Y-87630000D01*
X186055000Y-84455000D02*
X186055000Y-73660000D01*
X184785000Y-85725000D02*
X186055000Y-84455000D01*
X167640000Y-83185000D02*
X167640000Y-84455000D01*
X201930000Y-87630000D02*
X221615000Y-87630000D01*
X198120000Y-83185000D02*
X198120000Y-83820000D01*
%TO.N,SenseA*%
X142875000Y-67945000D02*
X155575000Y-67945000D01*
X152400000Y-59055000D02*
X156210000Y-59055000D01*
X140335000Y-67945000D02*
X142875000Y-67945000D01*
X165100000Y-65405000D02*
X162560000Y-65405000D01*
X156210000Y-59055000D02*
X158115000Y-60960000D01*
X155575000Y-67945000D02*
X158115000Y-65405000D01*
X158115000Y-60960000D02*
X158115000Y-65405000D01*
%TO.N,IN1*%
X165100000Y-70485000D02*
X142875000Y-70485000D01*
X140335000Y-70485000D02*
X142875000Y-70485000D01*
%TO.N,EnA*%
X137795000Y-70485000D02*
X140335000Y-73025000D01*
X139205000Y-65405000D02*
X137795000Y-66815000D01*
X154940000Y-65405000D02*
X139205000Y-65405000D01*
X140335000Y-73025000D02*
X142875000Y-73025000D01*
X170180000Y-71755000D02*
X175895000Y-71755000D01*
X137795000Y-66815000D02*
X137795000Y-70485000D01*
%TO.N,IN2*%
X142875000Y-75565000D02*
X144145000Y-75565000D01*
X146685000Y-73025000D02*
X165100000Y-73025000D01*
X140335000Y-75565000D02*
X142875000Y-75565000D01*
X144145000Y-75565000D02*
X146685000Y-73025000D01*
%TO.N,5V*%
X142875000Y-80645000D02*
X146685000Y-80645000D01*
X151765000Y-75565000D02*
X165100000Y-75565000D01*
X146685000Y-80645000D02*
X151765000Y-75565000D01*
X140335000Y-80645000D02*
X142875000Y-80645000D01*
%TO.N,IN3*%
X139700000Y-95250000D02*
X180340000Y-95250000D01*
X140335000Y-83185000D02*
X137795000Y-85725000D01*
X170180000Y-76835000D02*
X180340000Y-76835000D01*
X140335000Y-83185000D02*
X142875000Y-83185000D01*
X137795000Y-93345000D02*
X139700000Y-95250000D01*
X137795000Y-85725000D02*
X137795000Y-93345000D01*
%TO.N,EnB*%
X152607929Y-78105000D02*
X165100000Y-78105000D01*
X140335000Y-85725000D02*
X142875000Y-85725000D01*
X142875000Y-85725000D02*
X144987929Y-85725000D01*
X144987929Y-85725000D02*
X152607929Y-78105000D01*
%TO.N,IN4*%
X170180000Y-79375000D02*
X178435000Y-79375000D01*
X142875000Y-88265000D02*
X148590000Y-88265000D01*
X140335000Y-88265000D02*
X142875000Y-88265000D01*
X171450000Y-88265000D02*
X178435000Y-88265000D01*
%TO.N,SenseB*%
X165100000Y-83185000D02*
X165100000Y-90805000D01*
X165100000Y-90805000D02*
X167005000Y-92710000D01*
X161925000Y-80645000D02*
X164465000Y-83185000D01*
X148590000Y-90805000D02*
X150495000Y-88900000D01*
X140335000Y-90805000D02*
X142875000Y-90805000D01*
X150495000Y-83185000D02*
X153035000Y-80645000D01*
X153035000Y-80645000D02*
X161925000Y-80645000D01*
X164465000Y-83185000D02*
X165100000Y-83185000D01*
X150495000Y-88900000D02*
X150495000Y-83185000D01*
X142875000Y-90805000D02*
X148590000Y-90805000D01*
X167005000Y-92710000D02*
X172085000Y-92710000D01*
X172085000Y-92710000D02*
X183515000Y-92710000D01*
%TD*%
D24*
%TO.N,GND*%
G36*
X237440001Y-104090000D02*
X135940000Y-104090000D01*
X135940000Y-99460098D01*
X138585000Y-99460098D01*
X138585000Y-99929902D01*
X138676654Y-100390679D01*
X138856440Y-100824721D01*
X139117450Y-101215349D01*
X139449651Y-101547550D01*
X139840279Y-101808560D01*
X140274321Y-101988346D01*
X140735098Y-102080000D01*
X141204902Y-102080000D01*
X141665679Y-101988346D01*
X142099721Y-101808560D01*
X142490349Y-101547550D01*
X142822550Y-101215349D01*
X143083560Y-100824721D01*
X143263346Y-100390679D01*
X143355000Y-99929902D01*
X143355000Y-99460098D01*
X143263346Y-98999321D01*
X143083560Y-98565279D01*
X142822550Y-98174651D01*
X142490349Y-97842450D01*
X142099721Y-97581440D01*
X141665679Y-97401654D01*
X141204902Y-97310000D01*
X140735098Y-97310000D01*
X140274321Y-97401654D01*
X139840279Y-97581440D01*
X139449651Y-97842450D01*
X139117450Y-98174651D01*
X138856440Y-98565279D01*
X138676654Y-98999321D01*
X138585000Y-99460098D01*
X135940000Y-99460098D01*
X135940000Y-96645697D01*
X190625781Y-96645697D01*
X190808373Y-96978189D01*
X191052322Y-97268670D01*
X191348254Y-97505978D01*
X191644306Y-97664204D01*
X191932000Y-97597114D01*
X191932000Y-96358000D01*
X192878000Y-96358000D01*
X192878000Y-97597114D01*
X193165694Y-97664204D01*
X193461746Y-97505978D01*
X193757678Y-97268670D01*
X194001627Y-96978189D01*
X194184219Y-96645697D01*
X196340781Y-96645697D01*
X196523373Y-96978189D01*
X196767322Y-97268670D01*
X197063254Y-97505978D01*
X197359306Y-97664204D01*
X197647000Y-97597114D01*
X197647000Y-96358000D01*
X198593000Y-96358000D01*
X198593000Y-97597114D01*
X198880694Y-97664204D01*
X199176746Y-97505978D01*
X199472678Y-97268670D01*
X199716627Y-96978189D01*
X199899219Y-96645697D01*
X202055781Y-96645697D01*
X202238373Y-96978189D01*
X202482322Y-97268670D01*
X202778254Y-97505978D01*
X203074306Y-97664204D01*
X203362000Y-97597114D01*
X203362000Y-96358000D01*
X204308000Y-96358000D01*
X204308000Y-97597114D01*
X204595694Y-97664204D01*
X204891746Y-97505978D01*
X205187678Y-97268670D01*
X205431627Y-96978189D01*
X205614219Y-96645697D01*
X207770781Y-96645697D01*
X207953373Y-96978189D01*
X208197322Y-97268670D01*
X208493254Y-97505978D01*
X208789306Y-97664204D01*
X209077000Y-97597114D01*
X209077000Y-96358000D01*
X210023000Y-96358000D01*
X210023000Y-97597114D01*
X210310694Y-97664204D01*
X210606746Y-97505978D01*
X210902678Y-97268670D01*
X211146627Y-96978189D01*
X211329219Y-96645697D01*
X211267563Y-96358000D01*
X210023000Y-96358000D01*
X209077000Y-96358000D01*
X207832437Y-96358000D01*
X207770781Y-96645697D01*
X205614219Y-96645697D01*
X205552563Y-96358000D01*
X204308000Y-96358000D01*
X203362000Y-96358000D01*
X202117437Y-96358000D01*
X202055781Y-96645697D01*
X199899219Y-96645697D01*
X199837563Y-96358000D01*
X198593000Y-96358000D01*
X197647000Y-96358000D01*
X196402437Y-96358000D01*
X196340781Y-96645697D01*
X194184219Y-96645697D01*
X194122563Y-96358000D01*
X192878000Y-96358000D01*
X191932000Y-96358000D01*
X190687437Y-96358000D01*
X190625781Y-96645697D01*
X135940000Y-96645697D01*
X135940000Y-66815000D01*
X136654509Y-66815000D01*
X136660000Y-66870752D01*
X136660001Y-70429239D01*
X136654509Y-70485000D01*
X136676423Y-70707498D01*
X136741324Y-70921446D01*
X136766065Y-70967733D01*
X136846717Y-71118623D01*
X136988552Y-71291449D01*
X137031860Y-71326991D01*
X138855155Y-73150286D01*
X138871487Y-73316111D01*
X138956401Y-73596034D01*
X139094294Y-73854014D01*
X139279866Y-74080134D01*
X139505986Y-74265706D01*
X139560791Y-74295000D01*
X139505986Y-74324294D01*
X139279866Y-74509866D01*
X139094294Y-74735986D01*
X138956401Y-74993966D01*
X138871487Y-75273889D01*
X138842815Y-75565000D01*
X138871487Y-75856111D01*
X138956401Y-76136034D01*
X139094294Y-76394014D01*
X139279866Y-76620134D01*
X139505986Y-76805706D01*
X139570539Y-76840210D01*
X139443779Y-76917146D01*
X139229165Y-77113839D01*
X139057047Y-77348622D01*
X138996119Y-77462644D01*
X139078690Y-77680000D01*
X139910000Y-77680000D01*
X139910000Y-77612000D01*
X140760000Y-77612000D01*
X140760000Y-77680000D01*
X141591310Y-77680000D01*
X141605000Y-77643963D01*
X141618690Y-77680000D01*
X142450000Y-77680000D01*
X142450000Y-77612000D01*
X143300000Y-77612000D01*
X143300000Y-77680000D01*
X144131310Y-77680000D01*
X144213881Y-77462644D01*
X144152953Y-77348622D01*
X143980835Y-77113839D01*
X143766221Y-76917146D01*
X143639461Y-76840210D01*
X143704014Y-76805706D01*
X143832817Y-76700000D01*
X144089249Y-76700000D01*
X144145000Y-76705491D01*
X144200751Y-76700000D01*
X144200752Y-76700000D01*
X144367499Y-76683577D01*
X144581447Y-76618676D01*
X144778623Y-76513284D01*
X144951449Y-76371449D01*
X144986996Y-76328135D01*
X147155132Y-74160000D01*
X164063366Y-74160000D01*
X164227865Y-74295000D01*
X164063366Y-74430000D01*
X151820751Y-74430000D01*
X151765000Y-74424509D01*
X151709248Y-74430000D01*
X151542501Y-74446423D01*
X151328553Y-74511324D01*
X151131377Y-74616716D01*
X150958551Y-74758551D01*
X150923011Y-74801857D01*
X146214869Y-79510000D01*
X143832817Y-79510000D01*
X143704014Y-79404294D01*
X143639461Y-79369790D01*
X143766221Y-79292854D01*
X143980835Y-79096161D01*
X144152953Y-78861378D01*
X144213881Y-78747356D01*
X144131310Y-78530000D01*
X143300000Y-78530000D01*
X143300000Y-78598000D01*
X142450000Y-78598000D01*
X142450000Y-78530000D01*
X141618690Y-78530000D01*
X141605000Y-78566037D01*
X141591310Y-78530000D01*
X140760000Y-78530000D01*
X140760000Y-78598000D01*
X139910000Y-78598000D01*
X139910000Y-78530000D01*
X139078690Y-78530000D01*
X138996119Y-78747356D01*
X139057047Y-78861378D01*
X139229165Y-79096161D01*
X139443779Y-79292854D01*
X139570539Y-79369790D01*
X139505986Y-79404294D01*
X139279866Y-79589866D01*
X139094294Y-79815986D01*
X138956401Y-80073966D01*
X138871487Y-80353889D01*
X138842815Y-80645000D01*
X138871487Y-80936111D01*
X138956401Y-81216034D01*
X139094294Y-81474014D01*
X139279866Y-81700134D01*
X139505986Y-81885706D01*
X139560791Y-81915000D01*
X139505986Y-81944294D01*
X139279866Y-82129866D01*
X139094294Y-82355986D01*
X138956401Y-82613966D01*
X138871487Y-82893889D01*
X138855155Y-83059714D01*
X137031865Y-84883004D01*
X136988551Y-84918551D01*
X136846716Y-85091377D01*
X136766516Y-85241423D01*
X136741324Y-85288554D01*
X136676423Y-85502502D01*
X136654509Y-85725000D01*
X136660000Y-85780752D01*
X136660001Y-93289239D01*
X136654509Y-93345000D01*
X136676423Y-93567498D01*
X136741324Y-93781446D01*
X136790384Y-93873230D01*
X136846717Y-93978623D01*
X136988552Y-94151449D01*
X137031860Y-94186991D01*
X138858009Y-96013141D01*
X138893551Y-96056449D01*
X139066377Y-96198284D01*
X139263553Y-96303676D01*
X139477501Y-96368577D01*
X139700000Y-96390491D01*
X139755752Y-96385000D01*
X179852921Y-96385000D01*
X179979764Y-96437540D01*
X180218363Y-96485000D01*
X180461637Y-96485000D01*
X180700236Y-96437540D01*
X180924992Y-96344443D01*
X181127267Y-96209287D01*
X181299287Y-96037267D01*
X181434443Y-95834992D01*
X181527540Y-95610236D01*
X181575000Y-95371637D01*
X181575000Y-95128363D01*
X181574193Y-95124303D01*
X190625781Y-95124303D01*
X190687437Y-95412000D01*
X191932000Y-95412000D01*
X191932000Y-94172886D01*
X192878000Y-94172886D01*
X192878000Y-95412000D01*
X194122563Y-95412000D01*
X194184219Y-95124303D01*
X196340781Y-95124303D01*
X196402437Y-95412000D01*
X197647000Y-95412000D01*
X197647000Y-94172886D01*
X198593000Y-94172886D01*
X198593000Y-95412000D01*
X199837563Y-95412000D01*
X199899219Y-95124303D01*
X202055781Y-95124303D01*
X202117437Y-95412000D01*
X203362000Y-95412000D01*
X203362000Y-94172886D01*
X204308000Y-94172886D01*
X204308000Y-95412000D01*
X205552563Y-95412000D01*
X205614219Y-95124303D01*
X207770781Y-95124303D01*
X207832437Y-95412000D01*
X209077000Y-95412000D01*
X209077000Y-94172886D01*
X210023000Y-94172886D01*
X210023000Y-95412000D01*
X211267563Y-95412000D01*
X211329219Y-95124303D01*
X211146627Y-94791811D01*
X210902678Y-94501330D01*
X210606746Y-94264022D01*
X210310694Y-94105796D01*
X210023000Y-94172886D01*
X209077000Y-94172886D01*
X208789306Y-94105796D01*
X208493254Y-94264022D01*
X208197322Y-94501330D01*
X207953373Y-94791811D01*
X207770781Y-95124303D01*
X205614219Y-95124303D01*
X205431627Y-94791811D01*
X205187678Y-94501330D01*
X204891746Y-94264022D01*
X204595694Y-94105796D01*
X204308000Y-94172886D01*
X203362000Y-94172886D01*
X203074306Y-94105796D01*
X202778254Y-94264022D01*
X202482322Y-94501330D01*
X202238373Y-94791811D01*
X202055781Y-95124303D01*
X199899219Y-95124303D01*
X199716627Y-94791811D01*
X199472678Y-94501330D01*
X199176746Y-94264022D01*
X198880694Y-94105796D01*
X198593000Y-94172886D01*
X197647000Y-94172886D01*
X197359306Y-94105796D01*
X197063254Y-94264022D01*
X196767322Y-94501330D01*
X196523373Y-94791811D01*
X196340781Y-95124303D01*
X194184219Y-95124303D01*
X194001627Y-94791811D01*
X193757678Y-94501330D01*
X193461746Y-94264022D01*
X193165694Y-94105796D01*
X192878000Y-94172886D01*
X191932000Y-94172886D01*
X191644306Y-94105796D01*
X191348254Y-94264022D01*
X191052322Y-94501330D01*
X190808373Y-94791811D01*
X190625781Y-95124303D01*
X181574193Y-95124303D01*
X181527540Y-94889764D01*
X181434443Y-94665008D01*
X181299287Y-94462733D01*
X181127267Y-94290713D01*
X180924992Y-94155557D01*
X180700236Y-94062460D01*
X180461637Y-94015000D01*
X180218363Y-94015000D01*
X179979764Y-94062460D01*
X179852921Y-94115000D01*
X156311077Y-94115000D01*
X155575000Y-93378923D01*
X154838923Y-94115000D01*
X140170132Y-94115000D01*
X138930000Y-92874869D01*
X138930000Y-92753889D01*
X153731643Y-92753889D01*
X153775625Y-93112667D01*
X153855164Y-93374873D01*
X154096875Y-93519202D01*
X154906077Y-92710000D01*
X156243923Y-92710000D01*
X157053125Y-93519202D01*
X157294836Y-93374873D01*
X157391500Y-93026575D01*
X157418357Y-92666111D01*
X157374375Y-92307333D01*
X157294836Y-92045127D01*
X157053125Y-91900798D01*
X156243923Y-92710000D01*
X154906077Y-92710000D01*
X154096875Y-91900798D01*
X153855164Y-92045127D01*
X153758500Y-92393425D01*
X153731643Y-92753889D01*
X138930000Y-92753889D01*
X138930000Y-91289002D01*
X138956401Y-91376034D01*
X139094294Y-91634014D01*
X139279866Y-91860134D01*
X139505986Y-92045706D01*
X139763966Y-92183599D01*
X140043889Y-92268513D01*
X140262050Y-92290000D01*
X140407950Y-92290000D01*
X140626111Y-92268513D01*
X140906034Y-92183599D01*
X141164014Y-92045706D01*
X141292817Y-91940000D01*
X141917183Y-91940000D01*
X142045986Y-92045706D01*
X142303966Y-92183599D01*
X142583889Y-92268513D01*
X142802050Y-92290000D01*
X142947950Y-92290000D01*
X143166111Y-92268513D01*
X143446034Y-92183599D01*
X143704014Y-92045706D01*
X143832817Y-91940000D01*
X148534249Y-91940000D01*
X148590000Y-91945491D01*
X148645751Y-91940000D01*
X148645752Y-91940000D01*
X148812499Y-91923577D01*
X149026447Y-91858676D01*
X149223623Y-91753284D01*
X149396449Y-91611449D01*
X149431996Y-91568135D01*
X149768256Y-91231875D01*
X154765798Y-91231875D01*
X155575000Y-92041077D01*
X156384202Y-91231875D01*
X156239873Y-90990164D01*
X155891575Y-90893500D01*
X155531111Y-90866643D01*
X155172333Y-90910625D01*
X154910127Y-90990164D01*
X154765798Y-91231875D01*
X149768256Y-91231875D01*
X151258141Y-89741991D01*
X151301449Y-89706449D01*
X151443284Y-89533623D01*
X151548676Y-89336447D01*
X151613577Y-89122499D01*
X151630000Y-88955752D01*
X151630000Y-88955751D01*
X151635491Y-88900000D01*
X151630000Y-88844248D01*
X151630000Y-83655131D01*
X153505132Y-81780000D01*
X161454869Y-81780000D01*
X163623009Y-83948141D01*
X163658551Y-83991449D01*
X163831377Y-84133284D01*
X163940253Y-84191479D01*
X163965000Y-84221634D01*
X163965001Y-90749239D01*
X163959509Y-90805000D01*
X163981423Y-91027498D01*
X164046324Y-91241446D01*
X164046325Y-91241447D01*
X164151717Y-91438623D01*
X164293552Y-91611449D01*
X164336860Y-91646991D01*
X166163009Y-93473141D01*
X166198551Y-93516449D01*
X166371377Y-93658284D01*
X166568553Y-93763676D01*
X166782501Y-93828577D01*
X167005000Y-93850491D01*
X167060752Y-93845000D01*
X182072635Y-93845000D01*
X182211181Y-94013819D01*
X182490596Y-94243129D01*
X182809378Y-94413521D01*
X183155277Y-94518448D01*
X183424861Y-94545000D01*
X183605139Y-94545000D01*
X183874723Y-94518448D01*
X184220622Y-94413521D01*
X184539404Y-94243129D01*
X184818819Y-94013819D01*
X185048129Y-93734404D01*
X185218521Y-93415622D01*
X185323448Y-93069723D01*
X185358878Y-92710000D01*
X185323448Y-92350277D01*
X185218521Y-92004378D01*
X185048129Y-91685596D01*
X184818819Y-91406181D01*
X184539404Y-91176871D01*
X184220622Y-91006479D01*
X183874723Y-90901552D01*
X183605139Y-90875000D01*
X183424861Y-90875000D01*
X183155277Y-90901552D01*
X182809378Y-91006479D01*
X182490596Y-91176871D01*
X182211181Y-91406181D01*
X182072635Y-91575000D01*
X167475132Y-91575000D01*
X166235000Y-90334869D01*
X166235000Y-88143363D01*
X170215000Y-88143363D01*
X170215000Y-88386637D01*
X170262460Y-88625236D01*
X170355557Y-88849992D01*
X170490713Y-89052267D01*
X170662733Y-89224287D01*
X170865008Y-89359443D01*
X171089764Y-89452540D01*
X171328363Y-89500000D01*
X171571637Y-89500000D01*
X171810236Y-89452540D01*
X171937079Y-89400000D01*
X177947921Y-89400000D01*
X178074764Y-89452540D01*
X178313363Y-89500000D01*
X178556637Y-89500000D01*
X178795236Y-89452540D01*
X179019992Y-89359443D01*
X179222267Y-89224287D01*
X179394287Y-89052267D01*
X179529443Y-88849992D01*
X179622540Y-88625236D01*
X179670000Y-88386637D01*
X179670000Y-88143363D01*
X179622540Y-87904764D01*
X179529443Y-87680008D01*
X179394287Y-87477733D01*
X179222267Y-87305713D01*
X179019992Y-87170557D01*
X178795236Y-87077460D01*
X178556637Y-87030000D01*
X178313363Y-87030000D01*
X178074764Y-87077460D01*
X177947921Y-87130000D01*
X171937079Y-87130000D01*
X171810236Y-87077460D01*
X171571637Y-87030000D01*
X171328363Y-87030000D01*
X171089764Y-87077460D01*
X170865008Y-87170557D01*
X170662733Y-87305713D01*
X170490713Y-87477733D01*
X170355557Y-87680008D01*
X170262460Y-87904764D01*
X170215000Y-88143363D01*
X166235000Y-88143363D01*
X166235000Y-84221634D01*
X166382481Y-84041927D01*
X166505000Y-83812710D01*
X166505000Y-84399249D01*
X166499509Y-84455000D01*
X166505000Y-84510751D01*
X166505000Y-84510752D01*
X166521423Y-84677499D01*
X166586324Y-84891447D01*
X166691717Y-85088623D01*
X166833552Y-85261449D01*
X166876860Y-85296991D01*
X168068008Y-86488140D01*
X168103551Y-86531449D01*
X168276377Y-86673284D01*
X168473553Y-86778676D01*
X168621485Y-86823551D01*
X168687500Y-86843577D01*
X168708493Y-86845644D01*
X168854248Y-86860000D01*
X168854255Y-86860000D01*
X168909999Y-86865490D01*
X168965743Y-86860000D01*
X184729249Y-86860000D01*
X184785000Y-86865491D01*
X184840751Y-86860000D01*
X184840752Y-86860000D01*
X185007499Y-86843577D01*
X185221447Y-86778676D01*
X185418623Y-86673284D01*
X185591449Y-86531449D01*
X185626996Y-86488135D01*
X186818140Y-85296992D01*
X186861449Y-85261449D01*
X187003284Y-85088623D01*
X187108676Y-84891447D01*
X187173577Y-84677499D01*
X187190000Y-84510752D01*
X187190000Y-84510745D01*
X187195490Y-84455001D01*
X187190000Y-84399257D01*
X187190000Y-74130131D01*
X188430132Y-72890000D01*
X192569869Y-72890000D01*
X196206053Y-76526185D01*
X196175638Y-76835000D01*
X196212998Y-77214326D01*
X196323644Y-77579075D01*
X196503322Y-77915230D01*
X196745128Y-78209872D01*
X196985000Y-78406730D01*
X196985001Y-81246928D01*
X196820000Y-81246928D01*
X196695518Y-81259188D01*
X196575820Y-81295498D01*
X196465506Y-81354463D01*
X196368815Y-81433815D01*
X196289463Y-81530506D01*
X196230498Y-81640820D01*
X196194188Y-81760518D01*
X196181928Y-81885000D01*
X196181928Y-84086797D01*
X194516996Y-82421865D01*
X194481449Y-82378551D01*
X194343072Y-82264988D01*
X194343072Y-81885000D01*
X194330812Y-81760518D01*
X194294502Y-81640820D01*
X194235537Y-81530506D01*
X194156185Y-81433815D01*
X194059494Y-81354463D01*
X193949180Y-81295498D01*
X193829482Y-81259188D01*
X193705000Y-81246928D01*
X193540000Y-81246928D01*
X193540000Y-78406730D01*
X193779872Y-78209872D01*
X194021678Y-77915230D01*
X194201356Y-77579075D01*
X194312002Y-77214326D01*
X194349362Y-76835000D01*
X194312002Y-76455674D01*
X194201356Y-76090925D01*
X194021678Y-75754770D01*
X193779872Y-75460128D01*
X193485230Y-75218322D01*
X193149075Y-75038644D01*
X192784326Y-74927998D01*
X192733083Y-74922951D01*
X191341996Y-73531865D01*
X191306449Y-73488551D01*
X191133623Y-73346716D01*
X190936447Y-73241324D01*
X190722499Y-73176423D01*
X190555752Y-73160000D01*
X190555751Y-73160000D01*
X190500000Y-73154509D01*
X190444249Y-73160000D01*
X189717079Y-73160000D01*
X189590236Y-73107460D01*
X189351637Y-73060000D01*
X189108363Y-73060000D01*
X188869764Y-73107460D01*
X188645008Y-73200557D01*
X188442733Y-73335713D01*
X188270713Y-73507733D01*
X188135557Y-73710008D01*
X188042460Y-73934764D01*
X187995000Y-74173363D01*
X187995000Y-74416637D01*
X188042460Y-74655236D01*
X188135557Y-74879992D01*
X188270713Y-75082267D01*
X188442733Y-75254287D01*
X188645008Y-75389443D01*
X188869764Y-75482540D01*
X189108363Y-75530000D01*
X189351637Y-75530000D01*
X189590236Y-75482540D01*
X189717079Y-75430000D01*
X190029869Y-75430000D01*
X190637259Y-76037390D01*
X190608644Y-76090925D01*
X190497998Y-76455674D01*
X190460638Y-76835000D01*
X190497998Y-77214326D01*
X190608644Y-77579075D01*
X190788322Y-77915230D01*
X191030128Y-78209872D01*
X191270000Y-78406730D01*
X191270001Y-81246928D01*
X191105000Y-81246928D01*
X190980518Y-81259188D01*
X190860820Y-81295498D01*
X190750506Y-81354463D01*
X190653815Y-81433815D01*
X190574463Y-81530506D01*
X190515498Y-81640820D01*
X190479188Y-81760518D01*
X190466928Y-81885000D01*
X190466928Y-84485000D01*
X190479188Y-84609482D01*
X190515498Y-84729180D01*
X190574463Y-84839494D01*
X190653815Y-84936185D01*
X190750506Y-85015537D01*
X190860820Y-85074502D01*
X190980518Y-85110812D01*
X191105000Y-85123072D01*
X193705000Y-85123072D01*
X193829482Y-85110812D01*
X193949180Y-85074502D01*
X193955821Y-85070952D01*
X199183009Y-90298141D01*
X199218551Y-90341449D01*
X199391377Y-90483284D01*
X199588553Y-90588676D01*
X199736485Y-90633551D01*
X199802500Y-90653577D01*
X200024999Y-90675491D01*
X200080751Y-90670000D01*
X215429869Y-90670000D01*
X220973109Y-96213242D01*
X220950000Y-96329419D01*
X220950000Y-96710581D01*
X221024361Y-97084419D01*
X221170225Y-97436566D01*
X221381987Y-97753491D01*
X221651509Y-98023013D01*
X221968434Y-98234775D01*
X222320581Y-98380639D01*
X222694419Y-98455000D01*
X223075581Y-98455000D01*
X223449419Y-98380639D01*
X223801566Y-98234775D01*
X224118491Y-98023013D01*
X224388013Y-97753491D01*
X224599775Y-97436566D01*
X224745639Y-97084419D01*
X224820000Y-96710581D01*
X224820000Y-96329419D01*
X224745639Y-95955581D01*
X224599775Y-95603434D01*
X224388013Y-95286509D01*
X224118491Y-95016987D01*
X223801566Y-94805225D01*
X223449419Y-94659361D01*
X223075581Y-94585000D01*
X222694419Y-94585000D01*
X222578242Y-94608109D01*
X216741996Y-88771865D01*
X216736362Y-88765000D01*
X221559249Y-88765000D01*
X221615000Y-88770491D01*
X221670751Y-88765000D01*
X221670752Y-88765000D01*
X221837499Y-88748577D01*
X222051447Y-88683676D01*
X222248623Y-88578284D01*
X222421449Y-88436449D01*
X222456996Y-88393135D01*
X222578240Y-88271891D01*
X222694419Y-88295000D01*
X223075581Y-88295000D01*
X223449419Y-88220639D01*
X223801566Y-88074775D01*
X224118491Y-87863013D01*
X224388013Y-87593491D01*
X224599775Y-87276566D01*
X224745639Y-86924419D01*
X224820000Y-86550581D01*
X224820000Y-86169419D01*
X224745639Y-85795581D01*
X224599775Y-85443434D01*
X224388013Y-85126509D01*
X224118491Y-84856987D01*
X223801566Y-84645225D01*
X223449419Y-84499361D01*
X223075581Y-84425000D01*
X222694419Y-84425000D01*
X222320581Y-84499361D01*
X221968434Y-84645225D01*
X221651509Y-84856987D01*
X221381987Y-85126509D01*
X221170225Y-85443434D01*
X221024361Y-85795581D01*
X220950000Y-86169419D01*
X220950000Y-86495000D01*
X219276362Y-86495000D01*
X219281996Y-86488135D01*
X222552060Y-83218072D01*
X224185000Y-83218072D01*
X224309482Y-83205812D01*
X224429180Y-83169502D01*
X224539494Y-83110537D01*
X224636185Y-83031185D01*
X224715537Y-82934494D01*
X224774502Y-82824180D01*
X224810812Y-82704482D01*
X224823072Y-82580000D01*
X224823072Y-79980000D01*
X224810812Y-79855518D01*
X224774502Y-79735820D01*
X224727208Y-79647339D01*
X225560000Y-80480132D01*
X225560001Y-89064867D01*
X224400168Y-90224701D01*
X224388013Y-90206509D01*
X224118491Y-89936987D01*
X223801566Y-89725225D01*
X223449419Y-89579361D01*
X223075581Y-89505000D01*
X222694419Y-89505000D01*
X222320581Y-89579361D01*
X221968434Y-89725225D01*
X221651509Y-89936987D01*
X221381987Y-90206509D01*
X221170225Y-90523434D01*
X221024361Y-90875581D01*
X220950000Y-91249419D01*
X220950000Y-91630581D01*
X221024361Y-92004419D01*
X221170225Y-92356566D01*
X221381987Y-92673491D01*
X221651509Y-92943013D01*
X221968434Y-93154775D01*
X222320581Y-93300639D01*
X222694419Y-93375000D01*
X223075581Y-93375000D01*
X223449419Y-93300639D01*
X223801566Y-93154775D01*
X224118491Y-92943013D01*
X224388013Y-92673491D01*
X224453822Y-92575000D01*
X224734249Y-92575000D01*
X224790000Y-92580491D01*
X224845751Y-92575000D01*
X224845752Y-92575000D01*
X225012499Y-92558577D01*
X225226447Y-92493676D01*
X225423623Y-92388284D01*
X225596449Y-92246449D01*
X225631996Y-92203135D01*
X227458141Y-90376991D01*
X227501449Y-90341449D01*
X227643284Y-90168623D01*
X227748676Y-89971447D01*
X227813577Y-89757499D01*
X227830000Y-89590752D01*
X227835491Y-89535000D01*
X227830000Y-89479248D01*
X227830000Y-80065752D01*
X227835491Y-80010000D01*
X227816383Y-79815986D01*
X227813577Y-79787501D01*
X227748676Y-79573553D01*
X227643284Y-79376377D01*
X227501449Y-79203551D01*
X227458141Y-79168009D01*
X225631996Y-77341865D01*
X225596449Y-77298551D01*
X225423623Y-77156716D01*
X225226447Y-77051324D01*
X225012499Y-76986423D01*
X224845752Y-76970000D01*
X224845751Y-76970000D01*
X224790000Y-76964509D01*
X224734249Y-76970000D01*
X221035751Y-76970000D01*
X220980000Y-76964509D01*
X220924248Y-76970000D01*
X220757501Y-76986423D01*
X220543553Y-77051324D01*
X220346377Y-77156716D01*
X220173551Y-77298551D01*
X220138009Y-77341859D01*
X215429869Y-82050000D01*
X211488072Y-82050000D01*
X211488072Y-81885000D01*
X211475812Y-81760518D01*
X211439502Y-81640820D01*
X211380537Y-81530506D01*
X211301185Y-81433815D01*
X211204494Y-81354463D01*
X211094180Y-81295498D01*
X210974482Y-81259188D01*
X210850000Y-81246928D01*
X210685000Y-81246928D01*
X210685000Y-78406730D01*
X210924872Y-78209872D01*
X211166678Y-77915230D01*
X211346356Y-77579075D01*
X211457002Y-77214326D01*
X211494362Y-76835000D01*
X211457002Y-76455674D01*
X211346356Y-76090925D01*
X211166678Y-75754770D01*
X210924872Y-75460128D01*
X210630230Y-75218322D01*
X210294075Y-75038644D01*
X209929326Y-74927998D01*
X209645055Y-74900000D01*
X209454945Y-74900000D01*
X209241185Y-74921053D01*
X205087108Y-70766976D01*
X222001947Y-70766976D01*
X222159130Y-71018791D01*
X222524979Y-71125741D01*
X222904664Y-71159263D01*
X223283593Y-71118068D01*
X223610870Y-71018791D01*
X223768053Y-70766976D01*
X222885000Y-69883923D01*
X222001947Y-70766976D01*
X205087108Y-70766976D01*
X203554796Y-69234664D01*
X220940737Y-69234664D01*
X220981932Y-69613593D01*
X221081209Y-69940870D01*
X221333024Y-70098053D01*
X222216077Y-69215000D01*
X223553923Y-69215000D01*
X224436976Y-70098053D01*
X224688791Y-69940870D01*
X224795741Y-69575021D01*
X224829263Y-69195336D01*
X224788068Y-68816407D01*
X224688791Y-68489130D01*
X224436976Y-68331947D01*
X223553923Y-69215000D01*
X222216077Y-69215000D01*
X221333024Y-68331947D01*
X221081209Y-68489130D01*
X220974259Y-68854979D01*
X220940737Y-69234664D01*
X203554796Y-69234664D01*
X201983156Y-67663024D01*
X222001947Y-67663024D01*
X222885000Y-68546077D01*
X223768053Y-67663024D01*
X223610870Y-67411209D01*
X223245021Y-67304259D01*
X222865336Y-67270737D01*
X222486407Y-67311932D01*
X222159130Y-67411209D01*
X222001947Y-67663024D01*
X201983156Y-67663024D01*
X200231996Y-65911865D01*
X200196449Y-65868551D01*
X200076365Y-65770000D01*
X201994043Y-65770000D01*
X202004463Y-65789494D01*
X202083815Y-65886185D01*
X202180506Y-65965537D01*
X202290820Y-66024502D01*
X202410518Y-66060812D01*
X202535000Y-66073072D01*
X205135000Y-66073072D01*
X205259482Y-66060812D01*
X205379180Y-66024502D01*
X205489494Y-65965537D01*
X205586185Y-65886185D01*
X205665537Y-65789494D01*
X205675957Y-65770000D01*
X207709043Y-65770000D01*
X207719463Y-65789494D01*
X207798815Y-65886185D01*
X207895506Y-65965537D01*
X208005820Y-66024502D01*
X208125518Y-66060812D01*
X208250000Y-66073072D01*
X210850000Y-66073072D01*
X210974482Y-66060812D01*
X211094180Y-66024502D01*
X211204494Y-65965537D01*
X211301185Y-65886185D01*
X211380537Y-65789494D01*
X211390957Y-65770000D01*
X221044043Y-65770000D01*
X221054463Y-65789494D01*
X221133815Y-65886185D01*
X221230506Y-65965537D01*
X221340820Y-66024502D01*
X221460518Y-66060812D01*
X221585000Y-66073072D01*
X224185000Y-66073072D01*
X224309482Y-66060812D01*
X224429180Y-66024502D01*
X224539494Y-65965537D01*
X224636185Y-65886185D01*
X224715537Y-65789494D01*
X224774502Y-65679180D01*
X224810812Y-65559482D01*
X224823072Y-65435000D01*
X224823072Y-62835000D01*
X224810812Y-62710518D01*
X224774502Y-62590820D01*
X224715537Y-62480506D01*
X224636185Y-62383815D01*
X224539494Y-62304463D01*
X224429180Y-62245498D01*
X224309482Y-62209188D01*
X224185000Y-62196928D01*
X221585000Y-62196928D01*
X221460518Y-62209188D01*
X221340820Y-62245498D01*
X221230506Y-62304463D01*
X221133815Y-62383815D01*
X221054463Y-62480506D01*
X221044043Y-62500000D01*
X211390957Y-62500000D01*
X211380537Y-62480506D01*
X211301185Y-62383815D01*
X211204494Y-62304463D01*
X211094180Y-62245498D01*
X210974482Y-62209188D01*
X210850000Y-62196928D01*
X208250000Y-62196928D01*
X208125518Y-62209188D01*
X208005820Y-62245498D01*
X207895506Y-62304463D01*
X207798815Y-62383815D01*
X207719463Y-62480506D01*
X207709043Y-62500000D01*
X205675957Y-62500000D01*
X205665537Y-62480506D01*
X205586185Y-62383815D01*
X205489494Y-62304463D01*
X205379180Y-62245498D01*
X205259482Y-62209188D01*
X205135000Y-62196928D01*
X202535000Y-62196928D01*
X202410518Y-62209188D01*
X202290820Y-62245498D01*
X202180506Y-62304463D01*
X202083815Y-62383815D01*
X202004463Y-62480506D01*
X201994043Y-62500000D01*
X199960957Y-62500000D01*
X199950537Y-62480506D01*
X199871185Y-62383815D01*
X199774494Y-62304463D01*
X199664180Y-62245498D01*
X199544482Y-62209188D01*
X199420000Y-62196928D01*
X196820000Y-62196928D01*
X196695518Y-62209188D01*
X196575820Y-62245498D01*
X196465506Y-62304463D01*
X196368815Y-62383815D01*
X196289463Y-62480506D01*
X196279043Y-62500000D01*
X194245957Y-62500000D01*
X194235537Y-62480506D01*
X194156185Y-62383815D01*
X194059494Y-62304463D01*
X193949180Y-62245498D01*
X193829482Y-62209188D01*
X193705000Y-62196928D01*
X191105000Y-62196928D01*
X190980518Y-62209188D01*
X190860820Y-62245498D01*
X190750506Y-62304463D01*
X190653815Y-62383815D01*
X190574463Y-62480506D01*
X190564043Y-62500000D01*
X186135319Y-62500000D01*
X186055000Y-62492089D01*
X185974680Y-62500000D01*
X185974678Y-62500000D01*
X185734484Y-62523657D01*
X185426285Y-62617148D01*
X185142248Y-62768969D01*
X184893286Y-62973286D01*
X184842080Y-63035681D01*
X181533423Y-66344339D01*
X181527540Y-66314764D01*
X181434443Y-66090008D01*
X181299287Y-65887733D01*
X181127267Y-65715713D01*
X180924992Y-65580557D01*
X180700236Y-65487460D01*
X180461637Y-65440000D01*
X180218363Y-65440000D01*
X179979764Y-65487460D01*
X179852921Y-65540000D01*
X171216634Y-65540000D01*
X171036927Y-65392519D01*
X170770261Y-65249983D01*
X170480913Y-65162210D01*
X170255408Y-65140000D01*
X170104592Y-65140000D01*
X169879087Y-65162210D01*
X169589739Y-65249983D01*
X169323073Y-65392519D01*
X169089339Y-65584339D01*
X168897519Y-65818073D01*
X168754983Y-66084739D01*
X168667210Y-66374087D01*
X168637573Y-66675000D01*
X168667210Y-66975913D01*
X168754983Y-67265261D01*
X168897519Y-67531927D01*
X169089339Y-67765661D01*
X169229049Y-67880318D01*
X169018286Y-68053286D01*
X168813969Y-68302248D01*
X168662148Y-68586285D01*
X168568657Y-68894484D01*
X168537089Y-69215000D01*
X168568657Y-69535516D01*
X168662148Y-69843715D01*
X168813969Y-70127752D01*
X169018286Y-70376714D01*
X169229049Y-70549682D01*
X169089339Y-70664339D01*
X168897519Y-70898073D01*
X168754983Y-71164739D01*
X168667210Y-71454087D01*
X168637573Y-71755000D01*
X168667210Y-72055913D01*
X168754983Y-72345261D01*
X168897519Y-72611927D01*
X169089339Y-72845661D01*
X169317915Y-73033248D01*
X169163811Y-73144506D01*
X168958887Y-73364861D01*
X168800889Y-73620961D01*
X168871175Y-73845000D01*
X169730000Y-73845000D01*
X169730000Y-73802000D01*
X170630000Y-73802000D01*
X170630000Y-73845000D01*
X171488825Y-73845000D01*
X171559111Y-73620961D01*
X171401113Y-73364861D01*
X171196189Y-73144506D01*
X171042085Y-73033248D01*
X171216634Y-72890000D01*
X175407921Y-72890000D01*
X175534764Y-72942540D01*
X175773363Y-72990000D01*
X176016637Y-72990000D01*
X176255236Y-72942540D01*
X176479992Y-72849443D01*
X176682267Y-72714287D01*
X176854287Y-72542267D01*
X176989443Y-72339992D01*
X177082540Y-72115236D01*
X177130000Y-71876637D01*
X177130000Y-71633363D01*
X177082540Y-71394764D01*
X176989443Y-71170008D01*
X176854287Y-70967733D01*
X176736554Y-70850000D01*
X180894681Y-70850000D01*
X180975000Y-70857911D01*
X181055319Y-70850000D01*
X181055322Y-70850000D01*
X181295516Y-70826343D01*
X181603715Y-70732852D01*
X181887752Y-70581031D01*
X182136714Y-70376714D01*
X182187925Y-70314313D01*
X186732239Y-65770000D01*
X187753446Y-65770000D01*
X187635713Y-65887733D01*
X187500557Y-66090008D01*
X187407460Y-66314764D01*
X187360000Y-66553363D01*
X187360000Y-66796637D01*
X187407460Y-67035236D01*
X187500557Y-67259992D01*
X187635713Y-67462267D01*
X187807733Y-67634287D01*
X188010008Y-67769443D01*
X188234764Y-67862540D01*
X188473363Y-67910000D01*
X188716637Y-67910000D01*
X188955236Y-67862540D01*
X189082079Y-67810000D01*
X198919869Y-67810000D01*
X207636053Y-76526185D01*
X207605638Y-76835000D01*
X207642998Y-77214326D01*
X207753644Y-77579075D01*
X207933322Y-77915230D01*
X208175128Y-78209872D01*
X208415000Y-78406730D01*
X208415001Y-81246928D01*
X208250000Y-81246928D01*
X208125518Y-81259188D01*
X208005820Y-81295498D01*
X207895506Y-81354463D01*
X207798815Y-81433815D01*
X207719463Y-81530506D01*
X207660498Y-81640820D01*
X207624188Y-81760518D01*
X207611928Y-81885000D01*
X207611928Y-84485000D01*
X207622269Y-84590000D01*
X206845132Y-84590000D01*
X205773072Y-83517941D01*
X205773072Y-81885000D01*
X205760812Y-81760518D01*
X205724502Y-81640820D01*
X205665537Y-81530506D01*
X205586185Y-81433815D01*
X205489494Y-81354463D01*
X205379180Y-81295498D01*
X205259482Y-81259188D01*
X205135000Y-81246928D01*
X204970000Y-81246928D01*
X204970000Y-78406730D01*
X205209872Y-78209872D01*
X205451678Y-77915230D01*
X205631356Y-77579075D01*
X205742002Y-77214326D01*
X205779362Y-76835000D01*
X205742002Y-76455674D01*
X205631356Y-76090925D01*
X205451678Y-75754770D01*
X205209872Y-75460128D01*
X204915230Y-75218322D01*
X204579075Y-75038644D01*
X204214326Y-74927998D01*
X203930055Y-74900000D01*
X203739945Y-74900000D01*
X203526185Y-74921053D01*
X197056996Y-68451865D01*
X197021449Y-68408551D01*
X196848623Y-68266716D01*
X196651447Y-68161324D01*
X196437499Y-68096423D01*
X196270752Y-68080000D01*
X196270751Y-68080000D01*
X196215000Y-68074509D01*
X196159249Y-68080000D01*
X186745751Y-68080000D01*
X186689999Y-68074509D01*
X186634248Y-68080000D01*
X186467501Y-68096423D01*
X186253553Y-68161324D01*
X186056377Y-68266716D01*
X185883551Y-68408551D01*
X185848009Y-68451859D01*
X182751860Y-71548009D01*
X182708552Y-71583551D01*
X182566717Y-71756377D01*
X182510384Y-71861770D01*
X182461324Y-71953554D01*
X182396423Y-72167502D01*
X182374509Y-72390000D01*
X182380001Y-72445761D01*
X182380000Y-78269868D01*
X179869869Y-80780000D01*
X171216634Y-80780000D01*
X171052135Y-80645000D01*
X171216634Y-80510000D01*
X177947921Y-80510000D01*
X178074764Y-80562540D01*
X178313363Y-80610000D01*
X178556637Y-80610000D01*
X178795236Y-80562540D01*
X179019992Y-80469443D01*
X179222267Y-80334287D01*
X179394287Y-80162267D01*
X179529443Y-79959992D01*
X179622540Y-79735236D01*
X179670000Y-79496637D01*
X179670000Y-79253363D01*
X179622540Y-79014764D01*
X179529443Y-78790008D01*
X179394287Y-78587733D01*
X179222267Y-78415713D01*
X179019992Y-78280557D01*
X178795236Y-78187460D01*
X178556637Y-78140000D01*
X178313363Y-78140000D01*
X178074764Y-78187460D01*
X177947921Y-78240000D01*
X171216634Y-78240000D01*
X171052135Y-78105000D01*
X171216634Y-77970000D01*
X179852921Y-77970000D01*
X179979764Y-78022540D01*
X180218363Y-78070000D01*
X180461637Y-78070000D01*
X180700236Y-78022540D01*
X180924992Y-77929443D01*
X181127267Y-77794287D01*
X181299287Y-77622267D01*
X181434443Y-77419992D01*
X181527540Y-77195236D01*
X181575000Y-76956637D01*
X181575000Y-76713363D01*
X181527540Y-76474764D01*
X181434443Y-76250008D01*
X181299287Y-76047733D01*
X181127267Y-75875713D01*
X180924992Y-75740557D01*
X180700236Y-75647460D01*
X180461637Y-75600000D01*
X180218363Y-75600000D01*
X179979764Y-75647460D01*
X179852921Y-75700000D01*
X171216634Y-75700000D01*
X171042085Y-75556752D01*
X171196189Y-75445494D01*
X171401113Y-75225139D01*
X171559111Y-74969039D01*
X171488825Y-74745000D01*
X170630000Y-74745000D01*
X170630000Y-74788000D01*
X169730000Y-74788000D01*
X169730000Y-74745000D01*
X168871175Y-74745000D01*
X168800889Y-74969039D01*
X168958887Y-75225139D01*
X169163811Y-75445494D01*
X169317915Y-75556752D01*
X169089339Y-75744339D01*
X168897519Y-75978073D01*
X168754983Y-76244739D01*
X168667210Y-76534087D01*
X168637573Y-76835000D01*
X168667210Y-77135913D01*
X168754983Y-77425261D01*
X168897519Y-77691927D01*
X169089339Y-77925661D01*
X169307865Y-78105000D01*
X169089339Y-78284339D01*
X168897519Y-78518073D01*
X168754983Y-78784739D01*
X168667210Y-79074087D01*
X168637573Y-79375000D01*
X168667210Y-79675913D01*
X168754983Y-79965261D01*
X168897519Y-80231927D01*
X169089339Y-80465661D01*
X169307865Y-80645000D01*
X169089339Y-80824339D01*
X168897519Y-81058073D01*
X168754983Y-81324739D01*
X168667210Y-81614087D01*
X168637573Y-81915000D01*
X168667210Y-82215913D01*
X168754983Y-82505261D01*
X168897519Y-82771927D01*
X169089339Y-83005661D01*
X169323073Y-83197481D01*
X169589739Y-83340017D01*
X169879087Y-83427790D01*
X170104592Y-83450000D01*
X170255408Y-83450000D01*
X170480913Y-83427790D01*
X170770261Y-83340017D01*
X171036927Y-83197481D01*
X171216634Y-83050000D01*
X180284249Y-83050000D01*
X180340000Y-83055491D01*
X180395751Y-83050000D01*
X180395752Y-83050000D01*
X180562499Y-83033577D01*
X180776447Y-82968676D01*
X180973623Y-82863284D01*
X181146449Y-82721449D01*
X181181996Y-82678135D01*
X184278141Y-79581991D01*
X184321449Y-79546449D01*
X184463284Y-79373623D01*
X184568676Y-79176447D01*
X184633577Y-78962499D01*
X184650000Y-78795752D01*
X184650000Y-78795751D01*
X184655491Y-78740001D01*
X184650000Y-78684249D01*
X184650000Y-72860131D01*
X187160132Y-70350000D01*
X195744869Y-70350000D01*
X201921053Y-76526185D01*
X201890638Y-76835000D01*
X201927998Y-77214326D01*
X202038644Y-77579075D01*
X202218322Y-77915230D01*
X202460128Y-78209872D01*
X202700000Y-78406730D01*
X202700001Y-81246928D01*
X202535000Y-81246928D01*
X202410518Y-81259188D01*
X202290820Y-81295498D01*
X202180506Y-81354463D01*
X202083815Y-81433815D01*
X202004463Y-81530506D01*
X201945498Y-81640820D01*
X201909188Y-81760518D01*
X201896928Y-81885000D01*
X201896928Y-84485000D01*
X201909188Y-84609482D01*
X201945498Y-84729180D01*
X202004463Y-84839494D01*
X202083815Y-84936185D01*
X202180506Y-85015537D01*
X202290820Y-85074502D01*
X202410518Y-85110812D01*
X202535000Y-85123072D01*
X204167941Y-85123072D01*
X205533009Y-86488141D01*
X205538638Y-86495000D01*
X202400133Y-86495000D01*
X200058072Y-84152940D01*
X200058072Y-81885000D01*
X200045812Y-81760518D01*
X200009502Y-81640820D01*
X199950537Y-81530506D01*
X199871185Y-81433815D01*
X199774494Y-81354463D01*
X199664180Y-81295498D01*
X199544482Y-81259188D01*
X199420000Y-81246928D01*
X199255000Y-81246928D01*
X199255000Y-78406730D01*
X199494872Y-78209872D01*
X199736678Y-77915230D01*
X199916356Y-77579075D01*
X200027002Y-77214326D01*
X200064362Y-76835000D01*
X200027002Y-76455674D01*
X199916356Y-76090925D01*
X199736678Y-75754770D01*
X199494872Y-75460128D01*
X199200230Y-75218322D01*
X198864075Y-75038644D01*
X198499326Y-74927998D01*
X198215055Y-74900000D01*
X198024945Y-74900000D01*
X197811185Y-74921053D01*
X193881996Y-70991865D01*
X193846449Y-70948551D01*
X193673623Y-70806716D01*
X193476447Y-70701324D01*
X193262499Y-70636423D01*
X193095752Y-70620000D01*
X193095751Y-70620000D01*
X193040000Y-70614509D01*
X192984249Y-70620000D01*
X188015752Y-70620000D01*
X187960000Y-70614509D01*
X187904248Y-70620000D01*
X187737501Y-70636423D01*
X187523553Y-70701324D01*
X187326377Y-70806716D01*
X187153551Y-70948551D01*
X187118009Y-70991859D01*
X185291860Y-72818009D01*
X185248552Y-72853551D01*
X185106717Y-73026377D01*
X185063382Y-73107452D01*
X185001324Y-73223554D01*
X184936423Y-73437502D01*
X184914509Y-73660000D01*
X184920001Y-73715761D01*
X184920000Y-83984868D01*
X184314869Y-84590000D01*
X169380132Y-84590000D01*
X168775000Y-83984869D01*
X168775000Y-83240741D01*
X168780490Y-83184999D01*
X168775000Y-83129257D01*
X168775000Y-83129248D01*
X168758577Y-82962501D01*
X168693676Y-82748553D01*
X168588284Y-82551377D01*
X168446449Y-82378551D01*
X168403141Y-82343009D01*
X166635577Y-80575445D01*
X166612790Y-80344087D01*
X166525017Y-80054739D01*
X166382481Y-79788073D01*
X166190661Y-79554339D01*
X165972135Y-79375000D01*
X166190661Y-79195661D01*
X166382481Y-78961927D01*
X166525017Y-78695261D01*
X166612790Y-78405913D01*
X166642427Y-78105000D01*
X166612790Y-77804087D01*
X166525017Y-77514739D01*
X166382481Y-77248073D01*
X166190661Y-77014339D01*
X165972135Y-76835000D01*
X166190661Y-76655661D01*
X166382481Y-76421927D01*
X166525017Y-76155261D01*
X166612790Y-75865913D01*
X166642427Y-75565000D01*
X166612790Y-75264087D01*
X166525017Y-74974739D01*
X166382481Y-74708073D01*
X166190661Y-74474339D01*
X165972135Y-74295000D01*
X166120360Y-74173355D01*
X176565004Y-74173355D01*
X176565004Y-74416629D01*
X176612464Y-74655228D01*
X176705561Y-74879984D01*
X176840717Y-75082259D01*
X177012737Y-75254279D01*
X177215012Y-75389435D01*
X177439768Y-75482532D01*
X177678367Y-75529992D01*
X177921641Y-75529992D01*
X178160240Y-75482532D01*
X178287083Y-75429992D01*
X179852902Y-75429992D01*
X179979764Y-75482540D01*
X180218363Y-75530000D01*
X180461637Y-75530000D01*
X180700236Y-75482540D01*
X180924992Y-75389443D01*
X181127267Y-75254287D01*
X181299287Y-75082267D01*
X181434443Y-74879992D01*
X181527540Y-74655236D01*
X181575000Y-74416637D01*
X181575000Y-74173363D01*
X181527540Y-73934764D01*
X181434443Y-73710008D01*
X181299287Y-73507733D01*
X181127267Y-73335713D01*
X180924992Y-73200557D01*
X180700236Y-73107460D01*
X180461637Y-73060000D01*
X180218363Y-73060000D01*
X179979764Y-73107460D01*
X179852941Y-73159992D01*
X178287083Y-73159992D01*
X178160240Y-73107452D01*
X177921641Y-73059992D01*
X177678367Y-73059992D01*
X177439768Y-73107452D01*
X177215012Y-73200549D01*
X177012737Y-73335705D01*
X176840717Y-73507725D01*
X176705561Y-73710000D01*
X176612464Y-73934756D01*
X176565004Y-74173355D01*
X166120360Y-74173355D01*
X166190661Y-74115661D01*
X166382481Y-73881927D01*
X166525017Y-73615261D01*
X166612790Y-73325913D01*
X166642427Y-73025000D01*
X166612790Y-72724087D01*
X166525017Y-72434739D01*
X166382481Y-72168073D01*
X166190661Y-71934339D01*
X165972135Y-71755000D01*
X166190661Y-71575661D01*
X166382481Y-71341927D01*
X166525017Y-71075261D01*
X166612790Y-70785913D01*
X166642427Y-70485000D01*
X166612790Y-70184087D01*
X166525017Y-69894739D01*
X166382481Y-69628073D01*
X166190661Y-69394339D01*
X165972135Y-69215000D01*
X166190661Y-69035661D01*
X166382481Y-68801927D01*
X166525017Y-68535261D01*
X166612790Y-68245913D01*
X166642427Y-67945000D01*
X166612790Y-67644087D01*
X166525017Y-67354739D01*
X166382481Y-67088073D01*
X166227720Y-66899495D01*
X166244180Y-66894502D01*
X166354494Y-66835537D01*
X166451185Y-66756185D01*
X166530537Y-66659494D01*
X166589502Y-66549180D01*
X166625812Y-66429482D01*
X166638072Y-66305000D01*
X166638072Y-64505000D01*
X166625812Y-64380518D01*
X166589502Y-64260820D01*
X166530537Y-64150506D01*
X166451185Y-64053815D01*
X166385611Y-64000000D01*
X177312921Y-64000000D01*
X177439764Y-64052540D01*
X177678363Y-64100000D01*
X177921637Y-64100000D01*
X178160236Y-64052540D01*
X178384992Y-63959443D01*
X178587267Y-63824287D01*
X178759287Y-63652267D01*
X178894443Y-63449992D01*
X178987540Y-63225236D01*
X179035000Y-62986637D01*
X179035000Y-62743363D01*
X178987540Y-62504764D01*
X178894443Y-62280008D01*
X178759287Y-62077733D01*
X178587267Y-61905713D01*
X178384992Y-61770557D01*
X178160236Y-61677460D01*
X177921637Y-61630000D01*
X177678363Y-61630000D01*
X177439764Y-61677460D01*
X177312921Y-61730000D01*
X161980743Y-61730000D01*
X161924999Y-61724510D01*
X161869255Y-61730000D01*
X161869248Y-61730000D01*
X161723493Y-61744356D01*
X161702500Y-61746423D01*
X161652705Y-61761529D01*
X161488553Y-61811324D01*
X161291377Y-61916716D01*
X161118551Y-62058551D01*
X161083008Y-62101860D01*
X159891860Y-63293009D01*
X159848552Y-63328551D01*
X159706717Y-63501377D01*
X159650384Y-63606770D01*
X159601324Y-63698554D01*
X159536423Y-63912502D01*
X159514509Y-64135000D01*
X159520001Y-64190761D01*
X159520000Y-66619248D01*
X159514509Y-66675000D01*
X159520000Y-66730751D01*
X159536423Y-66897498D01*
X159601324Y-67111446D01*
X159706716Y-67308623D01*
X159848551Y-67481449D01*
X159891865Y-67516996D01*
X161083008Y-68708140D01*
X161118551Y-68751449D01*
X161291377Y-68893284D01*
X161488553Y-68998676D01*
X161622076Y-69039180D01*
X161702500Y-69063577D01*
X161723493Y-69065644D01*
X161869248Y-69080000D01*
X161869255Y-69080000D01*
X161924999Y-69085490D01*
X161980743Y-69080000D01*
X164063366Y-69080000D01*
X164227865Y-69215000D01*
X164063366Y-69350000D01*
X143832817Y-69350000D01*
X143704014Y-69244294D01*
X143649209Y-69215000D01*
X143704014Y-69185706D01*
X143832817Y-69080000D01*
X155519249Y-69080000D01*
X155575000Y-69085491D01*
X155630751Y-69080000D01*
X155630752Y-69080000D01*
X155797499Y-69063577D01*
X156011447Y-68998676D01*
X156208623Y-68893284D01*
X156381449Y-68751449D01*
X156416996Y-68708135D01*
X158573149Y-66551983D01*
X158699992Y-66499443D01*
X158902267Y-66364287D01*
X159074287Y-66192267D01*
X159209443Y-65989992D01*
X159302540Y-65765236D01*
X159350000Y-65526637D01*
X159350000Y-65283363D01*
X159302540Y-65044764D01*
X159250000Y-64917921D01*
X159250000Y-61015752D01*
X159255491Y-60960000D01*
X159233577Y-60737501D01*
X159171580Y-60533125D01*
X179530798Y-60533125D01*
X179675127Y-60774836D01*
X180023425Y-60871500D01*
X180383889Y-60898357D01*
X180742667Y-60854375D01*
X181004873Y-60774836D01*
X181149202Y-60533125D01*
X180340000Y-59723923D01*
X179530798Y-60533125D01*
X159171580Y-60533125D01*
X159168676Y-60523553D01*
X159063284Y-60326377D01*
X159019109Y-60272550D01*
X158921449Y-60153551D01*
X158878141Y-60118009D01*
X157859021Y-59098889D01*
X178496643Y-59098889D01*
X178540625Y-59457667D01*
X178620164Y-59719873D01*
X178861875Y-59864202D01*
X179671077Y-59055000D01*
X181008923Y-59055000D01*
X181818125Y-59864202D01*
X182059836Y-59719873D01*
X182156500Y-59371575D01*
X182183357Y-59011111D01*
X182139375Y-58652333D01*
X182059836Y-58390127D01*
X181818125Y-58245798D01*
X181008923Y-59055000D01*
X179671077Y-59055000D01*
X178861875Y-58245798D01*
X178620164Y-58390127D01*
X178523500Y-58738425D01*
X178496643Y-59098889D01*
X157859021Y-59098889D01*
X157051996Y-58291865D01*
X157016449Y-58248551D01*
X156843623Y-58106716D01*
X156646447Y-58001324D01*
X156432499Y-57936423D01*
X156265752Y-57920000D01*
X156265751Y-57920000D01*
X156210000Y-57914509D01*
X156154249Y-57920000D01*
X153842365Y-57920000D01*
X153703819Y-57751181D01*
X153491427Y-57576875D01*
X179530798Y-57576875D01*
X180340000Y-58386077D01*
X181149202Y-57576875D01*
X181004873Y-57335164D01*
X180656575Y-57238500D01*
X180296111Y-57211643D01*
X179937333Y-57255625D01*
X179675127Y-57335164D01*
X179530798Y-57576875D01*
X153491427Y-57576875D01*
X153424404Y-57521871D01*
X153105622Y-57351479D01*
X152759723Y-57246552D01*
X152490139Y-57220000D01*
X152309861Y-57220000D01*
X152040277Y-57246552D01*
X151694378Y-57351479D01*
X151375596Y-57521871D01*
X151096181Y-57751181D01*
X150866871Y-58030596D01*
X150696479Y-58349378D01*
X150591552Y-58695277D01*
X150556122Y-59055000D01*
X150591552Y-59414723D01*
X150696479Y-59760622D01*
X150866871Y-60079404D01*
X151096181Y-60358819D01*
X151375596Y-60588129D01*
X151694378Y-60758521D01*
X152040277Y-60863448D01*
X152309861Y-60890000D01*
X152490139Y-60890000D01*
X152759723Y-60863448D01*
X153105622Y-60758521D01*
X153424404Y-60588129D01*
X153703819Y-60358819D01*
X153842365Y-60190000D01*
X155739869Y-60190000D01*
X156980000Y-61430132D01*
X156980001Y-64917919D01*
X156968017Y-64946851D01*
X155902107Y-66012761D01*
X155993676Y-65841447D01*
X156058577Y-65627499D01*
X156080491Y-65405000D01*
X156058577Y-65182501D01*
X155993676Y-64968553D01*
X155888284Y-64771377D01*
X155746449Y-64598551D01*
X155573623Y-64456716D01*
X155376447Y-64351324D01*
X155162499Y-64286423D01*
X154995752Y-64270000D01*
X139260751Y-64270000D01*
X139204999Y-64264509D01*
X138982500Y-64286423D01*
X138932705Y-64301529D01*
X138768553Y-64351324D01*
X138571377Y-64456716D01*
X138398551Y-64598551D01*
X138363008Y-64641860D01*
X137031865Y-65973004D01*
X136988551Y-66008551D01*
X136846716Y-66181377D01*
X136771443Y-66322205D01*
X136741324Y-66378554D01*
X136676423Y-66592502D01*
X136654509Y-66815000D01*
X135940000Y-66815000D01*
X135940000Y-58185098D01*
X138585000Y-58185098D01*
X138585000Y-58654902D01*
X138676654Y-59115679D01*
X138856440Y-59549721D01*
X139117450Y-59940349D01*
X139449651Y-60272550D01*
X139840279Y-60533560D01*
X140274321Y-60713346D01*
X140735098Y-60805000D01*
X141204902Y-60805000D01*
X141665679Y-60713346D01*
X142099721Y-60533560D01*
X142490349Y-60272550D01*
X142822550Y-59940349D01*
X143083560Y-59549721D01*
X143263346Y-59115679D01*
X143355000Y-58654902D01*
X143355000Y-58185098D01*
X143263346Y-57724321D01*
X143083560Y-57290279D01*
X142822550Y-56899651D01*
X142552899Y-56630000D01*
X193367857Y-56630000D01*
X193367857Y-60450000D01*
X220652143Y-60450000D01*
X220652143Y-58185098D01*
X230025000Y-58185098D01*
X230025000Y-58654902D01*
X230116654Y-59115679D01*
X230296440Y-59549721D01*
X230557450Y-59940349D01*
X230889651Y-60272550D01*
X231280279Y-60533560D01*
X231714321Y-60713346D01*
X232175098Y-60805000D01*
X232644902Y-60805000D01*
X233105679Y-60713346D01*
X233539721Y-60533560D01*
X233930349Y-60272550D01*
X234262550Y-59940349D01*
X234523560Y-59549721D01*
X234703346Y-59115679D01*
X234795000Y-58654902D01*
X234795000Y-58185098D01*
X234703346Y-57724321D01*
X234523560Y-57290279D01*
X234262550Y-56899651D01*
X233930349Y-56567450D01*
X233539721Y-56306440D01*
X233105679Y-56126654D01*
X232644902Y-56035000D01*
X232175098Y-56035000D01*
X231714321Y-56126654D01*
X231280279Y-56306440D01*
X230889651Y-56567450D01*
X230557450Y-56899651D01*
X230296440Y-57290279D01*
X230116654Y-57724321D01*
X230025000Y-58185098D01*
X220652143Y-58185098D01*
X220652143Y-56630000D01*
X193367857Y-56630000D01*
X142552899Y-56630000D01*
X142490349Y-56567450D01*
X142099721Y-56306440D01*
X141665679Y-56126654D01*
X141204902Y-56035000D01*
X140735098Y-56035000D01*
X140274321Y-56126654D01*
X139840279Y-56306440D01*
X139449651Y-56567450D01*
X139117450Y-56899651D01*
X138856440Y-57290279D01*
X138676654Y-57724321D01*
X138585000Y-58185098D01*
X135940000Y-58185098D01*
X135940000Y-54025000D01*
X237440000Y-54025000D01*
X237440001Y-104090000D01*
X237440001Y-104090000D01*
G37*
X237440001Y-104090000D02*
X135940000Y-104090000D01*
X135940000Y-99460098D01*
X138585000Y-99460098D01*
X138585000Y-99929902D01*
X138676654Y-100390679D01*
X138856440Y-100824721D01*
X139117450Y-101215349D01*
X139449651Y-101547550D01*
X139840279Y-101808560D01*
X140274321Y-101988346D01*
X140735098Y-102080000D01*
X141204902Y-102080000D01*
X141665679Y-101988346D01*
X142099721Y-101808560D01*
X142490349Y-101547550D01*
X142822550Y-101215349D01*
X143083560Y-100824721D01*
X143263346Y-100390679D01*
X143355000Y-99929902D01*
X143355000Y-99460098D01*
X143263346Y-98999321D01*
X143083560Y-98565279D01*
X142822550Y-98174651D01*
X142490349Y-97842450D01*
X142099721Y-97581440D01*
X141665679Y-97401654D01*
X141204902Y-97310000D01*
X140735098Y-97310000D01*
X140274321Y-97401654D01*
X139840279Y-97581440D01*
X139449651Y-97842450D01*
X139117450Y-98174651D01*
X138856440Y-98565279D01*
X138676654Y-98999321D01*
X138585000Y-99460098D01*
X135940000Y-99460098D01*
X135940000Y-96645697D01*
X190625781Y-96645697D01*
X190808373Y-96978189D01*
X191052322Y-97268670D01*
X191348254Y-97505978D01*
X191644306Y-97664204D01*
X191932000Y-97597114D01*
X191932000Y-96358000D01*
X192878000Y-96358000D01*
X192878000Y-97597114D01*
X193165694Y-97664204D01*
X193461746Y-97505978D01*
X193757678Y-97268670D01*
X194001627Y-96978189D01*
X194184219Y-96645697D01*
X196340781Y-96645697D01*
X196523373Y-96978189D01*
X196767322Y-97268670D01*
X197063254Y-97505978D01*
X197359306Y-97664204D01*
X197647000Y-97597114D01*
X197647000Y-96358000D01*
X198593000Y-96358000D01*
X198593000Y-97597114D01*
X198880694Y-97664204D01*
X199176746Y-97505978D01*
X199472678Y-97268670D01*
X199716627Y-96978189D01*
X199899219Y-96645697D01*
X202055781Y-96645697D01*
X202238373Y-96978189D01*
X202482322Y-97268670D01*
X202778254Y-97505978D01*
X203074306Y-97664204D01*
X203362000Y-97597114D01*
X203362000Y-96358000D01*
X204308000Y-96358000D01*
X204308000Y-97597114D01*
X204595694Y-97664204D01*
X204891746Y-97505978D01*
X205187678Y-97268670D01*
X205431627Y-96978189D01*
X205614219Y-96645697D01*
X207770781Y-96645697D01*
X207953373Y-96978189D01*
X208197322Y-97268670D01*
X208493254Y-97505978D01*
X208789306Y-97664204D01*
X209077000Y-97597114D01*
X209077000Y-96358000D01*
X210023000Y-96358000D01*
X210023000Y-97597114D01*
X210310694Y-97664204D01*
X210606746Y-97505978D01*
X210902678Y-97268670D01*
X211146627Y-96978189D01*
X211329219Y-96645697D01*
X211267563Y-96358000D01*
X210023000Y-96358000D01*
X209077000Y-96358000D01*
X207832437Y-96358000D01*
X207770781Y-96645697D01*
X205614219Y-96645697D01*
X205552563Y-96358000D01*
X204308000Y-96358000D01*
X203362000Y-96358000D01*
X202117437Y-96358000D01*
X202055781Y-96645697D01*
X199899219Y-96645697D01*
X199837563Y-96358000D01*
X198593000Y-96358000D01*
X197647000Y-96358000D01*
X196402437Y-96358000D01*
X196340781Y-96645697D01*
X194184219Y-96645697D01*
X194122563Y-96358000D01*
X192878000Y-96358000D01*
X191932000Y-96358000D01*
X190687437Y-96358000D01*
X190625781Y-96645697D01*
X135940000Y-96645697D01*
X135940000Y-66815000D01*
X136654509Y-66815000D01*
X136660000Y-66870752D01*
X136660001Y-70429239D01*
X136654509Y-70485000D01*
X136676423Y-70707498D01*
X136741324Y-70921446D01*
X136766065Y-70967733D01*
X136846717Y-71118623D01*
X136988552Y-71291449D01*
X137031860Y-71326991D01*
X138855155Y-73150286D01*
X138871487Y-73316111D01*
X138956401Y-73596034D01*
X139094294Y-73854014D01*
X139279866Y-74080134D01*
X139505986Y-74265706D01*
X139560791Y-74295000D01*
X139505986Y-74324294D01*
X139279866Y-74509866D01*
X139094294Y-74735986D01*
X138956401Y-74993966D01*
X138871487Y-75273889D01*
X138842815Y-75565000D01*
X138871487Y-75856111D01*
X138956401Y-76136034D01*
X139094294Y-76394014D01*
X139279866Y-76620134D01*
X139505986Y-76805706D01*
X139570539Y-76840210D01*
X139443779Y-76917146D01*
X139229165Y-77113839D01*
X139057047Y-77348622D01*
X138996119Y-77462644D01*
X139078690Y-77680000D01*
X139910000Y-77680000D01*
X139910000Y-77612000D01*
X140760000Y-77612000D01*
X140760000Y-77680000D01*
X141591310Y-77680000D01*
X141605000Y-77643963D01*
X141618690Y-77680000D01*
X142450000Y-77680000D01*
X142450000Y-77612000D01*
X143300000Y-77612000D01*
X143300000Y-77680000D01*
X144131310Y-77680000D01*
X144213881Y-77462644D01*
X144152953Y-77348622D01*
X143980835Y-77113839D01*
X143766221Y-76917146D01*
X143639461Y-76840210D01*
X143704014Y-76805706D01*
X143832817Y-76700000D01*
X144089249Y-76700000D01*
X144145000Y-76705491D01*
X144200751Y-76700000D01*
X144200752Y-76700000D01*
X144367499Y-76683577D01*
X144581447Y-76618676D01*
X144778623Y-76513284D01*
X144951449Y-76371449D01*
X144986996Y-76328135D01*
X147155132Y-74160000D01*
X164063366Y-74160000D01*
X164227865Y-74295000D01*
X164063366Y-74430000D01*
X151820751Y-74430000D01*
X151765000Y-74424509D01*
X151709248Y-74430000D01*
X151542501Y-74446423D01*
X151328553Y-74511324D01*
X151131377Y-74616716D01*
X150958551Y-74758551D01*
X150923011Y-74801857D01*
X146214869Y-79510000D01*
X143832817Y-79510000D01*
X143704014Y-79404294D01*
X143639461Y-79369790D01*
X143766221Y-79292854D01*
X143980835Y-79096161D01*
X144152953Y-78861378D01*
X144213881Y-78747356D01*
X144131310Y-78530000D01*
X143300000Y-78530000D01*
X143300000Y-78598000D01*
X142450000Y-78598000D01*
X142450000Y-78530000D01*
X141618690Y-78530000D01*
X141605000Y-78566037D01*
X141591310Y-78530000D01*
X140760000Y-78530000D01*
X140760000Y-78598000D01*
X139910000Y-78598000D01*
X139910000Y-78530000D01*
X139078690Y-78530000D01*
X138996119Y-78747356D01*
X139057047Y-78861378D01*
X139229165Y-79096161D01*
X139443779Y-79292854D01*
X139570539Y-79369790D01*
X139505986Y-79404294D01*
X139279866Y-79589866D01*
X139094294Y-79815986D01*
X138956401Y-80073966D01*
X138871487Y-80353889D01*
X138842815Y-80645000D01*
X138871487Y-80936111D01*
X138956401Y-81216034D01*
X139094294Y-81474014D01*
X139279866Y-81700134D01*
X139505986Y-81885706D01*
X139560791Y-81915000D01*
X139505986Y-81944294D01*
X139279866Y-82129866D01*
X139094294Y-82355986D01*
X138956401Y-82613966D01*
X138871487Y-82893889D01*
X138855155Y-83059714D01*
X137031865Y-84883004D01*
X136988551Y-84918551D01*
X136846716Y-85091377D01*
X136766516Y-85241423D01*
X136741324Y-85288554D01*
X136676423Y-85502502D01*
X136654509Y-85725000D01*
X136660000Y-85780752D01*
X136660001Y-93289239D01*
X136654509Y-93345000D01*
X136676423Y-93567498D01*
X136741324Y-93781446D01*
X136790384Y-93873230D01*
X136846717Y-93978623D01*
X136988552Y-94151449D01*
X137031860Y-94186991D01*
X138858009Y-96013141D01*
X138893551Y-96056449D01*
X139066377Y-96198284D01*
X139263553Y-96303676D01*
X139477501Y-96368577D01*
X139700000Y-96390491D01*
X139755752Y-96385000D01*
X179852921Y-96385000D01*
X179979764Y-96437540D01*
X180218363Y-96485000D01*
X180461637Y-96485000D01*
X180700236Y-96437540D01*
X180924992Y-96344443D01*
X181127267Y-96209287D01*
X181299287Y-96037267D01*
X181434443Y-95834992D01*
X181527540Y-95610236D01*
X181575000Y-95371637D01*
X181575000Y-95128363D01*
X181574193Y-95124303D01*
X190625781Y-95124303D01*
X190687437Y-95412000D01*
X191932000Y-95412000D01*
X191932000Y-94172886D01*
X192878000Y-94172886D01*
X192878000Y-95412000D01*
X194122563Y-95412000D01*
X194184219Y-95124303D01*
X196340781Y-95124303D01*
X196402437Y-95412000D01*
X197647000Y-95412000D01*
X197647000Y-94172886D01*
X198593000Y-94172886D01*
X198593000Y-95412000D01*
X199837563Y-95412000D01*
X199899219Y-95124303D01*
X202055781Y-95124303D01*
X202117437Y-95412000D01*
X203362000Y-95412000D01*
X203362000Y-94172886D01*
X204308000Y-94172886D01*
X204308000Y-95412000D01*
X205552563Y-95412000D01*
X205614219Y-95124303D01*
X207770781Y-95124303D01*
X207832437Y-95412000D01*
X209077000Y-95412000D01*
X209077000Y-94172886D01*
X210023000Y-94172886D01*
X210023000Y-95412000D01*
X211267563Y-95412000D01*
X211329219Y-95124303D01*
X211146627Y-94791811D01*
X210902678Y-94501330D01*
X210606746Y-94264022D01*
X210310694Y-94105796D01*
X210023000Y-94172886D01*
X209077000Y-94172886D01*
X208789306Y-94105796D01*
X208493254Y-94264022D01*
X208197322Y-94501330D01*
X207953373Y-94791811D01*
X207770781Y-95124303D01*
X205614219Y-95124303D01*
X205431627Y-94791811D01*
X205187678Y-94501330D01*
X204891746Y-94264022D01*
X204595694Y-94105796D01*
X204308000Y-94172886D01*
X203362000Y-94172886D01*
X203074306Y-94105796D01*
X202778254Y-94264022D01*
X202482322Y-94501330D01*
X202238373Y-94791811D01*
X202055781Y-95124303D01*
X199899219Y-95124303D01*
X199716627Y-94791811D01*
X199472678Y-94501330D01*
X199176746Y-94264022D01*
X198880694Y-94105796D01*
X198593000Y-94172886D01*
X197647000Y-94172886D01*
X197359306Y-94105796D01*
X197063254Y-94264022D01*
X196767322Y-94501330D01*
X196523373Y-94791811D01*
X196340781Y-95124303D01*
X194184219Y-95124303D01*
X194001627Y-94791811D01*
X193757678Y-94501330D01*
X193461746Y-94264022D01*
X193165694Y-94105796D01*
X192878000Y-94172886D01*
X191932000Y-94172886D01*
X191644306Y-94105796D01*
X191348254Y-94264022D01*
X191052322Y-94501330D01*
X190808373Y-94791811D01*
X190625781Y-95124303D01*
X181574193Y-95124303D01*
X181527540Y-94889764D01*
X181434443Y-94665008D01*
X181299287Y-94462733D01*
X181127267Y-94290713D01*
X180924992Y-94155557D01*
X180700236Y-94062460D01*
X180461637Y-94015000D01*
X180218363Y-94015000D01*
X179979764Y-94062460D01*
X179852921Y-94115000D01*
X156311077Y-94115000D01*
X155575000Y-93378923D01*
X154838923Y-94115000D01*
X140170132Y-94115000D01*
X138930000Y-92874869D01*
X138930000Y-92753889D01*
X153731643Y-92753889D01*
X153775625Y-93112667D01*
X153855164Y-93374873D01*
X154096875Y-93519202D01*
X154906077Y-92710000D01*
X156243923Y-92710000D01*
X157053125Y-93519202D01*
X157294836Y-93374873D01*
X157391500Y-93026575D01*
X157418357Y-92666111D01*
X157374375Y-92307333D01*
X157294836Y-92045127D01*
X157053125Y-91900798D01*
X156243923Y-92710000D01*
X154906077Y-92710000D01*
X154096875Y-91900798D01*
X153855164Y-92045127D01*
X153758500Y-92393425D01*
X153731643Y-92753889D01*
X138930000Y-92753889D01*
X138930000Y-91289002D01*
X138956401Y-91376034D01*
X139094294Y-91634014D01*
X139279866Y-91860134D01*
X139505986Y-92045706D01*
X139763966Y-92183599D01*
X140043889Y-92268513D01*
X140262050Y-92290000D01*
X140407950Y-92290000D01*
X140626111Y-92268513D01*
X140906034Y-92183599D01*
X141164014Y-92045706D01*
X141292817Y-91940000D01*
X141917183Y-91940000D01*
X142045986Y-92045706D01*
X142303966Y-92183599D01*
X142583889Y-92268513D01*
X142802050Y-92290000D01*
X142947950Y-92290000D01*
X143166111Y-92268513D01*
X143446034Y-92183599D01*
X143704014Y-92045706D01*
X143832817Y-91940000D01*
X148534249Y-91940000D01*
X148590000Y-91945491D01*
X148645751Y-91940000D01*
X148645752Y-91940000D01*
X148812499Y-91923577D01*
X149026447Y-91858676D01*
X149223623Y-91753284D01*
X149396449Y-91611449D01*
X149431996Y-91568135D01*
X149768256Y-91231875D01*
X154765798Y-91231875D01*
X155575000Y-92041077D01*
X156384202Y-91231875D01*
X156239873Y-90990164D01*
X155891575Y-90893500D01*
X155531111Y-90866643D01*
X155172333Y-90910625D01*
X154910127Y-90990164D01*
X154765798Y-91231875D01*
X149768256Y-91231875D01*
X151258141Y-89741991D01*
X151301449Y-89706449D01*
X151443284Y-89533623D01*
X151548676Y-89336447D01*
X151613577Y-89122499D01*
X151630000Y-88955752D01*
X151630000Y-88955751D01*
X151635491Y-88900000D01*
X151630000Y-88844248D01*
X151630000Y-83655131D01*
X153505132Y-81780000D01*
X161454869Y-81780000D01*
X163623009Y-83948141D01*
X163658551Y-83991449D01*
X163831377Y-84133284D01*
X163940253Y-84191479D01*
X163965000Y-84221634D01*
X163965001Y-90749239D01*
X163959509Y-90805000D01*
X163981423Y-91027498D01*
X164046324Y-91241446D01*
X164046325Y-91241447D01*
X164151717Y-91438623D01*
X164293552Y-91611449D01*
X164336860Y-91646991D01*
X166163009Y-93473141D01*
X166198551Y-93516449D01*
X166371377Y-93658284D01*
X166568553Y-93763676D01*
X166782501Y-93828577D01*
X167005000Y-93850491D01*
X167060752Y-93845000D01*
X182072635Y-93845000D01*
X182211181Y-94013819D01*
X182490596Y-94243129D01*
X182809378Y-94413521D01*
X183155277Y-94518448D01*
X183424861Y-94545000D01*
X183605139Y-94545000D01*
X183874723Y-94518448D01*
X184220622Y-94413521D01*
X184539404Y-94243129D01*
X184818819Y-94013819D01*
X185048129Y-93734404D01*
X185218521Y-93415622D01*
X185323448Y-93069723D01*
X185358878Y-92710000D01*
X185323448Y-92350277D01*
X185218521Y-92004378D01*
X185048129Y-91685596D01*
X184818819Y-91406181D01*
X184539404Y-91176871D01*
X184220622Y-91006479D01*
X183874723Y-90901552D01*
X183605139Y-90875000D01*
X183424861Y-90875000D01*
X183155277Y-90901552D01*
X182809378Y-91006479D01*
X182490596Y-91176871D01*
X182211181Y-91406181D01*
X182072635Y-91575000D01*
X167475132Y-91575000D01*
X166235000Y-90334869D01*
X166235000Y-88143363D01*
X170215000Y-88143363D01*
X170215000Y-88386637D01*
X170262460Y-88625236D01*
X170355557Y-88849992D01*
X170490713Y-89052267D01*
X170662733Y-89224287D01*
X170865008Y-89359443D01*
X171089764Y-89452540D01*
X171328363Y-89500000D01*
X171571637Y-89500000D01*
X171810236Y-89452540D01*
X171937079Y-89400000D01*
X177947921Y-89400000D01*
X178074764Y-89452540D01*
X178313363Y-89500000D01*
X178556637Y-89500000D01*
X178795236Y-89452540D01*
X179019992Y-89359443D01*
X179222267Y-89224287D01*
X179394287Y-89052267D01*
X179529443Y-88849992D01*
X179622540Y-88625236D01*
X179670000Y-88386637D01*
X179670000Y-88143363D01*
X179622540Y-87904764D01*
X179529443Y-87680008D01*
X179394287Y-87477733D01*
X179222267Y-87305713D01*
X179019992Y-87170557D01*
X178795236Y-87077460D01*
X178556637Y-87030000D01*
X178313363Y-87030000D01*
X178074764Y-87077460D01*
X177947921Y-87130000D01*
X171937079Y-87130000D01*
X171810236Y-87077460D01*
X171571637Y-87030000D01*
X171328363Y-87030000D01*
X171089764Y-87077460D01*
X170865008Y-87170557D01*
X170662733Y-87305713D01*
X170490713Y-87477733D01*
X170355557Y-87680008D01*
X170262460Y-87904764D01*
X170215000Y-88143363D01*
X166235000Y-88143363D01*
X166235000Y-84221634D01*
X166382481Y-84041927D01*
X166505000Y-83812710D01*
X166505000Y-84399249D01*
X166499509Y-84455000D01*
X166505000Y-84510751D01*
X166505000Y-84510752D01*
X166521423Y-84677499D01*
X166586324Y-84891447D01*
X166691717Y-85088623D01*
X166833552Y-85261449D01*
X166876860Y-85296991D01*
X168068008Y-86488140D01*
X168103551Y-86531449D01*
X168276377Y-86673284D01*
X168473553Y-86778676D01*
X168621485Y-86823551D01*
X168687500Y-86843577D01*
X168708493Y-86845644D01*
X168854248Y-86860000D01*
X168854255Y-86860000D01*
X168909999Y-86865490D01*
X168965743Y-86860000D01*
X184729249Y-86860000D01*
X184785000Y-86865491D01*
X184840751Y-86860000D01*
X184840752Y-86860000D01*
X185007499Y-86843577D01*
X185221447Y-86778676D01*
X185418623Y-86673284D01*
X185591449Y-86531449D01*
X185626996Y-86488135D01*
X186818140Y-85296992D01*
X186861449Y-85261449D01*
X187003284Y-85088623D01*
X187108676Y-84891447D01*
X187173577Y-84677499D01*
X187190000Y-84510752D01*
X187190000Y-84510745D01*
X187195490Y-84455001D01*
X187190000Y-84399257D01*
X187190000Y-74130131D01*
X188430132Y-72890000D01*
X192569869Y-72890000D01*
X196206053Y-76526185D01*
X196175638Y-76835000D01*
X196212998Y-77214326D01*
X196323644Y-77579075D01*
X196503322Y-77915230D01*
X196745128Y-78209872D01*
X196985000Y-78406730D01*
X196985001Y-81246928D01*
X196820000Y-81246928D01*
X196695518Y-81259188D01*
X196575820Y-81295498D01*
X196465506Y-81354463D01*
X196368815Y-81433815D01*
X196289463Y-81530506D01*
X196230498Y-81640820D01*
X196194188Y-81760518D01*
X196181928Y-81885000D01*
X196181928Y-84086797D01*
X194516996Y-82421865D01*
X194481449Y-82378551D01*
X194343072Y-82264988D01*
X194343072Y-81885000D01*
X194330812Y-81760518D01*
X194294502Y-81640820D01*
X194235537Y-81530506D01*
X194156185Y-81433815D01*
X194059494Y-81354463D01*
X193949180Y-81295498D01*
X193829482Y-81259188D01*
X193705000Y-81246928D01*
X193540000Y-81246928D01*
X193540000Y-78406730D01*
X193779872Y-78209872D01*
X194021678Y-77915230D01*
X194201356Y-77579075D01*
X194312002Y-77214326D01*
X194349362Y-76835000D01*
X194312002Y-76455674D01*
X194201356Y-76090925D01*
X194021678Y-75754770D01*
X193779872Y-75460128D01*
X193485230Y-75218322D01*
X193149075Y-75038644D01*
X192784326Y-74927998D01*
X192733083Y-74922951D01*
X191341996Y-73531865D01*
X191306449Y-73488551D01*
X191133623Y-73346716D01*
X190936447Y-73241324D01*
X190722499Y-73176423D01*
X190555752Y-73160000D01*
X190555751Y-73160000D01*
X190500000Y-73154509D01*
X190444249Y-73160000D01*
X189717079Y-73160000D01*
X189590236Y-73107460D01*
X189351637Y-73060000D01*
X189108363Y-73060000D01*
X188869764Y-73107460D01*
X188645008Y-73200557D01*
X188442733Y-73335713D01*
X188270713Y-73507733D01*
X188135557Y-73710008D01*
X188042460Y-73934764D01*
X187995000Y-74173363D01*
X187995000Y-74416637D01*
X188042460Y-74655236D01*
X188135557Y-74879992D01*
X188270713Y-75082267D01*
X188442733Y-75254287D01*
X188645008Y-75389443D01*
X188869764Y-75482540D01*
X189108363Y-75530000D01*
X189351637Y-75530000D01*
X189590236Y-75482540D01*
X189717079Y-75430000D01*
X190029869Y-75430000D01*
X190637259Y-76037390D01*
X190608644Y-76090925D01*
X190497998Y-76455674D01*
X190460638Y-76835000D01*
X190497998Y-77214326D01*
X190608644Y-77579075D01*
X190788322Y-77915230D01*
X191030128Y-78209872D01*
X191270000Y-78406730D01*
X191270001Y-81246928D01*
X191105000Y-81246928D01*
X190980518Y-81259188D01*
X190860820Y-81295498D01*
X190750506Y-81354463D01*
X190653815Y-81433815D01*
X190574463Y-81530506D01*
X190515498Y-81640820D01*
X190479188Y-81760518D01*
X190466928Y-81885000D01*
X190466928Y-84485000D01*
X190479188Y-84609482D01*
X190515498Y-84729180D01*
X190574463Y-84839494D01*
X190653815Y-84936185D01*
X190750506Y-85015537D01*
X190860820Y-85074502D01*
X190980518Y-85110812D01*
X191105000Y-85123072D01*
X193705000Y-85123072D01*
X193829482Y-85110812D01*
X193949180Y-85074502D01*
X193955821Y-85070952D01*
X199183009Y-90298141D01*
X199218551Y-90341449D01*
X199391377Y-90483284D01*
X199588553Y-90588676D01*
X199736485Y-90633551D01*
X199802500Y-90653577D01*
X200024999Y-90675491D01*
X200080751Y-90670000D01*
X215429869Y-90670000D01*
X220973109Y-96213242D01*
X220950000Y-96329419D01*
X220950000Y-96710581D01*
X221024361Y-97084419D01*
X221170225Y-97436566D01*
X221381987Y-97753491D01*
X221651509Y-98023013D01*
X221968434Y-98234775D01*
X222320581Y-98380639D01*
X222694419Y-98455000D01*
X223075581Y-98455000D01*
X223449419Y-98380639D01*
X223801566Y-98234775D01*
X224118491Y-98023013D01*
X224388013Y-97753491D01*
X224599775Y-97436566D01*
X224745639Y-97084419D01*
X224820000Y-96710581D01*
X224820000Y-96329419D01*
X224745639Y-95955581D01*
X224599775Y-95603434D01*
X224388013Y-95286509D01*
X224118491Y-95016987D01*
X223801566Y-94805225D01*
X223449419Y-94659361D01*
X223075581Y-94585000D01*
X222694419Y-94585000D01*
X222578242Y-94608109D01*
X216741996Y-88771865D01*
X216736362Y-88765000D01*
X221559249Y-88765000D01*
X221615000Y-88770491D01*
X221670751Y-88765000D01*
X221670752Y-88765000D01*
X221837499Y-88748577D01*
X222051447Y-88683676D01*
X222248623Y-88578284D01*
X222421449Y-88436449D01*
X222456996Y-88393135D01*
X222578240Y-88271891D01*
X222694419Y-88295000D01*
X223075581Y-88295000D01*
X223449419Y-88220639D01*
X223801566Y-88074775D01*
X224118491Y-87863013D01*
X224388013Y-87593491D01*
X224599775Y-87276566D01*
X224745639Y-86924419D01*
X224820000Y-86550581D01*
X224820000Y-86169419D01*
X224745639Y-85795581D01*
X224599775Y-85443434D01*
X224388013Y-85126509D01*
X224118491Y-84856987D01*
X223801566Y-84645225D01*
X223449419Y-84499361D01*
X223075581Y-84425000D01*
X222694419Y-84425000D01*
X222320581Y-84499361D01*
X221968434Y-84645225D01*
X221651509Y-84856987D01*
X221381987Y-85126509D01*
X221170225Y-85443434D01*
X221024361Y-85795581D01*
X220950000Y-86169419D01*
X220950000Y-86495000D01*
X219276362Y-86495000D01*
X219281996Y-86488135D01*
X222552060Y-83218072D01*
X224185000Y-83218072D01*
X224309482Y-83205812D01*
X224429180Y-83169502D01*
X224539494Y-83110537D01*
X224636185Y-83031185D01*
X224715537Y-82934494D01*
X224774502Y-82824180D01*
X224810812Y-82704482D01*
X224823072Y-82580000D01*
X224823072Y-79980000D01*
X224810812Y-79855518D01*
X224774502Y-79735820D01*
X224727208Y-79647339D01*
X225560000Y-80480132D01*
X225560001Y-89064867D01*
X224400168Y-90224701D01*
X224388013Y-90206509D01*
X224118491Y-89936987D01*
X223801566Y-89725225D01*
X223449419Y-89579361D01*
X223075581Y-89505000D01*
X222694419Y-89505000D01*
X222320581Y-89579361D01*
X221968434Y-89725225D01*
X221651509Y-89936987D01*
X221381987Y-90206509D01*
X221170225Y-90523434D01*
X221024361Y-90875581D01*
X220950000Y-91249419D01*
X220950000Y-91630581D01*
X221024361Y-92004419D01*
X221170225Y-92356566D01*
X221381987Y-92673491D01*
X221651509Y-92943013D01*
X221968434Y-93154775D01*
X222320581Y-93300639D01*
X222694419Y-93375000D01*
X223075581Y-93375000D01*
X223449419Y-93300639D01*
X223801566Y-93154775D01*
X224118491Y-92943013D01*
X224388013Y-92673491D01*
X224453822Y-92575000D01*
X224734249Y-92575000D01*
X224790000Y-92580491D01*
X224845751Y-92575000D01*
X224845752Y-92575000D01*
X225012499Y-92558577D01*
X225226447Y-92493676D01*
X225423623Y-92388284D01*
X225596449Y-92246449D01*
X225631996Y-92203135D01*
X227458141Y-90376991D01*
X227501449Y-90341449D01*
X227643284Y-90168623D01*
X227748676Y-89971447D01*
X227813577Y-89757499D01*
X227830000Y-89590752D01*
X227835491Y-89535000D01*
X227830000Y-89479248D01*
X227830000Y-80065752D01*
X227835491Y-80010000D01*
X227816383Y-79815986D01*
X227813577Y-79787501D01*
X227748676Y-79573553D01*
X227643284Y-79376377D01*
X227501449Y-79203551D01*
X227458141Y-79168009D01*
X225631996Y-77341865D01*
X225596449Y-77298551D01*
X225423623Y-77156716D01*
X225226447Y-77051324D01*
X225012499Y-76986423D01*
X224845752Y-76970000D01*
X224845751Y-76970000D01*
X224790000Y-76964509D01*
X224734249Y-76970000D01*
X221035751Y-76970000D01*
X220980000Y-76964509D01*
X220924248Y-76970000D01*
X220757501Y-76986423D01*
X220543553Y-77051324D01*
X220346377Y-77156716D01*
X220173551Y-77298551D01*
X220138009Y-77341859D01*
X215429869Y-82050000D01*
X211488072Y-82050000D01*
X211488072Y-81885000D01*
X211475812Y-81760518D01*
X211439502Y-81640820D01*
X211380537Y-81530506D01*
X211301185Y-81433815D01*
X211204494Y-81354463D01*
X211094180Y-81295498D01*
X210974482Y-81259188D01*
X210850000Y-81246928D01*
X210685000Y-81246928D01*
X210685000Y-78406730D01*
X210924872Y-78209872D01*
X211166678Y-77915230D01*
X211346356Y-77579075D01*
X211457002Y-77214326D01*
X211494362Y-76835000D01*
X211457002Y-76455674D01*
X211346356Y-76090925D01*
X211166678Y-75754770D01*
X210924872Y-75460128D01*
X210630230Y-75218322D01*
X210294075Y-75038644D01*
X209929326Y-74927998D01*
X209645055Y-74900000D01*
X209454945Y-74900000D01*
X209241185Y-74921053D01*
X205087108Y-70766976D01*
X222001947Y-70766976D01*
X222159130Y-71018791D01*
X222524979Y-71125741D01*
X222904664Y-71159263D01*
X223283593Y-71118068D01*
X223610870Y-71018791D01*
X223768053Y-70766976D01*
X222885000Y-69883923D01*
X222001947Y-70766976D01*
X205087108Y-70766976D01*
X203554796Y-69234664D01*
X220940737Y-69234664D01*
X220981932Y-69613593D01*
X221081209Y-69940870D01*
X221333024Y-70098053D01*
X222216077Y-69215000D01*
X223553923Y-69215000D01*
X224436976Y-70098053D01*
X224688791Y-69940870D01*
X224795741Y-69575021D01*
X224829263Y-69195336D01*
X224788068Y-68816407D01*
X224688791Y-68489130D01*
X224436976Y-68331947D01*
X223553923Y-69215000D01*
X222216077Y-69215000D01*
X221333024Y-68331947D01*
X221081209Y-68489130D01*
X220974259Y-68854979D01*
X220940737Y-69234664D01*
X203554796Y-69234664D01*
X201983156Y-67663024D01*
X222001947Y-67663024D01*
X222885000Y-68546077D01*
X223768053Y-67663024D01*
X223610870Y-67411209D01*
X223245021Y-67304259D01*
X222865336Y-67270737D01*
X222486407Y-67311932D01*
X222159130Y-67411209D01*
X222001947Y-67663024D01*
X201983156Y-67663024D01*
X200231996Y-65911865D01*
X200196449Y-65868551D01*
X200076365Y-65770000D01*
X201994043Y-65770000D01*
X202004463Y-65789494D01*
X202083815Y-65886185D01*
X202180506Y-65965537D01*
X202290820Y-66024502D01*
X202410518Y-66060812D01*
X202535000Y-66073072D01*
X205135000Y-66073072D01*
X205259482Y-66060812D01*
X205379180Y-66024502D01*
X205489494Y-65965537D01*
X205586185Y-65886185D01*
X205665537Y-65789494D01*
X205675957Y-65770000D01*
X207709043Y-65770000D01*
X207719463Y-65789494D01*
X207798815Y-65886185D01*
X207895506Y-65965537D01*
X208005820Y-66024502D01*
X208125518Y-66060812D01*
X208250000Y-66073072D01*
X210850000Y-66073072D01*
X210974482Y-66060812D01*
X211094180Y-66024502D01*
X211204494Y-65965537D01*
X211301185Y-65886185D01*
X211380537Y-65789494D01*
X211390957Y-65770000D01*
X221044043Y-65770000D01*
X221054463Y-65789494D01*
X221133815Y-65886185D01*
X221230506Y-65965537D01*
X221340820Y-66024502D01*
X221460518Y-66060812D01*
X221585000Y-66073072D01*
X224185000Y-66073072D01*
X224309482Y-66060812D01*
X224429180Y-66024502D01*
X224539494Y-65965537D01*
X224636185Y-65886185D01*
X224715537Y-65789494D01*
X224774502Y-65679180D01*
X224810812Y-65559482D01*
X224823072Y-65435000D01*
X224823072Y-62835000D01*
X224810812Y-62710518D01*
X224774502Y-62590820D01*
X224715537Y-62480506D01*
X224636185Y-62383815D01*
X224539494Y-62304463D01*
X224429180Y-62245498D01*
X224309482Y-62209188D01*
X224185000Y-62196928D01*
X221585000Y-62196928D01*
X221460518Y-62209188D01*
X221340820Y-62245498D01*
X221230506Y-62304463D01*
X221133815Y-62383815D01*
X221054463Y-62480506D01*
X221044043Y-62500000D01*
X211390957Y-62500000D01*
X211380537Y-62480506D01*
X211301185Y-62383815D01*
X211204494Y-62304463D01*
X211094180Y-62245498D01*
X210974482Y-62209188D01*
X210850000Y-62196928D01*
X208250000Y-62196928D01*
X208125518Y-62209188D01*
X208005820Y-62245498D01*
X207895506Y-62304463D01*
X207798815Y-62383815D01*
X207719463Y-62480506D01*
X207709043Y-62500000D01*
X205675957Y-62500000D01*
X205665537Y-62480506D01*
X205586185Y-62383815D01*
X205489494Y-62304463D01*
X205379180Y-62245498D01*
X205259482Y-62209188D01*
X205135000Y-62196928D01*
X202535000Y-62196928D01*
X202410518Y-62209188D01*
X202290820Y-62245498D01*
X202180506Y-62304463D01*
X202083815Y-62383815D01*
X202004463Y-62480506D01*
X201994043Y-62500000D01*
X199960957Y-62500000D01*
X199950537Y-62480506D01*
X199871185Y-62383815D01*
X199774494Y-62304463D01*
X199664180Y-62245498D01*
X199544482Y-62209188D01*
X199420000Y-62196928D01*
X196820000Y-62196928D01*
X196695518Y-62209188D01*
X196575820Y-62245498D01*
X196465506Y-62304463D01*
X196368815Y-62383815D01*
X196289463Y-62480506D01*
X196279043Y-62500000D01*
X194245957Y-62500000D01*
X194235537Y-62480506D01*
X194156185Y-62383815D01*
X194059494Y-62304463D01*
X193949180Y-62245498D01*
X193829482Y-62209188D01*
X193705000Y-62196928D01*
X191105000Y-62196928D01*
X190980518Y-62209188D01*
X190860820Y-62245498D01*
X190750506Y-62304463D01*
X190653815Y-62383815D01*
X190574463Y-62480506D01*
X190564043Y-62500000D01*
X186135319Y-62500000D01*
X186055000Y-62492089D01*
X185974680Y-62500000D01*
X185974678Y-62500000D01*
X185734484Y-62523657D01*
X185426285Y-62617148D01*
X185142248Y-62768969D01*
X184893286Y-62973286D01*
X184842080Y-63035681D01*
X181533423Y-66344339D01*
X181527540Y-66314764D01*
X181434443Y-66090008D01*
X181299287Y-65887733D01*
X181127267Y-65715713D01*
X180924992Y-65580557D01*
X180700236Y-65487460D01*
X180461637Y-65440000D01*
X180218363Y-65440000D01*
X179979764Y-65487460D01*
X179852921Y-65540000D01*
X171216634Y-65540000D01*
X171036927Y-65392519D01*
X170770261Y-65249983D01*
X170480913Y-65162210D01*
X170255408Y-65140000D01*
X170104592Y-65140000D01*
X169879087Y-65162210D01*
X169589739Y-65249983D01*
X169323073Y-65392519D01*
X169089339Y-65584339D01*
X168897519Y-65818073D01*
X168754983Y-66084739D01*
X168667210Y-66374087D01*
X168637573Y-66675000D01*
X168667210Y-66975913D01*
X168754983Y-67265261D01*
X168897519Y-67531927D01*
X169089339Y-67765661D01*
X169229049Y-67880318D01*
X169018286Y-68053286D01*
X168813969Y-68302248D01*
X168662148Y-68586285D01*
X168568657Y-68894484D01*
X168537089Y-69215000D01*
X168568657Y-69535516D01*
X168662148Y-69843715D01*
X168813969Y-70127752D01*
X169018286Y-70376714D01*
X169229049Y-70549682D01*
X169089339Y-70664339D01*
X168897519Y-70898073D01*
X168754983Y-71164739D01*
X168667210Y-71454087D01*
X168637573Y-71755000D01*
X168667210Y-72055913D01*
X168754983Y-72345261D01*
X168897519Y-72611927D01*
X169089339Y-72845661D01*
X169317915Y-73033248D01*
X169163811Y-73144506D01*
X168958887Y-73364861D01*
X168800889Y-73620961D01*
X168871175Y-73845000D01*
X169730000Y-73845000D01*
X169730000Y-73802000D01*
X170630000Y-73802000D01*
X170630000Y-73845000D01*
X171488825Y-73845000D01*
X171559111Y-73620961D01*
X171401113Y-73364861D01*
X171196189Y-73144506D01*
X171042085Y-73033248D01*
X171216634Y-72890000D01*
X175407921Y-72890000D01*
X175534764Y-72942540D01*
X175773363Y-72990000D01*
X176016637Y-72990000D01*
X176255236Y-72942540D01*
X176479992Y-72849443D01*
X176682267Y-72714287D01*
X176854287Y-72542267D01*
X176989443Y-72339992D01*
X177082540Y-72115236D01*
X177130000Y-71876637D01*
X177130000Y-71633363D01*
X177082540Y-71394764D01*
X176989443Y-71170008D01*
X176854287Y-70967733D01*
X176736554Y-70850000D01*
X180894681Y-70850000D01*
X180975000Y-70857911D01*
X181055319Y-70850000D01*
X181055322Y-70850000D01*
X181295516Y-70826343D01*
X181603715Y-70732852D01*
X181887752Y-70581031D01*
X182136714Y-70376714D01*
X182187925Y-70314313D01*
X186732239Y-65770000D01*
X187753446Y-65770000D01*
X187635713Y-65887733D01*
X187500557Y-66090008D01*
X187407460Y-66314764D01*
X187360000Y-66553363D01*
X187360000Y-66796637D01*
X187407460Y-67035236D01*
X187500557Y-67259992D01*
X187635713Y-67462267D01*
X187807733Y-67634287D01*
X188010008Y-67769443D01*
X188234764Y-67862540D01*
X188473363Y-67910000D01*
X188716637Y-67910000D01*
X188955236Y-67862540D01*
X189082079Y-67810000D01*
X198919869Y-67810000D01*
X207636053Y-76526185D01*
X207605638Y-76835000D01*
X207642998Y-77214326D01*
X207753644Y-77579075D01*
X207933322Y-77915230D01*
X208175128Y-78209872D01*
X208415000Y-78406730D01*
X208415001Y-81246928D01*
X208250000Y-81246928D01*
X208125518Y-81259188D01*
X208005820Y-81295498D01*
X207895506Y-81354463D01*
X207798815Y-81433815D01*
X207719463Y-81530506D01*
X207660498Y-81640820D01*
X207624188Y-81760518D01*
X207611928Y-81885000D01*
X207611928Y-84485000D01*
X207622269Y-84590000D01*
X206845132Y-84590000D01*
X205773072Y-83517941D01*
X205773072Y-81885000D01*
X205760812Y-81760518D01*
X205724502Y-81640820D01*
X205665537Y-81530506D01*
X205586185Y-81433815D01*
X205489494Y-81354463D01*
X205379180Y-81295498D01*
X205259482Y-81259188D01*
X205135000Y-81246928D01*
X204970000Y-81246928D01*
X204970000Y-78406730D01*
X205209872Y-78209872D01*
X205451678Y-77915230D01*
X205631356Y-77579075D01*
X205742002Y-77214326D01*
X205779362Y-76835000D01*
X205742002Y-76455674D01*
X205631356Y-76090925D01*
X205451678Y-75754770D01*
X205209872Y-75460128D01*
X204915230Y-75218322D01*
X204579075Y-75038644D01*
X204214326Y-74927998D01*
X203930055Y-74900000D01*
X203739945Y-74900000D01*
X203526185Y-74921053D01*
X197056996Y-68451865D01*
X197021449Y-68408551D01*
X196848623Y-68266716D01*
X196651447Y-68161324D01*
X196437499Y-68096423D01*
X196270752Y-68080000D01*
X196270751Y-68080000D01*
X196215000Y-68074509D01*
X196159249Y-68080000D01*
X186745751Y-68080000D01*
X186689999Y-68074509D01*
X186634248Y-68080000D01*
X186467501Y-68096423D01*
X186253553Y-68161324D01*
X186056377Y-68266716D01*
X185883551Y-68408551D01*
X185848009Y-68451859D01*
X182751860Y-71548009D01*
X182708552Y-71583551D01*
X182566717Y-71756377D01*
X182510384Y-71861770D01*
X182461324Y-71953554D01*
X182396423Y-72167502D01*
X182374509Y-72390000D01*
X182380001Y-72445761D01*
X182380000Y-78269868D01*
X179869869Y-80780000D01*
X171216634Y-80780000D01*
X171052135Y-80645000D01*
X171216634Y-80510000D01*
X177947921Y-80510000D01*
X178074764Y-80562540D01*
X178313363Y-80610000D01*
X178556637Y-80610000D01*
X178795236Y-80562540D01*
X179019992Y-80469443D01*
X179222267Y-80334287D01*
X179394287Y-80162267D01*
X179529443Y-79959992D01*
X179622540Y-79735236D01*
X179670000Y-79496637D01*
X179670000Y-79253363D01*
X179622540Y-79014764D01*
X179529443Y-78790008D01*
X179394287Y-78587733D01*
X179222267Y-78415713D01*
X179019992Y-78280557D01*
X178795236Y-78187460D01*
X178556637Y-78140000D01*
X178313363Y-78140000D01*
X178074764Y-78187460D01*
X177947921Y-78240000D01*
X171216634Y-78240000D01*
X171052135Y-78105000D01*
X171216634Y-77970000D01*
X179852921Y-77970000D01*
X179979764Y-78022540D01*
X180218363Y-78070000D01*
X180461637Y-78070000D01*
X180700236Y-78022540D01*
X180924992Y-77929443D01*
X181127267Y-77794287D01*
X181299287Y-77622267D01*
X181434443Y-77419992D01*
X181527540Y-77195236D01*
X181575000Y-76956637D01*
X181575000Y-76713363D01*
X181527540Y-76474764D01*
X181434443Y-76250008D01*
X181299287Y-76047733D01*
X181127267Y-75875713D01*
X180924992Y-75740557D01*
X180700236Y-75647460D01*
X180461637Y-75600000D01*
X180218363Y-75600000D01*
X179979764Y-75647460D01*
X179852921Y-75700000D01*
X171216634Y-75700000D01*
X171042085Y-75556752D01*
X171196189Y-75445494D01*
X171401113Y-75225139D01*
X171559111Y-74969039D01*
X171488825Y-74745000D01*
X170630000Y-74745000D01*
X170630000Y-74788000D01*
X169730000Y-74788000D01*
X169730000Y-74745000D01*
X168871175Y-74745000D01*
X168800889Y-74969039D01*
X168958887Y-75225139D01*
X169163811Y-75445494D01*
X169317915Y-75556752D01*
X169089339Y-75744339D01*
X168897519Y-75978073D01*
X168754983Y-76244739D01*
X168667210Y-76534087D01*
X168637573Y-76835000D01*
X168667210Y-77135913D01*
X168754983Y-77425261D01*
X168897519Y-77691927D01*
X169089339Y-77925661D01*
X169307865Y-78105000D01*
X169089339Y-78284339D01*
X168897519Y-78518073D01*
X168754983Y-78784739D01*
X168667210Y-79074087D01*
X168637573Y-79375000D01*
X168667210Y-79675913D01*
X168754983Y-79965261D01*
X168897519Y-80231927D01*
X169089339Y-80465661D01*
X169307865Y-80645000D01*
X169089339Y-80824339D01*
X168897519Y-81058073D01*
X168754983Y-81324739D01*
X168667210Y-81614087D01*
X168637573Y-81915000D01*
X168667210Y-82215913D01*
X168754983Y-82505261D01*
X168897519Y-82771927D01*
X169089339Y-83005661D01*
X169323073Y-83197481D01*
X169589739Y-83340017D01*
X169879087Y-83427790D01*
X170104592Y-83450000D01*
X170255408Y-83450000D01*
X170480913Y-83427790D01*
X170770261Y-83340017D01*
X171036927Y-83197481D01*
X171216634Y-83050000D01*
X180284249Y-83050000D01*
X180340000Y-83055491D01*
X180395751Y-83050000D01*
X180395752Y-83050000D01*
X180562499Y-83033577D01*
X180776447Y-82968676D01*
X180973623Y-82863284D01*
X181146449Y-82721449D01*
X181181996Y-82678135D01*
X184278141Y-79581991D01*
X184321449Y-79546449D01*
X184463284Y-79373623D01*
X184568676Y-79176447D01*
X184633577Y-78962499D01*
X184650000Y-78795752D01*
X184650000Y-78795751D01*
X184655491Y-78740001D01*
X184650000Y-78684249D01*
X184650000Y-72860131D01*
X187160132Y-70350000D01*
X195744869Y-70350000D01*
X201921053Y-76526185D01*
X201890638Y-76835000D01*
X201927998Y-77214326D01*
X202038644Y-77579075D01*
X202218322Y-77915230D01*
X202460128Y-78209872D01*
X202700000Y-78406730D01*
X202700001Y-81246928D01*
X202535000Y-81246928D01*
X202410518Y-81259188D01*
X202290820Y-81295498D01*
X202180506Y-81354463D01*
X202083815Y-81433815D01*
X202004463Y-81530506D01*
X201945498Y-81640820D01*
X201909188Y-81760518D01*
X201896928Y-81885000D01*
X201896928Y-84485000D01*
X201909188Y-84609482D01*
X201945498Y-84729180D01*
X202004463Y-84839494D01*
X202083815Y-84936185D01*
X202180506Y-85015537D01*
X202290820Y-85074502D01*
X202410518Y-85110812D01*
X202535000Y-85123072D01*
X204167941Y-85123072D01*
X205533009Y-86488141D01*
X205538638Y-86495000D01*
X202400133Y-86495000D01*
X200058072Y-84152940D01*
X200058072Y-81885000D01*
X200045812Y-81760518D01*
X200009502Y-81640820D01*
X199950537Y-81530506D01*
X199871185Y-81433815D01*
X199774494Y-81354463D01*
X199664180Y-81295498D01*
X199544482Y-81259188D01*
X199420000Y-81246928D01*
X199255000Y-81246928D01*
X199255000Y-78406730D01*
X199494872Y-78209872D01*
X199736678Y-77915230D01*
X199916356Y-77579075D01*
X200027002Y-77214326D01*
X200064362Y-76835000D01*
X200027002Y-76455674D01*
X199916356Y-76090925D01*
X199736678Y-75754770D01*
X199494872Y-75460128D01*
X199200230Y-75218322D01*
X198864075Y-75038644D01*
X198499326Y-74927998D01*
X198215055Y-74900000D01*
X198024945Y-74900000D01*
X197811185Y-74921053D01*
X193881996Y-70991865D01*
X193846449Y-70948551D01*
X193673623Y-70806716D01*
X193476447Y-70701324D01*
X193262499Y-70636423D01*
X193095752Y-70620000D01*
X193095751Y-70620000D01*
X193040000Y-70614509D01*
X192984249Y-70620000D01*
X188015752Y-70620000D01*
X187960000Y-70614509D01*
X187904248Y-70620000D01*
X187737501Y-70636423D01*
X187523553Y-70701324D01*
X187326377Y-70806716D01*
X187153551Y-70948551D01*
X187118009Y-70991859D01*
X185291860Y-72818009D01*
X185248552Y-72853551D01*
X185106717Y-73026377D01*
X185063382Y-73107452D01*
X185001324Y-73223554D01*
X184936423Y-73437502D01*
X184914509Y-73660000D01*
X184920001Y-73715761D01*
X184920000Y-83984868D01*
X184314869Y-84590000D01*
X169380132Y-84590000D01*
X168775000Y-83984869D01*
X168775000Y-83240741D01*
X168780490Y-83184999D01*
X168775000Y-83129257D01*
X168775000Y-83129248D01*
X168758577Y-82962501D01*
X168693676Y-82748553D01*
X168588284Y-82551377D01*
X168446449Y-82378551D01*
X168403141Y-82343009D01*
X166635577Y-80575445D01*
X166612790Y-80344087D01*
X166525017Y-80054739D01*
X166382481Y-79788073D01*
X166190661Y-79554339D01*
X165972135Y-79375000D01*
X166190661Y-79195661D01*
X166382481Y-78961927D01*
X166525017Y-78695261D01*
X166612790Y-78405913D01*
X166642427Y-78105000D01*
X166612790Y-77804087D01*
X166525017Y-77514739D01*
X166382481Y-77248073D01*
X166190661Y-77014339D01*
X165972135Y-76835000D01*
X166190661Y-76655661D01*
X166382481Y-76421927D01*
X166525017Y-76155261D01*
X166612790Y-75865913D01*
X166642427Y-75565000D01*
X166612790Y-75264087D01*
X166525017Y-74974739D01*
X166382481Y-74708073D01*
X166190661Y-74474339D01*
X165972135Y-74295000D01*
X166120360Y-74173355D01*
X176565004Y-74173355D01*
X176565004Y-74416629D01*
X176612464Y-74655228D01*
X176705561Y-74879984D01*
X176840717Y-75082259D01*
X177012737Y-75254279D01*
X177215012Y-75389435D01*
X177439768Y-75482532D01*
X177678367Y-75529992D01*
X177921641Y-75529992D01*
X178160240Y-75482532D01*
X178287083Y-75429992D01*
X179852902Y-75429992D01*
X179979764Y-75482540D01*
X180218363Y-75530000D01*
X180461637Y-75530000D01*
X180700236Y-75482540D01*
X180924992Y-75389443D01*
X181127267Y-75254287D01*
X181299287Y-75082267D01*
X181434443Y-74879992D01*
X181527540Y-74655236D01*
X181575000Y-74416637D01*
X181575000Y-74173363D01*
X181527540Y-73934764D01*
X181434443Y-73710008D01*
X181299287Y-73507733D01*
X181127267Y-73335713D01*
X180924992Y-73200557D01*
X180700236Y-73107460D01*
X180461637Y-73060000D01*
X180218363Y-73060000D01*
X179979764Y-73107460D01*
X179852941Y-73159992D01*
X178287083Y-73159992D01*
X178160240Y-73107452D01*
X177921641Y-73059992D01*
X177678367Y-73059992D01*
X177439768Y-73107452D01*
X177215012Y-73200549D01*
X177012737Y-73335705D01*
X176840717Y-73507725D01*
X176705561Y-73710000D01*
X176612464Y-73934756D01*
X176565004Y-74173355D01*
X166120360Y-74173355D01*
X166190661Y-74115661D01*
X166382481Y-73881927D01*
X166525017Y-73615261D01*
X166612790Y-73325913D01*
X166642427Y-73025000D01*
X166612790Y-72724087D01*
X166525017Y-72434739D01*
X166382481Y-72168073D01*
X166190661Y-71934339D01*
X165972135Y-71755000D01*
X166190661Y-71575661D01*
X166382481Y-71341927D01*
X166525017Y-71075261D01*
X166612790Y-70785913D01*
X166642427Y-70485000D01*
X166612790Y-70184087D01*
X166525017Y-69894739D01*
X166382481Y-69628073D01*
X166190661Y-69394339D01*
X165972135Y-69215000D01*
X166190661Y-69035661D01*
X166382481Y-68801927D01*
X166525017Y-68535261D01*
X166612790Y-68245913D01*
X166642427Y-67945000D01*
X166612790Y-67644087D01*
X166525017Y-67354739D01*
X166382481Y-67088073D01*
X166227720Y-66899495D01*
X166244180Y-66894502D01*
X166354494Y-66835537D01*
X166451185Y-66756185D01*
X166530537Y-66659494D01*
X166589502Y-66549180D01*
X166625812Y-66429482D01*
X166638072Y-66305000D01*
X166638072Y-64505000D01*
X166625812Y-64380518D01*
X166589502Y-64260820D01*
X166530537Y-64150506D01*
X166451185Y-64053815D01*
X166385611Y-64000000D01*
X177312921Y-64000000D01*
X177439764Y-64052540D01*
X177678363Y-64100000D01*
X177921637Y-64100000D01*
X178160236Y-64052540D01*
X178384992Y-63959443D01*
X178587267Y-63824287D01*
X178759287Y-63652267D01*
X178894443Y-63449992D01*
X178987540Y-63225236D01*
X179035000Y-62986637D01*
X179035000Y-62743363D01*
X178987540Y-62504764D01*
X178894443Y-62280008D01*
X178759287Y-62077733D01*
X178587267Y-61905713D01*
X178384992Y-61770557D01*
X178160236Y-61677460D01*
X177921637Y-61630000D01*
X177678363Y-61630000D01*
X177439764Y-61677460D01*
X177312921Y-61730000D01*
X161980743Y-61730000D01*
X161924999Y-61724510D01*
X161869255Y-61730000D01*
X161869248Y-61730000D01*
X161723493Y-61744356D01*
X161702500Y-61746423D01*
X161652705Y-61761529D01*
X161488553Y-61811324D01*
X161291377Y-61916716D01*
X161118551Y-62058551D01*
X161083008Y-62101860D01*
X159891860Y-63293009D01*
X159848552Y-63328551D01*
X159706717Y-63501377D01*
X159650384Y-63606770D01*
X159601324Y-63698554D01*
X159536423Y-63912502D01*
X159514509Y-64135000D01*
X159520001Y-64190761D01*
X159520000Y-66619248D01*
X159514509Y-66675000D01*
X159520000Y-66730751D01*
X159536423Y-66897498D01*
X159601324Y-67111446D01*
X159706716Y-67308623D01*
X159848551Y-67481449D01*
X159891865Y-67516996D01*
X161083008Y-68708140D01*
X161118551Y-68751449D01*
X161291377Y-68893284D01*
X161488553Y-68998676D01*
X161622076Y-69039180D01*
X161702500Y-69063577D01*
X161723493Y-69065644D01*
X161869248Y-69080000D01*
X161869255Y-69080000D01*
X161924999Y-69085490D01*
X161980743Y-69080000D01*
X164063366Y-69080000D01*
X164227865Y-69215000D01*
X164063366Y-69350000D01*
X143832817Y-69350000D01*
X143704014Y-69244294D01*
X143649209Y-69215000D01*
X143704014Y-69185706D01*
X143832817Y-69080000D01*
X155519249Y-69080000D01*
X155575000Y-69085491D01*
X155630751Y-69080000D01*
X155630752Y-69080000D01*
X155797499Y-69063577D01*
X156011447Y-68998676D01*
X156208623Y-68893284D01*
X156381449Y-68751449D01*
X156416996Y-68708135D01*
X158573149Y-66551983D01*
X158699992Y-66499443D01*
X158902267Y-66364287D01*
X159074287Y-66192267D01*
X159209443Y-65989992D01*
X159302540Y-65765236D01*
X159350000Y-65526637D01*
X159350000Y-65283363D01*
X159302540Y-65044764D01*
X159250000Y-64917921D01*
X159250000Y-61015752D01*
X159255491Y-60960000D01*
X159233577Y-60737501D01*
X159171580Y-60533125D01*
X179530798Y-60533125D01*
X179675127Y-60774836D01*
X180023425Y-60871500D01*
X180383889Y-60898357D01*
X180742667Y-60854375D01*
X181004873Y-60774836D01*
X181149202Y-60533125D01*
X180340000Y-59723923D01*
X179530798Y-60533125D01*
X159171580Y-60533125D01*
X159168676Y-60523553D01*
X159063284Y-60326377D01*
X159019109Y-60272550D01*
X158921449Y-60153551D01*
X158878141Y-60118009D01*
X157859021Y-59098889D01*
X178496643Y-59098889D01*
X178540625Y-59457667D01*
X178620164Y-59719873D01*
X178861875Y-59864202D01*
X179671077Y-59055000D01*
X181008923Y-59055000D01*
X181818125Y-59864202D01*
X182059836Y-59719873D01*
X182156500Y-59371575D01*
X182183357Y-59011111D01*
X182139375Y-58652333D01*
X182059836Y-58390127D01*
X181818125Y-58245798D01*
X181008923Y-59055000D01*
X179671077Y-59055000D01*
X178861875Y-58245798D01*
X178620164Y-58390127D01*
X178523500Y-58738425D01*
X178496643Y-59098889D01*
X157859021Y-59098889D01*
X157051996Y-58291865D01*
X157016449Y-58248551D01*
X156843623Y-58106716D01*
X156646447Y-58001324D01*
X156432499Y-57936423D01*
X156265752Y-57920000D01*
X156265751Y-57920000D01*
X156210000Y-57914509D01*
X156154249Y-57920000D01*
X153842365Y-57920000D01*
X153703819Y-57751181D01*
X153491427Y-57576875D01*
X179530798Y-57576875D01*
X180340000Y-58386077D01*
X181149202Y-57576875D01*
X181004873Y-57335164D01*
X180656575Y-57238500D01*
X180296111Y-57211643D01*
X179937333Y-57255625D01*
X179675127Y-57335164D01*
X179530798Y-57576875D01*
X153491427Y-57576875D01*
X153424404Y-57521871D01*
X153105622Y-57351479D01*
X152759723Y-57246552D01*
X152490139Y-57220000D01*
X152309861Y-57220000D01*
X152040277Y-57246552D01*
X151694378Y-57351479D01*
X151375596Y-57521871D01*
X151096181Y-57751181D01*
X150866871Y-58030596D01*
X150696479Y-58349378D01*
X150591552Y-58695277D01*
X150556122Y-59055000D01*
X150591552Y-59414723D01*
X150696479Y-59760622D01*
X150866871Y-60079404D01*
X151096181Y-60358819D01*
X151375596Y-60588129D01*
X151694378Y-60758521D01*
X152040277Y-60863448D01*
X152309861Y-60890000D01*
X152490139Y-60890000D01*
X152759723Y-60863448D01*
X153105622Y-60758521D01*
X153424404Y-60588129D01*
X153703819Y-60358819D01*
X153842365Y-60190000D01*
X155739869Y-60190000D01*
X156980000Y-61430132D01*
X156980001Y-64917919D01*
X156968017Y-64946851D01*
X155902107Y-66012761D01*
X155993676Y-65841447D01*
X156058577Y-65627499D01*
X156080491Y-65405000D01*
X156058577Y-65182501D01*
X155993676Y-64968553D01*
X155888284Y-64771377D01*
X155746449Y-64598551D01*
X155573623Y-64456716D01*
X155376447Y-64351324D01*
X155162499Y-64286423D01*
X154995752Y-64270000D01*
X139260751Y-64270000D01*
X139204999Y-64264509D01*
X138982500Y-64286423D01*
X138932705Y-64301529D01*
X138768553Y-64351324D01*
X138571377Y-64456716D01*
X138398551Y-64598551D01*
X138363008Y-64641860D01*
X137031865Y-65973004D01*
X136988551Y-66008551D01*
X136846716Y-66181377D01*
X136771443Y-66322205D01*
X136741324Y-66378554D01*
X136676423Y-66592502D01*
X136654509Y-66815000D01*
X135940000Y-66815000D01*
X135940000Y-58185098D01*
X138585000Y-58185098D01*
X138585000Y-58654902D01*
X138676654Y-59115679D01*
X138856440Y-59549721D01*
X139117450Y-59940349D01*
X139449651Y-60272550D01*
X139840279Y-60533560D01*
X140274321Y-60713346D01*
X140735098Y-60805000D01*
X141204902Y-60805000D01*
X141665679Y-60713346D01*
X142099721Y-60533560D01*
X142490349Y-60272550D01*
X142822550Y-59940349D01*
X143083560Y-59549721D01*
X143263346Y-59115679D01*
X143355000Y-58654902D01*
X143355000Y-58185098D01*
X143263346Y-57724321D01*
X143083560Y-57290279D01*
X142822550Y-56899651D01*
X142552899Y-56630000D01*
X193367857Y-56630000D01*
X193367857Y-60450000D01*
X220652143Y-60450000D01*
X220652143Y-58185098D01*
X230025000Y-58185098D01*
X230025000Y-58654902D01*
X230116654Y-59115679D01*
X230296440Y-59549721D01*
X230557450Y-59940349D01*
X230889651Y-60272550D01*
X231280279Y-60533560D01*
X231714321Y-60713346D01*
X232175098Y-60805000D01*
X232644902Y-60805000D01*
X233105679Y-60713346D01*
X233539721Y-60533560D01*
X233930349Y-60272550D01*
X234262550Y-59940349D01*
X234523560Y-59549721D01*
X234703346Y-59115679D01*
X234795000Y-58654902D01*
X234795000Y-58185098D01*
X234703346Y-57724321D01*
X234523560Y-57290279D01*
X234262550Y-56899651D01*
X233930349Y-56567450D01*
X233539721Y-56306440D01*
X233105679Y-56126654D01*
X232644902Y-56035000D01*
X232175098Y-56035000D01*
X231714321Y-56126654D01*
X231280279Y-56306440D01*
X230889651Y-56567450D01*
X230557450Y-56899651D01*
X230296440Y-57290279D01*
X230116654Y-57724321D01*
X230025000Y-58185098D01*
X220652143Y-58185098D01*
X220652143Y-56630000D01*
X193367857Y-56630000D01*
X142552899Y-56630000D01*
X142490349Y-56567450D01*
X142099721Y-56306440D01*
X141665679Y-56126654D01*
X141204902Y-56035000D01*
X140735098Y-56035000D01*
X140274321Y-56126654D01*
X139840279Y-56306440D01*
X139449651Y-56567450D01*
X139117450Y-56899651D01*
X138856440Y-57290279D01*
X138676654Y-57724321D01*
X138585000Y-58185098D01*
X135940000Y-58185098D01*
X135940000Y-54025000D01*
X237440000Y-54025000D01*
X237440001Y-104090000D01*
%TD*%
M02*
