%TF.GenerationSoftware,KiCad,Pcbnew,5.0.2-bee76a0~70~ubuntu18.04.1*%
%TF.CreationDate,2020-11-23T14:53:07+01:00*%
%TF.ProjectId,Carte_L298,43617274-655f-44c3-9239-382e6b696361,rev?*%
%TF.SameCoordinates,Original*%
%TF.FileFunction,Copper,L1,Top*%
%TF.FilePolarity,Positive*%
%FSLAX46Y46*%
G04 Gerber Fmt 4.6, Leading zero omitted, Abs format (unit mm)*
G04 Created by KiCad (PCBNEW 5.0.2-bee76a0~70~ubuntu18.04.1) date lun. 23 nov. 2020 14:53:07 CET*
%MOMM*%
%LPD*%
G01*
G04 APERTURE LIST*
%TA.AperFunction,ComponentPad*%
%ADD10R,1.800000X1.800000*%
%TD*%
%TA.AperFunction,ComponentPad*%
%ADD11O,1.800000X1.800000*%
%TD*%
%TA.AperFunction,ComponentPad*%
%ADD12R,2.600000X2.600000*%
%TD*%
%TA.AperFunction,ComponentPad*%
%ADD13C,2.600000*%
%TD*%
%TA.AperFunction,ComponentPad*%
%ADD14O,2.600000X2.600000*%
%TD*%
%TA.AperFunction,ComponentPad*%
%ADD15R,1.700000X1.700000*%
%TD*%
%TA.AperFunction,ComponentPad*%
%ADD16O,1.700000X1.700000*%
%TD*%
%TA.AperFunction,ComponentPad*%
%ADD17O,2.400000X2.400000*%
%TD*%
%TA.AperFunction,ComponentPad*%
%ADD18C,2.400000*%
%TD*%
%TA.AperFunction,ViaPad*%
%ADD19C,1.200000*%
%TD*%
%TA.AperFunction,ViaPad*%
%ADD20C,0.800000*%
%TD*%
%TA.AperFunction,Conductor*%
%ADD21C,1.000000*%
%TD*%
G04 APERTURE END LIST*
D10*
%TO.P,U1,1*%
%TO.N,SenseA*%
X165100000Y-65405000D03*
D11*
%TO.P,U1,2*%
%TO.N,/BobA2*%
X170180000Y-66675000D03*
%TO.P,U1,3*%
%TO.N,/BobA1*%
X165100000Y-67945000D03*
%TO.P,U1,4*%
%TO.N,V_MOT*%
X170180000Y-69215000D03*
%TO.P,U1,5*%
%TO.N,IN1*%
X165100000Y-70485000D03*
%TO.P,U1,6*%
%TO.N,EnA*%
X170180000Y-71755000D03*
%TO.P,U1,7*%
%TO.N,IN2*%
X165100000Y-73025000D03*
%TO.P,U1,8*%
%TO.N,GND*%
X170180000Y-74295000D03*
%TO.P,U1,9*%
%TO.N,5V*%
X165100000Y-75565000D03*
%TO.P,U1,10*%
%TO.N,IN3*%
X170180000Y-76835000D03*
%TO.P,U1,11*%
%TO.N,EnB*%
X165100000Y-78105000D03*
%TO.P,U1,12*%
%TO.N,IN4*%
X170180000Y-79375000D03*
%TO.P,U1,13*%
%TO.N,/BobB1*%
X165100000Y-80645000D03*
%TO.P,U1,14*%
%TO.N,/BobB2*%
X170180000Y-81915000D03*
%TO.P,U1,15*%
%TO.N,SenseB*%
X165100000Y-83185000D03*
%TD*%
D12*
%TO.P,J1,1*%
%TO.N,V_MOT*%
X222885000Y-64135000D03*
D13*
%TO.P,J1,2*%
%TO.N,GND*%
X222885000Y-69215000D03*
%TD*%
D12*
%TO.P,J3,1*%
%TO.N,/BobB2*%
X222885000Y-81280000D03*
D13*
%TO.P,J3,2*%
%TO.N,/BobB1*%
X222885000Y-86360000D03*
%TO.P,J3,3*%
%TO.N,/BobA2*%
X222885000Y-91440000D03*
%TO.P,J3,4*%
%TO.N,/BobA1*%
X222885000Y-96520000D03*
%TD*%
D14*
%TO.P,D6,2*%
%TO.N,GND*%
X198120000Y-95885000D03*
D12*
%TO.P,D6,1*%
%TO.N,/BobB1*%
X198120000Y-83185000D03*
%TD*%
%TO.P,D3,1*%
%TO.N,V_MOT*%
X192405000Y-64135000D03*
D14*
%TO.P,D3,2*%
%TO.N,/BobA1*%
X192405000Y-76835000D03*
%TD*%
D15*
%TO.P,J2,1*%
%TO.N,SenseA*%
X140335000Y-67945000D03*
D16*
%TO.P,J2,2*%
X142875000Y-67945000D03*
%TO.P,J2,3*%
%TO.N,IN1*%
X140335000Y-70485000D03*
%TO.P,J2,4*%
X142875000Y-70485000D03*
%TO.P,J2,5*%
%TO.N,EnA*%
X140335000Y-73025000D03*
%TO.P,J2,6*%
X142875000Y-73025000D03*
%TO.P,J2,7*%
%TO.N,IN2*%
X140335000Y-75565000D03*
%TO.P,J2,8*%
X142875000Y-75565000D03*
%TO.P,J2,9*%
%TO.N,GND*%
X140335000Y-78105000D03*
%TO.P,J2,10*%
X142875000Y-78105000D03*
%TO.P,J2,11*%
%TO.N,5V*%
X140335000Y-80645000D03*
%TO.P,J2,12*%
X142875000Y-80645000D03*
%TO.P,J2,13*%
%TO.N,IN3*%
X140335000Y-83185000D03*
%TO.P,J2,14*%
X142875000Y-83185000D03*
%TO.P,J2,15*%
%TO.N,EnB*%
X140335000Y-85725000D03*
%TO.P,J2,16*%
X142875000Y-85725000D03*
%TO.P,J2,17*%
%TO.N,IN4*%
X140335000Y-88265000D03*
%TO.P,J2,18*%
X142875000Y-88265000D03*
%TO.P,J2,19*%
%TO.N,SenseB*%
X140335000Y-90805000D03*
%TO.P,J2,20*%
X142875000Y-90805000D03*
%TD*%
D14*
%TO.P,D8,2*%
%TO.N,GND*%
X203835000Y-95885000D03*
D12*
%TO.P,D8,1*%
%TO.N,/BobB2*%
X203835000Y-83185000D03*
%TD*%
%TO.P,D7,1*%
%TO.N,V_MOT*%
X203835000Y-64135000D03*
D14*
%TO.P,D7,2*%
%TO.N,/BobB2*%
X203835000Y-76835000D03*
%TD*%
D12*
%TO.P,D1,1*%
%TO.N,V_MOT*%
X209550000Y-64135000D03*
D14*
%TO.P,D1,2*%
%TO.N,/BobA2*%
X209550000Y-76835000D03*
%TD*%
D12*
%TO.P,D5,1*%
%TO.N,V_MOT*%
X198120000Y-64135000D03*
D14*
%TO.P,D5,2*%
%TO.N,/BobB1*%
X198120000Y-76835000D03*
%TD*%
%TO.P,D2,2*%
%TO.N,GND*%
X209550000Y-95885000D03*
D12*
%TO.P,D2,1*%
%TO.N,/BobA2*%
X209550000Y-83185000D03*
%TD*%
D14*
%TO.P,D4,2*%
%TO.N,GND*%
X192405000Y-95885000D03*
D12*
%TO.P,D4,1*%
%TO.N,/BobA1*%
X192405000Y-83185000D03*
%TD*%
D17*
%TO.P,R2,2*%
%TO.N,SenseB*%
X183515000Y-92710000D03*
D18*
%TO.P,R2,1*%
%TO.N,GND*%
X155575000Y-92710000D03*
%TD*%
%TO.P,R1,1*%
%TO.N,GND*%
X180340000Y-59055000D03*
D17*
%TO.P,R1,2*%
%TO.N,SenseA*%
X152400000Y-59055000D03*
%TD*%
D19*
%TO.N,/BobA2*%
X180340000Y-66675000D03*
X188595000Y-66675000D03*
%TO.N,/BobA1*%
X180340000Y-74295000D03*
X177800000Y-62865000D03*
X177800004Y-74294992D03*
X189230000Y-74295000D03*
%TO.N,SenseA*%
X162560000Y-65405000D03*
X158115000Y-65405000D03*
D20*
%TO.N,EnA*%
X154940000Y-65405000D03*
D19*
X175895000Y-71755000D03*
%TO.N,IN3*%
X180340000Y-76835000D03*
X180340000Y-95250000D03*
%TO.N,IN4*%
X171450000Y-88265000D03*
X148590000Y-88265000D03*
X178435000Y-88265000D03*
X178435000Y-79375000D03*
%TD*%
D21*
%TO.N,/BobA2*%
X188595000Y-66675000D02*
X180340000Y-66675000D01*
%TO.N,/BobA1*%
X177800000Y-62865000D02*
X177800000Y-74294988D01*
X177800000Y-74294988D02*
X177800004Y-74294992D01*
X180975002Y-74295000D02*
X180340000Y-74295000D01*
X189230000Y-74295000D02*
X180975002Y-74295000D01*
%TO.N,SenseA*%
X162560000Y-65405000D02*
X158115000Y-65405000D01*
%TO.N,EnA*%
X154940000Y-65405000D02*
X158115000Y-62230000D01*
X175895000Y-64135000D02*
X175895000Y-71755000D01*
X173990000Y-62230000D02*
X175895000Y-64135000D01*
X158115000Y-62230000D02*
X173990000Y-62230000D01*
%TO.N,IN3*%
X180340000Y-77683528D02*
X180340000Y-95250000D01*
X180340000Y-76835000D02*
X180340000Y-77683528D01*
%TO.N,IN4*%
X171450000Y-88265000D02*
X148590000Y-88265000D01*
X178435000Y-88265000D02*
X178435000Y-79375000D01*
%TD*%
M02*
