%TF.GenerationSoftware,KiCad,Pcbnew,5.0.2-bee76a0~70~ubuntu18.04.1*%
%TF.CreationDate,2020-11-23T14:53:07+01:00*%
%TF.ProjectId,Carte_L298,43617274-655f-44c3-9239-382e6b696361,rev?*%
%TF.SameCoordinates,Original*%
%TF.FileFunction,Legend,Top*%
%TF.FilePolarity,Positive*%
%FSLAX46Y46*%
G04 Gerber Fmt 4.6, Leading zero omitted, Abs format (unit mm)*
G04 Created by KiCad (PCBNEW 5.0.2-bee76a0~70~ubuntu18.04.1) date lun. 23 nov. 2020 14:53:07 CET*
%MOMM*%
%LPD*%
G01*
G04 APERTURE LIST*
%ADD10C,0.300000*%
%ADD11C,0.150000*%
%ADD12C,0.200000*%
%ADD13C,0.120000*%
G04 APERTURE END LIST*
D10*
X137052857Y-87725000D02*
X137124285Y-87510714D01*
X137195714Y-87439285D01*
X137338571Y-87367857D01*
X137552857Y-87367857D01*
X137695714Y-87439285D01*
X137767142Y-87510714D01*
X137838571Y-87653571D01*
X137838571Y-88225000D01*
X136338571Y-88225000D01*
X136338571Y-87725000D01*
X136410000Y-87582142D01*
X136481428Y-87510714D01*
X136624285Y-87439285D01*
X136767142Y-87439285D01*
X136910000Y-87510714D01*
X136981428Y-87582142D01*
X137052857Y-87725000D01*
X137052857Y-88225000D01*
X137838571Y-86510714D02*
X137767142Y-86653571D01*
X137695714Y-86725000D01*
X137552857Y-86796428D01*
X137124285Y-86796428D01*
X136981428Y-86725000D01*
X136910000Y-86653571D01*
X136838571Y-86510714D01*
X136838571Y-86296428D01*
X136910000Y-86153571D01*
X136981428Y-86082142D01*
X137124285Y-86010714D01*
X137552857Y-86010714D01*
X137695714Y-86082142D01*
X137767142Y-86153571D01*
X137838571Y-86296428D01*
X137838571Y-86510714D01*
X137838571Y-85367857D02*
X136338571Y-85367857D01*
X136910000Y-85367857D02*
X136838571Y-85225000D01*
X136838571Y-84939285D01*
X136910000Y-84796428D01*
X136981428Y-84725000D01*
X137124285Y-84653571D01*
X137552857Y-84653571D01*
X137695714Y-84725000D01*
X137767142Y-84796428D01*
X137838571Y-84939285D01*
X137838571Y-85225000D01*
X137767142Y-85367857D01*
X137052857Y-83510714D02*
X137124285Y-83296428D01*
X137195714Y-83225000D01*
X137338571Y-83153571D01*
X137552857Y-83153571D01*
X137695714Y-83225000D01*
X137767142Y-83296428D01*
X137838571Y-83439285D01*
X137838571Y-84010714D01*
X136338571Y-84010714D01*
X136338571Y-83510714D01*
X136410000Y-83367857D01*
X136481428Y-83296428D01*
X136624285Y-83225000D01*
X136767142Y-83225000D01*
X136910000Y-83296428D01*
X136981428Y-83367857D01*
X137052857Y-83510714D01*
X137052857Y-84010714D01*
X137052857Y-74917857D02*
X137124285Y-74703571D01*
X137195714Y-74632142D01*
X137338571Y-74560714D01*
X137552857Y-74560714D01*
X137695714Y-74632142D01*
X137767142Y-74703571D01*
X137838571Y-74846428D01*
X137838571Y-75417857D01*
X136338571Y-75417857D01*
X136338571Y-74917857D01*
X136410000Y-74775000D01*
X136481428Y-74703571D01*
X136624285Y-74632142D01*
X136767142Y-74632142D01*
X136910000Y-74703571D01*
X136981428Y-74775000D01*
X137052857Y-74917857D01*
X137052857Y-75417857D01*
X137838571Y-73703571D02*
X137767142Y-73846428D01*
X137695714Y-73917857D01*
X137552857Y-73989285D01*
X137124285Y-73989285D01*
X136981428Y-73917857D01*
X136910000Y-73846428D01*
X136838571Y-73703571D01*
X136838571Y-73489285D01*
X136910000Y-73346428D01*
X136981428Y-73275000D01*
X137124285Y-73203571D01*
X137552857Y-73203571D01*
X137695714Y-73275000D01*
X137767142Y-73346428D01*
X137838571Y-73489285D01*
X137838571Y-73703571D01*
X137838571Y-72560714D02*
X136338571Y-72560714D01*
X136910000Y-72560714D02*
X136838571Y-72417857D01*
X136838571Y-72132142D01*
X136910000Y-71989285D01*
X136981428Y-71917857D01*
X137124285Y-71846428D01*
X137552857Y-71846428D01*
X137695714Y-71917857D01*
X137767142Y-71989285D01*
X137838571Y-72132142D01*
X137838571Y-72417857D01*
X137767142Y-72560714D01*
X137410000Y-71275000D02*
X137410000Y-70560714D01*
X137838571Y-71417857D02*
X136338571Y-70917857D01*
X137838571Y-70417857D01*
D11*
X230219523Y-63587380D02*
X230552857Y-64587380D01*
X230886190Y-63587380D01*
X230981428Y-64682619D02*
X231743333Y-64682619D01*
X231981428Y-64587380D02*
X231981428Y-63587380D01*
X232314761Y-64301666D01*
X232648095Y-63587380D01*
X232648095Y-64587380D01*
X233314761Y-63587380D02*
X233505238Y-63587380D01*
X233600476Y-63635000D01*
X233695714Y-63730238D01*
X233743333Y-63920714D01*
X233743333Y-64254047D01*
X233695714Y-64444523D01*
X233600476Y-64539761D01*
X233505238Y-64587380D01*
X233314761Y-64587380D01*
X233219523Y-64539761D01*
X233124285Y-64444523D01*
X233076666Y-64254047D01*
X233076666Y-63920714D01*
X233124285Y-63730238D01*
X233219523Y-63635000D01*
X233314761Y-63587380D01*
X234029047Y-63587380D02*
X234600476Y-63587380D01*
X234314761Y-64587380D02*
X234314761Y-63587380D01*
X231013095Y-69350000D02*
X230917857Y-69302380D01*
X230775000Y-69302380D01*
X230632142Y-69350000D01*
X230536904Y-69445238D01*
X230489285Y-69540476D01*
X230441666Y-69730952D01*
X230441666Y-69873809D01*
X230489285Y-70064285D01*
X230536904Y-70159523D01*
X230632142Y-70254761D01*
X230775000Y-70302380D01*
X230870238Y-70302380D01*
X231013095Y-70254761D01*
X231060714Y-70207142D01*
X231060714Y-69873809D01*
X230870238Y-69873809D01*
X231489285Y-70302380D02*
X231489285Y-69302380D01*
X232060714Y-70302380D01*
X232060714Y-69302380D01*
X232536904Y-70302380D02*
X232536904Y-69302380D01*
X232775000Y-69302380D01*
X232917857Y-69350000D01*
X233013095Y-69445238D01*
X233060714Y-69540476D01*
X233108333Y-69730952D01*
X233108333Y-69873809D01*
X233060714Y-70064285D01*
X233013095Y-70159523D01*
X232917857Y-70254761D01*
X232775000Y-70302380D01*
X232536904Y-70302380D01*
X145685000Y-70937380D02*
X145685000Y-69937380D01*
X146161190Y-70937380D02*
X146161190Y-69937380D01*
X146732619Y-70937380D01*
X146732619Y-69937380D01*
X147732619Y-70937380D02*
X147161190Y-70937380D01*
X147446904Y-70937380D02*
X147446904Y-69937380D01*
X147351666Y-70080238D01*
X147256428Y-70175476D01*
X147161190Y-70223095D01*
X231235476Y-86288571D02*
X231378333Y-86336190D01*
X231425952Y-86383809D01*
X231473571Y-86479047D01*
X231473571Y-86621904D01*
X231425952Y-86717142D01*
X231378333Y-86764761D01*
X231283095Y-86812380D01*
X230902142Y-86812380D01*
X230902142Y-85812380D01*
X231235476Y-85812380D01*
X231330714Y-85860000D01*
X231378333Y-85907619D01*
X231425952Y-86002857D01*
X231425952Y-86098095D01*
X231378333Y-86193333D01*
X231330714Y-86240952D01*
X231235476Y-86288571D01*
X230902142Y-86288571D01*
X232045000Y-86812380D02*
X231949761Y-86764761D01*
X231902142Y-86717142D01*
X231854523Y-86621904D01*
X231854523Y-86336190D01*
X231902142Y-86240952D01*
X231949761Y-86193333D01*
X232045000Y-86145714D01*
X232187857Y-86145714D01*
X232283095Y-86193333D01*
X232330714Y-86240952D01*
X232378333Y-86336190D01*
X232378333Y-86621904D01*
X232330714Y-86717142D01*
X232283095Y-86764761D01*
X232187857Y-86812380D01*
X232045000Y-86812380D01*
X232806904Y-86812380D02*
X232806904Y-85812380D01*
X232806904Y-86193333D02*
X232902142Y-86145714D01*
X233092619Y-86145714D01*
X233187857Y-86193333D01*
X233235476Y-86240952D01*
X233283095Y-86336190D01*
X233283095Y-86621904D01*
X233235476Y-86717142D01*
X233187857Y-86764761D01*
X233092619Y-86812380D01*
X232902142Y-86812380D01*
X232806904Y-86764761D01*
X234045000Y-86288571D02*
X234187857Y-86336190D01*
X234235476Y-86383809D01*
X234283095Y-86479047D01*
X234283095Y-86621904D01*
X234235476Y-86717142D01*
X234187857Y-86764761D01*
X234092619Y-86812380D01*
X233711666Y-86812380D01*
X233711666Y-85812380D01*
X234045000Y-85812380D01*
X234140238Y-85860000D01*
X234187857Y-85907619D01*
X234235476Y-86002857D01*
X234235476Y-86098095D01*
X234187857Y-86193333D01*
X234140238Y-86240952D01*
X234045000Y-86288571D01*
X233711666Y-86288571D01*
X235235476Y-86812380D02*
X234664047Y-86812380D01*
X234949761Y-86812380D02*
X234949761Y-85812380D01*
X234854523Y-85955238D01*
X234759285Y-86050476D01*
X234664047Y-86098095D01*
X231306904Y-96448571D02*
X231449761Y-96496190D01*
X231497380Y-96543809D01*
X231545000Y-96639047D01*
X231545000Y-96781904D01*
X231497380Y-96877142D01*
X231449761Y-96924761D01*
X231354523Y-96972380D01*
X230973571Y-96972380D01*
X230973571Y-95972380D01*
X231306904Y-95972380D01*
X231402142Y-96020000D01*
X231449761Y-96067619D01*
X231497380Y-96162857D01*
X231497380Y-96258095D01*
X231449761Y-96353333D01*
X231402142Y-96400952D01*
X231306904Y-96448571D01*
X230973571Y-96448571D01*
X232116428Y-96972380D02*
X232021190Y-96924761D01*
X231973571Y-96877142D01*
X231925952Y-96781904D01*
X231925952Y-96496190D01*
X231973571Y-96400952D01*
X232021190Y-96353333D01*
X232116428Y-96305714D01*
X232259285Y-96305714D01*
X232354523Y-96353333D01*
X232402142Y-96400952D01*
X232449761Y-96496190D01*
X232449761Y-96781904D01*
X232402142Y-96877142D01*
X232354523Y-96924761D01*
X232259285Y-96972380D01*
X232116428Y-96972380D01*
X232878333Y-96972380D02*
X232878333Y-95972380D01*
X232878333Y-96353333D02*
X232973571Y-96305714D01*
X233164047Y-96305714D01*
X233259285Y-96353333D01*
X233306904Y-96400952D01*
X233354523Y-96496190D01*
X233354523Y-96781904D01*
X233306904Y-96877142D01*
X233259285Y-96924761D01*
X233164047Y-96972380D01*
X232973571Y-96972380D01*
X232878333Y-96924761D01*
X233735476Y-96686666D02*
X234211666Y-96686666D01*
X233640238Y-96972380D02*
X233973571Y-95972380D01*
X234306904Y-96972380D01*
X235164047Y-96972380D02*
X234592619Y-96972380D01*
X234878333Y-96972380D02*
X234878333Y-95972380D01*
X234783095Y-96115238D01*
X234687857Y-96210476D01*
X234592619Y-96258095D01*
X224956666Y-69936904D02*
X224956666Y-69460714D01*
X225242380Y-70032142D02*
X224242380Y-69698809D01*
X225242380Y-69365476D01*
X225242380Y-68889285D02*
X225194761Y-68984523D01*
X225099523Y-69032142D01*
X224242380Y-69032142D01*
X225242380Y-68508333D02*
X224575714Y-68508333D01*
X224242380Y-68508333D02*
X224290000Y-68555952D01*
X224337619Y-68508333D01*
X224290000Y-68460714D01*
X224242380Y-68508333D01*
X224337619Y-68508333D01*
X225242380Y-68032142D02*
X224575714Y-68032142D01*
X224670952Y-68032142D02*
X224623333Y-67984523D01*
X224575714Y-67889285D01*
X224575714Y-67746428D01*
X224623333Y-67651190D01*
X224718571Y-67603571D01*
X225242380Y-67603571D01*
X224718571Y-67603571D02*
X224623333Y-67555952D01*
X224575714Y-67460714D01*
X224575714Y-67317857D01*
X224623333Y-67222619D01*
X224718571Y-67175000D01*
X225242380Y-67175000D01*
X225242380Y-65936904D02*
X224242380Y-65936904D01*
X224956666Y-65603571D01*
X224242380Y-65270238D01*
X225242380Y-65270238D01*
X224242380Y-64603571D02*
X224242380Y-64413095D01*
X224290000Y-64317857D01*
X224385238Y-64222619D01*
X224575714Y-64175000D01*
X224909047Y-64175000D01*
X225099523Y-64222619D01*
X225194761Y-64317857D01*
X225242380Y-64413095D01*
X225242380Y-64603571D01*
X225194761Y-64698809D01*
X225099523Y-64794047D01*
X224909047Y-64841666D01*
X224575714Y-64841666D01*
X224385238Y-64794047D01*
X224290000Y-64698809D01*
X224242380Y-64603571D01*
X224242380Y-63889285D02*
X224242380Y-63317857D01*
X225242380Y-63603571D02*
X224242380Y-63603571D01*
X145859523Y-80097380D02*
X145383333Y-80097380D01*
X145335714Y-80573571D01*
X145383333Y-80525952D01*
X145478571Y-80478333D01*
X145716666Y-80478333D01*
X145811904Y-80525952D01*
X145859523Y-80573571D01*
X145907142Y-80668809D01*
X145907142Y-80906904D01*
X145859523Y-81002142D01*
X145811904Y-81049761D01*
X145716666Y-81097380D01*
X145478571Y-81097380D01*
X145383333Y-81049761D01*
X145335714Y-81002142D01*
X146192857Y-80097380D02*
X146526190Y-81097380D01*
X146859523Y-80097380D01*
X145526428Y-68349761D02*
X145669285Y-68397380D01*
X145907380Y-68397380D01*
X146002619Y-68349761D01*
X146050238Y-68302142D01*
X146097857Y-68206904D01*
X146097857Y-68111666D01*
X146050238Y-68016428D01*
X146002619Y-67968809D01*
X145907380Y-67921190D01*
X145716904Y-67873571D01*
X145621666Y-67825952D01*
X145574047Y-67778333D01*
X145526428Y-67683095D01*
X145526428Y-67587857D01*
X145574047Y-67492619D01*
X145621666Y-67445000D01*
X145716904Y-67397380D01*
X145955000Y-67397380D01*
X146097857Y-67445000D01*
X146907380Y-68349761D02*
X146812142Y-68397380D01*
X146621666Y-68397380D01*
X146526428Y-68349761D01*
X146478809Y-68254523D01*
X146478809Y-67873571D01*
X146526428Y-67778333D01*
X146621666Y-67730714D01*
X146812142Y-67730714D01*
X146907380Y-67778333D01*
X146955000Y-67873571D01*
X146955000Y-67968809D01*
X146478809Y-68064047D01*
X147383571Y-67730714D02*
X147383571Y-68397380D01*
X147383571Y-67825952D02*
X147431190Y-67778333D01*
X147526428Y-67730714D01*
X147669285Y-67730714D01*
X147764523Y-67778333D01*
X147812142Y-67873571D01*
X147812142Y-68397380D01*
X148240714Y-68349761D02*
X148335952Y-68397380D01*
X148526428Y-68397380D01*
X148621666Y-68349761D01*
X148669285Y-68254523D01*
X148669285Y-68206904D01*
X148621666Y-68111666D01*
X148526428Y-68064047D01*
X148383571Y-68064047D01*
X148288333Y-68016428D01*
X148240714Y-67921190D01*
X148240714Y-67873571D01*
X148288333Y-67778333D01*
X148383571Y-67730714D01*
X148526428Y-67730714D01*
X148621666Y-67778333D01*
X149478809Y-68349761D02*
X149383571Y-68397380D01*
X149193095Y-68397380D01*
X149097857Y-68349761D01*
X149050238Y-68254523D01*
X149050238Y-67873571D01*
X149097857Y-67778333D01*
X149193095Y-67730714D01*
X149383571Y-67730714D01*
X149478809Y-67778333D01*
X149526428Y-67873571D01*
X149526428Y-67968809D01*
X149050238Y-68064047D01*
X149907380Y-68111666D02*
X150383571Y-68111666D01*
X149812142Y-68397380D02*
X150145476Y-67397380D01*
X150478809Y-68397380D01*
X231235476Y-81208571D02*
X231378333Y-81256190D01*
X231425952Y-81303809D01*
X231473571Y-81399047D01*
X231473571Y-81541904D01*
X231425952Y-81637142D01*
X231378333Y-81684761D01*
X231283095Y-81732380D01*
X230902142Y-81732380D01*
X230902142Y-80732380D01*
X231235476Y-80732380D01*
X231330714Y-80780000D01*
X231378333Y-80827619D01*
X231425952Y-80922857D01*
X231425952Y-81018095D01*
X231378333Y-81113333D01*
X231330714Y-81160952D01*
X231235476Y-81208571D01*
X230902142Y-81208571D01*
X232045000Y-81732380D02*
X231949761Y-81684761D01*
X231902142Y-81637142D01*
X231854523Y-81541904D01*
X231854523Y-81256190D01*
X231902142Y-81160952D01*
X231949761Y-81113333D01*
X232045000Y-81065714D01*
X232187857Y-81065714D01*
X232283095Y-81113333D01*
X232330714Y-81160952D01*
X232378333Y-81256190D01*
X232378333Y-81541904D01*
X232330714Y-81637142D01*
X232283095Y-81684761D01*
X232187857Y-81732380D01*
X232045000Y-81732380D01*
X232806904Y-81732380D02*
X232806904Y-80732380D01*
X232806904Y-81113333D02*
X232902142Y-81065714D01*
X233092619Y-81065714D01*
X233187857Y-81113333D01*
X233235476Y-81160952D01*
X233283095Y-81256190D01*
X233283095Y-81541904D01*
X233235476Y-81637142D01*
X233187857Y-81684761D01*
X233092619Y-81732380D01*
X232902142Y-81732380D01*
X232806904Y-81684761D01*
X234045000Y-81208571D02*
X234187857Y-81256190D01*
X234235476Y-81303809D01*
X234283095Y-81399047D01*
X234283095Y-81541904D01*
X234235476Y-81637142D01*
X234187857Y-81684761D01*
X234092619Y-81732380D01*
X233711666Y-81732380D01*
X233711666Y-80732380D01*
X234045000Y-80732380D01*
X234140238Y-80780000D01*
X234187857Y-80827619D01*
X234235476Y-80922857D01*
X234235476Y-81018095D01*
X234187857Y-81113333D01*
X234140238Y-81160952D01*
X234045000Y-81208571D01*
X233711666Y-81208571D01*
X234664047Y-80827619D02*
X234711666Y-80780000D01*
X234806904Y-80732380D01*
X235045000Y-80732380D01*
X235140238Y-80780000D01*
X235187857Y-80827619D01*
X235235476Y-80922857D01*
X235235476Y-81018095D01*
X235187857Y-81160952D01*
X234616428Y-81732380D01*
X235235476Y-81732380D01*
X231306904Y-91368571D02*
X231449761Y-91416190D01*
X231497380Y-91463809D01*
X231545000Y-91559047D01*
X231545000Y-91701904D01*
X231497380Y-91797142D01*
X231449761Y-91844761D01*
X231354523Y-91892380D01*
X230973571Y-91892380D01*
X230973571Y-90892380D01*
X231306904Y-90892380D01*
X231402142Y-90940000D01*
X231449761Y-90987619D01*
X231497380Y-91082857D01*
X231497380Y-91178095D01*
X231449761Y-91273333D01*
X231402142Y-91320952D01*
X231306904Y-91368571D01*
X230973571Y-91368571D01*
X232116428Y-91892380D02*
X232021190Y-91844761D01*
X231973571Y-91797142D01*
X231925952Y-91701904D01*
X231925952Y-91416190D01*
X231973571Y-91320952D01*
X232021190Y-91273333D01*
X232116428Y-91225714D01*
X232259285Y-91225714D01*
X232354523Y-91273333D01*
X232402142Y-91320952D01*
X232449761Y-91416190D01*
X232449761Y-91701904D01*
X232402142Y-91797142D01*
X232354523Y-91844761D01*
X232259285Y-91892380D01*
X232116428Y-91892380D01*
X232878333Y-91892380D02*
X232878333Y-90892380D01*
X232878333Y-91273333D02*
X232973571Y-91225714D01*
X233164047Y-91225714D01*
X233259285Y-91273333D01*
X233306904Y-91320952D01*
X233354523Y-91416190D01*
X233354523Y-91701904D01*
X233306904Y-91797142D01*
X233259285Y-91844761D01*
X233164047Y-91892380D01*
X232973571Y-91892380D01*
X232878333Y-91844761D01*
X233735476Y-91606666D02*
X234211666Y-91606666D01*
X233640238Y-91892380D02*
X233973571Y-90892380D01*
X234306904Y-91892380D01*
X234592619Y-90987619D02*
X234640238Y-90940000D01*
X234735476Y-90892380D01*
X234973571Y-90892380D01*
X235068809Y-90940000D01*
X235116428Y-90987619D01*
X235164047Y-91082857D01*
X235164047Y-91178095D01*
X235116428Y-91320952D01*
X234545000Y-91892380D01*
X235164047Y-91892380D01*
X145589761Y-72953571D02*
X145923095Y-72953571D01*
X146065952Y-73477380D02*
X145589761Y-73477380D01*
X145589761Y-72477380D01*
X146065952Y-72477380D01*
X146494523Y-72810714D02*
X146494523Y-73477380D01*
X146494523Y-72905952D02*
X146542142Y-72858333D01*
X146637380Y-72810714D01*
X146780238Y-72810714D01*
X146875476Y-72858333D01*
X146923095Y-72953571D01*
X146923095Y-73477380D01*
X147351666Y-73191666D02*
X147827857Y-73191666D01*
X147256428Y-73477380D02*
X147589761Y-72477380D01*
X147923095Y-73477380D01*
X145685000Y-88717380D02*
X145685000Y-87717380D01*
X146161190Y-88717380D02*
X146161190Y-87717380D01*
X146732619Y-88717380D01*
X146732619Y-87717380D01*
X147637380Y-88050714D02*
X147637380Y-88717380D01*
X147399285Y-87669761D02*
X147161190Y-88384047D01*
X147780238Y-88384047D01*
X145455000Y-91209761D02*
X145597857Y-91257380D01*
X145835952Y-91257380D01*
X145931190Y-91209761D01*
X145978809Y-91162142D01*
X146026428Y-91066904D01*
X146026428Y-90971666D01*
X145978809Y-90876428D01*
X145931190Y-90828809D01*
X145835952Y-90781190D01*
X145645476Y-90733571D01*
X145550238Y-90685952D01*
X145502619Y-90638333D01*
X145455000Y-90543095D01*
X145455000Y-90447857D01*
X145502619Y-90352619D01*
X145550238Y-90305000D01*
X145645476Y-90257380D01*
X145883571Y-90257380D01*
X146026428Y-90305000D01*
X146835952Y-91209761D02*
X146740714Y-91257380D01*
X146550238Y-91257380D01*
X146455000Y-91209761D01*
X146407380Y-91114523D01*
X146407380Y-90733571D01*
X146455000Y-90638333D01*
X146550238Y-90590714D01*
X146740714Y-90590714D01*
X146835952Y-90638333D01*
X146883571Y-90733571D01*
X146883571Y-90828809D01*
X146407380Y-90924047D01*
X147312142Y-90590714D02*
X147312142Y-91257380D01*
X147312142Y-90685952D02*
X147359761Y-90638333D01*
X147455000Y-90590714D01*
X147597857Y-90590714D01*
X147693095Y-90638333D01*
X147740714Y-90733571D01*
X147740714Y-91257380D01*
X148169285Y-91209761D02*
X148264523Y-91257380D01*
X148455000Y-91257380D01*
X148550238Y-91209761D01*
X148597857Y-91114523D01*
X148597857Y-91066904D01*
X148550238Y-90971666D01*
X148455000Y-90924047D01*
X148312142Y-90924047D01*
X148216904Y-90876428D01*
X148169285Y-90781190D01*
X148169285Y-90733571D01*
X148216904Y-90638333D01*
X148312142Y-90590714D01*
X148455000Y-90590714D01*
X148550238Y-90638333D01*
X149407380Y-91209761D02*
X149312142Y-91257380D01*
X149121666Y-91257380D01*
X149026428Y-91209761D01*
X148978809Y-91114523D01*
X148978809Y-90733571D01*
X149026428Y-90638333D01*
X149121666Y-90590714D01*
X149312142Y-90590714D01*
X149407380Y-90638333D01*
X149455000Y-90733571D01*
X149455000Y-90828809D01*
X148978809Y-90924047D01*
X150216904Y-90733571D02*
X150359761Y-90781190D01*
X150407380Y-90828809D01*
X150455000Y-90924047D01*
X150455000Y-91066904D01*
X150407380Y-91162142D01*
X150359761Y-91209761D01*
X150264523Y-91257380D01*
X149883571Y-91257380D01*
X149883571Y-90257380D01*
X150216904Y-90257380D01*
X150312142Y-90305000D01*
X150359761Y-90352619D01*
X150407380Y-90447857D01*
X150407380Y-90543095D01*
X150359761Y-90638333D01*
X150312142Y-90685952D01*
X150216904Y-90733571D01*
X149883571Y-90733571D01*
X145518333Y-85653571D02*
X145851666Y-85653571D01*
X145994523Y-86177380D02*
X145518333Y-86177380D01*
X145518333Y-85177380D01*
X145994523Y-85177380D01*
X146423095Y-85510714D02*
X146423095Y-86177380D01*
X146423095Y-85605952D02*
X146470714Y-85558333D01*
X146565952Y-85510714D01*
X146708809Y-85510714D01*
X146804047Y-85558333D01*
X146851666Y-85653571D01*
X146851666Y-86177380D01*
X147661190Y-85653571D02*
X147804047Y-85701190D01*
X147851666Y-85748809D01*
X147899285Y-85844047D01*
X147899285Y-85986904D01*
X147851666Y-86082142D01*
X147804047Y-86129761D01*
X147708809Y-86177380D01*
X147327857Y-86177380D01*
X147327857Y-85177380D01*
X147661190Y-85177380D01*
X147756428Y-85225000D01*
X147804047Y-85272619D01*
X147851666Y-85367857D01*
X147851666Y-85463095D01*
X147804047Y-85558333D01*
X147756428Y-85605952D01*
X147661190Y-85653571D01*
X147327857Y-85653571D01*
X145923095Y-77605000D02*
X145827857Y-77557380D01*
X145685000Y-77557380D01*
X145542142Y-77605000D01*
X145446904Y-77700238D01*
X145399285Y-77795476D01*
X145351666Y-77985952D01*
X145351666Y-78128809D01*
X145399285Y-78319285D01*
X145446904Y-78414523D01*
X145542142Y-78509761D01*
X145685000Y-78557380D01*
X145780238Y-78557380D01*
X145923095Y-78509761D01*
X145970714Y-78462142D01*
X145970714Y-78128809D01*
X145780238Y-78128809D01*
X146399285Y-78557380D02*
X146399285Y-77557380D01*
X146970714Y-78557380D01*
X146970714Y-77557380D01*
X147446904Y-78557380D02*
X147446904Y-77557380D01*
X147685000Y-77557380D01*
X147827857Y-77605000D01*
X147923095Y-77700238D01*
X147970714Y-77795476D01*
X148018333Y-77985952D01*
X148018333Y-78128809D01*
X147970714Y-78319285D01*
X147923095Y-78414523D01*
X147827857Y-78509761D01*
X147685000Y-78557380D01*
X147446904Y-78557380D01*
X145685000Y-76017380D02*
X145685000Y-75017380D01*
X146161190Y-76017380D02*
X146161190Y-75017380D01*
X146732619Y-76017380D01*
X146732619Y-75017380D01*
X147161190Y-75112619D02*
X147208809Y-75065000D01*
X147304047Y-75017380D01*
X147542142Y-75017380D01*
X147637380Y-75065000D01*
X147685000Y-75112619D01*
X147732619Y-75207857D01*
X147732619Y-75303095D01*
X147685000Y-75445952D01*
X147113571Y-76017380D01*
X147732619Y-76017380D01*
X145685000Y-83637380D02*
X145685000Y-82637380D01*
X146161190Y-83637380D02*
X146161190Y-82637380D01*
X146732619Y-83637380D01*
X146732619Y-82637380D01*
X147113571Y-82637380D02*
X147732619Y-82637380D01*
X147399285Y-83018333D01*
X147542142Y-83018333D01*
X147637380Y-83065952D01*
X147685000Y-83113571D01*
X147732619Y-83208809D01*
X147732619Y-83446904D01*
X147685000Y-83542142D01*
X147637380Y-83589761D01*
X147542142Y-83637380D01*
X147256428Y-83637380D01*
X147161190Y-83589761D01*
X147113571Y-83542142D01*
X196890952Y-58682380D02*
X196414761Y-58682380D01*
X196414761Y-57682380D01*
X197224285Y-58158571D02*
X197557619Y-58158571D01*
X197700476Y-58682380D02*
X197224285Y-58682380D01*
X197224285Y-57682380D01*
X197700476Y-57682380D01*
X198129047Y-58015714D02*
X198129047Y-58682380D01*
X198129047Y-58110952D02*
X198176666Y-58063333D01*
X198271904Y-58015714D01*
X198414761Y-58015714D01*
X198510000Y-58063333D01*
X198557619Y-58158571D01*
X198557619Y-58682380D01*
X198986190Y-58634761D02*
X199081428Y-58682380D01*
X199271904Y-58682380D01*
X199367142Y-58634761D01*
X199414761Y-58539523D01*
X199414761Y-58491904D01*
X199367142Y-58396666D01*
X199271904Y-58349047D01*
X199129047Y-58349047D01*
X199033809Y-58301428D01*
X198986190Y-58206190D01*
X198986190Y-58158571D01*
X199033809Y-58063333D01*
X199129047Y-58015714D01*
X199271904Y-58015714D01*
X199367142Y-58063333D01*
X199843333Y-58158571D02*
X200176666Y-58158571D01*
X200319523Y-58682380D02*
X199843333Y-58682380D01*
X199843333Y-57682380D01*
X200319523Y-57682380D01*
X202224285Y-57634761D02*
X201367142Y-58920476D01*
X203271904Y-57777619D02*
X203319523Y-57730000D01*
X203414761Y-57682380D01*
X203652857Y-57682380D01*
X203748095Y-57730000D01*
X203795714Y-57777619D01*
X203843333Y-57872857D01*
X203843333Y-57968095D01*
X203795714Y-58110952D01*
X203224285Y-58682380D01*
X203843333Y-58682380D01*
X204462380Y-57682380D02*
X204557619Y-57682380D01*
X204652857Y-57730000D01*
X204700476Y-57777619D01*
X204748095Y-57872857D01*
X204795714Y-58063333D01*
X204795714Y-58301428D01*
X204748095Y-58491904D01*
X204700476Y-58587142D01*
X204652857Y-58634761D01*
X204557619Y-58682380D01*
X204462380Y-58682380D01*
X204367142Y-58634761D01*
X204319523Y-58587142D01*
X204271904Y-58491904D01*
X204224285Y-58301428D01*
X204224285Y-58063333D01*
X204271904Y-57872857D01*
X204319523Y-57777619D01*
X204367142Y-57730000D01*
X204462380Y-57682380D01*
X205176666Y-57777619D02*
X205224285Y-57730000D01*
X205319523Y-57682380D01*
X205557619Y-57682380D01*
X205652857Y-57730000D01*
X205700476Y-57777619D01*
X205748095Y-57872857D01*
X205748095Y-57968095D01*
X205700476Y-58110952D01*
X205129047Y-58682380D01*
X205748095Y-58682380D01*
X206367142Y-57682380D02*
X206462380Y-57682380D01*
X206557619Y-57730000D01*
X206605238Y-57777619D01*
X206652857Y-57872857D01*
X206700476Y-58063333D01*
X206700476Y-58301428D01*
X206652857Y-58491904D01*
X206605238Y-58587142D01*
X206557619Y-58634761D01*
X206462380Y-58682380D01*
X206367142Y-58682380D01*
X206271904Y-58634761D01*
X206224285Y-58587142D01*
X206176666Y-58491904D01*
X206129047Y-58301428D01*
X206129047Y-58063333D01*
X206176666Y-57872857D01*
X206224285Y-57777619D01*
X206271904Y-57730000D01*
X206367142Y-57682380D01*
X208605238Y-57634761D02*
X207748095Y-58920476D01*
X210271904Y-58587142D02*
X210224285Y-58634761D01*
X210081428Y-58682380D01*
X209986190Y-58682380D01*
X209843333Y-58634761D01*
X209748095Y-58539523D01*
X209700476Y-58444285D01*
X209652857Y-58253809D01*
X209652857Y-58110952D01*
X209700476Y-57920476D01*
X209748095Y-57825238D01*
X209843333Y-57730000D01*
X209986190Y-57682380D01*
X210081428Y-57682380D01*
X210224285Y-57730000D01*
X210271904Y-57777619D01*
X211129047Y-58682380D02*
X211129047Y-58158571D01*
X211081428Y-58063333D01*
X210986190Y-58015714D01*
X210795714Y-58015714D01*
X210700476Y-58063333D01*
X211129047Y-58634761D02*
X211033809Y-58682380D01*
X210795714Y-58682380D01*
X210700476Y-58634761D01*
X210652857Y-58539523D01*
X210652857Y-58444285D01*
X210700476Y-58349047D01*
X210795714Y-58301428D01*
X211033809Y-58301428D01*
X211129047Y-58253809D01*
X211605238Y-58682380D02*
X211605238Y-58015714D01*
X211605238Y-58206190D02*
X211652857Y-58110952D01*
X211700476Y-58063333D01*
X211795714Y-58015714D01*
X211890952Y-58015714D01*
X212081428Y-58015714D02*
X212462380Y-58015714D01*
X212224285Y-57682380D02*
X212224285Y-58539523D01*
X212271904Y-58634761D01*
X212367142Y-58682380D01*
X212462380Y-58682380D01*
X213176666Y-58634761D02*
X213081428Y-58682380D01*
X212890952Y-58682380D01*
X212795714Y-58634761D01*
X212748095Y-58539523D01*
X212748095Y-58158571D01*
X212795714Y-58063333D01*
X212890952Y-58015714D01*
X213081428Y-58015714D01*
X213176666Y-58063333D01*
X213224285Y-58158571D01*
X213224285Y-58253809D01*
X212748095Y-58349047D01*
X214890952Y-58682380D02*
X214414761Y-58682380D01*
X214414761Y-57682380D01*
X215176666Y-57777619D02*
X215224285Y-57730000D01*
X215319523Y-57682380D01*
X215557619Y-57682380D01*
X215652857Y-57730000D01*
X215700476Y-57777619D01*
X215748095Y-57872857D01*
X215748095Y-57968095D01*
X215700476Y-58110952D01*
X215129047Y-58682380D01*
X215748095Y-58682380D01*
X216224285Y-58682380D02*
X216414761Y-58682380D01*
X216510000Y-58634761D01*
X216557619Y-58587142D01*
X216652857Y-58444285D01*
X216700476Y-58253809D01*
X216700476Y-57872857D01*
X216652857Y-57777619D01*
X216605238Y-57730000D01*
X216510000Y-57682380D01*
X216319523Y-57682380D01*
X216224285Y-57730000D01*
X216176666Y-57777619D01*
X216129047Y-57872857D01*
X216129047Y-58110952D01*
X216176666Y-58206190D01*
X216224285Y-58253809D01*
X216319523Y-58301428D01*
X216510000Y-58301428D01*
X216605238Y-58253809D01*
X216652857Y-58206190D01*
X216700476Y-58110952D01*
X217271904Y-58110952D02*
X217176666Y-58063333D01*
X217129047Y-58015714D01*
X217081428Y-57920476D01*
X217081428Y-57872857D01*
X217129047Y-57777619D01*
X217176666Y-57730000D01*
X217271904Y-57682380D01*
X217462380Y-57682380D01*
X217557619Y-57730000D01*
X217605238Y-57777619D01*
X217652857Y-57872857D01*
X217652857Y-57920476D01*
X217605238Y-58015714D01*
X217557619Y-58063333D01*
X217462380Y-58110952D01*
X217271904Y-58110952D01*
X217176666Y-58158571D01*
X217129047Y-58206190D01*
X217081428Y-58301428D01*
X217081428Y-58491904D01*
X217129047Y-58587142D01*
X217176666Y-58634761D01*
X217271904Y-58682380D01*
X217462380Y-58682380D01*
X217557619Y-58634761D01*
X217605238Y-58587142D01*
X217652857Y-58491904D01*
X217652857Y-58301428D01*
X217605238Y-58206190D01*
X217557619Y-58158571D01*
X217462380Y-58110952D01*
X200129047Y-60332380D02*
X200129047Y-59332380D01*
X200462380Y-60046666D01*
X200795714Y-59332380D01*
X200795714Y-60332380D01*
X201843333Y-60237142D02*
X201795714Y-60284761D01*
X201652857Y-60332380D01*
X201557619Y-60332380D01*
X201414761Y-60284761D01*
X201319523Y-60189523D01*
X201271904Y-60094285D01*
X201224285Y-59903809D01*
X201224285Y-59760952D01*
X201271904Y-59570476D01*
X201319523Y-59475238D01*
X201414761Y-59380000D01*
X201557619Y-59332380D01*
X201652857Y-59332380D01*
X201795714Y-59380000D01*
X201843333Y-59427619D01*
X202843333Y-60237142D02*
X202795714Y-60284761D01*
X202652857Y-60332380D01*
X202557619Y-60332380D01*
X202414761Y-60284761D01*
X202319523Y-60189523D01*
X202271904Y-60094285D01*
X202224285Y-59903809D01*
X202224285Y-59760952D01*
X202271904Y-59570476D01*
X202319523Y-59475238D01*
X202414761Y-59380000D01*
X202557619Y-59332380D01*
X202652857Y-59332380D01*
X202795714Y-59380000D01*
X202843333Y-59427619D01*
X204176666Y-60332380D02*
X204081428Y-60284761D01*
X204033809Y-60237142D01*
X203986190Y-60141904D01*
X203986190Y-59856190D01*
X204033809Y-59760952D01*
X204081428Y-59713333D01*
X204176666Y-59665714D01*
X204319523Y-59665714D01*
X204414761Y-59713333D01*
X204462380Y-59760952D01*
X204510000Y-59856190D01*
X204510000Y-60141904D01*
X204462380Y-60237142D01*
X204414761Y-60284761D01*
X204319523Y-60332380D01*
X204176666Y-60332380D01*
X205367142Y-59665714D02*
X205367142Y-60332380D01*
X204938571Y-59665714D02*
X204938571Y-60189523D01*
X204986190Y-60284761D01*
X205081428Y-60332380D01*
X205224285Y-60332380D01*
X205319523Y-60284761D01*
X205367142Y-60237142D01*
X206605238Y-60332380D02*
X206605238Y-59332380D01*
X206986190Y-59332380D01*
X207081428Y-59380000D01*
X207129047Y-59427619D01*
X207176666Y-59522857D01*
X207176666Y-59665714D01*
X207129047Y-59760952D01*
X207081428Y-59808571D01*
X206986190Y-59856190D01*
X206605238Y-59856190D01*
X208033809Y-60332380D02*
X208033809Y-59808571D01*
X207986190Y-59713333D01*
X207890952Y-59665714D01*
X207700476Y-59665714D01*
X207605238Y-59713333D01*
X208033809Y-60284761D02*
X207938571Y-60332380D01*
X207700476Y-60332380D01*
X207605238Y-60284761D01*
X207557619Y-60189523D01*
X207557619Y-60094285D01*
X207605238Y-59999047D01*
X207700476Y-59951428D01*
X207938571Y-59951428D01*
X208033809Y-59903809D01*
X208462380Y-60284761D02*
X208557619Y-60332380D01*
X208748095Y-60332380D01*
X208843333Y-60284761D01*
X208890952Y-60189523D01*
X208890952Y-60141904D01*
X208843333Y-60046666D01*
X208748095Y-59999047D01*
X208605238Y-59999047D01*
X208510000Y-59951428D01*
X208462380Y-59856190D01*
X208462380Y-59808571D01*
X208510000Y-59713333D01*
X208605238Y-59665714D01*
X208748095Y-59665714D01*
X208843333Y-59713333D01*
X210510000Y-60332380D02*
X210510000Y-59808571D01*
X210462380Y-59713333D01*
X210367142Y-59665714D01*
X210176666Y-59665714D01*
X210081428Y-59713333D01*
X210510000Y-60284761D02*
X210414761Y-60332380D01*
X210176666Y-60332380D01*
X210081428Y-60284761D01*
X210033809Y-60189523D01*
X210033809Y-60094285D01*
X210081428Y-59999047D01*
X210176666Y-59951428D01*
X210414761Y-59951428D01*
X210510000Y-59903809D01*
X210176666Y-59284761D02*
X210319523Y-59427619D01*
X211748095Y-59665714D02*
X211748095Y-60665714D01*
X211748095Y-59713333D02*
X211843333Y-59665714D01*
X212033809Y-59665714D01*
X212129047Y-59713333D01*
X212176666Y-59760952D01*
X212224285Y-59856190D01*
X212224285Y-60141904D01*
X212176666Y-60237142D01*
X212129047Y-60284761D01*
X212033809Y-60332380D01*
X211843333Y-60332380D01*
X211748095Y-60284761D01*
X213081428Y-60332380D02*
X213081428Y-59808571D01*
X213033809Y-59713333D01*
X212938571Y-59665714D01*
X212748095Y-59665714D01*
X212652857Y-59713333D01*
X213081428Y-60284761D02*
X212986190Y-60332380D01*
X212748095Y-60332380D01*
X212652857Y-60284761D01*
X212605238Y-60189523D01*
X212605238Y-60094285D01*
X212652857Y-59999047D01*
X212748095Y-59951428D01*
X212986190Y-59951428D01*
X213081428Y-59903809D01*
X213510000Y-60284761D02*
X213605238Y-60332380D01*
X213795714Y-60332380D01*
X213890952Y-60284761D01*
X213938571Y-60189523D01*
X213938571Y-60141904D01*
X213890952Y-60046666D01*
X213795714Y-59999047D01*
X213652857Y-59999047D01*
X213557619Y-59951428D01*
X213510000Y-59856190D01*
X213510000Y-59808571D01*
X213557619Y-59713333D01*
X213652857Y-59665714D01*
X213795714Y-59665714D01*
X213890952Y-59713333D01*
D12*
X137795000Y-76835000D02*
X147955000Y-76835000D01*
X136525000Y-81915000D02*
X147955000Y-81915000D01*
X136525000Y-76835000D02*
X137795000Y-76835000D01*
D13*
%TO.C,U1*%
X169559000Y-83185000D02*
X166165000Y-83185000D01*
X169559000Y-80645000D02*
X166165000Y-80645000D01*
X169559000Y-78105000D02*
X166165000Y-78105000D01*
X169559000Y-75565000D02*
X166165000Y-75565000D01*
X169559000Y-73025000D02*
X166165000Y-73025000D01*
X169559000Y-70485000D02*
X166165000Y-70485000D01*
X169559000Y-67945000D02*
X166165000Y-67945000D01*
X169559000Y-65405000D02*
X166150000Y-65405000D01*
X174800000Y-76145000D02*
X172960000Y-76145000D01*
X174800000Y-72446000D02*
X172960000Y-72446000D01*
X172960000Y-64075000D02*
X172960000Y-84515000D01*
X174800000Y-84515000D02*
X169559000Y-84515000D01*
X174800000Y-64075000D02*
X169559000Y-64075000D01*
X169559000Y-82840000D02*
X169559000Y-84515000D01*
X169559000Y-80300000D02*
X169559000Y-80991000D01*
X169559000Y-77760000D02*
X169559000Y-78451000D01*
X169559000Y-75220000D02*
X169559000Y-75911000D01*
X169559000Y-72680000D02*
X169559000Y-73371000D01*
X169559000Y-70140000D02*
X169559000Y-70831000D01*
X169559000Y-67600000D02*
X169559000Y-68291000D01*
X169559000Y-64075000D02*
X169559000Y-65751000D01*
X174800000Y-64075000D02*
X174800000Y-84515000D01*
%TO.C,J1*%
X217285000Y-61295000D02*
X217285000Y-61795000D01*
X218025000Y-61295000D02*
X217285000Y-61295000D01*
X221893000Y-67957000D02*
X221497000Y-67562000D01*
X224539000Y-70603000D02*
X224159000Y-70223000D01*
X221611000Y-68208000D02*
X221231000Y-67828000D01*
X224273000Y-70869000D02*
X223877000Y-70474000D01*
X221604000Y-62587000D02*
X221497000Y-62481000D01*
X224539000Y-65523000D02*
X224432000Y-65416000D01*
X221338000Y-62853000D02*
X221231000Y-62747000D01*
X224273000Y-65789000D02*
X224166000Y-65682000D01*
X228845000Y-71815000D02*
X217525000Y-71815000D01*
X228845000Y-61535000D02*
X217525000Y-61535000D01*
X217525000Y-61535000D02*
X217525000Y-71815000D01*
X228845000Y-61535000D02*
X228845000Y-71815000D01*
X226785000Y-61535000D02*
X226785000Y-71815000D01*
X220585000Y-61535000D02*
X220585000Y-71815000D01*
X218085000Y-61535000D02*
X218085000Y-71815000D01*
X225065000Y-69215000D02*
G75*
G03X225065000Y-69215000I-2180000J0D01*
G01*
X225065000Y-64135000D02*
G75*
G03X225065000Y-64135000I-2180000J0D01*
G01*
%TO.C,J3*%
X217285000Y-78440000D02*
X217285000Y-78940000D01*
X218025000Y-78440000D02*
X217285000Y-78440000D01*
X221893000Y-95262000D02*
X221497000Y-94867000D01*
X224539000Y-97908000D02*
X224159000Y-97528000D01*
X221611000Y-95513000D02*
X221231000Y-95133000D01*
X224273000Y-98174000D02*
X223877000Y-97779000D01*
X221893000Y-90182000D02*
X221497000Y-89787000D01*
X224539000Y-92828000D02*
X224159000Y-92448000D01*
X221611000Y-90433000D02*
X221231000Y-90053000D01*
X224273000Y-93094000D02*
X223877000Y-92699000D01*
X221893000Y-85102000D02*
X221497000Y-84707000D01*
X224539000Y-87748000D02*
X224159000Y-87368000D01*
X221611000Y-85353000D02*
X221231000Y-84973000D01*
X224273000Y-88014000D02*
X223877000Y-87619000D01*
X221604000Y-79732000D02*
X221497000Y-79626000D01*
X224539000Y-82668000D02*
X224432000Y-82561000D01*
X221338000Y-79998000D02*
X221231000Y-79892000D01*
X224273000Y-82934000D02*
X224166000Y-82827000D01*
X228845000Y-99120000D02*
X217525000Y-99120000D01*
X228845000Y-78680000D02*
X217525000Y-78680000D01*
X217525000Y-78680000D02*
X217525000Y-99120000D01*
X228845000Y-78680000D02*
X228845000Y-99120000D01*
X226785000Y-78680000D02*
X226785000Y-99120000D01*
X220585000Y-78680000D02*
X220585000Y-99120000D01*
X218085000Y-78680000D02*
X218085000Y-99120000D01*
X225065000Y-96520000D02*
G75*
G03X225065000Y-96520000I-2180000J0D01*
G01*
X225065000Y-91440000D02*
G75*
G03X225065000Y-91440000I-2180000J0D01*
G01*
X225065000Y-86360000D02*
G75*
G03X225065000Y-86360000I-2180000J0D01*
G01*
X225065000Y-81280000D02*
G75*
G03X225065000Y-81280000I-2180000J0D01*
G01*
%TO.C,D6*%
X200040000Y-85615000D02*
X196200000Y-85615000D01*
X196200000Y-85615000D02*
X196200000Y-93455000D01*
X196200000Y-93455000D02*
X200040000Y-93455000D01*
X200040000Y-93455000D02*
X200040000Y-85615000D01*
X198120000Y-84625000D02*
X198120000Y-85615000D01*
X198120000Y-94445000D02*
X198120000Y-93455000D01*
X200040000Y-86875000D02*
X196200000Y-86875000D01*
X200040000Y-86995000D02*
X196200000Y-86995000D01*
X200040000Y-86755000D02*
X196200000Y-86755000D01*
%TO.C,D3*%
X194325000Y-67705000D02*
X190485000Y-67705000D01*
X194325000Y-67945000D02*
X190485000Y-67945000D01*
X194325000Y-67825000D02*
X190485000Y-67825000D01*
X192405000Y-75395000D02*
X192405000Y-74405000D01*
X192405000Y-65575000D02*
X192405000Y-66565000D01*
X194325000Y-74405000D02*
X194325000Y-66565000D01*
X190485000Y-74405000D02*
X194325000Y-74405000D01*
X190485000Y-66565000D02*
X190485000Y-74405000D01*
X194325000Y-66565000D02*
X190485000Y-66565000D01*
%TO.C,J2*%
X139005000Y-66615000D02*
X140335000Y-66615000D01*
X139005000Y-67945000D02*
X139005000Y-66615000D01*
X141605000Y-66615000D02*
X144205000Y-66615000D01*
X141605000Y-69215000D02*
X141605000Y-66615000D01*
X139005000Y-69215000D02*
X141605000Y-69215000D01*
X144205000Y-66615000D02*
X144205000Y-92135000D01*
X139005000Y-69215000D02*
X139005000Y-92135000D01*
X139005000Y-92135000D02*
X144205000Y-92135000D01*
%TO.C,D8*%
X205755000Y-85615000D02*
X201915000Y-85615000D01*
X201915000Y-85615000D02*
X201915000Y-93455000D01*
X201915000Y-93455000D02*
X205755000Y-93455000D01*
X205755000Y-93455000D02*
X205755000Y-85615000D01*
X203835000Y-84625000D02*
X203835000Y-85615000D01*
X203835000Y-94445000D02*
X203835000Y-93455000D01*
X205755000Y-86875000D02*
X201915000Y-86875000D01*
X205755000Y-86995000D02*
X201915000Y-86995000D01*
X205755000Y-86755000D02*
X201915000Y-86755000D01*
%TO.C,D7*%
X205755000Y-67705000D02*
X201915000Y-67705000D01*
X205755000Y-67945000D02*
X201915000Y-67945000D01*
X205755000Y-67825000D02*
X201915000Y-67825000D01*
X203835000Y-75395000D02*
X203835000Y-74405000D01*
X203835000Y-65575000D02*
X203835000Y-66565000D01*
X205755000Y-74405000D02*
X205755000Y-66565000D01*
X201915000Y-74405000D02*
X205755000Y-74405000D01*
X201915000Y-66565000D02*
X201915000Y-74405000D01*
X205755000Y-66565000D02*
X201915000Y-66565000D01*
%TO.C,D1*%
X211470000Y-67705000D02*
X207630000Y-67705000D01*
X211470000Y-67945000D02*
X207630000Y-67945000D01*
X211470000Y-67825000D02*
X207630000Y-67825000D01*
X209550000Y-75395000D02*
X209550000Y-74405000D01*
X209550000Y-65575000D02*
X209550000Y-66565000D01*
X211470000Y-74405000D02*
X211470000Y-66565000D01*
X207630000Y-74405000D02*
X211470000Y-74405000D01*
X207630000Y-66565000D02*
X207630000Y-74405000D01*
X211470000Y-66565000D02*
X207630000Y-66565000D01*
%TO.C,D5*%
X200040000Y-67705000D02*
X196200000Y-67705000D01*
X200040000Y-67945000D02*
X196200000Y-67945000D01*
X200040000Y-67825000D02*
X196200000Y-67825000D01*
X198120000Y-75395000D02*
X198120000Y-74405000D01*
X198120000Y-65575000D02*
X198120000Y-66565000D01*
X200040000Y-74405000D02*
X200040000Y-66565000D01*
X196200000Y-74405000D02*
X200040000Y-74405000D01*
X196200000Y-66565000D02*
X196200000Y-74405000D01*
X200040000Y-66565000D02*
X196200000Y-66565000D01*
%TO.C,D2*%
X211470000Y-85615000D02*
X207630000Y-85615000D01*
X207630000Y-85615000D02*
X207630000Y-93455000D01*
X207630000Y-93455000D02*
X211470000Y-93455000D01*
X211470000Y-93455000D02*
X211470000Y-85615000D01*
X209550000Y-84625000D02*
X209550000Y-85615000D01*
X209550000Y-94445000D02*
X209550000Y-93455000D01*
X211470000Y-86875000D02*
X207630000Y-86875000D01*
X211470000Y-86995000D02*
X207630000Y-86995000D01*
X211470000Y-86755000D02*
X207630000Y-86755000D01*
%TO.C,D4*%
X194325000Y-85615000D02*
X190485000Y-85615000D01*
X190485000Y-85615000D02*
X190485000Y-93455000D01*
X190485000Y-93455000D02*
X194325000Y-93455000D01*
X194325000Y-93455000D02*
X194325000Y-85615000D01*
X192405000Y-84625000D02*
X192405000Y-85615000D01*
X192405000Y-94445000D02*
X192405000Y-93455000D01*
X194325000Y-86875000D02*
X190485000Y-86875000D01*
X194325000Y-86995000D02*
X190485000Y-86995000D01*
X194325000Y-86755000D02*
X190485000Y-86755000D01*
%TO.C,R2*%
X182165000Y-96030000D02*
X182165000Y-94150000D01*
X156925000Y-96030000D02*
X182165000Y-96030000D01*
X156925000Y-94150000D02*
X156925000Y-96030000D01*
X182165000Y-89390000D02*
X182165000Y-91270000D01*
X156925000Y-89390000D02*
X182165000Y-89390000D01*
X156925000Y-91270000D02*
X156925000Y-89390000D01*
%TO.C,R1*%
X178990000Y-60495000D02*
X178990000Y-62375000D01*
X178990000Y-62375000D02*
X153750000Y-62375000D01*
X153750000Y-62375000D02*
X153750000Y-60495000D01*
X178990000Y-57615000D02*
X178990000Y-55735000D01*
X178990000Y-55735000D02*
X153750000Y-55735000D01*
X153750000Y-55735000D02*
X153750000Y-57615000D01*
%TO.C,U1*%
D11*
X175252380Y-75056904D02*
X176061904Y-75056904D01*
X176157142Y-75009285D01*
X176204761Y-74961666D01*
X176252380Y-74866428D01*
X176252380Y-74675952D01*
X176204761Y-74580714D01*
X176157142Y-74533095D01*
X176061904Y-74485476D01*
X175252380Y-74485476D01*
X176252380Y-73485476D02*
X176252380Y-74056904D01*
X176252380Y-73771190D02*
X175252380Y-73771190D01*
X175395238Y-73866428D01*
X175490476Y-73961666D01*
X175538095Y-74056904D01*
%TO.C,J1*%
X229297380Y-67008333D02*
X230011666Y-67008333D01*
X230154523Y-67055952D01*
X230249761Y-67151190D01*
X230297380Y-67294047D01*
X230297380Y-67389285D01*
X230297380Y-66008333D02*
X230297380Y-66579761D01*
X230297380Y-66294047D02*
X229297380Y-66294047D01*
X229440238Y-66389285D01*
X229535476Y-66484523D01*
X229583095Y-66579761D01*
%TO.C,J3*%
X229297380Y-89233333D02*
X230011666Y-89233333D01*
X230154523Y-89280952D01*
X230249761Y-89376190D01*
X230297380Y-89519047D01*
X230297380Y-89614285D01*
X229297380Y-88852380D02*
X229297380Y-88233333D01*
X229678333Y-88566666D01*
X229678333Y-88423809D01*
X229725952Y-88328571D01*
X229773571Y-88280952D01*
X229868809Y-88233333D01*
X230106904Y-88233333D01*
X230202142Y-88280952D01*
X230249761Y-88328571D01*
X230297380Y-88423809D01*
X230297380Y-88709523D01*
X230249761Y-88804761D01*
X230202142Y-88852380D01*
%TO.C,D6*%
X201492380Y-90273095D02*
X200492380Y-90273095D01*
X200492380Y-90035000D01*
X200540000Y-89892142D01*
X200635238Y-89796904D01*
X200730476Y-89749285D01*
X200920952Y-89701666D01*
X201063809Y-89701666D01*
X201254285Y-89749285D01*
X201349523Y-89796904D01*
X201444761Y-89892142D01*
X201492380Y-90035000D01*
X201492380Y-90273095D01*
X200492380Y-88844523D02*
X200492380Y-89035000D01*
X200540000Y-89130238D01*
X200587619Y-89177857D01*
X200730476Y-89273095D01*
X200920952Y-89320714D01*
X201301904Y-89320714D01*
X201397142Y-89273095D01*
X201444761Y-89225476D01*
X201492380Y-89130238D01*
X201492380Y-88939761D01*
X201444761Y-88844523D01*
X201397142Y-88796904D01*
X201301904Y-88749285D01*
X201063809Y-88749285D01*
X200968571Y-88796904D01*
X200920952Y-88844523D01*
X200873333Y-88939761D01*
X200873333Y-89130238D01*
X200920952Y-89225476D01*
X200968571Y-89273095D01*
X201063809Y-89320714D01*
X200772380Y-83446904D02*
X199772380Y-83446904D01*
X200772380Y-82875476D02*
X200200952Y-83304047D01*
X199772380Y-82875476D02*
X200343809Y-83446904D01*
%TO.C,M3*%
X226520476Y-58872380D02*
X226520476Y-57872380D01*
X226853809Y-58586666D01*
X227187142Y-57872380D01*
X227187142Y-58872380D01*
X227568095Y-57872380D02*
X228187142Y-57872380D01*
X227853809Y-58253333D01*
X227996666Y-58253333D01*
X228091904Y-58300952D01*
X228139523Y-58348571D01*
X228187142Y-58443809D01*
X228187142Y-58681904D01*
X228139523Y-58777142D01*
X228091904Y-58824761D01*
X227996666Y-58872380D01*
X227710952Y-58872380D01*
X227615714Y-58824761D01*
X227568095Y-58777142D01*
%TO.C,D3*%
X195777380Y-71223095D02*
X194777380Y-71223095D01*
X194777380Y-70985000D01*
X194825000Y-70842142D01*
X194920238Y-70746904D01*
X195015476Y-70699285D01*
X195205952Y-70651666D01*
X195348809Y-70651666D01*
X195539285Y-70699285D01*
X195634523Y-70746904D01*
X195729761Y-70842142D01*
X195777380Y-70985000D01*
X195777380Y-71223095D01*
X194777380Y-70318333D02*
X194777380Y-69699285D01*
X195158333Y-70032619D01*
X195158333Y-69889761D01*
X195205952Y-69794523D01*
X195253571Y-69746904D01*
X195348809Y-69699285D01*
X195586904Y-69699285D01*
X195682142Y-69746904D01*
X195729761Y-69794523D01*
X195777380Y-69889761D01*
X195777380Y-70175476D01*
X195729761Y-70270714D01*
X195682142Y-70318333D01*
X195057380Y-64396904D02*
X194057380Y-64396904D01*
X195057380Y-63825476D02*
X194485952Y-64254047D01*
X194057380Y-63825476D02*
X194628809Y-64396904D01*
%TO.C,M3*%
X145875476Y-58872380D02*
X145875476Y-57872380D01*
X146208809Y-58586666D01*
X146542142Y-57872380D01*
X146542142Y-58872380D01*
X146923095Y-57872380D02*
X147542142Y-57872380D01*
X147208809Y-58253333D01*
X147351666Y-58253333D01*
X147446904Y-58300952D01*
X147494523Y-58348571D01*
X147542142Y-58443809D01*
X147542142Y-58681904D01*
X147494523Y-58777142D01*
X147446904Y-58824761D01*
X147351666Y-58872380D01*
X147065952Y-58872380D01*
X146970714Y-58824761D01*
X146923095Y-58777142D01*
%TO.C,J2*%
X141271666Y-65067380D02*
X141271666Y-65781666D01*
X141224047Y-65924523D01*
X141128809Y-66019761D01*
X140985952Y-66067380D01*
X140890714Y-66067380D01*
X141700238Y-65162619D02*
X141747857Y-65115000D01*
X141843095Y-65067380D01*
X142081190Y-65067380D01*
X142176428Y-65115000D01*
X142224047Y-65162619D01*
X142271666Y-65257857D01*
X142271666Y-65353095D01*
X142224047Y-65495952D01*
X141652619Y-66067380D01*
X142271666Y-66067380D01*
%TO.C,D8*%
X207207380Y-90273095D02*
X206207380Y-90273095D01*
X206207380Y-90035000D01*
X206255000Y-89892142D01*
X206350238Y-89796904D01*
X206445476Y-89749285D01*
X206635952Y-89701666D01*
X206778809Y-89701666D01*
X206969285Y-89749285D01*
X207064523Y-89796904D01*
X207159761Y-89892142D01*
X207207380Y-90035000D01*
X207207380Y-90273095D01*
X206635952Y-89130238D02*
X206588333Y-89225476D01*
X206540714Y-89273095D01*
X206445476Y-89320714D01*
X206397857Y-89320714D01*
X206302619Y-89273095D01*
X206255000Y-89225476D01*
X206207380Y-89130238D01*
X206207380Y-88939761D01*
X206255000Y-88844523D01*
X206302619Y-88796904D01*
X206397857Y-88749285D01*
X206445476Y-88749285D01*
X206540714Y-88796904D01*
X206588333Y-88844523D01*
X206635952Y-88939761D01*
X206635952Y-89130238D01*
X206683571Y-89225476D01*
X206731190Y-89273095D01*
X206826428Y-89320714D01*
X207016904Y-89320714D01*
X207112142Y-89273095D01*
X207159761Y-89225476D01*
X207207380Y-89130238D01*
X207207380Y-88939761D01*
X207159761Y-88844523D01*
X207112142Y-88796904D01*
X207016904Y-88749285D01*
X206826428Y-88749285D01*
X206731190Y-88796904D01*
X206683571Y-88844523D01*
X206635952Y-88939761D01*
X206487380Y-83446904D02*
X205487380Y-83446904D01*
X206487380Y-82875476D02*
X205915952Y-83304047D01*
X205487380Y-82875476D02*
X206058809Y-83446904D01*
%TO.C,D7*%
X207207380Y-71223095D02*
X206207380Y-71223095D01*
X206207380Y-70985000D01*
X206255000Y-70842142D01*
X206350238Y-70746904D01*
X206445476Y-70699285D01*
X206635952Y-70651666D01*
X206778809Y-70651666D01*
X206969285Y-70699285D01*
X207064523Y-70746904D01*
X207159761Y-70842142D01*
X207207380Y-70985000D01*
X207207380Y-71223095D01*
X206207380Y-70318333D02*
X206207380Y-69651666D01*
X207207380Y-70080238D01*
X206487380Y-64396904D02*
X205487380Y-64396904D01*
X206487380Y-63825476D02*
X205915952Y-64254047D01*
X205487380Y-63825476D02*
X206058809Y-64396904D01*
%TO.C,D1*%
X212922380Y-71223095D02*
X211922380Y-71223095D01*
X211922380Y-70985000D01*
X211970000Y-70842142D01*
X212065238Y-70746904D01*
X212160476Y-70699285D01*
X212350952Y-70651666D01*
X212493809Y-70651666D01*
X212684285Y-70699285D01*
X212779523Y-70746904D01*
X212874761Y-70842142D01*
X212922380Y-70985000D01*
X212922380Y-71223095D01*
X212922380Y-69699285D02*
X212922380Y-70270714D01*
X212922380Y-69985000D02*
X211922380Y-69985000D01*
X212065238Y-70080238D01*
X212160476Y-70175476D01*
X212208095Y-70270714D01*
X212202380Y-64396904D02*
X211202380Y-64396904D01*
X212202380Y-63825476D02*
X211630952Y-64254047D01*
X211202380Y-63825476D02*
X211773809Y-64396904D01*
%TO.C,D5*%
X201492380Y-71223095D02*
X200492380Y-71223095D01*
X200492380Y-70985000D01*
X200540000Y-70842142D01*
X200635238Y-70746904D01*
X200730476Y-70699285D01*
X200920952Y-70651666D01*
X201063809Y-70651666D01*
X201254285Y-70699285D01*
X201349523Y-70746904D01*
X201444761Y-70842142D01*
X201492380Y-70985000D01*
X201492380Y-71223095D01*
X200492380Y-69746904D02*
X200492380Y-70223095D01*
X200968571Y-70270714D01*
X200920952Y-70223095D01*
X200873333Y-70127857D01*
X200873333Y-69889761D01*
X200920952Y-69794523D01*
X200968571Y-69746904D01*
X201063809Y-69699285D01*
X201301904Y-69699285D01*
X201397142Y-69746904D01*
X201444761Y-69794523D01*
X201492380Y-69889761D01*
X201492380Y-70127857D01*
X201444761Y-70223095D01*
X201397142Y-70270714D01*
X200772380Y-64396904D02*
X199772380Y-64396904D01*
X200772380Y-63825476D02*
X200200952Y-64254047D01*
X199772380Y-63825476D02*
X200343809Y-64396904D01*
%TO.C,M3*%
X140160476Y-95647380D02*
X140160476Y-94647380D01*
X140493809Y-95361666D01*
X140827142Y-94647380D01*
X140827142Y-95647380D01*
X141208095Y-94647380D02*
X141827142Y-94647380D01*
X141493809Y-95028333D01*
X141636666Y-95028333D01*
X141731904Y-95075952D01*
X141779523Y-95123571D01*
X141827142Y-95218809D01*
X141827142Y-95456904D01*
X141779523Y-95552142D01*
X141731904Y-95599761D01*
X141636666Y-95647380D01*
X141350952Y-95647380D01*
X141255714Y-95599761D01*
X141208095Y-95552142D01*
%TO.C,D2*%
X212922380Y-90273095D02*
X211922380Y-90273095D01*
X211922380Y-90035000D01*
X211970000Y-89892142D01*
X212065238Y-89796904D01*
X212160476Y-89749285D01*
X212350952Y-89701666D01*
X212493809Y-89701666D01*
X212684285Y-89749285D01*
X212779523Y-89796904D01*
X212874761Y-89892142D01*
X212922380Y-90035000D01*
X212922380Y-90273095D01*
X212017619Y-89320714D02*
X211970000Y-89273095D01*
X211922380Y-89177857D01*
X211922380Y-88939761D01*
X211970000Y-88844523D01*
X212017619Y-88796904D01*
X212112857Y-88749285D01*
X212208095Y-88749285D01*
X212350952Y-88796904D01*
X212922380Y-89368333D01*
X212922380Y-88749285D01*
X212202380Y-83446904D02*
X211202380Y-83446904D01*
X212202380Y-82875476D02*
X211630952Y-83304047D01*
X211202380Y-82875476D02*
X211773809Y-83446904D01*
%TO.C,D4*%
X195777380Y-90273095D02*
X194777380Y-90273095D01*
X194777380Y-90035000D01*
X194825000Y-89892142D01*
X194920238Y-89796904D01*
X195015476Y-89749285D01*
X195205952Y-89701666D01*
X195348809Y-89701666D01*
X195539285Y-89749285D01*
X195634523Y-89796904D01*
X195729761Y-89892142D01*
X195777380Y-90035000D01*
X195777380Y-90273095D01*
X195110714Y-88844523D02*
X195777380Y-88844523D01*
X194729761Y-89082619D02*
X195444047Y-89320714D01*
X195444047Y-88701666D01*
X195057380Y-83446904D02*
X194057380Y-83446904D01*
X195057380Y-82875476D02*
X194485952Y-83304047D01*
X194057380Y-82875476D02*
X194628809Y-83446904D01*
%TO.C,R2*%
X169378333Y-88842380D02*
X169045000Y-88366190D01*
X168806904Y-88842380D02*
X168806904Y-87842380D01*
X169187857Y-87842380D01*
X169283095Y-87890000D01*
X169330714Y-87937619D01*
X169378333Y-88032857D01*
X169378333Y-88175714D01*
X169330714Y-88270952D01*
X169283095Y-88318571D01*
X169187857Y-88366190D01*
X168806904Y-88366190D01*
X169759285Y-87937619D02*
X169806904Y-87890000D01*
X169902142Y-87842380D01*
X170140238Y-87842380D01*
X170235476Y-87890000D01*
X170283095Y-87937619D01*
X170330714Y-88032857D01*
X170330714Y-88128095D01*
X170283095Y-88270952D01*
X169711666Y-88842380D01*
X170330714Y-88842380D01*
%TO.C,R1*%
X166203333Y-63827380D02*
X165870000Y-63351190D01*
X165631904Y-63827380D02*
X165631904Y-62827380D01*
X166012857Y-62827380D01*
X166108095Y-62875000D01*
X166155714Y-62922619D01*
X166203333Y-63017857D01*
X166203333Y-63160714D01*
X166155714Y-63255952D01*
X166108095Y-63303571D01*
X166012857Y-63351190D01*
X165631904Y-63351190D01*
X167155714Y-63827380D02*
X166584285Y-63827380D01*
X166870000Y-63827380D02*
X166870000Y-62827380D01*
X166774761Y-62970238D01*
X166679523Y-63065476D01*
X166584285Y-63113095D01*
%TD*%
M02*
