%TF.GenerationSoftware,KiCad,Pcbnew,5.0.2-bee76a0~70~ubuntu18.04.1*%
%TF.CreationDate,2020-11-23T14:53:07+01:00*%
%TF.ProjectId,Carte_L298,43617274-655f-44c3-9239-382e6b696361,rev?*%
%TF.SameCoordinates,Original*%
%TF.FileFunction,Soldermask,Bot*%
%TF.FilePolarity,Negative*%
%FSLAX46Y46*%
G04 Gerber Fmt 4.6, Leading zero omitted, Abs format (unit mm)*
G04 Created by KiCad (PCBNEW 5.0.2-bee76a0~70~ubuntu18.04.1) date lun. 23 nov. 2020 14:53:07 CET*
%MOMM*%
%LPD*%
G01*
G04 APERTURE LIST*
%ADD10C,0.100000*%
G04 APERTURE END LIST*
D10*
G36*
X141480456Y-98012251D02*
X141798936Y-98144170D01*
X142085560Y-98335686D01*
X142329314Y-98579440D01*
X142520830Y-98866064D01*
X142652749Y-99184544D01*
X142720000Y-99522640D01*
X142720000Y-99867360D01*
X142652749Y-100205456D01*
X142520830Y-100523936D01*
X142329314Y-100810560D01*
X142085560Y-101054314D01*
X141798936Y-101245830D01*
X141480456Y-101377749D01*
X141142360Y-101445000D01*
X140797640Y-101445000D01*
X140459544Y-101377749D01*
X140141064Y-101245830D01*
X139854440Y-101054314D01*
X139610686Y-100810560D01*
X139419170Y-100523936D01*
X139287251Y-100205456D01*
X139220000Y-99867360D01*
X139220000Y-99522640D01*
X139287251Y-99184544D01*
X139419170Y-98866064D01*
X139610686Y-98579440D01*
X139854440Y-98335686D01*
X140141064Y-98144170D01*
X140459544Y-98012251D01*
X140797640Y-97945000D01*
X141142360Y-97945000D01*
X141480456Y-98012251D01*
X141480456Y-98012251D01*
G37*
G36*
X223264196Y-95269958D02*
X223500780Y-95367954D01*
X223713705Y-95510226D01*
X223894774Y-95691295D01*
X224037046Y-95904220D01*
X224135042Y-96140804D01*
X224185000Y-96391960D01*
X224185000Y-96648040D01*
X224135042Y-96899196D01*
X224037046Y-97135780D01*
X223894774Y-97348705D01*
X223713705Y-97529774D01*
X223500780Y-97672046D01*
X223264196Y-97770042D01*
X223013040Y-97820000D01*
X222756960Y-97820000D01*
X222505804Y-97770042D01*
X222269220Y-97672046D01*
X222056295Y-97529774D01*
X221875226Y-97348705D01*
X221732954Y-97135780D01*
X221634958Y-96899196D01*
X221585000Y-96648040D01*
X221585000Y-96391960D01*
X221634958Y-96140804D01*
X221732954Y-95904220D01*
X221875226Y-95691295D01*
X222056295Y-95510226D01*
X222269220Y-95367954D01*
X222505804Y-95269958D01*
X222756960Y-95220000D01*
X223013040Y-95220000D01*
X223264196Y-95269958D01*
X223264196Y-95269958D01*
G37*
G36*
X209804845Y-94603810D02*
X210049896Y-94678145D01*
X210275736Y-94798860D01*
X210473687Y-94961313D01*
X210636140Y-95159264D01*
X210756855Y-95385104D01*
X210831190Y-95630155D01*
X210856290Y-95885000D01*
X210831190Y-96139845D01*
X210756855Y-96384896D01*
X210636140Y-96610736D01*
X210473687Y-96808687D01*
X210275736Y-96971140D01*
X210049896Y-97091855D01*
X209804845Y-97166190D01*
X209613864Y-97185000D01*
X209486136Y-97185000D01*
X209295155Y-97166190D01*
X209050104Y-97091855D01*
X208824264Y-96971140D01*
X208626313Y-96808687D01*
X208463860Y-96610736D01*
X208343145Y-96384896D01*
X208268810Y-96139845D01*
X208243710Y-95885000D01*
X208268810Y-95630155D01*
X208343145Y-95385104D01*
X208463860Y-95159264D01*
X208626313Y-94961313D01*
X208824264Y-94798860D01*
X209050104Y-94678145D01*
X209295155Y-94603810D01*
X209486136Y-94585000D01*
X209613864Y-94585000D01*
X209804845Y-94603810D01*
X209804845Y-94603810D01*
G37*
G36*
X204089845Y-94603810D02*
X204334896Y-94678145D01*
X204560736Y-94798860D01*
X204758687Y-94961313D01*
X204921140Y-95159264D01*
X205041855Y-95385104D01*
X205116190Y-95630155D01*
X205141290Y-95885000D01*
X205116190Y-96139845D01*
X205041855Y-96384896D01*
X204921140Y-96610736D01*
X204758687Y-96808687D01*
X204560736Y-96971140D01*
X204334896Y-97091855D01*
X204089845Y-97166190D01*
X203898864Y-97185000D01*
X203771136Y-97185000D01*
X203580155Y-97166190D01*
X203335104Y-97091855D01*
X203109264Y-96971140D01*
X202911313Y-96808687D01*
X202748860Y-96610736D01*
X202628145Y-96384896D01*
X202553810Y-96139845D01*
X202528710Y-95885000D01*
X202553810Y-95630155D01*
X202628145Y-95385104D01*
X202748860Y-95159264D01*
X202911313Y-94961313D01*
X203109264Y-94798860D01*
X203335104Y-94678145D01*
X203580155Y-94603810D01*
X203771136Y-94585000D01*
X203898864Y-94585000D01*
X204089845Y-94603810D01*
X204089845Y-94603810D01*
G37*
G36*
X198374845Y-94603810D02*
X198619896Y-94678145D01*
X198845736Y-94798860D01*
X199043687Y-94961313D01*
X199206140Y-95159264D01*
X199326855Y-95385104D01*
X199401190Y-95630155D01*
X199426290Y-95885000D01*
X199401190Y-96139845D01*
X199326855Y-96384896D01*
X199206140Y-96610736D01*
X199043687Y-96808687D01*
X198845736Y-96971140D01*
X198619896Y-97091855D01*
X198374845Y-97166190D01*
X198183864Y-97185000D01*
X198056136Y-97185000D01*
X197865155Y-97166190D01*
X197620104Y-97091855D01*
X197394264Y-96971140D01*
X197196313Y-96808687D01*
X197033860Y-96610736D01*
X196913145Y-96384896D01*
X196838810Y-96139845D01*
X196813710Y-95885000D01*
X196838810Y-95630155D01*
X196913145Y-95385104D01*
X197033860Y-95159264D01*
X197196313Y-94961313D01*
X197394264Y-94798860D01*
X197620104Y-94678145D01*
X197865155Y-94603810D01*
X198056136Y-94585000D01*
X198183864Y-94585000D01*
X198374845Y-94603810D01*
X198374845Y-94603810D01*
G37*
G36*
X192659845Y-94603810D02*
X192904896Y-94678145D01*
X193130736Y-94798860D01*
X193328687Y-94961313D01*
X193491140Y-95159264D01*
X193611855Y-95385104D01*
X193686190Y-95630155D01*
X193711290Y-95885000D01*
X193686190Y-96139845D01*
X193611855Y-96384896D01*
X193491140Y-96610736D01*
X193328687Y-96808687D01*
X193130736Y-96971140D01*
X192904896Y-97091855D01*
X192659845Y-97166190D01*
X192468864Y-97185000D01*
X192341136Y-97185000D01*
X192150155Y-97166190D01*
X191905104Y-97091855D01*
X191679264Y-96971140D01*
X191481313Y-96808687D01*
X191318860Y-96610736D01*
X191198145Y-96384896D01*
X191123810Y-96139845D01*
X191098710Y-95885000D01*
X191123810Y-95630155D01*
X191198145Y-95385104D01*
X191318860Y-95159264D01*
X191481313Y-94961313D01*
X191679264Y-94798860D01*
X191905104Y-94678145D01*
X192150155Y-94603810D01*
X192341136Y-94585000D01*
X192468864Y-94585000D01*
X192659845Y-94603810D01*
X192659845Y-94603810D01*
G37*
G36*
X155925026Y-91556115D02*
X156143412Y-91646573D01*
X156339958Y-91777901D01*
X156507099Y-91945042D01*
X156638427Y-92141588D01*
X156728885Y-92359974D01*
X156775000Y-92591809D01*
X156775000Y-92828191D01*
X156728885Y-93060026D01*
X156638427Y-93278412D01*
X156507099Y-93474958D01*
X156339958Y-93642099D01*
X156143412Y-93773427D01*
X155925026Y-93863885D01*
X155693191Y-93910000D01*
X155456809Y-93910000D01*
X155224974Y-93863885D01*
X155006588Y-93773427D01*
X154810042Y-93642099D01*
X154642901Y-93474958D01*
X154511573Y-93278412D01*
X154421115Y-93060026D01*
X154375000Y-92828191D01*
X154375000Y-92591809D01*
X154421115Y-92359974D01*
X154511573Y-92141588D01*
X154642901Y-91945042D01*
X154810042Y-91777901D01*
X155006588Y-91646573D01*
X155224974Y-91556115D01*
X155456809Y-91510000D01*
X155693191Y-91510000D01*
X155925026Y-91556115D01*
X155925026Y-91556115D01*
G37*
G36*
X183609208Y-91513473D02*
X183750241Y-91527363D01*
X183976442Y-91595981D01*
X183976444Y-91595982D01*
X183976447Y-91595983D01*
X184184910Y-91707408D01*
X184367634Y-91857366D01*
X184517592Y-92040090D01*
X184629017Y-92248553D01*
X184629018Y-92248556D01*
X184629019Y-92248558D01*
X184697637Y-92474759D01*
X184720806Y-92710000D01*
X184697637Y-92945241D01*
X184629019Y-93171442D01*
X184629017Y-93171447D01*
X184517592Y-93379910D01*
X184367634Y-93562634D01*
X184184910Y-93712592D01*
X183976447Y-93824017D01*
X183976444Y-93824018D01*
X183976442Y-93824019D01*
X183750241Y-93892637D01*
X183609208Y-93906527D01*
X183573951Y-93910000D01*
X183456049Y-93910000D01*
X183420792Y-93906527D01*
X183279759Y-93892637D01*
X183053558Y-93824019D01*
X183053556Y-93824018D01*
X183053553Y-93824017D01*
X182845090Y-93712592D01*
X182662366Y-93562634D01*
X182512408Y-93379910D01*
X182400983Y-93171447D01*
X182400981Y-93171442D01*
X182332363Y-92945241D01*
X182309194Y-92710000D01*
X182332363Y-92474759D01*
X182400981Y-92248558D01*
X182400982Y-92248556D01*
X182400983Y-92248553D01*
X182512408Y-92040090D01*
X182662366Y-91857366D01*
X182845090Y-91707408D01*
X183053553Y-91595983D01*
X183053556Y-91595982D01*
X183053558Y-91595981D01*
X183279759Y-91527363D01*
X183420792Y-91513473D01*
X183456049Y-91510000D01*
X183573951Y-91510000D01*
X183609208Y-91513473D01*
X183609208Y-91513473D01*
G37*
G36*
X223264196Y-90189958D02*
X223500780Y-90287954D01*
X223713705Y-90430226D01*
X223894774Y-90611295D01*
X224037046Y-90824220D01*
X224135042Y-91060804D01*
X224185000Y-91311960D01*
X224185000Y-91568040D01*
X224135042Y-91819196D01*
X224037046Y-92055780D01*
X223894774Y-92268705D01*
X223713705Y-92449774D01*
X223500780Y-92592046D01*
X223264196Y-92690042D01*
X223013040Y-92740000D01*
X222756960Y-92740000D01*
X222505804Y-92690042D01*
X222269220Y-92592046D01*
X222056295Y-92449774D01*
X221875226Y-92268705D01*
X221732954Y-92055780D01*
X221634958Y-91819196D01*
X221585000Y-91568040D01*
X221585000Y-91311960D01*
X221634958Y-91060804D01*
X221732954Y-90824220D01*
X221875226Y-90611295D01*
X222056295Y-90430226D01*
X222269220Y-90287954D01*
X222505804Y-90189958D01*
X222756960Y-90140000D01*
X223013040Y-90140000D01*
X223264196Y-90189958D01*
X223264196Y-90189958D01*
G37*
G36*
X140501630Y-89967299D02*
X140661855Y-90015903D01*
X140809520Y-90094831D01*
X140938949Y-90201051D01*
X141045169Y-90330480D01*
X141124097Y-90478145D01*
X141172701Y-90638370D01*
X141189112Y-90805000D01*
X141172701Y-90971630D01*
X141124097Y-91131855D01*
X141045169Y-91279520D01*
X140938949Y-91408949D01*
X140809520Y-91515169D01*
X140661855Y-91594097D01*
X140501630Y-91642701D01*
X140376752Y-91655000D01*
X140293248Y-91655000D01*
X140168370Y-91642701D01*
X140008145Y-91594097D01*
X139860480Y-91515169D01*
X139731051Y-91408949D01*
X139624831Y-91279520D01*
X139545903Y-91131855D01*
X139497299Y-90971630D01*
X139480888Y-90805000D01*
X139497299Y-90638370D01*
X139545903Y-90478145D01*
X139624831Y-90330480D01*
X139731051Y-90201051D01*
X139860480Y-90094831D01*
X140008145Y-90015903D01*
X140168370Y-89967299D01*
X140293248Y-89955000D01*
X140376752Y-89955000D01*
X140501630Y-89967299D01*
X140501630Y-89967299D01*
G37*
G36*
X143041630Y-89967299D02*
X143201855Y-90015903D01*
X143349520Y-90094831D01*
X143478949Y-90201051D01*
X143585169Y-90330480D01*
X143664097Y-90478145D01*
X143712701Y-90638370D01*
X143729112Y-90805000D01*
X143712701Y-90971630D01*
X143664097Y-91131855D01*
X143585169Y-91279520D01*
X143478949Y-91408949D01*
X143349520Y-91515169D01*
X143201855Y-91594097D01*
X143041630Y-91642701D01*
X142916752Y-91655000D01*
X142833248Y-91655000D01*
X142708370Y-91642701D01*
X142548145Y-91594097D01*
X142400480Y-91515169D01*
X142271051Y-91408949D01*
X142164831Y-91279520D01*
X142085903Y-91131855D01*
X142037299Y-90971630D01*
X142020888Y-90805000D01*
X142037299Y-90638370D01*
X142085903Y-90478145D01*
X142164831Y-90330480D01*
X142271051Y-90201051D01*
X142400480Y-90094831D01*
X142548145Y-90015903D01*
X142708370Y-89967299D01*
X142833248Y-89955000D01*
X142916752Y-89955000D01*
X143041630Y-89967299D01*
X143041630Y-89967299D01*
G37*
G36*
X143041630Y-87427299D02*
X143201855Y-87475903D01*
X143349520Y-87554831D01*
X143478949Y-87661051D01*
X143585169Y-87790480D01*
X143664097Y-87938145D01*
X143712701Y-88098370D01*
X143729112Y-88265000D01*
X143712701Y-88431630D01*
X143664097Y-88591855D01*
X143585169Y-88739520D01*
X143478949Y-88868949D01*
X143349520Y-88975169D01*
X143201855Y-89054097D01*
X143041630Y-89102701D01*
X142916752Y-89115000D01*
X142833248Y-89115000D01*
X142708370Y-89102701D01*
X142548145Y-89054097D01*
X142400480Y-88975169D01*
X142271051Y-88868949D01*
X142164831Y-88739520D01*
X142085903Y-88591855D01*
X142037299Y-88431630D01*
X142020888Y-88265000D01*
X142037299Y-88098370D01*
X142085903Y-87938145D01*
X142164831Y-87790480D01*
X142271051Y-87661051D01*
X142400480Y-87554831D01*
X142548145Y-87475903D01*
X142708370Y-87427299D01*
X142833248Y-87415000D01*
X142916752Y-87415000D01*
X143041630Y-87427299D01*
X143041630Y-87427299D01*
G37*
G36*
X140501630Y-87427299D02*
X140661855Y-87475903D01*
X140809520Y-87554831D01*
X140938949Y-87661051D01*
X141045169Y-87790480D01*
X141124097Y-87938145D01*
X141172701Y-88098370D01*
X141189112Y-88265000D01*
X141172701Y-88431630D01*
X141124097Y-88591855D01*
X141045169Y-88739520D01*
X140938949Y-88868949D01*
X140809520Y-88975169D01*
X140661855Y-89054097D01*
X140501630Y-89102701D01*
X140376752Y-89115000D01*
X140293248Y-89115000D01*
X140168370Y-89102701D01*
X140008145Y-89054097D01*
X139860480Y-88975169D01*
X139731051Y-88868949D01*
X139624831Y-88739520D01*
X139545903Y-88591855D01*
X139497299Y-88431630D01*
X139480888Y-88265000D01*
X139497299Y-88098370D01*
X139545903Y-87938145D01*
X139624831Y-87790480D01*
X139731051Y-87661051D01*
X139860480Y-87554831D01*
X140008145Y-87475903D01*
X140168370Y-87427299D01*
X140293248Y-87415000D01*
X140376752Y-87415000D01*
X140501630Y-87427299D01*
X140501630Y-87427299D01*
G37*
G36*
X223264196Y-85109958D02*
X223500780Y-85207954D01*
X223713705Y-85350226D01*
X223894774Y-85531295D01*
X224037046Y-85744220D01*
X224135042Y-85980804D01*
X224185000Y-86231960D01*
X224185000Y-86488040D01*
X224135042Y-86739196D01*
X224037046Y-86975780D01*
X223894774Y-87188705D01*
X223713705Y-87369774D01*
X223500780Y-87512046D01*
X223264196Y-87610042D01*
X223013040Y-87660000D01*
X222756960Y-87660000D01*
X222505804Y-87610042D01*
X222269220Y-87512046D01*
X222056295Y-87369774D01*
X221875226Y-87188705D01*
X221732954Y-86975780D01*
X221634958Y-86739196D01*
X221585000Y-86488040D01*
X221585000Y-86231960D01*
X221634958Y-85980804D01*
X221732954Y-85744220D01*
X221875226Y-85531295D01*
X222056295Y-85350226D01*
X222269220Y-85207954D01*
X222505804Y-85109958D01*
X222756960Y-85060000D01*
X223013040Y-85060000D01*
X223264196Y-85109958D01*
X223264196Y-85109958D01*
G37*
G36*
X140501630Y-84887299D02*
X140661855Y-84935903D01*
X140809520Y-85014831D01*
X140938949Y-85121051D01*
X141045169Y-85250480D01*
X141124097Y-85398145D01*
X141172701Y-85558370D01*
X141189112Y-85725000D01*
X141172701Y-85891630D01*
X141124097Y-86051855D01*
X141045169Y-86199520D01*
X140938949Y-86328949D01*
X140809520Y-86435169D01*
X140661855Y-86514097D01*
X140501630Y-86562701D01*
X140376752Y-86575000D01*
X140293248Y-86575000D01*
X140168370Y-86562701D01*
X140008145Y-86514097D01*
X139860480Y-86435169D01*
X139731051Y-86328949D01*
X139624831Y-86199520D01*
X139545903Y-86051855D01*
X139497299Y-85891630D01*
X139480888Y-85725000D01*
X139497299Y-85558370D01*
X139545903Y-85398145D01*
X139624831Y-85250480D01*
X139731051Y-85121051D01*
X139860480Y-85014831D01*
X140008145Y-84935903D01*
X140168370Y-84887299D01*
X140293248Y-84875000D01*
X140376752Y-84875000D01*
X140501630Y-84887299D01*
X140501630Y-84887299D01*
G37*
G36*
X143041630Y-84887299D02*
X143201855Y-84935903D01*
X143349520Y-85014831D01*
X143478949Y-85121051D01*
X143585169Y-85250480D01*
X143664097Y-85398145D01*
X143712701Y-85558370D01*
X143729112Y-85725000D01*
X143712701Y-85891630D01*
X143664097Y-86051855D01*
X143585169Y-86199520D01*
X143478949Y-86328949D01*
X143349520Y-86435169D01*
X143201855Y-86514097D01*
X143041630Y-86562701D01*
X142916752Y-86575000D01*
X142833248Y-86575000D01*
X142708370Y-86562701D01*
X142548145Y-86514097D01*
X142400480Y-86435169D01*
X142271051Y-86328949D01*
X142164831Y-86199520D01*
X142085903Y-86051855D01*
X142037299Y-85891630D01*
X142020888Y-85725000D01*
X142037299Y-85558370D01*
X142085903Y-85398145D01*
X142164831Y-85250480D01*
X142271051Y-85121051D01*
X142400480Y-85014831D01*
X142548145Y-84935903D01*
X142708370Y-84887299D01*
X142833248Y-84875000D01*
X142916752Y-84875000D01*
X143041630Y-84887299D01*
X143041630Y-84887299D01*
G37*
G36*
X205135000Y-84485000D02*
X202535000Y-84485000D01*
X202535000Y-81885000D01*
X205135000Y-81885000D01*
X205135000Y-84485000D01*
X205135000Y-84485000D01*
G37*
G36*
X193705000Y-84485000D02*
X191105000Y-84485000D01*
X191105000Y-81885000D01*
X193705000Y-81885000D01*
X193705000Y-84485000D01*
X193705000Y-84485000D01*
G37*
G36*
X199420000Y-84485000D02*
X196820000Y-84485000D01*
X196820000Y-81885000D01*
X199420000Y-81885000D01*
X199420000Y-84485000D01*
X199420000Y-84485000D01*
G37*
G36*
X210850000Y-84485000D02*
X208250000Y-84485000D01*
X208250000Y-81885000D01*
X210850000Y-81885000D01*
X210850000Y-84485000D01*
X210850000Y-84485000D01*
G37*
G36*
X165276432Y-82298022D02*
X165446081Y-82349485D01*
X165602433Y-82433056D01*
X165739475Y-82545525D01*
X165851944Y-82682567D01*
X165935515Y-82838919D01*
X165986978Y-83008568D01*
X166004354Y-83185000D01*
X165986978Y-83361432D01*
X165935515Y-83531081D01*
X165851944Y-83687433D01*
X165739475Y-83824475D01*
X165602433Y-83936944D01*
X165446081Y-84020515D01*
X165276432Y-84071978D01*
X165144211Y-84085000D01*
X165055789Y-84085000D01*
X164923568Y-84071978D01*
X164753919Y-84020515D01*
X164597567Y-83936944D01*
X164460525Y-83824475D01*
X164348056Y-83687433D01*
X164264485Y-83531081D01*
X164213022Y-83361432D01*
X164195646Y-83185000D01*
X164213022Y-83008568D01*
X164264485Y-82838919D01*
X164348056Y-82682567D01*
X164460525Y-82545525D01*
X164597567Y-82433056D01*
X164753919Y-82349485D01*
X164923568Y-82298022D01*
X165055789Y-82285000D01*
X165144211Y-82285000D01*
X165276432Y-82298022D01*
X165276432Y-82298022D01*
G37*
G36*
X143041630Y-82347299D02*
X143201855Y-82395903D01*
X143349520Y-82474831D01*
X143478949Y-82581051D01*
X143585169Y-82710480D01*
X143664097Y-82858145D01*
X143712701Y-83018370D01*
X143729112Y-83185000D01*
X143712701Y-83351630D01*
X143664097Y-83511855D01*
X143585169Y-83659520D01*
X143478949Y-83788949D01*
X143349520Y-83895169D01*
X143201855Y-83974097D01*
X143041630Y-84022701D01*
X142916752Y-84035000D01*
X142833248Y-84035000D01*
X142708370Y-84022701D01*
X142548145Y-83974097D01*
X142400480Y-83895169D01*
X142271051Y-83788949D01*
X142164831Y-83659520D01*
X142085903Y-83511855D01*
X142037299Y-83351630D01*
X142020888Y-83185000D01*
X142037299Y-83018370D01*
X142085903Y-82858145D01*
X142164831Y-82710480D01*
X142271051Y-82581051D01*
X142400480Y-82474831D01*
X142548145Y-82395903D01*
X142708370Y-82347299D01*
X142833248Y-82335000D01*
X142916752Y-82335000D01*
X143041630Y-82347299D01*
X143041630Y-82347299D01*
G37*
G36*
X140501630Y-82347299D02*
X140661855Y-82395903D01*
X140809520Y-82474831D01*
X140938949Y-82581051D01*
X141045169Y-82710480D01*
X141124097Y-82858145D01*
X141172701Y-83018370D01*
X141189112Y-83185000D01*
X141172701Y-83351630D01*
X141124097Y-83511855D01*
X141045169Y-83659520D01*
X140938949Y-83788949D01*
X140809520Y-83895169D01*
X140661855Y-83974097D01*
X140501630Y-84022701D01*
X140376752Y-84035000D01*
X140293248Y-84035000D01*
X140168370Y-84022701D01*
X140008145Y-83974097D01*
X139860480Y-83895169D01*
X139731051Y-83788949D01*
X139624831Y-83659520D01*
X139545903Y-83511855D01*
X139497299Y-83351630D01*
X139480888Y-83185000D01*
X139497299Y-83018370D01*
X139545903Y-82858145D01*
X139624831Y-82710480D01*
X139731051Y-82581051D01*
X139860480Y-82474831D01*
X140008145Y-82395903D01*
X140168370Y-82347299D01*
X140293248Y-82335000D01*
X140376752Y-82335000D01*
X140501630Y-82347299D01*
X140501630Y-82347299D01*
G37*
G36*
X170356432Y-81028022D02*
X170526081Y-81079485D01*
X170682433Y-81163056D01*
X170819475Y-81275525D01*
X170931944Y-81412567D01*
X171015515Y-81568919D01*
X171066978Y-81738568D01*
X171084354Y-81915000D01*
X171066978Y-82091432D01*
X171015515Y-82261081D01*
X170931944Y-82417433D01*
X170819475Y-82554475D01*
X170682433Y-82666944D01*
X170526081Y-82750515D01*
X170356432Y-82801978D01*
X170224211Y-82815000D01*
X170135789Y-82815000D01*
X170003568Y-82801978D01*
X169833919Y-82750515D01*
X169677567Y-82666944D01*
X169540525Y-82554475D01*
X169428056Y-82417433D01*
X169344485Y-82261081D01*
X169293022Y-82091432D01*
X169275646Y-81915000D01*
X169293022Y-81738568D01*
X169344485Y-81568919D01*
X169428056Y-81412567D01*
X169540525Y-81275525D01*
X169677567Y-81163056D01*
X169833919Y-81079485D01*
X170003568Y-81028022D01*
X170135789Y-81015000D01*
X170224211Y-81015000D01*
X170356432Y-81028022D01*
X170356432Y-81028022D01*
G37*
G36*
X224185000Y-82580000D02*
X221585000Y-82580000D01*
X221585000Y-79980000D01*
X224185000Y-79980000D01*
X224185000Y-82580000D01*
X224185000Y-82580000D01*
G37*
G36*
X165276432Y-79758022D02*
X165446081Y-79809485D01*
X165602433Y-79893056D01*
X165739475Y-80005525D01*
X165851944Y-80142567D01*
X165935515Y-80298919D01*
X165986978Y-80468568D01*
X166004354Y-80645000D01*
X165986978Y-80821432D01*
X165935515Y-80991081D01*
X165851944Y-81147433D01*
X165739475Y-81284475D01*
X165602433Y-81396944D01*
X165446081Y-81480515D01*
X165276432Y-81531978D01*
X165144211Y-81545000D01*
X165055789Y-81545000D01*
X164923568Y-81531978D01*
X164753919Y-81480515D01*
X164597567Y-81396944D01*
X164460525Y-81284475D01*
X164348056Y-81147433D01*
X164264485Y-80991081D01*
X164213022Y-80821432D01*
X164195646Y-80645000D01*
X164213022Y-80468568D01*
X164264485Y-80298919D01*
X164348056Y-80142567D01*
X164460525Y-80005525D01*
X164597567Y-79893056D01*
X164753919Y-79809485D01*
X164923568Y-79758022D01*
X165055789Y-79745000D01*
X165144211Y-79745000D01*
X165276432Y-79758022D01*
X165276432Y-79758022D01*
G37*
G36*
X143041630Y-79807299D02*
X143201855Y-79855903D01*
X143349520Y-79934831D01*
X143478949Y-80041051D01*
X143585169Y-80170480D01*
X143664097Y-80318145D01*
X143712701Y-80478370D01*
X143729112Y-80645000D01*
X143712701Y-80811630D01*
X143664097Y-80971855D01*
X143585169Y-81119520D01*
X143478949Y-81248949D01*
X143349520Y-81355169D01*
X143201855Y-81434097D01*
X143041630Y-81482701D01*
X142916752Y-81495000D01*
X142833248Y-81495000D01*
X142708370Y-81482701D01*
X142548145Y-81434097D01*
X142400480Y-81355169D01*
X142271051Y-81248949D01*
X142164831Y-81119520D01*
X142085903Y-80971855D01*
X142037299Y-80811630D01*
X142020888Y-80645000D01*
X142037299Y-80478370D01*
X142085903Y-80318145D01*
X142164831Y-80170480D01*
X142271051Y-80041051D01*
X142400480Y-79934831D01*
X142548145Y-79855903D01*
X142708370Y-79807299D01*
X142833248Y-79795000D01*
X142916752Y-79795000D01*
X143041630Y-79807299D01*
X143041630Y-79807299D01*
G37*
G36*
X140501630Y-79807299D02*
X140661855Y-79855903D01*
X140809520Y-79934831D01*
X140938949Y-80041051D01*
X141045169Y-80170480D01*
X141124097Y-80318145D01*
X141172701Y-80478370D01*
X141189112Y-80645000D01*
X141172701Y-80811630D01*
X141124097Y-80971855D01*
X141045169Y-81119520D01*
X140938949Y-81248949D01*
X140809520Y-81355169D01*
X140661855Y-81434097D01*
X140501630Y-81482701D01*
X140376752Y-81495000D01*
X140293248Y-81495000D01*
X140168370Y-81482701D01*
X140008145Y-81434097D01*
X139860480Y-81355169D01*
X139731051Y-81248949D01*
X139624831Y-81119520D01*
X139545903Y-80971855D01*
X139497299Y-80811630D01*
X139480888Y-80645000D01*
X139497299Y-80478370D01*
X139545903Y-80318145D01*
X139624831Y-80170480D01*
X139731051Y-80041051D01*
X139860480Y-79934831D01*
X140008145Y-79855903D01*
X140168370Y-79807299D01*
X140293248Y-79795000D01*
X140376752Y-79795000D01*
X140501630Y-79807299D01*
X140501630Y-79807299D01*
G37*
G36*
X170356432Y-78488022D02*
X170526081Y-78539485D01*
X170682433Y-78623056D01*
X170819475Y-78735525D01*
X170931944Y-78872567D01*
X171015515Y-79028919D01*
X171066978Y-79198568D01*
X171084354Y-79375000D01*
X171066978Y-79551432D01*
X171015515Y-79721081D01*
X170931944Y-79877433D01*
X170819475Y-80014475D01*
X170682433Y-80126944D01*
X170526081Y-80210515D01*
X170356432Y-80261978D01*
X170224211Y-80275000D01*
X170135789Y-80275000D01*
X170003568Y-80261978D01*
X169833919Y-80210515D01*
X169677567Y-80126944D01*
X169540525Y-80014475D01*
X169428056Y-79877433D01*
X169344485Y-79721081D01*
X169293022Y-79551432D01*
X169275646Y-79375000D01*
X169293022Y-79198568D01*
X169344485Y-79028919D01*
X169428056Y-78872567D01*
X169540525Y-78735525D01*
X169677567Y-78623056D01*
X169833919Y-78539485D01*
X170003568Y-78488022D01*
X170135789Y-78475000D01*
X170224211Y-78475000D01*
X170356432Y-78488022D01*
X170356432Y-78488022D01*
G37*
G36*
X165276432Y-77218022D02*
X165446081Y-77269485D01*
X165602433Y-77353056D01*
X165739475Y-77465525D01*
X165851944Y-77602567D01*
X165935515Y-77758919D01*
X165986978Y-77928568D01*
X166004354Y-78105000D01*
X165986978Y-78281432D01*
X165935515Y-78451081D01*
X165851944Y-78607433D01*
X165739475Y-78744475D01*
X165602433Y-78856944D01*
X165446081Y-78940515D01*
X165276432Y-78991978D01*
X165144211Y-79005000D01*
X165055789Y-79005000D01*
X164923568Y-78991978D01*
X164753919Y-78940515D01*
X164597567Y-78856944D01*
X164460525Y-78744475D01*
X164348056Y-78607433D01*
X164264485Y-78451081D01*
X164213022Y-78281432D01*
X164195646Y-78105000D01*
X164213022Y-77928568D01*
X164264485Y-77758919D01*
X164348056Y-77602567D01*
X164460525Y-77465525D01*
X164597567Y-77353056D01*
X164753919Y-77269485D01*
X164923568Y-77218022D01*
X165055789Y-77205000D01*
X165144211Y-77205000D01*
X165276432Y-77218022D01*
X165276432Y-77218022D01*
G37*
G36*
X143041630Y-77267299D02*
X143201855Y-77315903D01*
X143349520Y-77394831D01*
X143478949Y-77501051D01*
X143585169Y-77630480D01*
X143664097Y-77778145D01*
X143712701Y-77938370D01*
X143729112Y-78105000D01*
X143712701Y-78271630D01*
X143664097Y-78431855D01*
X143585169Y-78579520D01*
X143478949Y-78708949D01*
X143349520Y-78815169D01*
X143201855Y-78894097D01*
X143041630Y-78942701D01*
X142916752Y-78955000D01*
X142833248Y-78955000D01*
X142708370Y-78942701D01*
X142548145Y-78894097D01*
X142400480Y-78815169D01*
X142271051Y-78708949D01*
X142164831Y-78579520D01*
X142085903Y-78431855D01*
X142037299Y-78271630D01*
X142020888Y-78105000D01*
X142037299Y-77938370D01*
X142085903Y-77778145D01*
X142164831Y-77630480D01*
X142271051Y-77501051D01*
X142400480Y-77394831D01*
X142548145Y-77315903D01*
X142708370Y-77267299D01*
X142833248Y-77255000D01*
X142916752Y-77255000D01*
X143041630Y-77267299D01*
X143041630Y-77267299D01*
G37*
G36*
X140501630Y-77267299D02*
X140661855Y-77315903D01*
X140809520Y-77394831D01*
X140938949Y-77501051D01*
X141045169Y-77630480D01*
X141124097Y-77778145D01*
X141172701Y-77938370D01*
X141189112Y-78105000D01*
X141172701Y-78271630D01*
X141124097Y-78431855D01*
X141045169Y-78579520D01*
X140938949Y-78708949D01*
X140809520Y-78815169D01*
X140661855Y-78894097D01*
X140501630Y-78942701D01*
X140376752Y-78955000D01*
X140293248Y-78955000D01*
X140168370Y-78942701D01*
X140008145Y-78894097D01*
X139860480Y-78815169D01*
X139731051Y-78708949D01*
X139624831Y-78579520D01*
X139545903Y-78431855D01*
X139497299Y-78271630D01*
X139480888Y-78105000D01*
X139497299Y-77938370D01*
X139545903Y-77778145D01*
X139624831Y-77630480D01*
X139731051Y-77501051D01*
X139860480Y-77394831D01*
X140008145Y-77315903D01*
X140168370Y-77267299D01*
X140293248Y-77255000D01*
X140376752Y-77255000D01*
X140501630Y-77267299D01*
X140501630Y-77267299D01*
G37*
G36*
X192659845Y-75553810D02*
X192904896Y-75628145D01*
X193130736Y-75748860D01*
X193328687Y-75911313D01*
X193491140Y-76109264D01*
X193611855Y-76335104D01*
X193686190Y-76580155D01*
X193711290Y-76835000D01*
X193686190Y-77089845D01*
X193611855Y-77334896D01*
X193491140Y-77560736D01*
X193328687Y-77758687D01*
X193130736Y-77921140D01*
X192904896Y-78041855D01*
X192659845Y-78116190D01*
X192468864Y-78135000D01*
X192341136Y-78135000D01*
X192150155Y-78116190D01*
X191905104Y-78041855D01*
X191679264Y-77921140D01*
X191481313Y-77758687D01*
X191318860Y-77560736D01*
X191198145Y-77334896D01*
X191123810Y-77089845D01*
X191098710Y-76835000D01*
X191123810Y-76580155D01*
X191198145Y-76335104D01*
X191318860Y-76109264D01*
X191481313Y-75911313D01*
X191679264Y-75748860D01*
X191905104Y-75628145D01*
X192150155Y-75553810D01*
X192341136Y-75535000D01*
X192468864Y-75535000D01*
X192659845Y-75553810D01*
X192659845Y-75553810D01*
G37*
G36*
X198374845Y-75553810D02*
X198619896Y-75628145D01*
X198845736Y-75748860D01*
X199043687Y-75911313D01*
X199206140Y-76109264D01*
X199326855Y-76335104D01*
X199401190Y-76580155D01*
X199426290Y-76835000D01*
X199401190Y-77089845D01*
X199326855Y-77334896D01*
X199206140Y-77560736D01*
X199043687Y-77758687D01*
X198845736Y-77921140D01*
X198619896Y-78041855D01*
X198374845Y-78116190D01*
X198183864Y-78135000D01*
X198056136Y-78135000D01*
X197865155Y-78116190D01*
X197620104Y-78041855D01*
X197394264Y-77921140D01*
X197196313Y-77758687D01*
X197033860Y-77560736D01*
X196913145Y-77334896D01*
X196838810Y-77089845D01*
X196813710Y-76835000D01*
X196838810Y-76580155D01*
X196913145Y-76335104D01*
X197033860Y-76109264D01*
X197196313Y-75911313D01*
X197394264Y-75748860D01*
X197620104Y-75628145D01*
X197865155Y-75553810D01*
X198056136Y-75535000D01*
X198183864Y-75535000D01*
X198374845Y-75553810D01*
X198374845Y-75553810D01*
G37*
G36*
X209804845Y-75553810D02*
X210049896Y-75628145D01*
X210275736Y-75748860D01*
X210473687Y-75911313D01*
X210636140Y-76109264D01*
X210756855Y-76335104D01*
X210831190Y-76580155D01*
X210856290Y-76835000D01*
X210831190Y-77089845D01*
X210756855Y-77334896D01*
X210636140Y-77560736D01*
X210473687Y-77758687D01*
X210275736Y-77921140D01*
X210049896Y-78041855D01*
X209804845Y-78116190D01*
X209613864Y-78135000D01*
X209486136Y-78135000D01*
X209295155Y-78116190D01*
X209050104Y-78041855D01*
X208824264Y-77921140D01*
X208626313Y-77758687D01*
X208463860Y-77560736D01*
X208343145Y-77334896D01*
X208268810Y-77089845D01*
X208243710Y-76835000D01*
X208268810Y-76580155D01*
X208343145Y-76335104D01*
X208463860Y-76109264D01*
X208626313Y-75911313D01*
X208824264Y-75748860D01*
X209050104Y-75628145D01*
X209295155Y-75553810D01*
X209486136Y-75535000D01*
X209613864Y-75535000D01*
X209804845Y-75553810D01*
X209804845Y-75553810D01*
G37*
G36*
X204089845Y-75553810D02*
X204334896Y-75628145D01*
X204560736Y-75748860D01*
X204758687Y-75911313D01*
X204921140Y-76109264D01*
X205041855Y-76335104D01*
X205116190Y-76580155D01*
X205141290Y-76835000D01*
X205116190Y-77089845D01*
X205041855Y-77334896D01*
X204921140Y-77560736D01*
X204758687Y-77758687D01*
X204560736Y-77921140D01*
X204334896Y-78041855D01*
X204089845Y-78116190D01*
X203898864Y-78135000D01*
X203771136Y-78135000D01*
X203580155Y-78116190D01*
X203335104Y-78041855D01*
X203109264Y-77921140D01*
X202911313Y-77758687D01*
X202748860Y-77560736D01*
X202628145Y-77334896D01*
X202553810Y-77089845D01*
X202528710Y-76835000D01*
X202553810Y-76580155D01*
X202628145Y-76335104D01*
X202748860Y-76109264D01*
X202911313Y-75911313D01*
X203109264Y-75748860D01*
X203335104Y-75628145D01*
X203580155Y-75553810D01*
X203771136Y-75535000D01*
X203898864Y-75535000D01*
X204089845Y-75553810D01*
X204089845Y-75553810D01*
G37*
G36*
X170356432Y-75948022D02*
X170526081Y-75999485D01*
X170682433Y-76083056D01*
X170819475Y-76195525D01*
X170931944Y-76332567D01*
X171015515Y-76488919D01*
X171066978Y-76658568D01*
X171084354Y-76835000D01*
X171066978Y-77011432D01*
X171015515Y-77181081D01*
X170931944Y-77337433D01*
X170819475Y-77474475D01*
X170682433Y-77586944D01*
X170526081Y-77670515D01*
X170356432Y-77721978D01*
X170224211Y-77735000D01*
X170135789Y-77735000D01*
X170003568Y-77721978D01*
X169833919Y-77670515D01*
X169677567Y-77586944D01*
X169540525Y-77474475D01*
X169428056Y-77337433D01*
X169344485Y-77181081D01*
X169293022Y-77011432D01*
X169275646Y-76835000D01*
X169293022Y-76658568D01*
X169344485Y-76488919D01*
X169428056Y-76332567D01*
X169540525Y-76195525D01*
X169677567Y-76083056D01*
X169833919Y-75999485D01*
X170003568Y-75948022D01*
X170135789Y-75935000D01*
X170224211Y-75935000D01*
X170356432Y-75948022D01*
X170356432Y-75948022D01*
G37*
G36*
X165276432Y-74678022D02*
X165446081Y-74729485D01*
X165602433Y-74813056D01*
X165739475Y-74925525D01*
X165851944Y-75062567D01*
X165935515Y-75218919D01*
X165986978Y-75388568D01*
X166004354Y-75565000D01*
X165986978Y-75741432D01*
X165935515Y-75911081D01*
X165851944Y-76067433D01*
X165739475Y-76204475D01*
X165602433Y-76316944D01*
X165446081Y-76400515D01*
X165276432Y-76451978D01*
X165144211Y-76465000D01*
X165055789Y-76465000D01*
X164923568Y-76451978D01*
X164753919Y-76400515D01*
X164597567Y-76316944D01*
X164460525Y-76204475D01*
X164348056Y-76067433D01*
X164264485Y-75911081D01*
X164213022Y-75741432D01*
X164195646Y-75565000D01*
X164213022Y-75388568D01*
X164264485Y-75218919D01*
X164348056Y-75062567D01*
X164460525Y-74925525D01*
X164597567Y-74813056D01*
X164753919Y-74729485D01*
X164923568Y-74678022D01*
X165055789Y-74665000D01*
X165144211Y-74665000D01*
X165276432Y-74678022D01*
X165276432Y-74678022D01*
G37*
G36*
X140501630Y-74727299D02*
X140661855Y-74775903D01*
X140809520Y-74854831D01*
X140938949Y-74961051D01*
X141045169Y-75090480D01*
X141124097Y-75238145D01*
X141172701Y-75398370D01*
X141189112Y-75565000D01*
X141172701Y-75731630D01*
X141124097Y-75891855D01*
X141045169Y-76039520D01*
X140938949Y-76168949D01*
X140809520Y-76275169D01*
X140661855Y-76354097D01*
X140501630Y-76402701D01*
X140376752Y-76415000D01*
X140293248Y-76415000D01*
X140168370Y-76402701D01*
X140008145Y-76354097D01*
X139860480Y-76275169D01*
X139731051Y-76168949D01*
X139624831Y-76039520D01*
X139545903Y-75891855D01*
X139497299Y-75731630D01*
X139480888Y-75565000D01*
X139497299Y-75398370D01*
X139545903Y-75238145D01*
X139624831Y-75090480D01*
X139731051Y-74961051D01*
X139860480Y-74854831D01*
X140008145Y-74775903D01*
X140168370Y-74727299D01*
X140293248Y-74715000D01*
X140376752Y-74715000D01*
X140501630Y-74727299D01*
X140501630Y-74727299D01*
G37*
G36*
X143041630Y-74727299D02*
X143201855Y-74775903D01*
X143349520Y-74854831D01*
X143478949Y-74961051D01*
X143585169Y-75090480D01*
X143664097Y-75238145D01*
X143712701Y-75398370D01*
X143729112Y-75565000D01*
X143712701Y-75731630D01*
X143664097Y-75891855D01*
X143585169Y-76039520D01*
X143478949Y-76168949D01*
X143349520Y-76275169D01*
X143201855Y-76354097D01*
X143041630Y-76402701D01*
X142916752Y-76415000D01*
X142833248Y-76415000D01*
X142708370Y-76402701D01*
X142548145Y-76354097D01*
X142400480Y-76275169D01*
X142271051Y-76168949D01*
X142164831Y-76039520D01*
X142085903Y-75891855D01*
X142037299Y-75731630D01*
X142020888Y-75565000D01*
X142037299Y-75398370D01*
X142085903Y-75238145D01*
X142164831Y-75090480D01*
X142271051Y-74961051D01*
X142400480Y-74854831D01*
X142548145Y-74775903D01*
X142708370Y-74727299D01*
X142833248Y-74715000D01*
X142916752Y-74715000D01*
X143041630Y-74727299D01*
X143041630Y-74727299D01*
G37*
G36*
X170356432Y-73408022D02*
X170526081Y-73459485D01*
X170682433Y-73543056D01*
X170819475Y-73655525D01*
X170931944Y-73792567D01*
X171015515Y-73948919D01*
X171066978Y-74118568D01*
X171084354Y-74295000D01*
X171066978Y-74471432D01*
X171015515Y-74641081D01*
X170931944Y-74797433D01*
X170819475Y-74934475D01*
X170682433Y-75046944D01*
X170526081Y-75130515D01*
X170356432Y-75181978D01*
X170224211Y-75195000D01*
X170135789Y-75195000D01*
X170003568Y-75181978D01*
X169833919Y-75130515D01*
X169677567Y-75046944D01*
X169540525Y-74934475D01*
X169428056Y-74797433D01*
X169344485Y-74641081D01*
X169293022Y-74471432D01*
X169275646Y-74295000D01*
X169293022Y-74118568D01*
X169344485Y-73948919D01*
X169428056Y-73792567D01*
X169540525Y-73655525D01*
X169677567Y-73543056D01*
X169833919Y-73459485D01*
X170003568Y-73408022D01*
X170135789Y-73395000D01*
X170224211Y-73395000D01*
X170356432Y-73408022D01*
X170356432Y-73408022D01*
G37*
G36*
X165276432Y-72138022D02*
X165446081Y-72189485D01*
X165602433Y-72273056D01*
X165739475Y-72385525D01*
X165851944Y-72522567D01*
X165935515Y-72678919D01*
X165986978Y-72848568D01*
X166004354Y-73025000D01*
X165986978Y-73201432D01*
X165935515Y-73371081D01*
X165851944Y-73527433D01*
X165739475Y-73664475D01*
X165602433Y-73776944D01*
X165446081Y-73860515D01*
X165276432Y-73911978D01*
X165144211Y-73925000D01*
X165055789Y-73925000D01*
X164923568Y-73911978D01*
X164753919Y-73860515D01*
X164597567Y-73776944D01*
X164460525Y-73664475D01*
X164348056Y-73527433D01*
X164264485Y-73371081D01*
X164213022Y-73201432D01*
X164195646Y-73025000D01*
X164213022Y-72848568D01*
X164264485Y-72678919D01*
X164348056Y-72522567D01*
X164460525Y-72385525D01*
X164597567Y-72273056D01*
X164753919Y-72189485D01*
X164923568Y-72138022D01*
X165055789Y-72125000D01*
X165144211Y-72125000D01*
X165276432Y-72138022D01*
X165276432Y-72138022D01*
G37*
G36*
X143041630Y-72187299D02*
X143201855Y-72235903D01*
X143349520Y-72314831D01*
X143478949Y-72421051D01*
X143585169Y-72550480D01*
X143664097Y-72698145D01*
X143712701Y-72858370D01*
X143729112Y-73025000D01*
X143712701Y-73191630D01*
X143664097Y-73351855D01*
X143585169Y-73499520D01*
X143478949Y-73628949D01*
X143349520Y-73735169D01*
X143201855Y-73814097D01*
X143041630Y-73862701D01*
X142916752Y-73875000D01*
X142833248Y-73875000D01*
X142708370Y-73862701D01*
X142548145Y-73814097D01*
X142400480Y-73735169D01*
X142271051Y-73628949D01*
X142164831Y-73499520D01*
X142085903Y-73351855D01*
X142037299Y-73191630D01*
X142020888Y-73025000D01*
X142037299Y-72858370D01*
X142085903Y-72698145D01*
X142164831Y-72550480D01*
X142271051Y-72421051D01*
X142400480Y-72314831D01*
X142548145Y-72235903D01*
X142708370Y-72187299D01*
X142833248Y-72175000D01*
X142916752Y-72175000D01*
X143041630Y-72187299D01*
X143041630Y-72187299D01*
G37*
G36*
X140501630Y-72187299D02*
X140661855Y-72235903D01*
X140809520Y-72314831D01*
X140938949Y-72421051D01*
X141045169Y-72550480D01*
X141124097Y-72698145D01*
X141172701Y-72858370D01*
X141189112Y-73025000D01*
X141172701Y-73191630D01*
X141124097Y-73351855D01*
X141045169Y-73499520D01*
X140938949Y-73628949D01*
X140809520Y-73735169D01*
X140661855Y-73814097D01*
X140501630Y-73862701D01*
X140376752Y-73875000D01*
X140293248Y-73875000D01*
X140168370Y-73862701D01*
X140008145Y-73814097D01*
X139860480Y-73735169D01*
X139731051Y-73628949D01*
X139624831Y-73499520D01*
X139545903Y-73351855D01*
X139497299Y-73191630D01*
X139480888Y-73025000D01*
X139497299Y-72858370D01*
X139545903Y-72698145D01*
X139624831Y-72550480D01*
X139731051Y-72421051D01*
X139860480Y-72314831D01*
X140008145Y-72235903D01*
X140168370Y-72187299D01*
X140293248Y-72175000D01*
X140376752Y-72175000D01*
X140501630Y-72187299D01*
X140501630Y-72187299D01*
G37*
G36*
X170356432Y-70868022D02*
X170526081Y-70919485D01*
X170682433Y-71003056D01*
X170819475Y-71115525D01*
X170931944Y-71252567D01*
X171015515Y-71408919D01*
X171066978Y-71578568D01*
X171084354Y-71755000D01*
X171066978Y-71931432D01*
X171015515Y-72101081D01*
X170931944Y-72257433D01*
X170819475Y-72394475D01*
X170682433Y-72506944D01*
X170526081Y-72590515D01*
X170356432Y-72641978D01*
X170224211Y-72655000D01*
X170135789Y-72655000D01*
X170003568Y-72641978D01*
X169833919Y-72590515D01*
X169677567Y-72506944D01*
X169540525Y-72394475D01*
X169428056Y-72257433D01*
X169344485Y-72101081D01*
X169293022Y-71931432D01*
X169275646Y-71755000D01*
X169293022Y-71578568D01*
X169344485Y-71408919D01*
X169428056Y-71252567D01*
X169540525Y-71115525D01*
X169677567Y-71003056D01*
X169833919Y-70919485D01*
X170003568Y-70868022D01*
X170135789Y-70855000D01*
X170224211Y-70855000D01*
X170356432Y-70868022D01*
X170356432Y-70868022D01*
G37*
G36*
X165276432Y-69598022D02*
X165446081Y-69649485D01*
X165602433Y-69733056D01*
X165739475Y-69845525D01*
X165851944Y-69982567D01*
X165935515Y-70138919D01*
X165986978Y-70308568D01*
X166004354Y-70485000D01*
X165986978Y-70661432D01*
X165935515Y-70831081D01*
X165851944Y-70987433D01*
X165739475Y-71124475D01*
X165602433Y-71236944D01*
X165446081Y-71320515D01*
X165276432Y-71371978D01*
X165144211Y-71385000D01*
X165055789Y-71385000D01*
X164923568Y-71371978D01*
X164753919Y-71320515D01*
X164597567Y-71236944D01*
X164460525Y-71124475D01*
X164348056Y-70987433D01*
X164264485Y-70831081D01*
X164213022Y-70661432D01*
X164195646Y-70485000D01*
X164213022Y-70308568D01*
X164264485Y-70138919D01*
X164348056Y-69982567D01*
X164460525Y-69845525D01*
X164597567Y-69733056D01*
X164753919Y-69649485D01*
X164923568Y-69598022D01*
X165055789Y-69585000D01*
X165144211Y-69585000D01*
X165276432Y-69598022D01*
X165276432Y-69598022D01*
G37*
G36*
X143041630Y-69647299D02*
X143201855Y-69695903D01*
X143349520Y-69774831D01*
X143478949Y-69881051D01*
X143585169Y-70010480D01*
X143664097Y-70158145D01*
X143712701Y-70318370D01*
X143729112Y-70485000D01*
X143712701Y-70651630D01*
X143664097Y-70811855D01*
X143585169Y-70959520D01*
X143478949Y-71088949D01*
X143349520Y-71195169D01*
X143201855Y-71274097D01*
X143041630Y-71322701D01*
X142916752Y-71335000D01*
X142833248Y-71335000D01*
X142708370Y-71322701D01*
X142548145Y-71274097D01*
X142400480Y-71195169D01*
X142271051Y-71088949D01*
X142164831Y-70959520D01*
X142085903Y-70811855D01*
X142037299Y-70651630D01*
X142020888Y-70485000D01*
X142037299Y-70318370D01*
X142085903Y-70158145D01*
X142164831Y-70010480D01*
X142271051Y-69881051D01*
X142400480Y-69774831D01*
X142548145Y-69695903D01*
X142708370Y-69647299D01*
X142833248Y-69635000D01*
X142916752Y-69635000D01*
X143041630Y-69647299D01*
X143041630Y-69647299D01*
G37*
G36*
X140501630Y-69647299D02*
X140661855Y-69695903D01*
X140809520Y-69774831D01*
X140938949Y-69881051D01*
X141045169Y-70010480D01*
X141124097Y-70158145D01*
X141172701Y-70318370D01*
X141189112Y-70485000D01*
X141172701Y-70651630D01*
X141124097Y-70811855D01*
X141045169Y-70959520D01*
X140938949Y-71088949D01*
X140809520Y-71195169D01*
X140661855Y-71274097D01*
X140501630Y-71322701D01*
X140376752Y-71335000D01*
X140293248Y-71335000D01*
X140168370Y-71322701D01*
X140008145Y-71274097D01*
X139860480Y-71195169D01*
X139731051Y-71088949D01*
X139624831Y-70959520D01*
X139545903Y-70811855D01*
X139497299Y-70651630D01*
X139480888Y-70485000D01*
X139497299Y-70318370D01*
X139545903Y-70158145D01*
X139624831Y-70010480D01*
X139731051Y-69881051D01*
X139860480Y-69774831D01*
X140008145Y-69695903D01*
X140168370Y-69647299D01*
X140293248Y-69635000D01*
X140376752Y-69635000D01*
X140501630Y-69647299D01*
X140501630Y-69647299D01*
G37*
G36*
X223264196Y-67964958D02*
X223500780Y-68062954D01*
X223713705Y-68205226D01*
X223894774Y-68386295D01*
X224037046Y-68599220D01*
X224135042Y-68835804D01*
X224185000Y-69086960D01*
X224185000Y-69343040D01*
X224135042Y-69594196D01*
X224037046Y-69830780D01*
X223894774Y-70043705D01*
X223713705Y-70224774D01*
X223500780Y-70367046D01*
X223264196Y-70465042D01*
X223013040Y-70515000D01*
X222756960Y-70515000D01*
X222505804Y-70465042D01*
X222269220Y-70367046D01*
X222056295Y-70224774D01*
X221875226Y-70043705D01*
X221732954Y-69830780D01*
X221634958Y-69594196D01*
X221585000Y-69343040D01*
X221585000Y-69086960D01*
X221634958Y-68835804D01*
X221732954Y-68599220D01*
X221875226Y-68386295D01*
X222056295Y-68205226D01*
X222269220Y-68062954D01*
X222505804Y-67964958D01*
X222756960Y-67915000D01*
X223013040Y-67915000D01*
X223264196Y-67964958D01*
X223264196Y-67964958D01*
G37*
G36*
X170356432Y-68328022D02*
X170526081Y-68379485D01*
X170682433Y-68463056D01*
X170819475Y-68575525D01*
X170931944Y-68712567D01*
X171015515Y-68868919D01*
X171066978Y-69038568D01*
X171084354Y-69215000D01*
X171066978Y-69391432D01*
X171015515Y-69561081D01*
X170931944Y-69717433D01*
X170819475Y-69854475D01*
X170682433Y-69966944D01*
X170526081Y-70050515D01*
X170356432Y-70101978D01*
X170224211Y-70115000D01*
X170135789Y-70115000D01*
X170003568Y-70101978D01*
X169833919Y-70050515D01*
X169677567Y-69966944D01*
X169540525Y-69854475D01*
X169428056Y-69717433D01*
X169344485Y-69561081D01*
X169293022Y-69391432D01*
X169275646Y-69215000D01*
X169293022Y-69038568D01*
X169344485Y-68868919D01*
X169428056Y-68712567D01*
X169540525Y-68575525D01*
X169677567Y-68463056D01*
X169833919Y-68379485D01*
X170003568Y-68328022D01*
X170135789Y-68315000D01*
X170224211Y-68315000D01*
X170356432Y-68328022D01*
X170356432Y-68328022D01*
G37*
G36*
X165276432Y-67058022D02*
X165446081Y-67109485D01*
X165602433Y-67193056D01*
X165739475Y-67305525D01*
X165851944Y-67442567D01*
X165935515Y-67598919D01*
X165986978Y-67768568D01*
X166004354Y-67945000D01*
X165986978Y-68121432D01*
X165935515Y-68291081D01*
X165851944Y-68447433D01*
X165739475Y-68584475D01*
X165602433Y-68696944D01*
X165446081Y-68780515D01*
X165276432Y-68831978D01*
X165144211Y-68845000D01*
X165055789Y-68845000D01*
X164923568Y-68831978D01*
X164753919Y-68780515D01*
X164597567Y-68696944D01*
X164460525Y-68584475D01*
X164348056Y-68447433D01*
X164264485Y-68291081D01*
X164213022Y-68121432D01*
X164195646Y-67945000D01*
X164213022Y-67768568D01*
X164264485Y-67598919D01*
X164348056Y-67442567D01*
X164460525Y-67305525D01*
X164597567Y-67193056D01*
X164753919Y-67109485D01*
X164923568Y-67058022D01*
X165055789Y-67045000D01*
X165144211Y-67045000D01*
X165276432Y-67058022D01*
X165276432Y-67058022D01*
G37*
G36*
X143041630Y-67107299D02*
X143201855Y-67155903D01*
X143349520Y-67234831D01*
X143478949Y-67341051D01*
X143585169Y-67470480D01*
X143664097Y-67618145D01*
X143712701Y-67778370D01*
X143729112Y-67945000D01*
X143712701Y-68111630D01*
X143664097Y-68271855D01*
X143585169Y-68419520D01*
X143478949Y-68548949D01*
X143349520Y-68655169D01*
X143201855Y-68734097D01*
X143041630Y-68782701D01*
X142916752Y-68795000D01*
X142833248Y-68795000D01*
X142708370Y-68782701D01*
X142548145Y-68734097D01*
X142400480Y-68655169D01*
X142271051Y-68548949D01*
X142164831Y-68419520D01*
X142085903Y-68271855D01*
X142037299Y-68111630D01*
X142020888Y-67945000D01*
X142037299Y-67778370D01*
X142085903Y-67618145D01*
X142164831Y-67470480D01*
X142271051Y-67341051D01*
X142400480Y-67234831D01*
X142548145Y-67155903D01*
X142708370Y-67107299D01*
X142833248Y-67095000D01*
X142916752Y-67095000D01*
X143041630Y-67107299D01*
X143041630Y-67107299D01*
G37*
G36*
X141185000Y-68795000D02*
X139485000Y-68795000D01*
X139485000Y-67095000D01*
X141185000Y-67095000D01*
X141185000Y-68795000D01*
X141185000Y-68795000D01*
G37*
G36*
X170356432Y-65788022D02*
X170526081Y-65839485D01*
X170682433Y-65923056D01*
X170819475Y-66035525D01*
X170931944Y-66172567D01*
X171015515Y-66328919D01*
X171066978Y-66498568D01*
X171084354Y-66675000D01*
X171066978Y-66851432D01*
X171015515Y-67021081D01*
X170931944Y-67177433D01*
X170819475Y-67314475D01*
X170682433Y-67426944D01*
X170526081Y-67510515D01*
X170356432Y-67561978D01*
X170224211Y-67575000D01*
X170135789Y-67575000D01*
X170003568Y-67561978D01*
X169833919Y-67510515D01*
X169677567Y-67426944D01*
X169540525Y-67314475D01*
X169428056Y-67177433D01*
X169344485Y-67021081D01*
X169293022Y-66851432D01*
X169275646Y-66675000D01*
X169293022Y-66498568D01*
X169344485Y-66328919D01*
X169428056Y-66172567D01*
X169540525Y-66035525D01*
X169677567Y-65923056D01*
X169833919Y-65839485D01*
X170003568Y-65788022D01*
X170135789Y-65775000D01*
X170224211Y-65775000D01*
X170356432Y-65788022D01*
X170356432Y-65788022D01*
G37*
G36*
X166000000Y-66305000D02*
X164200000Y-66305000D01*
X164200000Y-64505000D01*
X166000000Y-64505000D01*
X166000000Y-66305000D01*
X166000000Y-66305000D01*
G37*
G36*
X193705000Y-65435000D02*
X191105000Y-65435000D01*
X191105000Y-62835000D01*
X193705000Y-62835000D01*
X193705000Y-65435000D01*
X193705000Y-65435000D01*
G37*
G36*
X224185000Y-65435000D02*
X221585000Y-65435000D01*
X221585000Y-62835000D01*
X224185000Y-62835000D01*
X224185000Y-65435000D01*
X224185000Y-65435000D01*
G37*
G36*
X205135000Y-65435000D02*
X202535000Y-65435000D01*
X202535000Y-62835000D01*
X205135000Y-62835000D01*
X205135000Y-65435000D01*
X205135000Y-65435000D01*
G37*
G36*
X210850000Y-65435000D02*
X208250000Y-65435000D01*
X208250000Y-62835000D01*
X210850000Y-62835000D01*
X210850000Y-65435000D01*
X210850000Y-65435000D01*
G37*
G36*
X199420000Y-65435000D02*
X196820000Y-65435000D01*
X196820000Y-62835000D01*
X199420000Y-62835000D01*
X199420000Y-65435000D01*
X199420000Y-65435000D01*
G37*
G36*
X152494208Y-57858473D02*
X152635241Y-57872363D01*
X152861442Y-57940981D01*
X152861444Y-57940982D01*
X152861447Y-57940983D01*
X153069910Y-58052408D01*
X153252634Y-58202366D01*
X153402592Y-58385090D01*
X153514017Y-58593553D01*
X153514018Y-58593556D01*
X153514019Y-58593558D01*
X153582637Y-58819759D01*
X153605806Y-59055000D01*
X153582637Y-59290241D01*
X153514019Y-59516442D01*
X153514017Y-59516447D01*
X153402592Y-59724910D01*
X153252634Y-59907634D01*
X153069910Y-60057592D01*
X152861447Y-60169017D01*
X152861444Y-60169018D01*
X152861442Y-60169019D01*
X152635241Y-60237637D01*
X152494208Y-60251527D01*
X152458951Y-60255000D01*
X152341049Y-60255000D01*
X152305792Y-60251527D01*
X152164759Y-60237637D01*
X151938558Y-60169019D01*
X151938556Y-60169018D01*
X151938553Y-60169017D01*
X151730090Y-60057592D01*
X151547366Y-59907634D01*
X151397408Y-59724910D01*
X151285983Y-59516447D01*
X151285981Y-59516442D01*
X151217363Y-59290241D01*
X151194194Y-59055000D01*
X151217363Y-58819759D01*
X151285981Y-58593558D01*
X151285982Y-58593556D01*
X151285983Y-58593553D01*
X151397408Y-58385090D01*
X151547366Y-58202366D01*
X151730090Y-58052408D01*
X151938553Y-57940983D01*
X151938556Y-57940982D01*
X151938558Y-57940981D01*
X152164759Y-57872363D01*
X152305792Y-57858473D01*
X152341049Y-57855000D01*
X152458951Y-57855000D01*
X152494208Y-57858473D01*
X152494208Y-57858473D01*
G37*
G36*
X180690026Y-57901115D02*
X180908412Y-57991573D01*
X181104958Y-58122901D01*
X181272099Y-58290042D01*
X181403427Y-58486588D01*
X181493885Y-58704974D01*
X181540000Y-58936809D01*
X181540000Y-59173191D01*
X181493885Y-59405026D01*
X181403427Y-59623412D01*
X181272099Y-59819958D01*
X181104958Y-59987099D01*
X180908412Y-60118427D01*
X180690026Y-60208885D01*
X180458191Y-60255000D01*
X180221809Y-60255000D01*
X179989974Y-60208885D01*
X179771588Y-60118427D01*
X179575042Y-59987099D01*
X179407901Y-59819958D01*
X179276573Y-59623412D01*
X179186115Y-59405026D01*
X179140000Y-59173191D01*
X179140000Y-58936809D01*
X179186115Y-58704974D01*
X179276573Y-58486588D01*
X179407901Y-58290042D01*
X179575042Y-58122901D01*
X179771588Y-57991573D01*
X179989974Y-57901115D01*
X180221809Y-57855000D01*
X180458191Y-57855000D01*
X180690026Y-57901115D01*
X180690026Y-57901115D01*
G37*
G36*
X232920456Y-56737251D02*
X233238936Y-56869170D01*
X233525560Y-57060686D01*
X233769314Y-57304440D01*
X233960830Y-57591064D01*
X234092749Y-57909544D01*
X234160000Y-58247640D01*
X234160000Y-58592360D01*
X234092749Y-58930456D01*
X233960830Y-59248936D01*
X233769314Y-59535560D01*
X233525560Y-59779314D01*
X233238936Y-59970830D01*
X232920456Y-60102749D01*
X232582360Y-60170000D01*
X232237640Y-60170000D01*
X231899544Y-60102749D01*
X231581064Y-59970830D01*
X231294440Y-59779314D01*
X231050686Y-59535560D01*
X230859170Y-59248936D01*
X230727251Y-58930456D01*
X230660000Y-58592360D01*
X230660000Y-58247640D01*
X230727251Y-57909544D01*
X230859170Y-57591064D01*
X231050686Y-57304440D01*
X231294440Y-57060686D01*
X231581064Y-56869170D01*
X231899544Y-56737251D01*
X232237640Y-56670000D01*
X232582360Y-56670000D01*
X232920456Y-56737251D01*
X232920456Y-56737251D01*
G37*
G36*
X141480456Y-56737251D02*
X141798936Y-56869170D01*
X142085560Y-57060686D01*
X142329314Y-57304440D01*
X142520830Y-57591064D01*
X142652749Y-57909544D01*
X142720000Y-58247640D01*
X142720000Y-58592360D01*
X142652749Y-58930456D01*
X142520830Y-59248936D01*
X142329314Y-59535560D01*
X142085560Y-59779314D01*
X141798936Y-59970830D01*
X141480456Y-60102749D01*
X141142360Y-60170000D01*
X140797640Y-60170000D01*
X140459544Y-60102749D01*
X140141064Y-59970830D01*
X139854440Y-59779314D01*
X139610686Y-59535560D01*
X139419170Y-59248936D01*
X139287251Y-58930456D01*
X139220000Y-58592360D01*
X139220000Y-58247640D01*
X139287251Y-57909544D01*
X139419170Y-57591064D01*
X139610686Y-57304440D01*
X139854440Y-57060686D01*
X140141064Y-56869170D01*
X140459544Y-56737251D01*
X140797640Y-56670000D01*
X141142360Y-56670000D01*
X141480456Y-56737251D01*
X141480456Y-56737251D01*
G37*
M02*
