%TF.GenerationSoftware,KiCad,Pcbnew,(5.1.6)-1*%
%TF.CreationDate,2023-02-05T17:49:42+01:00*%
%TF.ProjectId,RobotHolo,526f626f-7448-46f6-9c6f-2e6b69636164,rev?*%
%TF.SameCoordinates,Original*%
%TF.FileFunction,Copper,L1,Top*%
%TF.FilePolarity,Positive*%
%FSLAX46Y46*%
G04 Gerber Fmt 4.6, Leading zero omitted, Abs format (unit mm)*
G04 Created by KiCad (PCBNEW (5.1.6)-1) date 2023-02-05 17:49:42*
%MOMM*%
%LPD*%
G01*
G04 APERTURE LIST*
%TA.AperFunction,ComponentPad*%
%ADD10O,1.700000X1.700000*%
%TD*%
%TA.AperFunction,ComponentPad*%
%ADD11R,1.700000X1.700000*%
%TD*%
%TA.AperFunction,ComponentPad*%
%ADD12R,1.350000X1.350000*%
%TD*%
%TA.AperFunction,ComponentPad*%
%ADD13O,1.350000X1.350000*%
%TD*%
%TA.AperFunction,ComponentPad*%
%ADD14C,2.000000*%
%TD*%
%TA.AperFunction,ComponentPad*%
%ADD15R,2.000000X2.000000*%
%TD*%
%TA.AperFunction,ComponentPad*%
%ADD16R,1.800000X1.800000*%
%TD*%
%TA.AperFunction,ComponentPad*%
%ADD17C,1.800000*%
%TD*%
%TA.AperFunction,ComponentPad*%
%ADD18R,2.600000X2.600000*%
%TD*%
%TA.AperFunction,ComponentPad*%
%ADD19C,2.600000*%
%TD*%
%TA.AperFunction,ComponentPad*%
%ADD20C,1.600000*%
%TD*%
%TA.AperFunction,ComponentPad*%
%ADD21O,1.600000X1.600000*%
%TD*%
%TA.AperFunction,ComponentPad*%
%ADD22R,1.600000X1.600000*%
%TD*%
%TA.AperFunction,ComponentPad*%
%ADD23O,1.700000X1.950000*%
%TD*%
%TA.AperFunction,ComponentPad*%
%ADD24R,1.905000X2.000000*%
%TD*%
%TA.AperFunction,ComponentPad*%
%ADD25O,1.905000X2.000000*%
%TD*%
%TA.AperFunction,ComponentPad*%
%ADD26O,1.200000X1.750000*%
%TD*%
%TA.AperFunction,ComponentPad*%
%ADD27O,1.750000X1.200000*%
%TD*%
%TA.AperFunction,ViaPad*%
%ADD28C,1.500000*%
%TD*%
%TA.AperFunction,Conductor*%
%ADD29C,1.000000*%
%TD*%
%TA.AperFunction,Conductor*%
%ADD30C,1.500000*%
%TD*%
%TA.AperFunction,Conductor*%
%ADD31C,0.600000*%
%TD*%
G04 APERTURE END LIST*
D10*
%TO.P,J10,40*%
%TO.N,VCapt3*%
X71040001Y-154860001D03*
%TO.P,J10,39*%
%TO.N,VCapt2*%
X68500001Y-154860001D03*
%TO.P,J10,38*%
%TO.N,M1_B*%
X71040001Y-152320001D03*
%TO.P,J10,37*%
%TO.N,VCapt1*%
X68500001Y-152320001D03*
%TO.P,J10,36*%
%TO.N,M1_A*%
X71040001Y-149780001D03*
%TO.P,J10,35*%
%TO.N,Net-(J10-Pad35)*%
X68500001Y-149780001D03*
%TO.P,J10,34*%
%TO.N,Net-(J10-Pad34)*%
X71040001Y-147240001D03*
%TO.P,J10,33*%
%TO.N,Net-(J10-Pad33)*%
X68500001Y-147240001D03*
%TO.P,J10,32*%
%TO.N,RX_4*%
X71040001Y-144700001D03*
%TO.P,J10,31*%
%TO.N,Net-(J10-Pad31)*%
X68500001Y-144700001D03*
%TO.P,J10,30*%
%TO.N,TX_4*%
X71040001Y-142160001D03*
%TO.P,J10,29*%
%TO.N,Net-(J10-Pad29)*%
X68500001Y-142160001D03*
%TO.P,J10,28*%
%TO.N,Net-(J10-Pad28)*%
X71040001Y-139620001D03*
%TO.P,J10,27*%
%TO.N,Net-(J10-Pad27)*%
X68500001Y-139620001D03*
%TO.P,J10,26*%
%TO.N,NUC_VIN*%
X71040001Y-137080001D03*
%TO.P,J10,25*%
%TO.N,Net-(J10-Pad25)*%
X68500001Y-137080001D03*
%TO.P,J10,24*%
%TO.N,GND*%
X71040001Y-134540001D03*
%TO.P,J10,23*%
%TO.N,Net-(J10-Pad23)*%
X68500001Y-134540001D03*
%TO.P,J10,22*%
%TO.N,GND*%
X71040001Y-132000001D03*
%TO.P,J10,21*%
X68500001Y-132000001D03*
%TO.P,J10,20*%
%TO.N,5V_NUC*%
X71040001Y-129460001D03*
%TO.P,J10,19*%
%TO.N,Mot1_D2*%
X68500001Y-129460001D03*
%TO.P,J10,18*%
%TO.N,3.3V*%
X71040001Y-126920001D03*
%TO.P,J10,17*%
%TO.N,Net-(J10-Pad17)*%
X68500001Y-126920001D03*
%TO.P,J10,16*%
%TO.N,Net-(J10-Pad16)*%
X71040001Y-124380001D03*
%TO.P,J10,15*%
%TO.N,Net-(J10-Pad15)*%
X68500001Y-124380001D03*
%TO.P,J10,14*%
%TO.N,Net-(J10-Pad14)*%
X71040001Y-121840001D03*
%TO.P,J10,13*%
%TO.N,Net-(J10-Pad13)*%
X68500001Y-121840001D03*
%TO.P,J10,12*%
%TO.N,Net-(J10-Pad12)*%
X71040001Y-119300001D03*
%TO.P,J10,11*%
%TO.N,Net-(J10-Pad11)*%
X68500001Y-119300001D03*
%TO.P,J10,10*%
%TO.N,Net-(J10-Pad10)*%
X71040001Y-116760001D03*
%TO.P,J10,9*%
%TO.N,Net-(J10-Pad9)*%
X68500001Y-116760001D03*
%TO.P,J10,8*%
%TO.N,Net-(J10-Pad8)*%
X71040001Y-114220001D03*
%TO.P,J10,7*%
%TO.N,Net-(J10-Pad7)*%
X68500001Y-114220001D03*
%TO.P,J10,6*%
%TO.N,RESET_N*%
X71040001Y-111680001D03*
%TO.P,J10,5*%
%TO.N,Net-(J10-Pad5)*%
X68500001Y-111680001D03*
%TO.P,J10,4*%
%TO.N,RX*%
X71040001Y-109140001D03*
%TO.P,J10,3*%
%TO.N,TX*%
X68500001Y-109140001D03*
%TO.P,J10,2*%
%TO.N,Net-(J10-Pad2)*%
X71040001Y-106600001D03*
D11*
%TO.P,J10,1*%
%TO.N,Net-(J10-Pad1)*%
X68500001Y-106600001D03*
%TD*%
%TO.P,J14,1*%
%TO.N,Net-(J14-Pad1)*%
X129540000Y-106600001D03*
D10*
%TO.P,J14,2*%
%TO.N,Net-(J14-Pad2)*%
X132080000Y-106600001D03*
%TO.P,J14,3*%
%TO.N,Mot3_D1*%
X129540000Y-109140001D03*
%TO.P,J14,4*%
%TO.N,Net-(J14-Pad4)*%
X132080000Y-109140001D03*
%TO.P,J14,5*%
%TO.N,Mot3_D2*%
X129540000Y-111680001D03*
%TO.P,J14,6*%
%TO.N,Net-(J14-Pad6)*%
X132080000Y-111680001D03*
%TO.P,J14,7*%
%TO.N,Lidar_MOT*%
X129540000Y-114220001D03*
%TO.P,J14,8*%
%TO.N,Net-(J14-Pad8)*%
X132080000Y-114220001D03*
%TO.P,J14,9*%
%TO.N,Net-(J14-Pad9)*%
X129540000Y-116760001D03*
%TO.P,J14,10*%
%TO.N,Net-(J14-Pad10)*%
X132080000Y-116760001D03*
%TO.P,J14,11*%
%TO.N,Net-(J14-Pad11)*%
X129540000Y-119300001D03*
%TO.P,J14,12*%
%TO.N,Net-(J14-Pad12)*%
X132080000Y-119300001D03*
%TO.P,J14,13*%
%TO.N,nRF_SCK*%
X129540000Y-121840001D03*
%TO.P,J14,14*%
%TO.N,nRF_CSN*%
X132080000Y-121840001D03*
%TO.P,J14,15*%
%TO.N,nRF_MISO*%
X129540000Y-124380001D03*
%TO.P,J14,16*%
%TO.N,nRF_CE*%
X132080000Y-124380001D03*
%TO.P,J14,17*%
%TO.N,nRF_MOSI*%
X129540000Y-126920001D03*
%TO.P,J14,18*%
%TO.N,nRF_IRQ*%
X132080000Y-126920001D03*
%TO.P,J14,19*%
%TO.N,Net-(J14-Pad19)*%
X129540000Y-129460001D03*
%TO.P,J14,20*%
%TO.N,Net-(J14-Pad20)*%
X132080000Y-129460001D03*
%TO.P,J14,21*%
%TO.N,Net-(J14-Pad21)*%
X129540000Y-132000001D03*
%TO.P,J14,22*%
%TO.N,GND*%
X132080000Y-132000001D03*
%TO.P,J14,23*%
%TO.N,Net-(J14-Pad23)*%
X129540000Y-134540001D03*
%TO.P,J14,24*%
%TO.N,M2_A*%
X132080000Y-134540001D03*
%TO.P,J14,25*%
%TO.N,Net-(J14-Pad25)*%
X129540000Y-137080001D03*
%TO.P,J14,26*%
%TO.N,M2_B*%
X132080000Y-137080001D03*
%TO.P,J14,27*%
%TO.N,M3_B*%
X129540000Y-139620001D03*
%TO.P,J14,28*%
%TO.N,Net-(J14-Pad28)*%
X132080000Y-139620001D03*
%TO.P,J14,29*%
%TO.N,M3_A*%
X129540000Y-142160001D03*
%TO.P,J14,30*%
%TO.N,Mot2_D1*%
X132080000Y-142160001D03*
%TO.P,J14,31*%
%TO.N,GPIO2_STATUS*%
X129540000Y-144700001D03*
%TO.P,J14,32*%
%TO.N,Mot2_D2*%
X132080000Y-144700001D03*
%TO.P,J14,33*%
%TO.N,EnaPower*%
X129540000Y-147240001D03*
%TO.P,J14,34*%
%TO.N,Net-(J14-Pad34)*%
X132080000Y-147240001D03*
%TO.P,J14,35*%
%TO.N,Mot1_D1*%
X129540000Y-149780001D03*
%TO.P,J14,36*%
%TO.N,Net-(J14-Pad36)*%
X132080000Y-149780001D03*
%TO.P,J14,37*%
%TO.N,Net-(J14-Pad37)*%
X129540000Y-152320001D03*
%TO.P,J14,38*%
%TO.N,Net-(J14-Pad38)*%
X132080000Y-152320001D03*
%TO.P,J14,39*%
%TO.N,Net-(J14-Pad39)*%
X129540000Y-154860001D03*
%TO.P,J14,40*%
%TO.N,Net-(J14-Pad40)*%
X132080000Y-154860001D03*
%TD*%
D12*
%TO.P,J9,1*%
%TO.N,3.3V*%
X71755000Y-73660000D03*
D13*
%TO.P,J9,2*%
%TO.N,RX*%
X73755000Y-73660000D03*
%TO.P,J9,3*%
%TO.N,TX*%
X75755000Y-73660000D03*
%TO.P,J9,4*%
%TO.N,Net-(J9-Pad4)*%
X77755000Y-73660000D03*
%TO.P,J9,5*%
%TO.N,RESET_N*%
X79755000Y-73660000D03*
%TO.P,J9,6*%
%TO.N,Net-(J9-Pad6)*%
X81755000Y-73660000D03*
%TO.P,J9,7*%
%TO.N,Net-(J9-Pad7)*%
X83755000Y-73660000D03*
%TO.P,J9,8*%
%TO.N,Net-(J9-Pad8)*%
X85755000Y-73660000D03*
%TO.P,J9,9*%
%TO.N,Net-(J9-Pad9)*%
X87755000Y-73660000D03*
%TO.P,J9,10*%
%TO.N,GND*%
X89755000Y-73660000D03*
%TD*%
%TO.P,J11,10*%
%TO.N,Net-(J11-Pad10)*%
X89755000Y-51435000D03*
%TO.P,J11,9*%
%TO.N,Net-(J11-Pad9)*%
X87755000Y-51435000D03*
%TO.P,J11,8*%
%TO.N,GPIO2_STATUS*%
X85755000Y-51435000D03*
%TO.P,J11,7*%
%TO.N,Net-(J11-Pad7)*%
X83755000Y-51435000D03*
%TO.P,J11,6*%
%TO.N,Net-(J11-Pad6)*%
X81755000Y-51435000D03*
%TO.P,J11,5*%
%TO.N,Net-(J11-Pad5)*%
X79755000Y-51435000D03*
%TO.P,J11,4*%
%TO.N,Net-(J11-Pad4)*%
X77755000Y-51435000D03*
%TO.P,J11,3*%
%TO.N,Net-(J11-Pad3)*%
X75755000Y-51435000D03*
%TO.P,J11,2*%
%TO.N,Net-(J11-Pad2)*%
X73755000Y-51435000D03*
D12*
%TO.P,J11,1*%
%TO.N,Net-(J11-Pad1)*%
X71755000Y-51435000D03*
%TD*%
D14*
%TO.P,C1,2*%
%TO.N,GND*%
X135970000Y-74930000D03*
D15*
%TO.P,C1,1*%
%TO.N,VIN*%
X140970000Y-74930000D03*
%TD*%
%TO.P,C4,1*%
%TO.N,5V_REG*%
X121920000Y-59055000D03*
D14*
%TO.P,C4,2*%
%TO.N,GND*%
X126920000Y-59055000D03*
%TD*%
D16*
%TO.P,D1,1*%
%TO.N,Net-(D1-Pad1)*%
X48260000Y-96520000D03*
D17*
%TO.P,D1,2*%
%TO.N,3.3V*%
X48260000Y-99060000D03*
%TD*%
D11*
%TO.P,J4,1*%
%TO.N,GND*%
X59690000Y-81280000D03*
D10*
%TO.P,J4,2*%
%TO.N,Net-(J4-Pad2)*%
X59690000Y-83820000D03*
%TO.P,J4,3*%
%TO.N,Net-(J4-Pad3)*%
X59690000Y-86360000D03*
%TO.P,J4,4*%
%TO.N,Net-(J4-Pad4)*%
X59690000Y-88900000D03*
%TO.P,J4,5*%
%TO.N,Net-(J4-Pad5)*%
X59690000Y-91440000D03*
%TO.P,J4,6*%
%TO.N,Net-(J4-Pad6)*%
X59690000Y-93980000D03*
%TO.P,J4,7*%
%TO.N,RX*%
X59690000Y-96520000D03*
%TO.P,J4,8*%
%TO.N,TX*%
X59690000Y-99060000D03*
%TO.P,J4,9*%
%TO.N,Net-(J4-Pad9)*%
X59690000Y-101600000D03*
%TO.P,J4,10*%
%TO.N,3.3V*%
X59690000Y-104140000D03*
%TO.P,J4,11*%
%TO.N,GND*%
X59690000Y-106680000D03*
%TO.P,J4,12*%
%TO.N,Net-(J4-Pad12)*%
X59690000Y-109220000D03*
%TD*%
D18*
%TO.P,J5,1*%
%TO.N,M1_1*%
X38100000Y-146685000D03*
D19*
%TO.P,J5,2*%
%TO.N,M1_2*%
X38100000Y-151765000D03*
%TD*%
D18*
%TO.P,J6,1*%
%TO.N,M3_2*%
X79375000Y-37465000D03*
D19*
%TO.P,J6,2*%
%TO.N,M3_1*%
X79375000Y-42545000D03*
%TD*%
D10*
%TO.P,J7,3*%
%TO.N,5V_REG*%
X140335000Y-104775000D03*
%TO.P,J7,2*%
%TO.N,5V*%
X140335000Y-107315000D03*
D11*
%TO.P,J7,1*%
%TO.N,5V_NUC*%
X140335000Y-109855000D03*
%TD*%
D19*
%TO.P,J8,2*%
%TO.N,M2_1*%
X165735000Y-137795000D03*
D18*
%TO.P,J8,1*%
%TO.N,M2_2*%
X170815000Y-137795000D03*
%TD*%
D19*
%TO.P,J12,2*%
%TO.N,VIN*%
X152400000Y-105410000D03*
D18*
%TO.P,J12,1*%
%TO.N,GND*%
X152400000Y-110490000D03*
%TD*%
D11*
%TO.P,J18,1*%
%TO.N,GND*%
X154940000Y-116840000D03*
D10*
%TO.P,J18,2*%
X152400000Y-116840000D03*
%TO.P,J18,3*%
X149860000Y-116840000D03*
%TD*%
D12*
%TO.P,J19,1*%
%TO.N,VIN*%
X152495000Y-93980000D03*
D13*
%TO.P,J19,2*%
%TO.N,NUC_VIN*%
X150495000Y-93980000D03*
%TD*%
D11*
%TO.P,J20,1*%
%TO.N,5V_REG*%
X137160000Y-90170000D03*
D10*
%TO.P,J20,2*%
X137160000Y-87630000D03*
%TO.P,J20,3*%
X137160000Y-85090000D03*
%TD*%
%TO.P,J21,3*%
%TO.N,3.3V*%
X46990000Y-106045000D03*
%TO.P,J21,2*%
X46990000Y-108585000D03*
D11*
%TO.P,J21,1*%
X46990000Y-111125000D03*
%TD*%
D20*
%TO.P,R1,1*%
%TO.N,Net-(J4-Pad3)*%
X55245000Y-86360000D03*
D21*
%TO.P,R1,2*%
%TO.N,Net-(D1-Pad1)*%
X55245000Y-96520000D03*
%TD*%
%TO.P,R2,2*%
%TO.N,GND*%
X70485000Y-81280000D03*
D20*
%TO.P,R2,1*%
%TO.N,Net-(J4-Pad4)*%
X70485000Y-91440000D03*
%TD*%
D22*
%TO.P,U2,1*%
%TO.N,EnaPower*%
X40005000Y-137160000D03*
D21*
%TO.P,U2,9*%
%TO.N,Net-(U2-Pad9)*%
X32385000Y-119380000D03*
%TO.P,U2,2*%
%TO.N,Mot1_D1*%
X40005000Y-134620000D03*
%TO.P,U2,10*%
%TO.N,Net-(U2-Pad10)*%
X32385000Y-121920000D03*
%TO.P,U2,3*%
%TO.N,M1_1*%
X40005000Y-132080000D03*
%TO.P,U2,11*%
%TO.N,Net-(U2-Pad11)*%
X32385000Y-124460000D03*
%TO.P,U2,4*%
%TO.N,GND*%
X40005000Y-129540000D03*
%TO.P,U2,12*%
X32385000Y-127000000D03*
%TO.P,U2,5*%
X40005000Y-127000000D03*
%TO.P,U2,13*%
X32385000Y-129540000D03*
%TO.P,U2,6*%
%TO.N,M1_2*%
X40005000Y-124460000D03*
%TO.P,U2,14*%
%TO.N,Net-(U2-Pad14)*%
X32385000Y-132080000D03*
%TO.P,U2,7*%
%TO.N,Mot1_D2*%
X40005000Y-121920000D03*
%TO.P,U2,15*%
%TO.N,Net-(U2-Pad15)*%
X32385000Y-134620000D03*
%TO.P,U2,8*%
%TO.N,VIN*%
X40005000Y-119380000D03*
%TO.P,U2,16*%
%TO.N,5V*%
X32385000Y-137160000D03*
%TD*%
D22*
%TO.P,U3,1*%
%TO.N,Net-(U3-Pad1)*%
X148590000Y-143510000D03*
D21*
%TO.P,U3,9*%
%TO.N,EnaPower*%
X156210000Y-161290000D03*
%TO.P,U3,2*%
%TO.N,Net-(U3-Pad2)*%
X148590000Y-146050000D03*
%TO.P,U3,10*%
%TO.N,Mot2_D2*%
X156210000Y-158750000D03*
%TO.P,U3,3*%
%TO.N,Net-(U3-Pad3)*%
X148590000Y-148590000D03*
%TO.P,U3,11*%
%TO.N,M2_2*%
X156210000Y-156210000D03*
%TO.P,U3,4*%
%TO.N,GND*%
X148590000Y-151130000D03*
%TO.P,U3,12*%
X156210000Y-153670000D03*
%TO.P,U3,5*%
X148590000Y-153670000D03*
%TO.P,U3,13*%
X156210000Y-151130000D03*
%TO.P,U3,6*%
%TO.N,Net-(U3-Pad6)*%
X148590000Y-156210000D03*
%TO.P,U3,14*%
%TO.N,M2_1*%
X156210000Y-148590000D03*
%TO.P,U3,7*%
%TO.N,Net-(U3-Pad7)*%
X148590000Y-158750000D03*
%TO.P,U3,15*%
%TO.N,Mot2_D1*%
X156210000Y-146050000D03*
%TO.P,U3,8*%
%TO.N,VIN*%
X148590000Y-161290000D03*
%TO.P,U3,16*%
%TO.N,5V*%
X156210000Y-143510000D03*
%TD*%
%TO.P,U4,16*%
%TO.N,5V*%
X112395000Y-32385000D03*
%TO.P,U4,8*%
%TO.N,VIN*%
X104775000Y-50165000D03*
%TO.P,U4,15*%
%TO.N,Net-(U4-Pad15)*%
X112395000Y-34925000D03*
%TO.P,U4,7*%
%TO.N,Mot3_D2*%
X104775000Y-47625000D03*
%TO.P,U4,14*%
%TO.N,Net-(U4-Pad14)*%
X112395000Y-37465000D03*
%TO.P,U4,6*%
%TO.N,M3_1*%
X104775000Y-45085000D03*
%TO.P,U4,13*%
%TO.N,GND*%
X112395000Y-40005000D03*
%TO.P,U4,5*%
X104775000Y-42545000D03*
%TO.P,U4,12*%
X112395000Y-42545000D03*
%TO.P,U4,4*%
X104775000Y-40005000D03*
%TO.P,U4,11*%
%TO.N,Net-(U4-Pad11)*%
X112395000Y-45085000D03*
%TO.P,U4,3*%
%TO.N,M3_2*%
X104775000Y-37465000D03*
%TO.P,U4,10*%
%TO.N,Net-(U4-Pad10)*%
X112395000Y-47625000D03*
%TO.P,U4,2*%
%TO.N,Mot3_D1*%
X104775000Y-34925000D03*
%TO.P,U4,9*%
%TO.N,Net-(U4-Pad9)*%
X112395000Y-50165000D03*
D22*
%TO.P,U4,1*%
%TO.N,EnaPower*%
X104775000Y-32385000D03*
%TD*%
%TO.P,J1,1*%
%TO.N,VCapt1*%
%TA.AperFunction,ComponentPad*%
G36*
G01*
X60500000Y-121830000D02*
X60500000Y-123280000D01*
G75*
G02*
X60250000Y-123530000I-250000J0D01*
G01*
X59050000Y-123530000D01*
G75*
G02*
X58800000Y-123280000I0J250000D01*
G01*
X58800000Y-121830000D01*
G75*
G02*
X59050000Y-121580000I250000J0D01*
G01*
X60250000Y-121580000D01*
G75*
G02*
X60500000Y-121830000I0J-250000D01*
G01*
G37*
%TD.AperFunction*%
D23*
%TO.P,J1,2*%
%TO.N,GND*%
X57150000Y-122555000D03*
%TO.P,J1,3*%
%TO.N,5V*%
X54650000Y-122555000D03*
%TD*%
%TO.P,J2,1*%
%TO.N,VCapt2*%
%TA.AperFunction,ComponentPad*%
G36*
G01*
X60500000Y-131355000D02*
X60500000Y-132805000D01*
G75*
G02*
X60250000Y-133055000I-250000J0D01*
G01*
X59050000Y-133055000D01*
G75*
G02*
X58800000Y-132805000I0J250000D01*
G01*
X58800000Y-131355000D01*
G75*
G02*
X59050000Y-131105000I250000J0D01*
G01*
X60250000Y-131105000D01*
G75*
G02*
X60500000Y-131355000I0J-250000D01*
G01*
G37*
%TD.AperFunction*%
%TO.P,J2,2*%
%TO.N,GND*%
X57150000Y-132080000D03*
%TO.P,J2,3*%
%TO.N,5V*%
X54650000Y-132080000D03*
%TD*%
%TO.P,J3,3*%
%TO.N,5V*%
X54690000Y-141605000D03*
%TO.P,J3,2*%
%TO.N,GND*%
X57190000Y-141605000D03*
%TO.P,J3,1*%
%TO.N,VCapt3*%
%TA.AperFunction,ComponentPad*%
G36*
G01*
X60540000Y-140880000D02*
X60540000Y-142330000D01*
G75*
G02*
X60290000Y-142580000I-250000J0D01*
G01*
X59090000Y-142580000D01*
G75*
G02*
X58840000Y-142330000I0J250000D01*
G01*
X58840000Y-140880000D01*
G75*
G02*
X59090000Y-140630000I250000J0D01*
G01*
X60290000Y-140630000D01*
G75*
G02*
X60540000Y-140880000I0J-250000D01*
G01*
G37*
%TD.AperFunction*%
%TD*%
%TO.P,J17,1*%
%TO.N,5V*%
%TA.AperFunction,ComponentPad*%
G36*
G01*
X94480000Y-162650000D02*
X94480000Y-161200000D01*
G75*
G02*
X94730000Y-160950000I250000J0D01*
G01*
X95930000Y-160950000D01*
G75*
G02*
X96180000Y-161200000I0J-250000D01*
G01*
X96180000Y-162650000D01*
G75*
G02*
X95930000Y-162900000I-250000J0D01*
G01*
X94730000Y-162900000D01*
G75*
G02*
X94480000Y-162650000I0J250000D01*
G01*
G37*
%TD.AperFunction*%
%TO.P,J17,2*%
%TO.N,RX_4*%
X97830000Y-161925000D03*
%TO.P,J17,3*%
%TO.N,TX_4*%
X100330000Y-161925000D03*
%TO.P,J17,4*%
%TO.N,GND*%
X102830000Y-161925000D03*
%TO.P,J17,5*%
%TO.N,Lidar_MOT*%
X105330000Y-161925000D03*
%TD*%
D20*
%TO.P,R3,1*%
%TO.N,GND*%
X84455000Y-55880000D03*
D21*
%TO.P,R3,2*%
%TO.N,Net-(J11-Pad5)*%
X74295000Y-55880000D03*
%TD*%
D11*
%TO.P,J13,1*%
%TO.N,M1_2*%
X43815000Y-158750000D03*
D10*
%TO.P,J13,2*%
%TO.N,M1_1*%
X46355000Y-158750000D03*
%TO.P,J13,3*%
%TO.N,GND*%
X48895000Y-158750000D03*
%TO.P,J13,4*%
%TO.N,3.3V*%
X51435000Y-158750000D03*
%TO.P,J13,5*%
%TO.N,M1_A*%
X53975000Y-158750000D03*
%TO.P,J13,6*%
%TO.N,M1_B*%
X56515000Y-158750000D03*
%TD*%
%TO.P,J15,6*%
%TO.N,M3_B*%
X99060000Y-27305000D03*
%TO.P,J15,5*%
%TO.N,M3_A*%
X96520000Y-27305000D03*
%TO.P,J15,4*%
%TO.N,3.3V*%
X93980000Y-27305000D03*
%TO.P,J15,3*%
%TO.N,GND*%
X91440000Y-27305000D03*
%TO.P,J15,2*%
%TO.N,M3_1*%
X88900000Y-27305000D03*
D11*
%TO.P,J15,1*%
%TO.N,M3_2*%
X86360000Y-27305000D03*
%TD*%
%TO.P,J16,1*%
%TO.N,M2_2*%
X151765000Y-121920000D03*
D10*
%TO.P,J16,2*%
%TO.N,M2_1*%
X151765000Y-124460000D03*
%TO.P,J16,3*%
%TO.N,GND*%
X151765000Y-127000000D03*
%TO.P,J16,4*%
%TO.N,3.3V*%
X151765000Y-129540000D03*
%TO.P,J16,5*%
%TO.N,M2_A*%
X151765000Y-132080000D03*
%TO.P,J16,6*%
%TO.N,M2_B*%
X151765000Y-134620000D03*
%TD*%
D20*
%TO.P,R4,1*%
%TO.N,M1_A*%
X75565000Y-152400000D03*
D21*
%TO.P,R4,2*%
%TO.N,3.3V*%
X85725000Y-152400000D03*
%TD*%
%TO.P,R5,2*%
%TO.N,3.3V*%
X85725000Y-156210000D03*
D20*
%TO.P,R5,1*%
%TO.N,M1_B*%
X75565000Y-156210000D03*
%TD*%
D24*
%TO.P,U1,1*%
%TO.N,VIN*%
X127000000Y-69850000D03*
D25*
%TO.P,U1,2*%
%TO.N,GND*%
X124460000Y-69850000D03*
%TO.P,U1,3*%
%TO.N,5V_REG*%
X121920000Y-69850000D03*
%TD*%
D20*
%TO.P,R6,1*%
%TO.N,M2_A*%
X147320000Y-132080000D03*
D21*
%TO.P,R6,2*%
%TO.N,3.3V*%
X147320000Y-121920000D03*
%TD*%
%TO.P,R7,2*%
%TO.N,3.3V*%
X144145000Y-124460000D03*
D20*
%TO.P,R7,1*%
%TO.N,M2_B*%
X144145000Y-134620000D03*
%TD*%
%TO.P,R8,1*%
%TO.N,M3_A*%
X93345000Y-113665000D03*
D21*
%TO.P,R8,2*%
%TO.N,3.3V*%
X83185000Y-113665000D03*
%TD*%
%TO.P,R9,2*%
%TO.N,3.3V*%
X85090000Y-109220000D03*
D20*
%TO.P,R9,1*%
%TO.N,M3_B*%
X95250000Y-109220000D03*
%TD*%
D11*
%TO.P,J22,1*%
%TO.N,GND*%
X104775000Y-66040000D03*
D10*
%TO.P,J22,2*%
%TO.N,3.3V*%
X102235000Y-66040000D03*
%TO.P,J22,3*%
%TO.N,nRF_CE*%
X104775000Y-63500000D03*
%TO.P,J22,4*%
%TO.N,nRF_CSN*%
X102235000Y-63500000D03*
%TO.P,J22,5*%
%TO.N,nRF_SCK*%
X104775000Y-60960000D03*
%TO.P,J22,6*%
%TO.N,nRF_MOSI*%
X102235000Y-60960000D03*
%TO.P,J22,7*%
%TO.N,nRF_MISO*%
X104775000Y-58420000D03*
%TO.P,J22,8*%
%TO.N,nRF_IRQ*%
X102235000Y-58420000D03*
%TD*%
%TO.P,J23,1*%
%TO.N,M1_2*%
%TA.AperFunction,ComponentPad*%
G36*
G01*
X48455000Y-152390001D02*
X48455000Y-151139999D01*
G75*
G02*
X48704999Y-150890000I249999J0D01*
G01*
X49405001Y-150890000D01*
G75*
G02*
X49655000Y-151139999I0J-249999D01*
G01*
X49655000Y-152390001D01*
G75*
G02*
X49405001Y-152640000I-249999J0D01*
G01*
X48704999Y-152640000D01*
G75*
G02*
X48455000Y-152390001I0J249999D01*
G01*
G37*
%TD.AperFunction*%
D26*
%TO.P,J23,2*%
%TO.N,M1_1*%
X51055000Y-151765000D03*
%TO.P,J23,3*%
%TO.N,GND*%
X53055000Y-151765000D03*
%TO.P,J23,4*%
%TO.N,3.3V*%
X55055000Y-151765000D03*
%TO.P,J23,5*%
%TO.N,M1_A*%
X57055000Y-151765000D03*
%TO.P,J23,6*%
%TO.N,M1_B*%
X59055000Y-151765000D03*
%TD*%
%TO.P,J24,6*%
%TO.N,M3_B*%
X99250000Y-33020000D03*
%TO.P,J24,5*%
%TO.N,M3_A*%
X97250000Y-33020000D03*
%TO.P,J24,4*%
%TO.N,3.3V*%
X95250000Y-33020000D03*
%TO.P,J24,3*%
%TO.N,GND*%
X93250000Y-33020000D03*
%TO.P,J24,2*%
%TO.N,M3_1*%
X91250000Y-33020000D03*
%TO.P,J24,1*%
%TO.N,M3_2*%
%TA.AperFunction,ComponentPad*%
G36*
G01*
X88650000Y-33645001D02*
X88650000Y-32394999D01*
G75*
G02*
X88899999Y-32145000I249999J0D01*
G01*
X89600001Y-32145000D01*
G75*
G02*
X89850000Y-32394999I0J-249999D01*
G01*
X89850000Y-33645001D01*
G75*
G02*
X89600001Y-33895000I-249999J0D01*
G01*
X88899999Y-33895000D01*
G75*
G02*
X88650000Y-33645001I0J249999D01*
G01*
G37*
%TD.AperFunction*%
%TD*%
%TO.P,J25,1*%
%TO.N,M2_2*%
%TA.AperFunction,ComponentPad*%
G36*
G01*
X158759999Y-124020000D02*
X160010001Y-124020000D01*
G75*
G02*
X160260000Y-124269999I0J-249999D01*
G01*
X160260000Y-124970001D01*
G75*
G02*
X160010001Y-125220000I-249999J0D01*
G01*
X158759999Y-125220000D01*
G75*
G02*
X158510000Y-124970001I0J249999D01*
G01*
X158510000Y-124269999D01*
G75*
G02*
X158759999Y-124020000I249999J0D01*
G01*
G37*
%TD.AperFunction*%
D27*
%TO.P,J25,2*%
%TO.N,M2_1*%
X159385000Y-126620000D03*
%TO.P,J25,3*%
%TO.N,GND*%
X159385000Y-128620000D03*
%TO.P,J25,4*%
%TO.N,3.3V*%
X159385000Y-130620000D03*
%TO.P,J25,5*%
%TO.N,M2_A*%
X159385000Y-132620000D03*
%TO.P,J25,6*%
%TO.N,M2_B*%
X159385000Y-134620000D03*
%TD*%
D28*
%TO.N,5V*%
X95330000Y-157560000D03*
X139065000Y-157480000D03*
X139065000Y-154305000D03*
X90055001Y-158229999D03*
X139065000Y-136525000D03*
X144712089Y-81347911D03*
X146685000Y-99060000D03*
X143510000Y-118745000D03*
X32384994Y-140335000D03*
X54610000Y-136525004D03*
X54610000Y-147320000D03*
%TO.N,GND*%
X82550000Y-77470000D03*
X70485000Y-77470000D03*
X135255000Y-131445000D03*
X135255000Y-149225000D03*
X135255000Y-149225000D03*
%TO.N,VCapt1*%
X64135000Y-146050000D03*
%TO.N,VCapt2*%
X62230000Y-146050000D03*
%TO.N,VCapt3*%
X59690000Y-146050000D03*
%TO.N,TX*%
X75755000Y-100140006D03*
X65594994Y-100140006D03*
%TO.N,3.3V*%
X78025001Y-126920001D03*
X62865000Y-103505000D03*
X81994999Y-126920001D03*
X81915000Y-149860000D03*
X81915000Y-139065000D03*
X89535000Y-161290000D03*
X71755000Y-59054976D03*
X141394272Y-124320419D03*
X93980000Y-38100000D03*
%TO.N,5V_NUC*%
X100330000Y-102235000D03*
X130175000Y-102235000D03*
%TO.N,GPIO2_STATUS*%
X114934996Y-123190000D03*
X87630008Y-58420000D03*
%TO.N,EnaPower*%
X97155000Y-125095000D03*
X113030012Y-125095000D03*
X97195696Y-74291913D03*
X153670000Y-163830000D03*
X111125000Y-163830000D03*
X102870002Y-32385000D03*
%TO.N,Mot2_D2*%
X150495000Y-140335000D03*
X158750000Y-158750000D03*
%TO.N,Mot3_D2*%
X100965000Y-47625000D03*
X100965000Y-77470000D03*
X107315000Y-88900000D03*
X107315000Y-98425000D03*
%TO.N,Mot3_D1*%
X109855000Y-88900000D03*
X99060000Y-74295000D03*
X109855000Y-97790000D03*
X102870000Y-34925000D03*
%TO.N,M1_1*%
X42545000Y-144145000D03*
X49530000Y-144145000D03*
%TO.N,M3_1*%
X87630000Y-45085000D03*
X91440000Y-38100000D03*
%TO.N,M3_B*%
X95249998Y-119380000D03*
X118745000Y-119380000D03*
X95250002Y-74295000D03*
X99060010Y-38100000D03*
%TO.N,M3_A*%
X93345000Y-121285000D03*
X116840000Y-121285002D03*
X92920728Y-74434578D03*
X96520014Y-38100000D03*
%TO.N,nRF_SCK*%
X126444999Y-121840001D03*
X126444999Y-106124999D03*
X118745000Y-83820000D03*
X126365000Y-98424984D03*
%TO.N,nRF_CSN*%
X135255000Y-113030002D03*
X99060000Y-63500000D03*
%TO.N,nRF_MISO*%
X124460000Y-115570000D03*
X124460000Y-115570000D03*
X124460000Y-106045000D03*
X114934996Y-64135000D03*
X124046809Y-98186451D03*
%TO.N,nRF_CE*%
X137159996Y-113030000D03*
X137160000Y-98425004D03*
%TO.N,nRF_MOSI*%
X121920000Y-115570000D03*
X121920000Y-106045000D03*
X121920000Y-98244990D03*
X99060000Y-60960000D03*
%TO.N,nRF_IRQ*%
X114935000Y-60325000D03*
X136525000Y-124460000D03*
%TO.N,NUC_VIN*%
X127000000Y-93980000D03*
X142875000Y-93980000D03*
%TD*%
D29*
%TO.N,5V*%
X138985000Y-157560000D02*
X139065000Y-157480000D01*
X95330000Y-157560000D02*
X138985000Y-157560000D01*
X139065000Y-154305000D02*
X139065000Y-136525000D01*
X146685000Y-97560002D02*
X146685000Y-99060000D01*
X144712089Y-81347911D02*
X146685000Y-83320822D01*
X146685000Y-83320822D02*
X146685000Y-97560002D01*
X139065000Y-136525000D02*
X139065000Y-123190000D01*
X142760001Y-119494999D02*
X143510000Y-118745000D01*
X139065000Y-123190000D02*
X142760001Y-119494999D01*
X54609996Y-136525000D02*
X54610000Y-136525004D01*
X46355000Y-136525000D02*
X54609996Y-136525000D01*
X32384994Y-140335000D02*
X42545000Y-140335000D01*
X42545000Y-140335000D02*
X46355000Y-136525000D01*
X58534999Y-148069999D02*
X55359999Y-148069999D01*
X90055001Y-158229999D02*
X68694999Y-158229999D01*
X55359999Y-148069999D02*
X54610000Y-147320000D01*
X68694999Y-158229999D02*
X58534999Y-148069999D01*
%TO.N,GND*%
X82550000Y-77470000D02*
X70485000Y-77470000D01*
D30*
X135255000Y-131445000D02*
X135255000Y-149225000D01*
D29*
%TO.N,TX*%
X75755000Y-100140006D02*
X65594994Y-100140006D01*
%TO.N,3.3V*%
X78025001Y-125859341D02*
X78105000Y-125779342D01*
X78025001Y-126920001D02*
X78025001Y-125859341D01*
X78105000Y-125779342D02*
X78105000Y-108585000D01*
X76835000Y-103505000D02*
X62865000Y-103505000D01*
X81915000Y-127000000D02*
X81994999Y-126920001D01*
X81915000Y-138430000D02*
X81915000Y-127000000D01*
X81915000Y-149860000D02*
X81915000Y-139065000D01*
X76835000Y-103505000D02*
X78105000Y-104775000D01*
X78105000Y-104775000D02*
X78105000Y-108585000D01*
X90919999Y-159905001D02*
X140449999Y-159905001D01*
X89535000Y-161290000D02*
X90919999Y-159905001D01*
X141394272Y-158960728D02*
X141394272Y-124320419D01*
X140449999Y-159905001D02*
X141394272Y-158960728D01*
X90170000Y-45720000D02*
X90170000Y-41910000D01*
X88265000Y-47625000D02*
X90170000Y-45720000D01*
X90170000Y-41910000D02*
X93980000Y-38100000D01*
X71755000Y-59054976D02*
X71005001Y-58304977D01*
X71004977Y-58304977D02*
X69215000Y-56515000D01*
X69215000Y-56515000D02*
X69215000Y-48895000D01*
X71005001Y-58304977D02*
X71004977Y-58304977D01*
X69215000Y-48895000D02*
X70485000Y-47625000D01*
X70485000Y-47625000D02*
X88265000Y-47625000D01*
D30*
%TO.N,5V_NUC*%
X100330000Y-102235000D02*
X130175000Y-102235000D01*
D29*
%TO.N,GPIO2_STATUS*%
X87630008Y-68580008D02*
X87630008Y-58420000D01*
X91440000Y-72390000D02*
X87630008Y-68580008D01*
X91440000Y-122237500D02*
X91440000Y-72390000D01*
X114934996Y-123190000D02*
X92392500Y-123190000D01*
X92392500Y-123190000D02*
X91440000Y-122237500D01*
D31*
%TO.N,Net-(J4-Pad2)*%
X56515000Y-82550000D02*
X50800000Y-82550000D01*
X56515000Y-81280000D02*
X56515000Y-82550000D01*
X50800000Y-82550000D02*
X50800000Y-93345000D01*
X49530000Y-81280000D02*
X56515000Y-81280000D01*
X57785000Y-83820000D02*
X59690000Y-83820000D01*
X56515000Y-78740000D02*
X56515000Y-80010000D01*
X48895000Y-78740000D02*
X56515000Y-78740000D01*
X56515000Y-80010000D02*
X48260000Y-80010000D01*
X52070000Y-93345000D02*
X52070000Y-83820000D01*
X48260000Y-80010000D02*
X48260000Y-93345000D01*
X52070000Y-83820000D02*
X57785000Y-83820000D01*
X48260000Y-93345000D02*
X49530000Y-93345000D01*
X50800000Y-93345000D02*
X52070000Y-93345000D01*
X49530000Y-93345000D02*
X49530000Y-81280000D01*
D29*
%TO.N,EnaPower*%
X97155000Y-125095000D02*
X98215660Y-125095000D01*
X98215660Y-125095000D02*
X113030012Y-125095000D01*
X102120003Y-33134999D02*
X102870002Y-32385000D01*
X101145002Y-39824998D02*
X101145002Y-34110000D01*
X97195696Y-71160696D02*
X93345000Y-67310000D01*
X101145002Y-34110000D02*
X102120003Y-33134999D01*
X97195696Y-74291913D02*
X97195696Y-71160696D01*
X93345000Y-67310000D02*
X93345000Y-56515000D01*
X93345000Y-56515000D02*
X97155006Y-52704994D01*
X97155006Y-52704994D02*
X97155006Y-43814994D01*
X97155006Y-43814994D02*
X101145002Y-39824998D01*
X113030000Y-161925000D02*
X111125000Y-163830000D01*
X135255000Y-161925000D02*
X113030000Y-161925000D01*
X153670000Y-163830000D02*
X137160000Y-163830000D01*
X137160000Y-163830000D02*
X135255000Y-161925000D01*
%TO.N,Mot2_D2*%
X150495000Y-140335000D02*
X157480000Y-140335000D01*
X157480000Y-140335000D02*
X158750000Y-141605000D01*
X158750000Y-141605000D02*
X158750000Y-158750000D01*
%TO.N,Mot3_D2*%
X107315000Y-88900000D02*
X107315000Y-98425000D01*
X100965000Y-69850000D02*
X100965000Y-77470000D01*
X97155000Y-66040000D02*
X100965000Y-69850000D01*
X97155000Y-57785000D02*
X97155000Y-66040000D01*
X100965000Y-47625000D02*
X100965000Y-53975000D01*
X100965000Y-53975000D02*
X97155000Y-57785000D01*
%TO.N,Mot3_D1*%
X109855000Y-88900000D02*
X109855000Y-97790000D01*
X102870000Y-35985660D02*
X102870000Y-34925000D01*
X99060000Y-70485000D02*
X95250000Y-66675000D01*
X102870000Y-41275000D02*
X102870000Y-35985660D01*
X99060000Y-74295000D02*
X99060000Y-70485000D01*
X95250000Y-57150000D02*
X98945001Y-53454999D01*
X98945001Y-53454999D02*
X98945001Y-45199999D01*
X95250000Y-66675000D02*
X95250000Y-57150000D01*
X98945001Y-45199999D02*
X102870000Y-41275000D01*
%TO.N,M1_1*%
X42545000Y-144145000D02*
X49530000Y-144145000D01*
%TO.N,M3_1*%
X88900000Y-38100000D02*
X91440000Y-38100000D01*
X87630000Y-45085000D02*
X87630000Y-39370000D01*
X87630000Y-39370000D02*
X88900000Y-38100000D01*
%TO.N,M3_B*%
X95249998Y-119380000D02*
X118745000Y-119380000D01*
X99060010Y-39369990D02*
X99060010Y-38100000D01*
X95250002Y-71755002D02*
X91440000Y-67945000D01*
X95250002Y-74295000D02*
X95250002Y-71755002D01*
X91440000Y-67945000D02*
X91440000Y-55880000D01*
X91440000Y-55880000D02*
X95250000Y-52070000D01*
X95250000Y-52070000D02*
X95250000Y-43180000D01*
X95250000Y-43180000D02*
X99060010Y-39369990D01*
%TO.N,M3_A*%
X116839998Y-121285000D02*
X116840000Y-121285002D01*
X93345000Y-121285000D02*
X116839998Y-121285000D01*
X96520000Y-38100014D02*
X96520014Y-38100000D01*
X96520000Y-39370000D02*
X96520000Y-38100014D01*
X92920728Y-71965728D02*
X89535000Y-68580000D01*
X92920728Y-74434578D02*
X92920728Y-71965728D01*
X89535000Y-68580000D02*
X89535000Y-55245000D01*
X89535000Y-55245000D02*
X93345000Y-51435000D01*
X93345000Y-51435000D02*
X93345000Y-42545000D01*
X93345000Y-42545000D02*
X96520000Y-39370000D01*
%TO.N,nRF_SCK*%
X126444999Y-121840001D02*
X126444999Y-106124999D01*
X126365000Y-97790000D02*
X126365000Y-98424984D01*
X118745000Y-83820000D02*
X118745000Y-90170000D01*
X118745000Y-90170000D02*
X126365000Y-97790000D01*
%TO.N,nRF_CSN*%
X102870000Y-98425000D02*
X102870000Y-69640660D01*
X133985000Y-100330000D02*
X104775000Y-100330000D01*
X102870000Y-69640660D02*
X99060000Y-65830660D01*
X104775000Y-100330000D02*
X102870000Y-98425000D01*
X135255000Y-113030002D02*
X135255000Y-101600000D01*
X135255000Y-101600000D02*
X133985000Y-100330000D01*
X99060000Y-65830660D02*
X99060000Y-63500000D01*
%TO.N,nRF_MISO*%
X124460000Y-115570000D02*
X124460000Y-106045000D01*
X124046809Y-98011809D02*
X124046809Y-98186451D01*
X114934996Y-64135000D02*
X114934996Y-88899996D01*
X114934996Y-88899996D02*
X124046809Y-98011809D01*
%TO.N,nRF_CE*%
X137159996Y-113030000D02*
X137159996Y-98425008D01*
X137159996Y-98425008D02*
X137160000Y-98425004D01*
%TO.N,nRF_MOSI*%
X121920000Y-115570000D02*
X121920000Y-106045000D01*
X99060000Y-58420000D02*
X99060000Y-60960000D01*
X100965000Y-56515000D02*
X99060000Y-58420000D01*
X106680000Y-56515000D02*
X100965000Y-56515000D01*
X113030000Y-62865000D02*
X106680000Y-56515000D01*
X121920000Y-98244990D02*
X113030000Y-89354990D01*
X113030000Y-89354990D02*
X113030000Y-62865000D01*
%TO.N,nRF_IRQ*%
X136525000Y-124460000D02*
X136525000Y-118110000D01*
X136525000Y-118110000D02*
X144780000Y-109855000D01*
X131445000Y-77470000D02*
X131445000Y-68580000D01*
X131445000Y-68580000D02*
X128270000Y-65405000D01*
X135255000Y-81280000D02*
X131445000Y-77470000D01*
X144780000Y-86995000D02*
X139065000Y-81280000D01*
X139065000Y-81280000D02*
X135255000Y-81280000D01*
X144780000Y-109855000D02*
X144780000Y-86995000D01*
X115684999Y-61074999D02*
X114935000Y-60325000D01*
X128270000Y-65405000D02*
X120015000Y-65405000D01*
X120015000Y-65405000D02*
X115684999Y-61074999D01*
D30*
%TO.N,NUC_VIN*%
X140335000Y-93980000D02*
X142875000Y-93980000D01*
X127000000Y-93980000D02*
X140335000Y-93980000D01*
%TD*%
M02*
