M48
;DRILL file {KiCad (5.0.1)-4} date 30/09/2021 12:25:12
;FORMAT={-:-/ absolute / metric / decimal}
FMAT,2
METRIC,TZ
T1C0.600
T2C0.750
T3C0.800
T4C0.900
T5C0.950
T6C1.000
T7C1.100
T8C1.300
T9C3.200
%
G90
G05
M71
T1
X32.385Y-140.335
X42.545Y-144.145
X49.53Y-144.145
X54.61Y-136.525
X54.61Y-147.32
X59.69Y-146.05
X62.23Y-146.05
X62.865Y-103.505
X64.135Y-146.05
X65.595Y-100.14
X70.485Y-77.47
X71.755Y-59.055
X75.755Y-100.14
X78.025Y-126.92
X81.915Y-139.065
X81.915Y-149.86
X81.995Y-126.92
X82.55Y-77.47
X87.63Y-45.085
X87.63Y-58.42
X89.535Y-161.29
X90.055Y-158.23
X91.44Y-38.1
X92.921Y-74.435
X93.345Y-121.285
X93.98Y-38.1
X95.25Y-119.38
X95.25Y-74.295
X95.33Y-157.56
X96.52Y-38.1
X97.155Y-125.095
X97.196Y-74.292
X99.06Y-60.96
X99.06Y-63.5
X99.06Y-74.295
X99.06Y-38.1
X100.33Y-102.235
X100.965Y-47.625
X100.965Y-77.47
X102.87Y-34.925
X102.87Y-32.385
X107.315Y-88.9
X107.315Y-98.425
X109.855Y-88.9
X109.855Y-97.79
X111.125Y-163.83
X113.03Y-125.095
X114.935Y-64.135
X114.935Y-123.19
X114.935Y-60.325
X116.84Y-121.285
X118.745Y-83.82
X118.745Y-119.38
X121.92Y-98.245
X121.92Y-106.045
X121.92Y-115.57
X124.047Y-98.186
X124.46Y-106.045
X124.46Y-115.57
X124.46Y-115.57
X126.365Y-98.425
X126.445Y-106.125
X126.445Y-121.84
X127.Y-93.98
X130.175Y-102.235
X135.255Y-113.03
X135.255Y-131.445
X135.255Y-149.225
X135.255Y-149.225
X136.525Y-124.46
X137.16Y-113.03
X137.16Y-98.425
X139.065Y-136.525
X139.065Y-154.305
X139.065Y-157.48
X141.394Y-124.32
X142.875Y-93.98
X143.51Y-118.745
X144.712Y-81.348
X146.685Y-99.06
X150.495Y-140.335
X153.67Y-163.83
X158.75Y-158.75
T2
X89.25Y-33.02
X91.25Y-33.02
X93.25Y-33.02
X95.25Y-33.02
X97.25Y-33.02
X99.25Y-33.02
X159.385Y-124.62
X159.385Y-126.62
X159.385Y-128.62
X159.385Y-130.62
X159.385Y-132.62
X159.385Y-134.62
X49.055Y-151.765
X51.055Y-151.765
X53.055Y-151.765
X55.055Y-151.765
X57.055Y-151.765
X59.055Y-151.765
T3
X71.755Y-73.66
X73.755Y-73.66
X75.755Y-73.66
X77.755Y-73.66
X79.755Y-73.66
X81.755Y-73.66
X83.755Y-73.66
X85.755Y-73.66
X87.755Y-73.66
X89.755Y-73.66
X83.185Y-113.665
X93.345Y-113.665
X148.59Y-143.51
X148.59Y-146.05
X148.59Y-148.59
X148.59Y-151.13
X148.59Y-153.67
X148.59Y-156.21
X148.59Y-158.75
X148.59Y-161.29
X156.21Y-143.51
X156.21Y-146.05
X156.21Y-148.59
X156.21Y-151.13
X156.21Y-153.67
X156.21Y-156.21
X156.21Y-158.75
X156.21Y-161.29
X150.495Y-93.98
X152.495Y-93.98
X70.485Y-81.28
X70.485Y-91.44
X85.09Y-109.22
X95.25Y-109.22
X32.385Y-119.38
X32.385Y-121.92
X32.385Y-124.46
X32.385Y-127.
X32.385Y-129.54
X32.385Y-132.08
X32.385Y-134.62
X32.385Y-137.16
X40.005Y-119.38
X40.005Y-121.92
X40.005Y-124.46
X40.005Y-127.
X40.005Y-129.54
X40.005Y-132.08
X40.005Y-134.62
X40.005Y-137.16
X71.755Y-51.435
X73.755Y-51.435
X75.755Y-51.435
X77.755Y-51.435
X79.755Y-51.435
X81.755Y-51.435
X83.755Y-51.435
X85.755Y-51.435
X87.755Y-51.435
X89.755Y-51.435
X75.565Y-152.4
X85.725Y-152.4
X104.775Y-32.385
X104.775Y-34.925
X104.775Y-37.465
X104.775Y-40.005
X104.775Y-42.545
X104.775Y-45.085
X104.775Y-47.625
X104.775Y-50.165
X112.395Y-32.385
X112.395Y-34.925
X112.395Y-37.465
X112.395Y-40.005
X112.395Y-42.545
X112.395Y-45.085
X112.395Y-47.625
X112.395Y-50.165
X75.565Y-156.21
X85.725Y-156.21
X144.145Y-124.46
X144.145Y-134.62
X74.295Y-55.88
X84.455Y-55.88
X55.245Y-86.36
X55.245Y-96.52
X147.32Y-121.92
X147.32Y-132.08
T4
X48.26Y-96.52
X48.26Y-99.06
T5
X95.33Y-161.925
X97.83Y-161.925
X100.33Y-161.925
X102.83Y-161.925
X105.33Y-161.925
X54.65Y-132.08
X57.15Y-132.08
X59.65Y-132.08
X54.69Y-141.605
X57.19Y-141.605
X59.69Y-141.605
X54.65Y-122.555
X57.15Y-122.555
X59.65Y-122.555
T6
X68.5Y-106.6
X68.5Y-109.14
X68.5Y-111.68
X68.5Y-114.22
X68.5Y-116.76
X68.5Y-119.3
X68.5Y-121.84
X68.5Y-124.38
X68.5Y-126.92
X68.5Y-129.46
X68.5Y-132.
X68.5Y-134.54
X68.5Y-137.08
X68.5Y-139.62
X68.5Y-142.16
X68.5Y-144.7
X68.5Y-147.24
X68.5Y-149.78
X68.5Y-152.32
X68.5Y-154.86
X71.04Y-106.6
X71.04Y-109.14
X71.04Y-111.68
X71.04Y-114.22
X71.04Y-116.76
X71.04Y-119.3
X71.04Y-121.84
X71.04Y-124.38
X71.04Y-126.92
X71.04Y-129.46
X71.04Y-132.
X71.04Y-134.54
X71.04Y-137.08
X71.04Y-139.62
X71.04Y-142.16
X71.04Y-144.7
X71.04Y-147.24
X71.04Y-149.78
X71.04Y-152.32
X71.04Y-154.86
X121.92Y-59.055
X126.92Y-59.055
X46.99Y-106.045
X46.99Y-108.585
X46.99Y-111.125
X137.16Y-85.09
X137.16Y-87.63
X137.16Y-90.17
X135.97Y-74.93
X140.97Y-74.93
X151.765Y-121.92
X151.765Y-124.46
X151.765Y-127.
X151.765Y-129.54
X151.765Y-132.08
X151.765Y-134.62
X140.335Y-104.775
X140.335Y-107.315
X140.335Y-109.855
X149.86Y-116.84
X152.4Y-116.84
X154.94Y-116.84
X129.54Y-106.6
X129.54Y-109.14
X129.54Y-111.68
X129.54Y-114.22
X129.54Y-116.76
X129.54Y-119.3
X129.54Y-121.84
X129.54Y-124.38
X129.54Y-126.92
X129.54Y-129.46
X129.54Y-132.
X129.54Y-134.54
X129.54Y-137.08
X129.54Y-139.62
X129.54Y-142.16
X129.54Y-144.7
X129.54Y-147.24
X129.54Y-149.78
X129.54Y-152.32
X129.54Y-154.86
X132.08Y-106.6
X132.08Y-109.14
X132.08Y-111.68
X132.08Y-114.22
X132.08Y-116.76
X132.08Y-119.3
X132.08Y-121.84
X132.08Y-124.38
X132.08Y-126.92
X132.08Y-129.46
X132.08Y-132.
X132.08Y-134.54
X132.08Y-137.08
X132.08Y-139.62
X132.08Y-142.16
X132.08Y-144.7
X132.08Y-147.24
X132.08Y-149.78
X132.08Y-152.32
X132.08Y-154.86
X59.69Y-81.28
X59.69Y-83.82
X59.69Y-86.36
X59.69Y-88.9
X59.69Y-91.44
X59.69Y-93.98
X59.69Y-96.52
X59.69Y-99.06
X59.69Y-101.6
X59.69Y-104.14
X59.69Y-106.68
X59.69Y-109.22
X86.36Y-27.305
X88.9Y-27.305
X91.44Y-27.305
X93.98Y-27.305
X96.52Y-27.305
X99.06Y-27.305
X102.235Y-58.42
X102.235Y-60.96
X102.235Y-63.5
X102.235Y-66.04
X104.775Y-58.42
X104.775Y-60.96
X104.775Y-63.5
X104.775Y-66.04
X43.815Y-158.75
X46.355Y-158.75
X48.895Y-158.75
X51.435Y-158.75
X53.975Y-158.75
X56.515Y-158.75
T7
X121.92Y-69.85
X124.46Y-69.85
X127.Y-69.85
T8
X152.4Y-105.41
X152.4Y-110.49
X165.735Y-137.795
X170.815Y-137.795
X38.1Y-146.685
X38.1Y-151.765
X79.375Y-37.465
X79.375Y-42.545
T9
X66.675Y-68.58
X123.825Y-165.1
X27.305Y-147.955
T0
M30
