%TF.GenerationSoftware,KiCad,Pcbnew,(5.0.1)-4*%
%TF.CreationDate,2021-09-30T12:25:10+02:00*%
%TF.ProjectId,RobotHolo,526F626F74486F6C6F2E6B696361645F,rev?*%
%TF.SameCoordinates,Original*%
%TF.FileFunction,Legend,Top*%
%TF.FilePolarity,Positive*%
%FSLAX46Y46*%
G04 Gerber Fmt 4.6, Leading zero omitted, Abs format (unit mm)*
G04 Created by KiCad (PCBNEW (5.0.1)-4) date 30/09/2021 12:25:10*
%MOMM*%
%LPD*%
G01*
G04 APERTURE LIST*
%ADD10C,0.300000*%
%ADD11C,0.150000*%
%ADD12C,0.120000*%
G04 APERTURE END LIST*
D10*
X118706428Y-35580714D02*
X118706428Y-34866428D01*
X120206428Y-34866428D01*
X119492142Y-36080714D02*
X119492142Y-36580714D01*
X118706428Y-36795000D02*
X118706428Y-36080714D01*
X120206428Y-36080714D01*
X120206428Y-36795000D01*
X119706428Y-37437857D02*
X118706428Y-37437857D01*
X119563571Y-37437857D02*
X119635000Y-37509285D01*
X119706428Y-37652142D01*
X119706428Y-37866428D01*
X119635000Y-38009285D01*
X119492142Y-38080714D01*
X118706428Y-38080714D01*
X118777857Y-38723571D02*
X118706428Y-38866428D01*
X118706428Y-39152142D01*
X118777857Y-39295000D01*
X118920714Y-39366428D01*
X118992142Y-39366428D01*
X119135000Y-39295000D01*
X119206428Y-39152142D01*
X119206428Y-38937857D01*
X119277857Y-38795000D01*
X119420714Y-38723571D01*
X119492142Y-38723571D01*
X119635000Y-38795000D01*
X119706428Y-38937857D01*
X119706428Y-39152142D01*
X119635000Y-39295000D01*
X119492142Y-40009285D02*
X119492142Y-40509285D01*
X118706428Y-40723571D02*
X118706428Y-40009285D01*
X120206428Y-40009285D01*
X120206428Y-40723571D01*
X120277857Y-43580714D02*
X118349285Y-42295000D01*
X120063571Y-45152142D02*
X120135000Y-45223571D01*
X120206428Y-45366428D01*
X120206428Y-45723571D01*
X120135000Y-45866428D01*
X120063571Y-45937857D01*
X119920714Y-46009285D01*
X119777857Y-46009285D01*
X119563571Y-45937857D01*
X118706428Y-45080714D01*
X118706428Y-46009285D01*
X120206428Y-46937857D02*
X120206428Y-47080714D01*
X120135000Y-47223571D01*
X120063571Y-47295000D01*
X119920714Y-47366428D01*
X119635000Y-47437857D01*
X119277857Y-47437857D01*
X118992142Y-47366428D01*
X118849285Y-47295000D01*
X118777857Y-47223571D01*
X118706428Y-47080714D01*
X118706428Y-46937857D01*
X118777857Y-46795000D01*
X118849285Y-46723571D01*
X118992142Y-46652142D01*
X119277857Y-46580714D01*
X119635000Y-46580714D01*
X119920714Y-46652142D01*
X120063571Y-46723571D01*
X120135000Y-46795000D01*
X120206428Y-46937857D01*
X120063571Y-48009285D02*
X120135000Y-48080714D01*
X120206428Y-48223571D01*
X120206428Y-48580714D01*
X120135000Y-48723571D01*
X120063571Y-48795000D01*
X119920714Y-48866428D01*
X119777857Y-48866428D01*
X119563571Y-48795000D01*
X118706428Y-47937857D01*
X118706428Y-48866428D01*
X118706428Y-50295000D02*
X118706428Y-49437857D01*
X118706428Y-49866428D02*
X120206428Y-49866428D01*
X119992142Y-49723571D01*
X119849285Y-49580714D01*
X119777857Y-49437857D01*
X116156428Y-27080714D02*
X116870714Y-26580714D01*
X116156428Y-26223571D02*
X117656428Y-26223571D01*
X117656428Y-26795000D01*
X117585000Y-26937857D01*
X117513571Y-27009285D01*
X117370714Y-27080714D01*
X117156428Y-27080714D01*
X117013571Y-27009285D01*
X116942142Y-26937857D01*
X116870714Y-26795000D01*
X116870714Y-26223571D01*
X116156428Y-27937857D02*
X116227857Y-27795000D01*
X116299285Y-27723571D01*
X116442142Y-27652142D01*
X116870714Y-27652142D01*
X117013571Y-27723571D01*
X117085000Y-27795000D01*
X117156428Y-27937857D01*
X117156428Y-28152142D01*
X117085000Y-28295000D01*
X117013571Y-28366428D01*
X116870714Y-28437857D01*
X116442142Y-28437857D01*
X116299285Y-28366428D01*
X116227857Y-28295000D01*
X116156428Y-28152142D01*
X116156428Y-27937857D01*
X116156428Y-29080714D02*
X117656428Y-29080714D01*
X117085000Y-29080714D02*
X117156428Y-29223571D01*
X117156428Y-29509285D01*
X117085000Y-29652142D01*
X117013571Y-29723571D01*
X116870714Y-29795000D01*
X116442142Y-29795000D01*
X116299285Y-29723571D01*
X116227857Y-29652142D01*
X116156428Y-29509285D01*
X116156428Y-29223571D01*
X116227857Y-29080714D01*
X116156428Y-30652142D02*
X116227857Y-30509285D01*
X116299285Y-30437857D01*
X116442142Y-30366428D01*
X116870714Y-30366428D01*
X117013571Y-30437857D01*
X117085000Y-30509285D01*
X117156428Y-30652142D01*
X117156428Y-30866428D01*
X117085000Y-31009285D01*
X117013571Y-31080714D01*
X116870714Y-31152142D01*
X116442142Y-31152142D01*
X116299285Y-31080714D01*
X116227857Y-31009285D01*
X116156428Y-30866428D01*
X116156428Y-30652142D01*
X117156428Y-31580714D02*
X117156428Y-32152142D01*
X117656428Y-31795000D02*
X116370714Y-31795000D01*
X116227857Y-31866428D01*
X116156428Y-32009285D01*
X116156428Y-32152142D01*
X116585000Y-33723571D02*
X116585000Y-34437857D01*
X116156428Y-33580714D02*
X117656428Y-34080714D01*
X116156428Y-34580714D01*
X117156428Y-35723571D02*
X116156428Y-35723571D01*
X117156428Y-35080714D02*
X116370714Y-35080714D01*
X116227857Y-35152142D01*
X116156428Y-35295000D01*
X116156428Y-35509285D01*
X116227857Y-35652142D01*
X116299285Y-35723571D01*
X117156428Y-36223571D02*
X117156428Y-36795000D01*
X117656428Y-36437857D02*
X116370714Y-36437857D01*
X116227857Y-36509285D01*
X116156428Y-36652142D01*
X116156428Y-36795000D01*
X116156428Y-37509285D02*
X116227857Y-37366428D01*
X116299285Y-37295000D01*
X116442142Y-37223571D01*
X116870714Y-37223571D01*
X117013571Y-37295000D01*
X117085000Y-37366428D01*
X117156428Y-37509285D01*
X117156428Y-37723571D01*
X117085000Y-37866428D01*
X117013571Y-37937857D01*
X116870714Y-38009285D01*
X116442142Y-38009285D01*
X116299285Y-37937857D01*
X116227857Y-37866428D01*
X116156428Y-37723571D01*
X116156428Y-37509285D01*
X117156428Y-38652142D02*
X116156428Y-38652142D01*
X117013571Y-38652142D02*
X117085000Y-38723571D01*
X117156428Y-38866428D01*
X117156428Y-39080714D01*
X117085000Y-39223571D01*
X116942142Y-39295000D01*
X116156428Y-39295000D01*
X116156428Y-40223571D02*
X116227857Y-40080714D01*
X116299285Y-40009285D01*
X116442142Y-39937857D01*
X116870714Y-39937857D01*
X117013571Y-40009285D01*
X117085000Y-40080714D01*
X117156428Y-40223571D01*
X117156428Y-40437857D01*
X117085000Y-40580714D01*
X117013571Y-40652142D01*
X116870714Y-40723571D01*
X116442142Y-40723571D01*
X116299285Y-40652142D01*
X116227857Y-40580714D01*
X116156428Y-40437857D01*
X116156428Y-40223571D01*
X116156428Y-41366428D02*
X117156428Y-41366428D01*
X117013571Y-41366428D02*
X117085000Y-41437857D01*
X117156428Y-41580714D01*
X117156428Y-41794999D01*
X117085000Y-41937857D01*
X116942142Y-42009285D01*
X116156428Y-42009285D01*
X116942142Y-42009285D02*
X117085000Y-42080714D01*
X117156428Y-42223571D01*
X117156428Y-42437857D01*
X117085000Y-42580714D01*
X116942142Y-42652142D01*
X116156428Y-42652142D01*
X116227857Y-43937857D02*
X116156428Y-43795000D01*
X116156428Y-43509285D01*
X116227857Y-43366428D01*
X116370714Y-43295000D01*
X116942142Y-43295000D01*
X117085000Y-43366428D01*
X117156428Y-43509285D01*
X117156428Y-43795000D01*
X117085000Y-43937857D01*
X116942142Y-44009285D01*
X116799285Y-44009285D01*
X116656428Y-43295000D01*
X117727857Y-46866428D02*
X115799285Y-45580714D01*
X116156428Y-48509285D02*
X117656428Y-48509285D01*
X116942142Y-48509285D02*
X116942142Y-49366428D01*
X116156428Y-49366428D02*
X117656428Y-49366428D01*
X116156428Y-50294999D02*
X116227857Y-50152142D01*
X116299285Y-50080714D01*
X116442142Y-50009285D01*
X116870714Y-50009285D01*
X117013571Y-50080714D01*
X117085000Y-50152142D01*
X117156428Y-50294999D01*
X117156428Y-50509285D01*
X117085000Y-50652142D01*
X117013571Y-50723571D01*
X116870714Y-50794999D01*
X116442142Y-50794999D01*
X116299285Y-50723571D01*
X116227857Y-50652142D01*
X116156428Y-50509285D01*
X116156428Y-50294999D01*
X116156428Y-51652142D02*
X116227857Y-51509285D01*
X116370714Y-51437857D01*
X117656428Y-51437857D01*
X116156428Y-52437857D02*
X116227857Y-52295000D01*
X116299285Y-52223571D01*
X116442142Y-52152142D01*
X116870714Y-52152142D01*
X117013571Y-52223571D01*
X117085000Y-52295000D01*
X117156428Y-52437857D01*
X117156428Y-52652142D01*
X117085000Y-52795000D01*
X117013571Y-52866428D01*
X116870714Y-52937857D01*
X116442142Y-52937857D01*
X116299285Y-52866428D01*
X116227857Y-52795000D01*
X116156428Y-52652142D01*
X116156428Y-52437857D01*
X117156428Y-53580714D02*
X116156428Y-53580714D01*
X117013571Y-53580714D02*
X117085000Y-53652142D01*
X117156428Y-53795000D01*
X117156428Y-54009285D01*
X117085000Y-54152142D01*
X116942142Y-54223571D01*
X116156428Y-54223571D01*
X116156428Y-55152142D02*
X116227857Y-55009285D01*
X116299285Y-54937857D01*
X116442142Y-54866428D01*
X116870714Y-54866428D01*
X117013571Y-54937857D01*
X117085000Y-55009285D01*
X117156428Y-55152142D01*
X117156428Y-55366428D01*
X117085000Y-55509285D01*
X117013571Y-55580714D01*
X116870714Y-55652142D01*
X116442142Y-55652142D01*
X116299285Y-55580714D01*
X116227857Y-55509285D01*
X116156428Y-55366428D01*
X116156428Y-55152142D01*
X116156428Y-56295000D02*
X117156428Y-56295000D01*
X117013571Y-56295000D02*
X117085000Y-56366428D01*
X117156428Y-56509285D01*
X117156428Y-56723571D01*
X117085000Y-56866428D01*
X116942142Y-56937857D01*
X116156428Y-56937857D01*
X116942142Y-56937857D02*
X117085000Y-57009285D01*
X117156428Y-57152142D01*
X117156428Y-57366428D01*
X117085000Y-57509285D01*
X116942142Y-57580714D01*
X116156428Y-57580714D01*
X116227857Y-58866428D02*
X116156428Y-58723571D01*
X116156428Y-58437857D01*
X116227857Y-58295000D01*
X116370714Y-58223571D01*
X116942142Y-58223571D01*
X117085000Y-58295000D01*
X117156428Y-58437857D01*
X117156428Y-58723571D01*
X117085000Y-58866428D01*
X116942142Y-58937857D01*
X116799285Y-58937857D01*
X116656428Y-58223571D01*
D11*
X102044761Y-56935714D02*
X102044761Y-57602380D01*
X102044761Y-57030952D02*
X102092380Y-56983333D01*
X102187619Y-56935714D01*
X102330476Y-56935714D01*
X102425714Y-56983333D01*
X102473333Y-57078571D01*
X102473333Y-57602380D01*
X103520952Y-57602380D02*
X103187619Y-57126190D01*
X102949523Y-57602380D02*
X102949523Y-56602380D01*
X103330476Y-56602380D01*
X103425714Y-56650000D01*
X103473333Y-56697619D01*
X103520952Y-56792857D01*
X103520952Y-56935714D01*
X103473333Y-57030952D01*
X103425714Y-57078571D01*
X103330476Y-57126190D01*
X102949523Y-57126190D01*
X104282857Y-57078571D02*
X103949523Y-57078571D01*
X103949523Y-57602380D02*
X103949523Y-56602380D01*
X104425714Y-56602380D01*
X104759047Y-56697619D02*
X104806666Y-56650000D01*
X104901904Y-56602380D01*
X105140000Y-56602380D01*
X105235238Y-56650000D01*
X105282857Y-56697619D01*
X105330476Y-56792857D01*
X105330476Y-56888095D01*
X105282857Y-57030952D01*
X104711428Y-57602380D01*
X105330476Y-57602380D01*
X106187619Y-56935714D02*
X106187619Y-57602380D01*
X105949523Y-56554761D02*
X105711428Y-57269047D01*
X106330476Y-57269047D01*
D10*
X50065714Y-141362142D02*
X50137142Y-141433571D01*
X50208571Y-141647857D01*
X50208571Y-141790714D01*
X50137142Y-142005000D01*
X49994285Y-142147857D01*
X49851428Y-142219285D01*
X49565714Y-142290714D01*
X49351428Y-142290714D01*
X49065714Y-142219285D01*
X48922857Y-142147857D01*
X48780000Y-142005000D01*
X48708571Y-141790714D01*
X48708571Y-141647857D01*
X48780000Y-141433571D01*
X48851428Y-141362142D01*
X49780000Y-140790714D02*
X49780000Y-140076428D01*
X50208571Y-140933571D02*
X48708571Y-140433571D01*
X50208571Y-139933571D01*
X50208571Y-139433571D02*
X48708571Y-139433571D01*
X48708571Y-138862142D01*
X48780000Y-138719285D01*
X48851428Y-138647857D01*
X48994285Y-138576428D01*
X49208571Y-138576428D01*
X49351428Y-138647857D01*
X49422857Y-138719285D01*
X49494285Y-138862142D01*
X49494285Y-139433571D01*
X48708571Y-138147857D02*
X48708571Y-137290714D01*
X50208571Y-137719285D02*
X48708571Y-137719285D01*
X49422857Y-136790714D02*
X49422857Y-136290714D01*
X50208571Y-136076428D02*
X50208571Y-136790714D01*
X48708571Y-136790714D01*
X48708571Y-136076428D01*
X48708571Y-135433571D02*
X49922857Y-135433571D01*
X50065714Y-135362142D01*
X50137142Y-135290714D01*
X50208571Y-135147857D01*
X50208571Y-134862142D01*
X50137142Y-134719285D01*
X50065714Y-134647857D01*
X49922857Y-134576428D01*
X48708571Y-134576428D01*
X50208571Y-133005000D02*
X49494285Y-133505000D01*
X50208571Y-133862142D02*
X48708571Y-133862142D01*
X48708571Y-133290714D01*
X48780000Y-133147857D01*
X48851428Y-133076428D01*
X48994285Y-133005000D01*
X49208571Y-133005000D01*
X49351428Y-133076428D01*
X49422857Y-133147857D01*
X49494285Y-133290714D01*
X49494285Y-133862142D01*
X50137142Y-132433571D02*
X50208571Y-132219285D01*
X50208571Y-131862142D01*
X50137142Y-131719285D01*
X50065714Y-131647857D01*
X49922857Y-131576428D01*
X49780000Y-131576428D01*
X49637142Y-131647857D01*
X49565714Y-131719285D01*
X49494285Y-131862142D01*
X49422857Y-132147857D01*
X49351428Y-132290714D01*
X49280000Y-132362142D01*
X49137142Y-132433571D01*
X48994285Y-132433571D01*
X48851428Y-132362142D01*
X48780000Y-132290714D01*
X48708571Y-132147857D01*
X48708571Y-131790714D01*
X48780000Y-131576428D01*
X50208571Y-129790714D02*
X48708571Y-129790714D01*
X50208571Y-128219285D02*
X49494285Y-128719285D01*
X50208571Y-129076428D02*
X48708571Y-129076428D01*
X48708571Y-128505000D01*
X48780000Y-128362142D01*
X48851428Y-128290714D01*
X48994285Y-128219285D01*
X49208571Y-128219285D01*
X49351428Y-128290714D01*
X49422857Y-128362142D01*
X49494285Y-128505000D01*
X49494285Y-129076428D01*
X45410714Y-114748571D02*
X46339285Y-114748571D01*
X45839285Y-115320000D01*
X46053571Y-115320000D01*
X46196428Y-115391428D01*
X46267857Y-115462857D01*
X46339285Y-115605714D01*
X46339285Y-115962857D01*
X46267857Y-116105714D01*
X46196428Y-116177142D01*
X46053571Y-116248571D01*
X45625000Y-116248571D01*
X45482142Y-116177142D01*
X45410714Y-116105714D01*
X46982142Y-116105714D02*
X47053571Y-116177142D01*
X46982142Y-116248571D01*
X46910714Y-116177142D01*
X46982142Y-116105714D01*
X46982142Y-116248571D01*
X47553571Y-114748571D02*
X48482142Y-114748571D01*
X47982142Y-115320000D01*
X48196428Y-115320000D01*
X48339285Y-115391428D01*
X48410714Y-115462857D01*
X48482142Y-115605714D01*
X48482142Y-115962857D01*
X48410714Y-116105714D01*
X48339285Y-116177142D01*
X48196428Y-116248571D01*
X47767857Y-116248571D01*
X47625000Y-116177142D01*
X47553571Y-116105714D01*
X48910714Y-114748571D02*
X49410714Y-116248571D01*
X49910714Y-114748571D01*
X55923571Y-113430000D02*
X54423571Y-113430000D01*
X55923571Y-112572857D02*
X55066428Y-113215714D01*
X54423571Y-112572857D02*
X55280714Y-113430000D01*
X55495000Y-112001428D02*
X55495000Y-111287142D01*
X55923571Y-112144285D02*
X54423571Y-111644285D01*
X55923571Y-111144285D01*
X55923571Y-110644285D02*
X54423571Y-110644285D01*
X54423571Y-110072857D01*
X54495000Y-109930000D01*
X54566428Y-109858571D01*
X54709285Y-109787142D01*
X54923571Y-109787142D01*
X55066428Y-109858571D01*
X55137857Y-109930000D01*
X55209285Y-110072857D01*
X55209285Y-110644285D01*
X55923571Y-109144285D02*
X54423571Y-109144285D01*
X54423571Y-108572857D01*
X54495000Y-108430000D01*
X54566428Y-108358571D01*
X54709285Y-108287142D01*
X54923571Y-108287142D01*
X55066428Y-108358571D01*
X55137857Y-108430000D01*
X55209285Y-108572857D01*
X55209285Y-109144285D01*
X55495000Y-107715714D02*
X55495000Y-107001428D01*
X55923571Y-107858571D02*
X54423571Y-107358571D01*
X55923571Y-106858571D01*
X55923571Y-105215714D02*
X54423571Y-105215714D01*
X55495000Y-104715714D01*
X54423571Y-104215714D01*
X55923571Y-104215714D01*
X55066428Y-103287142D02*
X54995000Y-103430000D01*
X54923571Y-103501428D01*
X54780714Y-103572857D01*
X54709285Y-103572857D01*
X54566428Y-103501428D01*
X54495000Y-103430000D01*
X54423571Y-103287142D01*
X54423571Y-103001428D01*
X54495000Y-102858571D01*
X54566428Y-102787142D01*
X54709285Y-102715714D01*
X54780714Y-102715714D01*
X54923571Y-102787142D01*
X54995000Y-102858571D01*
X55066428Y-103001428D01*
X55066428Y-103287142D01*
X55137857Y-103430000D01*
X55209285Y-103501428D01*
X55352142Y-103572857D01*
X55637857Y-103572857D01*
X55780714Y-103501428D01*
X55852142Y-103430000D01*
X55923571Y-103287142D01*
X55923571Y-103001428D01*
X55852142Y-102858571D01*
X55780714Y-102787142D01*
X55637857Y-102715714D01*
X55352142Y-102715714D01*
X55209285Y-102787142D01*
X55137857Y-102858571D01*
X55066428Y-103001428D01*
X54423571Y-101430000D02*
X54423571Y-101715714D01*
X54495000Y-101858571D01*
X54566428Y-101930000D01*
X54780714Y-102072857D01*
X55066428Y-102144285D01*
X55637857Y-102144285D01*
X55780714Y-102072857D01*
X55852142Y-102001428D01*
X55923571Y-101858571D01*
X55923571Y-101572857D01*
X55852142Y-101430000D01*
X55780714Y-101358571D01*
X55637857Y-101287142D01*
X55280714Y-101287142D01*
X55137857Y-101358571D01*
X55066428Y-101430000D01*
X54995000Y-101572857D01*
X54995000Y-101858571D01*
X55066428Y-102001428D01*
X55137857Y-102072857D01*
X55280714Y-102144285D01*
X55066428Y-100430000D02*
X54995000Y-100572857D01*
X54923571Y-100644285D01*
X54780714Y-100715714D01*
X54709285Y-100715714D01*
X54566428Y-100644285D01*
X54495000Y-100572857D01*
X54423571Y-100430000D01*
X54423571Y-100144285D01*
X54495000Y-100001428D01*
X54566428Y-99930000D01*
X54709285Y-99858571D01*
X54780714Y-99858571D01*
X54923571Y-99930000D01*
X54995000Y-100001428D01*
X55066428Y-100144285D01*
X55066428Y-100430000D01*
X55137857Y-100572857D01*
X55209285Y-100644285D01*
X55352142Y-100715714D01*
X55637857Y-100715714D01*
X55780714Y-100644285D01*
X55852142Y-100572857D01*
X55923571Y-100430000D01*
X55923571Y-100144285D01*
X55852142Y-100001428D01*
X55780714Y-99930000D01*
X55637857Y-99858571D01*
X55352142Y-99858571D01*
X55209285Y-99930000D01*
X55137857Y-100001428D01*
X55066428Y-100144285D01*
X85059285Y-142283571D02*
X85059285Y-140783571D01*
X85916428Y-142283571D01*
X85916428Y-140783571D01*
X87273571Y-141283571D02*
X87273571Y-142283571D01*
X86630714Y-141283571D02*
X86630714Y-142069285D01*
X86702142Y-142212142D01*
X86845000Y-142283571D01*
X87059285Y-142283571D01*
X87202142Y-142212142D01*
X87273571Y-142140714D01*
X88630714Y-142212142D02*
X88487857Y-142283571D01*
X88202142Y-142283571D01*
X88059285Y-142212142D01*
X87987857Y-142140714D01*
X87916428Y-141997857D01*
X87916428Y-141569285D01*
X87987857Y-141426428D01*
X88059285Y-141355000D01*
X88202142Y-141283571D01*
X88487857Y-141283571D01*
X88630714Y-141355000D01*
X89487857Y-142283571D02*
X89345000Y-142212142D01*
X89273571Y-142069285D01*
X89273571Y-140783571D01*
X90630714Y-142212142D02*
X90487857Y-142283571D01*
X90202142Y-142283571D01*
X90059285Y-142212142D01*
X89987857Y-142069285D01*
X89987857Y-141497857D01*
X90059285Y-141355000D01*
X90202142Y-141283571D01*
X90487857Y-141283571D01*
X90630714Y-141355000D01*
X90702142Y-141497857D01*
X90702142Y-141640714D01*
X89987857Y-141783571D01*
X91559285Y-142283571D02*
X91416428Y-142212142D01*
X91345000Y-142140714D01*
X91273571Y-141997857D01*
X91273571Y-141569285D01*
X91345000Y-141426428D01*
X91416428Y-141355000D01*
X91559285Y-141283571D01*
X91773571Y-141283571D01*
X91916428Y-141355000D01*
X91987857Y-141426428D01*
X92059285Y-141569285D01*
X92059285Y-141997857D01*
X91987857Y-142140714D01*
X91916428Y-142212142D01*
X91773571Y-142283571D01*
X91559285Y-142283571D01*
X94559285Y-142283571D02*
X93844999Y-142283571D01*
X93844999Y-140783571D01*
X95702142Y-141283571D02*
X95702142Y-142283571D01*
X95345000Y-140712142D02*
X94987857Y-141783571D01*
X95916428Y-141783571D01*
X96345000Y-140783571D02*
X97345000Y-140783571D01*
X96702142Y-142283571D01*
X98559285Y-140783571D02*
X98273571Y-140783571D01*
X98130714Y-140855000D01*
X98059285Y-140926428D01*
X97916428Y-141140714D01*
X97845000Y-141426428D01*
X97845000Y-141997857D01*
X97916428Y-142140714D01*
X97987857Y-142212142D01*
X98130714Y-142283571D01*
X98416428Y-142283571D01*
X98559285Y-142212142D01*
X98630714Y-142140714D01*
X98702142Y-141997857D01*
X98702142Y-141640714D01*
X98630714Y-141497857D01*
X98559285Y-141426428D01*
X98416428Y-141355000D01*
X98130714Y-141355000D01*
X97987857Y-141426428D01*
X97916428Y-141497857D01*
X97845000Y-141640714D01*
X100202142Y-142283571D02*
X99702142Y-141569285D01*
X99345000Y-142283571D02*
X99345000Y-140783571D01*
X99916428Y-140783571D01*
X100059285Y-140855000D01*
X100130714Y-140926428D01*
X100202142Y-141069285D01*
X100202142Y-141283571D01*
X100130714Y-141426428D01*
X100059285Y-141497857D01*
X99916428Y-141569285D01*
X99345000Y-141569285D01*
X101630714Y-140855000D02*
X101487857Y-140783571D01*
X101273571Y-140783571D01*
X101059285Y-140855000D01*
X100916428Y-140997857D01*
X100845000Y-141140714D01*
X100773571Y-141426428D01*
X100773571Y-141640714D01*
X100845000Y-141926428D01*
X100916428Y-142069285D01*
X101059285Y-142212142D01*
X101273571Y-142283571D01*
X101416428Y-142283571D01*
X101630714Y-142212142D01*
X101702142Y-142140714D01*
X101702142Y-141640714D01*
X101416428Y-141640714D01*
X98294285Y-168318571D02*
X97580000Y-168318571D01*
X97580000Y-166818571D01*
X98794285Y-168318571D02*
X98794285Y-166818571D01*
X99508571Y-168318571D02*
X99508571Y-166818571D01*
X99865714Y-166818571D01*
X100080000Y-166890000D01*
X100222857Y-167032857D01*
X100294285Y-167175714D01*
X100365714Y-167461428D01*
X100365714Y-167675714D01*
X100294285Y-167961428D01*
X100222857Y-168104285D01*
X100080000Y-168247142D01*
X99865714Y-168318571D01*
X99508571Y-168318571D01*
X100937142Y-167890000D02*
X101651428Y-167890000D01*
X100794285Y-168318571D02*
X101294285Y-166818571D01*
X101794285Y-168318571D01*
X103151428Y-168318571D02*
X102651428Y-167604285D01*
X102294285Y-168318571D02*
X102294285Y-166818571D01*
X102865714Y-166818571D01*
X103008571Y-166890000D01*
X103080000Y-166961428D01*
X103151428Y-167104285D01*
X103151428Y-167318571D01*
X103080000Y-167461428D01*
X103008571Y-167532857D01*
X102865714Y-167604285D01*
X102294285Y-167604285D01*
X142367142Y-116090000D02*
X142224285Y-116018571D01*
X142010000Y-116018571D01*
X141795714Y-116090000D01*
X141652857Y-116232857D01*
X141581428Y-116375714D01*
X141510000Y-116661428D01*
X141510000Y-116875714D01*
X141581428Y-117161428D01*
X141652857Y-117304285D01*
X141795714Y-117447142D01*
X142010000Y-117518571D01*
X142152857Y-117518571D01*
X142367142Y-117447142D01*
X142438571Y-117375714D01*
X142438571Y-116875714D01*
X142152857Y-116875714D01*
X143081428Y-117518571D02*
X143081428Y-116018571D01*
X143938571Y-117518571D01*
X143938571Y-116018571D01*
X144652857Y-117518571D02*
X144652857Y-116018571D01*
X145010000Y-116018571D01*
X145224285Y-116090000D01*
X145367142Y-116232857D01*
X145438571Y-116375714D01*
X145510000Y-116661428D01*
X145510000Y-116875714D01*
X145438571Y-117161428D01*
X145367142Y-117304285D01*
X145224285Y-117447142D01*
X145010000Y-117518571D01*
X144652857Y-117518571D01*
X133699285Y-88078571D02*
X132985000Y-88078571D01*
X132913571Y-88792857D01*
X132985000Y-88721428D01*
X133127857Y-88650000D01*
X133485000Y-88650000D01*
X133627857Y-88721428D01*
X133699285Y-88792857D01*
X133770714Y-88935714D01*
X133770714Y-89292857D01*
X133699285Y-89435714D01*
X133627857Y-89507142D01*
X133485000Y-89578571D01*
X133127857Y-89578571D01*
X132985000Y-89507142D01*
X132913571Y-89435714D01*
X134199285Y-88078571D02*
X134699285Y-89578571D01*
X135199285Y-88078571D01*
X159889285Y-105302857D02*
X160103571Y-105374285D01*
X160175000Y-105445714D01*
X160246428Y-105588571D01*
X160246428Y-105802857D01*
X160175000Y-105945714D01*
X160103571Y-106017142D01*
X159960714Y-106088571D01*
X159389285Y-106088571D01*
X159389285Y-104588571D01*
X159889285Y-104588571D01*
X160032142Y-104660000D01*
X160103571Y-104731428D01*
X160175000Y-104874285D01*
X160175000Y-105017142D01*
X160103571Y-105160000D01*
X160032142Y-105231428D01*
X159889285Y-105302857D01*
X159389285Y-105302857D01*
X160817857Y-105660000D02*
X161532142Y-105660000D01*
X160675000Y-106088571D02*
X161175000Y-104588571D01*
X161675000Y-106088571D01*
X161960714Y-104588571D02*
X162817857Y-104588571D01*
X162389285Y-106088571D02*
X162389285Y-104588571D01*
X163317857Y-105517142D02*
X164460714Y-105517142D01*
X163889285Y-106088571D02*
X163889285Y-104945714D01*
X160782142Y-110375000D02*
X160639285Y-110303571D01*
X160425000Y-110303571D01*
X160210714Y-110375000D01*
X160067857Y-110517857D01*
X159996428Y-110660714D01*
X159925000Y-110946428D01*
X159925000Y-111160714D01*
X159996428Y-111446428D01*
X160067857Y-111589285D01*
X160210714Y-111732142D01*
X160425000Y-111803571D01*
X160567857Y-111803571D01*
X160782142Y-111732142D01*
X160853571Y-111660714D01*
X160853571Y-111160714D01*
X160567857Y-111160714D01*
X161496428Y-111803571D02*
X161496428Y-110303571D01*
X162353571Y-111803571D01*
X162353571Y-110303571D01*
X163067857Y-111803571D02*
X163067857Y-110303571D01*
X163425000Y-110303571D01*
X163639285Y-110375000D01*
X163782142Y-110517857D01*
X163853571Y-110660714D01*
X163925000Y-110946428D01*
X163925000Y-111160714D01*
X163853571Y-111446428D01*
X163782142Y-111589285D01*
X163639285Y-111732142D01*
X163425000Y-111803571D01*
X163067857Y-111803571D01*
X149578571Y-100222857D02*
X149792857Y-100294285D01*
X149864285Y-100365714D01*
X149935714Y-100508571D01*
X149935714Y-100722857D01*
X149864285Y-100865714D01*
X149792857Y-100937142D01*
X149650000Y-101008571D01*
X149078571Y-101008571D01*
X149078571Y-99508571D01*
X149578571Y-99508571D01*
X149721428Y-99580000D01*
X149792857Y-99651428D01*
X149864285Y-99794285D01*
X149864285Y-99937142D01*
X149792857Y-100080000D01*
X149721428Y-100151428D01*
X149578571Y-100222857D01*
X149078571Y-100222857D01*
X150507142Y-100580000D02*
X151221428Y-100580000D01*
X150364285Y-101008571D02*
X150864285Y-99508571D01*
X151364285Y-101008571D01*
X151650000Y-99508571D02*
X152507142Y-99508571D01*
X152078571Y-101008571D02*
X152078571Y-99508571D01*
X152650000Y-101151428D02*
X153792857Y-101151428D01*
X154150000Y-101008571D02*
X154150000Y-99508571D01*
X154864285Y-101008571D02*
X154864285Y-99508571D01*
X155721428Y-101008571D01*
X155721428Y-99508571D01*
X51911428Y-165143571D02*
X51911428Y-163643571D01*
X52411428Y-164715000D01*
X52911428Y-163643571D01*
X52911428Y-165143571D01*
X53625714Y-164572142D02*
X54768571Y-164572142D01*
X54197142Y-165143571D02*
X54197142Y-164000714D01*
X35917857Y-165143571D02*
X35917857Y-163643571D01*
X36417857Y-164715000D01*
X36917857Y-163643571D01*
X36917857Y-165143571D01*
X37917857Y-163643571D02*
X38203571Y-163643571D01*
X38346428Y-163715000D01*
X38489285Y-163857857D01*
X38560714Y-164143571D01*
X38560714Y-164643571D01*
X38489285Y-164929285D01*
X38346428Y-165072142D01*
X38203571Y-165143571D01*
X37917857Y-165143571D01*
X37775000Y-165072142D01*
X37632142Y-164929285D01*
X37560714Y-164643571D01*
X37560714Y-164143571D01*
X37632142Y-163857857D01*
X37775000Y-163715000D01*
X37917857Y-163643571D01*
X38989285Y-163643571D02*
X39846428Y-163643571D01*
X39417857Y-165143571D02*
X39417857Y-163643571D01*
X40346428Y-164357857D02*
X40846428Y-164357857D01*
X41060714Y-165143571D02*
X40346428Y-165143571D01*
X40346428Y-163643571D01*
X41060714Y-163643571D01*
X41703571Y-163643571D02*
X41703571Y-164857857D01*
X41775000Y-165000714D01*
X41846428Y-165072142D01*
X41989285Y-165143571D01*
X42275000Y-165143571D01*
X42417857Y-165072142D01*
X42489285Y-165000714D01*
X42560714Y-164857857D01*
X42560714Y-163643571D01*
X44132142Y-165143571D02*
X43632142Y-164429285D01*
X43275000Y-165143571D02*
X43275000Y-163643571D01*
X43846428Y-163643571D01*
X43989285Y-163715000D01*
X44060714Y-163786428D01*
X44132142Y-163929285D01*
X44132142Y-164143571D01*
X44060714Y-164286428D01*
X43989285Y-164357857D01*
X43846428Y-164429285D01*
X43275000Y-164429285D01*
X46703571Y-165143571D02*
X45846428Y-165143571D01*
X46275000Y-165143571D02*
X46275000Y-163643571D01*
X46132142Y-163857857D01*
X45989285Y-164000714D01*
X45846428Y-164072142D01*
X160377857Y-128948571D02*
X160377857Y-127448571D01*
X160877857Y-128520000D01*
X161377857Y-127448571D01*
X161377857Y-128948571D01*
X162377857Y-127448571D02*
X162663571Y-127448571D01*
X162806428Y-127520000D01*
X162949285Y-127662857D01*
X163020714Y-127948571D01*
X163020714Y-128448571D01*
X162949285Y-128734285D01*
X162806428Y-128877142D01*
X162663571Y-128948571D01*
X162377857Y-128948571D01*
X162235000Y-128877142D01*
X162092142Y-128734285D01*
X162020714Y-128448571D01*
X162020714Y-127948571D01*
X162092142Y-127662857D01*
X162235000Y-127520000D01*
X162377857Y-127448571D01*
X163449285Y-127448571D02*
X164306428Y-127448571D01*
X163877857Y-128948571D02*
X163877857Y-127448571D01*
X164806428Y-128162857D02*
X165306428Y-128162857D01*
X165520714Y-128948571D02*
X164806428Y-128948571D01*
X164806428Y-127448571D01*
X165520714Y-127448571D01*
X166163571Y-127448571D02*
X166163571Y-128662857D01*
X166235000Y-128805714D01*
X166306428Y-128877142D01*
X166449285Y-128948571D01*
X166735000Y-128948571D01*
X166877857Y-128877142D01*
X166949285Y-128805714D01*
X167020714Y-128662857D01*
X167020714Y-127448571D01*
X168592142Y-128948571D02*
X168092142Y-128234285D01*
X167735000Y-128948571D02*
X167735000Y-127448571D01*
X168306428Y-127448571D01*
X168449285Y-127520000D01*
X168520714Y-127591428D01*
X168592142Y-127734285D01*
X168592142Y-127948571D01*
X168520714Y-128091428D01*
X168449285Y-128162857D01*
X168306428Y-128234285D01*
X167735000Y-128234285D01*
X170306428Y-127591428D02*
X170377857Y-127520000D01*
X170520714Y-127448571D01*
X170877857Y-127448571D01*
X171020714Y-127520000D01*
X171092142Y-127591428D01*
X171163571Y-127734285D01*
X171163571Y-127877142D01*
X171092142Y-128091428D01*
X170235000Y-128948571D01*
X171163571Y-128948571D01*
X156051428Y-122598571D02*
X156051428Y-121098571D01*
X156551428Y-122170000D01*
X157051428Y-121098571D01*
X157051428Y-122598571D01*
X157765714Y-122027142D02*
X158908571Y-122027142D01*
X158337142Y-122598571D02*
X158337142Y-121455714D01*
X80486428Y-26078571D02*
X80486428Y-24578571D01*
X80986428Y-25650000D01*
X81486428Y-24578571D01*
X81486428Y-26078571D01*
X82200714Y-25507142D02*
X83343571Y-25507142D01*
X82772142Y-26078571D02*
X82772142Y-24935714D01*
X75608571Y-45997142D02*
X74108571Y-45997142D01*
X75180000Y-45497142D01*
X74108571Y-44997142D01*
X75608571Y-44997142D01*
X74108571Y-43997142D02*
X74108571Y-43711428D01*
X74180000Y-43568571D01*
X74322857Y-43425714D01*
X74608571Y-43354285D01*
X75108571Y-43354285D01*
X75394285Y-43425714D01*
X75537142Y-43568571D01*
X75608571Y-43711428D01*
X75608571Y-43997142D01*
X75537142Y-44140000D01*
X75394285Y-44282857D01*
X75108571Y-44354285D01*
X74608571Y-44354285D01*
X74322857Y-44282857D01*
X74180000Y-44140000D01*
X74108571Y-43997142D01*
X74108571Y-42925714D02*
X74108571Y-42068571D01*
X75608571Y-42497142D02*
X74108571Y-42497142D01*
X74822857Y-41568571D02*
X74822857Y-41068571D01*
X75608571Y-40854285D02*
X75608571Y-41568571D01*
X74108571Y-41568571D01*
X74108571Y-40854285D01*
X74108571Y-40211428D02*
X75322857Y-40211428D01*
X75465714Y-40140000D01*
X75537142Y-40068571D01*
X75608571Y-39925714D01*
X75608571Y-39640000D01*
X75537142Y-39497142D01*
X75465714Y-39425714D01*
X75322857Y-39354285D01*
X74108571Y-39354285D01*
X75608571Y-37782857D02*
X74894285Y-38282857D01*
X75608571Y-38640000D02*
X74108571Y-38640000D01*
X74108571Y-38068571D01*
X74180000Y-37925714D01*
X74251428Y-37854285D01*
X74394285Y-37782857D01*
X74608571Y-37782857D01*
X74751428Y-37854285D01*
X74822857Y-37925714D01*
X74894285Y-38068571D01*
X74894285Y-38640000D01*
X74108571Y-36140000D02*
X74108571Y-35211428D01*
X74680000Y-35711428D01*
X74680000Y-35497142D01*
X74751428Y-35354285D01*
X74822857Y-35282857D01*
X74965714Y-35211428D01*
X75322857Y-35211428D01*
X75465714Y-35282857D01*
X75537142Y-35354285D01*
X75608571Y-35497142D01*
X75608571Y-35925714D01*
X75537142Y-36068571D01*
X75465714Y-36140000D01*
D11*
X74922857Y-70302380D02*
X74589523Y-69826190D01*
X74351428Y-70302380D02*
X74351428Y-69302380D01*
X74732380Y-69302380D01*
X74827619Y-69350000D01*
X74875238Y-69397619D01*
X74922857Y-69492857D01*
X74922857Y-69635714D01*
X74875238Y-69730952D01*
X74827619Y-69778571D01*
X74732380Y-69826190D01*
X74351428Y-69826190D01*
X75351428Y-70302380D02*
X75351428Y-69302380D01*
X75922857Y-70302380D01*
X75922857Y-69302380D01*
X76827619Y-69635714D02*
X76827619Y-70302380D01*
X76589523Y-69254761D02*
X76351428Y-69969047D01*
X76970476Y-69969047D01*
X77303809Y-69397619D02*
X77351428Y-69350000D01*
X77446666Y-69302380D01*
X77684761Y-69302380D01*
X77780000Y-69350000D01*
X77827619Y-69397619D01*
X77875238Y-69492857D01*
X77875238Y-69588095D01*
X77827619Y-69730952D01*
X77256190Y-70302380D01*
X77875238Y-70302380D01*
X79780000Y-69254761D02*
X78922857Y-70540476D01*
X80875238Y-70302380D02*
X80875238Y-69302380D01*
X81208571Y-70016666D01*
X81541904Y-69302380D01*
X81541904Y-70302380D01*
X82160952Y-70302380D02*
X82065714Y-70254761D01*
X82018095Y-70207142D01*
X81970476Y-70111904D01*
X81970476Y-69826190D01*
X82018095Y-69730952D01*
X82065714Y-69683333D01*
X82160952Y-69635714D01*
X82303809Y-69635714D01*
X82399047Y-69683333D01*
X82446666Y-69730952D01*
X82494285Y-69826190D01*
X82494285Y-70111904D01*
X82446666Y-70207142D01*
X82399047Y-70254761D01*
X82303809Y-70302380D01*
X82160952Y-70302380D01*
X83351428Y-70302380D02*
X83351428Y-69302380D01*
X83351428Y-70254761D02*
X83256190Y-70302380D01*
X83065714Y-70302380D01*
X82970476Y-70254761D01*
X82922857Y-70207142D01*
X82875238Y-70111904D01*
X82875238Y-69826190D01*
X82922857Y-69730952D01*
X82970476Y-69683333D01*
X83065714Y-69635714D01*
X83256190Y-69635714D01*
X83351428Y-69683333D01*
X84256190Y-69635714D02*
X84256190Y-70302380D01*
X83827619Y-69635714D02*
X83827619Y-70159523D01*
X83875238Y-70254761D01*
X83970476Y-70302380D01*
X84113333Y-70302380D01*
X84208571Y-70254761D01*
X84256190Y-70207142D01*
X84875238Y-70302380D02*
X84780000Y-70254761D01*
X84732380Y-70159523D01*
X84732380Y-69302380D01*
X85637142Y-70254761D02*
X85541904Y-70302380D01*
X85351428Y-70302380D01*
X85256190Y-70254761D01*
X85208571Y-70159523D01*
X85208571Y-69778571D01*
X85256190Y-69683333D01*
X85351428Y-69635714D01*
X85541904Y-69635714D01*
X85637142Y-69683333D01*
X85684761Y-69778571D01*
X85684761Y-69873809D01*
X85208571Y-69969047D01*
X86780000Y-69302380D02*
X87446666Y-70302380D01*
X87446666Y-69302380D02*
X86780000Y-70302380D01*
X87684761Y-69302380D02*
X88018095Y-70302380D01*
X88351428Y-69302380D01*
X134955595Y-136342380D02*
X134955595Y-135342380D01*
X135336547Y-135342380D01*
X135431785Y-135390000D01*
X135479404Y-135437619D01*
X135527023Y-135532857D01*
X135527023Y-135675714D01*
X135479404Y-135770952D01*
X135431785Y-135818571D01*
X135336547Y-135866190D01*
X134955595Y-135866190D01*
X136288928Y-135818571D02*
X136431785Y-135866190D01*
X136479404Y-135913809D01*
X136527023Y-136009047D01*
X136527023Y-136151904D01*
X136479404Y-136247142D01*
X136431785Y-136294761D01*
X136336547Y-136342380D01*
X135955595Y-136342380D01*
X135955595Y-135342380D01*
X136288928Y-135342380D01*
X136384166Y-135390000D01*
X136431785Y-135437619D01*
X136479404Y-135532857D01*
X136479404Y-135628095D01*
X136431785Y-135723333D01*
X136384166Y-135770952D01*
X136288928Y-135818571D01*
X135955595Y-135818571D01*
X136717500Y-136437619D02*
X137479404Y-136437619D01*
X138241309Y-136342380D02*
X137669880Y-136342380D01*
X137955595Y-136342380D02*
X137955595Y-135342380D01*
X137860357Y-135485238D01*
X137765119Y-135580476D01*
X137669880Y-135628095D01*
X138574642Y-135342380D02*
X139193690Y-135342380D01*
X138860357Y-135723333D01*
X139003214Y-135723333D01*
X139098452Y-135770952D01*
X139146071Y-135818571D01*
X139193690Y-135913809D01*
X139193690Y-136151904D01*
X139146071Y-136247142D01*
X139098452Y-136294761D01*
X139003214Y-136342380D01*
X138717500Y-136342380D01*
X138622261Y-136294761D01*
X138574642Y-136247142D01*
X134844404Y-125865000D02*
X134749166Y-125817380D01*
X134606309Y-125817380D01*
X134463452Y-125865000D01*
X134368214Y-125960238D01*
X134320595Y-126055476D01*
X134272976Y-126245952D01*
X134272976Y-126388809D01*
X134320595Y-126579285D01*
X134368214Y-126674523D01*
X134463452Y-126769761D01*
X134606309Y-126817380D01*
X134701547Y-126817380D01*
X134844404Y-126769761D01*
X134892023Y-126722142D01*
X134892023Y-126388809D01*
X134701547Y-126388809D01*
X135320595Y-126817380D02*
X135320595Y-125817380D01*
X135892023Y-126817380D01*
X135892023Y-125817380D01*
X136368214Y-126817380D02*
X136368214Y-125817380D01*
X136606309Y-125817380D01*
X136749166Y-125865000D01*
X136844404Y-125960238D01*
X136892023Y-126055476D01*
X136939642Y-126245952D01*
X136939642Y-126388809D01*
X136892023Y-126579285D01*
X136844404Y-126674523D01*
X136749166Y-126769761D01*
X136606309Y-126817380D01*
X136368214Y-126817380D01*
D12*
%TO.C,J10*%
X67170001Y-156190001D02*
X72370001Y-156190001D01*
X67170001Y-107870001D02*
X67170001Y-156190001D01*
X72370001Y-105270001D02*
X72370001Y-156190001D01*
X67170001Y-107870001D02*
X69770001Y-107870001D01*
X69770001Y-107870001D02*
X69770001Y-105270001D01*
X69770001Y-105270001D02*
X72370001Y-105270001D01*
X67170001Y-106600001D02*
X67170001Y-105270001D01*
X67170001Y-105270001D02*
X68500001Y-105270001D01*
%TO.C,J14*%
X128210000Y-105270001D02*
X129540000Y-105270001D01*
X128210000Y-106600001D02*
X128210000Y-105270001D01*
X130810000Y-105270001D02*
X133410000Y-105270001D01*
X130810000Y-107870001D02*
X130810000Y-105270001D01*
X128210000Y-107870001D02*
X130810000Y-107870001D01*
X133410000Y-105270001D02*
X133410000Y-156190001D01*
X128210000Y-107870001D02*
X128210000Y-156190001D01*
X128210000Y-156190001D02*
X133410000Y-156190001D01*
%TO.C,J9*%
X70695000Y-74720000D02*
X70695000Y-73660000D01*
X71755000Y-74720000D02*
X70695000Y-74720000D01*
X72755000Y-74720000D02*
X72755000Y-72600000D01*
X72755000Y-72600000D02*
X90815000Y-72600000D01*
X72755000Y-74720000D02*
X90815000Y-74720000D01*
X90815000Y-74720000D02*
X90815000Y-72600000D01*
%TO.C,J11*%
X90815000Y-52495000D02*
X90815000Y-50375000D01*
X72755000Y-52495000D02*
X90815000Y-52495000D01*
X72755000Y-50375000D02*
X90815000Y-50375000D01*
X72755000Y-52495000D02*
X72755000Y-50375000D01*
X71755000Y-52495000D02*
X70695000Y-52495000D01*
X70695000Y-52495000D02*
X70695000Y-51435000D01*
%TO.C,C1*%
X143590000Y-74930000D02*
G75*
G03X143590000Y-74930000I-5120000J0D01*
G01*
X138470000Y-80010000D02*
X138470000Y-69850000D01*
X138430000Y-80010000D02*
X138430000Y-69850000D01*
X138390000Y-80010000D02*
X138390000Y-69850000D01*
X138350000Y-80009000D02*
X138350000Y-69851000D01*
X138310000Y-80008000D02*
X138310000Y-69852000D01*
X138270000Y-80007000D02*
X138270000Y-69853000D01*
X138230000Y-80005000D02*
X138230000Y-69855000D01*
X138190000Y-80003000D02*
X138190000Y-69857000D01*
X138150000Y-80000000D02*
X138150000Y-69860000D01*
X138110000Y-79998000D02*
X138110000Y-69862000D01*
X138070000Y-79995000D02*
X138070000Y-69865000D01*
X138030000Y-79992000D02*
X138030000Y-69868000D01*
X137990000Y-79988000D02*
X137990000Y-69872000D01*
X137950000Y-79984000D02*
X137950000Y-69876000D01*
X137910000Y-79980000D02*
X137910000Y-69880000D01*
X137870000Y-79975000D02*
X137870000Y-69885000D01*
X137830000Y-79970000D02*
X137830000Y-69890000D01*
X137790000Y-79965000D02*
X137790000Y-69895000D01*
X137749000Y-79960000D02*
X137749000Y-69900000D01*
X137709000Y-79954000D02*
X137709000Y-69906000D01*
X137669000Y-79948000D02*
X137669000Y-69912000D01*
X137629000Y-79941000D02*
X137629000Y-69919000D01*
X137589000Y-79934000D02*
X137589000Y-69926000D01*
X137549000Y-79927000D02*
X137549000Y-69933000D01*
X137509000Y-79920000D02*
X137509000Y-69940000D01*
X137469000Y-79912000D02*
X137469000Y-69948000D01*
X137429000Y-79904000D02*
X137429000Y-69956000D01*
X137389000Y-79895000D02*
X137389000Y-69965000D01*
X137349000Y-79886000D02*
X137349000Y-69974000D01*
X137309000Y-79877000D02*
X137309000Y-69983000D01*
X137269000Y-79868000D02*
X137269000Y-69992000D01*
X137229000Y-79858000D02*
X137229000Y-70002000D01*
X137189000Y-79848000D02*
X137189000Y-76171000D01*
X137189000Y-73689000D02*
X137189000Y-70012000D01*
X137149000Y-79837000D02*
X137149000Y-76171000D01*
X137149000Y-73689000D02*
X137149000Y-70023000D01*
X137109000Y-79827000D02*
X137109000Y-76171000D01*
X137109000Y-73689000D02*
X137109000Y-70033000D01*
X137069000Y-79815000D02*
X137069000Y-76171000D01*
X137069000Y-73689000D02*
X137069000Y-70045000D01*
X137029000Y-79804000D02*
X137029000Y-76171000D01*
X137029000Y-73689000D02*
X137029000Y-70056000D01*
X136989000Y-79792000D02*
X136989000Y-76171000D01*
X136989000Y-73689000D02*
X136989000Y-70068000D01*
X136949000Y-79780000D02*
X136949000Y-76171000D01*
X136949000Y-73689000D02*
X136949000Y-70080000D01*
X136909000Y-79767000D02*
X136909000Y-76171000D01*
X136909000Y-73689000D02*
X136909000Y-70093000D01*
X136869000Y-79754000D02*
X136869000Y-76171000D01*
X136869000Y-73689000D02*
X136869000Y-70106000D01*
X136829000Y-79741000D02*
X136829000Y-76171000D01*
X136829000Y-73689000D02*
X136829000Y-70119000D01*
X136789000Y-79727000D02*
X136789000Y-76171000D01*
X136789000Y-73689000D02*
X136789000Y-70133000D01*
X136749000Y-79713000D02*
X136749000Y-76171000D01*
X136749000Y-73689000D02*
X136749000Y-70147000D01*
X136709000Y-79698000D02*
X136709000Y-76171000D01*
X136709000Y-73689000D02*
X136709000Y-70162000D01*
X136669000Y-79684000D02*
X136669000Y-76171000D01*
X136669000Y-73689000D02*
X136669000Y-70176000D01*
X136629000Y-79668000D02*
X136629000Y-76171000D01*
X136629000Y-73689000D02*
X136629000Y-70192000D01*
X136589000Y-79653000D02*
X136589000Y-76171000D01*
X136589000Y-73689000D02*
X136589000Y-70207000D01*
X136549000Y-79637000D02*
X136549000Y-76171000D01*
X136549000Y-73689000D02*
X136549000Y-70223000D01*
X136509000Y-79620000D02*
X136509000Y-76171000D01*
X136509000Y-73689000D02*
X136509000Y-70240000D01*
X136469000Y-79604000D02*
X136469000Y-76171000D01*
X136469000Y-73689000D02*
X136469000Y-70256000D01*
X136429000Y-79587000D02*
X136429000Y-76171000D01*
X136429000Y-73689000D02*
X136429000Y-70273000D01*
X136389000Y-79569000D02*
X136389000Y-76171000D01*
X136389000Y-73689000D02*
X136389000Y-70291000D01*
X136349000Y-79551000D02*
X136349000Y-76171000D01*
X136349000Y-73689000D02*
X136349000Y-70309000D01*
X136309000Y-79533000D02*
X136309000Y-76171000D01*
X136309000Y-73689000D02*
X136309000Y-70327000D01*
X136269000Y-79514000D02*
X136269000Y-76171000D01*
X136269000Y-73689000D02*
X136269000Y-70346000D01*
X136229000Y-79494000D02*
X136229000Y-76171000D01*
X136229000Y-73689000D02*
X136229000Y-70366000D01*
X136189000Y-79475000D02*
X136189000Y-76171000D01*
X136189000Y-73689000D02*
X136189000Y-70385000D01*
X136149000Y-79455000D02*
X136149000Y-76171000D01*
X136149000Y-73689000D02*
X136149000Y-70405000D01*
X136109000Y-79434000D02*
X136109000Y-76171000D01*
X136109000Y-73689000D02*
X136109000Y-70426000D01*
X136069000Y-79413000D02*
X136069000Y-76171000D01*
X136069000Y-73689000D02*
X136069000Y-70447000D01*
X136029000Y-79392000D02*
X136029000Y-76171000D01*
X136029000Y-73689000D02*
X136029000Y-70468000D01*
X135989000Y-79370000D02*
X135989000Y-76171000D01*
X135989000Y-73689000D02*
X135989000Y-70490000D01*
X135949000Y-79347000D02*
X135949000Y-76171000D01*
X135949000Y-73689000D02*
X135949000Y-70513000D01*
X135909000Y-79325000D02*
X135909000Y-76171000D01*
X135909000Y-73689000D02*
X135909000Y-70535000D01*
X135869000Y-79301000D02*
X135869000Y-76171000D01*
X135869000Y-73689000D02*
X135869000Y-70559000D01*
X135829000Y-79277000D02*
X135829000Y-76171000D01*
X135829000Y-73689000D02*
X135829000Y-70583000D01*
X135789000Y-79253000D02*
X135789000Y-76171000D01*
X135789000Y-73689000D02*
X135789000Y-70607000D01*
X135749000Y-79228000D02*
X135749000Y-76171000D01*
X135749000Y-73689000D02*
X135749000Y-70632000D01*
X135709000Y-79203000D02*
X135709000Y-76171000D01*
X135709000Y-73689000D02*
X135709000Y-70657000D01*
X135669000Y-79177000D02*
X135669000Y-76171000D01*
X135669000Y-73689000D02*
X135669000Y-70683000D01*
X135629000Y-79151000D02*
X135629000Y-76171000D01*
X135629000Y-73689000D02*
X135629000Y-70709000D01*
X135589000Y-79124000D02*
X135589000Y-76171000D01*
X135589000Y-73689000D02*
X135589000Y-70736000D01*
X135549000Y-79096000D02*
X135549000Y-76171000D01*
X135549000Y-73689000D02*
X135549000Y-70764000D01*
X135509000Y-79068000D02*
X135509000Y-76171000D01*
X135509000Y-73689000D02*
X135509000Y-70792000D01*
X135469000Y-79040000D02*
X135469000Y-76171000D01*
X135469000Y-73689000D02*
X135469000Y-70820000D01*
X135429000Y-79010000D02*
X135429000Y-76171000D01*
X135429000Y-73689000D02*
X135429000Y-70850000D01*
X135389000Y-78980000D02*
X135389000Y-76171000D01*
X135389000Y-73689000D02*
X135389000Y-70880000D01*
X135349000Y-78950000D02*
X135349000Y-76171000D01*
X135349000Y-73689000D02*
X135349000Y-70910000D01*
X135309000Y-78919000D02*
X135309000Y-76171000D01*
X135309000Y-73689000D02*
X135309000Y-70941000D01*
X135269000Y-78887000D02*
X135269000Y-76171000D01*
X135269000Y-73689000D02*
X135269000Y-70973000D01*
X135229000Y-78855000D02*
X135229000Y-76171000D01*
X135229000Y-73689000D02*
X135229000Y-71005000D01*
X135189000Y-78822000D02*
X135189000Y-76171000D01*
X135189000Y-73689000D02*
X135189000Y-71038000D01*
X135149000Y-78788000D02*
X135149000Y-76171000D01*
X135149000Y-73689000D02*
X135149000Y-71072000D01*
X135109000Y-78754000D02*
X135109000Y-76171000D01*
X135109000Y-73689000D02*
X135109000Y-71106000D01*
X135069000Y-78719000D02*
X135069000Y-76171000D01*
X135069000Y-73689000D02*
X135069000Y-71141000D01*
X135029000Y-78683000D02*
X135029000Y-76171000D01*
X135029000Y-73689000D02*
X135029000Y-71177000D01*
X134989000Y-78646000D02*
X134989000Y-76171000D01*
X134989000Y-73689000D02*
X134989000Y-71214000D01*
X134949000Y-78609000D02*
X134949000Y-76171000D01*
X134949000Y-73689000D02*
X134949000Y-71251000D01*
X134909000Y-78570000D02*
X134909000Y-76171000D01*
X134909000Y-73689000D02*
X134909000Y-71290000D01*
X134869000Y-78531000D02*
X134869000Y-76171000D01*
X134869000Y-73689000D02*
X134869000Y-71329000D01*
X134829000Y-78491000D02*
X134829000Y-76171000D01*
X134829000Y-73689000D02*
X134829000Y-71369000D01*
X134789000Y-78450000D02*
X134789000Y-76171000D01*
X134789000Y-73689000D02*
X134789000Y-71410000D01*
X134749000Y-78408000D02*
X134749000Y-76171000D01*
X134749000Y-73689000D02*
X134749000Y-71452000D01*
X134709000Y-78366000D02*
X134709000Y-71494000D01*
X134669000Y-78322000D02*
X134669000Y-71538000D01*
X134629000Y-78277000D02*
X134629000Y-71583000D01*
X134589000Y-78231000D02*
X134589000Y-71629000D01*
X134549000Y-78184000D02*
X134549000Y-71676000D01*
X134509000Y-78136000D02*
X134509000Y-71724000D01*
X134469000Y-78086000D02*
X134469000Y-71774000D01*
X134429000Y-78036000D02*
X134429000Y-71824000D01*
X134389000Y-77984000D02*
X134389000Y-71876000D01*
X134349000Y-77930000D02*
X134349000Y-71930000D01*
X134309000Y-77875000D02*
X134309000Y-71985000D01*
X134269000Y-77819000D02*
X134269000Y-72041000D01*
X134229000Y-77760000D02*
X134229000Y-72100000D01*
X134189000Y-77700000D02*
X134189000Y-72160000D01*
X134149000Y-77639000D02*
X134149000Y-72221000D01*
X134109000Y-77575000D02*
X134109000Y-72285000D01*
X134069000Y-77509000D02*
X134069000Y-72351000D01*
X134029000Y-77440000D02*
X134029000Y-72420000D01*
X133989000Y-77369000D02*
X133989000Y-72491000D01*
X133949000Y-77295000D02*
X133949000Y-72565000D01*
X133909000Y-77219000D02*
X133909000Y-72641000D01*
X133869000Y-77139000D02*
X133869000Y-72721000D01*
X133829000Y-77055000D02*
X133829000Y-72805000D01*
X133789000Y-76967000D02*
X133789000Y-72893000D01*
X133749000Y-76874000D02*
X133749000Y-72986000D01*
X133709000Y-76776000D02*
X133709000Y-73084000D01*
X133669000Y-76672000D02*
X133669000Y-73188000D01*
X133629000Y-76560000D02*
X133629000Y-73300000D01*
X133589000Y-76440000D02*
X133589000Y-73420000D01*
X133549000Y-76308000D02*
X133549000Y-73552000D01*
X133509000Y-76160000D02*
X133509000Y-73700000D01*
X133469000Y-75992000D02*
X133469000Y-73868000D01*
X133429000Y-75792000D02*
X133429000Y-74068000D01*
X133389000Y-75529000D02*
X133389000Y-74331000D01*
X143949646Y-77805000D02*
X142949646Y-77805000D01*
X143449646Y-78305000D02*
X143449646Y-77305000D01*
%TO.C,C4*%
X119440354Y-55680000D02*
X119440354Y-56680000D01*
X118940354Y-56180000D02*
X119940354Y-56180000D01*
X129501000Y-58456000D02*
X129501000Y-59654000D01*
X129461000Y-58193000D02*
X129461000Y-59917000D01*
X129421000Y-57993000D02*
X129421000Y-60117000D01*
X129381000Y-57825000D02*
X129381000Y-60285000D01*
X129341000Y-57677000D02*
X129341000Y-60433000D01*
X129301000Y-57545000D02*
X129301000Y-60565000D01*
X129261000Y-57425000D02*
X129261000Y-60685000D01*
X129221000Y-57313000D02*
X129221000Y-60797000D01*
X129181000Y-57209000D02*
X129181000Y-60901000D01*
X129141000Y-57111000D02*
X129141000Y-60999000D01*
X129101000Y-57018000D02*
X129101000Y-61092000D01*
X129061000Y-56930000D02*
X129061000Y-61180000D01*
X129021000Y-56846000D02*
X129021000Y-61264000D01*
X128981000Y-56766000D02*
X128981000Y-61344000D01*
X128941000Y-56690000D02*
X128941000Y-61420000D01*
X128901000Y-56616000D02*
X128901000Y-61494000D01*
X128861000Y-56545000D02*
X128861000Y-61565000D01*
X128821000Y-56476000D02*
X128821000Y-61634000D01*
X128781000Y-56410000D02*
X128781000Y-61700000D01*
X128741000Y-56346000D02*
X128741000Y-61764000D01*
X128701000Y-56285000D02*
X128701000Y-61825000D01*
X128661000Y-56225000D02*
X128661000Y-61885000D01*
X128621000Y-56166000D02*
X128621000Y-61944000D01*
X128581000Y-56110000D02*
X128581000Y-62000000D01*
X128541000Y-56055000D02*
X128541000Y-62055000D01*
X128501000Y-56001000D02*
X128501000Y-62109000D01*
X128461000Y-55949000D02*
X128461000Y-62161000D01*
X128421000Y-55899000D02*
X128421000Y-62211000D01*
X128381000Y-55849000D02*
X128381000Y-62261000D01*
X128341000Y-55801000D02*
X128341000Y-62309000D01*
X128301000Y-55754000D02*
X128301000Y-62356000D01*
X128261000Y-55708000D02*
X128261000Y-62402000D01*
X128221000Y-55663000D02*
X128221000Y-62447000D01*
X128181000Y-55619000D02*
X128181000Y-62491000D01*
X128141000Y-60296000D02*
X128141000Y-62533000D01*
X128141000Y-55577000D02*
X128141000Y-57814000D01*
X128101000Y-60296000D02*
X128101000Y-62575000D01*
X128101000Y-55535000D02*
X128101000Y-57814000D01*
X128061000Y-60296000D02*
X128061000Y-62616000D01*
X128061000Y-55494000D02*
X128061000Y-57814000D01*
X128021000Y-60296000D02*
X128021000Y-62656000D01*
X128021000Y-55454000D02*
X128021000Y-57814000D01*
X127981000Y-60296000D02*
X127981000Y-62695000D01*
X127981000Y-55415000D02*
X127981000Y-57814000D01*
X127941000Y-60296000D02*
X127941000Y-62734000D01*
X127941000Y-55376000D02*
X127941000Y-57814000D01*
X127901000Y-60296000D02*
X127901000Y-62771000D01*
X127901000Y-55339000D02*
X127901000Y-57814000D01*
X127861000Y-60296000D02*
X127861000Y-62808000D01*
X127861000Y-55302000D02*
X127861000Y-57814000D01*
X127821000Y-60296000D02*
X127821000Y-62844000D01*
X127821000Y-55266000D02*
X127821000Y-57814000D01*
X127781000Y-60296000D02*
X127781000Y-62879000D01*
X127781000Y-55231000D02*
X127781000Y-57814000D01*
X127741000Y-60296000D02*
X127741000Y-62913000D01*
X127741000Y-55197000D02*
X127741000Y-57814000D01*
X127701000Y-60296000D02*
X127701000Y-62947000D01*
X127701000Y-55163000D02*
X127701000Y-57814000D01*
X127661000Y-60296000D02*
X127661000Y-62980000D01*
X127661000Y-55130000D02*
X127661000Y-57814000D01*
X127621000Y-60296000D02*
X127621000Y-63012000D01*
X127621000Y-55098000D02*
X127621000Y-57814000D01*
X127581000Y-60296000D02*
X127581000Y-63044000D01*
X127581000Y-55066000D02*
X127581000Y-57814000D01*
X127541000Y-60296000D02*
X127541000Y-63075000D01*
X127541000Y-55035000D02*
X127541000Y-57814000D01*
X127501000Y-60296000D02*
X127501000Y-63105000D01*
X127501000Y-55005000D02*
X127501000Y-57814000D01*
X127461000Y-60296000D02*
X127461000Y-63135000D01*
X127461000Y-54975000D02*
X127461000Y-57814000D01*
X127421000Y-60296000D02*
X127421000Y-63165000D01*
X127421000Y-54945000D02*
X127421000Y-57814000D01*
X127381000Y-60296000D02*
X127381000Y-63193000D01*
X127381000Y-54917000D02*
X127381000Y-57814000D01*
X127341000Y-60296000D02*
X127341000Y-63221000D01*
X127341000Y-54889000D02*
X127341000Y-57814000D01*
X127301000Y-60296000D02*
X127301000Y-63249000D01*
X127301000Y-54861000D02*
X127301000Y-57814000D01*
X127261000Y-60296000D02*
X127261000Y-63276000D01*
X127261000Y-54834000D02*
X127261000Y-57814000D01*
X127221000Y-60296000D02*
X127221000Y-63302000D01*
X127221000Y-54808000D02*
X127221000Y-57814000D01*
X127181000Y-60296000D02*
X127181000Y-63328000D01*
X127181000Y-54782000D02*
X127181000Y-57814000D01*
X127141000Y-60296000D02*
X127141000Y-63353000D01*
X127141000Y-54757000D02*
X127141000Y-57814000D01*
X127101000Y-60296000D02*
X127101000Y-63378000D01*
X127101000Y-54732000D02*
X127101000Y-57814000D01*
X127061000Y-60296000D02*
X127061000Y-63402000D01*
X127061000Y-54708000D02*
X127061000Y-57814000D01*
X127021000Y-60296000D02*
X127021000Y-63426000D01*
X127021000Y-54684000D02*
X127021000Y-57814000D01*
X126981000Y-60296000D02*
X126981000Y-63450000D01*
X126981000Y-54660000D02*
X126981000Y-57814000D01*
X126941000Y-60296000D02*
X126941000Y-63472000D01*
X126941000Y-54638000D02*
X126941000Y-57814000D01*
X126901000Y-60296000D02*
X126901000Y-63495000D01*
X126901000Y-54615000D02*
X126901000Y-57814000D01*
X126861000Y-60296000D02*
X126861000Y-63517000D01*
X126861000Y-54593000D02*
X126861000Y-57814000D01*
X126821000Y-60296000D02*
X126821000Y-63538000D01*
X126821000Y-54572000D02*
X126821000Y-57814000D01*
X126781000Y-60296000D02*
X126781000Y-63559000D01*
X126781000Y-54551000D02*
X126781000Y-57814000D01*
X126741000Y-60296000D02*
X126741000Y-63580000D01*
X126741000Y-54530000D02*
X126741000Y-57814000D01*
X126701000Y-60296000D02*
X126701000Y-63600000D01*
X126701000Y-54510000D02*
X126701000Y-57814000D01*
X126661000Y-60296000D02*
X126661000Y-63619000D01*
X126661000Y-54491000D02*
X126661000Y-57814000D01*
X126621000Y-60296000D02*
X126621000Y-63639000D01*
X126621000Y-54471000D02*
X126621000Y-57814000D01*
X126581000Y-60296000D02*
X126581000Y-63658000D01*
X126581000Y-54452000D02*
X126581000Y-57814000D01*
X126541000Y-60296000D02*
X126541000Y-63676000D01*
X126541000Y-54434000D02*
X126541000Y-57814000D01*
X126501000Y-60296000D02*
X126501000Y-63694000D01*
X126501000Y-54416000D02*
X126501000Y-57814000D01*
X126461000Y-60296000D02*
X126461000Y-63712000D01*
X126461000Y-54398000D02*
X126461000Y-57814000D01*
X126421000Y-60296000D02*
X126421000Y-63729000D01*
X126421000Y-54381000D02*
X126421000Y-57814000D01*
X126381000Y-60296000D02*
X126381000Y-63745000D01*
X126381000Y-54365000D02*
X126381000Y-57814000D01*
X126341000Y-60296000D02*
X126341000Y-63762000D01*
X126341000Y-54348000D02*
X126341000Y-57814000D01*
X126301000Y-60296000D02*
X126301000Y-63778000D01*
X126301000Y-54332000D02*
X126301000Y-57814000D01*
X126261000Y-60296000D02*
X126261000Y-63793000D01*
X126261000Y-54317000D02*
X126261000Y-57814000D01*
X126221000Y-60296000D02*
X126221000Y-63809000D01*
X126221000Y-54301000D02*
X126221000Y-57814000D01*
X126181000Y-60296000D02*
X126181000Y-63823000D01*
X126181000Y-54287000D02*
X126181000Y-57814000D01*
X126141000Y-60296000D02*
X126141000Y-63838000D01*
X126141000Y-54272000D02*
X126141000Y-57814000D01*
X126101000Y-60296000D02*
X126101000Y-63852000D01*
X126101000Y-54258000D02*
X126101000Y-57814000D01*
X126061000Y-60296000D02*
X126061000Y-63866000D01*
X126061000Y-54244000D02*
X126061000Y-57814000D01*
X126021000Y-60296000D02*
X126021000Y-63879000D01*
X126021000Y-54231000D02*
X126021000Y-57814000D01*
X125981000Y-60296000D02*
X125981000Y-63892000D01*
X125981000Y-54218000D02*
X125981000Y-57814000D01*
X125941000Y-60296000D02*
X125941000Y-63905000D01*
X125941000Y-54205000D02*
X125941000Y-57814000D01*
X125901000Y-60296000D02*
X125901000Y-63917000D01*
X125901000Y-54193000D02*
X125901000Y-57814000D01*
X125861000Y-60296000D02*
X125861000Y-63929000D01*
X125861000Y-54181000D02*
X125861000Y-57814000D01*
X125821000Y-60296000D02*
X125821000Y-63940000D01*
X125821000Y-54170000D02*
X125821000Y-57814000D01*
X125781000Y-60296000D02*
X125781000Y-63952000D01*
X125781000Y-54158000D02*
X125781000Y-57814000D01*
X125741000Y-60296000D02*
X125741000Y-63962000D01*
X125741000Y-54148000D02*
X125741000Y-57814000D01*
X125701000Y-60296000D02*
X125701000Y-63973000D01*
X125701000Y-54137000D02*
X125701000Y-57814000D01*
X125661000Y-54127000D02*
X125661000Y-63983000D01*
X125621000Y-54117000D02*
X125621000Y-63993000D01*
X125581000Y-54108000D02*
X125581000Y-64002000D01*
X125541000Y-54099000D02*
X125541000Y-64011000D01*
X125501000Y-54090000D02*
X125501000Y-64020000D01*
X125461000Y-54081000D02*
X125461000Y-64029000D01*
X125421000Y-54073000D02*
X125421000Y-64037000D01*
X125381000Y-54065000D02*
X125381000Y-64045000D01*
X125341000Y-54058000D02*
X125341000Y-64052000D01*
X125301000Y-54051000D02*
X125301000Y-64059000D01*
X125261000Y-54044000D02*
X125261000Y-64066000D01*
X125221000Y-54037000D02*
X125221000Y-64073000D01*
X125181000Y-54031000D02*
X125181000Y-64079000D01*
X125141000Y-54025000D02*
X125141000Y-64085000D01*
X125100000Y-54020000D02*
X125100000Y-64090000D01*
X125060000Y-54015000D02*
X125060000Y-64095000D01*
X125020000Y-54010000D02*
X125020000Y-64100000D01*
X124980000Y-54005000D02*
X124980000Y-64105000D01*
X124940000Y-54001000D02*
X124940000Y-64109000D01*
X124900000Y-53997000D02*
X124900000Y-64113000D01*
X124860000Y-53993000D02*
X124860000Y-64117000D01*
X124820000Y-53990000D02*
X124820000Y-64120000D01*
X124780000Y-53987000D02*
X124780000Y-64123000D01*
X124740000Y-53985000D02*
X124740000Y-64125000D01*
X124700000Y-53982000D02*
X124700000Y-64128000D01*
X124660000Y-53980000D02*
X124660000Y-64130000D01*
X124620000Y-53978000D02*
X124620000Y-64132000D01*
X124580000Y-53977000D02*
X124580000Y-64133000D01*
X124540000Y-53976000D02*
X124540000Y-64134000D01*
X124500000Y-53975000D02*
X124500000Y-64135000D01*
X124460000Y-53975000D02*
X124460000Y-64135000D01*
X124420000Y-53975000D02*
X124420000Y-64135000D01*
X129540000Y-59055000D02*
G75*
G03X129540000Y-59055000I-5120000J0D01*
G01*
%TO.C,D1*%
X50760000Y-97790000D02*
G75*
G03X50760000Y-97790000I-2500000J0D01*
G01*
X49805000Y-95230000D02*
X46715000Y-95230000D01*
X48259538Y-100780000D02*
G75*
G03X49804830Y-95230000I462J2990000D01*
G01*
X48260462Y-100780000D02*
G75*
G02X46715170Y-95230000I-462J2990000D01*
G01*
%TO.C,J4*%
X58360000Y-79950000D02*
X59690000Y-79950000D01*
X58360000Y-81280000D02*
X58360000Y-79950000D01*
X58360000Y-82550000D02*
X61020000Y-82550000D01*
X61020000Y-82550000D02*
X61020000Y-110550000D01*
X58360000Y-82550000D02*
X58360000Y-110550000D01*
X58360000Y-110550000D02*
X61020000Y-110550000D01*
%TO.C,J5*%
X32500000Y-143845000D02*
X32500000Y-144345000D01*
X33240000Y-143845000D02*
X32500000Y-143845000D01*
X37108000Y-150507000D02*
X36712000Y-150112000D01*
X39754000Y-153153000D02*
X39374000Y-152773000D01*
X36826000Y-150758000D02*
X36446000Y-150378000D01*
X39488000Y-153419000D02*
X39092000Y-153024000D01*
X36819000Y-145137000D02*
X36712000Y-145031000D01*
X39754000Y-148073000D02*
X39647000Y-147966000D01*
X36553000Y-145403000D02*
X36446000Y-145297000D01*
X39488000Y-148339000D02*
X39381000Y-148232000D01*
X44060000Y-154365000D02*
X32740000Y-154365000D01*
X44060000Y-144085000D02*
X32740000Y-144085000D01*
X32740000Y-144085000D02*
X32740000Y-154365000D01*
X44060000Y-144085000D02*
X44060000Y-154365000D01*
X42000000Y-144085000D02*
X42000000Y-154365000D01*
X35800000Y-144085000D02*
X35800000Y-154365000D01*
X33300000Y-144085000D02*
X33300000Y-154365000D01*
X40280000Y-151765000D02*
G75*
G03X40280000Y-151765000I-2180000J0D01*
G01*
X40280000Y-146685000D02*
G75*
G03X40280000Y-146685000I-2180000J0D01*
G01*
%TO.C,J6*%
X73775000Y-34625000D02*
X73775000Y-35125000D01*
X74515000Y-34625000D02*
X73775000Y-34625000D01*
X78383000Y-41287000D02*
X77987000Y-40892000D01*
X81029000Y-43933000D02*
X80649000Y-43553000D01*
X78101000Y-41538000D02*
X77721000Y-41158000D01*
X80763000Y-44199000D02*
X80367000Y-43804000D01*
X78094000Y-35917000D02*
X77987000Y-35811000D01*
X81029000Y-38853000D02*
X80922000Y-38746000D01*
X77828000Y-36183000D02*
X77721000Y-36077000D01*
X80763000Y-39119000D02*
X80656000Y-39012000D01*
X85335000Y-45145000D02*
X74015000Y-45145000D01*
X85335000Y-34865000D02*
X74015000Y-34865000D01*
X74015000Y-34865000D02*
X74015000Y-45145000D01*
X85335000Y-34865000D02*
X85335000Y-45145000D01*
X83275000Y-34865000D02*
X83275000Y-45145000D01*
X77075000Y-34865000D02*
X77075000Y-45145000D01*
X74575000Y-34865000D02*
X74575000Y-45145000D01*
X81555000Y-42545000D02*
G75*
G03X81555000Y-42545000I-2180000J0D01*
G01*
X81555000Y-37465000D02*
G75*
G03X81555000Y-37465000I-2180000J0D01*
G01*
%TO.C,J7*%
X141665000Y-103445000D02*
X139005000Y-103445000D01*
X141665000Y-108585000D02*
X141665000Y-103445000D01*
X139005000Y-108585000D02*
X139005000Y-103445000D01*
X141665000Y-108585000D02*
X139005000Y-108585000D01*
X141665000Y-109855000D02*
X141665000Y-111185000D01*
X141665000Y-111185000D02*
X140335000Y-111185000D01*
%TO.C,J8*%
X172995000Y-137795000D02*
G75*
G03X172995000Y-137795000I-2180000J0D01*
G01*
X167915000Y-137795000D02*
G75*
G03X167915000Y-137795000I-2180000J0D01*
G01*
X173415000Y-132995000D02*
X163135000Y-132995000D01*
X173415000Y-135495000D02*
X163135000Y-135495000D01*
X173415000Y-141695000D02*
X163135000Y-141695000D01*
X173415000Y-143755000D02*
X163135000Y-143755000D01*
X173415000Y-132435000D02*
X163135000Y-132435000D01*
X173415000Y-143755000D02*
X173415000Y-132435000D01*
X163135000Y-143755000D02*
X163135000Y-132435000D01*
X169161000Y-139183000D02*
X169268000Y-139076000D01*
X172097000Y-136248000D02*
X172203000Y-136141000D01*
X169427000Y-139449000D02*
X169534000Y-139342000D01*
X172363000Y-136514000D02*
X172469000Y-136407000D01*
X164081000Y-139183000D02*
X164476000Y-138787000D01*
X166742000Y-136521000D02*
X167122000Y-136141000D01*
X164347000Y-139449000D02*
X164727000Y-139069000D01*
X166993000Y-136803000D02*
X167388000Y-136407000D01*
X173655000Y-132935000D02*
X173655000Y-132195000D01*
X173655000Y-132195000D02*
X173155000Y-132195000D01*
%TO.C,J12*%
X154580000Y-110490000D02*
G75*
G03X154580000Y-110490000I-2180000J0D01*
G01*
X154580000Y-105410000D02*
G75*
G03X154580000Y-105410000I-2180000J0D01*
G01*
X157200000Y-113090000D02*
X157200000Y-102810000D01*
X154700000Y-113090000D02*
X154700000Y-102810000D01*
X148500000Y-113090000D02*
X148500000Y-102810000D01*
X146440000Y-113090000D02*
X146440000Y-102810000D01*
X157760000Y-113090000D02*
X157760000Y-102810000D01*
X146440000Y-113090000D02*
X157760000Y-113090000D01*
X146440000Y-102810000D02*
X157760000Y-102810000D01*
X151012000Y-108836000D02*
X151119000Y-108943000D01*
X153947000Y-111772000D02*
X154054000Y-111878000D01*
X150746000Y-109102000D02*
X150853000Y-109209000D01*
X153681000Y-112038000D02*
X153788000Y-112144000D01*
X151012000Y-103756000D02*
X151408000Y-104151000D01*
X153674000Y-106417000D02*
X154054000Y-106797000D01*
X150746000Y-104022000D02*
X151126000Y-104402000D01*
X153392000Y-106668000D02*
X153788000Y-107063000D01*
X157260000Y-113330000D02*
X158000000Y-113330000D01*
X158000000Y-113330000D02*
X158000000Y-112830000D01*
%TO.C,J18*%
X156270000Y-115510000D02*
X156270000Y-116840000D01*
X154940000Y-115510000D02*
X156270000Y-115510000D01*
X153670000Y-115510000D02*
X153670000Y-118170000D01*
X153670000Y-118170000D02*
X148530000Y-118170000D01*
X153670000Y-115510000D02*
X148530000Y-115510000D01*
X148530000Y-115510000D02*
X148530000Y-118170000D01*
%TO.C,J19*%
X153555000Y-92920000D02*
X153555000Y-93980000D01*
X152495000Y-92920000D02*
X153555000Y-92920000D01*
X151495000Y-92920000D02*
X151495000Y-95040000D01*
X151495000Y-95040000D02*
X149435000Y-95040000D01*
X151495000Y-92920000D02*
X149435000Y-92920000D01*
X149435000Y-92920000D02*
X149435000Y-95040000D01*
%TO.C,J20*%
X138490000Y-91500000D02*
X137160000Y-91500000D01*
X138490000Y-90170000D02*
X138490000Y-91500000D01*
X138490000Y-88900000D02*
X135830000Y-88900000D01*
X135830000Y-88900000D02*
X135830000Y-83760000D01*
X138490000Y-88900000D02*
X138490000Y-83760000D01*
X138490000Y-83760000D02*
X135830000Y-83760000D01*
%TO.C,J21*%
X48320000Y-104715000D02*
X45660000Y-104715000D01*
X48320000Y-109855000D02*
X48320000Y-104715000D01*
X45660000Y-109855000D02*
X45660000Y-104715000D01*
X48320000Y-109855000D02*
X45660000Y-109855000D01*
X48320000Y-111125000D02*
X48320000Y-112455000D01*
X48320000Y-112455000D02*
X46990000Y-112455000D01*
%TO.C,R1*%
X55245000Y-95480000D02*
X55245000Y-94710000D01*
X55245000Y-87400000D02*
X55245000Y-88170000D01*
X56615000Y-94710000D02*
X56615000Y-88170000D01*
X53875000Y-94710000D02*
X56615000Y-94710000D01*
X53875000Y-88170000D02*
X53875000Y-94710000D01*
X56615000Y-88170000D02*
X53875000Y-88170000D01*
%TO.C,R2*%
X69115000Y-89630000D02*
X71855000Y-89630000D01*
X71855000Y-89630000D02*
X71855000Y-83090000D01*
X71855000Y-83090000D02*
X69115000Y-83090000D01*
X69115000Y-83090000D02*
X69115000Y-89630000D01*
X70485000Y-90400000D02*
X70485000Y-89630000D01*
X70485000Y-82320000D02*
X70485000Y-83090000D01*
%TO.C,U2*%
X33545000Y-138490000D02*
X35195000Y-138490000D01*
X33545000Y-118050000D02*
X33545000Y-138490000D01*
X38845000Y-118050000D02*
X33545000Y-118050000D01*
X38845000Y-138490000D02*
X38845000Y-118050000D01*
X37195000Y-138490000D02*
X38845000Y-138490000D01*
X35195000Y-138490000D02*
G75*
G02X37195000Y-138490000I1000000J0D01*
G01*
%TO.C,U3*%
X155050000Y-142180000D02*
X153400000Y-142180000D01*
X155050000Y-162620000D02*
X155050000Y-142180000D01*
X149750000Y-162620000D02*
X155050000Y-162620000D01*
X149750000Y-142180000D02*
X149750000Y-162620000D01*
X151400000Y-142180000D02*
X149750000Y-142180000D01*
X153400000Y-142180000D02*
G75*
G02X151400000Y-142180000I-1000000J0D01*
G01*
%TO.C,U4*%
X107585000Y-31055000D02*
X105935000Y-31055000D01*
X105935000Y-31055000D02*
X105935000Y-51495000D01*
X105935000Y-51495000D02*
X111235000Y-51495000D01*
X111235000Y-51495000D02*
X111235000Y-31055000D01*
X111235000Y-31055000D02*
X109585000Y-31055000D01*
X109585000Y-31055000D02*
G75*
G02X107585000Y-31055000I-1000000J0D01*
G01*
%TO.C,J1*%
X62500000Y-125305000D02*
X62500000Y-124055000D01*
X61250000Y-125305000D02*
X62500000Y-125305000D01*
X52850000Y-119805000D02*
X57150000Y-119805000D01*
X52850000Y-122755000D02*
X52850000Y-119805000D01*
X52100000Y-122755000D02*
X52850000Y-122755000D01*
X61450000Y-119805000D02*
X57150000Y-119805000D01*
X61450000Y-122755000D02*
X61450000Y-119805000D01*
X62200000Y-122755000D02*
X61450000Y-122755000D01*
X52100000Y-125005000D02*
X53900000Y-125005000D01*
X52100000Y-124255000D02*
X52100000Y-125005000D01*
X53900000Y-124255000D02*
X52100000Y-124255000D01*
X53900000Y-125005000D02*
X53900000Y-124255000D01*
X60400000Y-125005000D02*
X62200000Y-125005000D01*
X60400000Y-124255000D02*
X60400000Y-125005000D01*
X62200000Y-124255000D02*
X60400000Y-124255000D01*
X62200000Y-125005000D02*
X62200000Y-124255000D01*
X55400000Y-125005000D02*
X58900000Y-125005000D01*
X55400000Y-124255000D02*
X55400000Y-125005000D01*
X58900000Y-124255000D02*
X55400000Y-124255000D01*
X58900000Y-125005000D02*
X58900000Y-124255000D01*
X52090000Y-125015000D02*
X62210000Y-125015000D01*
X52090000Y-119045000D02*
X52090000Y-125015000D01*
X62210000Y-119045000D02*
X52090000Y-119045000D01*
X62210000Y-125015000D02*
X62210000Y-119045000D01*
%TO.C,J2*%
X62500000Y-134830000D02*
X62500000Y-133580000D01*
X61250000Y-134830000D02*
X62500000Y-134830000D01*
X52850000Y-129330000D02*
X57150000Y-129330000D01*
X52850000Y-132280000D02*
X52850000Y-129330000D01*
X52100000Y-132280000D02*
X52850000Y-132280000D01*
X61450000Y-129330000D02*
X57150000Y-129330000D01*
X61450000Y-132280000D02*
X61450000Y-129330000D01*
X62200000Y-132280000D02*
X61450000Y-132280000D01*
X52100000Y-134530000D02*
X53900000Y-134530000D01*
X52100000Y-133780000D02*
X52100000Y-134530000D01*
X53900000Y-133780000D02*
X52100000Y-133780000D01*
X53900000Y-134530000D02*
X53900000Y-133780000D01*
X60400000Y-134530000D02*
X62200000Y-134530000D01*
X60400000Y-133780000D02*
X60400000Y-134530000D01*
X62200000Y-133780000D02*
X60400000Y-133780000D01*
X62200000Y-134530000D02*
X62200000Y-133780000D01*
X55400000Y-134530000D02*
X58900000Y-134530000D01*
X55400000Y-133780000D02*
X55400000Y-134530000D01*
X58900000Y-133780000D02*
X55400000Y-133780000D01*
X58900000Y-134530000D02*
X58900000Y-133780000D01*
X52090000Y-134540000D02*
X62210000Y-134540000D01*
X52090000Y-128570000D02*
X52090000Y-134540000D01*
X62210000Y-128570000D02*
X52090000Y-128570000D01*
X62210000Y-134540000D02*
X62210000Y-128570000D01*
%TO.C,J3*%
X62250000Y-144065000D02*
X62250000Y-138095000D01*
X62250000Y-138095000D02*
X52130000Y-138095000D01*
X52130000Y-138095000D02*
X52130000Y-144065000D01*
X52130000Y-144065000D02*
X62250000Y-144065000D01*
X58940000Y-144055000D02*
X58940000Y-143305000D01*
X58940000Y-143305000D02*
X55440000Y-143305000D01*
X55440000Y-143305000D02*
X55440000Y-144055000D01*
X55440000Y-144055000D02*
X58940000Y-144055000D01*
X62240000Y-144055000D02*
X62240000Y-143305000D01*
X62240000Y-143305000D02*
X60440000Y-143305000D01*
X60440000Y-143305000D02*
X60440000Y-144055000D01*
X60440000Y-144055000D02*
X62240000Y-144055000D01*
X53940000Y-144055000D02*
X53940000Y-143305000D01*
X53940000Y-143305000D02*
X52140000Y-143305000D01*
X52140000Y-143305000D02*
X52140000Y-144055000D01*
X52140000Y-144055000D02*
X53940000Y-144055000D01*
X62240000Y-141805000D02*
X61490000Y-141805000D01*
X61490000Y-141805000D02*
X61490000Y-138855000D01*
X61490000Y-138855000D02*
X57190000Y-138855000D01*
X52140000Y-141805000D02*
X52890000Y-141805000D01*
X52890000Y-141805000D02*
X52890000Y-138855000D01*
X52890000Y-138855000D02*
X57190000Y-138855000D01*
X61290000Y-144355000D02*
X62540000Y-144355000D01*
X62540000Y-144355000D02*
X62540000Y-143105000D01*
%TO.C,J17*%
X92480000Y-159175000D02*
X92480000Y-160425000D01*
X93730000Y-159175000D02*
X92480000Y-159175000D01*
X107130000Y-164675000D02*
X100330000Y-164675000D01*
X107130000Y-161725000D02*
X107130000Y-164675000D01*
X107880000Y-161725000D02*
X107130000Y-161725000D01*
X93530000Y-164675000D02*
X100330000Y-164675000D01*
X93530000Y-161725000D02*
X93530000Y-164675000D01*
X92780000Y-161725000D02*
X93530000Y-161725000D01*
X107880000Y-159475000D02*
X106080000Y-159475000D01*
X107880000Y-160225000D02*
X107880000Y-159475000D01*
X106080000Y-160225000D02*
X107880000Y-160225000D01*
X106080000Y-159475000D02*
X106080000Y-160225000D01*
X94580000Y-159475000D02*
X92780000Y-159475000D01*
X94580000Y-160225000D02*
X94580000Y-159475000D01*
X92780000Y-160225000D02*
X94580000Y-160225000D01*
X92780000Y-159475000D02*
X92780000Y-160225000D01*
X104580000Y-159475000D02*
X96080000Y-159475000D01*
X104580000Y-160225000D02*
X104580000Y-159475000D01*
X96080000Y-160225000D02*
X104580000Y-160225000D01*
X96080000Y-159475000D02*
X96080000Y-160225000D01*
X107890000Y-159465000D02*
X92770000Y-159465000D01*
X107890000Y-165435000D02*
X107890000Y-159465000D01*
X92770000Y-165435000D02*
X107890000Y-165435000D01*
X92770000Y-159465000D02*
X92770000Y-165435000D01*
%TO.C,R3*%
X75335000Y-55880000D02*
X76105000Y-55880000D01*
X83415000Y-55880000D02*
X82645000Y-55880000D01*
X76105000Y-57250000D02*
X82645000Y-57250000D01*
X76105000Y-54510000D02*
X76105000Y-57250000D01*
X82645000Y-54510000D02*
X76105000Y-54510000D01*
X82645000Y-57250000D02*
X82645000Y-54510000D01*
%TO.C,J13*%
X42485000Y-160080000D02*
X42485000Y-158750000D01*
X43815000Y-160080000D02*
X42485000Y-160080000D01*
X45085000Y-160080000D02*
X45085000Y-157420000D01*
X45085000Y-157420000D02*
X57845000Y-157420000D01*
X45085000Y-160080000D02*
X57845000Y-160080000D01*
X57845000Y-160080000D02*
X57845000Y-157420000D01*
%TO.C,J15*%
X100390000Y-28635000D02*
X100390000Y-25975000D01*
X87630000Y-28635000D02*
X100390000Y-28635000D01*
X87630000Y-25975000D02*
X100390000Y-25975000D01*
X87630000Y-28635000D02*
X87630000Y-25975000D01*
X86360000Y-28635000D02*
X85030000Y-28635000D01*
X85030000Y-28635000D02*
X85030000Y-27305000D01*
%TO.C,J16*%
X150435000Y-120590000D02*
X151765000Y-120590000D01*
X150435000Y-121920000D02*
X150435000Y-120590000D01*
X150435000Y-123190000D02*
X153095000Y-123190000D01*
X153095000Y-123190000D02*
X153095000Y-135950000D01*
X150435000Y-123190000D02*
X150435000Y-135950000D01*
X150435000Y-135950000D02*
X153095000Y-135950000D01*
%TO.C,R4*%
X84685000Y-152400000D02*
X83915000Y-152400000D01*
X76605000Y-152400000D02*
X77375000Y-152400000D01*
X83915000Y-151030000D02*
X77375000Y-151030000D01*
X83915000Y-153770000D02*
X83915000Y-151030000D01*
X77375000Y-153770000D02*
X83915000Y-153770000D01*
X77375000Y-151030000D02*
X77375000Y-153770000D01*
%TO.C,R5*%
X77375000Y-154840000D02*
X77375000Y-157580000D01*
X77375000Y-157580000D02*
X83915000Y-157580000D01*
X83915000Y-157580000D02*
X83915000Y-154840000D01*
X83915000Y-154840000D02*
X77375000Y-154840000D01*
X76605000Y-156210000D02*
X77375000Y-156210000D01*
X84685000Y-156210000D02*
X83915000Y-156210000D01*
%TO.C,U1*%
X122609000Y-73120000D02*
X122609000Y-71610000D01*
X126310000Y-73120000D02*
X126310000Y-71610000D01*
X129580000Y-71610000D02*
X119340000Y-71610000D01*
X119340000Y-73120000D02*
X119340000Y-68479000D01*
X129580000Y-73120000D02*
X129580000Y-68479000D01*
X129580000Y-68479000D02*
X119340000Y-68479000D01*
X129580000Y-73120000D02*
X119340000Y-73120000D01*
%TO.C,R6*%
X147320000Y-122960000D02*
X147320000Y-123730000D01*
X147320000Y-131040000D02*
X147320000Y-130270000D01*
X145950000Y-123730000D02*
X145950000Y-130270000D01*
X148690000Y-123730000D02*
X145950000Y-123730000D01*
X148690000Y-130270000D02*
X148690000Y-123730000D01*
X145950000Y-130270000D02*
X148690000Y-130270000D01*
%TO.C,R7*%
X142775000Y-132810000D02*
X145515000Y-132810000D01*
X145515000Y-132810000D02*
X145515000Y-126270000D01*
X145515000Y-126270000D02*
X142775000Y-126270000D01*
X142775000Y-126270000D02*
X142775000Y-132810000D01*
X144145000Y-133580000D02*
X144145000Y-132810000D01*
X144145000Y-125500000D02*
X144145000Y-126270000D01*
%TO.C,R8*%
X84225000Y-113665000D02*
X84995000Y-113665000D01*
X92305000Y-113665000D02*
X91535000Y-113665000D01*
X84995000Y-115035000D02*
X91535000Y-115035000D01*
X84995000Y-112295000D02*
X84995000Y-115035000D01*
X91535000Y-112295000D02*
X84995000Y-112295000D01*
X91535000Y-115035000D02*
X91535000Y-112295000D01*
%TO.C,R9*%
X93440000Y-110590000D02*
X93440000Y-107850000D01*
X93440000Y-107850000D02*
X86900000Y-107850000D01*
X86900000Y-107850000D02*
X86900000Y-110590000D01*
X86900000Y-110590000D02*
X93440000Y-110590000D01*
X94210000Y-109220000D02*
X93440000Y-109220000D01*
X86130000Y-109220000D02*
X86900000Y-109220000D01*
%TO.C,J22*%
X106105000Y-57090000D02*
X100905000Y-57090000D01*
X106105000Y-64770000D02*
X106105000Y-57090000D01*
X100905000Y-67370000D02*
X100905000Y-57090000D01*
X106105000Y-64770000D02*
X103505000Y-64770000D01*
X103505000Y-64770000D02*
X103505000Y-67370000D01*
X103505000Y-67370000D02*
X100905000Y-67370000D01*
X106105000Y-66040000D02*
X106105000Y-67370000D01*
X106105000Y-67370000D02*
X104775000Y-67370000D01*
%TO.C,J23*%
X46995000Y-149955000D02*
X46995000Y-154675000D01*
X46995000Y-154675000D02*
X61115000Y-154675000D01*
X61115000Y-154675000D02*
X61115000Y-149955000D01*
X61115000Y-149955000D02*
X46995000Y-149955000D01*
X48755000Y-149955000D02*
X48755000Y-149755000D01*
X48755000Y-149755000D02*
X48455000Y-149755000D01*
X48455000Y-149755000D02*
X48455000Y-149955000D01*
X48755000Y-149855000D02*
X48455000Y-149855000D01*
X49555000Y-149955000D02*
X49555000Y-150565000D01*
X49555000Y-150565000D02*
X47605000Y-150565000D01*
X47605000Y-150565000D02*
X47605000Y-154065000D01*
X47605000Y-154065000D02*
X60505000Y-154065000D01*
X60505000Y-154065000D02*
X60505000Y-150565000D01*
X60505000Y-150565000D02*
X58555000Y-150565000D01*
X58555000Y-150565000D02*
X58555000Y-149955000D01*
X46995000Y-151265000D02*
X47605000Y-151265000D01*
X46995000Y-152565000D02*
X47605000Y-152565000D01*
X61115000Y-151265000D02*
X60505000Y-151265000D01*
X61115000Y-152565000D02*
X60505000Y-152565000D01*
X49955000Y-154065000D02*
X49955000Y-153565000D01*
X49955000Y-153565000D02*
X50155000Y-153565000D01*
X50155000Y-153565000D02*
X50155000Y-154065000D01*
X50055000Y-154065000D02*
X50055000Y-153565000D01*
X51955000Y-154065000D02*
X51955000Y-153565000D01*
X51955000Y-153565000D02*
X52155000Y-153565000D01*
X52155000Y-153565000D02*
X52155000Y-154065000D01*
X52055000Y-154065000D02*
X52055000Y-153565000D01*
X53955000Y-154065000D02*
X53955000Y-153565000D01*
X53955000Y-153565000D02*
X54155000Y-153565000D01*
X54155000Y-153565000D02*
X54155000Y-154065000D01*
X54055000Y-154065000D02*
X54055000Y-153565000D01*
X55955000Y-154065000D02*
X55955000Y-153565000D01*
X55955000Y-153565000D02*
X56155000Y-153565000D01*
X56155000Y-153565000D02*
X56155000Y-154065000D01*
X56055000Y-154065000D02*
X56055000Y-153565000D01*
X57955000Y-154065000D02*
X57955000Y-153565000D01*
X57955000Y-153565000D02*
X58155000Y-153565000D01*
X58155000Y-153565000D02*
X58155000Y-154065000D01*
X58055000Y-154065000D02*
X58055000Y-153565000D01*
X47945000Y-149655000D02*
X46695000Y-149655000D01*
X46695000Y-149655000D02*
X46695000Y-150905000D01*
%TO.C,J24*%
X86890000Y-30910000D02*
X86890000Y-32160000D01*
X88140000Y-30910000D02*
X86890000Y-30910000D01*
X98250000Y-35320000D02*
X98250000Y-34820000D01*
X98350000Y-34820000D02*
X98350000Y-35320000D01*
X98150000Y-34820000D02*
X98350000Y-34820000D01*
X98150000Y-35320000D02*
X98150000Y-34820000D01*
X96250000Y-35320000D02*
X96250000Y-34820000D01*
X96350000Y-34820000D02*
X96350000Y-35320000D01*
X96150000Y-34820000D02*
X96350000Y-34820000D01*
X96150000Y-35320000D02*
X96150000Y-34820000D01*
X94250000Y-35320000D02*
X94250000Y-34820000D01*
X94350000Y-34820000D02*
X94350000Y-35320000D01*
X94150000Y-34820000D02*
X94350000Y-34820000D01*
X94150000Y-35320000D02*
X94150000Y-34820000D01*
X92250000Y-35320000D02*
X92250000Y-34820000D01*
X92350000Y-34820000D02*
X92350000Y-35320000D01*
X92150000Y-34820000D02*
X92350000Y-34820000D01*
X92150000Y-35320000D02*
X92150000Y-34820000D01*
X90250000Y-35320000D02*
X90250000Y-34820000D01*
X90350000Y-34820000D02*
X90350000Y-35320000D01*
X90150000Y-34820000D02*
X90350000Y-34820000D01*
X90150000Y-35320000D02*
X90150000Y-34820000D01*
X101310000Y-33820000D02*
X100700000Y-33820000D01*
X101310000Y-32520000D02*
X100700000Y-32520000D01*
X87190000Y-33820000D02*
X87800000Y-33820000D01*
X87190000Y-32520000D02*
X87800000Y-32520000D01*
X98750000Y-31820000D02*
X98750000Y-31210000D01*
X100700000Y-31820000D02*
X98750000Y-31820000D01*
X100700000Y-35320000D02*
X100700000Y-31820000D01*
X87800000Y-35320000D02*
X100700000Y-35320000D01*
X87800000Y-31820000D02*
X87800000Y-35320000D01*
X89750000Y-31820000D02*
X87800000Y-31820000D01*
X89750000Y-31210000D02*
X89750000Y-31820000D01*
X88950000Y-31110000D02*
X88650000Y-31110000D01*
X88650000Y-31010000D02*
X88650000Y-31210000D01*
X88950000Y-31010000D02*
X88650000Y-31010000D01*
X88950000Y-31210000D02*
X88950000Y-31010000D01*
X101310000Y-31210000D02*
X87190000Y-31210000D01*
X101310000Y-35930000D02*
X101310000Y-31210000D01*
X87190000Y-35930000D02*
X101310000Y-35930000D01*
X87190000Y-31210000D02*
X87190000Y-35930000D01*
%TO.C,J25*%
X161195000Y-122560000D02*
X156475000Y-122560000D01*
X156475000Y-122560000D02*
X156475000Y-136680000D01*
X156475000Y-136680000D02*
X161195000Y-136680000D01*
X161195000Y-136680000D02*
X161195000Y-122560000D01*
X161195000Y-124320000D02*
X161395000Y-124320000D01*
X161395000Y-124320000D02*
X161395000Y-124020000D01*
X161395000Y-124020000D02*
X161195000Y-124020000D01*
X161295000Y-124320000D02*
X161295000Y-124020000D01*
X161195000Y-125120000D02*
X160585000Y-125120000D01*
X160585000Y-125120000D02*
X160585000Y-123170000D01*
X160585000Y-123170000D02*
X157085000Y-123170000D01*
X157085000Y-123170000D02*
X157085000Y-136070000D01*
X157085000Y-136070000D02*
X160585000Y-136070000D01*
X160585000Y-136070000D02*
X160585000Y-134120000D01*
X160585000Y-134120000D02*
X161195000Y-134120000D01*
X159885000Y-122560000D02*
X159885000Y-123170000D01*
X158585000Y-122560000D02*
X158585000Y-123170000D01*
X159885000Y-136680000D02*
X159885000Y-136070000D01*
X158585000Y-136680000D02*
X158585000Y-136070000D01*
X157085000Y-125520000D02*
X157585000Y-125520000D01*
X157585000Y-125520000D02*
X157585000Y-125720000D01*
X157585000Y-125720000D02*
X157085000Y-125720000D01*
X157085000Y-125620000D02*
X157585000Y-125620000D01*
X157085000Y-127520000D02*
X157585000Y-127520000D01*
X157585000Y-127520000D02*
X157585000Y-127720000D01*
X157585000Y-127720000D02*
X157085000Y-127720000D01*
X157085000Y-127620000D02*
X157585000Y-127620000D01*
X157085000Y-129520000D02*
X157585000Y-129520000D01*
X157585000Y-129520000D02*
X157585000Y-129720000D01*
X157585000Y-129720000D02*
X157085000Y-129720000D01*
X157085000Y-129620000D02*
X157585000Y-129620000D01*
X157085000Y-131520000D02*
X157585000Y-131520000D01*
X157585000Y-131520000D02*
X157585000Y-131720000D01*
X157585000Y-131720000D02*
X157085000Y-131720000D01*
X157085000Y-131620000D02*
X157585000Y-131620000D01*
X157085000Y-133520000D02*
X157585000Y-133520000D01*
X157585000Y-133520000D02*
X157585000Y-133720000D01*
X157585000Y-133720000D02*
X157085000Y-133720000D01*
X157085000Y-133620000D02*
X157585000Y-133620000D01*
X161495000Y-123510000D02*
X161495000Y-122260000D01*
X161495000Y-122260000D02*
X160245000Y-122260000D01*
%TO.C,T3*%
D11*
X65913095Y-63832380D02*
X66484523Y-63832380D01*
X66198809Y-64832380D02*
X66198809Y-63832380D01*
X66722619Y-63832380D02*
X67341666Y-63832380D01*
X67008333Y-64213333D01*
X67151190Y-64213333D01*
X67246428Y-64260952D01*
X67294047Y-64308571D01*
X67341666Y-64403809D01*
X67341666Y-64641904D01*
X67294047Y-64737142D01*
X67246428Y-64784761D01*
X67151190Y-64832380D01*
X66865476Y-64832380D01*
X66770238Y-64784761D01*
X66722619Y-64737142D01*
%TO.C,T1*%
X26543095Y-143207380D02*
X27114523Y-143207380D01*
X26828809Y-144207380D02*
X26828809Y-143207380D01*
X27971666Y-144207380D02*
X27400238Y-144207380D01*
X27685952Y-144207380D02*
X27685952Y-143207380D01*
X27590714Y-143350238D01*
X27495476Y-143445476D01*
X27400238Y-143493095D01*
%TO.C,J10*%
X68960477Y-103722381D02*
X68960477Y-104436667D01*
X68912858Y-104579524D01*
X68817620Y-104674762D01*
X68674762Y-104722381D01*
X68579524Y-104722381D01*
X69960477Y-104722381D02*
X69389048Y-104722381D01*
X69674762Y-104722381D02*
X69674762Y-103722381D01*
X69579524Y-103865239D01*
X69484286Y-103960477D01*
X69389048Y-104008096D01*
X70579524Y-103722381D02*
X70674762Y-103722381D01*
X70770001Y-103770001D01*
X70817620Y-103817620D01*
X70865239Y-103912858D01*
X70912858Y-104103334D01*
X70912858Y-104341429D01*
X70865239Y-104531905D01*
X70817620Y-104627143D01*
X70770001Y-104674762D01*
X70674762Y-104722381D01*
X70579524Y-104722381D01*
X70484286Y-104674762D01*
X70436667Y-104627143D01*
X70389048Y-104531905D01*
X70341429Y-104341429D01*
X70341429Y-104103334D01*
X70389048Y-103912858D01*
X70436667Y-103817620D01*
X70484286Y-103770001D01*
X70579524Y-103722381D01*
%TO.C,J14*%
X130000476Y-103722381D02*
X130000476Y-104436667D01*
X129952857Y-104579524D01*
X129857619Y-104674762D01*
X129714761Y-104722381D01*
X129619523Y-104722381D01*
X131000476Y-104722381D02*
X130429047Y-104722381D01*
X130714761Y-104722381D02*
X130714761Y-103722381D01*
X130619523Y-103865239D01*
X130524285Y-103960477D01*
X130429047Y-104008096D01*
X131857619Y-104055715D02*
X131857619Y-104722381D01*
X131619523Y-103674762D02*
X131381428Y-104389048D01*
X132000476Y-104389048D01*
%TO.C,J9*%
X69147380Y-73993333D02*
X69861666Y-73993333D01*
X70004523Y-74040952D01*
X70099761Y-74136190D01*
X70147380Y-74279047D01*
X70147380Y-74374285D01*
X70147380Y-73469523D02*
X70147380Y-73279047D01*
X70099761Y-73183809D01*
X70052142Y-73136190D01*
X69909285Y-73040952D01*
X69718809Y-72993333D01*
X69337857Y-72993333D01*
X69242619Y-73040952D01*
X69195000Y-73088571D01*
X69147380Y-73183809D01*
X69147380Y-73374285D01*
X69195000Y-73469523D01*
X69242619Y-73517142D01*
X69337857Y-73564761D01*
X69575952Y-73564761D01*
X69671190Y-73517142D01*
X69718809Y-73469523D01*
X69766428Y-73374285D01*
X69766428Y-73183809D01*
X69718809Y-73088571D01*
X69671190Y-73040952D01*
X69575952Y-72993333D01*
%TO.C,J11*%
X69147380Y-52244523D02*
X69861666Y-52244523D01*
X70004523Y-52292142D01*
X70099761Y-52387380D01*
X70147380Y-52530238D01*
X70147380Y-52625476D01*
X70147380Y-51244523D02*
X70147380Y-51815952D01*
X70147380Y-51530238D02*
X69147380Y-51530238D01*
X69290238Y-51625476D01*
X69385476Y-51720714D01*
X69433095Y-51815952D01*
X70147380Y-50292142D02*
X70147380Y-50863571D01*
X70147380Y-50577857D02*
X69147380Y-50577857D01*
X69290238Y-50673095D01*
X69385476Y-50768333D01*
X69433095Y-50863571D01*
%TO.C,C1*%
X138303333Y-81537142D02*
X138255714Y-81584761D01*
X138112857Y-81632380D01*
X138017619Y-81632380D01*
X137874761Y-81584761D01*
X137779523Y-81489523D01*
X137731904Y-81394285D01*
X137684285Y-81203809D01*
X137684285Y-81060952D01*
X137731904Y-80870476D01*
X137779523Y-80775238D01*
X137874761Y-80680000D01*
X138017619Y-80632380D01*
X138112857Y-80632380D01*
X138255714Y-80680000D01*
X138303333Y-80727619D01*
X139255714Y-81632380D02*
X138684285Y-81632380D01*
X138970000Y-81632380D02*
X138970000Y-80632380D01*
X138874761Y-80775238D01*
X138779523Y-80870476D01*
X138684285Y-80918095D01*
%TO.C,C4*%
X124253333Y-53162142D02*
X124205714Y-53209761D01*
X124062857Y-53257380D01*
X123967619Y-53257380D01*
X123824761Y-53209761D01*
X123729523Y-53114523D01*
X123681904Y-53019285D01*
X123634285Y-52828809D01*
X123634285Y-52685952D01*
X123681904Y-52495476D01*
X123729523Y-52400238D01*
X123824761Y-52305000D01*
X123967619Y-52257380D01*
X124062857Y-52257380D01*
X124205714Y-52305000D01*
X124253333Y-52352619D01*
X125110476Y-52590714D02*
X125110476Y-53257380D01*
X124872380Y-52209761D02*
X124634285Y-52924047D01*
X125253333Y-52924047D01*
%TO.C,D1*%
X52672380Y-98528095D02*
X51672380Y-98528095D01*
X51672380Y-98290000D01*
X51720000Y-98147142D01*
X51815238Y-98051904D01*
X51910476Y-98004285D01*
X52100952Y-97956666D01*
X52243809Y-97956666D01*
X52434285Y-98004285D01*
X52529523Y-98051904D01*
X52624761Y-98147142D01*
X52672380Y-98290000D01*
X52672380Y-98528095D01*
X52672380Y-97004285D02*
X52672380Y-97575714D01*
X52672380Y-97290000D02*
X51672380Y-97290000D01*
X51815238Y-97385238D01*
X51910476Y-97480476D01*
X51958095Y-97575714D01*
%TO.C,J4*%
X59356666Y-78402380D02*
X59356666Y-79116666D01*
X59309047Y-79259523D01*
X59213809Y-79354761D01*
X59070952Y-79402380D01*
X58975714Y-79402380D01*
X60261428Y-78735714D02*
X60261428Y-79402380D01*
X60023333Y-78354761D02*
X59785238Y-79069047D01*
X60404285Y-79069047D01*
%TO.C,J5*%
X44512380Y-149558333D02*
X45226666Y-149558333D01*
X45369523Y-149605952D01*
X45464761Y-149701190D01*
X45512380Y-149844047D01*
X45512380Y-149939285D01*
X44512380Y-148605952D02*
X44512380Y-149082142D01*
X44988571Y-149129761D01*
X44940952Y-149082142D01*
X44893333Y-148986904D01*
X44893333Y-148748809D01*
X44940952Y-148653571D01*
X44988571Y-148605952D01*
X45083809Y-148558333D01*
X45321904Y-148558333D01*
X45417142Y-148605952D01*
X45464761Y-148653571D01*
X45512380Y-148748809D01*
X45512380Y-148986904D01*
X45464761Y-149082142D01*
X45417142Y-149129761D01*
%TO.C,J6*%
X85787380Y-40338333D02*
X86501666Y-40338333D01*
X86644523Y-40385952D01*
X86739761Y-40481190D01*
X86787380Y-40624047D01*
X86787380Y-40719285D01*
X85787380Y-39433571D02*
X85787380Y-39624047D01*
X85835000Y-39719285D01*
X85882619Y-39766904D01*
X86025476Y-39862142D01*
X86215952Y-39909761D01*
X86596904Y-39909761D01*
X86692142Y-39862142D01*
X86739761Y-39814523D01*
X86787380Y-39719285D01*
X86787380Y-39528809D01*
X86739761Y-39433571D01*
X86692142Y-39385952D01*
X86596904Y-39338333D01*
X86358809Y-39338333D01*
X86263571Y-39385952D01*
X86215952Y-39433571D01*
X86168333Y-39528809D01*
X86168333Y-39719285D01*
X86215952Y-39814523D01*
X86263571Y-39862142D01*
X86358809Y-39909761D01*
%TO.C,J7*%
X140001666Y-111637380D02*
X140001666Y-112351666D01*
X139954047Y-112494523D01*
X139858809Y-112589761D01*
X139715952Y-112637380D01*
X139620714Y-112637380D01*
X140382619Y-111637380D02*
X141049285Y-111637380D01*
X140620714Y-112637380D01*
%TO.C,J8*%
X167941666Y-144207380D02*
X167941666Y-144921666D01*
X167894047Y-145064523D01*
X167798809Y-145159761D01*
X167655952Y-145207380D01*
X167560714Y-145207380D01*
X168560714Y-144635952D02*
X168465476Y-144588333D01*
X168417857Y-144540714D01*
X168370238Y-144445476D01*
X168370238Y-144397857D01*
X168417857Y-144302619D01*
X168465476Y-144255000D01*
X168560714Y-144207380D01*
X168751190Y-144207380D01*
X168846428Y-144255000D01*
X168894047Y-144302619D01*
X168941666Y-144397857D01*
X168941666Y-144445476D01*
X168894047Y-144540714D01*
X168846428Y-144588333D01*
X168751190Y-144635952D01*
X168560714Y-144635952D01*
X168465476Y-144683571D01*
X168417857Y-144731190D01*
X168370238Y-144826428D01*
X168370238Y-145016904D01*
X168417857Y-145112142D01*
X168465476Y-145159761D01*
X168560714Y-145207380D01*
X168751190Y-145207380D01*
X168846428Y-145159761D01*
X168894047Y-145112142D01*
X168941666Y-145016904D01*
X168941666Y-144826428D01*
X168894047Y-144731190D01*
X168846428Y-144683571D01*
X168751190Y-144635952D01*
%TO.C,J12*%
X144892380Y-108759523D02*
X145606666Y-108759523D01*
X145749523Y-108807142D01*
X145844761Y-108902380D01*
X145892380Y-109045238D01*
X145892380Y-109140476D01*
X145892380Y-107759523D02*
X145892380Y-108330952D01*
X145892380Y-108045238D02*
X144892380Y-108045238D01*
X145035238Y-108140476D01*
X145130476Y-108235714D01*
X145178095Y-108330952D01*
X144987619Y-107378571D02*
X144940000Y-107330952D01*
X144892380Y-107235714D01*
X144892380Y-106997619D01*
X144940000Y-106902380D01*
X144987619Y-106854761D01*
X145082857Y-106807142D01*
X145178095Y-106807142D01*
X145320952Y-106854761D01*
X145892380Y-107426190D01*
X145892380Y-106807142D01*
%TO.C,J18*%
X156722380Y-117649523D02*
X157436666Y-117649523D01*
X157579523Y-117697142D01*
X157674761Y-117792380D01*
X157722380Y-117935238D01*
X157722380Y-118030476D01*
X157722380Y-116649523D02*
X157722380Y-117220952D01*
X157722380Y-116935238D02*
X156722380Y-116935238D01*
X156865238Y-117030476D01*
X156960476Y-117125714D01*
X157008095Y-117220952D01*
X157150952Y-116078095D02*
X157103333Y-116173333D01*
X157055714Y-116220952D01*
X156960476Y-116268571D01*
X156912857Y-116268571D01*
X156817619Y-116220952D01*
X156770000Y-116173333D01*
X156722380Y-116078095D01*
X156722380Y-115887619D01*
X156770000Y-115792380D01*
X156817619Y-115744761D01*
X156912857Y-115697142D01*
X156960476Y-115697142D01*
X157055714Y-115744761D01*
X157103333Y-115792380D01*
X157150952Y-115887619D01*
X157150952Y-116078095D01*
X157198571Y-116173333D01*
X157246190Y-116220952D01*
X157341428Y-116268571D01*
X157531904Y-116268571D01*
X157627142Y-116220952D01*
X157674761Y-116173333D01*
X157722380Y-116078095D01*
X157722380Y-115887619D01*
X157674761Y-115792380D01*
X157627142Y-115744761D01*
X157531904Y-115697142D01*
X157341428Y-115697142D01*
X157246190Y-115744761D01*
X157198571Y-115792380D01*
X157150952Y-115887619D01*
%TO.C,J19*%
X154007380Y-94789523D02*
X154721666Y-94789523D01*
X154864523Y-94837142D01*
X154959761Y-94932380D01*
X155007380Y-95075238D01*
X155007380Y-95170476D01*
X155007380Y-93789523D02*
X155007380Y-94360952D01*
X155007380Y-94075238D02*
X154007380Y-94075238D01*
X154150238Y-94170476D01*
X154245476Y-94265714D01*
X154293095Y-94360952D01*
X155007380Y-93313333D02*
X155007380Y-93122857D01*
X154959761Y-93027619D01*
X154912142Y-92980000D01*
X154769285Y-92884761D01*
X154578809Y-92837142D01*
X154197857Y-92837142D01*
X154102619Y-92884761D01*
X154055000Y-92932380D01*
X154007380Y-93027619D01*
X154007380Y-93218095D01*
X154055000Y-93313333D01*
X154102619Y-93360952D01*
X154197857Y-93408571D01*
X154435952Y-93408571D01*
X154531190Y-93360952D01*
X154578809Y-93313333D01*
X154626428Y-93218095D01*
X154626428Y-93027619D01*
X154578809Y-92932380D01*
X154531190Y-92884761D01*
X154435952Y-92837142D01*
%TO.C,J20*%
X136350476Y-91952380D02*
X136350476Y-92666666D01*
X136302857Y-92809523D01*
X136207619Y-92904761D01*
X136064761Y-92952380D01*
X135969523Y-92952380D01*
X136779047Y-92047619D02*
X136826666Y-92000000D01*
X136921904Y-91952380D01*
X137160000Y-91952380D01*
X137255238Y-92000000D01*
X137302857Y-92047619D01*
X137350476Y-92142857D01*
X137350476Y-92238095D01*
X137302857Y-92380952D01*
X136731428Y-92952380D01*
X137350476Y-92952380D01*
X137969523Y-91952380D02*
X138064761Y-91952380D01*
X138160000Y-92000000D01*
X138207619Y-92047619D01*
X138255238Y-92142857D01*
X138302857Y-92333333D01*
X138302857Y-92571428D01*
X138255238Y-92761904D01*
X138207619Y-92857142D01*
X138160000Y-92904761D01*
X138064761Y-92952380D01*
X137969523Y-92952380D01*
X137874285Y-92904761D01*
X137826666Y-92857142D01*
X137779047Y-92761904D01*
X137731428Y-92571428D01*
X137731428Y-92333333D01*
X137779047Y-92142857D01*
X137826666Y-92047619D01*
X137874285Y-92000000D01*
X137969523Y-91952380D01*
%TO.C,J21*%
X46180476Y-112907380D02*
X46180476Y-113621666D01*
X46132857Y-113764523D01*
X46037619Y-113859761D01*
X45894761Y-113907380D01*
X45799523Y-113907380D01*
X46609047Y-113002619D02*
X46656666Y-112955000D01*
X46751904Y-112907380D01*
X46990000Y-112907380D01*
X47085238Y-112955000D01*
X47132857Y-113002619D01*
X47180476Y-113097857D01*
X47180476Y-113193095D01*
X47132857Y-113335952D01*
X46561428Y-113907380D01*
X47180476Y-113907380D01*
X48132857Y-113907380D02*
X47561428Y-113907380D01*
X47847142Y-113907380D02*
X47847142Y-112907380D01*
X47751904Y-113050238D01*
X47656666Y-113145476D01*
X47561428Y-113193095D01*
%TO.C,R1*%
X58067380Y-91606666D02*
X57591190Y-91940000D01*
X58067380Y-92178095D02*
X57067380Y-92178095D01*
X57067380Y-91797142D01*
X57115000Y-91701904D01*
X57162619Y-91654285D01*
X57257857Y-91606666D01*
X57400714Y-91606666D01*
X57495952Y-91654285D01*
X57543571Y-91701904D01*
X57591190Y-91797142D01*
X57591190Y-92178095D01*
X58067380Y-90654285D02*
X58067380Y-91225714D01*
X58067380Y-90940000D02*
X57067380Y-90940000D01*
X57210238Y-91035238D01*
X57305476Y-91130476D01*
X57353095Y-91225714D01*
%TO.C,R2*%
X68567380Y-86526666D02*
X68091190Y-86860000D01*
X68567380Y-87098095D02*
X67567380Y-87098095D01*
X67567380Y-86717142D01*
X67615000Y-86621904D01*
X67662619Y-86574285D01*
X67757857Y-86526666D01*
X67900714Y-86526666D01*
X67995952Y-86574285D01*
X68043571Y-86621904D01*
X68091190Y-86717142D01*
X68091190Y-87098095D01*
X67662619Y-86145714D02*
X67615000Y-86098095D01*
X67567380Y-86002857D01*
X67567380Y-85764761D01*
X67615000Y-85669523D01*
X67662619Y-85621904D01*
X67757857Y-85574285D01*
X67853095Y-85574285D01*
X67995952Y-85621904D01*
X68567380Y-86193333D01*
X68567380Y-85574285D01*
%TO.C,U2*%
X35433095Y-138942380D02*
X35433095Y-139751904D01*
X35480714Y-139847142D01*
X35528333Y-139894761D01*
X35623571Y-139942380D01*
X35814047Y-139942380D01*
X35909285Y-139894761D01*
X35956904Y-139847142D01*
X36004523Y-139751904D01*
X36004523Y-138942380D01*
X36433095Y-139037619D02*
X36480714Y-138990000D01*
X36575952Y-138942380D01*
X36814047Y-138942380D01*
X36909285Y-138990000D01*
X36956904Y-139037619D01*
X37004523Y-139132857D01*
X37004523Y-139228095D01*
X36956904Y-139370952D01*
X36385476Y-139942380D01*
X37004523Y-139942380D01*
%TO.C,U3*%
X151638095Y-140632380D02*
X151638095Y-141441904D01*
X151685714Y-141537142D01*
X151733333Y-141584761D01*
X151828571Y-141632380D01*
X152019047Y-141632380D01*
X152114285Y-141584761D01*
X152161904Y-141537142D01*
X152209523Y-141441904D01*
X152209523Y-140632380D01*
X152590476Y-140632380D02*
X153209523Y-140632380D01*
X152876190Y-141013333D01*
X153019047Y-141013333D01*
X153114285Y-141060952D01*
X153161904Y-141108571D01*
X153209523Y-141203809D01*
X153209523Y-141441904D01*
X153161904Y-141537142D01*
X153114285Y-141584761D01*
X153019047Y-141632380D01*
X152733333Y-141632380D01*
X152638095Y-141584761D01*
X152590476Y-141537142D01*
%TO.C,U4*%
X107823095Y-29507380D02*
X107823095Y-30316904D01*
X107870714Y-30412142D01*
X107918333Y-30459761D01*
X108013571Y-30507380D01*
X108204047Y-30507380D01*
X108299285Y-30459761D01*
X108346904Y-30412142D01*
X108394523Y-30316904D01*
X108394523Y-29507380D01*
X109299285Y-29840714D02*
X109299285Y-30507380D01*
X109061190Y-29459761D02*
X108823095Y-30174047D01*
X109442142Y-30174047D01*
%TO.C,J1*%
X56816666Y-125557380D02*
X56816666Y-126271666D01*
X56769047Y-126414523D01*
X56673809Y-126509761D01*
X56530952Y-126557380D01*
X56435714Y-126557380D01*
X57816666Y-126557380D02*
X57245238Y-126557380D01*
X57530952Y-126557380D02*
X57530952Y-125557380D01*
X57435714Y-125700238D01*
X57340476Y-125795476D01*
X57245238Y-125843095D01*
%TO.C,J2*%
X56816666Y-135082380D02*
X56816666Y-135796666D01*
X56769047Y-135939523D01*
X56673809Y-136034761D01*
X56530952Y-136082380D01*
X56435714Y-136082380D01*
X57245238Y-135177619D02*
X57292857Y-135130000D01*
X57388095Y-135082380D01*
X57626190Y-135082380D01*
X57721428Y-135130000D01*
X57769047Y-135177619D01*
X57816666Y-135272857D01*
X57816666Y-135368095D01*
X57769047Y-135510952D01*
X57197619Y-136082380D01*
X57816666Y-136082380D01*
%TO.C,J3*%
X56856666Y-144607380D02*
X56856666Y-145321666D01*
X56809047Y-145464523D01*
X56713809Y-145559761D01*
X56570952Y-145607380D01*
X56475714Y-145607380D01*
X57237619Y-144607380D02*
X57856666Y-144607380D01*
X57523333Y-144988333D01*
X57666190Y-144988333D01*
X57761428Y-145035952D01*
X57809047Y-145083571D01*
X57856666Y-145178809D01*
X57856666Y-145416904D01*
X57809047Y-145512142D01*
X57761428Y-145559761D01*
X57666190Y-145607380D01*
X57380476Y-145607380D01*
X57285238Y-145559761D01*
X57237619Y-145512142D01*
%TO.C,J17*%
X99520476Y-157827380D02*
X99520476Y-158541666D01*
X99472857Y-158684523D01*
X99377619Y-158779761D01*
X99234761Y-158827380D01*
X99139523Y-158827380D01*
X100520476Y-158827380D02*
X99949047Y-158827380D01*
X100234761Y-158827380D02*
X100234761Y-157827380D01*
X100139523Y-157970238D01*
X100044285Y-158065476D01*
X99949047Y-158113095D01*
X100853809Y-157827380D02*
X101520476Y-157827380D01*
X101091904Y-158827380D01*
%TO.C,R3*%
X79208333Y-58702380D02*
X78875000Y-58226190D01*
X78636904Y-58702380D02*
X78636904Y-57702380D01*
X79017857Y-57702380D01*
X79113095Y-57750000D01*
X79160714Y-57797619D01*
X79208333Y-57892857D01*
X79208333Y-58035714D01*
X79160714Y-58130952D01*
X79113095Y-58178571D01*
X79017857Y-58226190D01*
X78636904Y-58226190D01*
X79541666Y-57702380D02*
X80160714Y-57702380D01*
X79827380Y-58083333D01*
X79970238Y-58083333D01*
X80065476Y-58130952D01*
X80113095Y-58178571D01*
X80160714Y-58273809D01*
X80160714Y-58511904D01*
X80113095Y-58607142D01*
X80065476Y-58654761D01*
X79970238Y-58702380D01*
X79684523Y-58702380D01*
X79589285Y-58654761D01*
X79541666Y-58607142D01*
%TO.C,J13*%
X40937380Y-159559523D02*
X41651666Y-159559523D01*
X41794523Y-159607142D01*
X41889761Y-159702380D01*
X41937380Y-159845238D01*
X41937380Y-159940476D01*
X41937380Y-158559523D02*
X41937380Y-159130952D01*
X41937380Y-158845238D02*
X40937380Y-158845238D01*
X41080238Y-158940476D01*
X41175476Y-159035714D01*
X41223095Y-159130952D01*
X40937380Y-158226190D02*
X40937380Y-157607142D01*
X41318333Y-157940476D01*
X41318333Y-157797619D01*
X41365952Y-157702380D01*
X41413571Y-157654761D01*
X41508809Y-157607142D01*
X41746904Y-157607142D01*
X41842142Y-157654761D01*
X41889761Y-157702380D01*
X41937380Y-157797619D01*
X41937380Y-158083333D01*
X41889761Y-158178571D01*
X41842142Y-158226190D01*
%TO.C,J15*%
X83482380Y-28114523D02*
X84196666Y-28114523D01*
X84339523Y-28162142D01*
X84434761Y-28257380D01*
X84482380Y-28400238D01*
X84482380Y-28495476D01*
X84482380Y-27114523D02*
X84482380Y-27685952D01*
X84482380Y-27400238D02*
X83482380Y-27400238D01*
X83625238Y-27495476D01*
X83720476Y-27590714D01*
X83768095Y-27685952D01*
X83482380Y-26209761D02*
X83482380Y-26685952D01*
X83958571Y-26733571D01*
X83910952Y-26685952D01*
X83863333Y-26590714D01*
X83863333Y-26352619D01*
X83910952Y-26257380D01*
X83958571Y-26209761D01*
X84053809Y-26162142D01*
X84291904Y-26162142D01*
X84387142Y-26209761D01*
X84434761Y-26257380D01*
X84482380Y-26352619D01*
X84482380Y-26590714D01*
X84434761Y-26685952D01*
X84387142Y-26733571D01*
%TO.C,J16*%
X150955476Y-119042380D02*
X150955476Y-119756666D01*
X150907857Y-119899523D01*
X150812619Y-119994761D01*
X150669761Y-120042380D01*
X150574523Y-120042380D01*
X151955476Y-120042380D02*
X151384047Y-120042380D01*
X151669761Y-120042380D02*
X151669761Y-119042380D01*
X151574523Y-119185238D01*
X151479285Y-119280476D01*
X151384047Y-119328095D01*
X152812619Y-119042380D02*
X152622142Y-119042380D01*
X152526904Y-119090000D01*
X152479285Y-119137619D01*
X152384047Y-119280476D01*
X152336428Y-119470952D01*
X152336428Y-119851904D01*
X152384047Y-119947142D01*
X152431666Y-119994761D01*
X152526904Y-120042380D01*
X152717380Y-120042380D01*
X152812619Y-119994761D01*
X152860238Y-119947142D01*
X152907857Y-119851904D01*
X152907857Y-119613809D01*
X152860238Y-119518571D01*
X152812619Y-119470952D01*
X152717380Y-119423333D01*
X152526904Y-119423333D01*
X152431666Y-119470952D01*
X152384047Y-119518571D01*
X152336428Y-119613809D01*
%TO.C,R4*%
X80478333Y-150482380D02*
X80145000Y-150006190D01*
X79906904Y-150482380D02*
X79906904Y-149482380D01*
X80287857Y-149482380D01*
X80383095Y-149530000D01*
X80430714Y-149577619D01*
X80478333Y-149672857D01*
X80478333Y-149815714D01*
X80430714Y-149910952D01*
X80383095Y-149958571D01*
X80287857Y-150006190D01*
X79906904Y-150006190D01*
X81335476Y-149815714D02*
X81335476Y-150482380D01*
X81097380Y-149434761D02*
X80859285Y-150149047D01*
X81478333Y-150149047D01*
%TO.C,R5*%
X80478333Y-154292380D02*
X80145000Y-153816190D01*
X79906904Y-154292380D02*
X79906904Y-153292380D01*
X80287857Y-153292380D01*
X80383095Y-153340000D01*
X80430714Y-153387619D01*
X80478333Y-153482857D01*
X80478333Y-153625714D01*
X80430714Y-153720952D01*
X80383095Y-153768571D01*
X80287857Y-153816190D01*
X79906904Y-153816190D01*
X81383095Y-153292380D02*
X80906904Y-153292380D01*
X80859285Y-153768571D01*
X80906904Y-153720952D01*
X81002142Y-153673333D01*
X81240238Y-153673333D01*
X81335476Y-153720952D01*
X81383095Y-153768571D01*
X81430714Y-153863809D01*
X81430714Y-154101904D01*
X81383095Y-154197142D01*
X81335476Y-154244761D01*
X81240238Y-154292380D01*
X81002142Y-154292380D01*
X80906904Y-154244761D01*
X80859285Y-154197142D01*
%TO.C,U1*%
X123698095Y-73572380D02*
X123698095Y-74381904D01*
X123745714Y-74477142D01*
X123793333Y-74524761D01*
X123888571Y-74572380D01*
X124079047Y-74572380D01*
X124174285Y-74524761D01*
X124221904Y-74477142D01*
X124269523Y-74381904D01*
X124269523Y-73572380D01*
X125269523Y-74572380D02*
X124698095Y-74572380D01*
X124983809Y-74572380D02*
X124983809Y-73572380D01*
X124888571Y-73715238D01*
X124793333Y-73810476D01*
X124698095Y-73858095D01*
%TO.C,R6*%
X145402380Y-127166666D02*
X144926190Y-127500000D01*
X145402380Y-127738095D02*
X144402380Y-127738095D01*
X144402380Y-127357142D01*
X144450000Y-127261904D01*
X144497619Y-127214285D01*
X144592857Y-127166666D01*
X144735714Y-127166666D01*
X144830952Y-127214285D01*
X144878571Y-127261904D01*
X144926190Y-127357142D01*
X144926190Y-127738095D01*
X144402380Y-126309523D02*
X144402380Y-126500000D01*
X144450000Y-126595238D01*
X144497619Y-126642857D01*
X144640476Y-126738095D01*
X144830952Y-126785714D01*
X145211904Y-126785714D01*
X145307142Y-126738095D01*
X145354761Y-126690476D01*
X145402380Y-126595238D01*
X145402380Y-126404761D01*
X145354761Y-126309523D01*
X145307142Y-126261904D01*
X145211904Y-126214285D01*
X144973809Y-126214285D01*
X144878571Y-126261904D01*
X144830952Y-126309523D01*
X144783333Y-126404761D01*
X144783333Y-126595238D01*
X144830952Y-126690476D01*
X144878571Y-126738095D01*
X144973809Y-126785714D01*
%TO.C,R7*%
X142227380Y-129706666D02*
X141751190Y-130040000D01*
X142227380Y-130278095D02*
X141227380Y-130278095D01*
X141227380Y-129897142D01*
X141275000Y-129801904D01*
X141322619Y-129754285D01*
X141417857Y-129706666D01*
X141560714Y-129706666D01*
X141655952Y-129754285D01*
X141703571Y-129801904D01*
X141751190Y-129897142D01*
X141751190Y-130278095D01*
X141227380Y-129373333D02*
X141227380Y-128706666D01*
X142227380Y-129135238D01*
%TO.C,R8*%
X88098333Y-116487380D02*
X87765000Y-116011190D01*
X87526904Y-116487380D02*
X87526904Y-115487380D01*
X87907857Y-115487380D01*
X88003095Y-115535000D01*
X88050714Y-115582619D01*
X88098333Y-115677857D01*
X88098333Y-115820714D01*
X88050714Y-115915952D01*
X88003095Y-115963571D01*
X87907857Y-116011190D01*
X87526904Y-116011190D01*
X88669761Y-115915952D02*
X88574523Y-115868333D01*
X88526904Y-115820714D01*
X88479285Y-115725476D01*
X88479285Y-115677857D01*
X88526904Y-115582619D01*
X88574523Y-115535000D01*
X88669761Y-115487380D01*
X88860238Y-115487380D01*
X88955476Y-115535000D01*
X89003095Y-115582619D01*
X89050714Y-115677857D01*
X89050714Y-115725476D01*
X89003095Y-115820714D01*
X88955476Y-115868333D01*
X88860238Y-115915952D01*
X88669761Y-115915952D01*
X88574523Y-115963571D01*
X88526904Y-116011190D01*
X88479285Y-116106428D01*
X88479285Y-116296904D01*
X88526904Y-116392142D01*
X88574523Y-116439761D01*
X88669761Y-116487380D01*
X88860238Y-116487380D01*
X88955476Y-116439761D01*
X89003095Y-116392142D01*
X89050714Y-116296904D01*
X89050714Y-116106428D01*
X89003095Y-116011190D01*
X88955476Y-115963571D01*
X88860238Y-115915952D01*
%TO.C,R9*%
X90003333Y-112042380D02*
X89670000Y-111566190D01*
X89431904Y-112042380D02*
X89431904Y-111042380D01*
X89812857Y-111042380D01*
X89908095Y-111090000D01*
X89955714Y-111137619D01*
X90003333Y-111232857D01*
X90003333Y-111375714D01*
X89955714Y-111470952D01*
X89908095Y-111518571D01*
X89812857Y-111566190D01*
X89431904Y-111566190D01*
X90479523Y-112042380D02*
X90670000Y-112042380D01*
X90765238Y-111994761D01*
X90812857Y-111947142D01*
X90908095Y-111804285D01*
X90955714Y-111613809D01*
X90955714Y-111232857D01*
X90908095Y-111137619D01*
X90860476Y-111090000D01*
X90765238Y-111042380D01*
X90574761Y-111042380D01*
X90479523Y-111090000D01*
X90431904Y-111137619D01*
X90384285Y-111232857D01*
X90384285Y-111470952D01*
X90431904Y-111566190D01*
X90479523Y-111613809D01*
X90574761Y-111661428D01*
X90765238Y-111661428D01*
X90860476Y-111613809D01*
X90908095Y-111566190D01*
X90955714Y-111470952D01*
%TO.C,J22*%
X102695476Y-67822380D02*
X102695476Y-68536666D01*
X102647857Y-68679523D01*
X102552619Y-68774761D01*
X102409761Y-68822380D01*
X102314523Y-68822380D01*
X103124047Y-67917619D02*
X103171666Y-67870000D01*
X103266904Y-67822380D01*
X103505000Y-67822380D01*
X103600238Y-67870000D01*
X103647857Y-67917619D01*
X103695476Y-68012857D01*
X103695476Y-68108095D01*
X103647857Y-68250952D01*
X103076428Y-68822380D01*
X103695476Y-68822380D01*
X104076428Y-67917619D02*
X104124047Y-67870000D01*
X104219285Y-67822380D01*
X104457380Y-67822380D01*
X104552619Y-67870000D01*
X104600238Y-67917619D01*
X104647857Y-68012857D01*
X104647857Y-68108095D01*
X104600238Y-68250952D01*
X104028809Y-68822380D01*
X104647857Y-68822380D01*
%TO.C,J23*%
X53245476Y-148317380D02*
X53245476Y-149031666D01*
X53197857Y-149174523D01*
X53102619Y-149269761D01*
X52959761Y-149317380D01*
X52864523Y-149317380D01*
X53674047Y-148412619D02*
X53721666Y-148365000D01*
X53816904Y-148317380D01*
X54055000Y-148317380D01*
X54150238Y-148365000D01*
X54197857Y-148412619D01*
X54245476Y-148507857D01*
X54245476Y-148603095D01*
X54197857Y-148745952D01*
X53626428Y-149317380D01*
X54245476Y-149317380D01*
X54578809Y-148317380D02*
X55197857Y-148317380D01*
X54864523Y-148698333D01*
X55007380Y-148698333D01*
X55102619Y-148745952D01*
X55150238Y-148793571D01*
X55197857Y-148888809D01*
X55197857Y-149126904D01*
X55150238Y-149222142D01*
X55102619Y-149269761D01*
X55007380Y-149317380D01*
X54721666Y-149317380D01*
X54626428Y-149269761D01*
X54578809Y-149222142D01*
%TO.C,J24*%
X93440476Y-29572380D02*
X93440476Y-30286666D01*
X93392857Y-30429523D01*
X93297619Y-30524761D01*
X93154761Y-30572380D01*
X93059523Y-30572380D01*
X93869047Y-29667619D02*
X93916666Y-29620000D01*
X94011904Y-29572380D01*
X94250000Y-29572380D01*
X94345238Y-29620000D01*
X94392857Y-29667619D01*
X94440476Y-29762857D01*
X94440476Y-29858095D01*
X94392857Y-30000952D01*
X93821428Y-30572380D01*
X94440476Y-30572380D01*
X95297619Y-29905714D02*
X95297619Y-30572380D01*
X95059523Y-29524761D02*
X94821428Y-30239047D01*
X95440476Y-30239047D01*
%TO.C,J25*%
X161737380Y-130429523D02*
X162451666Y-130429523D01*
X162594523Y-130477142D01*
X162689761Y-130572380D01*
X162737380Y-130715238D01*
X162737380Y-130810476D01*
X161832619Y-130000952D02*
X161785000Y-129953333D01*
X161737380Y-129858095D01*
X161737380Y-129620000D01*
X161785000Y-129524761D01*
X161832619Y-129477142D01*
X161927857Y-129429523D01*
X162023095Y-129429523D01*
X162165952Y-129477142D01*
X162737380Y-130048571D01*
X162737380Y-129429523D01*
X161737380Y-128524761D02*
X161737380Y-129000952D01*
X162213571Y-129048571D01*
X162165952Y-129000952D01*
X162118333Y-128905714D01*
X162118333Y-128667619D01*
X162165952Y-128572380D01*
X162213571Y-128524761D01*
X162308809Y-128477142D01*
X162546904Y-128477142D01*
X162642142Y-128524761D01*
X162689761Y-128572380D01*
X162737380Y-128667619D01*
X162737380Y-128905714D01*
X162689761Y-129000952D01*
X162642142Y-129048571D01*
%TO.C,T2*%
X123063095Y-160352380D02*
X123634523Y-160352380D01*
X123348809Y-161352380D02*
X123348809Y-160352380D01*
X123920238Y-160447619D02*
X123967857Y-160400000D01*
X124063095Y-160352380D01*
X124301190Y-160352380D01*
X124396428Y-160400000D01*
X124444047Y-160447619D01*
X124491666Y-160542857D01*
X124491666Y-160638095D01*
X124444047Y-160780952D01*
X123872619Y-161352380D01*
X124491666Y-161352380D01*
%TD*%
M02*
